<svg xmlns="http://www.w3.org/2000/svg" width="400" height="330" viewBox="0 0 400 330">
  <g id="Grupo_952203" data-name="Grupo 952203" transform="translate(-810 -7937.505)">
    <rect id="Rectángulo_306538" data-name="Rectángulo 306538" width="400" height="330" transform="translate(810 7937.505)" fill="none"/>
    <g id="Grupo_954226" data-name="Grupo 954226" transform="translate(825.095 7925.598)">
      <g id="Background_Simple" data-name="Background Simple" transform="translate(22.619 20.488)">
        <g id="Grupo_954194" data-name="Grupo 954194">
          <path id="Trazado_629816" data-name="Trazado 629816" d="M346.36,164.041A127.542,127.542,0,0,0,310.481,59.656a119.8,119.8,0,0,0-56.1-32.307c-68.31-17.2-112.582-1.444-134.714,40.415S34.032,102.4,23.928,174.572,62.9,326.125,146.133,330.455s72.521-37.1,118.051-54.876C299.006,261.985,339.842,221.358,346.36,164.041Z" transform="translate(-22.619 -20.488)" fill="#faebcd"/>
        </g>
      </g>
      <g id="Plant" transform="translate(236.995 266.651)">
        <g id="Grupo_954195" data-name="Grupo 954195">
          <path id="Trazado_629818" data-name="Trazado 629818" d="M326.632,388.529c1.628.71,5.609.621,5.612.621.041,0-.856-2.607-.931-2.764-.873-1.828-3.636-4.845-5.884-4.542a2.686,2.686,0,0,0-2.155,3.364C323.648,386.766,325.246,387.923,326.632,388.529Z" transform="translate(-323.194 -370.275)" fill="#263238"/>
          <path id="Trazado_629819" data-name="Trazado 629819" d="M328.142,395.419c1.688.246,5.241-.785,5.524-.868a47.565,47.565,0,0,0,2.155,5.963c.489,1.132,1.016,2.256,1.559,3.377-.324-.474-.618-.9-.665-.951-1.325-1.532-4.787-3.713-6.874-2.826a2.684,2.684,0,0,0-1.19,3.814c.77,1.4,2.618,2.1,4.115,2.315,1.519.222,4.566-.6,5.37-.824.213.428.42.858.636,1.284,1.028,2.049,2.064,4.089,3.018,6.121.337.716.642,1.434.951,2.15-.288-.422-.535-.774-.578-.824-1.325-1.532-4.786-3.713-6.874-2.826a2.684,2.684,0,0,0-1.19,3.814c.772,1.4,2.618,2.1,4.115,2.315a17.11,17.11,0,0,0,5.224-.783c.294.743.589,1.488.839,2.221.16.5.349.98.481,1.5l.421,1.51c.233.969.479,1.968.682,2.918.146.66.273,1.292.4,1.929-.327-.717-1-2.106-1.066-2.216-1.077-1.715-4.168-4.394-6.367-3.834a2.684,2.684,0,0,0-1.753,3.589c.55,1.5,2.269,2.47,3.717,2.912,1.593.487,5.119.042,5.56-.016.212,1.053.407,2.08.576,3.053q.19,1.079.349,2.075h1.412q-.2-1.109-.44-2.322c-.21-1.071-.456-2.211-.72-3.379a29.279,29.279,0,0,0,3.1-1.458,19.637,19.637,0,0,0,4.521,2.916c-.405,1-.809,1.96-1.2,2.864-.208.479-.411.931-.612,1.38h1.493c.118-.285.236-.562.357-.857.416-1.009.839-2.1,1.264-3.216.427.089,3.918.8,5.545.431,1.475-.334,3.263-1.168,3.923-2.628a2.683,2.683,0,0,0-1.482-3.709c-2.15-.722-5.432,1.72-6.634,3.349-.071.1-.725,1.225-1.125,1.945.171-.459.342-.9.513-1.376.344-.935.658-1.879,1-2.893q.221-.742.449-1.5c.16-.5.267-1.044.4-1.571.292-1.228.529-2.486.739-3.759.82.3,3.747,1.316,5.263,1.21s3.4-.66,4.276-2a2.684,2.684,0,0,0-.9-3.892c-2.016-1.039-5.63.878-7.066,2.307-.09.088-1,1.23-1.495,1.867.121-.766.245-1.531.341-2.309.28-2.25.491-4.535.714-6.813.068-.7.143-1.393.217-2.088.291.109,3.743,1.394,5.441,1.275,1.508-.106,3.4-.66,4.276-2a2.684,2.684,0,0,0-.9-3.891c-2.016-1.04-5.63.877-7.065,2.306-.108.108-1.423,1.752-1.737,2.186.162-1.533.337-3.058.572-4.555a47.265,47.265,0,0,1,1.307-5.99c.135.051,3.732,1.409,5.471,1.287,1.509-.106,3.4-.66,4.276-2a2.684,2.684,0,0,0-.9-3.891c-2.016-1.04-5.63.877-7.066,2.306-.113.112-1.526,1.882-1.759,2.22.034-.113.056-.235.091-.349a34.578,34.578,0,0,1,2.374-5.668c.516-1.01,1.066-1.946,1.62-2.844.644.322,3.6,1.759,5.181,1.822,1.511.061,3.454-.282,4.47-1.521a2.684,2.684,0,0,0-.469-3.967c-1.89-1.255-5.693.253-7.277,1.516-.086.068-.884.864-1.457,1.451.257-.4.514-.821.767-1.2.949-1.429,1.906-2.679,2.762-3.779.492-.621.949-1.174,1.383-1.687.8-.014,4.006-.111,5.41-.77,1.369-.643,2.935-1.843,3.267-3.41a2.685,2.685,0,0,0-2.245-3.3c-2.255-.243-4.935,2.847-5.76,4.7-.071.16-.9,2.789-.856,2.789h.048c-.427.484-.879,1.009-1.362,1.592-.882,1.084-1.869,2.317-2.852,3.731a47.653,47.653,0,0,0-2.958,4.712,35.073,35.073,0,0,0-2.527,5.689c-.007.023-.012.048-.02.071.011-.664-.018-2.523-.036-2.665-.26-2.009-1.943-5.738-4.174-6.15a2.685,2.685,0,0,0-3.1,2.525c-.131,1.6,1.026,3.193,2.155,4.2,1.272,1.136,4.8,2.237,5.086,2.324a47.461,47.461,0,0,0-1.492,6.161c-.217,1.214-.4,2.443-.562,3.677-.009-.575-.02-1.089-.03-1.16-.26-2.009-1.944-5.737-4.174-6.149a2.684,2.684,0,0,0-3.1,2.525c-.131,1.6,1.026,3.193,2.155,4.2,1.145,1.023,4.137,2.022,4.933,2.276-.058.474-.122.947-.178,1.421-.272,2.277-.533,4.549-.859,6.771-.114.783-.255,1.55-.394,2.317-.008-.51-.019-.94-.027-1.006-.261-2.009-1.944-5.737-4.174-6.149a2.685,2.685,0,0,0-3.1,2.525c-.131,1.6,1.027,3.193,2.155,4.2a17.106,17.106,0,0,0,4.79,2.229c-.165.782-.329,1.565-.526,2.316-.146.509-.25,1.009-.424,1.513s-.322,1-.481,1.491c-.341.937-.686,1.906-1.041,2.811-.242.632-.486,1.229-.728,1.831.123-.777.331-2.306.334-2.435a10.416,10.416,0,0,0-1.4-5.071,3.181,3.181,0,0,0-.037-.593,2.684,2.684,0,0,0-3.282-2.277c-2.192.583-3.583,4.431-3.686,6.454-.006.119.072,1.421.135,2.242-.111-.477-.212-.941-.332-1.431-.23-.969-.488-1.93-.761-2.965q-.225-.742-.454-1.5c-.14-.5-.354-1.018-.53-1.533-.434-1.185-.93-2.366-1.457-3.543.849-.2,3.851-.969,5.057-1.894s2.473-2.428,2.462-4.029a2.685,2.685,0,0,0-2.9-2.749c-2.255.245-4.212,3.838-4.622,5.821-.026.124-.159,1.58-.217,2.382-.322-.705-.641-1.411-.99-2.115-1.007-2.03-2.09-4.053-3.162-6.077-.329-.62-.649-1.24-.971-1.861.3-.069,3.891-.9,5.241-1.938,1.2-.921,2.473-2.428,2.462-4.029a2.684,2.684,0,0,0-2.9-2.748c-2.255.245-4.212,3.837-4.622,5.821-.031.149-.22,2.245-.242,2.78-.71-1.367-1.405-2.736-2.036-4.114a47.323,47.323,0,0,1-2.214-5.717c.141-.032,3.89-.884,5.274-1.946,1.2-.921,2.473-2.428,2.462-4.029a2.684,2.684,0,0,0-2.9-2.748c-2.255.245-4.212,3.837-4.622,5.821-.032.156-.235,2.411-.242,2.822-.035-.113-.083-.227-.117-.34a34.591,34.591,0,0,1-1.148-6.037c-.126-1.126-.184-2.21-.217-3.266.715-.087,3.976-.521,5.326-1.339,1.294-.784,2.725-2.142,2.889-3.734a2.684,2.684,0,0,0-2.58-3.05c-2.268-.005-4.608,3.351-5.233,5.278-.034.1-.261,1.208-.415,2.014-.008-.476-.024-.969-.022-1.425,0-1.715.111-3.286.219-4.676.067-.791.144-1.5.223-2.17.656-.451,3.279-2.3,4.086-3.627.788-1.292,1.431-3.156.844-4.646a2.685,2.685,0,0,0-3.694-1.518c-2.016,1.042-2.545,5.1-2.212,7.1.029.172.79,2.821.824,2.8l.039-.027c-.088.639-.176,1.327-.256,2.079-.138,1.39-.282,2.963-.322,4.685a47.629,47.629,0,0,0,.133,5.562,34.945,34.945,0,0,0,1.031,6.138c.006.023.016.048.023.071-.357-.561-1.408-2.095-1.5-2.2-1.326-1.532-4.786-3.712-6.875-2.826a2.685,2.685,0,0,0-1.19,3.814C324.8,394.507,326.645,395.2,328.142,395.419Z" transform="translate(-323.329 -365.632)" fill="#263238"/>
          <path id="Trazado_629820" data-name="Trazado 629820" d="M382.268,388.389c.035.022.724-2.646.748-2.819.28-2.006-.36-6.047-2.4-7.034a2.685,2.685,0,0,0-3.652,1.618c-.548,1.5.147,3.351.969,4.621C378.895,386.266,382.265,388.388,382.268,388.389Z" transform="translate(-338.557 -369.26)" fill="#263238"/>
        </g>
      </g>
      <g id="Heart" transform="translate(293.092 237.205)">
        <path id="Trazado_629821" data-name="Trazado 629821" d="M427.862,336.784l-1.623,1.637-10.31,10.31-10.323-10.31-1.623-1.637a7.29,7.29,0,0,1,10.31-10.31l1.636,1.636,1.623-1.636a7.29,7.29,0,0,1,10.31,10.31Z" transform="translate(-401.848 -324.345)" fill="none" stroke="#263238" stroke-linecap="round" stroke-linejoin="round" stroke-width="1"/>
      </g>
      <g id="Device" transform="translate(260.017 55.992)">
        <g id="Grupo_954196" data-name="Grupo 954196" transform="translate(0 0)">
          <path id="Rectángulo_306654" data-name="Rectángulo 306654" d="M4.4,0H52.5a4.4,4.4,0,0,1,4.4,4.4V37.447a0,0,0,0,1,0,0H0a0,0,0,0,1,0,0V4.4A4.4,4.4,0,0,1,4.4,0Z" transform="translate(3.669)" fill="none" stroke="#263238" stroke-linecap="round" stroke-linejoin="round" stroke-width="1"/>
          <path id="Rectángulo_306655" data-name="Rectángulo 306655" d="M4,0H48.951a4,4,0,0,1,4,4V34.848a0,0,0,0,1,0,0H0a0,0,0,0,1,0,0V4A4,4,0,0,1,4,0Z" transform="translate(5.644 1.3)" fill="none" stroke="#263238" stroke-linecap="round" stroke-linejoin="round" stroke-width="1"/>
          <path id="Trazado_629822" data-name="Trazado 629822" d="M355.474,122.914h64.238a3.4,3.4,0,0,1-3.4,3.4h-57.43a3.4,3.4,0,0,1-3.4-3.4Z" transform="translate(-355.474 -85.366)" fill="none" stroke="#263238" stroke-linecap="round" stroke-linejoin="round" stroke-width="1"/>
        </g>
      </g>
      <g id="Cellphone" transform="translate(58.05 47.582)">
        <g id="Grupo_954198" data-name="Grupo 954198">
          <g id="Grupo_954197" data-name="Grupo 954197">
            <rect id="Rectángulo_306656" data-name="Rectángulo 306656" width="26.6" height="53.2" rx="4.336" fill="none" stroke="#263238" stroke-linecap="round" stroke-linejoin="round" stroke-width="1"/>
            <path id="Trazado_629823" data-name="Trazado 629823" d="M72.3,123.908v2.961c0,1.973,1.322,3.573,2.952,3.573h20.7c1.63,0,2.952-1.6,2.952-3.573v-2.961Z" transform="translate(-72.297 -77.241)" fill="none" stroke="#263238" stroke-linecap="round" stroke-linejoin="round" stroke-width="1"/>
          </g>
          <path id="Trazado_629824" data-name="Trazado 629824" d="M98.9,65.01V62.05c0-1.973-1.322-3.573-2.952-3.573h-20.7c-1.63,0-2.952,1.6-2.952,3.573v2.96Z" transform="translate(-72.297 -58.477)" fill="none" stroke="#263238" stroke-linecap="round" stroke-linejoin="round" stroke-width="1"/>
        </g>
      </g>
      <g id="Stars" transform="translate(50.636 268.153)">
        <g id="Grupo_954199" data-name="Grupo 954199">
          <path id="Trazado_629825" data-name="Trazado 629825" d="M68.358,367.738l1.524,4.691h4.932l-3.99,2.9,1.524,4.691-3.99-2.9-3.99,2.9,1.524-4.691-3.99-2.9h4.932Z" transform="translate(-61.902 -367.738)" fill="none" stroke="#263238" stroke-linecap="round" stroke-linejoin="round" stroke-width="1"/>
          <path id="Trazado_629826" data-name="Trazado 629826" d="M89.892,367.738l1.524,4.691h4.932l-3.99,2.9,1.524,4.691-3.99-2.9-3.99,2.9,1.524-4.691-3.99-2.9h4.932Z" transform="translate(-68.077 -367.738)" fill="none" stroke="#263238" stroke-linecap="round" stroke-linejoin="round" stroke-width="1"/>
          <path id="Trazado_629827" data-name="Trazado 629827" d="M111.425,367.738l1.524,4.691h4.932l-3.99,2.9,1.524,4.691-3.99-2.9-3.99,2.9,1.524-4.691-3.99-2.9H109.9Z" transform="translate(-74.253 -367.738)" fill="none" stroke="#263238" stroke-linecap="round" stroke-linejoin="round" stroke-width="1"/>
          <path id="Trazado_629828" data-name="Trazado 629828" d="M132.958,367.738l1.524,4.691h4.932l-3.99,2.9,1.524,4.691-3.99-2.9-3.99,2.9,1.524-4.691-3.99-2.9h4.932Z" transform="translate(-80.428 -367.738)" fill="none" stroke="#263238" stroke-linecap="round" stroke-linejoin="round" stroke-width="1"/>
          <path id="Trazado_629829" data-name="Trazado 629829" d="M154.492,367.738l1.524,4.691h4.932l-3.99,2.9,1.524,4.691-3.99-2.9-3.99,2.9,1.524-4.691-3.99-2.9h4.932Z" transform="translate(-86.603 -367.738)" fill="none" stroke="#263238" stroke-linecap="round" stroke-linejoin="round" stroke-width="1"/>
        </g>
      </g>
      <g id="Speech_Bubble_6" data-name="Speech Bubble 6" transform="translate(242.207 176.176)">
        <g id="Grupo_954201" data-name="Grupo 954201">
          <path id="Trazado_629830" data-name="Trazado 629830" d="M330.5,281.426V251.749a3.668,3.668,0,0,1,3.786-3.538h4.56l-.593-9.434,7.738,9.434h18.364a3.668,3.668,0,0,1,3.786,3.538v29.677a3.668,3.668,0,0,1-3.786,3.538H334.288A3.668,3.668,0,0,1,330.5,281.426Z" transform="translate(-330.502 -238.777)" fill="#263238" stroke="#263238" stroke-linecap="round" stroke-linejoin="round" stroke-width="1"/>
          <g id="Grupo_954200" data-name="Grupo 954200" transform="translate(3.274 13.63)">
            <path id="Trazado_629831" data-name="Trazado 629831" d="M346.582,267.772a51.953,51.953,0,0,0,6.78-1.217c1.217-.521,3.3-1.912,2.608-5.563s.7-3.3,2.086-2.781,2.433,3.3,2.26,4.694a15.206,15.206,0,0,0,.173,3.477s6.433.521,6.954.7.7,1.912.7,2.782,0,2.259-.7,2.608-1.912.869-1.912.869-.869,5.216-1.043,6.433,0,2.26-1.39,2.782a6.613,6.613,0,0,1-3.651.174c-1.217-.174-13.386-1.217-13.386-1.217Z" transform="translate(-338.237 -257.888)" fill="#fff" stroke="#263238" stroke-linecap="round" stroke-linejoin="round" stroke-width="1"/>
            <rect id="Rectángulo_306657" data-name="Rectángulo 306657" width="10.257" height="17.906" transform="translate(0 8.319)" fill="#f0bd51" stroke="#263238" stroke-linecap="round" stroke-linejoin="round" stroke-width="1"/>
          </g>
        </g>
      </g>
      <g id="Speech_Bubble_5" data-name="Speech Bubble 5" transform="translate(244.304 118.469)">
        <g id="Grupo_954204" data-name="Grupo 954204">
          <path id="Trazado_629832" data-name="Trazado 629832" d="M383.135,162.361H346.414a3.538,3.538,0,0,0-3.538,3.538v6.281l-9.434-.555,9.434,7.232v7.191a3.538,3.538,0,0,0,3.538,3.538h36.721a3.538,3.538,0,0,0,3.538-3.538V165.9A3.538,3.538,0,0,0,383.135,162.361Z" transform="translate(-333.442 -159.156)" fill="#fff" stroke="#263238" stroke-linecap="round" stroke-linejoin="round" stroke-width="1"/>
          <g id="Grupo_954203" data-name="Grupo 954203" transform="translate(18.283)">
            <path id="Trazado_629833" data-name="Trazado 629833" d="M368.214,189.086l-1.565,16.167L374.3,199l7.475,5.911-2.782-16.689Z" transform="translate(-361.249 -166.571)" fill="#263238" stroke="#263238" stroke-linecap="round" stroke-linejoin="round" stroke-width="1"/>
            <path id="Trazado_629834" data-name="Trazado 629834" d="M382.522,170.574c0-1.294,1.187-2.76.807-3.928-.393-1.21-2.228-1.7-2.961-2.7s-.641-2.91-1.658-3.65-2.773-.058-3.983-.451c-1.168-.379-2.193-1.976-3.487-1.976s-2.32,1.6-3.488,1.976c-1.21.393-2.976-.282-3.983.451s-.917,2.633-1.658,3.65-2.568,1.493-2.961,2.7c-.379,1.168.807,2.634.807,3.928s-1.187,2.761-.807,3.928c.393,1.21,2.228,1.7,2.961,2.7s.64,2.91,1.658,3.65,2.772.058,3.983.451c1.168.379,2.193,1.976,3.488,1.976s2.319-1.6,3.488-1.976c1.21-.393,2.976.282,3.983-.451s.917-2.633,1.658-3.651,2.568-1.493,2.961-2.7C383.709,173.335,382.522,171.869,382.522,170.574Z" transform="translate(-359.077 -157.867)" fill="#f0bd51" stroke="#263238" stroke-linecap="round" stroke-linejoin="round" stroke-width="1"/>
            <circle id="Elipse_7720" data-name="Elipse 7720" cx="9.947" cy="9.947" r="9.947" transform="matrix(0.989, -0.149, 0.149, 0.989, 0.846, 4.353)" fill="#fff" stroke="#263238" stroke-linecap="round" stroke-linejoin="round" stroke-width="1"/>
            <g id="Grupo_954202" data-name="Grupo 954202" transform="translate(10 6.696)">
              <path id="Trazado_629835" data-name="Trazado 629835" d="M374.721,179.1v-9.434q-.16.088-.365.175l-.432.183-.439.183q-.212.088-.387.175v-1.814c.107-.058.259-.138.453-.241s.405-.217.63-.344.434-.256.629-.388a3.089,3.089,0,0,0,.438-.343h1.916V179.1Z" transform="translate(-373.098 -167.255)" fill="#263238"/>
            </g>
          </g>
        </g>
      </g>
      <g id="Speech_Bubble_4" data-name="Speech Bubble 4" transform="translate(206.704 41.057)">
        <g id="Grupo_954205" data-name="Grupo 954205" transform="translate(0 0)">
          <path id="Trazado_629836" data-name="Trazado 629836" d="M320.982,49.327H284.261a3.538,3.538,0,0,0-3.538,3.538v15.96a3.538,3.538,0,0,0,3.538,3.538h2.3l-2.991,7.82,8.318-7.82h29.1a3.538,3.538,0,0,0,3.538-3.538V52.865A3.538,3.538,0,0,0,320.982,49.327Z" transform="translate(-280.723 -49.327)" fill="#fff" stroke="#263238" stroke-linecap="round" stroke-linejoin="round" stroke-width="1"/>
          <circle id="Elipse_7721" data-name="Elipse 7721" cx="1.432" cy="1.432" r="1.432" transform="translate(12.767 10.362)" fill="#263238"/>
          <circle id="Elipse_7722" data-name="Elipse 7722" cx="1.432" cy="1.432" r="1.432" transform="translate(19.927 10.362)" fill="#263238"/>
          <circle id="Elipse_7723" data-name="Elipse 7723" cx="1.432" cy="1.432" r="1.432" transform="translate(27.088 10.362)" fill="#263238"/>
        </g>
      </g>
      <g id="Speech_Bubble_3" data-name="Speech Bubble 3" transform="translate(97.84 67.29)">
        <g id="Grupo_954207" data-name="Grupo 954207">
          <path id="Trazado_629837" data-name="Trazado 629837" d="M186.118,102.141l-7.445-4.208V89.647a3.538,3.538,0,0,0-3.538-3.538H131.624a3.538,3.538,0,0,0-3.538,3.538v18.4a3.539,3.539,0,0,0,3.538,3.538h43.512a3.538,3.538,0,0,0,3.538-3.538v-5.254Z" transform="translate(-128.086 -86.109)" fill="#263238" stroke="#263238" stroke-linecap="round" stroke-linejoin="round" stroke-width="1"/>
          <g id="Grupo_954206" data-name="Grupo 954206" transform="translate(4.018 8.82)">
            <path id="Trazado_629838" data-name="Trazado 629838" d="M137.451,98.475l.881,2.711h2.85l-2.306,1.675.881,2.711-2.306-1.675-2.306,1.675.881-2.711-2.306-1.675h2.85Z" transform="translate(-133.72 -98.475)" fill="#fff"/>
            <path id="Trazado_629839" data-name="Trazado 629839" d="M149.893,98.475l.881,2.711h2.85l-2.306,1.675.881,2.711-2.306-1.675-2.306,1.675.881-2.711-2.306-1.675h2.85Z" transform="translate(-137.288 -98.475)" fill="#fff"/>
            <path id="Trazado_629840" data-name="Trazado 629840" d="M162.335,98.475l.881,2.711h2.85l-2.306,1.675.881,2.711-2.306-1.675-2.306,1.675.881-2.711-2.306-1.675h2.85Z" transform="translate(-140.856 -98.475)" fill="#fff"/>
            <path id="Trazado_629841" data-name="Trazado 629841" d="M174.778,98.475l.881,2.711h2.85l-2.306,1.675.881,2.711-2.306-1.675-2.306,1.675.881-2.711-2.306-1.675h2.85Z" transform="translate(-144.425 -98.475)" fill="#fff"/>
            <path id="Trazado_629842" data-name="Trazado 629842" d="M187.22,98.475l.881,2.711h2.85l-2.306,1.675.881,2.711L187.22,103.9l-2.306,1.675.881-2.711-2.306-1.675h2.85Z" transform="translate(-147.993 -98.475)" fill="#fff"/>
          </g>
        </g>
      </g>
      <g id="Speech_Bubble_2" data-name="Speech Bubble 2" transform="translate(62.807 131.834)">
        <g id="Grupo_954208" data-name="Grupo 954208">
          <path id="Trazado_629843" data-name="Trazado 629843" d="M124.6,186.05H113.5v-5.905a3.538,3.538,0,0,0-3.538-3.538H82.5a3.538,3.538,0,0,0-3.538,3.538V196.1a3.538,3.538,0,0,0,3.538,3.538h27.458A3.538,3.538,0,0,0,113.5,196.1v-5.09Z" transform="translate(-78.966 -176.606)" fill="#fff" stroke="#263238" stroke-linecap="round" stroke-linejoin="round" stroke-width="1"/>
          <path id="Trazado_629844" data-name="Trazado 629844" d="M106.384,190.52l-1.078,1.088-6.852,6.852-6.861-6.852-1.079-1.088a4.845,4.845,0,0,1,6.853-6.852l1.088,1.088,1.078-1.088a4.845,4.845,0,0,1,6.852,6.852Z" transform="translate(-81.871 -178.225)" fill="#f0bd51" stroke="#263238" stroke-linecap="round" stroke-linejoin="round" stroke-width="1"/>
        </g>
      </g>
      <g id="Speech_Bubble_1" data-name="Speech Bubble 1" transform="translate(75.302 181.61)">
        <g id="Grupo_954212" data-name="Grupo 954212" transform="translate(0)">
          <path id="Trazado_629845" data-name="Trazado 629845" d="M100.574,246.4h39.9a4.238,4.238,0,0,1,4.088,4.374v3.214l10.641-4.417L144.562,262.24v30.815a4.238,4.238,0,0,1-4.088,4.374h-39.9a4.238,4.238,0,0,1-4.088-4.374V250.77A4.238,4.238,0,0,1,100.574,246.4Z" transform="translate(-96.486 -246.396)" fill="#fff" stroke="#263238" stroke-linecap="round" stroke-linejoin="round" stroke-width="1"/>
          <g id="Grupo_954211" data-name="Grupo 954211" transform="translate(4.569 5.211)">
            <g id="Grupo_954210" data-name="Grupo 954210" transform="translate(3.354)">
              <circle id="Elipse_7724" data-name="Elipse 7724" cx="13.216" cy="13.216" r="13.216" fill="#263238" stroke="#263238" stroke-linecap="round" stroke-linejoin="round" stroke-width="1"/>
              <g id="Grupo_954209" data-name="Grupo 954209" transform="translate(8.91 3.307)">
                <path id="Trazado_629846" data-name="Trazado 629846" d="M124.16,278.2v-1.92a3.954,3.954,0,0,1-3-1.29,5.944,5.944,0,0,1-1.076-3.675l2.968-.446a7.484,7.484,0,0,0,.175,1.629,1.753,1.753,0,0,0,.456.892,1.045,1.045,0,0,0,.727.272.692.692,0,0,0,.708-.368,1.881,1.881,0,0,0,.165-.776,2.842,2.842,0,0,0-.456-1.639,7.01,7.01,0,0,0-1.251-1.349l-1.377-1.183a11.711,11.711,0,0,1-1.057-1.077,4.5,4.5,0,0,1-.766-1.28,4.663,4.663,0,0,1-.291-1.735,3.883,3.883,0,0,1,1.057-2.89,4.354,4.354,0,0,1,2.841-1.183v-1.842h.989v1.823a3.524,3.524,0,0,1,1.8.514A2.973,2.973,0,0,1,127.8,261.8a4.941,4.941,0,0,1,.466,1.416,10.305,10.305,0,0,1,.145,1.387l-3.006.369q-.019-.7-.087-1.222a1.755,1.755,0,0,0-.272-.805.706.706,0,0,0-.65-.262.77.77,0,0,0-.718.407,1.629,1.629,0,0,0-.233.815,2.275,2.275,0,0,0,.476,1.5,10.114,10.114,0,0,0,1.038,1.076l1.319,1.144a12.048,12.048,0,0,1,1.212,1.28,5.7,5.7,0,0,1,.882,1.513,5.2,5.2,0,0,1,.33,1.921,4.147,4.147,0,0,1-.427,1.881,3.565,3.565,0,0,1-1.222,1.387,4.141,4.141,0,0,1-1.9.649V278.2Z" transform="translate(-120.087 -258.339)" fill="#fff"/>
              </g>
            </g>
            <path id="Trazado_629847" data-name="Trazado 629847" d="M143.259,272.72l-8.89,3.016,2.457,2.155-12.484,14.235-7.514-4.141a1.428,1.428,0,0,0-1.555.116l-11.821,9.04a1.427,1.427,0,0,0,1.733,2.267l11.081-8.474,7.7,4.244a1.427,1.427,0,0,0,1.761-.31l13.241-15.1,2.457,2.155Z" transform="translate(-102.892 -259.156)" fill="#f0bd51" stroke="#263238" stroke-linecap="round" stroke-linejoin="round" stroke-width="1"/>
          </g>
        </g>
      </g>
      <g id="Character" transform="translate(94.378 67.977)">
        <g id="Grupo_954224" data-name="Grupo 954224">
          <g id="Grupo_954215" data-name="Grupo 954215" transform="translate(57.872 122.733)">
            <path id="Trazado_629848" data-name="Trazado 629848" d="M212.359,275.125s3.105,59.22,4.658,71.2,4.657,29.5,4.657,29.5-2.218,1.552-2.661,3.1.222,7.32.222,7.32l16.191,1.109a90.587,90.587,0,0,0,.665-13.086v-13.53c0-1.775,2.662-77.63,2.662-77.63l2,77.851s-.665,24.176.444,24.62a18.959,18.959,0,0,1,3.105,2l14.194-.444a46.654,46.654,0,0,0,1.109-7.985c0-3.1-2-9.094-1.775-12.421s5.989-30.386,5.989-35.044V259.155H212.8Z" transform="translate(-206.664 -259.155)" fill="#263238" stroke="#263238" stroke-linecap="round" stroke-linejoin="round" stroke-width="1"/>
            <g id="Grupo_954213" data-name="Grupo 954213" transform="translate(0 122.405)">
              <path id="Trazado_629849" data-name="Trazado 629849" d="M231.583,435.464s-5.988-5.1-8.65-4.658-5.1,2-5.323,2.662-1.774,2-2.217,3.327-7.542,7.985-9.094,9.759-2.661,2-1.331,3.105a6.431,6.431,0,0,0,2.884,1.331h25.285A14.093,14.093,0,0,0,233.8,445c-.222-3.993-.665-8.428-.665-8.428Z" transform="translate(-204.374 -430.779)" fill="#fff" stroke="#263238" stroke-linecap="round" stroke-linejoin="round" stroke-width="1"/>
              <path id="Trazado_629850" data-name="Trazado 629850" d="M204.38,456.007c-.016.258.155.525.589.887a6.43,6.43,0,0,0,2.884,1.331h25.285a9.22,9.22,0,0,0,.535-2.218Z" transform="translate(-204.375 -438.014)" fill="#fff" stroke="#263238" stroke-linecap="round" stroke-linejoin="round" stroke-width="1"/>
            </g>
            <g id="Grupo_954214" data-name="Grupo 954214" transform="translate(35.602 122.405)">
              <path id="Trazado_629851" data-name="Trazado 629851" d="M256.415,435.464s5.642-5.1,8.15-4.658,4.807,2,5.016,2.662,1.672,2,2.09,3.327,7.105,7.985,8.568,9.759,2.508,2,1.254,3.105a5.881,5.881,0,0,1-2.717,1.331H254.952a14.886,14.886,0,0,1-.627-5.989c.209-3.993.627-8.428.627-8.428Z" transform="translate(-254.292 -430.779)" fill="#fff" stroke="#263238" stroke-linecap="round" stroke-linejoin="round" stroke-width="1"/>
              <path id="Trazado_629852" data-name="Trazado 629852" d="M282.111,456.007c.016.258-.146.525-.555.887a5.88,5.88,0,0,1-2.717,1.331H255.016a9.686,9.686,0,0,1-.5-2.218Z" transform="translate(-254.355 -438.014)" fill="#fff" stroke="#263238" stroke-linecap="round" stroke-linejoin="round" stroke-width="1"/>
            </g>
          </g>
          <path id="Trazado_629853" data-name="Trazado 629853" d="M235.979,147.665l-6.44,5.449,1.155,75.293h27.74s1.321-76.944.825-78.1S255.793,148,255.793,148Z" transform="translate(-153.719 -104.449)" fill="#fff" stroke="#263238" stroke-linecap="round" stroke-linejoin="round" stroke-width="1"/>
          <g id="Grupo_954216" data-name="Grupo 954216" transform="translate(98.829 43.546)">
            <path id="Trazado_629854" data-name="Trazado 629854" d="M292.273,180.6l11.009,3.048s-11.178-20.494-13.211-25.406c-1.589-3.841-3.587-4.985-4.385-5.3-4.227-2.732-20.642-4.816-20.642-4.816l-1.282,37.594L261.8,248.115h23.343s-1.964-22.034-3.054-29.015-1.528-9.817-1.528-9.817,1.886-14.96,3.565-29.326Z" transform="translate(-261.799 -148.128)" fill="#f0bd51" stroke="#263238" stroke-linecap="round" stroke-linejoin="round" stroke-width="1"/>
            <path id="Trazado_629855" data-name="Trazado 629855" d="M268.921,214.439a29.943,29.943,0,0,1-2.71,5.4" transform="translate(-263.064 -167.145)" fill="none" stroke="#263238" stroke-linecap="round" stroke-linejoin="round" stroke-width="1"/>
            <path id="Trazado_629856" data-name="Trazado 629856" d="M271.21,151.369l3.881,8.637-3.191,3.457,5.052,6.116s-1.967,13.316-5.445,23.625" transform="translate(-264.498 -149.057)" fill="none" stroke="#263238" stroke-linecap="round" stroke-linejoin="round" stroke-width="1"/>
          </g>
          <g id="Grupo_954218" data-name="Grupo 954218" transform="translate(76.536)">
            <path id="Trazado_629857" data-name="Trazado 629857" d="M234.372,121.446s-2.077-2.884-3.577-.808,4.154,9.114,4.154,9.114Z" transform="translate(-230.542 -96.482)" fill="#fff" stroke="#263238" stroke-linecap="round" stroke-linejoin="round" stroke-width="1"/>
            <path id="Trazado_629858" data-name="Trazado 629858" d="M269.326,121.446s2.076-2.884,3.576-.808-4.153,9.114-4.153,9.114Z" transform="translate(-241.499 -96.482)" fill="#fff" stroke="#263238" stroke-linecap="round" stroke-linejoin="round" stroke-width="1"/>
            <g id="Grupo_954217" data-name="Grupo 954217" transform="translate(3.369 5.657)">
              <path id="Trazado_629859" data-name="Trazado 629859" d="M235.265,112.695s1.269,13.267,1.5,15.575,1.038,7.268,1.961,9,7.268,8.191,9,7.5,7.73-6.922,9.345-8.768,1.038-5.192,1.27-6,1.153-8.768,1.153-8.768l.577-8.422s.23-.808-.116-6-.346-7.5-.923-8.768-2.077-1.961-4.73-2.654-9-.577-12.921,1.384-5.884,4.73-6,5.769S235.265,112.695,235.265,112.695Z" transform="translate(-235.265 -95.004)" fill="#fff" stroke="#263238" stroke-linecap="round" stroke-linejoin="round" stroke-width="1"/>
              <path id="Trazado_629860" data-name="Trazado 629860" d="M247.92,114.129s-3.577-2.307-5.538.693" transform="translate(-237.306 -100.245)" fill="none" stroke="#263238" stroke-linecap="round" stroke-linejoin="round" stroke-width="1"/>
              <path id="Trazado_629861" data-name="Trazado 629861" d="M257.1,114.563a3.95,3.95,0,0,1,4.846.577" transform="translate(-241.527 -100.448)" fill="none" stroke="#263238" stroke-linecap="round" stroke-linejoin="round" stroke-width="1"/>
              <path id="Trazado_629862" data-name="Trazado 629862" d="M254.069,116.411a5.885,5.885,0,0,1,.693,2.884c.116,2.077-.231,6.346-.231,6.346l-4.383-.461" transform="translate(-239.533 -101.143)" fill="none" stroke="#263238" stroke-linecap="round" stroke-linejoin="round" stroke-width="1"/>
              <path id="Trazado_629863" data-name="Trazado 629863" d="M246.911,130.808s2.192,3.576,7.73,1.73" transform="translate(-238.605 -105.272)" fill="none" stroke="#263238" stroke-linecap="round" stroke-linejoin="round" stroke-width="1"/>
              <path id="Trazado_629864" data-name="Trazado 629864" d="M247.325,118.755c0,.669-.31,1.211-.693,1.211s-.692-.542-.692-1.211.31-1.212.692-1.212S247.325,118.086,247.325,118.755Z" transform="translate(-238.327 -101.467)" fill="#263238"/>
              <path id="Trazado_629865" data-name="Trazado 629865" d="M261.074,118.755c0,.669-.31,1.211-.692,1.211s-.693-.542-.693-1.211.31-1.212.693-1.212S261.074,118.086,261.074,118.755Z" transform="translate(-242.27 -101.467)" fill="#263238"/>
              <path id="Trazado_629866" data-name="Trazado 629866" d="M247.877,121.426a7.862,7.862,0,0,1-3.23,1.846" transform="translate(-237.956 -102.581)" fill="none" stroke="#263238" stroke-linecap="round" stroke-linejoin="round" stroke-width="1"/>
              <path id="Trazado_629867" data-name="Trazado 629867" d="M258.72,121.426a5.867,5.867,0,0,0,3,1.846" transform="translate(-241.991 -102.581)" fill="none" stroke="#263238" stroke-linecap="round" stroke-linejoin="round" stroke-width="1"/>
              <path id="Trazado_629868" data-name="Trazado 629868" d="M247.073,146.337s2.192,2.653,8.307.115" transform="translate(-238.651 -109.725)" fill="none" stroke="#263238" stroke-linecap="round" stroke-linejoin="round" stroke-width="1"/>
            </g>
            <path id="Trazado_629869" data-name="Trazado 629869" d="M233.051,99.575s.347,11.652.693,11.883,1.384.461,1.615-.346a22.921,22.921,0,0,0,.115-3.807s1.154-.116,1.384-1.961a15.952,15.952,0,0,0-.807-5.077,32.045,32.045,0,0,1,8.076-4.153c3.923-1.154,6,.577,8.422.693a5.717,5.717,0,0,0,3.922-1.27,7.523,7.523,0,0,0-1.153,2.538c0,.807,1.5,5.076,1.269,6.346s-.461,2.653.231,3.115,1.5,1.038,1.5,1.038,0,3.115.461,3.346,1.269-1.038,1.384-2.769.115-5.884.692-7.153,1.5-2.192.808-4.038a8.411,8.411,0,0,0-3.461-3.576c-.346-.116-4.73-5.769-10.383-7.154s-14.652,6.691-15.575,9.23S233.051,99.575,233.051,99.575Z" transform="translate(-230.952 -87.072)" fill="#263238" stroke="#263238" stroke-linecap="round" stroke-linejoin="round" stroke-width="1"/>
          </g>
          <g id="Grupo_954219" data-name="Grupo 954219" transform="translate(0 38.005)">
            <path id="Trazado_629870" data-name="Trazado 629870" d="M150.961,155.8a35.439,35.439,0,0,1-1.593-5.023,7.736,7.736,0,0,0-4.165-4.9,14.429,14.429,0,0,1-5.513-3.8c-1.715-1.838-2.7-2.451-2.94-.613s.98,2.7,2.2,3.8,2.451,2.083,2.451,2.083a15.289,15.289,0,0,1-3.8.735,24.236,24.236,0,0,1-6.738-.613c-1.838-.49-8.208-5.145-7.6-3.307s3.675,4.165,6.126,6.492,4.043,3.553,6.86,4.411,7.35,1.96,7.35,1.96l2.573,3.431Z" transform="translate(-123.232 -140.358)" fill="#fff" stroke="#263238" stroke-linecap="round" stroke-linejoin="round" stroke-width="1"/>
            <path id="Trazado_629871" data-name="Trazado 629871" d="M133.526,153.193s-3.921-2.94-4.533-6.248-.367-4.533.49-4.043,2.941,5.268,2.941,5.268l3.675,4.043" transform="translate(-124.787 -141.058)" fill="#fff" stroke="#263238" stroke-linecap="round" stroke-linejoin="round" stroke-width="1"/>
            <path id="Trazado_629872" data-name="Trazado 629872" d="M138.2,154.522s-3.675-2.205-4.043-4.411-1.225-8.7-.367-8.208,2.573,7.35,2.573,7.35l2.083,1.837" transform="translate(-126.155 -140.794)" fill="#fff" stroke="#263238" stroke-linecap="round" stroke-linejoin="round" stroke-width="1"/>
            <path id="Trazado_629873" data-name="Trazado 629873" d="M141.573,154.8s-2.205-4.288-2.7-5.636-1.593-6.982-.49-6.738,2.083,5.88,2.083,5.88l2.817,3.553s3.921-1.225,5.023-.98,2.45,2.45,2.45,2.45" transform="translate(-127.443 -140.949)" fill="#fff" stroke="#263238" stroke-linecap="round" stroke-linejoin="round" stroke-width="1"/>
          </g>
          <path id="Trazado_629874" data-name="Trazado 629874" d="M162.1,163.637l-2.933-2.713-7.235,7.552,2.126,2.786Z" transform="translate(-131.463 -108.251)" fill="#fff" stroke="#263238" stroke-linecap="round" stroke-linejoin="round" stroke-width="1"/>
          <g id="Grupo_954220" data-name="Grupo 954220" transform="translate(21.992 43.216)">
            <path id="Trazado_629875" data-name="Trazado 629875" d="M214.335,147.665s-2.477,19.649-2.807,30.877.825,70.174.825,70.174l-21.96-.66s2.476-20.8,4.293-28.4a66.211,66.211,0,0,0,1.321-17.833c-.165-.991-1.321-10.072-1.321-10.072s-12.384,8.256-13.87,8.091-10.072-6.44-16.676-14.7a71.062,71.062,0,0,1-10.072-17.833l7.761-8.917,18.493,18.493s9.576-19.318,10.567-19.814S214.335,147.665,214.335,147.665Z" transform="translate(-154.067 -147.665)" fill="#f0bd51" stroke="#263238" stroke-linecap="round" stroke-linejoin="round" stroke-width="1"/>
            <path id="Trazado_629876" data-name="Trazado 629876" d="M225.783,195.271a120.067,120.067,0,0,0,5.167,18.809" transform="translate(-174.634 -161.317)" fill="none" stroke="#263238" stroke-linecap="round" stroke-linejoin="round" stroke-width="1"/>
            <path id="Trazado_629877" data-name="Trazado 629877" d="M230.089,152.293,226.1,162.4l3.192,2.659-5.585,5.851a73.388,73.388,0,0,0,.958,9.016" transform="translate(-174.038 -148.992)" fill="none" stroke="#263238" stroke-linecap="round" stroke-linejoin="round" stroke-width="1"/>
            <path id="Trazado_629878" data-name="Trazado 629878" d="M208.6,197.608s-3.3-14.53-4.294-20.31" transform="translate(-168.474 -156.163)" fill="#fff" stroke="#263238" stroke-linecap="round" stroke-linejoin="round" stroke-width="1"/>
          </g>
          <path id="Trazado_629879" data-name="Trazado 629879" d="M238.073,163.4l2.818,8.265,7.639-7.283,6.073,7.846,2.658-7.055" transform="translate(-156.166 -108.961)" fill="#fff" stroke="#263238" stroke-linecap="round" stroke-linejoin="round" stroke-width="1"/>
          <g id="Grupo_954221" data-name="Grupo 954221" transform="translate(84.165 55.421)">
            <path id="Trazado_629880" data-name="Trazado 629880" d="M253.878,169.054l-3.452,6.163-3.963-6.212,4.474-4.229Z" transform="translate(-242.737 -164.777)" fill="#263238" stroke="#263238" stroke-linecap="round" stroke-linejoin="round" stroke-width="1"/>
            <path id="Trazado_629881" data-name="Trazado 629881" d="M248.928,179.415l-7.688,51.477,6.852,5.515,5.348-5.683Z" transform="translate(-241.24 -168.975)" fill="#263238" stroke="#263238" stroke-linecap="round" stroke-linejoin="round" stroke-width="1"/>
          </g>
          <g id="Grupo_954223" data-name="Grupo 954223" transform="translate(107.765 8.222)">
            <circle id="Elipse_7725" data-name="Elipse 7725" cx="10.197" cy="10.197" r="10.197" transform="matrix(0.973, -0.231, 0.231, 0.973, 0, 19.263)" fill="#fff" stroke="#263238" stroke-linecap="round" stroke-linejoin="round" stroke-width="1"/>
            <path id="Trazado_629882" data-name="Trazado 629882" d="M282.073,154.147a35.128,35.128,0,0,0-.088,5.44c.263.878,2.106,4.388,2.106,4.388s-.263,2.457.175,3.247,4.651,5.791,4.651,5.791l5-4.388-2.808-5.616-.088-7.283S285.5,150.989,282.073,154.147Z" transform="translate(-276.496 -114.218)" fill="#fff" stroke="#263238" stroke-linecap="round" stroke-linejoin="round" stroke-width="1"/>
            <path id="Trazado_629883" data-name="Trazado 629883" d="M285.629,146.811l1.541,12.66a2.482,2.482,0,0,0,2.737,2.167h0a2.482,2.482,0,0,0,2.206-2.553l-.446-12.931S287.861,143.266,285.629,146.811Z" transform="translate(-277.569 -111.919)" fill="#fff" stroke="#263238" stroke-linecap="round" stroke-linejoin="round" stroke-width="1"/>
            <path id="Trazado_629884" data-name="Trazado 629884" d="M284.677,151.387s-3.282.394-3.282,1.444,1.182,5.776,2.232,6.039,1.838.262,1.838-1.838A34.587,34.587,0,0,0,284.677,151.387Z" transform="translate(-276.355 -113.738)" fill="#fff" stroke="#263238" stroke-linecap="round" stroke-linejoin="round" stroke-width="1"/>
            <g id="Grupo_954222" data-name="Grupo 954222" transform="translate(7.764 37.78)">
              <path id="Trazado_629885" data-name="Trazado 629885" d="M293.729,156.357s-7.614.656-7.746,1.444.131,2.757.656,2.757,7.346.053,7.48-.7S294.648,157.407,293.729,156.357Z" transform="translate(-285.425 -152.944)" fill="#fff" stroke="#263238" stroke-linecap="round" stroke-linejoin="round" stroke-width="1"/>
              <path id="Trazado_629886" data-name="Trazado 629886" d="M293.73,161.537s-6.787.38-6.925,1.077.043,2.455.51,2.468,6.53.243,6.669-.419S294.52,162.495,293.73,161.537Z" transform="translate(-285.658 -154.429)" fill="#fff" stroke="#263238" stroke-linecap="round" stroke-linejoin="round" stroke-width="1"/>
              <path id="Trazado_629887" data-name="Trazado 629887" d="M292.911,166.162s-5.617.315-5.731.892.036,2.031.422,2.043,5.4.2,5.519-.347A3.128,3.128,0,0,0,292.911,166.162Z" transform="translate(-285.767 -155.755)" fill="#fff" stroke="#263238" stroke-linecap="round" stroke-linejoin="round" stroke-width="1"/>
              <path id="Trazado_629888" data-name="Trazado 629888" d="M292.993,151.571s-7.614.656-7.746,1.444.131,2.757.656,2.757,7.345.053,7.48-.7S293.912,152.621,292.993,151.571Z" transform="translate(-285.214 -151.571)" fill="#fff" stroke="#263238" stroke-linecap="round" stroke-linejoin="round" stroke-width="1"/>
            </g>
            <path id="Trazado_629889" data-name="Trazado 629889" d="M295.316,170.926l-2.2-1.136-6,7.351,2.462,3.283Z" transform="translate(-277.993 -119.016)" fill="#fff" stroke="#263238" stroke-linecap="round" stroke-linejoin="round" stroke-width="1"/>
            <path id="Trazado_629890" data-name="Trazado 629890" d="M295.063,169.561s-2.18,5.087-3.816,6.9-3.453,3.453-3.453,3.453,7.632,17.99,8.722,21.442,5.27,5.814,7.087,6.36,6.179-.909,7.814-2.726,4-7.631,2.725-10.9S295.063,169.561,295.063,169.561Z" transform="translate(-278.19 -118.95)" fill="#f0bd51" stroke="#263238" stroke-linecap="round" stroke-linejoin="round" stroke-width="1"/>
            <circle id="Elipse_7726" data-name="Elipse 7726" cx="18.451" cy="18.451" r="18.451" transform="matrix(0.968, -0.25, 0.25, 0.968, 2.275, 9.244)" fill="#f0bd51" stroke="#263238" stroke-linecap="round" stroke-linejoin="round" stroke-width="1"/>
            <circle id="Elipse_7727" data-name="Elipse 7727" cx="15.037" cy="15.037" r="15.037" transform="matrix(0.974, -0.225, 0.225, 0.974, 6.722, 11.22)" fill="#263238" stroke="#263238" stroke-linecap="round" stroke-linejoin="round" stroke-width="1"/>
            <circle id="Elipse_7728" data-name="Elipse 7728" cx="6.1" cy="6.1" r="6.1" transform="translate(17.213 17.109)" fill="#fff" stroke="#263238" stroke-linecap="round" stroke-linejoin="round" stroke-width="1"/>
            <path id="Trazado_629891" data-name="Trazado 629891" d="M311.054,128.773a3.361,3.361,0,1,0-3.361,3.361A3.362,3.362,0,0,0,311.054,128.773Z" transform="translate(-282.933 -106.289)" fill="#f0bd51" stroke="#263238" stroke-linecap="round" stroke-linejoin="round" stroke-width="1"/>
          </g>
        </g>
      </g>
      <g id="Floor" transform="translate(41.15 333.326)">
        <g id="Grupo_954225" data-name="Grupo 954225">
          <line id="Línea_761" data-name="Línea 761" x2="7.733" transform="translate(289.901)" fill="none" stroke="#263238" stroke-linecap="round" stroke-linejoin="round" stroke-width="1"/>
          <line id="Línea_762" data-name="Línea 762" x2="284.592" fill="none" stroke="#263238" stroke-linecap="round" stroke-linejoin="round" stroke-width="1"/>
        </g>
      </g>
    </g>
  </g>
</svg>
