<svg id="Grupo_956657" data-name="Grupo 956657" xmlns="http://www.w3.org/2000/svg" width="81.336" height="81.336" viewBox="0 0 81.336 81.336">
  <rect id="Rectángulo_34178" data-name="Rectángulo 34178" width="81.336" height="81.336" transform="translate(0 0)" fill="none"/>
  <g id="Grupo_957412" data-name="Grupo 957412" transform="translate(12.846 10.987)">
    <path id="Trazado_632520" data-name="Trazado 632520" d="M-362.8,69.687a.962.962,0,0,1,1.1-.86c3.613.009,7.225-.014,10.838.013a3.576,3.576,0,0,1,3.72,3.254c.061.422.216.472.577.468,1.507-.018,3.014-.015,4.521-.005a1.8,1.8,0,0,1,1.849,2.556q-3.126,9.4-6.264,18.79a3.631,3.631,0,0,1-3.74,2.689q-15.04,0-30.08,0a3.673,3.673,0,0,1-3.886-3.887q-.006-11.853,0-23.706a3.646,3.646,0,0,1,3.775-3.88c2.646-.036,5.293-.012,7.94-.007a3.771,3.771,0,0,1,2.835,1.231c.559.588,1.143,1.152,1.72,1.723a3.475,3.475,0,0,0,.477.42c.238.161.526.383.79.264.284-.128.114-.484.116-.733.016-1.488,0-2.975.014-4.463,0-.358-.042-.6-.426-.764a2.045,2.045,0,0,1-1.087-1.079.678.678,0,0,0-.751-.445q-7.621.018-15.243.005A2.735,2.735,0,0,1-386.95,58.3c0-.7-.032-1.393.011-2.086.028-.452-.129-.541-.55-.532-1.313.028-2.627.013-3.941.01a1.816,1.816,0,0,1-2.019-1.991q0-7.245,0-14.49a1.818,1.818,0,0,1,1.987-1.972c2.318,0,4.637.006,6.955-.008a1.391,1.391,0,0,1,1.082.431q2.137,2.166,4.3,4.3a1.332,1.332,0,0,1,.419,1.027c-.01,3.594,0,7.187-.008,10.781a1.769,1.769,0,0,1-1.905,1.918c-1.372.007-2.743.014-4.115-.006-.371-.006-.505.085-.488.477.032.733,0,1.468.011,2.2.008.785.353,1.164,1.114,1.165,5.177.008,10.355,0,15.533.01a.447.447,0,0,0,.483-.3,2.416,2.416,0,0,1,1.229-1.253.514.514,0,0,0,.354-.57,10.151,10.151,0,0,1,0-1.274c.024-.358-.1-.461-.457-.456-1.352.02-2.7.011-4.057.007a1.818,1.818,0,0,1-2-2.013q-.008-7.216,0-14.432A1.833,1.833,0,0,1-371,37.237c2.318,0,4.637.007,6.955-.008a1.4,1.4,0,0,1,1.078.444q2.118,2.144,4.261,4.263a1.475,1.475,0,0,1,.458,1.135c-.009,3.516,0,7.033-.006,10.549a1.833,1.833,0,0,1-2.062,2.071c-1.333,0-2.666.013-4-.008-.359-.005-.5.1-.453.457a2.261,2.261,0,0,1,0,.521c-.081.706,0,1.3.79,1.605a1.369,1.369,0,0,1,.706.818c.151.41.421.455.8.454q7.505-.015,15.011-.007c1.116,0,1.4-.29,1.4-1.4,0-.676-.018-1.353.007-2.028.013-.342-.111-.419-.431-.415-1.371.015-2.743.01-4.115.005a1.787,1.787,0,0,1-1.962-1.979q-.006-7.245,0-14.49a1.8,1.8,0,0,1,1.966-1.983c2.338,0,4.675.006,7.013-.007a1.335,1.335,0,0,1,1.027.422q2.14,2.163,4.3,4.3a1.339,1.339,0,0,1,.437,1.021c-.01,3.594,0,7.187-.008,10.781a1.8,1.8,0,0,1-1.96,1.932c-1.352.006-2.7.013-4.057-.007-.366-.006-.509.074-.49.471.034.713.012,1.429.009,2.144a2.737,2.737,0,0,1-2.948,2.972q-7.564.012-15.127,0c-.415,0-.714.041-.9.491a2.218,2.218,0,0,1-1.149,1.1c-.181.087-.328.159-.326.409.02,2.143.028,4.287.039,6.43-.013.847-.02,1.695-.043,2.542-.009.317.177.325.41.324q7.559,0,15.118,0c.413,0,.431-.156.348-.49a1.945,1.945,0,0,0-2.114-1.5c-3.533-.006-7.066,0-10.6,0C-362.414,70.567-362.6,70.424-362.8,69.687Zm-17.673-17.613c.009-2.7.014-5.4.031-8.1,0-.278-.08-.364-.358-.358-.791.017-1.583.011-2.374,0a1.816,1.816,0,0,1-1.916-1.928c-.008-.772-.012-1.544,0-2.316.006-.28-.039-.409-.368-.4-1.428.024-2.856.02-4.284.026-.54-.006-1.08,0-1.619-.023-.283-.013-.356.09-.356.363q.011,7.12,0,14.24c0,.25.033.382.337.381q5.3-.014,10.592,0c.238,0,.352-.053.34-.319C-380.469,53.115-380.467,52.595-380.475,52.074ZM-348.937,39c-.5-.006-1,.005-1.5-.026-.324-.02-.377.116-.376.4q.011,7.1,0,14.193c0,.3.078.393.387.392q5.242-.015,10.485,0c.285,0,.421-.054.4-.377-.031-.5-.02-1-.026-1.5.007-2.7.007-5.4.028-8.1,0-.342-.148-.363-.414-.358-.791.012-1.582.011-2.373,0a1.785,1.785,0,0,1-1.861-1.851c-.01-.81-.012-1.621,0-2.431.005-.271-.066-.367-.351-.364C-346.005,38.99-347.471,38.989-348.937,39Zm-20.4,0c-.424-.006-.852.016-1.272-.026-.505-.05-.682.085-.679.644q.039,6.865,0,13.731c0,.539.165.632.65.62,1.37-.032,2.742-.011,4.113-.011,2.008,0,4.017-.01,6.025.009.393,0,.56-.089.521-.508-.043-.459-.032-.923-.044-1.385q.017-4.079.039-8.157c0-.291-.156-.3-.368-.295q-1.157.008-2.315,0a1.8,1.8,0,0,1-1.97-1.922c-.014-.772-.009-1.544,0-2.315,0-.263-.012-.419-.361-.412C-366.445,38.995-367.891,38.988-369.338,38.994Zm-11.134,27.9a1.89,1.89,0,0,0-1.953,2.141q0,10.223,0,20.446v.591l.109.015,1.942-5.9q1.466-4.377,2.931-8.755a3.692,3.692,0,0,1,3.953-2.87q2.75,0,5.5,0c1.543,0,1.535,0,1.495-1.559-.008-.3-.067-.449-.4-.485a3.417,3.417,0,0,1-2.068-1.058c-.627-.628-1.267-1.244-1.879-1.886a2.21,2.21,0,0,0-1.7-.718c-.81.007-1.621,0-2.431,0Q-377.725,66.866-380.472,66.89Zm32.487,26a1.773,1.773,0,0,0,.1-.2q2.982-8.936,5.971-17.869c.167-.5,0-.529-.422-.529q-15.613.013-31.226.008a1.94,1.94,0,0,0-2.18,1.576q-1.323,3.944-2.635,7.892c-.672,2.029-1.328,4.062-1.991,6.094-.419,1.216-.842,2.431-1.256,3.648-.287.845-.107,1.144.8,1.308a3.877,3.877,0,0,0,.692.032h29.749A2.09,2.09,0,0,0-347.985,92.892Zm-16.671-32.5a.983.983,0,0,0-1-.971.983.983,0,0,0-.945,1.029.952.952,0,0,0,.974.929A.956.956,0,0,0-364.656,60.393Zm-17.2-18.527-1.442-1.531c-.213,1.57-.213,1.57,1.276,1.543C-381.952,41.876-381.88,41.867-381.858,41.865Zm39.4-1.548c0,.441,0,.842,0,1.243,0,.194.012.331.268.322.428-.016.856,0,1.305,0Zm-20.393.062c-.2,1.508-.2,1.509,1.222,1.495.085,0,.191.046.233-.019Z" transform="translate(393.451 -37.229)" fill="#040404"/>
    <path id="Trazado_632521" data-name="Trazado 632521" d="M-268,176.966c.2.737.388.879,1.2.88,3.534,0,7.067,0,10.6,0a1.945,1.945,0,0,1,2.114,1.5c.083.334.066.491-.348.49q-7.559-.016-15.118,0c-.233,0-.419-.007-.41-.324.023-.847.03-1.695.043-2.542Z" transform="translate(298.652 -144.507)" fill="#efd6a1"/>
    <path id="Trazado_632522" data-name="Trazado 632522" d="M-337.145,212.353c.663-2.031,1.32-4.065,1.991-6.094q1.308-3.949,2.635-7.892a1.94,1.94,0,0,1,2.18-1.576q15.613,0,31.226-.008c.42,0,.589.032.422.529q-3,8.929-5.971,17.869a1.769,1.769,0,0,1-.1.2c-.29,0-.579-.01-.869-.01q-13.675,0-27.35-.013a4.278,4.278,0,0,1-3.247-1.635C-336.6,213.3-336.678,212.7-337.145,212.353Zm27.306-3.365c-1.022,0-2.043,0-3.065,0-.7,0-1.06.3-1.062.857s.376.878,1.054.88q3.065.008,6.129,0c.651,0,1.065-.372,1.048-.9-.016-.512-.406-.833-1.04-.836C-307.8,208.985-308.818,208.989-309.839,208.989Zm-1.883,3.714c-1.022,0-2.043,0-3.065,0-.679,0-1.048.325-1.036.884.011.528.381.85,1.021.852q3.093.01,6.187,0a.908.908,0,0,0,1.025-.865c.006-.515-.39-.866-1.009-.87C-309.641,212.7-310.682,212.7-311.722,212.7Z" transform="translate(350.224 -159.722)" fill="#e4bd8a"/>
    <path id="Trazado_632523" data-name="Trazado 632523" d="M-337.613,164.783q2.747-.02,5.494-.04c.81,0,1.621.005,2.431,0a2.21,2.21,0,0,1,1.7.718c.612.642,1.252,1.259,1.879,1.886a3.417,3.417,0,0,0,2.068,1.058c.335.037.394.187.4.485.04,1.559.048,1.559-1.495,1.559q-2.749,0-5.5,0a3.692,3.692,0,0,0-3.953,2.87q-1.463,4.379-2.931,8.755c-.168-.2-.091-.446-.092-.669Q-337.615,173.093-337.613,164.783Z" transform="translate(350.592 -135.122)" fill="#f7dea5"/>
    <path id="Trazado_632524" data-name="Trazado 632524" d="M-289.751,44.738c1.447-.006,2.893,0,4.34-.027.349-.007.365.149.361.412-.01.772-.014,1.544,0,2.315a1.8,1.8,0,0,0,1.97,1.922q1.157,0,2.315,0c.212,0,.37,0,.368.295q-.029,4.079-.039,8.157c-2.153,0-4.307.04-6.459-.01a2.044,2.044,0,0,1-2.043-1c1.541,0,3.082,0,4.623-.013.595,0,.925-.269.982-.757.066-.571-.332-.973-1.008-.978-1.445-.01-2.89,0-4.334-.007a1.171,1.171,0,0,0-.944.461,6.856,6.856,0,0,1-.014-2.905,1.087,1.087,0,0,0,.983.48c1.426-.017,2.852,0,4.278-.008.672,0,1.059-.332,1.051-.876s-.409-.858-1.08-.86c-1.387-.005-2.775.009-4.162-.008a1.215,1.215,0,0,0-1.056.468c-.192-.141-.129-.349-.129-.533Q-289.756,48-289.751,44.738Z" transform="translate(313.864 -42.973)" fill="#e9e8ea"/>
    <path id="Trazado_632525" data-name="Trazado 632525" d="M-201.873,44.752c1.466-.007,2.931-.006,4.4-.025.285,0,.356.093.351.364-.016.81-.013,1.621,0,2.431a1.785,1.785,0,0,0,1.861,1.851c.791.009,1.582.01,2.373,0,.266,0,.416.017.414.358-.021,2.7-.021,5.4-.028,8.1-2.105,0-4.211,0-6.316.006a3.432,3.432,0,0,1-1.4-.3c-.318-.139-.706-.265-.747-.719,1.5,0,3.01-.015,4.515-.011a.967.967,0,0,0,.91-.386.8.8,0,0,0,.046-.876.943.943,0,0,0-.918-.483c-1.447,0-2.894.007-4.341,0a1.12,1.12,0,0,0-.972.515,10.3,10.3,0,0,1-.138-2.683.3.3,0,0,1,.148-.292,1.118,1.118,0,0,0,1.03.5c1.4-.021,2.81-.005,4.215-.009.677,0,1.074-.318,1.083-.848.01-.546-.409-.888-1.112-.89-1.386,0-2.771.007-4.157-.007a1.113,1.113,0,0,0-1.038.486c-.252-.155-.169-.409-.17-.627Q-201.878,47.977-201.873,44.752Z" transform="translate(246.387 -42.985)" fill="#e9e8ea"/>
    <path id="Trazado_632526" data-name="Trazado 632526" d="M-377.517,44.743c1.428-.006,2.856,0,4.284-.026.329-.005.374.124.368.4-.016.772-.012,1.544,0,2.316a1.816,1.816,0,0,0,1.916,1.928c.791.007,1.583.012,2.374,0,.279-.006.36.081.358.358-.018,2.7-.023,5.4-.031,8.1-2.137,0-4.274.024-6.41-.012a2.04,2.04,0,0,1-2.043-1c1.5,0,3.009-.007,4.513-.015.687,0,1.06-.314,1.059-.864s-.384-.871-1.063-.874c-1.408-.007-2.816,0-4.224-.006a1.054,1.054,0,0,0-1.047.574,21.631,21.631,0,0,1-.012-3.111,1.047,1.047,0,0,0,1.038.574c1.4-.02,2.81,0,4.215-.008.719,0,1.107-.321,1.093-.886-.013-.541-.4-.85-1.081-.852-1.405-.005-2.81.006-4.215-.006a1.042,1.042,0,0,0-1.039.577c-.017-.211-.049-.422-.049-.633Q-377.522,48.012-377.517,44.743Z" transform="translate(381.228 -42.978)" fill="#e9e8ea"/>
    <path id="Trazado_632527" data-name="Trazado 632527" d="M-341.712,263.812c.467.348.547.951.921,1.374a4.278,4.278,0,0,0,3.247,1.635q13.675.033,27.35.013c.29,0,.579.007.869.01a2.09,2.09,0,0,1-2.407,1.958q-14.875,0-29.749,0a3.879,3.879,0,0,1-.692-.032c-.9-.165-1.082-.464-.8-1.308C-342.554,266.243-342.131,265.028-341.712,263.812Z" transform="translate(354.79 -211.181)" fill="#d9a97d"/>
    <path id="Trazado_632528" data-name="Trazado 632528" d="M-295.976,52.574a6.857,6.857,0,0,0,.014,2.905c-.14.787-.016,1.022.682,1.295a2.044,2.044,0,0,0,2.043,1c2.152.049,4.306.012,6.459.01.012.462,0,.926.044,1.385.039.419-.128.511-.521.508-2.008-.018-4.016-.009-6.025-.009-1.371,0-2.743-.021-4.113.011-.486.011-.653-.081-.65-.62q.038-6.865,0-13.731c0-.559.174-.694.679-.644.421.042.848.02,1.272.026q0,3.263,0,6.526c0,.184-.062.392.129.533A1.915,1.915,0,0,0-295.976,52.574Z" transform="translate(320.205 -42.945)" fill="#d4d2d5"/>
    <path id="Trazado_632529" data-name="Trazado 632529" d="M-383.19,56.817a2.04,2.04,0,0,0,2.043,1c2.136.036,4.274.012,6.41.012.009.52.006,1.041.03,1.56.012.266-.1.319-.34.319q-5.3-.008-10.592,0c-.3,0-.337-.131-.337-.381q.008-7.12,0-14.24c0-.272.073-.375.356-.363.539.024,1.079.017,1.619.023q0,3.269,0,6.537c0,.211.032.422.049.633l-.011.6a21.631,21.631,0,0,0,.012,3.111C-384.032,56.342-383.871,56.591-383.19,56.817Z" transform="translate(387.712 -42.984)" fill="#d9d7da"/>
    <path id="Trazado_632530" data-name="Trazado 632530" d="M-208.032,44.743q0,3.225,0,6.45c0,.218-.082.472.17.627a1.436,1.436,0,0,0-.021.77.3.3,0,0,0-.148.292,10.3,10.3,0,0,0,.138,2.683c-.081.8.053,1.019.76,1.244.04.454.429.58.747.719a3.432,3.432,0,0,0,1.4.3c2.105-.01,4.211-.005,6.316-.006.007.5,0,1,.026,1.5.02.323-.116.378-.4.377q-5.242-.012-10.485,0c-.308,0-.387-.092-.387-.392q.013-7.1,0-14.193c0-.285.052-.421.376-.4C-209.036,44.749-208.533,44.737-208.032,44.743Z" transform="translate(252.546 -42.977)" fill="#d9d7da"/>
    <path id="Trazado_632531" data-name="Trazado 632531" d="M-344.033,164.922q0,8.311.006,16.621c0,.224-.077.466.092.669l-1.942,5.9-.109-.015v-.591q0-10.223,0-20.446A1.89,1.89,0,0,1-344.033,164.922Z" transform="translate(357.012 -135.261)" fill="#e9cb94"/>
    <path id="Trazado_632532" data-name="Trazado 632532" d="M-275.93,133.739a.956.956,0,0,1-.975.987.952.952,0,0,1-.973-.929.983.983,0,0,1,.945-1.029A.983.983,0,0,1-275.93,133.739Z" transform="translate(304.724 -110.575)" fill="#b0adb2"/>
    <path id="Trazado_632533" data-name="Trazado 632533" d="M-348.64,52.131c-.023,0-.094.011-.166.012-1.488.027-1.488.027-1.276-1.543Z" transform="translate(360.233 -47.494)" fill="#d4d2d5"/>
    <path id="Trazado_632534" data-name="Trazado 632534" d="M-173.917,50.524l1.571,1.56c-.449,0-.878-.012-1.305,0-.256.01-.272-.128-.269-.322C-173.912,51.366-173.917,50.965-173.917,50.524Z" transform="translate(224.913 -47.436)" fill="#d4d2d5"/>
    <path id="Trazado_632535" data-name="Trazado 632535" d="M-262.012,50.793l1.455,1.475c-.042.066-.147.018-.233.019C-262.211,52.3-262.211,52.3-262.012,50.793Z" transform="translate(292.615 -47.642)" fill="#d9d7da"/>
    <path id="Trazado_632536" data-name="Trazado 632536" d="M-233.23,249.323c1.021,0,2.043,0,3.065,0,.634,0,1.024.324,1.04.836.017.528-.4.9-1.048.9q-3.065.01-6.129,0c-.678,0-1.056-.329-1.054-.88s.364-.854,1.062-.857C-235.273,249.32-234.251,249.323-233.23,249.323Z" transform="translate(273.614 -200.056)" fill="#030202"/>
    <path id="Trazado_632537" data-name="Trazado 632537" d="M-241.253,265.312c1.041,0,2.081-.005,3.122,0,.619,0,1.015.355,1.009.87a.908.908,0,0,1-1.025.865q-3.093.01-6.187,0c-.64,0-1.009-.324-1.021-.852-.012-.559.358-.881,1.036-.884C-243.3,265.308-242.275,265.312-241.253,265.312Z" transform="translate(279.754 -212.331)" fill="#020201"/>
    <path id="Trazado_632538" data-name="Trazado 632538" d="M-288.57,90.962c-.7-.273-.822-.508-.682-1.295a1.171,1.171,0,0,1,.944-.461c1.445.011,2.889,0,4.334.007.676,0,1.074.407,1.008.978-.057.488-.387.753-.982.757C-285.488,90.959-287.029,90.959-288.57,90.962Z" transform="translate(313.494 -77.133)" fill="#040404"/>
    <path id="Trazado_632539" data-name="Trazado 632539" d="M-289.265,74.476a1.914,1.914,0,0,1,.013-.8A1.215,1.215,0,0,1-288.2,73.2c1.387.017,2.775,0,4.162.008.67,0,1.071.33,1.08.86s-.378.874-1.051.876c-1.426,0-2.852-.009-4.278.008A1.087,1.087,0,0,1-289.265,74.476Z" transform="translate(313.494 -64.847)" fill="#030202"/>
    <path id="Trazado_632540" data-name="Trazado 632540" d="M-200.517,90.967c-.707-.225-.841-.444-.76-1.244a1.12,1.12,0,0,1,.972-.515c1.447.01,2.894,0,4.341,0a.943.943,0,0,1,.918.483.8.8,0,0,1-.046.876.967.967,0,0,1-.91.386C-197.507,90.952-199.012,90.962-200.517,90.967Z" transform="translate(245.932 -77.134)" fill="#040404"/>
    <path id="Trazado_632541" data-name="Trazado 632541" d="M-201.3,74.464a1.436,1.436,0,0,1,.021-.77,1.113,1.113,0,0,1,1.038-.486c1.386.014,2.771,0,4.157.007.7,0,1.121.344,1.112.89-.009.531-.406.847-1.083.848-1.4,0-2.81-.012-4.215.009A1.118,1.118,0,0,1-201.3,74.464Z" transform="translate(245.969 -64.85)" fill="#040404"/>
    <path id="Trazado_632542" data-name="Trazado 632542" d="M-376.562,90.966c-.681-.226-.842-.475-.763-1.186a1.054,1.054,0,0,1,1.047-.574c1.408.011,2.816,0,4.224.006.68,0,1.062.328,1.063.874s-.372.86-1.059.864C-373.554,90.959-375.058,90.961-376.562,90.966Z" transform="translate(381.085 -77.133)" fill="#040404"/>
    <path id="Trazado_632543" data-name="Trazado 632543" d="M-377.314,74.389l.011-.6a1.042,1.042,0,0,1,1.039-.577c1.405.012,2.81,0,4.215.006.685,0,1.067.311,1.081.852.014.565-.375.884-1.093.886-1.405,0-2.81-.012-4.215.008A1.047,1.047,0,0,1-377.314,74.389Z" transform="translate(381.062 -64.853)" fill="#040404"/>
  </g>
</svg>
