<svg xmlns="http://www.w3.org/2000/svg" width="641.591" height="103.655" viewBox="0 0 641.591 103.655">
  <g id="Grupo_1044068" data-name="Grupo 1044068" transform="translate(10353 8519.413)">
    <path id="Trazado_654313" data-name="Trazado 654313" d="M180.057,341.156H74.748a52.654,52.654,0,1,1,105.309,0Z" transform="translate(-10427.748 -8807.914)" fill="#ebc574"/>
    <path id="Trazado_654314" data-name="Trazado 654314" d="M577.8,341.156H472.488a52.655,52.655,0,1,1,105.31,0Z" transform="translate(-10647.488 -8807.914)" fill="#faa473"/>
    <path id="Trazado_654315" data-name="Trazado 654315" d="M273.618,427.449h105.31a52.655,52.655,0,1,1-105.31,0Z" transform="translate(-10537.051 -8895.862)" fill="#727997"/>
    <path id="Trazado_654316" data-name="Trazado 654316" d="M671.357,427.449h105.31a52.655,52.655,0,0,1-105.31,0Z" transform="translate(-10756.787 -8895.862)" fill="#727997"/>
    <path id="Trazado_771506" data-name="Trazado 771506" d="M36.784,0A36.784,36.784,0,1,1,0,36.784,36.784,36.784,0,0,1,36.784,0Z" transform="translate(-10337 -8508.413)" fill="#e8e8e8"/>
    <path id="Trazado_771507" data-name="Trazado 771507" d="M36.785,0A36.785,36.785,0,1,1,0,36.785,36.785,36.785,0,0,1,36.785,0Z" transform="translate(-10247.434 -8508.413)" fill="#e8e8e8"/>
    <path id="Trazado_771508" data-name="Trazado 771508" d="M36.785,0A36.785,36.785,0,1,1,0,36.785,36.785,36.785,0,0,1,36.785,0Z" transform="translate(-10159 -8508.413)" fill="#e8e8e8"/>
    <path id="Trazado_771509" data-name="Trazado 771509" d="M36.785,0A36.785,36.785,0,1,1,0,36.785,36.785,36.785,0,0,1,36.785,0Z" transform="translate(-10069.43 -8508.413)" fill="#e8e8e8"/>
    <path id="Trazado_654313-2" data-name="Trazado 654313" d="M180.058,341.156H74.748a52.655,52.655,0,1,1,105.31,0Z" transform="translate(-10070.607 -8807.914)" fill="#77c69d"/>
    <path id="Trazado_654314-2" data-name="Trazado 654314" d="M577.8,341.156H472.488a52.655,52.655,0,1,1,105.31,0Z" transform="translate(-10289.207 -8807.914)" fill="#9982e6"/>
    <path id="Trazado_654315-2" data-name="Trazado 654315" d="M273.618,427.449h105.31a52.655,52.655,0,0,1-105.31,0Z" transform="translate(-10179.908 -8895.862)" fill="#727997"/>
    <path id="Trazado_771510" data-name="Trazado 771510" d="M36.785,0A36.785,36.785,0,1,1,0,36.785,36.785,36.785,0,0,1,36.785,0Z" transform="translate(-9979.859 -8508.413)" fill="#e8e8e8"/>
    <path id="Trazado_771511" data-name="Trazado 771511" d="M36.785,0A36.785,36.785,0,1,1,0,36.785,36.785,36.785,0,0,1,36.785,0Z" transform="translate(-9890.289 -8508.413)" fill="#e8e8e8"/>
    <path id="Trazado_771512" data-name="Trazado 771512" d="M36.785,0A36.785,36.785,0,1,1,0,36.785,36.785,36.785,0,0,1,36.785,0Z" transform="translate(-9800.719 -8508.413)" fill="#e8e8e8"/>
    <path id="Trazado_771513" data-name="Trazado 771513" d="M-14.947-4.4a4.242,4.242,0,0,1-.212,1.471,2.858,2.858,0,0,1-.755,1.067,7.967,7.967,0,0,0-.738.753,1.963,1.963,0,0,0-.294.5,1.51,1.51,0,0,0-.1.555.94.94,0,0,0,1.053,1.075A1.137,1.137,0,0,0-15.155.71a1.205,1.205,0,0,0,.325-.863h1.976A2.639,2.639,0,0,1-13.7,1.9a3.284,3.284,0,0,1-2.263.736,3.361,3.361,0,0,1-2.263-.695,2.472,2.472,0,0,1-.807-1.981,3.05,3.05,0,0,1,1.046-2.135l.663-.636a1.753,1.753,0,0,0,.475-.643A2.82,2.82,0,0,0-16.7-4.4Zm.246-2.088a.979.979,0,0,1-.314.749,1.118,1.118,0,0,1-.793.293,1.118,1.118,0,0,1-.793-.293.979.979,0,0,1-.314-.749,1,1,0,0,1,.3-.749,1.109,1.109,0,0,1,.8-.293,1.109,1.109,0,0,1,.8.293A1,1,0,0,1-14.7-6.491Zm11.218,1.74a6,6,0,0,1-.451,2.423A4.16,4.16,0,0,1-5.185-.677l1.654,1.3L-4.836,1.777-6.956.075a4.486,4.486,0,0,1-.752.062A4.141,4.141,0,0,1-9.916-.458a3.951,3.951,0,0,1-1.5-1.7,5.837,5.837,0,0,1-.54-2.54v-.492a5.977,5.977,0,0,1,.53-2.587,3.945,3.945,0,0,1,1.5-1.716,4.118,4.118,0,0,1,2.211-.6,4.118,4.118,0,0,1,2.211.6,3.945,3.945,0,0,1,1.5,1.716A5.96,5.96,0,0,1-3.483-5.2ZM-5.561-5.2a4.188,4.188,0,0,0-.561-2.379,1.827,1.827,0,0,0-1.6-.813,1.827,1.827,0,0,0-1.593.8,4.141,4.141,0,0,0-.567,2.355v.485a4.241,4.241,0,0,0,.561,2.365,1.822,1.822,0,0,0,1.613.841,1.806,1.806,0,0,0,1.586-.81,4.216,4.216,0,0,0,.561-2.362ZM2.321-.752A2.477,2.477,0,0,1,.3.137,2.337,2.337,0,0,1-1.518-.547a2.918,2.918,0,0,1-.639-2V-7.4H-.181v4.784q0,1.157,1.053,1.157a1.426,1.426,0,0,0,1.381-.7V-7.4H4.235V0H2.375ZM9.129.137a3.631,3.631,0,0,1-2.649-1A3.548,3.548,0,0,1,5.458-3.521v-.191A4.468,4.468,0,0,1,5.889-5.7a3.161,3.161,0,0,1,1.22-1.354,3.425,3.425,0,0,1,1.8-.475,3.07,3.07,0,0,1,2.389.957,3.889,3.889,0,0,1,.872,2.714v.807H7.461a1.835,1.835,0,0,0,.578,1.162,1.746,1.746,0,0,0,1.22.438,2.132,2.132,0,0,0,1.784-.827L12.014-1.2a2.966,2.966,0,0,1-1.2.981A3.947,3.947,0,0,1,9.129.137ZM8.9-5.94a1.234,1.234,0,0,0-.954.4A2.062,2.062,0,0,0,7.482-4.4H10.23V-4.56a1.471,1.471,0,0,0-.355-1.02A1.274,1.274,0,0,0,8.9-5.94Zm.178-4.56h2.153L9.341-8.381H7.735Zm5.824,7.451a4.113,4.113,0,0,1,.232-1.526,3.13,3.13,0,0,1,.851-1.119,4.351,4.351,0,0,0,.824-.9,1.408,1.408,0,0,0,.205-.729q0-1.157-1.066-1.157a1.08,1.08,0,0,0-.81.312,1.225,1.225,0,0,0-.318.86H12.841a2.637,2.637,0,0,1,.844-2.046,3.287,3.287,0,0,1,2.266-.739,3.3,3.3,0,0,1,2.249.7A2.5,2.5,0,0,1,19-7.407a2.412,2.412,0,0,1-.26,1.1,4.524,4.524,0,0,1-.909,1.146l-.554.527a1.877,1.877,0,0,0-.595,1.17l-.027.417Zm-.2,2.1a1,1,0,0,1,.311-.753,1.107,1.107,0,0,1,.8-.3,1.107,1.107,0,0,1,.8.3,1,1,0,0,1,.311.753.987.987,0,0,1-.3.743,1.109,1.109,0,0,1-.8.293,1.109,1.109,0,0,1-.8-.293A.987.987,0,0,1,14.708-.954ZM-13.076,10.67a2.64,2.64,0,0,1-.261.926,3.54,3.54,0,0,1-.715.882l-.474.445a1.909,1.909,0,0,0-.645,1.124A.964.964,0,0,0-15,14.81a.853.853,0,0,0,.684.293,1.159,1.159,0,0,0,.8-.266,1.235,1.235,0,0,0,.413-.735l.879,0a1.92,1.92,0,0,1-.688,1.311,2.127,2.127,0,0,1-1.46.476,1.768,1.768,0,0,1-1.309-.513,1.6,1.6,0,0,1-.391-1.3,2.736,2.736,0,0,1,1.006-1.75l.566-.5a1.953,1.953,0,0,0,.566-1.144Zm.342-1.555a.527.527,0,0,1-.144.379.526.526,0,0,1-.374.16.47.47,0,0,1-.378-.141.514.514,0,0,1-.144-.369.514.514,0,0,1,.151-.372.544.544,0,0,1,.371-.153.51.51,0,0,1,.374.134A.457.457,0,0,1-12.734,9.115Zm3.623,2.693-.02.859.332-.84,2.124-4.937H-5.9l.562,5,.049.811.308-.981,1.816-4.829h.942L-5,14H-5.84l-.615-5.22-.02-.488-.205.566L-8.945,14H-9.78l-.557-7.109h.894ZM-.835,9.361a2.047,2.047,0,0,1,1.6-.737,1.286,1.286,0,0,1,1.1.51,2.011,2.011,0,0,1,.266,1.4L1.553,14H.669l.581-3.477a1.855,1.855,0,0,0,0-.444.73.73,0,0,0-.806-.7,1.626,1.626,0,0,0-1.4.85L-1.6,14h-.884l1.3-7.5H-.3ZM6.138,14a1.183,1.183,0,0,1-.034-.278l.015-.278a2.166,2.166,0,0,1-1.543.654,1.579,1.579,0,0,1-1.135-.442,1.337,1.337,0,0,1-.4-1.082,1.626,1.626,0,0,1,.735-1.311,3.128,3.128,0,0,1,1.8-.471l.923,0,.059-.42a.965.965,0,0,0-.183-.75.884.884,0,0,0-.7-.286,1.363,1.363,0,0,0-.8.222.946.946,0,0,0-.427.613l-.889,0a1.416,1.416,0,0,1,.361-.823A2.1,2.1,0,0,1,4.741,8.8a2.634,2.634,0,0,1,1.03-.188,1.752,1.752,0,0,1,1.284.5,1.552,1.552,0,0,1,.386,1.277l-.43,2.617-.024.376a1.843,1.843,0,0,0,.059.532L7.036,14Zm-1.387-.684a1.541,1.541,0,0,0,.8-.2,2.034,2.034,0,0,0,.652-.588l.19-1.089-.669,0a2.534,2.534,0,0,0-1.279.264.971.971,0,0,0-.5.747.756.756,0,0,0,.173.618A.826.826,0,0,0,4.751,13.316Zm5.815-5.879-.225,1.279H11.3l-.122.7h-.957L9.673,12.7a1.146,1.146,0,0,0,0,.234.372.372,0,0,0,.415.381,2.531,2.531,0,0,0,.43-.049L10.444,14a2.4,2.4,0,0,1-.645.088.923.923,0,0,1-.791-.388A1.5,1.5,0,0,1,8.8,12.687l.537-3.271H8.408l.122-.7h.933l.225-1.279ZM12.866,12a2.678,2.678,0,0,1,.3-.991,3.5,3.5,0,0,1,.762-.9l.4-.347a1.878,1.878,0,0,0,.688-1.138,1.01,1.01,0,0,0-.151-.747.8.8,0,0,0-.654-.308,1.17,1.17,0,0,0-.818.266,1.209,1.209,0,0,0-.4.71l-.879,0A1.873,1.873,0,0,1,12.8,7.264a2.2,2.2,0,0,1,1.462-.476,1.687,1.687,0,0,1,1.272.518,1.645,1.645,0,0,1,.383,1.3,2.677,2.677,0,0,1-1,1.709l-.6.508A1.914,1.914,0,0,0,13.73,12Zm-.347,1.558a.545.545,0,0,1,.146-.378.527.527,0,0,1,.376-.159.5.5,0,0,1,.374.139.481.481,0,0,1,.144.374.5.5,0,0,1-.146.371.526.526,0,0,1-.376.151.479.479,0,0,1-.374-.132A.491.491,0,0,1,12.52,13.561Z" transform="translate(-10300 -8471.413)" fill="#12263f"/>
    <path id="Trazado_771514" data-name="Trazado 771514" d="M-22.569-4.4a4.242,4.242,0,0,1-.212,1.471,2.858,2.858,0,0,1-.755,1.067,7.967,7.967,0,0,0-.738.753,1.963,1.963,0,0,0-.294.5,1.51,1.51,0,0,0-.1.555.94.94,0,0,0,1.053,1.075A1.137,1.137,0,0,0-22.777.71a1.205,1.205,0,0,0,.325-.863h1.976A2.639,2.639,0,0,1-21.318,1.9a3.284,3.284,0,0,1-2.263.736,3.361,3.361,0,0,1-2.263-.695A2.472,2.472,0,0,1-26.65-.044,3.05,3.05,0,0,1-25.6-2.179l.663-.636a1.753,1.753,0,0,0,.475-.643,2.82,2.82,0,0,0,.147-.944Zm.246-2.088a.979.979,0,0,1-.314.749,1.118,1.118,0,0,1-.793.293,1.118,1.118,0,0,1-.793-.293.979.979,0,0,1-.314-.749,1,1,0,0,1,.3-.749,1.109,1.109,0,0,1,.8-.293,1.109,1.109,0,0,1,.8.293A1,1,0,0,1-22.323-6.491ZM-19.267,0V-9.953H-16.2a4.651,4.651,0,0,1,2.348.591A4.123,4.123,0,0,1-12.24-7.68,5.187,5.187,0,0,1-11.659-5.2v.458a5.2,5.2,0,0,1-.571,2.468A4.088,4.088,0,0,1-13.839-.6a4.686,4.686,0,0,1-2.345.6Zm2.051-8.292v6.645h.991a2.227,2.227,0,0,0,1.839-.786,3.552,3.552,0,0,0,.649-2.249v-.526a3.609,3.609,0,0,0-.629-2.3A2.219,2.219,0,0,0-16.2-8.292Zm6.61,4.525a4.387,4.387,0,0,1,.424-1.962,3.1,3.1,0,0,1,1.22-1.333,3.56,3.56,0,0,1,1.849-.472,3.368,3.368,0,0,1,2.444.916A3.676,3.676,0,0,1-3.613-4.129l.014.506a3.866,3.866,0,0,1-.95,2.731A3.3,3.3,0,0,1-7.1.137,3.319,3.319,0,0,1-9.652-.889a3.934,3.934,0,0,1-.954-2.789Zm1.976.14a2.765,2.765,0,0,0,.4,1.612A1.308,1.308,0,0,0-7.1-1.456a1.311,1.311,0,0,0,1.121-.551,3.025,3.025,0,0,0,.4-1.763,2.737,2.737,0,0,0-.4-1.6A1.311,1.311,0,0,0-7.113-5.94a1.29,1.29,0,0,0-1.121.565A3.076,3.076,0,0,0-8.63-3.626ZM-6.723-10.5H-4.57L-6.463-8.381H-8.07ZM-.564-7.4l.062.854a2.582,2.582,0,0,1,2.126-.991,2.146,2.146,0,0,1,1.75.69,3.221,3.221,0,0,1,.588,2.064V0H1.986V-4.741a1.287,1.287,0,0,0-.273-.915A1.222,1.222,0,0,0,.8-5.94a1.359,1.359,0,0,0-1.251.713V0H-2.423V-7.4ZM5.151-3.753a4.457,4.457,0,0,1,.776-2.755A2.517,2.517,0,0,1,8.049-7.533a2.265,2.265,0,0,1,1.784.807V-10.5h1.982V0H10.032l-.1-.786a2.325,2.325,0,0,1-1.9.923A2.511,2.511,0,0,1,5.94-.892,4.6,4.6,0,0,1,5.151-3.753Zm1.976.141a2.936,2.936,0,0,0,.362,1.6,1.179,1.179,0,0,0,1.053.556,1.321,1.321,0,0,0,1.292-.776V-5.164A1.3,1.3,0,0,0,8.555-5.94Q7.126-5.94,7.126-3.612ZM16.751.137a3.631,3.631,0,0,1-2.649-1,3.548,3.548,0,0,1-1.022-2.659v-.191A4.468,4.468,0,0,1,13.511-5.7a3.161,3.161,0,0,1,1.22-1.354,3.425,3.425,0,0,1,1.8-.475,3.07,3.07,0,0,1,2.389.957,3.889,3.889,0,0,1,.872,2.714v.807h-4.71a1.835,1.835,0,0,0,.578,1.162,1.746,1.746,0,0,0,1.22.438,2.132,2.132,0,0,0,1.784-.827L19.636-1.2a2.966,2.966,0,0,1-1.2.981A3.947,3.947,0,0,1,16.751.137ZM16.526-5.94a1.234,1.234,0,0,0-.954.4A2.062,2.062,0,0,0,15.1-4.4h2.748V-4.56A1.471,1.471,0,0,0,17.5-5.58,1.274,1.274,0,0,0,16.526-5.94Zm6,2.892a4.113,4.113,0,0,1,.232-1.526,3.13,3.13,0,0,1,.851-1.119,4.351,4.351,0,0,0,.824-.9,1.408,1.408,0,0,0,.205-.729q0-1.157-1.066-1.157a1.08,1.08,0,0,0-.81.312,1.225,1.225,0,0,0-.318.86H20.463a2.637,2.637,0,0,1,.844-2.046,3.287,3.287,0,0,1,2.266-.739,3.3,3.3,0,0,1,2.249.7,2.5,2.5,0,0,1,.8,1.981,2.412,2.412,0,0,1-.26,1.1,4.524,4.524,0,0,1-.909,1.146l-.554.527a1.877,1.877,0,0,0-.595,1.17l-.027.417Zm-.2,2.1a1,1,0,0,1,.311-.753,1.107,1.107,0,0,1,.8-.3,1.107,1.107,0,0,1,.8.3,1,1,0,0,1,.311.753.987.987,0,0,1-.3.743,1.109,1.109,0,0,1-.8.293,1.109,1.109,0,0,1-.8-.293A.987.987,0,0,1,22.33-.954ZM-16.88,10.67a2.64,2.64,0,0,1-.261.926,3.54,3.54,0,0,1-.715.882l-.474.445a1.909,1.909,0,0,0-.645,1.124.964.964,0,0,0,.166.763.853.853,0,0,0,.684.293,1.159,1.159,0,0,0,.8-.266,1.235,1.235,0,0,0,.413-.735l.879,0a1.92,1.92,0,0,1-.688,1.311,2.127,2.127,0,0,1-1.46.476,1.768,1.768,0,0,1-1.309-.513,1.6,1.6,0,0,1-.391-1.3,2.736,2.736,0,0,1,1.006-1.75l.566-.5a1.953,1.953,0,0,0,.566-1.144Zm.342-1.555a.527.527,0,0,1-.144.379.526.526,0,0,1-.374.16.47.47,0,0,1-.378-.141.514.514,0,0,1-.144-.369.514.514,0,0,1,.151-.372.544.544,0,0,1,.371-.153.51.51,0,0,1,.374.134A.457.457,0,0,1-16.538,9.115Zm3.623,2.693-.02.859.332-.84,2.124-4.937H-9.7l.562,5,.049.811.308-.981,1.816-4.829h.942L-8.809,14h-.835l-.615-5.22-.02-.488-.205.566L-12.749,14h-.835l-.557-7.109h.894Zm8.276-2.446a2.047,2.047,0,0,1,1.6-.737,1.286,1.286,0,0,1,1.1.51,2.011,2.011,0,0,1,.266,1.4L-2.251,14h-.884l.581-3.477a1.855,1.855,0,0,0,0-.444.73.73,0,0,0-.806-.7,1.626,1.626,0,0,0-1.4.85L-5.405,14h-.884l1.3-7.5H-4.1ZM1.387,14.1A1.9,1.9,0,0,1-.156,13.37a2.5,2.5,0,0,1-.469-1.812l.024-.21A3.515,3.515,0,0,1-.134,9.913,2.712,2.712,0,0,1,.8,8.934a2.182,2.182,0,0,1,1.191-.315,1.68,1.68,0,0,1,1.279.542,2.229,2.229,0,0,1,.508,1.416,4.138,4.138,0,0,1-.02.635l-.054.405H.254a1.785,1.785,0,0,0,.237,1.221,1.122,1.122,0,0,0,.969.522,1.88,1.88,0,0,0,1.445-.7l.508.43a2.324,2.324,0,0,1-.857.75A2.429,2.429,0,0,1,1.387,14.1Zm.562-4.741a1.291,1.291,0,0,0-.955.371,2.638,2.638,0,0,0-.647,1.147l2.568,0,.02-.078a1.445,1.445,0,0,0-.2-1.023A.93.93,0,0,0,1.948,9.356Zm5.625.166-.415-.044a1.512,1.512,0,0,0-1.338.767L5.171,14H4.287l.918-5.283.854,0-.132.615a1.58,1.58,0,0,1,1.323-.718,1.621,1.621,0,0,1,.42.073ZM9.9,14.1a1.9,1.9,0,0,1-1.543-.728,2.5,2.5,0,0,1-.469-1.812l.024-.21a3.515,3.515,0,0,1,.466-1.436,2.712,2.712,0,0,1,.935-.979,2.182,2.182,0,0,1,1.191-.315,1.68,1.68,0,0,1,1.279.542,2.229,2.229,0,0,1,.508,1.416,4.138,4.138,0,0,1-.02.635l-.054.405H8.77a1.785,1.785,0,0,0,.237,1.221,1.122,1.122,0,0,0,.969.522,1.88,1.88,0,0,0,1.445-.7l.508.43a2.324,2.324,0,0,1-.857.75A2.429,2.429,0,0,1,9.9,14.1Zm.562-4.741a1.291,1.291,0,0,0-.955.371,2.638,2.638,0,0,0-.647,1.147l2.568,0,.02-.078a1.445,1.445,0,0,0-.2-1.023A.93.93,0,0,0,10.464,9.356ZM14.219,12a2.678,2.678,0,0,1,.3-.991,3.5,3.5,0,0,1,.762-.9l.4-.347a1.878,1.878,0,0,0,.688-1.138,1.01,1.01,0,0,0-.151-.747.8.8,0,0,0-.654-.308,1.17,1.17,0,0,0-.818.266,1.209,1.209,0,0,0-.4.71l-.879,0a1.873,1.873,0,0,1,.691-1.292,2.2,2.2,0,0,1,1.462-.476,1.687,1.687,0,0,1,1.272.518,1.645,1.645,0,0,1,.383,1.3,2.677,2.677,0,0,1-1,1.709l-.6.508A1.914,1.914,0,0,0,15.083,12Zm-.347,1.558a.545.545,0,0,1,.146-.378.527.527,0,0,1,.376-.159.5.5,0,0,1,.374.139.481.481,0,0,1,.144.374.5.5,0,0,1-.146.371.526.526,0,0,1-.376.151.479.479,0,0,1-.374-.132A.491.491,0,0,1,13.872,13.561Z" transform="translate(-10210.434 -8471.413)" fill="#12263f"/>
    <path id="Trazado_771515" data-name="Trazado 771515" d="M-26.486-4.4A4.242,4.242,0,0,1-26.7-2.931a2.858,2.858,0,0,1-.755,1.067,7.967,7.967,0,0,0-.738.753,1.963,1.963,0,0,0-.294.5,1.51,1.51,0,0,0-.1.555.94.94,0,0,0,1.053,1.075A1.137,1.137,0,0,0-26.694.71a1.205,1.205,0,0,0,.325-.863h1.976A2.639,2.639,0,0,1-25.235,1.9a3.284,3.284,0,0,1-2.263.736,3.361,3.361,0,0,1-2.263-.695,2.472,2.472,0,0,1-.807-1.981,3.05,3.05,0,0,1,1.046-2.135l.663-.636a1.753,1.753,0,0,0,.475-.643,2.82,2.82,0,0,0,.147-.944Zm.246-2.088a.979.979,0,0,1-.314.749,1.118,1.118,0,0,1-.793.293,1.118,1.118,0,0,1-.793-.293.979.979,0,0,1-.314-.749,1,1,0,0,1,.3-.749,1.109,1.109,0,0,1,.8-.293,1.109,1.109,0,0,1,.8.293A1,1,0,0,1-26.24-6.491Zm10.869,3.175A3.522,3.522,0,0,1-16.557-.786a4.165,4.165,0,0,1-2.82.923,3.745,3.745,0,0,1-3.011-1.289,5.284,5.284,0,0,1-1.1-3.538V-5.3a5.966,5.966,0,0,1,.506-2.529,3.791,3.791,0,0,1,1.446-1.678,4.05,4.05,0,0,1,2.184-.584,4.058,4.058,0,0,1,2.775.923,3.785,3.785,0,0,1,1.217,2.591h-2.051a2.079,2.079,0,0,0-.537-1.4,1.987,1.987,0,0,0-1.4-.434,1.742,1.742,0,0,0-1.535.735,4.118,4.118,0,0,0-.523,2.28v.752a4.408,4.408,0,0,0,.489,2.358,1.71,1.71,0,0,0,1.542.745,2.025,2.025,0,0,0,1.418-.434,1.961,1.961,0,0,0,.537-1.343ZM-9.724-.752a2.477,2.477,0,0,1-2.023.889,2.337,2.337,0,0,1-1.815-.684,2.918,2.918,0,0,1-.639-2V-7.4h1.976v4.784q0,1.157,1.053,1.157a1.426,1.426,0,0,0,1.381-.7V-7.4H-7.81V0H-9.669ZM-2.034,0a2.194,2.194,0,0,1-.2-.663A2.39,2.39,0,0,1-4.1.137,2.626,2.626,0,0,1-5.9-.492a2.023,2.023,0,0,1-.714-1.586,2.09,2.09,0,0,1,.872-1.8,4.3,4.3,0,0,1,2.519-.636h.909v-.424a1.219,1.219,0,0,0-.263-.82,1.035,1.035,0,0,0-.831-.308,1.177,1.177,0,0,0-.783.239.813.813,0,0,0-.284.656H-6.45a1.984,1.984,0,0,1,.4-1.189,2.621,2.621,0,0,1,1.121-.858,4.086,4.086,0,0,1,1.627-.311,3.228,3.228,0,0,1,2.17.687,2.4,2.4,0,0,1,.8,1.931v3.206A3.536,3.536,0,0,0-.038-.116V0ZM-3.667-1.374a1.7,1.7,0,0,0,.807-.195,1.28,1.28,0,0,0,.547-.523V-3.363h-.738q-1.483,0-1.579,1.025l-.007.116a.791.791,0,0,0,.26.608A1.009,1.009,0,0,0-3.667-1.374Zm.752-9.126H-.762L-2.656-8.381H-4.262ZM3-7.4l.062.854a2.582,2.582,0,0,1,2.126-.991,2.146,2.146,0,0,1,1.75.69A3.221,3.221,0,0,1,7.53-4.778V0H5.554V-4.741a1.287,1.287,0,0,0-.273-.915,1.222,1.222,0,0,0-.909-.284,1.359,1.359,0,0,0-1.251.713V0H1.145V-7.4ZM8.719-3.753A4.457,4.457,0,0,1,9.5-6.508a2.517,2.517,0,0,1,2.123-1.025,2.265,2.265,0,0,1,1.784.807V-10.5h1.982V0H13.6l-.1-.786a2.325,2.325,0,0,1-1.9.923,2.511,2.511,0,0,1-2.1-1.029A4.6,4.6,0,0,1,8.719-3.753Zm1.976.141a2.936,2.936,0,0,0,.362,1.6,1.179,1.179,0,0,0,1.053.556A1.321,1.321,0,0,0,13.4-2.232V-5.164a1.3,1.3,0,0,0-1.278-.776Q10.695-5.94,10.695-3.612Zm5.913-.154a4.387,4.387,0,0,1,.424-1.962,3.1,3.1,0,0,1,1.22-1.333A3.56,3.56,0,0,1,20.1-7.533a3.368,3.368,0,0,1,2.444.916A3.676,3.676,0,0,1,23.6-4.129l.014.506a3.866,3.866,0,0,1-.95,2.731A3.3,3.3,0,0,1,20.115.137,3.319,3.319,0,0,1,17.562-.889a3.934,3.934,0,0,1-.954-2.789Zm1.976.14a2.765,2.765,0,0,0,.4,1.612,1.308,1.308,0,0,0,1.135.558,1.311,1.311,0,0,0,1.121-.551,3.025,3.025,0,0,0,.4-1.763,2.737,2.737,0,0,0-.4-1.6A1.311,1.311,0,0,0,20.1-5.94a1.29,1.29,0,0,0-1.121.565A3.076,3.076,0,0,0,18.583-3.626Zm7.861.578a4.113,4.113,0,0,1,.232-1.526,3.13,3.13,0,0,1,.851-1.119,4.351,4.351,0,0,0,.824-.9,1.408,1.408,0,0,0,.205-.729q0-1.157-1.066-1.157a1.08,1.08,0,0,0-.81.312,1.225,1.225,0,0,0-.318.86H24.38a2.637,2.637,0,0,1,.844-2.046,3.287,3.287,0,0,1,2.266-.739,3.3,3.3,0,0,1,2.249.7,2.5,2.5,0,0,1,.8,1.981,2.412,2.412,0,0,1-.26,1.1,4.524,4.524,0,0,1-.909,1.146l-.554.527a1.877,1.877,0,0,0-.595,1.17l-.027.417Zm-.2,2.1a1,1,0,0,1,.311-.753,1.107,1.107,0,0,1,.8-.3,1.107,1.107,0,0,1,.8.3,1,1,0,0,1,.311.753.987.987,0,0,1-.3.743,1.109,1.109,0,0,1-.8.293,1.109,1.109,0,0,1-.8-.293A.987.987,0,0,1,26.247-.954ZM-15.322,10.67a2.64,2.64,0,0,1-.261.926,3.54,3.54,0,0,1-.715.882l-.474.445a1.909,1.909,0,0,0-.645,1.124.964.964,0,0,0,.166.763.853.853,0,0,0,.684.293,1.159,1.159,0,0,0,.8-.266,1.235,1.235,0,0,0,.413-.735l.879,0a1.92,1.92,0,0,1-.688,1.311,2.127,2.127,0,0,1-1.46.476,1.768,1.768,0,0,1-1.309-.513,1.6,1.6,0,0,1-.391-1.3,2.736,2.736,0,0,1,1.006-1.75l.566-.5a1.953,1.953,0,0,0,.566-1.144Zm.342-1.555a.527.527,0,0,1-.144.379.526.526,0,0,1-.374.16.47.47,0,0,1-.378-.141.514.514,0,0,1-.144-.369.514.514,0,0,1,.151-.372.544.544,0,0,1,.371-.153.51.51,0,0,1,.374.134A.457.457,0,0,1-14.98,9.115Zm3.623,2.693-.02.859.332-.84,2.124-4.937h.776l.562,5,.049.811.308-.981L-5.41,6.891h.942L-7.251,14h-.835L-8.7,8.78l-.02-.488-.205.566L-11.191,14h-.835l-.557-7.109h.894Zm8.276-2.446a2.047,2.047,0,0,1,1.6-.737,1.286,1.286,0,0,1,1.1.51,2.011,2.011,0,0,1,.266,1.4L-.693,14h-.884L-1,10.523a1.855,1.855,0,0,0,0-.444.73.73,0,0,0-.806-.7,1.626,1.626,0,0,0-1.4.85L-3.848,14h-.884l1.3-7.5h.884ZM2.944,14.1A1.9,1.9,0,0,1,1.4,13.37a2.5,2.5,0,0,1-.469-1.812l.024-.21a3.515,3.515,0,0,1,.466-1.436,2.712,2.712,0,0,1,.935-.979A2.182,2.182,0,0,1,3.55,8.619a1.68,1.68,0,0,1,1.279.542,2.229,2.229,0,0,1,.508,1.416,4.138,4.138,0,0,1-.02.635l-.054.405H1.812a1.785,1.785,0,0,0,.237,1.221,1.122,1.122,0,0,0,.969.522,1.88,1.88,0,0,0,1.445-.7l.508.43a2.324,2.324,0,0,1-.857.75A2.429,2.429,0,0,1,2.944,14.1Zm.562-4.741a1.291,1.291,0,0,0-.955.371A2.638,2.638,0,0,0,1.9,10.875l2.568,0,.02-.078a1.445,1.445,0,0,0-.2-1.023A.93.93,0,0,0,3.506,9.356ZM7.6,8.712l-.127.669a2.083,2.083,0,0,1,1.621-.762,1.311,1.311,0,0,1,1.1.518,2.011,2.011,0,0,1,.264,1.4L9.883,14H9l.581-3.473a1.851,1.851,0,0,0,0-.444.73.73,0,0,0-.806-.7,1.663,1.663,0,0,0-1.4.849L6.729,14H5.845l.918-5.283ZM12.661,12a2.678,2.678,0,0,1,.3-.991,3.5,3.5,0,0,1,.762-.9l.4-.347A1.878,1.878,0,0,0,14.8,8.629a1.01,1.01,0,0,0-.151-.747A.8.8,0,0,0,14,7.574a1.17,1.17,0,0,0-.818.266,1.209,1.209,0,0,0-.4.71l-.879,0a1.873,1.873,0,0,1,.691-1.292,2.2,2.2,0,0,1,1.462-.476,1.687,1.687,0,0,1,1.272.518,1.645,1.645,0,0,1,.383,1.3,2.677,2.677,0,0,1-1,1.709l-.6.508A1.914,1.914,0,0,0,13.525,12Zm-.347,1.558a.545.545,0,0,1,.146-.378.527.527,0,0,1,.376-.159.5.5,0,0,1,.374.139.481.481,0,0,1,.144.374.5.5,0,0,1-.146.371.526.526,0,0,1-.376.151.479.479,0,0,1-.374-.132A.491.491,0,0,1,12.314,13.561Z" transform="translate(-10122 -8471.413)" fill="#12263f"/>
    <path id="Trazado_771516" data-name="Trazado 771516" d="M-20.723-4.4a4.242,4.242,0,0,1-.212,1.471,2.858,2.858,0,0,1-.755,1.067,7.967,7.967,0,0,0-.738.753,1.963,1.963,0,0,0-.294.5,1.51,1.51,0,0,0-.1.555.94.94,0,0,0,1.053,1.075A1.137,1.137,0,0,0-20.932.71a1.205,1.205,0,0,0,.325-.863h1.976A2.639,2.639,0,0,1-19.472,1.9a3.284,3.284,0,0,1-2.263.736A3.361,3.361,0,0,1-24,1.937,2.472,2.472,0,0,1-24.8-.044a3.05,3.05,0,0,1,1.046-2.135l.663-.636a1.753,1.753,0,0,0,.475-.643,2.82,2.82,0,0,0,.147-.944Zm.246-2.088a.979.979,0,0,1-.314.749,1.118,1.118,0,0,1-.793.293,1.118,1.118,0,0,1-.793-.293.979.979,0,0,1-.314-.749,1,1,0,0,1,.3-.749,1.109,1.109,0,0,1,.8-.293,1.109,1.109,0,0,1,.8.293A1,1,0,0,1-20.477-6.491Zm11.218,1.74A6,6,0,0,1-9.71-2.328,4.16,4.16,0,0,1-10.961-.677l1.654,1.3-1.306,1.155-2.119-1.7a4.486,4.486,0,0,1-.752.062,4.141,4.141,0,0,1-2.208-.595,3.951,3.951,0,0,1-1.5-1.7,5.837,5.837,0,0,1-.54-2.54v-.492a5.977,5.977,0,0,1,.53-2.587,3.945,3.945,0,0,1,1.5-1.716,4.118,4.118,0,0,1,2.211-.6,4.118,4.118,0,0,1,2.211.6,3.945,3.945,0,0,1,1.5,1.716A5.96,5.96,0,0,1-9.259-5.2ZM-11.337-5.2A4.188,4.188,0,0,0-11.9-7.581a1.827,1.827,0,0,0-1.6-.813,1.827,1.827,0,0,0-1.593.8,4.141,4.141,0,0,0-.567,2.355v.485A4.241,4.241,0,0,0-15.1-2.386a1.822,1.822,0,0,0,1.613.841,1.806,1.806,0,0,0,1.586-.81,4.216,4.216,0,0,0,.561-2.362Zm7.882,4.45A2.477,2.477,0,0,1-5.479.137,2.337,2.337,0,0,1-7.294-.547a2.918,2.918,0,0,1-.639-2V-7.4h1.976v4.784q0,1.157,1.053,1.157a1.426,1.426,0,0,0,1.381-.7V-7.4h1.982V0H-3.4ZM2.034,0H.051V-7.4H2.034Zm-2.1-9.311a.973.973,0,0,1,.3-.731,1.117,1.117,0,0,1,.81-.287,1.12,1.12,0,0,1,.807.287.967.967,0,0,1,.3.731.97.97,0,0,1-.3.738,1.122,1.122,0,0,1-.8.287,1.122,1.122,0,0,1-.8-.287A.97.97,0,0,1-.065-9.311ZM7.065.137a3.631,3.631,0,0,1-2.649-1A3.548,3.548,0,0,1,3.394-3.521v-.191A4.468,4.468,0,0,1,3.825-5.7a3.161,3.161,0,0,1,1.22-1.354,3.425,3.425,0,0,1,1.8-.475,3.07,3.07,0,0,1,2.389.957,3.889,3.889,0,0,1,.872,2.714v.807H5.4a1.835,1.835,0,0,0,.578,1.162,1.746,1.746,0,0,0,1.22.438,2.132,2.132,0,0,0,1.784-.827L9.95-1.2a2.966,2.966,0,0,1-1.2.981A3.947,3.947,0,0,1,7.065.137ZM6.839-5.94a1.234,1.234,0,0,0-.954.4A2.062,2.062,0,0,0,5.417-4.4H8.166V-4.56A1.471,1.471,0,0,0,7.81-5.58,1.274,1.274,0,0,0,6.839-5.94Zm.178-4.56H9.17L7.277-8.381H5.67Zm6.029,3.1.062.854a2.582,2.582,0,0,1,2.126-.991,2.146,2.146,0,0,1,1.75.69,3.221,3.221,0,0,1,.588,2.064V0H15.6V-4.741a1.287,1.287,0,0,0-.273-.915,1.222,1.222,0,0,0-.909-.284,1.359,1.359,0,0,0-1.251.713V0H11.187V-7.4Zm7.636,4.348a4.113,4.113,0,0,1,.232-1.526,3.13,3.13,0,0,1,.851-1.119,4.351,4.351,0,0,0,.824-.9,1.408,1.408,0,0,0,.205-.729q0-1.157-1.066-1.157a1.08,1.08,0,0,0-.81.312,1.225,1.225,0,0,0-.318.86H18.618a2.637,2.637,0,0,1,.844-2.046,3.287,3.287,0,0,1,2.266-.739,3.3,3.3,0,0,1,2.249.7,2.5,2.5,0,0,1,.8,1.981,2.412,2.412,0,0,1-.26,1.1,4.524,4.524,0,0,1-.909,1.146l-.554.527a1.877,1.877,0,0,0-.595,1.17l-.027.417Zm-.2,2.1a1,1,0,0,1,.311-.753,1.107,1.107,0,0,1,.8-.3,1.107,1.107,0,0,1,.8.3,1,1,0,0,1,.311.753.987.987,0,0,1-.3.743,1.109,1.109,0,0,1-.8.293,1.109,1.109,0,0,1-.8-.293A.987.987,0,0,1,20.484-.954ZM-12.82,10.67a2.64,2.64,0,0,1-.261.926,3.54,3.54,0,0,1-.715.882l-.474.445a1.909,1.909,0,0,0-.645,1.124.964.964,0,0,0,.166.763.853.853,0,0,0,.684.293,1.159,1.159,0,0,0,.8-.266,1.235,1.235,0,0,0,.413-.735l.879,0a1.92,1.92,0,0,1-.688,1.311,2.127,2.127,0,0,1-1.46.476,1.768,1.768,0,0,1-1.309-.513,1.6,1.6,0,0,1-.391-1.3,2.736,2.736,0,0,1,1.006-1.75l.566-.5a1.953,1.953,0,0,0,.566-1.144Zm.342-1.555a.527.527,0,0,1-.144.379.526.526,0,0,1-.374.16.47.47,0,0,1-.378-.141.514.514,0,0,1-.144-.369.514.514,0,0,1,.151-.372A.544.544,0,0,1-13,8.619a.51.51,0,0,1,.374.134A.457.457,0,0,1-12.478,9.115Zm3.623,2.693-.02.859.332-.84,2.124-4.937h.776l.562,5,.049.811.308-.981,1.816-4.829h.942L-4.749,14h-.835L-6.2,8.78l-.02-.488-.205.566L-8.689,14h-.835l-.557-7.109h.894ZM-.579,9.361a2.047,2.047,0,0,1,1.6-.737,1.286,1.286,0,0,1,1.1.51,2.011,2.011,0,0,1,.266,1.4L1.809,14H.925l.581-3.477a1.855,1.855,0,0,0,0-.444.73.73,0,0,0-.806-.7,1.626,1.626,0,0,0-1.4.85L-1.345,14h-.884l1.3-7.5h.884ZM6.1,8.619a1.9,1.9,0,0,1,1.138.361,2.053,2.053,0,0,1,.7.969,3,3,0,0,1,.154,1.35l-.01.107A3.553,3.553,0,0,1,7.62,12.8a2.693,2.693,0,0,1-.947.969A2.31,2.31,0,0,1,5.4,14.1a1.908,1.908,0,0,1-1.135-.361,2.006,2.006,0,0,1-.7-.957,3.082,3.082,0,0,1-.156-1.333,3.6,3.6,0,0,1,.444-1.475A2.756,2.756,0,0,1,4.81,8.958,2.283,2.283,0,0,1,6.1,8.619ZM4.3,11.451a3,3,0,0,0,0,.64,1.567,1.567,0,0,0,.344.918,1.033,1.033,0,0,0,.789.356,1.408,1.408,0,0,0,.811-.217,1.824,1.824,0,0,0,.625-.7,2.951,2.951,0,0,0,.327-1.04,4.684,4.684,0,0,0,.015-.757,1.626,1.626,0,0,0-.356-.933,1.056,1.056,0,0,0-.791-.361A1.44,1.44,0,0,0,4.9,9.894a2.653,2.653,0,0,0-.591,1.445ZM10.159,12a2.678,2.678,0,0,1,.3-.991,3.5,3.5,0,0,1,.762-.9l.4-.347A1.878,1.878,0,0,0,12.3,8.629a1.01,1.01,0,0,0-.151-.747.8.8,0,0,0-.654-.308,1.17,1.17,0,0,0-.818.266,1.209,1.209,0,0,0-.4.71l-.879,0a1.873,1.873,0,0,1,.691-1.292,2.2,2.2,0,0,1,1.462-.476,1.687,1.687,0,0,1,1.272.518,1.645,1.645,0,0,1,.383,1.3,2.677,2.677,0,0,1-1,1.709l-.6.508A1.914,1.914,0,0,0,11.023,12Zm-.347,1.558a.545.545,0,0,1,.146-.378.527.527,0,0,1,.376-.159.5.5,0,0,1,.374.139.481.481,0,0,1,.144.374.5.5,0,0,1-.146.371.526.526,0,0,1-.376.151.479.479,0,0,1-.374-.132A.491.491,0,0,1,9.812,13.561Z" transform="translate(-10032.43 -8471.413)" fill="#12263f"/>
    <path id="Trazado_771517" data-name="Trazado 771517" d="M-26.793-4.4a4.242,4.242,0,0,1-.212,1.471,2.858,2.858,0,0,1-.755,1.067,7.967,7.967,0,0,0-.738.753,1.963,1.963,0,0,0-.294.5,1.51,1.51,0,0,0-.1.555.94.94,0,0,0,1.053,1.075A1.137,1.137,0,0,0-27,.71a1.205,1.205,0,0,0,.325-.863H-24.7A2.639,2.639,0,0,1-25.542,1.9a3.284,3.284,0,0,1-2.263.736,3.361,3.361,0,0,1-2.263-.695,2.472,2.472,0,0,1-.807-1.981,3.05,3.05,0,0,1,1.046-2.135l.663-.636a1.753,1.753,0,0,0,.475-.643,2.82,2.82,0,0,0,.147-.944Zm.246-2.088a.979.979,0,0,1-.314.749,1.118,1.118,0,0,1-.793.293,1.118,1.118,0,0,1-.793-.293.979.979,0,0,1-.314-.749,1,1,0,0,1,.3-.749,1.109,1.109,0,0,1,.8-.293,1.109,1.109,0,0,1,.8.293A1,1,0,0,1-26.547-6.491Zm5.106,2.984V0h-2.051V-9.953h3.883a4.492,4.492,0,0,1,1.972.41,3.022,3.022,0,0,1,1.309,1.166,3.25,3.25,0,0,1,.458,1.719,2.858,2.858,0,0,1-1,2.307,4.171,4.171,0,0,1-2.772.844Zm0-1.661h1.832a1.8,1.8,0,0,0,1.241-.383,1.392,1.392,0,0,0,.427-1.094,1.642,1.642,0,0,0-.431-1.183,1.609,1.609,0,0,0-1.189-.465h-1.88Zm6.453,1.4a4.387,4.387,0,0,1,.424-1.962,3.1,3.1,0,0,1,1.22-1.333,3.56,3.56,0,0,1,1.849-.472,3.368,3.368,0,0,1,2.444.916A3.676,3.676,0,0,1-7.995-4.129l.014.506a3.866,3.866,0,0,1-.95,2.731A3.3,3.3,0,0,1-11.481.137,3.319,3.319,0,0,1-14.034-.889a3.934,3.934,0,0,1-.954-2.789Zm1.976.14a2.765,2.765,0,0,0,.4,1.612,1.308,1.308,0,0,0,1.135.558,1.311,1.311,0,0,0,1.121-.551,3.025,3.025,0,0,0,.4-1.763,2.737,2.737,0,0,0-.4-1.6,1.311,1.311,0,0,0-1.135-.568,1.29,1.29,0,0,0-1.121.565A3.076,3.076,0,0,0-13.012-3.626Zm10.4-1.918A5.367,5.367,0,0,0-3.319-5.6a1.447,1.447,0,0,0-1.47.759V0H-6.764V-7.4H-4.9l.055.882A1.831,1.831,0,0,1-3.2-7.533a2.07,2.07,0,0,1,.615.089ZM1.521-3.767A4.421,4.421,0,0,1,2.3-6.521,2.537,2.537,0,0,1,4.426-7.533a2.271,2.271,0,0,1,1.894.909L6.45-7.4H8.186V2.844H6.2V-.636A2.277,2.277,0,0,1,4.413.137,2.518,2.518,0,0,1,2.307-.889,4.638,4.638,0,0,1,1.521-3.767Zm1.976.14a2.9,2.9,0,0,0,.373,1.616,1.193,1.193,0,0,0,1.049.555A1.329,1.329,0,0,0,6.2-2.182v-3.06a1.318,1.318,0,0,0-1.271-.7,1.207,1.207,0,0,0-1.06.555A3.2,3.2,0,0,0,3.5-3.626ZM14.167-.752a2.477,2.477,0,0,1-2.023.889,2.337,2.337,0,0,1-1.815-.684,2.918,2.918,0,0,1-.639-2V-7.4h1.976v4.784q0,1.157,1.053,1.157a1.426,1.426,0,0,0,1.381-.7V-7.4h1.982V0H14.222Zm6.809.889a3.631,3.631,0,0,1-2.649-1,3.548,3.548,0,0,1-1.022-2.659v-.191A4.468,4.468,0,0,1,17.736-5.7a3.161,3.161,0,0,1,1.22-1.354,3.425,3.425,0,0,1,1.8-.475,3.07,3.07,0,0,1,2.389.957,3.889,3.889,0,0,1,.872,2.714v.807h-4.71a1.835,1.835,0,0,0,.578,1.162,1.746,1.746,0,0,0,1.22.438,2.132,2.132,0,0,0,1.784-.827L23.861-1.2a2.966,2.966,0,0,1-1.2.981A3.947,3.947,0,0,1,20.976.137ZM20.75-5.94a1.234,1.234,0,0,0-.954.4,2.062,2.062,0,0,0-.468,1.14h2.748V-4.56a1.471,1.471,0,0,0-.355-1.02A1.274,1.274,0,0,0,20.75-5.94Zm.178-4.56h2.153L21.188-8.381H19.582Zm5.824,7.451a4.113,4.113,0,0,1,.232-1.526,3.13,3.13,0,0,1,.851-1.119,4.351,4.351,0,0,0,.824-.9,1.408,1.408,0,0,0,.205-.729q0-1.157-1.066-1.157a1.08,1.08,0,0,0-.81.312,1.225,1.225,0,0,0-.318.86H24.688a2.637,2.637,0,0,1,.844-2.046A3.287,3.287,0,0,1,27.8-10.09a3.3,3.3,0,0,1,2.249.7,2.5,2.5,0,0,1,.8,1.981,2.412,2.412,0,0,1-.26,1.1,4.524,4.524,0,0,1-.909,1.146l-.554.527a1.877,1.877,0,0,0-.595,1.17l-.027.417Zm-.2,2.1a1,1,0,0,1,.311-.753,1.107,1.107,0,0,1,.8-.3,1.107,1.107,0,0,1,.8.3,1,1,0,0,1,.311.753.987.987,0,0,1-.3.743,1.109,1.109,0,0,1-.8.293,1.109,1.109,0,0,1-.8-.293A.987.987,0,0,1,26.554-.954ZM-13.583,12.337a2.9,2.9,0,0,1-.287,1.019,3.894,3.894,0,0,1-.787.97l-.521.489a2.1,2.1,0,0,0-.709,1.237,1.061,1.061,0,0,0,.183.839.938.938,0,0,0,.752.323,1.275,1.275,0,0,0,.884-.293,1.359,1.359,0,0,0,.454-.808l.967-.005a2.112,2.112,0,0,1-.757,1.442,2.34,2.34,0,0,1-1.606.524,1.945,1.945,0,0,1-1.439-.564,1.764,1.764,0,0,1-.43-1.435,3.009,3.009,0,0,1,1.106-1.925l.623-.548a2.148,2.148,0,0,0,.623-1.258Zm.376-1.711a.579.579,0,0,1-.158.417.579.579,0,0,1-.411.176.518.518,0,0,1-.416-.155.566.566,0,0,1-.158-.406.565.565,0,0,1,.167-.409.6.6,0,0,1,.408-.168.561.561,0,0,1,.411.147A.5.5,0,0,1-13.208,10.626Zm3.985,2.962-.021.945.365-.924,2.336-5.43h.854l.618,5.5.054.892.338-1.08,2-5.312h1.037L-4.705,16h-.918L-6.3,10.258l-.021-.537-.226.623L-9.04,16h-.918l-.612-7.82h.983Zm9.1-2.691a2.252,2.252,0,0,1,1.756-.811,1.415,1.415,0,0,1,1.211.561,2.212,2.212,0,0,1,.293,1.544L2.508,16H1.536l.639-3.824a2.041,2.041,0,0,0,.005-.489.8.8,0,0,0-.886-.768,1.788,1.788,0,0,0-1.536.935L-.961,16h-.972L-.5,7.75H.473Zm6.2,3.636,2.068-4.345H9.222L5.774,16.967a2.087,2.087,0,0,1-1.848,1.4,3.166,3.166,0,0,1-.585-.1l.086-.806.252.027a1.274,1.274,0,0,0,.8-.207,1.906,1.906,0,0,0,.594-.739l.349-.666-1-5.688H5.43Zm4.576-.73a2.946,2.946,0,0,1,.328-1.09,3.844,3.844,0,0,1,.838-.988l.435-.381a2.065,2.065,0,0,0,.757-1.251,1.111,1.111,0,0,0-.167-.822.883.883,0,0,0-.72-.338,1.287,1.287,0,0,0-.9.293,1.329,1.329,0,0,0-.443.781l-.967.005a2.06,2.06,0,0,1,.76-1.421,2.424,2.424,0,0,1,1.609-.524,1.856,1.856,0,0,1,1.4.569,1.81,1.81,0,0,1,.422,1.434,2.945,2.945,0,0,1-1.1,1.88l-.655.559a2.105,2.105,0,0,0-.65,1.289Zm-.381,1.713a.6.6,0,0,1,.161-.416.579.579,0,0,1,.414-.175.549.549,0,0,1,.411.153.529.529,0,0,1,.158.411.553.553,0,0,1-.161.408.578.578,0,0,1-.414.167.527.527,0,0,1-.411-.145A.54.54,0,0,1,10.275,15.517Z" transform="translate(-9942.859 -8472.413)" fill="#12263f"/>
    <path id="Trazado_771518" data-name="Trazado 771518" d="M-20.969-4.4a4.242,4.242,0,0,1-.212,1.471,2.858,2.858,0,0,1-.755,1.067,7.967,7.967,0,0,0-.738.753,1.963,1.963,0,0,0-.294.5,1.51,1.51,0,0,0-.1.555.94.94,0,0,0,1.053,1.075A1.137,1.137,0,0,0-21.178.71a1.205,1.205,0,0,0,.325-.863h1.976A2.639,2.639,0,0,1-19.718,1.9a3.284,3.284,0,0,1-2.263.736,3.361,3.361,0,0,1-2.263-.695A2.472,2.472,0,0,1-25.05-.044,3.05,3.05,0,0,1-24-2.179l.663-.636a1.753,1.753,0,0,0,.475-.643,2.82,2.82,0,0,0,.147-.944Zm.246-2.088a.979.979,0,0,1-.314.749,1.118,1.118,0,0,1-.793.293,1.118,1.118,0,0,1-.793-.293.979.979,0,0,1-.314-.749,1,1,0,0,1,.3-.749,1.109,1.109,0,0,1,.8-.293,1.109,1.109,0,0,1,.8.293A1,1,0,0,1-20.723-6.491ZM-9.854-3.315A3.522,3.522,0,0,1-11.04-.786a4.165,4.165,0,0,1-2.82.923,3.745,3.745,0,0,1-3.011-1.289,5.284,5.284,0,0,1-1.1-3.538V-5.3a5.966,5.966,0,0,1,.506-2.529,3.791,3.791,0,0,1,1.446-1.678,4.05,4.05,0,0,1,2.184-.584,4.058,4.058,0,0,1,2.775.923A3.785,3.785,0,0,1-9.84-6.576h-2.051a2.079,2.079,0,0,0-.537-1.4,1.987,1.987,0,0,0-1.4-.434,1.742,1.742,0,0,0-1.535.735,4.118,4.118,0,0,0-.523,2.28v.752A4.408,4.408,0,0,0-15.4-2.283a1.71,1.71,0,0,0,1.542.745,2.025,2.025,0,0,0,1.418-.434A1.961,1.961,0,0,0-11.9-3.315Zm.909-.451a4.387,4.387,0,0,1,.424-1.962A3.1,3.1,0,0,1-7.3-7.062a3.56,3.56,0,0,1,1.849-.472,3.368,3.368,0,0,1,2.444.916A3.676,3.676,0,0,1-1.952-4.129l.014.506a3.866,3.866,0,0,1-.95,2.731A3.3,3.3,0,0,1-5.438.137,3.319,3.319,0,0,1-7.991-.889a3.934,3.934,0,0,1-.954-2.789Zm1.976.14a2.765,2.765,0,0,0,.4,1.612,1.308,1.308,0,0,0,1.135.558,1.311,1.311,0,0,0,1.121-.551,3.025,3.025,0,0,0,.4-1.763,2.737,2.737,0,0,0-.4-1.6A1.311,1.311,0,0,0-5.452-5.94a1.29,1.29,0,0,0-1.121.565A3.076,3.076,0,0,0-6.969-3.626ZM-5.062-10.5h2.153L-4.8-8.381H-6.409ZM1.131-7.4l.062.827a2.6,2.6,0,0,1,2.126-.964A1.973,1.973,0,0,1,5.281-6.405,2.54,2.54,0,0,1,7.5-7.533a2.206,2.206,0,0,1,1.791.7,3.221,3.221,0,0,1,.588,2.109V0H7.9V-4.728a1.414,1.414,0,0,0-.246-.922,1.089,1.089,0,0,0-.868-.291,1.233,1.233,0,0,0-1.23.85L5.561,0H3.585V-4.721a1.4,1.4,0,0,0-.253-.932,1.1,1.1,0,0,0-.861-.288,1.28,1.28,0,0,0-1.217.7V0H-.721V-7.4Zm9.96,3.63a4.387,4.387,0,0,1,.424-1.962,3.1,3.1,0,0,1,1.22-1.333,3.56,3.56,0,0,1,1.849-.472,3.368,3.368,0,0,1,2.444.916,3.676,3.676,0,0,1,1.056,2.488l.014.506a3.866,3.866,0,0,1-.95,2.731A3.3,3.3,0,0,1,14.6.137,3.319,3.319,0,0,1,12.045-.889a3.934,3.934,0,0,1-.954-2.789Zm1.976.14a2.765,2.765,0,0,0,.4,1.612,1.308,1.308,0,0,0,1.135.558,1.311,1.311,0,0,0,1.121-.551,3.025,3.025,0,0,0,.4-1.763,2.737,2.737,0,0,0-.4-1.6,1.311,1.311,0,0,0-1.135-.568,1.29,1.29,0,0,0-1.121.565A3.076,3.076,0,0,0,13.067-3.626Zm7.861.578a4.113,4.113,0,0,1,.232-1.526,3.13,3.13,0,0,1,.851-1.119,4.351,4.351,0,0,0,.824-.9,1.408,1.408,0,0,0,.205-.729q0-1.157-1.066-1.157a1.08,1.08,0,0,0-.81.312,1.225,1.225,0,0,0-.318.86H18.864a2.637,2.637,0,0,1,.844-2.046,3.287,3.287,0,0,1,2.266-.739,3.3,3.3,0,0,1,2.249.7,2.5,2.5,0,0,1,.8,1.981,2.412,2.412,0,0,1-.26,1.1,4.524,4.524,0,0,1-.909,1.146l-.554.527a1.877,1.877,0,0,0-.595,1.17l-.027.417Zm-.2,2.1a1,1,0,0,1,.311-.753,1.107,1.107,0,0,1,.8-.3,1.107,1.107,0,0,1,.8.3,1,1,0,0,1,.311.753.987.987,0,0,1-.3.743,1.109,1.109,0,0,1-.8.293,1.109,1.109,0,0,1-.8-.293A.987.987,0,0,1,20.73-.954ZM-11.724,10.67a2.64,2.64,0,0,1-.261.926,3.54,3.54,0,0,1-.715.882l-.474.445a1.909,1.909,0,0,0-.645,1.124.964.964,0,0,0,.166.763.853.853,0,0,0,.684.293,1.159,1.159,0,0,0,.8-.266,1.235,1.235,0,0,0,.413-.735l.879,0a1.92,1.92,0,0,1-.688,1.311,2.127,2.127,0,0,1-1.46.476,1.768,1.768,0,0,1-1.309-.513,1.6,1.6,0,0,1-.391-1.3,2.736,2.736,0,0,1,1.006-1.75l.566-.5a1.953,1.953,0,0,0,.566-1.144Zm.342-1.555a.527.527,0,0,1-.144.379.526.526,0,0,1-.374.16.47.47,0,0,1-.378-.141.514.514,0,0,1-.144-.369.514.514,0,0,1,.151-.372.544.544,0,0,1,.371-.153.51.51,0,0,1,.374.134A.457.457,0,0,1-11.382,9.115ZM-4.341,14h-.918l.571-3.286H-8.159L-8.73,14h-.918l1.235-7.109H-7.5l-.532,3.057h3.467l.532-3.057h.923ZM.112,8.619A1.9,1.9,0,0,1,1.25,8.98a2.053,2.053,0,0,1,.7.969A3,3,0,0,1,2.1,11.3l-.01.107A3.553,3.553,0,0,1,1.636,12.8a2.693,2.693,0,0,1-.947.969A2.31,2.31,0,0,1-.586,14.1a1.908,1.908,0,0,1-1.135-.361,2.006,2.006,0,0,1-.7-.957,3.082,3.082,0,0,1-.156-1.333,3.6,3.6,0,0,1,.444-1.475,2.756,2.756,0,0,1,.955-1.013A2.283,2.283,0,0,1,.112,8.619Zm-1.8,2.832a3,3,0,0,0,0,.64,1.567,1.567,0,0,0,.344.918,1.033,1.033,0,0,0,.789.356,1.408,1.408,0,0,0,.811-.217,1.824,1.824,0,0,0,.625-.7,2.951,2.951,0,0,0,.327-1.04,4.684,4.684,0,0,0,.015-.757,1.626,1.626,0,0,0-.356-.933,1.056,1.056,0,0,0-.791-.361,1.44,1.44,0,0,0-1.162.537,2.653,2.653,0,0,0-.591,1.445ZM7.5,12.75,9.185,8.717H10.1L7.69,14H6.973l-.547-3.994L4.521,14H3.8L3.232,8.717h.845L4.4,12.652,6.274,8.717h.713ZM11.514,12a2.678,2.678,0,0,1,.3-.991,3.5,3.5,0,0,1,.762-.9l.4-.347a1.878,1.878,0,0,0,.688-1.138,1.01,1.01,0,0,0-.151-.747.8.8,0,0,0-.654-.308,1.17,1.17,0,0,0-.818.266,1.209,1.209,0,0,0-.4.71l-.879,0a1.873,1.873,0,0,1,.691-1.292,2.2,2.2,0,0,1,1.462-.476,1.687,1.687,0,0,1,1.272.518,1.645,1.645,0,0,1,.383,1.3,2.677,2.677,0,0,1-1,1.709l-.6.508A1.914,1.914,0,0,0,12.378,12Zm-.347,1.558a.545.545,0,0,1,.146-.378.527.527,0,0,1,.376-.159.5.5,0,0,1,.374.139.481.481,0,0,1,.144.374.5.5,0,0,1-.146.371.526.526,0,0,1-.376.151.479.479,0,0,1-.374-.132A.491.491,0,0,1,11.167,13.561Z" transform="translate(-9853.289 -8471.413)" fill="#12263f"/>
    <path id="Trazado_771519" data-name="Trazado 771519" d="M-24.8-4.4a4.242,4.242,0,0,1-.212,1.471,2.858,2.858,0,0,1-.755,1.067,7.967,7.967,0,0,0-.738.753,1.963,1.963,0,0,0-.294.5,1.51,1.51,0,0,0-.1.555A.94.94,0,0,0-25.85,1.019,1.137,1.137,0,0,0-25.013.71a1.205,1.205,0,0,0,.325-.863h1.976A2.639,2.639,0,0,1-23.553,1.9a3.284,3.284,0,0,1-2.263.736,3.361,3.361,0,0,1-2.263-.695,2.472,2.472,0,0,1-.807-1.981,3.05,3.05,0,0,1,1.046-2.135l.663-.636a1.753,1.753,0,0,0,.475-.643,2.82,2.82,0,0,0,.147-.944Zm.246-2.088a.979.979,0,0,1-.314.749,1.118,1.118,0,0,1-.793.293,1.118,1.118,0,0,1-.793-.293.979.979,0,0,1-.314-.749,1,1,0,0,1,.3-.749,1.109,1.109,0,0,1,.8-.293,1.109,1.109,0,0,1,.8.293A1,1,0,0,1-24.558-6.491Zm10.869,3.175A3.522,3.522,0,0,1-14.875-.786a4.165,4.165,0,0,1-2.82.923,3.745,3.745,0,0,1-3.011-1.289,5.284,5.284,0,0,1-1.1-3.538V-5.3A5.966,5.966,0,0,1-21.3-7.827a3.791,3.791,0,0,1,1.446-1.678,4.05,4.05,0,0,1,2.184-.584,4.058,4.058,0,0,1,2.775.923,3.785,3.785,0,0,1,1.217,2.591h-2.051a2.079,2.079,0,0,0-.537-1.4,1.987,1.987,0,0,0-1.4-.434,1.742,1.742,0,0,0-1.535.735,4.118,4.118,0,0,0-.523,2.28v.752a4.408,4.408,0,0,0,.489,2.358,1.71,1.71,0,0,0,1.542.745,2.025,2.025,0,0,0,1.418-.434,1.961,1.961,0,0,0,.537-1.343ZM-8.042-.752a2.477,2.477,0,0,1-2.023.889,2.337,2.337,0,0,1-1.815-.684,2.918,2.918,0,0,1-.639-2V-7.4h1.976v4.784q0,1.157,1.053,1.157a1.426,1.426,0,0,0,1.381-.7V-7.4h1.982V0H-7.988ZM-.352,0a2.194,2.194,0,0,1-.2-.663,2.39,2.39,0,0,1-1.866.8,2.626,2.626,0,0,1-1.8-.629,2.023,2.023,0,0,1-.714-1.586,2.09,2.09,0,0,1,.872-1.8,4.3,4.3,0,0,1,2.519-.636h.909v-.424A1.219,1.219,0,0,0-.9-5.763a1.035,1.035,0,0,0-.831-.308,1.177,1.177,0,0,0-.783.239.813.813,0,0,0-.284.656H-4.768a1.984,1.984,0,0,1,.4-1.189A2.621,2.621,0,0,1-3.25-7.222a4.086,4.086,0,0,1,1.627-.311,3.228,3.228,0,0,1,2.17.687,2.4,2.4,0,0,1,.8,1.931v3.206A3.536,3.536,0,0,0,1.644-.116V0ZM-1.986-1.374a1.7,1.7,0,0,0,.807-.195,1.28,1.28,0,0,0,.547-.523V-3.363h-.738q-1.483,0-1.579,1.025l-.007.116a.791.791,0,0,0,.26.608A1.009,1.009,0,0,0-1.986-1.374Zm.752-9.126H.919L-.974-8.381H-2.581Zm5.92,3.1.062.854a2.582,2.582,0,0,1,2.126-.991,2.146,2.146,0,0,1,1.75.69,3.221,3.221,0,0,1,.588,2.064V0H7.236V-4.741a1.287,1.287,0,0,0-.273-.915,1.222,1.222,0,0,0-.909-.284A1.359,1.359,0,0,0,4.8-5.228V0H2.827V-7.4Zm8.388-1.818V-7.4h1.265v1.449H13.074v3.691a.881.881,0,0,0,.157.588.79.79,0,0,0,.6.178,3.151,3.151,0,0,0,.581-.048v1.5a4.067,4.067,0,0,1-1.2.178,1.886,1.886,0,0,1-2.119-2.1V-5.947h-1.08V-7.4H11.1V-9.215Zm1.853,5.448a4.387,4.387,0,0,1,.424-1.962,3.1,3.1,0,0,1,1.22-1.333,3.56,3.56,0,0,1,1.849-.472,3.368,3.368,0,0,1,2.444.916,3.676,3.676,0,0,1,1.056,2.488l.014.506a3.866,3.866,0,0,1-.95,2.731A3.3,3.3,0,0,1,18.433.137,3.319,3.319,0,0,1,15.88-.889a3.934,3.934,0,0,1-.954-2.789Zm1.976.14a2.765,2.765,0,0,0,.4,1.612,1.308,1.308,0,0,0,1.135.558,1.311,1.311,0,0,0,1.121-.551,3.025,3.025,0,0,0,.4-1.763,2.737,2.737,0,0,0-.4-1.6,1.311,1.311,0,0,0-1.135-.568,1.29,1.29,0,0,0-1.121.565A3.076,3.076,0,0,0,16.9-3.626Zm7.861.578A4.113,4.113,0,0,1,25-4.575a3.13,3.13,0,0,1,.851-1.119,4.351,4.351,0,0,0,.824-.9,1.408,1.408,0,0,0,.205-.729q0-1.157-1.066-1.157a1.08,1.08,0,0,0-.81.312,1.225,1.225,0,0,0-.318.86H22.7a2.637,2.637,0,0,1,.844-2.046,3.287,3.287,0,0,1,2.266-.739,3.3,3.3,0,0,1,2.249.7,2.5,2.5,0,0,1,.8,1.981,2.412,2.412,0,0,1-.26,1.1,4.524,4.524,0,0,1-.909,1.146l-.554.527a1.877,1.877,0,0,0-.595,1.17l-.027.417Zm-.2,2.1a1,1,0,0,1,.311-.753,1.107,1.107,0,0,1,.8-.3,1.107,1.107,0,0,1,.8.3,1,1,0,0,1,.311.753.987.987,0,0,1-.3.743,1.109,1.109,0,0,1-.8.293,1.109,1.109,0,0,1-.8-.293A.987.987,0,0,1,24.565-.954ZM-24.907,10.67a2.64,2.64,0,0,1-.261.926,3.54,3.54,0,0,1-.715.882l-.474.445A1.909,1.909,0,0,0-27,14.048a.964.964,0,0,0,.166.763.853.853,0,0,0,.684.293,1.159,1.159,0,0,0,.8-.266,1.235,1.235,0,0,0,.413-.735l.879,0a1.92,1.92,0,0,1-.688,1.311,2.127,2.127,0,0,1-1.46.476,1.768,1.768,0,0,1-1.309-.513,1.6,1.6,0,0,1-.391-1.3,2.736,2.736,0,0,1,1.006-1.75l.566-.5a1.953,1.953,0,0,0,.566-1.144Zm.342-1.555a.527.527,0,0,1-.144.379.526.526,0,0,1-.374.16.47.47,0,0,1-.378-.141.514.514,0,0,1-.144-.369.514.514,0,0,1,.151-.372.544.544,0,0,1,.371-.153.51.51,0,0,1,.374.134A.457.457,0,0,1-24.565,9.115ZM-17.524,14h-.918l.571-3.286h-3.472L-21.914,14h-.918L-21.6,6.891h.918l-.532,3.057h3.467l.532-3.057h.923Zm4.453-5.381a1.9,1.9,0,0,1,1.138.361,2.053,2.053,0,0,1,.7.969,3,3,0,0,1,.154,1.35l-.01.107a3.553,3.553,0,0,1-.459,1.394,2.693,2.693,0,0,1-.947.969,2.31,2.31,0,0,1-1.274.327,1.908,1.908,0,0,1-1.135-.361,2.006,2.006,0,0,1-.7-.957,3.082,3.082,0,0,1-.156-1.333,3.6,3.6,0,0,1,.444-1.475,2.756,2.756,0,0,1,.955-1.013A2.283,2.283,0,0,1-13.071,8.619Zm-1.8,2.832a3,3,0,0,0,0,.64,1.567,1.567,0,0,0,.344.918,1.033,1.033,0,0,0,.789.356,1.408,1.408,0,0,0,.811-.217,1.824,1.824,0,0,0,.625-.7,2.951,2.951,0,0,0,.327-1.04,4.684,4.684,0,0,0,.015-.757,1.626,1.626,0,0,0-.356-.933,1.056,1.056,0,0,0-.791-.361,1.44,1.44,0,0,0-1.162.537,2.653,2.653,0,0,0-.591,1.445Zm9.185,1.3L-4,8.717h.913L-5.493,14h-.718l-.547-3.994L-8.662,14H-9.38l-.571-5.283h.845l.322,3.936,1.875-3.936H-6.2ZM1.108,8.712,1,9.3A2.066,2.066,0,0,1,2.6,8.619a1.63,1.63,0,0,1,.852.229,1.126,1.126,0,0,1,.481.62,2.181,2.181,0,0,1,1.753-.85,1.4,1.4,0,0,1,1.167.532,1.9,1.9,0,0,1,.278,1.377L6.553,14H5.674l.576-3.481a1.839,1.839,0,0,0,0-.464q-.093-.664-.869-.679a1.335,1.335,0,0,0-.876.3A1.389,1.389,0,0,0,4,10.489L3.4,14H2.51L3.1,10.523a1.116,1.116,0,0,0-.164-.835.861.861,0,0,0-.706-.3,1.447,1.447,0,0,0-1.313.752L.244,14H-.64L.278,8.717ZM11.147,14a1.183,1.183,0,0,1-.034-.278l.015-.278a2.166,2.166,0,0,1-1.543.654,1.579,1.579,0,0,1-1.135-.442,1.337,1.337,0,0,1-.4-1.082,1.626,1.626,0,0,1,.735-1.311,3.128,3.128,0,0,1,1.8-.471l.923,0,.059-.42a.965.965,0,0,0-.183-.75.884.884,0,0,0-.7-.286,1.363,1.363,0,0,0-.8.222.946.946,0,0,0-.427.613l-.889,0a1.416,1.416,0,0,1,.361-.823A2.1,2.1,0,0,1,9.751,8.8a2.634,2.634,0,0,1,1.03-.188,1.752,1.752,0,0,1,1.284.5,1.552,1.552,0,0,1,.386,1.277l-.43,2.617L12,13.385a1.843,1.843,0,0,0,.059.532l-.01.083Zm-1.387-.684a1.541,1.541,0,0,0,.8-.2,2.034,2.034,0,0,0,.652-.588l.19-1.089-.669,0a2.534,2.534,0,0,0-1.279.264.971.971,0,0,0-.5.747.756.756,0,0,0,.173.618A.826.826,0,0,0,9.761,13.316ZM15,8.712l-.127.669a2.083,2.083,0,0,1,1.621-.762,1.311,1.311,0,0,1,1.1.518,2.011,2.011,0,0,1,.264,1.4L17.28,14H16.4l.581-3.473a1.851,1.851,0,0,0,0-.444.73.73,0,0,0-.806-.7,1.663,1.663,0,0,0-1.4.849L14.126,14h-.884l.918-5.283Zm5.542,3.955,1.88-3.95h.977l-3.135,6.162a1.9,1.9,0,0,1-1.68,1.27,2.878,2.878,0,0,1-.532-.088l.078-.732.229.024a1.158,1.158,0,0,0,.725-.188,1.733,1.733,0,0,0,.54-.671l.317-.605-.913-5.171h.923ZM24.7,12a2.678,2.678,0,0,1,.3-.991,3.5,3.5,0,0,1,.762-.9l.4-.347a1.878,1.878,0,0,0,.688-1.138,1.01,1.01,0,0,0-.151-.747.8.8,0,0,0-.654-.308,1.17,1.17,0,0,0-.818.266,1.209,1.209,0,0,0-.4.71l-.879,0a1.873,1.873,0,0,1,.691-1.292,2.2,2.2,0,0,1,1.462-.476,1.687,1.687,0,0,1,1.272.518,1.645,1.645,0,0,1,.383,1.3,2.677,2.677,0,0,1-1,1.709l-.6.508A1.914,1.914,0,0,0,25.562,12Zm-.347,1.558a.545.545,0,0,1,.146-.378.527.527,0,0,1,.376-.159.5.5,0,0,1,.374.139.481.481,0,0,1,.144.374.5.5,0,0,1-.146.371.526.526,0,0,1-.376.151.479.479,0,0,1-.374-.132A.491.491,0,0,1,24.351,13.561Z" transform="translate(-9764.719 -8471.413)" fill="#12263f"/>
  </g>
</svg>
