<svg xmlns="http://www.w3.org/2000/svg" width="109.676" height="109.676" viewBox="0 0 109.676 109.676">
  <g id="Grupo_968840" data-name="Grupo 968840" transform="translate(0)">
    <circle id="Elipse_7762" data-name="Elipse 7762" cx="54.838" cy="54.838" r="54.838" transform="translate(0)" fill="#f0bd51"/>
    <g id="Grupo_962291" data-name="Grupo 962291" transform="translate(24.25 22.198)">
      <path id="Trazado_634031" data-name="Trazado 634031" d="M628.95,526.157c-.188.693-.556,1.013-1.089.946s-.84-.474-.841-1.177c0-1.852-.011-3.7,0-5.555a4.783,4.783,0,0,1,4.717-4.728c.737-.008,1.474.017,2.21-.012.237-.009.636.194.691-.173s.188-.786-.321-1.086a6.823,6.823,0,0,1-2.228-2.209,7.54,7.54,0,0,1-1.249-4.225c0-.438-.01-.876,0-1.314.009-.307.019-.544-.391-.637a.794.794,0,0,1-.57-.816,8.2,8.2,0,0,1,4.52-7.8,8.087,8.087,0,0,1,8.876,1.108,7.888,7.888,0,0,1,2.846,6.187,30.4,30.4,0,0,1-.084,4.413,7.321,7.321,0,0,1-3.349,5.265c-.5.331-.349.727-.374,1.131-.011.174.137.161.253.161,1.732,0,3.465,0,5.2.01.33,0,.277-.194.277-.388v-2.449q0-7.467,0-14.933c0-1.066.279-1.35,1.332-1.35h37.453c1.068,0,1.356.282,1.356,1.327q0,13.977,0,27.954c0,1.008-.3,1.3-1.324,1.3H649.351c-1.012,0-1.3-.3-1.3-1.318,0-1.314-.009-2.628.006-3.942,0-.325-.021-.485-.431-.486-1.486,0-1.486-.022-1.486,1.456,0,1.035,0,2.071,0,3.106,0,.7-.3,1.109-.842,1.177s-.9-.254-1.087-.946q.009-2.805.02-5.61c0-.754.33-1.078,1.09-1.081,1.632-.005,3.265.031,4.9-.016a5.727,5.727,0,0,0,5.478-5.551.981.981,0,0,0-.9-1.12.968.968,0,0,0-1.007,1.015,3.828,3.828,0,0,1-4.026,3.759c-2.488,0-4.975.006-7.462-.012a1.131,1.131,0,0,0-.93.393c-.657.717-.931.8-1.738.278a1.76,1.76,0,0,0-2.26.013.347.347,0,0,1-.051.03c-.776.412-1.048.366-1.662-.269-.216-.223-.4-.456-.786-.443-1.054.035-2.109-.008-3.164.019a2.827,2.827,0,0,0-2.761,2.747C628.914,522.258,628.944,524.208,628.95,526.157ZM641.358,512.9a2.243,2.243,0,0,0,.835-.546,6.066,6.066,0,0,0,2.055-4.861,2.414,2.414,0,0,0-.981-2.243,1.768,1.768,0,0,0-2.039-.551c-.378.121-.748.265-1.116.413a15.973,15.973,0,0,1-5.557,1.227c-.6.016-1.42-.305-1.73.137-.29.414-.084,1.191-.059,1.807A5.7,5.7,0,0,0,641.358,512.9Zm26.788-14.46q-8.81,0-17.62,0c-.268,0-.581-.133-.579.392q.027,8.213,0,16.425c0,.4.144.414.457.331a1.962,1.962,0,0,0,1.462-1.942,2.868,2.868,0,0,1,5.735.109,7.655,7.655,0,0,1-7.178,7.6c-.4.027-.486.142-.476.513.025.915.031,1.832,0,2.747-.016.443.076.6.568.6q17.59-.024,35.181,0c.451,0,.591-.091.59-.573q-.025-12.812,0-25.623c0-.463-.109-.586-.58-.584C679.854,498.446,674,498.44,668.146,498.44Zm-34.2,5.983a12.275,12.275,0,0,0,3.311-.371,10.433,10.433,0,0,0,3.33-1.24c.721-.486.858-1.614,1.328-2.416.2-.342.1-.513-.187-.718a6.011,6.011,0,0,0-6.157-.72,6.08,6.08,0,0,0-3.735,4.958c-.046.294.048.362.324.406A13.778,13.778,0,0,0,633.945,504.423Zm10.151-1.008a5.6,5.6,0,0,0-.651-1.729c-.614.98-.614.98.318,1.533Zm-7.522,11.993c0,.174,0,.29,0,.407.008.607.058.643.6.369a3.035,3.035,0,0,0,.9-.53Zm2.236.255c.38.2.669.358.963.507.57.288.631.241.637-.383,0-.307-.036-.426-.39-.318A9.038,9.038,0,0,1,638.81,515.663Z" transform="translate(-627.015 -496.525)" fill="#010101"/>
      <path id="Trazado_634032" data-name="Trazado 634032" d="M812.487,664.2h-8.3c-1.026,0-1.3-.261-1.277-1.309a17.93,17.93,0,0,1,.1-3.333,3.773,3.773,0,0,1,3.727-3c.517,0,1.036-.018,1.552.006.3.014.395-.1.353-.373a.459.459,0,0,1,0-.119,2.185,2.185,0,0,0-1-2.265,7.054,7.054,0,0,1-2.819-5.852c-.016-1.572-.007-3.144,0-4.717a6.7,6.7,0,0,1,6.734-6.75c1.532-.006,3.065,0,4.6,0,.759,0,1.084.328,1.093,1.079a1.684,1.684,0,0,1,0,.179c-.1,1.007-.055,1.788,1.149,2.314a3.212,3.212,0,0,1,1.716,3.129c.013,1.552.01,3.1,0,4.657a7.491,7.491,0,0,1-3.331,6.39,1.037,1.037,0,0,0-.5,1.011c.027,1.31.011,1.347,1.328,1.3a4.037,4.037,0,0,1,3.7,1.62,3.67,3.67,0,0,1,.713,2.172q.01,1.4,0,2.806a.925.925,0,0,1-1.055,1.057Q816.726,664.206,812.487,664.2Zm3.979-12.384-.889.4a9.341,9.341,0,0,1-7.115-.405c-.051-.006-.132-.034-.146-.014-.044.062.013.093.07.11a1.848,1.848,0,0,0,.589.57,5.514,5.514,0,0,0,6.359.375,2.994,2.994,0,0,0,1.211-.943c.056-.018.111-.051.066-.112C816.6,651.783,816.515,651.812,816.465,651.818Zm.79-3a2.249,2.249,0,0,0,.959-2.037c-.073-1.107-.016-2.222-.018-3.334a1.937,1.937,0,0,0-1.977-2.182.907.907,0,0,1-.886-.931c-.016-.4,0-.794,0-1.191,0-.759,0-.759-.781-.741-.059,0-.118.011-.178.016-.934-.006-1.868-.023-2.8-.017a4.784,4.784,0,0,0-4.839,4.843c-.008,1.352.005,2.7-.007,4.055a1.193,1.193,0,0,0,.252.767,6.494,6.494,0,0,0,5.183,2.743A6.262,6.262,0,0,0,817.255,648.816Zm-4.8,13.474c1.93,0,3.861.009,5.791-.005.609,0,1.488.264,1.756-.123.309-.446.125-1.261.092-1.912a1.863,1.863,0,0,0-1.836-1.774q-5.791-.026-11.583,0a1.868,1.868,0,0,0-1.848,1.822c-.021.477.033.959-.016,1.431-.052.5.159.574.6.571C807.754,662.279,810.1,662.29,812.451,662.29Zm-1.905-6.945a7.888,7.888,0,0,1-.005.8c-.038.354.12.426.441.42.992-.018,1.985-.02,2.977,0,.339.007.469-.1.427-.433a2.582,2.582,0,0,1,0-.476c.014-.23-.046-.318-.3-.255A7.444,7.444,0,0,1,810.546,655.345Z" transform="translate(-760.848 -603.033)" fill="#010101"/>
      <path id="Trazado_634033" data-name="Trazado 634033" d="M724.527,661.25h-8.361c-.875,0-1.176-.3-1.177-1.174q0-1.284,0-2.568a3.821,3.821,0,0,1,3.876-3.9,11.33,11.33,0,0,1,1.253.009c.489.053.647-.092.626-.6-.015-.36-.151-.367-.417-.366-1.393.007-2.787,0-4.18,0-.843,0-1.157-.308-1.158-1.134,0-3.165-.017-6.33,0-9.495a9.553,9.553,0,0,1,19.017-1.152,24.284,24.284,0,0,1,.091,3.1c.013,2.508.005,5.016,0,7.524,0,.84-.31,1.155-1.136,1.156-1.393,0-2.787.009-4.18-.006-.314,0-.478.043-.424.408.04.271-.1.579.409.568a9.322,9.322,0,0,1,2.378.089,3.82,3.82,0,0,1,2.951,3.659c.01.935.006,1.871,0,2.807,0,.748-.336,1.075-1.1,1.076Q728.767,661.252,724.527,661.25Zm6.708-10.533c.179.006.359,0,.536.023.342.047.431-.093.429-.427-.014-2.827.065-5.656-.034-8.479a7.626,7.626,0,0,0-15.234-.033c-.115,2.839-.025,5.685-.036,8.529,0,.291.047.416.383.415Q724.257,650.717,731.235,650.717Zm-6.725,8.621v-.007c2.406,0,4.811-.007,7.217.008.361,0,.5-.082.467-.46-.034-.455,0-.914-.01-1.371a1.961,1.961,0,0,0-1.991-2,10.828,10.828,0,0,0-5.165.862,1.142,1.142,0,0,1-.976,0,10.821,10.821,0,0,0-5.225-.854,1.94,1.94,0,0,0-1.924,1.941c-.01.457.026.917-.01,1.371-.034.416.095.533.519.529C719.778,659.326,722.144,659.337,724.51,659.337Zm.072-6.69c-.5,0-1-.014-1.492.009-.157.007-.483-.155-.444.183.042.365-.27.9.2,1.077a3.208,3.208,0,0,0,2.793.251c.82-.406.847-.317.832-1.2,0-.273-.083-.336-.334-.328C725.617,652.658,725.1,652.648,724.582,652.648Z" transform="translate(-693.958 -600.08)" fill="#010101"/>
      <path id="Trazado_634034" data-name="Trazado 634034" d="M636.576,664.21h-8.36c-.886,0-1.19-.3-1.191-1.16,0-.9-.006-1.791,0-2.687a3.821,3.821,0,0,1,3.8-3.8c.518,0,1.036-.022,1.552.007.331.019.367-.114.392-.4a2.347,2.347,0,0,0-1.035-2.375,6.935,6.935,0,0,1-2.788-5.8,34.974,34.974,0,0,1,.1-5.067,7.625,7.625,0,0,1,15.063.011,25.441,25.441,0,0,1,.011,6.132,7.128,7.128,0,0,1-3.245,5.193.983.983,0,0,0-.474.964c.018,1.342.007,1.342,1.354,1.342,2.2,0,3.62.893,4.193,2.641a3.656,3.656,0,0,1,.2,1.17c-.007.915,0,1.831,0,2.747,0,.757-.33,1.087-1.084,1.088Q640.816,664.213,636.576,664.21Zm-4-12.386c-.051-.006-.132-.033-.146-.014-.044.062.013.093.07.11a4.705,4.705,0,0,0,1.932,1.338,5.557,5.557,0,0,0,6.212-1.351c.057-.008.112-.025.07-.094-.007-.012-.089.021-.136.033A9.222,9.222,0,0,1,632.581,651.824Zm10.69,10.454c.958.05.958.05.958-.917,0-.354.013-.71-.005-1.063a1.8,1.8,0,0,0-1.426-1.715.533.533,0,0,0-.393-.105c-3.88,0-7.761-.011-11.642.006a1.859,1.859,0,0,0-1.818,1.788c-.027.556.009,1.115-.014,1.671-.012.295.092.362.371.361Q636.286,662.282,643.271,662.279Zm-3.818-23.042a5.673,5.673,0,0,0-8.487,3.839,32.724,32.724,0,0,0-.116,4.464.766.766,0,0,0,.214.478,6.433,6.433,0,0,0,5.036,2.79,6.294,6.294,0,0,0,5.276-1.984c.411-.347.906-.729.914-1.26a21.434,21.434,0,0,0-.109-4.568A5.242,5.242,0,0,0,639.452,639.237Zm-.991,16.131a7.648,7.648,0,0,1-3.789-.008,4.406,4.406,0,0,1-.006.668c-.074.46.116.564.55.542.732-.038,1.466-.01,2.2-.01C638.539,656.559,638.539,656.559,638.461,655.367Z" transform="translate(-627.02 -603.041)" fill="#020202"/>
      <path id="Trazado_634035" data-name="Trazado 634035" d="M635.048,577.906c-.005-1.95-.036-3.9-.008-5.849a2.827,2.827,0,0,1,2.761-2.747c1.054-.027,2.11.016,3.164-.019.39-.013.57.22.786.443.613.635.885.681,1.662.269a.34.34,0,0,0,.051-.03,1.76,1.76,0,0,1,2.26-.013c.807.521,1.081.439,1.738-.277a1.13,1.13,0,0,1,.93-.393c2.487.018,4.975.012,7.462.012a3.828,3.828,0,0,0,4.026-3.759.968.968,0,0,1,1.007-1.015.981.981,0,0,1,.9,1.12,5.727,5.727,0,0,1-5.478,5.551c-1.63.047-3.263.011-4.9.016-.76,0-1.087.327-1.09,1.081q-.013,2.805-.02,5.61H638.872q-.01-2.261-.019-4.522c0-.764-.334-1.192-.927-1.211-.615-.02-.981.427-.985,1.211q-.011,2.261-.019,4.522Z" transform="translate(-633.113 -548.274)" fill="#e4e7ea"/>
      <path id="Trazado_634036" data-name="Trazado 634036" d="M642.951,602.251q.009-2.261.019-4.522c0-.783.37-1.231.985-1.211.593.019.923.447.927,1.211q.011,2.261.019,4.522c-.1.57-.393.957-1,.942C643.315,603.179,643.037,602.795,642.951,602.251Z" transform="translate(-639.142 -572.619)" fill="#020202"/>
      <path id="Trazado_634037" data-name="Trazado 634037" d="M741.162,504.5c5.854,0,11.707.006,17.561-.011.471,0,.581.122.58.584q-.022,12.812,0,25.623c0,.482-.139.574-.59.573q-17.591-.019-35.181,0c-.492,0-.584-.153-.568-.6.032-.915.027-1.832,0-2.747-.01-.371.077-.487.476-.513a7.655,7.655,0,0,0,7.178-7.6,2.868,2.868,0,0,0-5.735-.109,1.962,1.962,0,0,1-1.462,1.942c-.313.083-.458.065-.457-.331q.017-8.213,0-16.425c0-.525.311-.392.579-.392Q732.352,504.495,741.162,504.5Zm6.736,22.937c1.195,0,2.389,0,3.584,0,.8,0,1.118-.323,1.12-1.115,0-1.652.019-3.305-.01-4.957-.008-.47.067-.659.6-.631.973.05,1.95.016,2.926.014.947,0,1.264-.311,1.267-1.239q0-1.613,0-3.225c0-.967-.31-1.269-1.295-1.27q-4.33,0-8.661,0c-1.283,0-1.507.2-1.5,1.469,0,.386-.127.422-.47.456a5.1,5.1,0,0,1-3.9-1.059,2.564,2.564,0,0,0-.765-.458,2.216,2.216,0,0,1-1.571-2.837.174.174,0,0,0,0-.06c-.058-.334.112-.4.406-.384.477.021.956.008,1.433.005a2.867,2.867,0,1,0,.013-5.733q-2.807-.009-5.615,0a2.868,2.868,0,1,0,0,5.734c.594.005,1.395-.208,1.728.093.382.345.072,1.16.127,1.767a.657.657,0,0,1-.388.7c-1.254.729-2.494,1.483-3.735,2.234-.882.534-.894,1.323-.023,1.858a21.362,21.362,0,0,0,2.617,1.542,2.224,2.224,0,0,1,1.526,2.757.541.541,0,0,0,0,.179c.037.261-.072.347-.333.338-.517-.018-1.035-.009-1.553,0a2.866,2.866,0,1,0,.01,5.732q2.807.011,5.615,0a2.78,2.78,0,0,0,2.615-1.566.558.558,0,0,1,.59-.351C745.468,527.444,746.683,527.434,747.9,527.434Z" transform="translate(-700.03 -502.582)" fill="#ccd0d7"/>
      <path id="Trazado_634038" data-name="Trazado 634038" d="M659.369,538.563a5.7,5.7,0,0,1-8.592-4.616c-.025-.616-.231-1.393.059-1.807.309-.442,1.134-.121,1.73-.137a15.973,15.973,0,0,0,5.557-1.227c.368-.147.739-.292,1.116-.413a1.768,1.768,0,0,1,2.039.551c0,.952.015,1.9,0,2.857a6.262,6.262,0,0,1-1.55,4.128A1.13,1.13,0,0,0,659.369,538.563Z" transform="translate(-645.026 -522.188)" fill="#e2c5bb"/>
      <path id="Trazado_634039" data-name="Trazado 634039" d="M649.254,510.456a13.77,13.77,0,0,1-1.786-.1c-.276-.044-.37-.112-.324-.406a6.08,6.08,0,0,1,3.735-4.958,6.011,6.011,0,0,1,6.157.72c.292.205.388.376.187.718-.47.8-.607,1.93-1.328,2.416a10.435,10.435,0,0,1-3.33,1.24A12.276,12.276,0,0,1,649.254,510.456Z" transform="translate(-642.324 -502.557)" fill="#f7cd68"/>
      <path id="Trazado_634040" data-name="Trazado 634040" d="M687.028,540.685a1.13,1.13,0,0,1,.357-.665,6.262,6.262,0,0,0,1.55-4.128c.017-.952,0-1.9,0-2.857a2.415,2.415,0,0,1,.981,2.243,6.066,6.066,0,0,1-2.054,4.861A2.246,2.246,0,0,1,687.028,540.685Z" transform="translate(-672.685 -524.31)" fill="#caaea7"/>
      <path id="Trazado_634041" data-name="Trazado 634041" d="M695.052,519.849l-.333-.2c-.931-.553-.931-.553-.318-1.533A5.6,5.6,0,0,1,695.052,519.849Z" transform="translate(-677.971 -512.959)" fill="#eaba59"/>
      <path id="Trazado_634042" data-name="Trazado 634042" d="M667.008,575.532l1.5.246a3.038,3.038,0,0,1-.9.53c-.543.274-.593.238-.6-.369C667.007,575.822,667.008,575.706,667.008,575.532Z" transform="translate(-657.449 -556.649)" fill="#e4e7ea"/>
      <path id="Trazado_634043" data-name="Trazado 634043" d="M676.364,575.855a9.053,9.053,0,0,0,1.21-.194c.354-.108.393.011.39.318-.006.624-.067.671-.637.383C677.033,576.213,676.743,576.055,676.364,575.855Z" transform="translate(-664.569 -556.717)" fill="#e4e7ea"/>
      <path id="Trazado_634044" data-name="Trazado 634044" d="M829.493,654.916a6.263,6.263,0,0,1-5.1,1.991,6.494,6.494,0,0,1-5.183-2.743,1.193,1.193,0,0,1-.252-.767c.012-1.352,0-2.7.007-4.055a4.784,4.784,0,0,1,4.839-4.843c.934-.005,1.868.011,2.8.017,0,.637-.006,1.274.005,1.911a1.886,1.886,0,0,0,1.778,1.892c.821.067,1.084.345,1.087,1.163Q829.489,652.2,829.493,654.916Z" transform="translate(-773.086 -609.132)" fill="#8c5554"/>
      <path id="Trazado_634045" data-name="Trazado 634045" d="M818.561,732.275c-2.348,0-4.7-.01-7.045.009-.44,0-.651-.07-.6-.57.049-.472-.005-.955.016-1.431a1.868,1.868,0,0,1,1.848-1.822q5.791-.023,11.582,0a1.863,1.863,0,0,1,1.837,1.774c.032.651.218,1.466-.092,1.912-.268.387-1.148.119-1.756.123C822.422,732.284,820.491,732.275,818.561,732.275Z" transform="translate(-766.958 -673.018)" fill="#699be5"/>
      <path id="Trazado_634046" data-name="Trazado 634046" d="M853.839,654.907q-.007-2.717-.014-5.434c0-.817-.267-1.1-1.087-1.163a1.886,1.886,0,0,1-1.778-1.892c-.011-.637,0-1.274-.005-1.911.059-.006.118-.015.178-.016.78-.018.781-.018.781.741,0,.4-.012.795,0,1.191a.907.907,0,0,0,.886.931,1.937,1.937,0,0,1,1.977,2.181c0,1.112-.055,2.227.018,3.334A2.249,2.249,0,0,1,853.839,654.907Z" transform="translate(-797.432 -609.124)" fill="#7b4948"/>
      <path id="Trazado_634047" data-name="Trazado 634047" d="M832.859,701.678a5.514,5.514,0,0,1-6.359-.375,1.846,1.846,0,0,1-.589-.57l.076-.1a9.339,9.339,0,0,0,7.115.406Z" transform="translate(-778.374 -651.853)" fill="#e2c5bb"/>
      <path id="Trazado_634048" data-name="Trazado 634048" d="M834.918,715.4a7.442,7.442,0,0,0,3.533.057c.258-.063.318.025.3.255a2.6,2.6,0,0,0,0,.476c.042.336-.088.44-.427.433-.992-.021-1.985-.019-2.977,0-.321.006-.479-.066-.441-.42A7.891,7.891,0,0,0,834.918,715.4Z" transform="translate(-785.22 -663.089)" fill="#699be5"/>
      <path id="Trazado_634049" data-name="Trazado 634049" d="M854.982,701.685l.243-.636.889-.4.078.1A2.992,2.992,0,0,1,854.982,701.685Z" transform="translate(-800.497 -651.86)" fill="#caaea7"/>
      <path id="Trazado_634050" data-name="Trazado 634050" d="M825.639,700.668c-.057-.017-.114-.048-.07-.11.014-.02.1.008.146.013Z" transform="translate(-778.102 -651.787)" fill="#e2c5bb"/>
      <path id="Trazado_634051" data-name="Trazado 634051" d="M859.72,700.575c.05-.006.13-.035.144-.016.045.06-.01.093-.066.112Z" transform="translate(-804.102 -651.789)" fill="#caaea7"/>
      <path id="Trazado_634052" data-name="Trazado 634052" d="M737.253,656.733q-6.978.01-13.957.027c-.336,0-.384-.124-.383-.415.011-2.843-.079-5.69.036-8.529a7.608,7.608,0,0,1,11.7-6.044c-.047.263.159.387.3.546a8.6,8.6,0,0,1,2.307,5.885C737.261,651.047,737.253,653.89,737.253,656.733Z" transform="translate(-699.975 -606.097)" fill="#f7cd68"/>
      <path id="Trazado_634053" data-name="Trazado 634053" d="M730.576,732.167c-2.366,0-4.732-.011-7.1.01-.424,0-.553-.113-.519-.529.037-.454,0-.914.01-1.371a1.94,1.94,0,0,1,1.924-1.941,10.823,10.823,0,0,1,5.225.855,1.142,1.142,0,0,0,.976,0,10.827,10.827,0,0,1,5.165-.862,1.961,1.961,0,0,1,1.991,2c.008.457-.025.917.009,1.371.028.378-.106.463-.467.46-2.406-.016-4.811-.008-7.217-.008Z" transform="translate(-700.024 -672.91)" fill="#6fcbae"/>
      <path id="Trazado_634054" data-name="Trazado 634054" d="M774.659,660.755c0-2.843.008-5.686,0-8.529a8.6,8.6,0,0,0-2.307-5.885c-.143-.159-.348-.283-.3-.546a7.182,7.182,0,0,1,3.538,6.077c.1,2.823.02,5.652.034,8.479,0,.334-.087.474-.429.427C775.018,660.754,774.838,660.762,774.659,660.755Z" transform="translate(-737.382 -610.119)" fill="#eaba59"/>
      <path id="Trazado_634055" data-name="Trazado 634055" d="M748.781,716.393c.517,0,1.035.01,1.552,0,.251-.007.329.055.334.328.015.88-.012.791-.832,1.2a3.208,3.208,0,0,1-2.793-.252c-.467-.181-.155-.711-.2-1.077-.039-.338.287-.176.444-.183C747.785,716.379,748.283,716.393,748.781,716.393Z" transform="translate(-718.157 -663.825)" fill="#e2c5bb"/>
      <path id="Trazado_634056" data-name="Trazado 634056" d="M653.5,654.88a6.294,6.294,0,0,1-5.277,1.984,6.433,6.433,0,0,1-5.036-2.79.765.765,0,0,1-.214-.478,32.713,32.713,0,0,1,.116-4.464,5.673,5.673,0,0,1,8.487-3.839,1.181,1.181,0,0,0,.37.663,6.478,6.478,0,0,1,1.537,4.269C653.494,651.777,653.491,653.329,653.5,654.88Z" transform="translate(-639.141 -609.098)" fill="#656c76"/>
      <path id="Trazado_634057" data-name="Trazado 634057" d="M649.344,732.264q-6.984.01-13.969.025c-.28,0-.383-.067-.371-.361.023-.556-.014-1.115.014-1.671a1.858,1.858,0,0,1,1.818-1.787c3.881-.017,7.761-.007,11.642-.006a.531.531,0,0,1,.393.105A7.753,7.753,0,0,1,649.344,732.264Z" transform="translate(-633.094 -673.027)" fill="#e4e7ea"/>
      <path id="Trazado_634058" data-name="Trazado 634058" d="M680.954,657.557c0-1.552,0-3.1-.016-4.655a6.478,6.478,0,0,0-1.537-4.269,1.18,1.18,0,0,1-.37-.663,5.242,5.242,0,0,1,2.728,3.758,21.438,21.438,0,0,1,.109,4.568C681.86,656.827,681.365,657.21,680.954,657.557Z" transform="translate(-666.599 -611.774)" fill="#545b63"/>
      <path id="Trazado_634059" data-name="Trazado 634059" d="M658.1,700.72a5.557,5.557,0,0,1-6.212,1.351,4.7,4.7,0,0,1-1.932-1.338l.076-.1a9.222,9.222,0,0,0,8,.024C658.058,700.681,658.08,700.7,658.1,700.72Z" transform="translate(-644.475 -651.853)" fill="#e2c5bb"/>
      <path id="Trazado_634060" data-name="Trazado 634060" d="M662.751,715.436c.078,1.192.078,1.192-1.045,1.192-.734,0-1.468-.027-2.2.01-.434.023-.624-.082-.55-.542a4.4,4.4,0,0,0,.006-.668A7.648,7.648,0,0,0,662.751,715.436Z" transform="translate(-651.311 -663.109)" fill="#f7f9fa"/>
      <path id="Trazado_634061" data-name="Trazado 634061" d="M693.5,732.613a7.751,7.751,0,0,0-.473-3.695,1.8,1.8,0,0,1,1.426,1.715c.018.353.005.709.005,1.063C694.456,732.663,694.456,732.663,693.5,732.613Z" transform="translate(-677.248 -673.375)" fill="#ccd0d7"/>
      <path id="Trazado_634062" data-name="Trazado 634062" d="M649.688,700.668c-.057-.017-.113-.048-.07-.11.014-.02.1.008.146.014Z" transform="translate(-644.204 -651.787)" fill="#e2c5bb"/>
      <path id="Trazado_634063" data-name="Trazado 634063" d="M683.76,700.62c.047-.012.129-.045.136-.033.041.069-.014.086-.07.094C683.8,700.661,683.781,700.641,683.76,700.62Z" transform="translate(-670.198 -651.813)" fill="#e2c5bb"/>
      <path id="Trazado_634064" data-name="Trazado 634064" d="M778.333,533.549c-1.215,0-2.429.01-3.644-.007a.559.559,0,0,0-.59.351,2.779,2.779,0,0,1-2.615,1.566q-2.807.009-5.615,0a2.866,2.866,0,1,1-.011-5.732c.518,0,1.036-.013,1.553,0,.262.009.37-.077.333-.338a.538.538,0,0,1,0-.179,2.224,2.224,0,0,0-1.526-2.757,21.338,21.338,0,0,1-2.617-1.542c-.871-.535-.859-1.324.023-1.857,1.241-.751,2.481-1.506,3.735-2.234a.656.656,0,0,0,.388-.7c-.055-.607.256-1.422-.127-1.767-.333-.3-1.134-.088-1.728-.093a2.868,2.868,0,1,1,0-5.734q2.807-.008,5.615,0a2.867,2.867,0,1,1-.013,5.733c-.478,0-.956.016-1.433-.005-.294-.013-.465.049-.406.384a.181.181,0,0,1,0,.06,2.216,2.216,0,0,0,1.571,2.837,2.563,2.563,0,0,1,.765.458,5.1,5.1,0,0,0,3.9,1.059c.343-.034.472-.07.47-.456-.005-1.271.218-1.469,1.5-1.469h8.661c.985,0,1.293.3,1.295,1.27q0,1.612,0,3.225c0,.928-.32,1.237-1.266,1.239-.976,0-1.953.036-2.926-.014-.53-.027-.605.162-.6.632.029,1.652.013,3.3.011,4.957,0,.792-.324,1.113-1.12,1.115C780.722,533.552,779.527,533.549,778.333,533.549Zm-.668-1.912c1,0,1.992-.021,2.986.01.405.013.489-.122.483-.5-.022-1.274-.028-2.549,0-3.822.01-.419-.143-.482-.507-.474-1.075.021-2.15.016-3.225,0a.957.957,0,0,1-1.056-1.026,3.135,3.135,0,0,1,0-.478c.033-.3-.055-.393-.381-.416a5.1,5.1,0,0,0-3.86.98,3.006,3.006,0,0,1-.917.552,2.25,2.25,0,0,0-1.55,2.861c.046.288.071.423.4.4.476-.028.955-.008,1.433-.007a2.768,2.768,0,0,1,2.619,1.557.6.6,0,0,0,.645.36C775.713,531.628,776.689,531.638,777.665,531.638Zm4.474-8.6h-2.447c-1.453,0-1.436,0-1.444,1.435,0,.4.109.489.493.486,1.909-.02,3.82-.009,5.729-.009,1.475,0,1.462,0,1.443-1.495,0-.341-.1-.43-.432-.424C784.367,523.049,783.253,523.036,782.139,523.036Zm-13.448-6.69c.913,0,1.827.007,2.74,0a.973.973,0,0,0,1.087-.932c.014-.577-.42-.972-1.1-.975q-2.71-.01-5.419,0c-.7,0-1.119.379-1.114.961s.426.941,1.13.946C766.9,516.351,767.8,516.346,768.69,516.346Zm.023,15.292c-.913,0-1.826-.006-2.74,0-.663.006-1.075.362-1.093.921a.966.966,0,0,0,1.091.985q2.71.012,5.42,0c.7,0,1.125-.377,1.126-.954s-.427-.948-1.124-.953C770.5,531.633,769.606,531.638,768.713,531.638Zm2.9-7.645-2.721-1.638a.353.353,0,0,0-.393.005l-2.711,1.633,2.723,1.64a.352.352,0,0,0,.393-.008Z" transform="translate(-730.466 -508.697)" fill="#010101"/>
      <path id="Trazado_634065" data-name="Trazado 634065" d="M798.765,571.08c-.976,0-1.951-.01-2.927.005a.6.6,0,0,1-.645-.36,2.768,2.768,0,0,0-2.619-1.557c-.478,0-.957-.021-1.433.007-.327.019-.353-.116-.4-.4a2.25,2.25,0,0,1,1.55-2.861,3.007,3.007,0,0,0,.917-.552,5.1,5.1,0,0,1,3.86-.98c.326.023.414.12.381.416a3.117,3.117,0,0,0,0,.477A.957.957,0,0,0,798.5,566.3c1.075.012,2.151.017,3.225,0,.364-.007.517.056.507.474-.03,1.273-.025,2.549,0,3.822.007.377-.077.512-.483.5C800.757,571.059,799.76,571.08,798.765,571.08Z" transform="translate(-751.566 -548.14)" fill="#ccd0d7"/>
      <path id="Trazado_634066" data-name="Trazado 634066" d="M830.827,556.5c1.114,0,2.228.013,3.342-.007.333-.006.428.083.432.424.019,1.495.032,1.495-1.443,1.495-1.91,0-3.82-.011-5.729.009-.384,0-.5-.09-.493-.486.008-1.435-.008-1.435,1.444-1.435Z" transform="translate(-779.154 -542.157)" fill="#e4e7ea"/>
      <path id="Trazado_634067" data-name="Trazado 634067" d="M774.817,522.435c-.893,0-1.787.005-2.68,0-.7,0-1.125-.365-1.13-.946s.419-.959,1.114-.961q2.71-.009,5.419,0c.684,0,1.117.4,1.1.975a.973.973,0,0,1-1.087.932C776.643,522.441,775.73,522.435,774.817,522.435Z" transform="translate(-736.592 -514.786)" fill="#e4e7ea"/>
      <path id="Trazado_634068" data-name="Trazado 634068" d="M774.839,592.5c.893,0,1.787,0,2.68,0,.7.005,1.124.375,1.124.953s-.43.952-1.126.954q-2.71.009-5.42,0a.966.966,0,0,1-1.091-.985c.018-.56.43-.916,1.093-.921C773.012,592.5,773.925,592.5,774.839,592.5Z" transform="translate(-736.591 -569.562)" fill="#e4e7ea"/>
      <path id="Trazado_634069" data-name="Trazado 634069" d="M780.625,555.123l-2.709,1.632a.352.352,0,0,1-.393.008l-2.723-1.64,2.711-1.633a.353.353,0,0,1,.393-.005Z" transform="translate(-739.479 -539.828)" fill="#6fcbae"/>
    </g>
  </g>
</svg>
