<svg id="Grupo_980614" data-name="Grupo 980614" xmlns="http://www.w3.org/2000/svg" width="295" height="127.181" viewBox="0 0 295 127.181">
  <rect id="Rectángulo_342657" data-name="Rectángulo 342657" width="295" height="74" rx="10" transform="translate(0 45)" fill="#f0bd51"/>
  <g id="Character_4" data-name="Character 4" transform="translate(66.021)">
    <g id="Grupo_950711" data-name="Grupo 950711">
      <g id="Grupo_950486" data-name="Grupo 950486" transform="translate(16.895)">
        <path id="Trazado_627974" data-name="Trazado 627974" d="M375.911,263.318H481.459a6,6,0,0,1,6,6v38.91h2.635a8.111,8.111,0,0,0,3.526-.846,16.2,16.2,0,1,1,.487,29.419,8.087,8.087,0,0,0-3.267-.721h-3.382v37.946a6,6,0,0,1-6,6H375.911a4.886,4.886,0,0,1-4.886-4.886V268.2A4.886,4.886,0,0,1,375.911,263.318Z" transform="translate(-370.894 -263.192)" fill="#e0e0e0"/>
        <g id="Grupo_950485" data-name="Grupo 950485">
          <path id="Trazado_627975" data-name="Trazado 627975" d="M375.792,263.232s-.111,0-.33.008a2.577,2.577,0,0,0-.408.041,3.476,3.476,0,0,0-.559.114,4.865,4.865,0,0,0-2.977,2.3,5.1,5.1,0,0,0-.651,2.734q0,1.564-.007,3.416c0,2.47-.009,5.318-.014,8.525-.011,12.831-.029,31.392-.049,54.325-.005,11.468-.012,24.03-.018,37.515q0,1.265,0,2.539a6.567,6.567,0,0,0,.1,1.3,5.066,5.066,0,0,0,.428,1.242,5.007,5.007,0,0,0,4.247,2.776l10.621.016,22.157.007,47.578.009,25.166,0a6.379,6.379,0,0,0,3.159-.722A6.182,6.182,0,0,0,487.493,374l0-3.235V357.717q0-10.987,0-21.722l-.154.155h2.572c.428,0,.859-.011,1.273.016a7.533,7.533,0,0,1,1.24.186,8.354,8.354,0,0,1,1.2.379c.382.158.785.339,1.185.485a16.216,16.216,0,0,0,5.016,1.015,9.751,9.751,0,0,0,1.278-.016c.425-.027.852-.037,1.274-.078a18,18,0,0,0,4.888-1.347,16.416,16.416,0,0,0,7.364-6.644,17.816,17.816,0,0,0,1.82-4.618c.1-.4.141-.814.214-1.22l.1-.611c.018-.205.024-.412.036-.617l.062-1.233-.068-1.23a16.2,16.2,0,0,0-3.524-8.952,16.3,16.3,0,0,0-19.305-4.738,11.266,11.266,0,0,1-2.114.829,7.889,7.889,0,0,1-2.23.245h-2.276l.142.143c0-11.314-.007-22.2-.01-32.6q0-1.949,0-3.875,0-.963,0-1.919a7.68,7.68,0,0,0-.17-1.925,6.117,6.117,0,0,0-1.975-3.241,6.037,6.037,0,0,0-3.454-1.45c-4.962-.051-9.756-.011-14.428-.02l-48.654.033-31.683.04-8.416.022-2.166.012c-.486,0-.734.012-.734.012s.248.008.734.012l2.166.011,8.416.023,31.683.04,48.654.033c4.662.014,9.488-.021,14.406.033a5.781,5.781,0,0,1,3.31,1.393,5.858,5.858,0,0,1,1.89,3.106,7.375,7.375,0,0,1,.161,1.865q0,.957,0,1.919,0,1.926,0,3.875c0,10.4-.007,21.285-.01,32.6v.142h2.419a8.166,8.166,0,0,0,2.3-.252,11.629,11.629,0,0,0,2.159-.844,15.982,15.982,0,0,1,11.29-.6,16.155,16.155,0,0,1,7.667,5.259,15.9,15.9,0,0,1,3.456,8.788l.067,1.208-.061,1.21c-.013.2-.017.4-.036.606l-.1.6c-.071.4-.115.8-.209,1.2a17.537,17.537,0,0,1-1.787,4.532,16.1,16.1,0,0,1-7.229,6.519,17.722,17.722,0,0,1-4.8,1.321c-.415.04-.834.049-1.251.076a9.59,9.59,0,0,1-1.255.016,15.913,15.913,0,0,1-4.92-1c-.4-.146-.773-.315-1.179-.483a8.66,8.66,0,0,0-1.241-.393,7.861,7.861,0,0,0-1.291-.193c-.44-.028-.865-.012-1.293-.017h-2.727v.154q0,10.719,0,21.722V370.76q0,1.619,0,3.233a5.871,5.871,0,0,1-3.1,5.108,6.061,6.061,0,0,1-3.013.686l-25.166,0-47.578.009-22.157.007-10.608-.008a4.742,4.742,0,0,1-4.025-2.628,4.827,4.827,0,0,1-.408-1.176,6.324,6.324,0,0,1-.094-1.246q0-1.275,0-2.539c-.007-13.485-.013-26.047-.018-37.515-.021-22.934-.038-41.494-.049-54.325-.005-3.206-.01-6.055-.014-8.525q0-1.851-.007-3.416a5.032,5.032,0,0,1,.628-2.7,4.85,4.85,0,0,1,2.931-2.3,3.573,3.573,0,0,1,.555-.12,2.589,2.589,0,0,1,.405-.049C375.681,263.243,375.792,263.232,375.792,263.232Z" transform="translate(-370.775 -263.106)" fill="#263238"/>
        </g>
      </g>
      <g id="Grupo_950710" data-name="Grupo 950710" transform="translate(0 14.063)">
        <g id="Grupo_950709" data-name="Grupo 950709">
          <path id="Trazado_627976" data-name="Trazado 627976" d="M471.844,344.548c.259-7.184.521-14.4,1.9-21.459s3.116-13.934,7.561-19.6l41.58,2.21c1.6,6.369,3.222,12.895,2.555,19.427-.647,6.339-3.431,12.466-2.982,18.822.317,4.491,2.227,8.691,3.637,12.969s2.313,9.03.638,13.213a5.579,5.579,0,0,1-1.99,2.7,7.393,7.393,0,0,1-4.059.791q-24.934.035-49.85-1.137Q471.341,358.514,471.844,344.548Z" transform="translate(-424.198 -293.524)" fill="#263238"/>
          <g id="Grupo_950642" data-name="Grupo 950642" transform="translate(51.23)">
            <path id="Trazado_627977" data-name="Trazado 627977" d="M529.464,333.486A31.315,31.315,0,0,0,539.549,357.2l4.506-12.979" transform="translate(-526.712 -305.676)" fill="#263238"/>
            <g id="Grupo_950487" data-name="Grupo 950487">
              <path id="Trazado_627978" data-name="Trazado 627978" d="M521.383,288.736a19.253,19.253,0,0,0-12.866-1.543,40.676,40.676,0,0,0-12.169,5,19.856,19.856,0,0,0-5.816,4.51c-2.809,3.513-5.586,9.283-5.857,13.764-.219,3.622,1.177,12.691,2.717,15.981,1.414,3.019,8.029,5.318,11.294,6.063l29.963-34.637A15.1,15.1,0,0,0,521.383,288.736Z" transform="translate(-484.652 -286.744)" fill="#263238"/>
            </g>
            <g id="Grupo_950488" data-name="Grupo 950488" transform="translate(34.714 5.388)">
              <path id="Trazado_627979" data-name="Trazado 627979" d="M481.02,297.077l-7.182-1.277c3.926,9.294,4.991,30.549,7.237,40.38,2.648-3.819,8.8-15.45,8.467-20.076S489.555,296.288,481.02,297.077Z" transform="translate(-473.838 -295.8)" fill="#263238"/>
            </g>
            <path id="Trazado_627980" data-name="Trazado 627980" d="M480.48,313.387a12.219,12.219,0,0,1,9.158-11.182l16.611-4.212c7.149-.767,11.922,7.974,12.391,15.105.52,7.923.84,16.285-.091,22.2-1.873,11.894-11.037,13.427-11.037,13.427,0-.018,0,2.746-.008,6.219l-.187.437a12.817,12.817,0,0,1-23.188.757h0l-3.692-42.576C480.431,313.35,480.461,313.711,480.48,313.387Z" transform="translate(-472.636 -291.281)" fill="#ffbf9d"/>
            <g id="Grupo_950503" data-name="Grupo 950503" transform="translate(40.649 29.359)">
              <g id="Grupo_950502" data-name="Grupo 950502">
                <g id="Grupo_950501" data-name="Grupo 950501">
                  <g id="Grupo_950500" data-name="Grupo 950500">
                    <g id="Grupo_950499" data-name="Grupo 950499">
                      <g id="Grupo_950498" data-name="Grupo 950498">
                        <g id="Grupo_950497" data-name="Grupo 950497">
                          <g id="Grupo_950496" data-name="Grupo 950496">
                            <g id="Grupo_950495" data-name="Grupo 950495">
                              <g id="Grupo_950494" data-name="Grupo 950494">
                                <g id="Grupo_950493" data-name="Grupo 950493">
                                  <g id="Grupo_950492" data-name="Grupo 950492">
                                    <g id="Grupo_950491" data-name="Grupo 950491">
                                      <g id="Grupo_950490" data-name="Grupo 950490">
                                        <g id="Grupo_950489" data-name="Grupo 950489">
                                          <path id="Trazado_627981" data-name="Trazado 627981" d="M488.193,337.465a1.529,1.529,0,0,1-1.476,1.542,1.464,1.464,0,0,1-1.584-1.371,1.529,1.529,0,0,1,1.474-1.542A1.465,1.465,0,0,1,488.193,337.465Z" transform="translate(-485.131 -336.091)" fill="#263238"/>
                                        </g>
                                      </g>
                                    </g>
                                  </g>
                                </g>
                              </g>
                            </g>
                          </g>
                        </g>
                      </g>
                    </g>
                  </g>
                </g>
              </g>
            </g>
            <g id="Grupo_950519" data-name="Grupo 950519" transform="translate(38.144 24.879)">
              <g id="Grupo_950518" data-name="Grupo 950518">
                <g id="Grupo_950517" data-name="Grupo 950517">
                  <g id="Grupo_950516" data-name="Grupo 950516">
                    <g id="Grupo_950515" data-name="Grupo 950515">
                      <g id="Grupo_950514" data-name="Grupo 950514">
                        <g id="Grupo_950513" data-name="Grupo 950513">
                          <g id="Grupo_950512" data-name="Grupo 950512">
                            <g id="Grupo_950511" data-name="Grupo 950511">
                              <g id="Grupo_950510" data-name="Grupo 950510">
                                <g id="Grupo_950509" data-name="Grupo 950509">
                                  <g id="Grupo_950508" data-name="Grupo 950508">
                                    <g id="Grupo_950507" data-name="Grupo 950507">
                                      <g id="Grupo_950506" data-name="Grupo 950506">
                                        <g id="Grupo_950505" data-name="Grupo 950505">
                                          <g id="Grupo_950504" data-name="Grupo 950504">
                                            <path id="Trazado_627982" data-name="Trazado 627982" d="M490.32,330.156c-.19.2-1.354-.653-3-.645-1.649-.016-2.859.831-3.039.631-.088-.089.105-.448.631-.831a4.234,4.234,0,0,1,2.432-.751,4.054,4.054,0,0,1,2.392.762C490.24,329.708,490.413,330.067,490.32,330.156Z" transform="translate(-484.256 -328.56)" fill="#263238"/>
                                          </g>
                                        </g>
                                      </g>
                                    </g>
                                  </g>
                                </g>
                              </g>
                            </g>
                          </g>
                        </g>
                      </g>
                    </g>
                  </g>
                </g>
              </g>
            </g>
            <g id="Grupo_950534" data-name="Grupo 950534" transform="translate(25.622 29.151)">
              <g id="Grupo_950533" data-name="Grupo 950533">
                <g id="Grupo_950532" data-name="Grupo 950532">
                  <g id="Grupo_950531" data-name="Grupo 950531">
                    <g id="Grupo_950530" data-name="Grupo 950530">
                      <g id="Grupo_950529" data-name="Grupo 950529">
                        <g id="Grupo_950528" data-name="Grupo 950528">
                          <g id="Grupo_950527" data-name="Grupo 950527">
                            <g id="Grupo_950526" data-name="Grupo 950526">
                              <g id="Grupo_950525" data-name="Grupo 950525">
                                <g id="Grupo_950524" data-name="Grupo 950524">
                                  <g id="Grupo_950523" data-name="Grupo 950523">
                                    <g id="Grupo_950522" data-name="Grupo 950522">
                                      <g id="Grupo_950521" data-name="Grupo 950521">
                                        <g id="Grupo_950520" data-name="Grupo 950520">
                                          <path id="Trazado_627983" data-name="Trazado 627983" d="M513.451,337.115a1.528,1.528,0,0,1-1.476,1.542,1.464,1.464,0,0,1-1.584-1.371,1.53,1.53,0,0,1,1.474-1.543A1.465,1.465,0,0,1,513.451,337.115Z" transform="translate(-510.389 -335.741)" fill="#263238"/>
                                        </g>
                                      </g>
                                    </g>
                                  </g>
                                </g>
                              </g>
                            </g>
                          </g>
                        </g>
                      </g>
                    </g>
                  </g>
                </g>
              </g>
            </g>
            <g id="Grupo_950550" data-name="Grupo 950550" transform="translate(22.467 24.879)">
              <g id="Grupo_950549" data-name="Grupo 950549">
                <g id="Grupo_950548" data-name="Grupo 950548">
                  <g id="Grupo_950547" data-name="Grupo 950547">
                    <g id="Grupo_950546" data-name="Grupo 950546">
                      <g id="Grupo_950545" data-name="Grupo 950545">
                        <g id="Grupo_950544" data-name="Grupo 950544">
                          <g id="Grupo_950543" data-name="Grupo 950543">
                            <g id="Grupo_950542" data-name="Grupo 950542">
                              <g id="Grupo_950541" data-name="Grupo 950541">
                                <g id="Grupo_950540" data-name="Grupo 950540">
                                  <g id="Grupo_950539" data-name="Grupo 950539">
                                    <g id="Grupo_950538" data-name="Grupo 950538">
                                      <g id="Grupo_950537" data-name="Grupo 950537">
                                        <g id="Grupo_950536" data-name="Grupo 950536">
                                          <g id="Grupo_950535" data-name="Grupo 950535">
                                            <path id="Trazado_627984" data-name="Trazado 627984" d="M516.67,330.156c-.19.2-1.355-.653-3.005-.645-1.649-.016-2.859.831-3.038.631-.088-.089.1-.448.631-.831a4.225,4.225,0,0,1,2.432-.751,4.065,4.065,0,0,1,2.392.762C516.59,329.708,516.763,330.067,516.67,330.156Z" transform="translate(-510.607 -328.56)" fill="#263238"/>
                                          </g>
                                        </g>
                                      </g>
                                    </g>
                                  </g>
                                </g>
                              </g>
                            </g>
                          </g>
                        </g>
                      </g>
                    </g>
                  </g>
                </g>
              </g>
            </g>
            <g id="Grupo_950566" data-name="Grupo 950566" transform="translate(32.888 25.692)">
              <g id="Grupo_950565" data-name="Grupo 950565">
                <g id="Grupo_950564" data-name="Grupo 950564">
                  <g id="Grupo_950563" data-name="Grupo 950563">
                    <g id="Grupo_950562" data-name="Grupo 950562">
                      <g id="Grupo_950561" data-name="Grupo 950561">
                        <g id="Grupo_950560" data-name="Grupo 950560">
                          <g id="Grupo_950559" data-name="Grupo 950559">
                            <g id="Grupo_950558" data-name="Grupo 950558">
                              <g id="Grupo_950557" data-name="Grupo 950557">
                                <g id="Grupo_950556" data-name="Grupo 950556">
                                  <g id="Grupo_950555" data-name="Grupo 950555">
                                    <g id="Grupo_950554" data-name="Grupo 950554">
                                      <g id="Grupo_950553" data-name="Grupo 950553">
                                        <g id="Grupo_950552" data-name="Grupo 950552">
                                          <g id="Grupo_950551" data-name="Grupo 950551">
                                            <path id="Trazado_627985" data-name="Trazado 627985" d="M495.711,343.6a11.047,11.047,0,0,1,2.68-.487c.421-.044.82-.129.891-.414a2.119,2.119,0,0,0-.284-1.242l-1.254-3.188c-1.741-4.538-3-8.271-2.818-8.338s1.746,3.555,3.487,8.094q.628,1.679,1.2,3.207a2.409,2.409,0,0,1,.222,1.644,1.053,1.053,0,0,1-.691.614,2.883,2.883,0,0,1-.716.1A10.817,10.817,0,0,1,495.711,343.6Z" transform="translate(-494.908 -329.927)" fill="#263238"/>
                                          </g>
                                        </g>
                                      </g>
                                    </g>
                                  </g>
                                </g>
                              </g>
                            </g>
                          </g>
                        </g>
                      </g>
                    </g>
                  </g>
                </g>
              </g>
            </g>
            <g id="Grupo_950570" data-name="Grupo 950570" transform="translate(19.01 53.212)">
              <g id="Grupo_950569" data-name="Grupo 950569">
                <g id="Grupo_950568" data-name="Grupo 950568">
                  <g id="Grupo_950567" data-name="Grupo 950567">
                    <path id="Trazado_627986" data-name="Trazado 627986" d="M499.983,376.183s3.892,8.166,15.862,7.028l0-2.8A30.282,30.282,0,0,1,499.983,376.183Z" transform="translate(-499.983 -376.183)" fill="#ff9a6c"/>
                  </g>
                </g>
              </g>
            </g>
            <g id="Grupo_950582" data-name="Grupo 950582" transform="translate(20.481 19.323)">
              <g id="Grupo_950581" data-name="Grupo 950581">
                <g id="Grupo_950580" data-name="Grupo 950580">
                  <g id="Grupo_950579" data-name="Grupo 950579">
                    <g id="Grupo_950578" data-name="Grupo 950578">
                      <g id="Grupo_950577" data-name="Grupo 950577">
                        <g id="Grupo_950576" data-name="Grupo 950576">
                          <g id="Grupo_950575" data-name="Grupo 950575">
                            <g id="Grupo_950574" data-name="Grupo 950574">
                              <g id="Grupo_950573" data-name="Grupo 950573">
                                <g id="Grupo_950572" data-name="Grupo 950572">
                                  <g id="Grupo_950571" data-name="Grupo 950571">
                                    <path id="Trazado_627987" data-name="Trazado 627987" d="M519.035,320.445c-.161.446-1.81.239-3.746.475-1.941.2-3.5.765-3.759.365-.116-.191.156-.612.787-1.045a6.6,6.6,0,0,1,5.719-.64C518.746,319.883,519.1,320.233,519.035,320.445Z" transform="translate(-511.504 -319.221)" fill="#263238"/>
                                  </g>
                                </g>
                              </g>
                            </g>
                          </g>
                        </g>
                      </g>
                    </g>
                  </g>
                </g>
              </g>
            </g>
            <g id="Grupo_950594" data-name="Grupo 950594" transform="translate(38.047 19.762)">
              <g id="Grupo_950593" data-name="Grupo 950593">
                <g id="Grupo_950592" data-name="Grupo 950592">
                  <g id="Grupo_950591" data-name="Grupo 950591">
                    <g id="Grupo_950590" data-name="Grupo 950590">
                      <g id="Grupo_950589" data-name="Grupo 950589">
                        <g id="Grupo_950588" data-name="Grupo 950588">
                          <g id="Grupo_950587" data-name="Grupo 950587">
                            <g id="Grupo_950586" data-name="Grupo 950586">
                              <g id="Grupo_950585" data-name="Grupo 950585">
                                <g id="Grupo_950584" data-name="Grupo 950584">
                                  <g id="Grupo_950583" data-name="Grupo 950583">
                                    <path id="Trazado_627988" data-name="Trazado 627988" d="M490.754,321.654c-.29.373-1.428-.011-2.8-.026-1.367-.063-2.525.256-2.793-.133-.117-.189.065-.562.57-.917a4.065,4.065,0,0,1,4.5.129C490.721,321.089,490.881,321.472,490.754,321.654Z" transform="translate(-485.131 -319.96)" fill="#263238"/>
                                  </g>
                                </g>
                              </g>
                            </g>
                          </g>
                        </g>
                      </g>
                    </g>
                  </g>
                </g>
              </g>
            </g>
            <g id="Grupo_950598" data-name="Grupo 950598" transform="translate(4.848 2.059)">
              <g id="Grupo_950597" data-name="Grupo 950597">
                <g id="Grupo_950596" data-name="Grupo 950596">
                  <g id="Grupo_950595" data-name="Grupo 950595">
                    <path id="Trazado_627989" data-name="Trazado 627989" d="M524.284,299.1a5.264,5.264,0,0,0-4.647-2.961,10.261,10.261,0,0,0-5.518,1.6C507,301.834,503.334,311.72,496.3,315.955c-1.731,1.041-3.984.087-5.456,1.467s-2.427,3.585-1.614,5.425a16.63,16.63,0,0,1-2.442-4.106,5.586,5.586,0,0,1,.2-4.634c.609-1.049,1.685-1.85,1.981-3.025.259-1.033-.151-2.114-.106-3.179a6.9,6.9,0,0,1,1.1-3.033,30.944,30.944,0,0,1,11.434-11.957,20.345,20.345,0,0,1,10.5-2.7,15.54,15.54,0,0,1,9.988,3.941c1.574,1.459,3.229,2.968,2.413,4.948" transform="translate(-486.378 -290.204)" fill="#263238"/>
                  </g>
                </g>
              </g>
            </g>
            <g id="Grupo_950616" data-name="Grupo 950616" transform="translate(3.032 30.111)">
              <g id="Grupo_950615" data-name="Grupo 950615">
                <g id="Grupo_950614" data-name="Grupo 950614">
                  <g id="Grupo_950613" data-name="Grupo 950613">
                    <g id="Grupo_950612" data-name="Grupo 950612">
                      <g id="Grupo_950611" data-name="Grupo 950611">
                        <g id="Grupo_950610" data-name="Grupo 950610">
                          <g id="Grupo_950609" data-name="Grupo 950609">
                            <g id="Grupo_950608" data-name="Grupo 950608">
                              <g id="Grupo_950607" data-name="Grupo 950607">
                                <g id="Grupo_950606" data-name="Grupo 950606">
                                  <g id="Grupo_950605" data-name="Grupo 950605">
                                    <g id="Grupo_950604" data-name="Grupo 950604">
                                      <g id="Grupo_950603" data-name="Grupo 950603">
                                        <g id="Grupo_950602" data-name="Grupo 950602">
                                          <g id="Grupo_950601" data-name="Grupo 950601">
                                            <g id="Grupo_950600" data-name="Grupo 950600">
                                              <g id="Grupo_950599" data-name="Grupo 950599">
                                                <path id="Trazado_627990" data-name="Trazado 627990" d="M549.115,337.993c-.126-.341-6.365-2.579-6.448,4.013-.08,6.4,6.421,5.143,6.434,4.96S549.115,337.993,549.115,337.993Z" transform="translate(-542.666 -337.353)" fill="#ffbf9d"/>
                                              </g>
                                            </g>
                                          </g>
                                        </g>
                                      </g>
                                    </g>
                                  </g>
                                </g>
                              </g>
                            </g>
                          </g>
                        </g>
                      </g>
                    </g>
                  </g>
                </g>
              </g>
            </g>
            <g id="Grupo_950635" data-name="Grupo 950635" transform="translate(4.647 32.2)">
              <g id="Grupo_950634" data-name="Grupo 950634">
                <g id="Grupo_950633" data-name="Grupo 950633">
                  <g id="Grupo_950632" data-name="Grupo 950632">
                    <g id="Grupo_950631" data-name="Grupo 950631">
                      <g id="Grupo_950630" data-name="Grupo 950630">
                        <g id="Grupo_950629" data-name="Grupo 950629">
                          <g id="Grupo_950628" data-name="Grupo 950628">
                            <g id="Grupo_950627" data-name="Grupo 950627">
                              <g id="Grupo_950626" data-name="Grupo 950626">
                                <g id="Grupo_950625" data-name="Grupo 950625">
                                  <g id="Grupo_950624" data-name="Grupo 950624">
                                    <g id="Grupo_950623" data-name="Grupo 950623">
                                      <g id="Grupo_950622" data-name="Grupo 950622">
                                        <g id="Grupo_950621" data-name="Grupo 950621">
                                          <g id="Grupo_950620" data-name="Grupo 950620">
                                            <g id="Grupo_950619" data-name="Grupo 950619">
                                              <g id="Grupo_950618" data-name="Grupo 950618">
                                                <g id="Grupo_950617" data-name="Grupo 950617">
                                                  <path id="Trazado_627991" data-name="Trazado 627991" d="M548.837,345.943c-.028-.02-.113.077-.3.162a1.127,1.127,0,0,1-.839.009,2.757,2.757,0,0,1-1.262-2.489,3.664,3.664,0,0,1,.33-1.594,1.293,1.293,0,0,1,.852-.848.573.573,0,0,1,.66.312c.085.18.042.308.077.319.017.016.139-.106.089-.371a.709.709,0,0,0-.249-.4.852.852,0,0,0-.619-.169,1.575,1.575,0,0,0-1.182.982,3.776,3.776,0,0,0-.406,1.781,2.9,2.9,0,0,0,1.611,2.781,1.211,1.211,0,0,0,1.029-.159C548.824,346.1,548.859,345.955,548.837,345.943Z" transform="translate(-545.983 -340.865)" fill="#ff9a6c"/>
                                                </g>
                                              </g>
                                            </g>
                                          </g>
                                        </g>
                                      </g>
                                    </g>
                                  </g>
                                </g>
                              </g>
                            </g>
                          </g>
                        </g>
                      </g>
                    </g>
                  </g>
                </g>
              </g>
            </g>
            <g id="Grupo_950640" data-name="Grupo 950640" transform="translate(6.918 5.876)">
              <g id="Grupo_950639" data-name="Grupo 950639">
                <g id="Grupo_950638" data-name="Grupo 950638">
                  <g id="Grupo_950637" data-name="Grupo 950637">
                    <g id="Grupo_950636" data-name="Grupo 950636">
                      <path id="Trazado_627992" data-name="Trazado 627992" d="M488.706,318.2a2.494,2.494,0,0,0,.389-.215c.246-.156.627-.364,1.08-.682a22.107,22.107,0,0,0,3.478-3.147,61.626,61.626,0,0,0,4.254-5.493,50.44,50.44,0,0,1,5.317-6.581,20.194,20.194,0,0,1,3.43-2.7,16.817,16.817,0,0,1,3.707-1.672,18.459,18.459,0,0,1,6.825-.833,17.685,17.685,0,0,1,4.572.891c.529.16.921.337,1.193.44a2.471,2.471,0,0,0,.421.148,2.534,2.534,0,0,0-.4-.2,10.9,10.9,0,0,0-1.179-.493,16.789,16.789,0,0,0-4.595-.99,18.318,18.318,0,0,0-6.922.783,16.836,16.836,0,0,0-3.774,1.683,20.3,20.3,0,0,0-3.488,2.731,49.065,49.065,0,0,0-5.332,6.634,65.916,65.916,0,0,1-4.188,5.511,23.861,23.861,0,0,1-3.391,3.193c-.44.331-.809.553-1.044.725A2.588,2.588,0,0,0,488.706,318.2Z" transform="translate(-488.706 -296.62)" fill="#455a64"/>
                    </g>
                  </g>
                </g>
              </g>
            </g>
            <path id="Trazado_627993" data-name="Trazado 627993" d="M530.2,329.751a9.811,9.811,0,0,0,.631,5.151c.813,1.554,2.864,2.612,4.394,1.742,1.248-.709,1.621-2.3,1.833-3.711.611-4.079.891-8.2,1.537-12.276Z" transform="translate(-521.664 -300.48)" fill="#263238"/>
            <g id="Grupo_950641" data-name="Grupo 950641" transform="translate(8.65 7.612)">
              <path id="Trazado_627994" data-name="Trazado 627994" d="M521.924,299.838c-.007.037-.569-.107-1.6-.14a11.088,11.088,0,0,0-4.264.775,14.071,14.071,0,0,0-2.671,1.367,28.916,28.916,0,0,0-2.756,2.091,33.019,33.019,0,0,0-5.4,5.781c-.819,1.142-1.543,2.317-2.329,3.4A16.327,16.327,0,0,1,500.325,316a28.718,28.718,0,0,1-5.444,3.62c-1.649.866-3.027,1.472-3.977,1.892l-1.1.467a1.9,1.9,0,0,1-.394.14,1.765,1.765,0,0,1,.364-.206l1.073-.528c.931-.458,2.291-1.1,3.914-1.989a29.783,29.783,0,0,0,5.346-3.645,16.267,16.267,0,0,0,2.515-2.843c.772-1.076,1.495-2.253,2.322-3.408a32.34,32.34,0,0,1,5.474-5.825,28.152,28.152,0,0,1,2.809-2.089,13.983,13.983,0,0,1,2.745-1.355,10.705,10.705,0,0,1,4.36-.676,7.679,7.679,0,0,1,1.192.165A1.787,1.787,0,0,1,521.924,299.838Z" transform="translate(-489.407 -299.539)" fill="#455a64"/>
            </g>
          </g>
          <g id="Grupo_950646" data-name="Grupo 950646" transform="translate(0 59.147)">
            <path id="Trazado_627995" data-name="Trazado 627995" d="M616.826,424.783,597.7,445.152c-3.156,3.362-5.445,6.431-9.918,7.6-3.132.821-8.05.392-9.672-1.672-2.225-2.831-3.286-8.641-.848-12.383s19.558-20.4,19.558-20.4l20,6.483" transform="translate(-575.869 -399.177)" fill="#ffbf9d"/>
            <g id="Grupo_950643" data-name="Grupo 950643" transform="translate(14.469)">
              <path id="Trazado_627996" data-name="Trazado 627996" d="M565.995,410.17s19.872-23.57,27.426-23.57c0,0,4.777,8.359,4.935,12.917s-15.287,25.9-15.287,25.9Z" transform="translate(-565.995 -386.337)" fill="#0e763d"/>
              <path id="Trazado_627997" data-name="Trazado 627997" d="M463.5,417.659l6.312-31.289,20.434-.211c7.528,8.512,15.217,14.61,23.979,4.818l21.517,8.46-5.592,30.387-64.9-.041C462.726,421.453,463.5,417.659,463.5,417.659Z" transform="translate(-442.336 -386.158)" fill="#0e763d"/>
              <path id="Trazado_627998" data-name="Trazado 627998" d="M460.735,438.822c0-1.257-7.2-27.36-14.474-30.346l-5.616,8.617-1.583,21.753Z" transform="translate(-352.854 -395.198)" fill="#0e763d"/>
            </g>
            <g id="Grupo_950644" data-name="Grupo 950644" transform="translate(31.542 23.242)">
              <path id="Trazado_627999" data-name="Trazado 627999" d="M570.894,441.057a3.955,3.955,0,0,0,.531-.588c.327-.39.786-.967,1.345-1.685,1.118-1.436,2.615-3.456,4.275-5.678s3.2-4.2,4.359-5.6c.577-.7,1.048-1.267,1.377-1.653a3.913,3.913,0,0,0,.487-.625,3.875,3.875,0,0,0-.576.544c-.358.362-.856.906-1.455,1.592-1.2,1.37-2.776,3.336-4.44,5.56s-3.13,4.263-4.2,5.732l-1.265,1.743A3.857,3.857,0,0,0,570.894,441.057Z" transform="translate(-570.892 -425.223)" fill="#263238"/>
            </g>
            <g id="Grupo_950645" data-name="Grupo 950645" transform="translate(104.894 24.117)">
              <path id="Trazado_628000" data-name="Trazado 628000" d="M465.935,446.511a3.826,3.826,0,0,0,.233-.752c.134-.489.3-1.2.469-2.093a43.37,43.37,0,0,0,.349-14.1c-.129-.9-.255-1.618-.365-2.113a3.892,3.892,0,0,0-.2-.763,3.786,3.786,0,0,0,.077.784c.073.5.166,1.224.267,2.119a51.108,51.108,0,0,1-.348,14.032c-.145.889-.274,1.609-.371,2.1A3.833,3.833,0,0,0,465.935,446.511Z" transform="translate(-465.93 -426.694)" fill="#263238"/>
            </g>
          </g>
          <g id="Grupo_950647" data-name="Grupo 950647" transform="translate(98.005 10.416)">
            <path id="Trazado_628001" data-name="Trazado 628001" d="M474.872,358.88c-.008.078-.224.142-.638.131a4.707,4.707,0,0,1-1.754-.45,7.381,7.381,0,0,1-2.314-1.721,9.348,9.348,0,0,1-1.93-3.3,16.24,16.24,0,0,1-.812-4.45c-.09-1.6-.059-3.26,0-5.017.139-3.51.554-7.331,1.018-11.3s.892-7.725,1.064-11.139a64.322,64.322,0,0,0-.109-9.046c-.452-5.133-1.532-8.2-1.17-8.338.079-.03.224.132.431.472.1.17.221.384.355.641s.257.563.4.908a29,29,0,0,1,1.694,6.095,49.787,49.787,0,0,1,.646,9.345c-.052,3.522-.422,7.361-.886,11.34s-.941,7.736-1.2,11.152c-.124,1.7-.227,3.341-.227,4.824a16.08,16.08,0,0,0,.44,4.012,8.2,8.2,0,0,0,3.066,4.7C474.076,358.536,474.9,358.685,474.872,358.88Z" transform="translate(-467.367 -304.251)" fill="#263238"/>
          </g>
          <g id="Grupo_950681" data-name="Grupo 950681" transform="translate(79.021 39.54)">
            <g id="Grupo_950663" data-name="Grupo 950663" transform="translate(0 1.762)">
              <g id="Grupo_950662" data-name="Grupo 950662">
                <g id="Grupo_950661" data-name="Grupo 950661">
                  <g id="Grupo_950660" data-name="Grupo 950660">
                    <g id="Grupo_950659" data-name="Grupo 950659">
                      <g id="Grupo_950658" data-name="Grupo 950658">
                        <g id="Grupo_950657" data-name="Grupo 950657">
                          <g id="Grupo_950656" data-name="Grupo 950656">
                            <g id="Grupo_950655" data-name="Grupo 950655">
                              <g id="Grupo_950654" data-name="Grupo 950654">
                                <g id="Grupo_950653" data-name="Grupo 950653">
                                  <g id="Grupo_950652" data-name="Grupo 950652">
                                    <g id="Grupo_950651" data-name="Grupo 950651">
                                      <g id="Grupo_950650" data-name="Grupo 950650">
                                        <g id="Grupo_950649" data-name="Grupo 950649">
                                          <g id="Grupo_950648" data-name="Grupo 950648">
                                            <path id="Trazado_628002" data-name="Trazado 628002" d="M508.275,357.364a2.966,2.966,0,0,0-2.608-1.194,2.708,2.708,0,0,0-1.9.922,1.693,1.693,0,0,0-.206,1.939,1.993,1.993,0,0,0,2.13.624,6.237,6.237,0,0,0,2.146-1.164,1.8,1.8,0,0,0,.487-.464.542.542,0,0,0,.021-.607" transform="translate(-503.339 -356.163)" fill="#ff9a6c"/>
                                          </g>
                                        </g>
                                      </g>
                                    </g>
                                  </g>
                                </g>
                              </g>
                            </g>
                          </g>
                        </g>
                      </g>
                    </g>
                  </g>
                </g>
              </g>
            </g>
            <g id="Grupo_950680" data-name="Grupo 950680" transform="translate(0.607)">
              <g id="Grupo_950679" data-name="Grupo 950679">
                <g id="Grupo_950678" data-name="Grupo 950678">
                  <g id="Grupo_950677" data-name="Grupo 950677">
                    <g id="Grupo_950676" data-name="Grupo 950676">
                      <g id="Grupo_950675" data-name="Grupo 950675">
                        <g id="Grupo_950674" data-name="Grupo 950674">
                          <g id="Grupo_950673" data-name="Grupo 950673">
                            <g id="Grupo_950672" data-name="Grupo 950672">
                              <g id="Grupo_950671" data-name="Grupo 950671">
                                <g id="Grupo_950670" data-name="Grupo 950670">
                                  <g id="Grupo_950669" data-name="Grupo 950669">
                                    <g id="Grupo_950668" data-name="Grupo 950668">
                                      <g id="Grupo_950667" data-name="Grupo 950667">
                                        <g id="Grupo_950666" data-name="Grupo 950666">
                                          <g id="Grupo_950665" data-name="Grupo 950665">
                                            <g id="Grupo_950664" data-name="Grupo 950664">
                                              <path id="Trazado_628003" data-name="Trazado 628003" d="M502.157,353.2c.267-.005.2,1.765,1.677,3.081s3.379,1.194,3.383,1.442c.021.112-.436.328-1.238.318a4.451,4.451,0,0,1-2.828-1.1,3.833,3.833,0,0,1-1.293-2.579C501.82,353.619,502.036,353.188,502.157,353.2Z" transform="translate(-501.854 -353.202)" fill="#263238"/>
                                            </g>
                                          </g>
                                        </g>
                                      </g>
                                    </g>
                                  </g>
                                </g>
                              </g>
                            </g>
                          </g>
                        </g>
                      </g>
                    </g>
                  </g>
                </g>
              </g>
            </g>
          </g>
          <g id="Grupo_950694" data-name="Grupo 950694" transform="translate(43.909 22.017)">
            <path id="Trazado_628004" data-name="Trazado 628004" d="M539.157,340.865c-2.253,8.184-.341,19.12-2.569,25.69s-3.851,13.862-1.331,20.327l3.47-7.64a9.8,9.8,0,0,0,.749,9.459c1.856,2.744,11.209,5.083,14.531,4.924,3.364-17.739,2.435-31.3-3.373-45.017l-4.484,4.955-4.039-1.727Z" transform="translate(-533.981 -330.683)" fill="#263238"/>
            <g id="Grupo_950691" data-name="Grupo 950691" transform="translate(15.978)">
              <g id="Grupo_950686" data-name="Grupo 950686">
                <g id="Grupo_950682" data-name="Grupo 950682" transform="translate(9.02 0.331)">
                  <path id="Trazado_628005" data-name="Trazado 628005" d="M518.3,332.069a12.34,12.34,0,0,0-.287-1.86,7.3,7.3,0,0,0-.862-2.02,7.675,7.675,0,0,0-5.159-3.551,7.689,7.689,0,0,0-3.993.337,7.159,7.159,0,0,0-1.921,1.03,6.918,6.918,0,0,0-1.6,1.6,7.479,7.479,0,0,0,0,8.921,6.91,6.91,0,0,0,1.6,1.6,7.153,7.153,0,0,0,1.921,1.03,7.685,7.685,0,0,0,3.994.336,7.675,7.675,0,0,0,5.159-3.551,7.32,7.32,0,0,0,.861-2.019,12.341,12.341,0,0,0,.287-1.86.492.492,0,0,1,.006.124c0,.1,0,.217-.006.366a3.566,3.566,0,0,1-.049.593,5.44,5.44,0,0,1-.146.8,7.207,7.207,0,0,1-.836,2.066,7.78,7.78,0,0,1-5.239,3.68,7.863,7.863,0,0,1-4.108-.324,7.359,7.359,0,0,1-1.984-1.054,7.148,7.148,0,0,1-1.658-1.65,7.7,7.7,0,0,1,0-9.2,7.16,7.16,0,0,1,1.659-1.65,7.369,7.369,0,0,1,1.983-1.054,7.867,7.867,0,0,1,4.108-.324,7.778,7.778,0,0,1,5.239,3.679,7.23,7.23,0,0,1,.836,2.066,5.447,5.447,0,0,1,.146.8,3.561,3.561,0,0,1,.049.593c0,.149,0,.269.006.365A.488.488,0,0,1,518.3,332.069Z" transform="translate(-502.75 -324.307)" fill="#455a64"/>
                </g>
                <g id="Grupo_950683" data-name="Grupo 950683" transform="translate(26.325)">
                  <path id="Trazado_628006" data-name="Trazado 628006" d="M489.211,331.512a12.326,12.326,0,0,0-.287-1.86,7.337,7.337,0,0,0-.862-2.02,7.647,7.647,0,0,0-9.152-3.215,7.121,7.121,0,0,0-1.921,1.03,8.485,8.485,0,0,0-.861.728,8.633,8.633,0,0,0-.744.875,7.482,7.482,0,0,0,0,8.921,6.92,6.92,0,0,0,1.6,1.6,7.15,7.15,0,0,0,1.922,1.03,7.685,7.685,0,0,0,3.994.336,7.672,7.672,0,0,0,5.158-3.551,7.3,7.3,0,0,0,.862-2.02,12.315,12.315,0,0,0,.287-1.86.484.484,0,0,1,.006.124c0,.1,0,.217-.007.366a3.456,3.456,0,0,1-.049.593,5.347,5.347,0,0,1-.146.8,7.226,7.226,0,0,1-.836,2.066,7.776,7.776,0,0,1-5.239,3.68,7.867,7.867,0,0,1-4.108-.324,7.347,7.347,0,0,1-1.984-1.054,8.647,8.647,0,0,1-.889-.749,8.817,8.817,0,0,1-.769-.9,7.7,7.7,0,0,1,0-9.2,7.163,7.163,0,0,1,1.659-1.65,7.36,7.36,0,0,1,1.983-1.054,7.864,7.864,0,0,1,4.107-.324,7.776,7.776,0,0,1,5.239,3.679,7.225,7.225,0,0,1,.836,2.066,5.347,5.347,0,0,1,.146.8,3.455,3.455,0,0,1,.049.593c0,.149,0,.27.007.366A.48.48,0,0,1,489.211,331.512Z" transform="translate(-473.664 -323.751)" fill="#455a64"/>
                </g>
                <g id="Grupo_950684" data-name="Grupo 950684" transform="translate(24.331 6.014)">
                  <path id="Trazado_628007" data-name="Trazado 628007" d="M501.6,334.654c-.032.019-.123-.1-.3-.236a1.44,1.44,0,0,0-1.621-.126c-.2.107-.307.209-.336.185s.04-.166.239-.328a1.357,1.357,0,0,1,1.835.143C501.589,334.483,501.629,334.64,501.6,334.654Z" transform="translate(-499.339 -333.858)" fill="#455a64"/>
                </g>
                <g id="Grupo_950685" data-name="Grupo 950685" transform="translate(0 6.128)">
                  <path id="Trazado_628008" data-name="Trazado 628008" d="M537.654,334.057a95.023,95.023,0,0,1-9.4,1.971,95.037,95.037,0,0,1,9.4-1.971Z" transform="translate(-528.257 -334.05)" fill="#455a64"/>
                </g>
              </g>
              <g id="Grupo_950687" data-name="Grupo 950687" transform="translate(10.004 2.608)">
                <path id="Trazado_628009" data-name="Trazado 628009" d="M525.234,338.992a1.22,1.22,0,0,1-.462-.2,4.063,4.063,0,0,1-1.014-.914,6.625,6.625,0,0,1-1.02-1.743,6.989,6.989,0,0,1-.445-2.431,7.474,7.474,0,0,1,1.313-4.237,6.3,6.3,0,0,1,.885-1.032,1.943,1.943,0,0,1,.393-.306,13.36,13.36,0,0,0-1.135,1.432,7.725,7.725,0,0,0-1.212,4.142,7.064,7.064,0,0,0,.411,2.352,6.92,6.92,0,0,0,.946,1.717,4.592,4.592,0,0,0,.93.941C525.08,338.9,525.243,338.972,525.234,338.992Z" transform="translate(-522.293 -328.133)" fill="#fff"/>
              </g>
              <g id="Grupo_950688" data-name="Grupo 950688" transform="translate(13.705 13.813)">
                <path id="Trazado_628010" data-name="Trazado 628010" d="M519.226,347.821a4.218,4.218,0,0,1-2.63-.845,7.346,7.346,0,0,1,1.319.412A7.428,7.428,0,0,1,519.226,347.821Z" transform="translate(-516.594 -346.967)" fill="#fff"/>
              </g>
              <g id="Grupo_950689" data-name="Grupo 950689" transform="translate(27.347 1.032)">
                <path id="Trazado_628011" data-name="Trazado 628011" d="M493.318,325.52c0,.042-.523.043-1.337.22a7.616,7.616,0,0,0-5.058,3.711c-.41.721-.566,1.218-.606,1.2a.985.985,0,0,1,.075-.36,5.882,5.882,0,0,1,.379-.926,7.129,7.129,0,0,1,5.178-3.8,5.9,5.9,0,0,1,1-.086A1,1,0,0,1,493.318,325.52Z" transform="translate(-486.312 -325.486)" fill="#fff"/>
              </g>
              <g id="Grupo_950690" data-name="Grupo 950690" transform="translate(27.175 7.342)">
                <path id="Trazado_628012" data-name="Trazado 628012" d="M497.972,338.592a2.939,2.939,0,0,1-.448-2.5,18.084,18.084,0,0,0,.448,2.5Z" transform="translate(-497.407 -336.091)" fill="#fff"/>
              </g>
            </g>
            <g id="Grupo_950692" data-name="Grupo 950692" transform="translate(16.993 19.564)">
              <path id="Trazado_628013" data-name="Trazado 628013" d="M535.869,402.06c-.134.083-.63-.388-1.324-1.394a20.559,20.559,0,0,1-2.269-4.631,36.563,36.563,0,0,1-1.729-7.422,89.233,89.233,0,0,1-.665-9.192c-.1-3.232-.19-6.282-.425-9.028a50.458,50.458,0,0,0-1.076-7.2c-.925-4.037-2.172-6.355-1.837-6.549.136-.081.623.4,1.3,1.417a20.877,20.877,0,0,1,2.2,4.661,37.567,37.567,0,0,1,1.653,7.435c.369,2.833.529,5.951.629,9.189s.2,6.274.459,9.016a48.52,48.52,0,0,0,1.147,7.182C534.907,399.565,536.2,401.859,535.869,402.06Z" transform="translate(-526.488 -356.634)" fill="#263238"/>
            </g>
            <g id="Grupo_950693" data-name="Grupo 950693" transform="translate(10.893 16.718)">
              <path id="Trazado_628014" data-name="Trazado 628014" d="M544.493,352.518c.014.018-.146.129-.36.392a2.507,2.507,0,0,0-.526,1.3,2.261,2.261,0,0,0,.69,1.882,2.474,2.474,0,0,0,2.341.654,2.663,2.663,0,0,0,1.847-1.608,2.922,2.922,0,0,0,0-2.047,1.933,1.933,0,0,0-.866-1.077,1.656,1.656,0,0,0-.5-.134c0-.006.046-.023.14-.028a.925.925,0,0,1,.4.076,1.957,1.957,0,0,1,.987,1.1,3.033,3.033,0,0,1,.05,2.188,2.859,2.859,0,0,1-2,1.765,2.633,2.633,0,0,1-1.428-.038,2.794,2.794,0,0,1-1.132-.694,2.542,2.542,0,0,1-.624-1.023,2.422,2.422,0,0,1-.079-1.038,2.465,2.465,0,0,1,.625-1.34A1.2,1.2,0,0,1,544.493,352.518Z" transform="translate(-543.412 -351.851)" fill="#e0e0e0"/>
            </g>
          </g>
          <g id="Grupo_950708" data-name="Grupo 950708" transform="translate(0.243 27.004)">
            <g id="Grupo_950706" data-name="Grupo 950706" transform="translate(9.906)">
              <g id="Grupo_950701" data-name="Grupo 950701">
                <g id="Grupo_950700" data-name="Grupo 950700">
                  <g id="Grupo_950699" data-name="Grupo 950699">
                    <g id="Grupo_950698" data-name="Grupo 950698">
                      <g id="Grupo_950697" data-name="Grupo 950697">
                        <g id="Grupo_950696" data-name="Grupo 950696">
                          <g id="Grupo_950695" data-name="Grupo 950695">
                            <path id="Trazado_628015" data-name="Trazado 628015" d="M585.1,362.159l.613-7.759,1.587-9.8,2.464-8.025s.5-.76,1.476-.04-.412,5.094-.412,5.094l-.527,3.345s.328,2.661.548,2.463,1.364-4.666,1.364-4.666l2.946-9.545a1.314,1.314,0,0,1,1.728-.5c.646.281.978,1.3.738,2.731s-1.138,3.805-1.294,4.619-1.214,5.495-1.214,5.495l4.494-10.548s1-3.481,2.43-2.812.162,3.108-.024,4.2-3.144,8.284-3.188,10.373.4,1.09.4,1.09l2.2-5.944c.971-2.62,2.166-4.07,3.36-4.14s-1.056,6-1.056,6L600.8,352.3l.193,2.828,2.226-2.289s.413-3.266,2.618-4.41c2.241-1.163,2.57.446,2.57.446l-5.209,12.256c-1.132,1.973-7.444,5.37-7.444,5.37L593.324,379.1l-13.193-2.2Z" transform="translate(-580.131 -332.131)" fill="#ffbf9d"/>
                          </g>
                        </g>
                      </g>
                    </g>
                  </g>
                </g>
              </g>
              <g id="Grupo_950705" data-name="Grupo 950705" transform="translate(10.038 20.71)">
                <g id="Grupo_950704" data-name="Grupo 950704">
                  <g id="Grupo_950703" data-name="Grupo 950703">
                    <g id="Grupo_950702" data-name="Grupo 950702">
                      <path id="Trazado_628016" data-name="Trazado 628016" d="M588.841,372.177a14.033,14.033,0,0,0,1.9-1.267,7.222,7.222,0,0,1,4.989-1.45A3.868,3.868,0,0,1,598,370.565l.2.211.217-.228c.956-1.007,1.958-1.868,2.567-2.5.636-.627.963-1.061.906-1.1a7.427,7.427,0,0,0-1.13.859,36.338,36.338,0,0,0-2.772,2.416l.414-.017a4.267,4.267,0,0,0-2.581-1.312,5.941,5.941,0,0,0-3.128.4,9.421,9.421,0,0,0-2.187,1.287A6.716,6.716,0,0,0,588.841,372.177Z" transform="translate(-588.839 -366.941)" fill="#ff9a6c"/>
                    </g>
                  </g>
                </g>
              </g>
            </g>
            <path id="Trazado_628017" data-name="Trazado 628017" d="M620.164,428.51l7.054-39.226-10.68-4.629-14.412,43.236Z" transform="translate(-602.126 -353.406)" fill="#ffbf9d"/>
            <g id="Grupo_950707" data-name="Grupo 950707" transform="translate(17.036 34.375)">
              <path id="Trazado_628018" data-name="Trazado 628018" d="M601.391,431a10.328,10.328,0,0,0,.472-1.583c.271-1.027.643-2.52,1.076-4.368.873-3.7,1.991-8.824,3.141-14.5s2.126-10.835,2.8-14.571c.315-1.806.576-3.3.774-4.429a10.26,10.26,0,0,0,.215-1.637,10.208,10.208,0,0,0-.41,1.6c-.238,1.123-.553,2.605-.933,4.4l-2.95,14.538c-1.161,5.632-2.21,10.728-2.993,14.525-.374,1.794-.683,3.278-.917,4.4A10.167,10.167,0,0,0,601.391,431Z" transform="translate(-601.385 -389.908)" fill="#ff9a6c"/>
            </g>
          </g>
        </g>
      </g>
    </g>
  </g>
</svg>
