<svg xmlns="http://www.w3.org/2000/svg" width="68.271" height="68.268" viewBox="0 0 68.271 68.268">
  <g id="Grupo_1044077" data-name="Grupo 1044077" transform="translate(-619.729 -12222.275)">
    <path id="Trazado_631335" data-name="Trazado 631335" d="M215.672,673.965q0-16.133,0-32.267c0-1.428.4-1.834,1.808-1.834h51.267c1.446,0,1.845.406,1.845,1.875q0,10.9-.006,21.8c0,.4.04.665.5.836a1.146,1.146,0,0,1,.711,1.307,1.468,1.468,0,0,0,1.182,1.86,1.254,1.254,0,0,0,1.612-.337c.971-1.062,1.592-1.031,2.611-.013q1.933,1.932,3.866,3.865c.854.856.914,1.559.017,2.325a1.449,1.449,0,0,0-.4,2.006,1.291,1.291,0,0,0,1.492.952c1.32-.058,1.767.429,1.768,1.733,0,1.889,0,3.778,0,5.667,0,1.1-.5,1.657-1.586,1.568a1.473,1.473,0,0,0-1.757,1.148,1.308,1.308,0,0,0,.388,1.721c1,.906.972,1.522.03,2.467q-1.977,1.983-3.96,3.959a1.393,1.393,0,0,1-2.339,0c-.822-.811-.822-.811-1.909-.362-1,.412-1.016.413-1,1.531a1.441,1.441,0,0,1-.964,1.628c-.359.116-.25.37-.251.588q-.009,4.166,0,8.333c0,1.378-.425,1.812-1.776,1.812h-51.4c-1.316,0-1.743-.434-1.744-1.767Q215.672,690.164,215.672,673.965ZM238.625,648.4c-.221.986-.622,1.327-1.6,1.33-2.044,0-4.089.008-6.133,0a1.312,1.312,0,0,1-1.475-1.418c-.007-.406-.152-.456-.5-.452-1.466.017-2.934.044-4.4-.01-.666-.024-.871.117-.869.834q.036,22.8.018,45.594c0,1.777.009,3.555-.007,5.333,0,.371.036.535.487.534q18.965-.022,37.929,0c.4,0,.531-.084.522-.509-.029-1.421-.041-2.845,0-4.265a1.078,1.078,0,0,0-.747-1.157,1.387,1.387,0,0,0-2,.4c-.753.876-1.462.832-2.277.021q-1.938-1.927-3.866-3.864c-1.078-1.078-1.109-1.671.021-2.7.531-.484.51-.846.309-1.5a1.521,1.521,0,0,0-1.885-1.253,1.271,1.271,0,0,1-1.486-1.4c-.026-2.044-.023-4.088,0-6.132a1.331,1.331,0,0,1,1.4-1.447,2.857,2.857,0,0,1,.665,0c.611.1.819-.2,1.1-.724a1.623,1.623,0,0,0-.462-2.39,1.212,1.212,0,0,1-.035-1.933q2.19-2.24,4.43-4.431a1.19,1.19,0,0,1,1.882.006,1.683,1.683,0,0,0,2.559.437c.262-.152.395-.264.394-.582q-.014-9.2,0-18.4c0-.334-.065-.464-.433-.459-1.622.02-3.244.017-4.866,0-.332,0-.438.069-.454.428a1.342,1.342,0,0,1-1.53,1.443q-2.9.011-5.8,0c-.976,0-1.381-.347-1.6-1.329.209-.982.618-1.331,1.59-1.335,1.4-.005,2.8-.013,4.2.006.365,0,.5-.083.493-.474q-.036-1.8,0-3.6c.007-.387-.122-.477-.49-.476q-10.593.015-21.187,0c-.331,0-.466.061-.459.431.024,1.221.028,2.443,0,3.664-.01.42.167.454.508.451,1.466-.015,2.932-.009,4.4-.006A1.406,1.406,0,0,1,238.625,648.4Zm18.74,25.751a1.808,1.808,0,0,1-.146.471,15.642,15.642,0,0,0-1.448,3.49,1.192,1.192,0,0,1-1.151.863,4.319,4.319,0,0,1-.732.007c-.428-.046-.6.1-.575.551.035.753.01,1.51.01,2.265,0,.864,0,.864.89.867.939,0,1.375.244,1.593,1a15.446,15.446,0,0,0,1.375,3.305,1.277,1.277,0,0,1-.21,1.593,5.522,5.522,0,0,1-.562.567c-.25.208-.23.363,0,.582a20.721,20.721,0,0,1,1.734,1.749c.454.552.732.454,1.16-.018.666-.736,1.188-.862,1.873-.485a15.424,15.424,0,0,0,3.308,1.366,1.265,1.265,0,0,1,.972,1.28,3.162,3.162,0,0,1,0,.6c-.083.523.149.639.631.61.686-.041,1.376-.01,2.065-.01.974,0,.974,0,.984-.961.009-.874.3-1.341,1.069-1.546A13.663,13.663,0,0,0,273.332,691a1.341,1.341,0,0,1,1.809.255,1.915,1.915,0,0,1,.279.286c.328.481.6.391.952-.01.466-.534,1-1.013,1.5-1.516.605-.606.605-.606-.005-1.222-.657-.663-.807-1.167-.441-1.833a15.346,15.346,0,0,0,1.367-3.308,1.284,1.284,0,0,1,1.336-.99,5.531,5.531,0,0,1,.666,0c.366.041.505-.076.49-.468-.03-.776-.009-1.554-.009-2.331,0-.876,0-.876-.874-.883-.947-.008-1.4-.246-1.608-.983a15.083,15.083,0,0,0-1.369-3.306,1.288,1.288,0,0,1,.205-1.6,4.764,4.764,0,0,1,.517-.519c.287-.233.3-.411.011-.677a21.96,21.96,0,0,1-1.739-1.745c-.411-.477-.665-.422-1.066.012-.735.794-1.2.919-1.917.529a15.584,15.584,0,0,0-3.308-1.367,1.28,1.28,0,0,1-.988-1.334,6.971,6.971,0,0,1,0-.732c.029-.323-.1-.426-.416-.419-.8.017-1.6.05-2.4-.009-.682-.05-.924.139-.883.86.061,1.07-.248,1.447-1.255,1.731a13.042,13.042,0,0,0-2.815,1.17,1.369,1.369,0,0,1-1.968-.262,3.859,3.859,0,0,1-.374-.38c-.22-.285-.391-.248-.63,0-.611.644-1.23,1.284-1.888,1.88-.364.33-.319.534.022.825A1.848,1.848,0,0,1,257.366,674.15Zm-39.026-.16q0,15.364-.014,30.728c0,.6.133.762.75.761q24.03-.028,48.059-.015a2.874,2.874,0,0,1,.333,0c.332.039.467-.069.465-.435q-.022-3.566,0-7.132c0-.365-.131-.452-.464-.44-.577.021-1.156.027-1.733,0-.378-.019-.493.107-.484.484.023,1.066.012,2.133.007,3.2-.005,1.174-.489,1.657-1.665,1.657q-20.464,0-40.927,0c-1.191,0-1.66-.466-1.66-1.651q0-27.162,0-54.323c0-1.139.484-1.623,1.619-1.625,2.089,0,4.177-.011,6.266.008.4,0,.556-.084.524-.511a10.191,10.191,0,0,1,0-1.6c.041-.485-.14-.58-.594-.577-3.244.02-6.488.025-9.732,0-.586-.005-.768.118-.767.745Q218.357,658.626,218.34,673.99Zm49.586-20.634c0-3.333-.017-6.665.015-10,.006-.637-.1-.862-.812-.849-2.732.051-5.465.018-8.2.022-.663,0-1.549-.227-1.93.107-.437.385-.07,1.295-.151,1.969-.066.542.179.6.64.6,2.044-.022,4.088-.012,6.132-.009,1.14,0,1.631.485,1.635,1.617.007,1.644,0,3.288,0,4.932,0,3.91.015,7.82-.016,11.73,0,.607.171.776.742.716a6.513,6.513,0,0,1,1.331,0c.52.053.623-.157.62-.641C267.916,660.154,267.926,656.755,267.926,653.356Z" transform="translate(404.057 11582.412)" fill="#010101"/>
    <path id="Trazado_631336" data-name="Trazado 631336" d="M269.81,670.288c.215.983.62,1.327,1.6,1.329q2.9.007,5.8,0a1.342,1.342,0,0,0,1.53-1.443c.016-.36.123-.432.454-.428,1.622.016,3.244.018,4.866,0,.368,0,.434.125.433.459q-.014,9.2,0,18.4c0,.318-.132.43-.394.582a1.683,1.683,0,0,1-2.559-.437,1.19,1.19,0,0,0-1.882-.006q-2.239,2.191-4.43,4.431a1.212,1.212,0,0,0,.035,1.933,1.623,1.623,0,0,1,.462,2.39c-.281.522-.49.828-1.1.724a2.854,2.854,0,0,0-.665,0,1.331,1.331,0,0,0-1.4,1.447c-.021,2.044-.024,4.089,0,6.132a1.271,1.271,0,0,0,1.486,1.4,1.521,1.521,0,0,1,1.885,1.253c.2.657.222,1.019-.309,1.5-1.13,1.031-1.1,1.624-.021,2.7q1.932,1.933,3.866,3.864c.816.811,1.525.855,2.277-.021a1.387,1.387,0,0,1,2-.4,1.078,1.078,0,0,1,.747,1.157c-.044,1.421-.032,2.844,0,4.265.009.425-.123.509-.522.509q-18.965-.016-37.929,0c-.45,0-.49-.163-.487-.534.017-1.777.007-3.555.007-5.333q0-22.8-.018-45.594c0-.718.2-.858.87-.834,1.465.053,2.933.026,4.4.01.346,0,.491.046.5.452a1.312,1.312,0,0,0,1.475,1.418c2.044.009,4.089.006,6.133,0,.975,0,1.377-.343,1.6-1.33h3.294c.19.874.623,1.31,1.32,1.328.722.018,1.189-.429,1.387-1.328Zm.541,8.084h-6.93c-.711,0-1.423-.019-2.132.015a1.3,1.3,0,0,0-1.271,1.284A1.314,1.314,0,0,0,261.171,681a4.482,4.482,0,0,0,.729.038q6.6,0,13.194,0,1.966,0,3.931,0a1.492,1.492,0,0,0,1.347-.576,1.257,1.257,0,0,0,.1-1.383,1.355,1.355,0,0,0-1.327-.715Q274.749,678.378,270.351,678.372ZM267.6,689.777q3.03,0,6.059,0a1.54,1.54,0,0,0,1.008-.255,1.311,1.311,0,0,0,.476-1.484c-.159-.6-.706-.928-1.522-.928q-5.992-.006-11.985,0c-1.008,0-1.635.537-1.623,1.361.011.8.617,1.3,1.595,1.3C263.61,689.78,265.607,689.777,267.6,689.777ZM266.5,716.048v0c1.688,0,3.375.01,5.063,0a1.333,1.333,0,1,0,.054-2.657c-3.4-.016-6.8-.01-10.193,0a1.327,1.327,0,1,0-.053,2.652C263.077,716.069,264.788,716.048,266.5,716.048Zm-1.314-11.409c-1.222,0-2.445-.011-3.667,0a1.342,1.342,0,1,0,.023,2.662q3.633.016,7.266,0a1.342,1.342,0,1,0-.023-2.662C267.584,704.629,266.384,704.639,265.184,704.64Zm-7.6-18.543a1.243,1.243,0,0,0-.8-1.189,1.269,1.269,0,0,0-1.467.288c-.745.728-1.478,1.469-2.215,2.2-.667.666-.666.666-1.368.028a1.331,1.331,0,1,0-1.88,1.881q.757.794,1.551,1.552a1.3,1.3,0,0,0,2,.009c1.267-1.24,2.512-2.5,3.763-3.76A1.285,1.285,0,0,0,257.583,686.1Zm.006,26.488a1.35,1.35,0,0,0-.778-1.391,1.247,1.247,0,0,0-1.471.253c-.75.723-1.48,1.466-2.218,2.2-.684.683-.684.683-1.416.026a1.329,1.329,0,1,0-1.878,1.88c.486.517.993,1.013,1.5,1.508a1.345,1.345,0,0,0,2.143.009c1.216-1.2,2.417-2.41,3.624-3.618A1.377,1.377,0,0,0,257.589,712.585Zm-.006-17.631a1.327,1.327,0,0,0-2.258-1.015c-.731.71-1.445,1.438-2.167,2.159s-.712.712-1.453.063a1.33,1.33,0,1,0-1.878,1.884c.5.535,1.02,1.049,1.548,1.554a1.338,1.338,0,0,0,2.052,0c1.25-1.226,2.48-2.473,3.716-3.713A1.263,1.263,0,0,0,257.584,694.954Zm7.625.926c-1.222,0-2.444-.005-3.666,0a1.342,1.342,0,1,0-.027,2.662q3.633.012,7.265,0a1.342,1.342,0,1,0,.027-2.662C267.609,695.874,266.409,695.88,265.209,695.88ZM250.9,678.239a1.347,1.347,0,0,0-1.375.8,1.233,1.233,0,0,0,.241,1.416c.5.534,1.023,1.046,1.546,1.558a1.349,1.349,0,0,0,2.19-.008q1.773-1.755,3.528-3.528a1.384,1.384,0,0,0,.176-2.052,1.348,1.348,0,0,0-2.047.161c-.805.794-1.613,1.586-2.392,2.406-.274.288-.441.324-.712.008C251.71,678.6,251.331,678.207,250.9,678.239Zm0,26.278a1.325,1.325,0,0,0-1.362.762,1.221,1.221,0,0,0,.2,1.422c.508.556,1.05,1.083,1.59,1.608a1.337,1.337,0,0,0,2.144,0q1.8-1.776,3.575-3.576a1.373,1.373,0,0,0,.134-2.051,1.332,1.332,0,0,0-2,.157c-.791.777-1.589,1.549-2.345,2.359-.326.349-.532.417-.855.012A1.464,1.464,0,0,0,250.9,704.517Z" transform="translate(382.167 11560.525)" fill="#fdfdfd"/>
    <path id="Trazado_631337" data-name="Trazado 631337" d="M360.59,748.109a1.848,1.848,0,0,0-.827-1.483c-.341-.291-.386-.5-.022-.825.657-.6,1.276-1.236,1.888-1.88.239-.252.41-.288.63,0a3.859,3.859,0,0,0,.374.38,1.369,1.369,0,0,0,1.968.262,13.054,13.054,0,0,1,2.815-1.17c1.007-.284,1.316-.661,1.255-1.731-.041-.721.2-.91.883-.86.8.059,1.6.026,2.4.008.317-.007.445.1.416.419a6.986,6.986,0,0,0,0,.732,1.28,1.28,0,0,0,.988,1.334,15.577,15.577,0,0,1,3.308,1.367c.713.39,1.182.266,1.917-.529.4-.434.655-.489,1.066-.012a21.954,21.954,0,0,0,1.739,1.745c.287.266.276.444-.011.677a4.763,4.763,0,0,0-.517.519,1.288,1.288,0,0,0-.205,1.6,15.083,15.083,0,0,1,1.369,3.306c.208.736.661.975,1.608.983.874.007.874.007.874.883,0,.777-.021,1.555.009,2.331.015.391-.124.508-.49.468a5.543,5.543,0,0,0-.666,0,1.285,1.285,0,0,0-1.336.991,15.343,15.343,0,0,1-1.367,3.308c-.367.666-.216,1.17.441,1.833.611.616.611.616.005,1.222-.5.5-1.032.981-1.5,1.516-.351.4-.623.492-.952.01a1.909,1.909,0,0,0-.279-.286,1.341,1.341,0,0,0-1.809-.255,13.668,13.668,0,0,1-3.125,1.287c-.765.2-1.061.673-1.069,1.546-.01.961-.01.961-.984.961-.688,0-1.379-.031-2.065.01-.482.029-.714-.087-.631-.61a3.157,3.157,0,0,0,0-.6,1.265,1.265,0,0,0-.972-1.28,15.428,15.428,0,0,1-3.307-1.366c-.686-.377-1.207-.251-1.873.485-.427.472-.705.569-1.16.018a20.717,20.717,0,0,0-1.734-1.749c-.23-.219-.25-.374,0-.582a5.513,5.513,0,0,0,.563-.567,1.277,1.277,0,0,0,.209-1.593,15.444,15.444,0,0,1-1.375-3.305c-.219-.752-.654-.992-1.593-1-.89,0-.89,0-.89-.867,0-.755.026-1.512-.01-2.265-.021-.455.147-.6.575-.551a4.319,4.319,0,0,0,.732-.007A1.192,1.192,0,0,0,359,752.07a15.643,15.643,0,0,1,1.448-3.49A1.808,1.808,0,0,0,360.59,748.109Zm8.394,14.347a4.145,4.145,0,0,0,2.861-1.23q3.434-3.441,6.874-6.877a1.378,1.378,0,0,0-.015-2.246q-1.64-1.656-3.3-3.3c-.916-.913-1.552-.906-2.484.023-1.21,1.208-2.426,2.409-3.621,3.631-.256.262-.406.3-.664.008-.365-.417-.77-.8-1.174-1.18a1.333,1.333,0,0,0-2.055-.005q-1.831,1.795-3.626,3.627a1.294,1.294,0,0,0,0,2q2.2,2.228,4.429,4.424A3.976,3.976,0,0,0,368.983,762.456Z" transform="translate(300.832 11508.455)" fill="#ade0a9"/>
    <path id="Trazado_631338" data-name="Trazado 631338" d="M225.612,681.267q0-15.364-.016-30.728c0-.627.18-.75.767-.745,3.244.028,6.488.023,9.732,0,.453,0,.635.092.594.577a10.2,10.2,0,0,0,0,1.6c.032.427-.125.514-.524.511-2.088-.019-4.177-.012-6.266-.008-1.135,0-1.619.486-1.619,1.625q0,27.162,0,54.323c0,1.185.469,1.651,1.66,1.651q20.463,0,40.927,0c1.176,0,1.66-.483,1.665-1.657,0-1.066.016-2.133-.007-3.2-.008-.377.106-.5.484-.484.576.029,1.156.023,1.733,0,.333-.012.467.075.464.44q-.023,3.566,0,7.132c0,.366-.133.474-.465.435a2.888,2.888,0,0,0-.333,0q-24.029,0-48.059.015c-.617,0-.751-.166-.75-.761Q225.626,696.631,225.612,681.267Z" transform="translate(396.784 11575.135)" fill="#c9a187"/>
    <path id="Trazado_631339" data-name="Trazado 631339" d="M286.869,655.695h-3.294a1.406,1.406,0,0,0-1.658-1.335c-1.466,0-2.932-.009-4.4.006-.341,0-.518-.031-.508-.451.029-1.221.025-2.443,0-3.664-.007-.37.128-.431.459-.431q10.594.013,21.187,0c.368,0,.5.09.49.476q-.036,1.8,0,3.6c.008.391-.128.479-.493.474-1.4-.019-2.8-.012-4.2-.006-.972,0-1.38.352-1.59,1.335h-3.294c-.192-.9-.662-1.352-1.387-1.334C287.488,654.378,287.052,654.818,286.869,655.695Z" transform="translate(359.107 11575.117)" fill="#84ddf3"/>
    <path id="Trazado_631340" data-name="Trazado 631340" d="M380.669,660.469c0,3.4-.01,6.8.01,10.2,0,.484-.1.693-.62.641a6.521,6.521,0,0,0-1.331,0c-.571.061-.747-.109-.742-.716.031-3.91.016-7.82.016-11.73,0-1.644,0-3.288,0-4.932,0-1.133-.5-1.615-1.635-1.617-2.044,0-4.088-.014-6.132.009-.46.005-.705-.056-.64-.6.082-.674-.285-1.584.151-1.968.381-.335,1.267-.106,1.93-.108,2.733,0,5.466.028,8.2-.022.71-.013.817.212.811.849C380.652,653.8,380.669,657.136,380.669,660.469Z" transform="translate(291.313 11575.299)" fill="#c8a087"/>
    <path id="Trazado_631341" data-name="Trazado 631341" d="M310.044,702.052q4.4,0,8.8,0a1.355,1.355,0,0,1,1.327.715,1.257,1.257,0,0,1-.1,1.383,1.492,1.492,0,0,1-1.347.576q-1.966,0-3.931,0-6.6,0-13.194,0a4.489,4.489,0,0,1-.729-.038,1.314,1.314,0,0,1-1.153-1.332,1.3,1.3,0,0,1,1.271-1.284c.709-.034,1.421-.015,2.132-.015Z" transform="translate(342.474 11536.846)" fill="#050505"/>
    <path id="Trazado_631342" data-name="Trazado 631342" d="M307.3,737.425c-2,0-3.995,0-5.992,0-.977,0-1.583-.5-1.595-1.3-.012-.824.615-1.36,1.623-1.361q5.992-.007,11.985,0c.816,0,1.363.327,1.522.928a1.311,1.311,0,0,1-.476,1.484,1.541,1.541,0,0,1-1.008.255Q310.326,737.423,307.3,737.425Z" transform="translate(342.475 11512.877)" fill="#040404"/>
    <path id="Trazado_631343" data-name="Trazado 631343" d="M306.182,835.75c-1.71,0-3.42.021-5.13-.008a1.327,1.327,0,1,1,.053-2.652c3.4-.007,6.8-.012,10.193,0a1.333,1.333,0,1,1-.054,2.657c-1.688.014-3.375,0-5.063,0Z" transform="translate(342.482 11440.822)" fill="#050505"/>
    <path id="Trazado_631344" data-name="Trazado 631344" d="M304.878,800.358c1.2,0,2.4-.01,3.6,0a1.342,1.342,0,1,1,.023,2.662q-3.633.019-7.266,0a1.342,1.342,0,1,1-.023-2.662C302.433,800.346,303.655,800.358,304.878,800.358Z" transform="translate(342.474 11464.807)" fill="#050505"/>
    <path id="Trazado_631345" data-name="Trazado 631345" d="M268.182,727.392a1.286,1.286,0,0,1-.419,1.013c-1.251,1.256-2.5,2.52-3.763,3.76a1.3,1.3,0,0,1-2-.009q-.794-.757-1.551-1.552a1.331,1.331,0,1,1,1.88-1.881c.7.638.7.638,1.368-.028.737-.736,1.47-1.477,2.215-2.2a1.269,1.269,0,0,1,1.468-.288A1.243,1.243,0,0,1,268.182,727.392Z" transform="translate(371.568 11519.23)" fill="#050505"/>
    <path id="Trazado_631346" data-name="Trazado 631346" d="M268.186,825.922a1.377,1.377,0,0,1-.493.871c-1.206,1.207-2.408,2.42-3.624,3.618a1.345,1.345,0,0,1-2.143-.009c-.508-.495-1.016-.991-1.5-1.508a1.329,1.329,0,1,1,1.878-1.88c.732.657.732.656,1.416-.026.737-.736,1.467-1.479,2.218-2.2a1.247,1.247,0,0,1,1.471-.253A1.35,1.35,0,0,1,268.186,825.922Z" transform="translate(371.57 11447.188)" fill="#050505"/>
    <path id="Trazado_631347" data-name="Trazado 631347" d="M268.186,760.26a1.263,1.263,0,0,1-.438.929c-1.237,1.24-2.466,2.487-3.716,3.713a1.338,1.338,0,0,1-2.052,0c-.529-.5-1.05-1.019-1.549-1.554a1.33,1.33,0,1,1,1.878-1.884c.742.649.742.649,1.453-.063s1.435-1.449,2.167-2.159a1.327,1.327,0,0,1,2.258,1.015Z" transform="translate(371.564 11495.219)" fill="#030303"/>
    <path id="Trazado_631348" data-name="Trazado 631348" d="M304.912,767.582c1.2,0,2.4-.006,3.6,0a1.342,1.342,0,1,1-.027,2.663q-3.633.009-7.265,0a1.342,1.342,0,1,1,.027-2.662C302.468,767.576,303.69,767.582,304.912,767.582Z" transform="translate(342.464 11488.824)" fill="#020202"/>
    <path id="Trazado_631349" data-name="Trazado 631349" d="M261.486,695.507c.43-.032.809.36,1.155.765.271.316.439.28.712-.008.779-.819,1.587-1.611,2.392-2.406a1.348,1.348,0,0,1,2.047-.161,1.384,1.384,0,0,1-.176,2.052q-1.758,1.771-3.529,3.528a1.349,1.349,0,0,1-2.19.008c-.523-.512-1.046-1.024-1.546-1.558a1.233,1.233,0,0,1-.241-1.416A1.347,1.347,0,0,1,261.486,695.507Z" transform="translate(371.582 11543.258)" fill="#020202"/>
    <path id="Trazado_631350" data-name="Trazado 631350" d="M261.481,793.824a1.464,1.464,0,0,1,1.085.692c.323.405.529.337.855-.012.756-.81,1.554-1.582,2.345-2.359a1.332,1.332,0,0,1,2-.157,1.373,1.373,0,0,1-.134,2.051q-1.779,1.8-3.575,3.576a1.337,1.337,0,0,1-2.144,0c-.541-.526-1.082-1.052-1.59-1.608a1.221,1.221,0,0,1-.2-1.422A1.325,1.325,0,0,1,261.481,793.824Z" transform="translate(371.589 11471.219)" fill="#020202"/>
    <path id="Trazado_631351" data-name="Trazado 631351" d="M313.9,668.151c.184-.876.619-1.316,1.32-1.334.725-.018,1.2.433,1.387,1.334-.2.9-.665,1.346-1.387,1.328C314.524,669.461,314.091,669.025,313.9,668.151Z" transform="translate(332.075 11562.662)" fill="#050505"/>
    <path id="Trazado_631352" data-name="Trazado 631352" d="M382.08,782.573a3.971,3.971,0,0,1-2.77-1.12q-2.228-2.2-4.429-4.424a1.294,1.294,0,0,1,0-2q1.792-1.833,3.626-3.627a1.333,1.333,0,0,1,2.055.005c.4.38.809.763,1.174,1.18.258.295.408.255.664-.008,1.195-1.222,2.411-2.424,3.621-3.631.931-.929,1.567-.936,2.484-.023q1.651,1.645,3.3,3.3a1.378,1.378,0,0,1,.015,2.246q-3.431,3.445-6.874,6.877A4.141,4.141,0,0,1,382.08,782.573Zm-.025-2.673a1.568,1.568,0,0,0,1.045-.481q2.869-2.877,5.75-5.741c.234-.232.287-.387.014-.632a15.246,15.246,0,0,1-1.223-1.224c-.271-.307-.436-.3-.727-.005-1.238,1.273-2.5,2.525-3.763,3.773a1.384,1.384,0,0,1-2.16.029c-.515-.457-.911-1.4-1.529-1.288-.576.1-1.014.926-1.533,1.411-.234.219-.233.359,0,.584,1.062,1.041,2.108,2.1,3.162,3.149A1.505,1.505,0,0,0,382.054,779.9Z" transform="translate(287.735 11488.336)" fill="#020303"/>
    <path id="Trazado_631353" data-name="Trazado 631353" d="M391.224,789.078a1.505,1.505,0,0,1-.969-.427c-1.053-1.05-2.1-2.108-3.162-3.149-.229-.225-.23-.365,0-.584.519-.484.957-1.307,1.533-1.411.619-.112,1.015.831,1.529,1.288a1.384,1.384,0,0,0,2.16-.029c1.265-1.247,2.525-2.5,3.763-3.773.291-.3.456-.3.727.005a15.25,15.25,0,0,0,1.223,1.224c.273.245.22.4-.014.632q-2.885,2.86-5.75,5.741A1.569,1.569,0,0,1,391.224,789.078Z" transform="translate(278.566 11479.158)" fill="#83daf0"/>
  </g>
</svg>
