<svg xmlns="http://www.w3.org/2000/svg" width="88.215" height="88.215" viewBox="0 0 88.215 88.215">
  <g id="Grupo_980319" data-name="Grupo 980319" transform="translate(-750.393 -1955)">
    <g id="Grupo_952196" data-name="Grupo 952196" transform="translate(447.393 -1974)">
      <g id="Grupo_951854" data-name="Grupo 951854" transform="translate(303 3929)">
        <path id="Trazado_621807" data-name="Trazado 621807" d="M44.107,0A44.107,44.107,0,1,1,0,44.107,44.107,44.107,0,0,1,44.107,0Z" fill="#0e763d"/>
      </g>
    </g>
    <g id="Grupo_952057" data-name="Grupo 952057" transform="translate(-915.765 1615.725)">
      <path id="Trazado_628703" data-name="Trazado 628703" d="M1698.8,362.518c-.565-.548-1.086-1.057-1.61-1.562a1.564,1.564,0,0,1-.562-1.02c-.256-4.083,1.053-7.427,4.632-9.668a8.841,8.841,0,0,1,4.68-1.368c2.9-.025,5.8-.055,8.7.005a9.62,9.62,0,0,1,9.3,9.2,3.942,3.942,0,0,1-1.526,3.8,5.3,5.3,0,0,0-.639.665,2.8,2.8,0,0,1,1.938,1.694,5.468,5.468,0,0,1,.052,3.189,2.636,2.636,0,0,1-2.461,1.9,9.851,9.851,0,0,1-1.024,0c-.381-.02-.568.047-.666.513a9.325,9.325,0,0,1-4.279,6.2c-.373.235-.4.467-.387.89a2.057,2.057,0,0,0,1.935,2.315c1.551.272,3.006.99,4.553,1.368a8.8,8.8,0,0,1,3.127,1.5c.319.236.5.212.758-.1q1.919-2.394,3.881-4.753a1.7,1.7,0,0,0,.32-.863,6.736,6.736,0,0,1,6.664-5.691c4.465-.026,8.929-.011,13.393,0,1.184,0,1.684.556,1.631,1.762a6.827,6.827,0,0,1-6.548,6.41c-1.449.042-2.9.025-4.35.005a.96.96,0,0,0-.963.491c-2.7,4.266-5.41,8.532-8.173,12.76-.616.942-.363,1.909-.415,2.874-.022.425.374.249.583.251,1.734.014,3.469.008,5.2.008q5.076,0,10.152,0c1.339,0,1.792.45,1.792,1.783,0,6.4.013,12.794-.016,19.189,0,.7.137.913.864.881,1.457-.062,1.88.4,1.882,1.845q0,2.217,0,4.435c0,1.461-.421,1.888-1.86,1.889h-77.97c-1.733,0-2.07-.343-2.07-2.1,0-1.45,0-2.9,0-4.35,0-1.276.468-1.791,1.753-1.713.84.052,1-.2,1-1.011-.038-6.311-.022-12.622-.021-18.934,0-1.511.4-1.912,1.919-1.913,5.034,0,10.066-.011,15.1.015.6,0,.73-.146.752-.74a4.767,4.767,0,0,0-.838-2.931c-2.624-4.014-5.174-8.077-7.733-12.132a1.122,1.122,0,0,0-1.076-.605,30.386,30.386,0,0,1-5.446-.146,6.8,6.8,0,0,1-5.4-6.315c-.037-1.154.462-1.7,1.6-1.706,4.494-.007,8.986-.025,13.478.006a6.728,6.728,0,0,1,6.6,5.661,1.992,1.992,0,0,0,.418,1q1.849,2.231,3.665,4.49c.3.378.511.548,1.008.185a11.035,11.035,0,0,1,3.878-1.668,40.684,40.684,0,0,1,4.134-1.268c1.218-.174,1.206-.88,1.406-1.721a1.309,1.309,0,0,0-.707-1.62,9.031,9.031,0,0,1-3.858-5.808c-.121-.577-.351-.671-.832-.629a5.853,5.853,0,0,1-.853,0,2.449,2.449,0,0,1-2.346-1.563C1696.288,366.029,1696.231,363.445,1698.8,362.518Zm12.146,15.043a11.664,11.664,0,0,1-2.2-.157c-.337-.087-.5,0-.555.391-.132.98-.317,1.955-.488,2.93a.752.752,0,0,0,.234.759c.662.615,1.3,1.252,1.953,1.88.184.336.351.429.707.124,2.293-1.973,2.3-1.964,1.881-4.852C1712.287,377.312,1712.287,377.312,1710.946,377.561Zm-38.374-4.079c-.463.119-.114.356-.041.489a3.988,3.988,0,0,0,3.672,2.2c3.809.019,7.619.007,11.428,0,.15,0,.344.088.467-.158a2.511,2.511,0,0,0-.812-1.221,3.4,3.4,0,0,0-2.73-1.323C1680.561,373.44,1676.567,373.473,1672.572,373.481Zm60.673,1.316a2.208,2.208,0,0,0-.81,1.374c4.114,0,8.175.046,12.233-.024a3.789,3.789,0,0,0,3.374-2.249c.069-.134.313-.351-.08-.417-4-.008-7.992-.041-11.986-.008A3.407,3.407,0,0,0,1733.245,374.8Zm-26.949-1.33a1.514,1.514,0,0,0,.239.231,6.6,6.6,0,0,0,6.885.318,6.5,6.5,0,0,0,3.652-5.844c.075-2.157-.016-4.322.039-6.481.018-.683-.191-.989-.846-1.035a4.248,4.248,0,0,1-.5-.093c-1.426-.366-2.845-.759-4.28-1.09-1.293-.3-2.6-1.041-3.869-.8a15.212,15.212,0,0,0-3.6,1.687,1.022,1.022,0,0,1-.149.081c-.367.106-.437.359-.435.715.017,2.385-.057,4.773.036,7.154A6.2,6.2,0,0,0,1706.3,373.467Zm17.837,22.345a2.017,2.017,0,0,1,1.555-.534c.48.036.97-.039,1.446.018.7.084.994-.135.881-.865a6.059,6.059,0,0,1,1.238-4.371c2.213-3.365,4.362-6.772,6.526-10.17.188-.295.489-.547.489-.98-1.5,0-2.972.008-4.447-.006a.828.828,0,0,0-.719.345q-3.67,4.528-7.356,9.042-1.468,1.768-2.936,3.536c-1.357,1.638-1.342,1.623-2.968.243-.392-.333-.344-.509-.05-.859,1.383-1.657,2.739-3.336,4.1-5.01,1.557-1.912,1.518-2.005-.885-2.865a.693.693,0,0,0-.968.308q-2.566,3.661-5.2,7.277a1.628,1.628,0,0,0-.3,1.341c.829,4.894,1.639,9.791,2.483,14.682a1.9,1.9,0,0,1-.566,1.847c-1.011.994-1.99,2.02-2.984,3.032-.709.688-1.408,1.387-2.129,2.062a1.39,1.39,0,0,1-2.168-.007c-.311-.285-.62-.572-.93-.858-1.353-1.376-2.687-2.77-4.066-4.119a2.094,2.094,0,0,1-.657-2.057c.851-4.862,1.645-9.735,2.469-14.6a1.629,1.629,0,0,0-.318-1.339c-1.477-2.015-2.915-4.059-4.368-6.092-1.338-1.87-1.528-1.892-3.494-.649-.46.291-.482.473-.136.886,1.478,1.764,2.92,3.557,4.378,5.337,1.073,1.309,1.042,1.268-.245,2.416-.605.54-.892.536-1.417-.117-3.566-4.423-7.178-8.809-10.784-13.2-.186-.227-.3-.572-.687-.572h-4.815c.242.394.4.659.564.919q3.659,5.746,7.326,11.485a2.971,2.971,0,0,1,.534,1.834c-.036.675-.238,1.575.1,1.976.4.474,1.331.138,2.029.151,1.562.029,1.95.4,1.953,1.975q.013,7.884.027,15.769c-.009,1.164,0,2.329-.037,3.493-.017.49.143.617.622.616q13.043-.02,26.087,0c.606,0,.608-.275.606-.718-.012-2.954,0-5.909-.008-8.864-.006-2.67-.024-5.338-.036-8.008C1724.031,398.3,1723.687,397.031,1724.132,395.812ZM1736.2,417.12c2.956,0,5.913-.008,8.868.008.467,0,.7-.039.7-.622q-.036-8.951-.008-17.9c0-.414-.068-.608-.549-.6-1.449.03-2.9.027-4.349,0-.444-.008-.591.114-.578.57.03,1.108.021,2.217.006,3.325a1.391,1.391,0,0,1-1.577,1.57q-2.516.019-5.031,0a1.388,1.388,0,0,1-1.576-1.571c-.014-1.108-.024-2.217.007-3.324.013-.458-.139-.577-.58-.569-1.421.025-2.843.039-4.263-.005-.568-.018-.636.2-.635.687q.022,8.866,0,17.733c0,.547.13.717.7.711C1730.289,417.1,1733.245,417.12,1736.2,417.12Zm-42.317-9.553c0-2.927-.022-5.854.018-8.781.009-.653-.176-.809-.8-.785-1.306.05-2.615.044-3.921,0-.576-.019-.8.108-.767.733.055,1.048.025,2.1.012,3.153a1.391,1.391,0,0,1-1.566,1.582q-2.516.022-5.031,0c-1.1-.008-1.579-.515-1.589-1.644-.01-1.052-.03-2.1.009-3.154.02-.515-.112-.687-.654-.671q-2.087.061-4.178,0c-.549-.016-.65.17-.649.676q.025,8.866,0,17.733c0,.526.1.726.685.724q8.869-.036,17.736,0c.549,0,.717-.132.711-.7C1693.87,413.478,1693.885,410.522,1693.885,407.567Zm16.389,15.013h36.416c1.8,0,1.747,0,1.817-1.8.031-.81-.239-.947-.981-.946q-36.8.028-73.6.015c-1.885,0-1.844,0-1.9,1.884-.022.739.211.862.894.86Q1691.6,422.563,1710.274,422.579Zm9.651-62.119c.454-.573,1.208-.816,1.25-1.651a6.836,6.836,0,0,0-6.485-7.17q-4.434-.108-8.871,0a6.884,6.884,0,0,0-6.49,6.4,2.508,2.508,0,0,0,1.346,2.409c.086-1.453.148-1.549,1.367-2.156,1.5-.747,3.006-1.482,4.494-2.25a2.255,2.255,0,0,1,1.711-.207c3.213.831,6.436,1.621,9.658,2.42C1719.587,358.675,1719.682,358.768,1719.925,360.46Zm-5.725,46.374c-.007-.077-.007-.134-.016-.19-.457-2.741-.921-5.48-1.361-8.222-.066-.409-.307-.4-.6-.4-1.306,0-2.613.007-3.918-.009-.369-.005-.544.081-.611.5-.424,2.659-.879,5.315-1.333,7.969a1.062,1.062,0,0,0,.331,1.059q1.6,1.532,3.136,3.128c.331.342.538.359.878,0,1.042-1.086,2.119-2.139,3.184-3.2C1714.07,407.282,1714.269,407.114,1714.2,406.834Zm3.383-24.425c-1.387-.671-1.388-.671-2.407.351-1.224,1.225-2.442,2.455-3.671,3.676-.92.912-1.558.912-2.472,0-1.229-1.221-2.447-2.451-3.671-3.677-1.007-1.008-1.008-1.008-2.421-.357,1.124,1.577,2.235,3.148,3.36,4.712.645.9,1.133,2.135,2.012,2.571.915.453,2.218.123,3.351.135a1.643,1.643,0,0,1,.17,0,.7.7,0,0,0,.712-.341Q1715.052,385.94,1717.583,382.409Zm-5.31,12.842c-.048-.314-.093-.587-.132-.859-.269-1.832-.269-1.832-2.095-1.837-1.32,0-1.323,0-1.561,1.255-.088.467-.159.936-.245,1.442Zm-26.575,4.17c0-1.408,0-1.408-1.411-1.408-1.324,0-1.324,0-1.324,1.326,0,1.408,0,1.408,1.412,1.408C1685.7,400.746,1685.7,400.746,1685.7,399.421Zm50.42,1.326c1.45,0,1.45,0,1.45-1.455,0-1.279,0-1.279-1.284-1.279-1.45,0-1.45,0-1.45,1.455C1734.834,400.746,1734.834,400.746,1736.118,400.746Zm-35.436-34.8c.157-.512-.024-.726-.617-.7-.483.021-.781.039-.738.661.034.48.043.787.665.736C1700.458,366.6,1700.858,366.63,1700.683,365.947Zm20.486.03c.115-.533-.048-.756-.638-.732-.5.019-.759.071-.728.673.025.5.073.765.675.726C1720.962,366.614,1721.326,366.6,1721.169,365.977Z" transform="translate(0 -0.985)" fill="#010101"/>
      <path id="Trazado_628704" data-name="Trazado 628704" d="M1681.686,342.442c2.616,0,5.231,0,7.848,0a4.087,4.087,0,0,1,4.349,4.306q.013,7.975,0,15.948a4.085,4.085,0,0,1-4.349,4.306q-7.934.01-15.867,0a4.09,4.09,0,0,1-4.349-4.307q-.011-7.975,0-15.948a4.091,4.091,0,0,1,4.349-4.305C1676.34,342.438,1679.013,342.442,1681.686,342.442Zm-9.61,20.466c.152.974.546,1.363,1.491,1.364q8.05.014,16.1,0a1.346,1.346,0,0,0,1.484-1.484q.017-8.047,0-16.094c0-.945-.389-1.337-1.365-1.492-5.446-.009-10.892-.025-16.338-.02a1.3,1.3,0,0,0-1.393,1.393C1672.049,352.019,1672.066,357.463,1672.076,362.908Z" transform="translate(0)" fill="#010101"/>
      <path id="Trazado_628705" data-name="Trazado 628705" d="M1737.027,354.643A12.284,12.284,0,1,1,1749.081,367,12.291,12.291,0,0,1,1737.027,354.643Zm20.3-5.024c-.184-.283-.344-.585-.553-.847a9.548,9.548,0,0,0-15.344.58c-3.045,4.448-1.716,10.842,2.781,13.381a9.024,9.024,0,0,0,8.206,1.013C1758.248,361.806,1760.792,354.433,1757.324,349.619Z" transform="translate(-10.381 -0.001)" fill="#030304"/>
      <path id="Trazado_628706" data-name="Trazado 628706" d="M1746.581,426.016c-2.957,0-5.913-.015-8.868.014-.568.006-.7-.164-.7-.711q.027-8.866,0-17.733c0-.484.067-.705.635-.687,1.42.044,2.842.03,4.263.005.441-.008.593.111.58.569-.031,1.107-.021,2.216-.007,3.324a1.388,1.388,0,0,0,1.576,1.571q2.514.02,5.031,0a1.391,1.391,0,0,0,1.578-1.57c.015-1.108.024-2.217-.006-3.325-.013-.456.135-.578.578-.57,1.449.025,2.9.029,4.349,0,.481-.01.549.184.549.6q-.016,8.952.008,17.9c0,.583-.234.625-.7.622C1752.493,426.008,1749.536,426.016,1746.581,426.016Z" transform="translate(-10.379 -9.882)" fill="#bcaa93"/>
      <path id="Trazado_628707" data-name="Trazado 628707" d="M1694.872,416.462c0,2.956-.015,5.912.014,8.867.006.566-.162.7-.711.7q-8.867-.028-17.736,0c-.589,0-.687-.2-.685-.724q.025-8.867,0-17.733c0-.505.1-.692.649-.676q2.088.063,4.178,0c.542-.016.674.156.654.671-.039,1.05-.019,2.1-.009,3.154.01,1.129.491,1.636,1.589,1.644q2.514.019,5.031,0a1.391,1.391,0,0,0,1.565-1.582c.014-1.051.043-2.1-.012-3.153-.032-.626.191-.752.767-.733,1.306.042,2.615.048,3.921,0,.627-.024.812.132.8.785C1694.85,410.608,1694.872,413.535,1694.872,416.462Z" transform="translate(-0.987 -9.881)" fill="#bcaa93"/>
      <path id="Trazado_628708" data-name="Trazado 628708" d="M1699.322,418.461q-.014-7.884-.027-15.769c0-1.574-.39-1.947-1.952-1.975-.7-.013-1.626.323-2.029-.151-.341-.4-.139-1.3-.1-1.976a2.971,2.971,0,0,0-.533-1.834q-3.679-5.732-7.326-11.485c-.165-.26-.322-.525-.564-.919h4.815c.388,0,.5.345.687.572,3.606,4.391,7.218,8.777,10.784,13.2.526.653.812.657,1.417.117,1.286-1.147,1.317-1.107.244-2.416-1.458-1.78-2.9-3.573-4.378-5.337-.345-.412-.323-.594.136-.886,1.965-1.243,2.156-1.222,3.493.649,1.453,2.033,2.891,4.077,4.368,6.092a1.63,1.63,0,0,1,.317,1.339c-.824,4.868-1.618,9.74-2.469,14.6a2.094,2.094,0,0,0,.657,2.057c1.379,1.349,2.713,2.743,4.066,4.119Z" transform="translate(-2.679 -6.425)" fill="#5fd2db"/>
      <path id="Trazado_628709" data-name="Trazado 628709" d="M1710.765,435.429q-18.677,0-37.354.015c-.683,0-.916-.121-.894-.86.057-1.882.016-1.884,1.9-1.884q36.8,0,73.6-.015c.743,0,1.012.135.981.946-.07,1.8-.02,1.8-1.817,1.8Z" transform="translate(-0.491 -13.835)" fill="#c5c4c8"/>
      <path id="Trazado_628710" data-name="Trazado 628710" d="M1701.585,422.2h11.6c.31.285.619.572.93.858a1.391,1.391,0,0,0,2.168.007c.721-.675,1.421-1.373,2.129-2.062a1.31,1.31,0,0,0,.733-.172,16.517,16.517,0,0,0,9.356-11.588c.05-.219,0-.469.313-.52.013,2.67.031,5.338.037,8.008.007,2.955,0,5.91.007,8.864,0,.443,0,.72-.606.718q-13.043-.032-26.086,0c-.479,0-.639-.126-.622-.616C1701.589,424.526,1701.576,423.361,1701.585,422.2Z" transform="translate(-4.942 -10.161)" fill="#50b2ba"/>
      <path id="Trazado_628711" data-name="Trazado 628711" d="M1731.873,405.77c-.311.051-.263.3-.313.52a16.516,16.516,0,0,1-9.355,11.588,1.312,1.312,0,0,1-.733.172c.993-1.012,1.973-2.038,2.984-3.032a1.9,1.9,0,0,0,.565-1.847c-.843-4.891-1.654-9.789-2.483-14.682a1.629,1.629,0,0,1,.3-1.341q2.635-3.612,5.2-7.277a.693.693,0,0,1,.968-.308c2.4.86,2.442.953.885,2.865-1.363,1.674-2.719,3.353-4.1,5.01-.293.351-.342.527.05.859,1.626,1.38,1.611,1.4,2.969-.243q1.466-1.77,2.936-3.536c.279.251.163.584.165.882.01,1.927,0,3.855.01,5.782,0,.294-.122.637.211.856C1731.684,403.257,1732.027,404.531,1731.873,405.77Z" transform="translate(-7.996 -7.212)" fill="#5fd2db"/>
      <path id="Trazado_628712" data-name="Trazado 628712" d="M1712.472,375.233a6.2,6.2,0,0,1-2.825-5.16c-.093-2.382-.02-4.769-.036-7.154,0-.356.069-.609.435-.715a1.018,1.018,0,0,0,.149-.081,15.218,15.218,0,0,1,3.6-1.687c1.269-.238,2.576.505,3.869.8,1.434.33,2.854.724,4.28,1.09-.012,1.619,0,3.238-.042,4.856a8.049,8.049,0,0,1-3.454,6.512A8.927,8.927,0,0,1,1712.472,375.233Z" transform="translate(-6.176 -2.752)" fill="#f7daaf"/>
      <path id="Trazado_628713" data-name="Trazado 628713" d="M1725.358,360.952c-.243-1.692-.338-1.785-2.019-2.2-3.222-.8-6.445-1.588-9.658-2.42a2.255,2.255,0,0,0-1.711.207c-1.488.768-2.995,1.5-4.494,2.251-1.218.607-1.281.7-1.366,2.156a2.508,2.508,0,0,1-1.346-2.409,6.884,6.884,0,0,1,6.491-6.4q4.433-.108,8.871,0a6.836,6.836,0,0,1,6.484,7.17C1726.566,360.136,1725.813,360.379,1725.358,360.952Z" transform="translate(-5.434 -1.477)" fill="#88878e"/>
      <path id="Trazado_628714" data-name="Trazado 628714" d="M1733.988,401.25c-.333-.219-.209-.562-.211-.856-.01-1.927,0-3.855-.01-5.782,0-.3.113-.631-.165-.882q3.681-4.519,7.356-9.042a.828.828,0,0,1,.719-.345c1.475.014,2.95.006,4.447.006,0,.433-.3.685-.489.98-2.163,3.4-4.312,6.8-6.525,10.17a6.058,6.058,0,0,0-1.238,4.371c.113.729-.184.948-.881.865-.476-.057-.966.018-1.446-.018A2.017,2.017,0,0,0,1733.988,401.25Z" transform="translate(-9.856 -6.424)" fill="#50b2ba"/>
      <path id="Trazado_628715" data-name="Trazado 628715" d="M1720.9,415.732c.069.28-.13.448-.313.63-1.066,1.063-2.143,2.115-3.184,3.2-.34.355-.547.338-.878,0q-1.54-1.591-3.136-3.128a1.062,1.062,0,0,1-.331-1.059c.455-2.654.909-5.31,1.334-7.969.066-.414.241-.5.61-.5,1.306.016,2.612.011,3.919.009.3,0,.537-.006.6.4.44,2.742.9,5.481,1.36,8.222C1720.9,415.6,1720.9,415.655,1720.9,415.732Z" transform="translate(-6.703 -9.883)" fill="#ed7f5e"/>
      <path id="Trazado_628716" data-name="Trazado 628716" d="M1723.672,388.4q-2.525,3.541-5.036,7.072a.7.7,0,0,1-.712.341,1.63,1.63,0,0,0-.17,0c-1.134-.013-2.436.318-3.351-.135-.88-.435-1.368-1.674-2.013-2.571-1.124-1.564-2.236-3.135-3.36-4.712,1.413-.65,1.414-.651,2.421.357,1.224,1.226,2.443,2.456,3.671,3.677.913.908,1.552.908,2.471,0,1.229-1.22,2.448-2.45,3.671-3.676C1722.284,387.727,1722.285,387.727,1723.672,388.4Z" transform="translate(-6.089 -6.974)" fill="#ed7f5e"/>
      <path id="Trazado_628717" data-name="Trazado 628717" d="M1712.992,375.585a8.928,8.928,0,0,0,5.971-1.536,8.049,8.049,0,0,0,3.454-6.512c.044-1.618.03-3.237.042-4.856a4.237,4.237,0,0,0,.5.093c.655.047.864.352.846,1.036-.055,2.159.036,4.323-.039,6.481a6.5,6.5,0,0,1-3.652,5.844,6.6,6.6,0,0,1-6.885-.318A1.5,1.5,0,0,1,1712.992,375.585Z" transform="translate(-6.696 -3.103)" fill="#f4c381"/>
      <path id="Trazado_628718" data-name="Trazado 628718" d="M1759.391,377.938c.393.066.149.284.08.417a3.789,3.789,0,0,1-3.374,2.249c-4.058.069-8.119.024-12.233.024a2.206,2.206,0,0,1,.81-1.374c3.572.006,7.143-.011,10.714.03A6.094,6.094,0,0,0,1759.391,377.938Z" transform="translate(-11.43 -5.442)" fill="#f4c381"/>
      <path id="Trazado_628719" data-name="Trazado 628719" d="M1687.833,379.254a2.513,2.513,0,0,1,.812,1.221c-.124.246-.318.157-.467.158-3.809.005-7.619.017-11.428,0a3.988,3.988,0,0,1-3.672-2.2c-.073-.133-.422-.37.041-.489a5.3,5.3,0,0,0,3.15,1.321C1680.124,379.287,1683.978,379.26,1687.833,379.254Z" transform="translate(-0.547 -5.442)" fill="#f4c381"/>
      <path id="Trazado_628720" data-name="Trazado 628720" d="M1687.876,379.25c-3.855.006-7.709.033-11.564.005a5.3,5.3,0,0,1-3.15-1.321c4-.008,7.99-.041,11.984-.008A3.4,3.4,0,0,1,1687.876,379.25Z" transform="translate(-0.59 -5.438)" fill="#f7daaf"/>
      <path id="Trazado_628721" data-name="Trazado 628721" d="M1759.538,377.934a6.094,6.094,0,0,1-4,1.345c-3.571-.041-7.143-.024-10.714-.03a3.407,3.407,0,0,1,2.731-1.323C1751.546,377.892,1755.543,377.925,1759.538,377.934Z" transform="translate(-11.576 -5.438)" fill="#f7daaf"/>
      <path id="Trazado_628722" data-name="Trazado 628722" d="M1716.839,388.526c-.649-.628-1.29-1.266-1.953-1.88a.753.753,0,0,1-.234-.759c.171-.975.355-1.95.488-2.93.053-.393.218-.478.554-.391a11.661,11.661,0,0,0,2.2.157c.211,1.217.413,2.434.639,3.648a.759.759,0,0,1-.214.768C1717.823,387.6,1717.332,388.063,1716.839,388.526Z" transform="translate(-6.948 -6.147)" fill="#f7daaf"/>
      <path id="Trazado_628723" data-name="Trazado 628723" d="M1719.322,403.161h-4.033c.085-.505.157-.975.245-1.442.238-1.259.241-1.258,1.562-1.255,1.825.005,1.825.005,2.094,1.837C1719.229,402.574,1719.274,402.846,1719.322,403.161Z" transform="translate(-7.049 -8.896)" fill="#f4c381"/>
      <path id="Trazado_628724" data-name="Trazado 628724" d="M1688.17,408.319c0,1.326,0,1.326-1.323,1.326-1.412,0-1.412,0-1.412-1.408,0-1.326,0-1.326,1.324-1.326C1688.17,406.911,1688.17,406.911,1688.17,408.319Z" transform="translate(-2.472 -9.884)" fill="#f4c381"/>
      <path id="Trazado_628725" data-name="Trazado 628725" d="M1747.982,409.645c-1.285,0-1.285,0-1.285-1.279,0-1.455,0-1.455,1.45-1.455,1.285,0,1.285,0,1.285,1.279C1749.432,409.645,1749.432,409.645,1747.982,409.645Z" transform="translate(-11.864 -9.884)" fill="#f4c381"/>
      <path id="Trazado_628726" data-name="Trazado 628726" d="M1719.827,383.808c.419,2.888.411,2.88-1.881,4.852-.356.306-.523.213-.707-.124.493-.463.984-.928,1.479-1.389a.759.759,0,0,0,.214-.768c-.226-1.213-.428-2.431-.639-3.648,1.342-.249,1.342-.249,1.534,1.075" transform="translate(-7.347 -6.158)" fill="#f4c381"/>
      <path id="Trazado_628727" data-name="Trazado 628727" d="M1706.117,368.912c.175.683-.224.658-.691.7-.622.051-.631-.256-.665-.736-.043-.622.256-.64.738-.661C1706.092,368.185,1706.273,368.4,1706.117,368.912Z" transform="translate(-5.434 -3.951)" fill="#bcaa93"/>
      <path id="Trazado_628728" data-name="Trazado 628728" d="M1730.31,368.942c.158.622-.207.637-.692.667-.6.038-.649-.229-.675-.726-.031-.6.229-.654.728-.673C1730.262,368.186,1730.425,368.409,1730.31,368.942Z" transform="translate(-9.142 -3.95)" fill="#bcaa93"/>
      <path id="Trazado_628729" data-name="Trazado 628729" d="M1672.573,363.4c-.01-5.445-.027-10.889-.021-16.334a1.3,1.3,0,0,1,1.393-1.393c5.446-.005,10.892.011,16.338.02q0,7.413,0,14.826a2.759,2.759,0,0,1-2.884,2.884Q1679.987,363.411,1672.573,363.4Zm9.612-9.549h-4.859c-2.079,0-2.058,0-2.068,2.045,0,.555.142.7.7.7,3.637-.025,7.275-.014,10.912-.014,2.11,0,2.093,0,2.067-2.129-.006-.479-.13-.617-.613-.611C1686.276,353.87,1684.231,353.855,1682.184,353.855Zm-.09,5.46h-4.775c-2.075,0-2.052,0-2.063,2.049,0,.564.156.7.7.693,3.637-.025,7.275-.013,10.912-.013,2.107,0,2.09,0,2.062-2.134-.006-.487-.142-.612-.617-.606C1686.244,359.328,1684.169,359.314,1682.095,359.314Zm2.683-8.188h2.13c2.049,0,2.029,0,2.028-2.082,0-.516-.114-.673-.651-.662-1.818.037-3.636.014-5.454.014-2.173,0-2.159,0-2.11,2.168.009.434.107.585.563.572C1682.448,351.1,1683.613,351.126,1684.778,351.126Zm-8.112-2.73c-1.394,0-1.394,0-1.394,1.422,0,1.308,0,1.308,1.336,1.308,1.394,0,1.394,0,1.394-1.421C1678,348.4,1678,348.4,1676.666,348.4Z" transform="translate(-0.496 -0.496)" fill="#e9e4dd"/>
      <path id="Trazado_628730" data-name="Trazado 628730" d="M1672.577,363.408q7.415,0,14.829,0a2.76,2.76,0,0,0,2.884-2.884q.005-7.413,0-14.826c.976.155,1.363.547,1.365,1.492q.014,8.047,0,16.094a1.345,1.345,0,0,1-1.484,1.484q-8.05.016-16.1,0C1673.123,364.771,1672.729,364.382,1672.577,363.408Z" transform="translate(-0.501 -0.5)" fill="#d5cabc"/>
      <path id="Trazado_628731" data-name="Trazado 628731" d="M1744.706,363.23c-4.5-2.539-5.825-8.933-2.78-13.381a9.547,9.547,0,0,1,15.344-.58c.209.262.369.564.553.847a15.766,15.766,0,0,1,.03,4.126,10.779,10.779,0,0,1-6.978,8.491A11.71,11.71,0,0,1,1744.706,363.23Zm3.738-3.917a1.742,1.742,0,0,0,1.237-.658q2.554-2.562,5.116-5.117c1.5-1.5,1.489-1.488-.06-2.977-.367-.351-.555-.3-.876.03-1.247,1.28-2.518,2.538-3.787,3.8-.522.517-1.039,1.389-1.6,1.423-.651.038-1.123-.912-1.661-1.44-1.567-1.538-1.547-1.538-3.04.042-.3.321-.323.5,0,.813,1.22,1.186,2.415,2.4,3.62,3.6A1.479,1.479,0,0,0,1748.444,359.313Z" transform="translate(-10.88 -0.497)" fill="#67a3f6"/>
      <path id="Trazado_628732" data-name="Trazado 628732" d="M1745.507,364.032a11.709,11.709,0,0,0,6.169-.5,10.779,10.779,0,0,0,6.978-8.491,15.756,15.756,0,0,0-.03-4.126c3.469,4.814.925,12.186-4.911,14.128A9.025,9.025,0,0,1,1745.507,364.032Z" transform="translate(-11.681 -1.3)" fill="#3f87f3"/>
      <path id="Trazado_628733" data-name="Trazado 628733" d="M1682.675,355.334c2.046,0,4.092.015,6.138-.011.484-.006.607.132.613.611.026,2.13.043,2.129-2.067,2.129-3.637,0-7.275-.012-10.912.014-.557,0-.7-.143-.7-.7.011-2.044-.011-2.045,2.069-2.045Z" transform="translate(-0.986 -1.975)" fill="#010101"/>
      <path id="Trazado_628734" data-name="Trazado 628734" d="M1682.585,361.782c2.074,0,4.149.013,6.223-.011.475-.006.611.119.617.606.028,2.134.046,2.134-2.062,2.134-3.637,0-7.275-.012-10.912.013-.549,0-.708-.13-.7-.693.011-2.049-.012-2.049,2.063-2.049Z" transform="translate(-0.986 -2.964)" fill="#010101"/>
      <path id="Trazado_628735" data-name="Trazado 628735" d="M1686.255,351.616c-1.165,0-2.33-.021-3.494.011-.456.013-.554-.139-.563-.572-.049-2.168-.062-2.168,2.11-2.168,1.819,0,3.637.023,5.454-.014.538-.011.651.146.651.662,0,2.082.021,2.082-2.028,2.082Z" transform="translate(-1.973 -0.986)" fill="#010101"/>
      <path id="Trazado_628736" data-name="Trazado 628736" d="M1677.159,348.889c1.336,0,1.336,0,1.336,1.309,0,1.421,0,1.421-1.394,1.421-1.336,0-1.336,0-1.336-1.308C1675.765,348.889,1675.765,348.889,1677.159,348.889Z" transform="translate(-0.989 -0.989)" fill="#010101"/>
      <path id="Trazado_628737" data-name="Trazado 628737" d="M1749.033,360.153a1.478,1.478,0,0,1-1.052-.485c-1.2-1.2-2.4-2.416-3.62-3.6-.32-.312-.3-.492,0-.813,1.493-1.58,1.473-1.581,3.04-.042.538.528,1.01,1.478,1.661,1.44.56-.034,1.077-.906,1.6-1.423,1.269-1.258,2.54-2.516,3.787-3.8.321-.329.509-.381.876-.03,1.549,1.489,1.562,1.476.06,2.977q-2.557,2.558-5.116,5.117A1.742,1.742,0,0,1,1749.033,360.153Z" transform="translate(-11.47 -1.337)" fill="#030304"/>
    </g>
  </g>
</svg>
