<svg xmlns="http://www.w3.org/2000/svg" xmlns:xlink="http://www.w3.org/1999/xlink" width="505" height="196.464" viewBox="0 0 505 196.464">
  <defs>
    <clipPath id="clip-path">
      <rect id="Rectángulo_298216" data-name="Rectángulo 298216" width="270.931" height="160.962" fill="none"/>
    </clipPath>
    <clipPath id="clip-path-8">
      <rect id="Rectángulo_298206" data-name="Rectángulo 298206" width="22.359" height="4.635" fill="none"/>
    </clipPath>
    <clipPath id="clip-path-9">
      <rect id="Rectángulo_298207" data-name="Rectángulo 298207" width="21.274" height="2.234" fill="none"/>
    </clipPath>
    <clipPath id="clip-path-11">
      <rect id="Rectángulo_298209" data-name="Rectángulo 298209" width="25.663" height="12.312" fill="#fff"/>
    </clipPath>
    <clipPath id="clip-path-12">
      <rect id="Rectángulo_298210" data-name="Rectángulo 298210" width="5.195" height="5.195" fill="#fff"/>
    </clipPath>
    <clipPath id="clip-path-14">
      <rect id="Rectángulo_298212" data-name="Rectángulo 298212" width="11.102" height="4.822" fill="none"/>
    </clipPath>
    <clipPath id="clip-path-15">
      <rect id="Rectángulo_298213" data-name="Rectángulo 298213" width="12.979" height="7.496" fill="none"/>
    </clipPath>
    <clipPath id="clip-path-16">
      <rect id="Rectángulo_298214" data-name="Rectángulo 298214" width="12.606" height="15.74" fill="none"/>
    </clipPath>
  </defs>
  <g id="Grupo_1044074" data-name="Grupo 1044074" transform="translate(-285 -8160.54)">
    <path id="Rectángulo_305614" data-name="Rectángulo 305614" d="M5,0H500a5,5,0,0,1,5,5V119.129a0,0,0,0,1,0,0H0a0,0,0,0,1,0,0V5A5,5,0,0,1,5,0Z" transform="translate(285 8237.875)" fill="#f0bd51"/>
    <g id="Grupo_980639" data-name="Grupo 980639" transform="translate(390 8160.54)">
      <g id="Grupo_878619" data-name="Grupo 878619" transform="translate(12 13)">
        <g id="Grupo_878579" data-name="Grupo 878579" clip-path="url(#clip-path)">
          <g id="Grupo_878543" data-name="Grupo 878543">
            <g id="Grupo_878542" data-name="Grupo 878542" clip-path="url(#clip-path)">
              <path id="Trazado_601710" data-name="Trazado 601710" d="M2.218,318.257s-2.054.832.315,5.193a57.414,57.414,0,0,0,3.988,6.509s.427,1.016-.433,1.2-2.769-.072-3.127.995c-.371,1.106.452,2.12,2.09,2.985s5.157,2.893,5.474,3.077.632.651.066.868-4.832.775-4.446,2.784,5.345,3.669,5.883,3.861.672.415.636.709-1.488.346-2.694.554-2.57.661-2.25,1.8,3.292,3.476,10.376,3.986l3.3.021,1.721-2.83c3.314-6.282,2.9-10.039,2.1-10.914s-1.9.043-2.719.957-1.627,2.119-1.9,1.994-.387-.356-.265-.915,1.335-5.645-.166-7.035-4.23,1.937-4.714,2.3-.713-.155-.7-.515c.008-.267.084-2.485.193-4.718.018-.382.055-1.051.091-1.555.132-1.848-.293-3.082-1.428-3.353-1.095-.261-1.889,1.494-2.5,2.128s-1.246-.266-1.246-.266a57.457,57.457,0,0,0-3.415-6.827c-2.448-4.318-4.28-2.972-4.28-2.972" transform="translate(-0.843 -192.708)" fill="#f7e9e1"/>
              <path id="Trazado_601711" data-name="Trazado 601711" d="M26.106,359.851c-1.786-3.178-4.864-8.879-7.533-13.761s-5.087-9.3-6.856-12.482l-2.1-3.772-.57-1.026-.146-.268c-.032-.061-.047-.093-.047-.093s.02.029.056.088l.155.263.587,1.017c.509.883,1.236,2.167,2.128,3.756,1.786,3.178,4.215,7.588,6.883,12.468s5.737,10.588,7.507,13.775" transform="translate(-5.365 -198.992)" fill="#ef8b53"/>
              <path id="Trazado_601712" data-name="Trazado 601712" d="M12.117,354.954a1.053,1.053,0,0,1,.231.058c.147.043.358.112.618.2.519.175,1.23.436,2.009.737l1.992.779.6.232a1.079,1.079,0,0,1,.219.094A1.077,1.077,0,0,1,17.56,357c-.147-.043-.358-.112-.617-.2-.518-.181-1.225-.451-2-.752l-2-.765-.607-.229a1.068,1.068,0,0,1-.218-.1" transform="translate(-7.341 -215.048)" fill="#ef8b53"/>
              <path id="Trazado_601713" data-name="Trazado 601713" d="M27.07,349.559c-.027-.009.446-1.5,1.055-3.326s1.126-3.3,1.152-3.294-.446,1.5-1.056,3.327-1.125,3.3-1.152,3.294" transform="translate(-16.4 -207.77)" fill="#ef8b53"/>
              <path id="Trazado_601714" data-name="Trazado 601714" d="M36.609,371.2a1.136,1.136,0,0,1,.128-.207l.377-.544c.317-.46.752-1.1,1.207-1.817s.847-1.385,1.126-1.869l.331-.573a1.114,1.114,0,0,1,.132-.2,1.1,1.1,0,0,1-.1.224c-.068.141-.171.342-.3.589-.263.494-.644,1.167-1.1,1.889s-.9,1.355-1.235,1.8c-.168.224-.3.4-.4.526a1.1,1.1,0,0,1-.16.183" transform="translate(-22.179 -221.732)" fill="#ef8b53"/>
              <path id="Trazado_601715" data-name="Trazado 601715" d="M22.131,377.864a.945.945,0,0,1,.225,0l.611.033c.516.032,1.227.083,2.013.146s1.5.125,2.011.176l.608.065a.965.965,0,0,1,.222.038.95.95,0,0,1-.225,0l-.611-.032c-.516-.032-1.227-.083-2.013-.146s-1.5-.125-2.011-.176l-.609-.065a.95.95,0,0,1-.222-.038" transform="translate(-13.408 -228.926)" fill="#ef8b53"/>
              <path id="Trazado_601716" data-name="Trazado 601716" d="M28.367,396.135a1.529,1.529,0,0,1,.288,0l.783.039c.662.037,1.574.1,2.582.167s1.92.141,2.58.2l.78.071a1.576,1.576,0,0,1,.285.04,1.521,1.521,0,0,1-.288,0l-.783-.039c-.661-.038-1.574-.1-2.582-.167s-1.92-.141-2.579-.2l-.781-.071a1.548,1.548,0,0,1-.285-.04" transform="translate(-17.186 -239.995)" fill="#ef8b53"/>
              <path id="Trazado_601717" data-name="Trazado 601717" d="M46.45,386.946a1.689,1.689,0,0,1,.156-.266l.452-.707c.382-.6.9-1.425,1.457-2.354s1.033-1.783,1.376-2.4l.406-.735a1.7,1.7,0,0,1,.16-.264,1.813,1.813,0,0,1-.125.283c-.086.179-.214.436-.378.751-.327.63-.8,1.491-1.351,2.422s-1.088,1.754-1.485,2.342c-.2.294-.363.529-.48.69a1.864,1.864,0,0,1-.189.244" transform="translate(-28.142 -230.354)" fill="#e0e0e0"/>
              <path id="Trazado_601718" data-name="Trazado 601718" d="M69.454,37.546H42.2a2.329,2.329,0,0,1-2.329-2.329V10.82A2.329,2.329,0,0,1,42.2,8.491H69.454a2.329,2.329,0,0,1,2.329,2.329v24.4a2.329,2.329,0,0,1-2.329,2.329" transform="translate(-24.154 -5.144)" fill="#fff"/>
              <path id="Trazado_601719" data-name="Trazado 601719" d="M71.783,13.436H39.868V10.883A2.393,2.393,0,0,1,42.26,8.491H69.579a2.2,2.2,0,0,1,2.2,2.2Z" transform="translate(-24.154 -5.144)" fill="#ebebeb"/>
              <path id="Trazado_601720" data-name="Trazado 601720" d="M49.122,14.857a.784.784,0,1,1-.782-.736.76.76,0,0,1,.782.736" transform="translate(-28.813 -8.555)" fill="#fff"/>
              <path id="Trazado_601721" data-name="Trazado 601721" d="M54.531,14.857a.784.784,0,1,1-.782-.736.76.76,0,0,1,.782.736" transform="translate(-32.09 -8.555)" fill="#fff"/>
              <path id="Trazado_601722" data-name="Trazado 601722" d="M59.941,14.857a.784.784,0,1,1-.782-.736.76.76,0,0,1,.782.736" transform="translate(-35.368 -8.555)" fill="#fff"/>
              <path id="Trazado_601723" data-name="Trazado 601723" d="M69.3,37.388c0-.006.1-.006.3-.032a2.246,2.246,0,0,0,.834-.289,2.3,2.3,0,0,0,1.154-1.931c.006-.328,0-.682,0-1.055-.008-2.99-.019-7.306-.033-12.638,0-2.668-.008-5.59-.013-8.727q0-.588,0-1.186c-.01-.394.021-.812-.028-1.192a2.242,2.242,0,0,0-2-1.9c-.2-.015-.413-.01-.625-.01H67.6l-2.612,0-22.951.008a2.235,2.235,0,0,0-2.147,1.637,2.4,2.4,0,0,0-.082.718v.75q0,.749,0,1.493,0,2.974,0,5.856c0,3.839,0,7.542-.006,11.07q0,2.645,0,5.153a2.247,2.247,0,0,0,1.188,1.928,2.3,2.3,0,0,0,1.121.262H43.3l8.727.013,12.637.033,3.436.019.894.01c.2,0,.3.011.3.011s-.1.007-.3.011l-.894.01-3.436.019-12.637.033-8.727.013H42.112a2.473,2.473,0,0,1-1.2-.28,2.425,2.425,0,0,1-1.286-2.079q0-2.508-.007-5.157c0-3.528,0-7.231-.006-11.07q0-2.879,0-5.856,0-.744,0-1.493v-.75a2.627,2.627,0,0,1,.089-.772,2.441,2.441,0,0,1,2.345-1.787l22.951.008,2.612,0h1.28c.212,0,.42,0,.642.012a2.422,2.422,0,0,1,2.159,2.06,11.968,11.968,0,0,1,.026,1.217q0,.6,0,1.186c0,3.137-.009,6.059-.013,8.727-.014,5.332-.025,9.648-.033,12.638,0,.374,0,.724-.009,1.057a2.347,2.347,0,0,1-1.2,1.964,2.2,2.2,0,0,1-.851.273,1.865,1.865,0,0,1-.3.011" transform="translate(-23.996 -4.986)" fill="#ebebeb"/>
              <path id="Trazado_601724" data-name="Trazado 601724" d="M71.2,46.025H47.53a1.756,1.756,0,0,1-1.756-1.756V28.445a1.756,1.756,0,0,1,1.756-1.756H71.2a1.756,1.756,0,0,1,1.756,1.756V44.269A1.756,1.756,0,0,1,71.2,46.025" transform="translate(-27.732 -16.17)" fill="#f5f5f5"/>
              <path id="Trazado_601725" data-name="Trazado 601725" d="M51.353,57.671l6.635-9.444a.751.751,0,0,1,1.2-.04l4.56,5.654a.752.752,0,0,0,1.106.07l2.671-2.565a.752.752,0,0,1,1.1.058l5.236,6.214a.751.751,0,0,1-.574,1.235H51.968a.751.751,0,0,1-.615-1.183" transform="translate(-31.029 -29.025)" fill="#ebebeb"/>
              <path id="Trazado_601726" data-name="Trazado 601726" d="M82.9,38.637a2.311,2.311,0,1,1-1.916-1.917A2.312,2.312,0,0,1,82.9,38.637" transform="translate(-47.446 -22.23)" fill="#ebebeb"/>
              <path id="Trazado_601727" data-name="Trazado 601727" d="M650.763,214.687H633.258a2.329,2.329,0,0,1-2.329-2.329V196.839a2.329,2.329,0,0,1,2.329-2.329h17.505a2.329,2.329,0,0,1,2.329,2.329v15.519a2.329,2.329,0,0,1-2.329,2.329" transform="translate(-382.248 -117.844)" fill="#fff"/>
              <path id="Trazado_601728" data-name="Trazado 601728" d="M653.092,197.944H630.929V196.9a2.392,2.392,0,0,1,2.393-2.393h17.566a2.2,2.2,0,0,1,2.2,2.2Z" transform="translate(-382.248 -117.845)" fill="#e0e0e0"/>
              <path id="Trazado_601729" data-name="Trazado 601729" d="M637.355,198.931a.544.544,0,1,1-.543-.511.528.528,0,0,1,.543.511" transform="translate(-385.483 -120.213)" fill="#fff"/>
              <path id="Trazado_601730" data-name="Trazado 601730" d="M641.112,198.931a.544.544,0,1,1-.543-.511.528.528,0,0,1,.543.511" transform="translate(-387.76 -120.213)" fill="#fff"/>
              <path id="Trazado_601731" data-name="Trazado 601731" d="M644.868,198.931a.544.544,0,1,1-.543-.511.528.528,0,0,1,.543.511" transform="translate(-390.035 -120.213)" fill="#fff"/>
              <path id="Trazado_601732" data-name="Trazado 601732" d="M650.605,214.528a2.8,2.8,0,0,0,.8-.164,2.305,2.305,0,0,0,1.444-1.689,3.779,3.779,0,0,0,.045-.8q0-.425,0-.891,0-.932-.009-2.02c0-1.451-.01-3.1-.015-4.926s-.008-3.825-.013-5.97c-.007-.533.011-1.092-.015-1.627a2.25,2.25,0,0,0-.721-1.416c-.83-.834-2.13-.526-3.311-.583l-15.7.008a2.222,2.222,0,0,0-2.163,1.7,4.042,4.042,0,0,0-.066.991q0,2.034,0,4.006c0,2.626,0,5.159-.006,7.573q0,1.809,0,3.525a2.214,2.214,0,0,0,.595,1.472,2.238,2.238,0,0,0,1.373.7c2.125.039,4.139.017,5.959.03l8.644.033,2.35.019.611.01c.138,0,.208.011.208.011s-.071.007-.208.011l-.611.01-2.35.019-8.644.033c-1.829,0-3.815.028-5.979-.006a2.417,2.417,0,0,1-2.128-2.341q0-1.716-.007-3.528c0-2.413,0-4.947-.006-7.573q0-1.97,0-4.006a4.222,4.222,0,0,1,.071-1.039,2.428,2.428,0,0,1,2.362-1.858l15.7.008,1.787,0a2.425,2.425,0,0,1,2.42,2.167c.026.572.006,1.105.011,1.646,0,2.145-.009,4.144-.013,5.97s-.011,3.474-.015,4.926q0,1.087-.009,2.02,0,.465,0,.891a3.846,3.846,0,0,1-.056.813,2.392,2.392,0,0,1-.66,1.187,2.368,2.368,0,0,1-.848.525,2.188,2.188,0,0,1-.6.125c-.138,0-.209,0-.209,0" transform="translate(-382.091 -117.686)" fill="#e0e0e0"/>
              <path id="Trazado_601733" data-name="Trazado 601733" d="M652.151,220.575H636.787a1.756,1.756,0,0,1-1.756-1.756V208.9a1.756,1.756,0,0,1,1.756-1.756h15.364a1.756,1.756,0,0,1,1.756,1.756v9.915a1.756,1.756,0,0,1-1.756,1.756" transform="translate(-384.734 -125.5)" fill="#f5f5f5"/>
              <path id="Trazado_601734" data-name="Trazado 601734" d="M638.9,228.662l4.608-6.558a.521.521,0,0,1,.833-.028L647.512,226a.522.522,0,0,0,.767.049l1.855-1.781a.521.521,0,0,1,.76.04l3.636,4.315a.522.522,0,0,1-.4.858h-14.8a.522.522,0,0,1-.427-.822" transform="translate(-387.023 -134.427)" fill="#ebebeb"/>
              <path id="Trazado_601735" data-name="Trazado 601735" d="M660.815,215.444a1.6,1.6,0,1,1-1.331-1.331,1.606,1.606,0,0,1,1.331,1.331" transform="translate(-398.423 -129.709)" fill="#ebebeb"/>
              <path id="Trazado_601736" data-name="Trazado 601736" d="M26.585,234.28h-24A2.329,2.329,0,0,1,.26,231.952V205.414a2.329,2.329,0,0,1,2.329-2.329h24a2.329,2.329,0,0,1,2.329,2.329v26.538a2.329,2.329,0,0,1-2.329,2.329" transform="translate(-0.158 -123.039)" fill="#fff"/>
              <path id="Trazado_601737" data-name="Trazado 601737" d="M28.914,208.393H.26v-2.916a2.392,2.392,0,0,1,2.392-2.393H26.71a2.2,2.2,0,0,1,2.2,2.2Z" transform="translate(-0.158 -123.039)" fill="#e0e0e0"/>
              <path id="Trazado_601738" data-name="Trazado 601738" d="M10.195,209.92a.841.841,0,1,1-.84-.791.816.816,0,0,1,.84.791" transform="translate(-5.159 -126.701)" fill="#fff"/>
              <path id="Trazado_601739" data-name="Trazado 601739" d="M16,209.92a.841.841,0,1,1-.84-.791.816.816,0,0,1,.84.791" transform="translate(-8.678 -126.701)" fill="#fff"/>
              <path id="Trazado_601740" data-name="Trazado 601740" d="M21.811,209.92a.841.841,0,1,1-.84-.791.816.816,0,0,1,.84.791" transform="translate(-12.196 -126.701)" fill="#fff"/>
              <path id="Trazado_601741" data-name="Trazado 601741" d="M26.427,234.122c0-.006.1-.006.3-.032a2.313,2.313,0,0,0,1.767-1.291,2.278,2.278,0,0,0,.222-.862c.013-.32,0-.669,0-1.033-.008-2.934-.019-7.168-.033-12.4,0-2.618-.008-5.484-.013-8.561q0-2.306-.009-4.766a2.235,2.235,0,0,0-1.232-1.921,2.385,2.385,0,0,0-1.192-.238H24.949l-22.515.008A2.242,2.242,0,0,0,.3,204.613a5.3,5.3,0,0,0-.1,1.435v1.464q0,2.917,0,5.745c0,3.766,0,7.4-.006,10.86q0,2.6,0,5.057,0,1.229,0,2.422a2.289,2.289,0,0,0,.889,1.985,2.178,2.178,0,0,0,1,.428,9.472,9.472,0,0,0,1.109.031l2.186,0,4.108.007,12.4.033,3.371.019.876.01c.2,0,.3.011.3.011s-.1.007-.3.011l-.876.01-3.371.019-12.4.033-4.108.007-2.186,0a9.46,9.46,0,0,1-1.135-.031,2.342,2.342,0,0,1-1.08-.457A2.462,2.462,0,0,1,.015,231.6q0-1.193,0-2.422,0-2.459,0-5.057c0-3.461,0-7.093-.006-10.86q0-2.825,0-5.745,0-.73,0-1.464v-.736a2.662,2.662,0,0,1,.1-.758,2.447,2.447,0,0,1,2.33-1.729l22.515.008h1.289a2.566,2.566,0,0,1,1.275.26,2.418,2.418,0,0,1,1.329,2.08q0,2.461,0,4.772c0,3.077-.009,5.944-.013,8.561-.014,5.23-.025,9.464-.033,12.4,0,.367,0,.709-.012,1.038a2.353,2.353,0,0,1-1.221,1.907,2.237,2.237,0,0,1-.837.262,1.955,1.955,0,0,1-.3.011" transform="translate(0 -122.881)" fill="#e0e0e0"/>
              <path id="Trazado_601742" data-name="Trazado 601742" d="M18.725,232.809l-7.2-7.313A10.264,10.264,0,1,1,8.928,235.87Z" transform="translate(-5.409 -134.835)" fill="#f5f5f5"/>
              <path id="Trazado_601743" data-name="Trazado 601743" d="M15.85,238.039,7.3,240.6a8.924,8.924,0,0,1,2.2-8.838Z" transform="translate(-4.195 -140.414)" fill="#f5f5f5"/>
              <path id="Trazado_601744" data-name="Trazado 601744" d="M405.147,22.888H387.873a2.807,2.807,0,0,1-2.807-2.807V2.807A2.807,2.807,0,0,1,387.873,0h17.274a2.807,2.807,0,0,1,2.807,2.807V20.081a2.807,2.807,0,0,1-2.807,2.807" transform="translate(-233.292 0)" fill="#f5f5f5"/>
              <path id="Trazado_601745" data-name="Trazado 601745" d="M394.05,20.945l2.305-2.305,4.446,3.952,7.425-7.453,2.141,2.305-9.9,9.594Z" transform="translate(-238.736 -9.172)" fill="#fff"/>
              <path id="Trazado_601746" data-name="Trazado 601746" d="M566.4,21.3l-.277-15.643.277,0a15.645,15.645,0,1,1-14.933,20.311Z" transform="translate(-334.106 -3.427)" fill="#ebebeb"/>
              <path id="Trazado_601747" data-name="Trazado 601747" d="M563.36,20.786l-13.4,4.252A13.6,13.6,0,0,1,562.7,6.659q.18,0,.359,0Z" transform="translate(-332.668 -4.034)" fill="#ebebeb"/>
            </g>
          </g>
          <g id="Grupo_878545" data-name="Grupo 878545">
            <g id="Grupo_878544" data-name="Grupo 878544" clip-path="url(#clip-path)">
              <path id="Trazado_601748" data-name="Trazado 601748" d="M272.4,407.96c0,.057-58.086.1-129.722.1-71.661,0-129.734-.046-129.734-.1s58.073-.1,129.734-.1c71.636,0,129.722.046,129.722.1" transform="translate(-7.841 -247.101)" fill="#263238"/>
            </g>
          </g>
          <g id="Grupo_878547" data-name="Grupo 878547">
            <g id="Grupo_878546" data-name="Grupo 878546" clip-path="url(#clip-path)">
              <path id="Trazado_601749" data-name="Trazado 601749" d="M189.729,62.258H153.975a2.329,2.329,0,0,1-2.328-2.329V27.8a2.329,2.329,0,0,1,2.328-2.329h35.754a2.329,2.329,0,0,1,2.329,2.329V59.929a2.329,2.329,0,0,1-2.329,2.329" transform="translate(-91.875 -15.43)" fill="#fff"/>
              <path id="Trazado_601750" data-name="Trazado 601750" d="M192.058,31.73H151.647V27.861a2.392,2.392,0,0,1,2.392-2.392h35.815a2.2,2.2,0,0,1,2.2,2.2Z" transform="translate(-91.875 -15.43)" fill="#e0e0e0"/>
              <path id="Trazado_601751" data-name="Trazado 601751" d="M163.364,33.53a.992.992,0,1,1-.99-.933.963.963,0,0,1,.99.933" transform="translate(-97.774 -19.749)" fill="#fff"/>
              <path id="Trazado_601752" data-name="Trazado 601752" d="M170.213,33.53a.992.992,0,1,1-.99-.933.963.963,0,0,1,.99.933" transform="translate(-101.923 -19.749)" fill="#fff"/>
              <path id="Trazado_601753" data-name="Trazado 601753" d="M177.063,33.53a.992.992,0,1,1-.99-.933.963.963,0,0,1,.99.933" transform="translate(-106.073 -19.749)" fill="#fff"/>
              <path id="Trazado_601754" data-name="Trazado 601754" d="M162.922,49.73v22.5c0-.209,32.483,0,32.483,0" transform="translate(-98.706 -30.129)" fill="#fff"/>
              <path id="Trazado_601755" data-name="Trazado 601755" d="M195.239,72.234a.729.729,0,0,1-.142.009l-.417.008-1.6.009h-5.893l-19.441-.013-2.811.017-1.375.021c-.226.006-.454.011-.674.027l-.076.008-.01,0h0c.234-.006-.182-.117-.145-.09v-.547c0-1.79,0-3.517.006-5.162.008-3.287.016-6.248.022-8.74s.025-4.489.033-5.892c.008-.686.015-1.223.019-1.6,0-.175.007-.312.01-.417a.718.718,0,0,1,.01-.142.731.731,0,0,1,.011.142c0,.1.006.242.01.417,0,.379.011.916.019,1.6.007,1.4.019,3.413.032,5.892s.014,5.453.022,8.74c0,1.645,0,3.372.006,5.162v.547c.034.037-.371-.09-.133-.1l.021-.007a.271.271,0,0,1,.032-.006l.092-.01c.231-.017.456-.021.685-.028l1.378-.023,2.813-.018c7.593-.017,14.466.033,19.441.073l5.893.064,1.6.029.417.013a.719.719,0,0,1,.142.011" transform="translate(-98.541 -30.129)" fill="#263238"/>
              <rect id="Rectángulo_298200" data-name="Rectángulo 298200" width="6.931" height="9.027" transform="translate(67.524 30.551)" fill="#455a64"/>
              <rect id="Rectángulo_298201" data-name="Rectángulo 298201" width="6.931" height="13.856" transform="translate(76.937 25.722)" fill="#455a64"/>
              <rect id="Rectángulo_298202" data-name="Rectángulo 298202" width="6.931" height="17.9" transform="translate(86.35 21.677)" fill="#455a64"/>
              <path id="Trazado_601756" data-name="Trazado 601756" d="M189.563,62.1c0-.01.133,0,.385-.045a2.32,2.32,0,0,0,1.9-2.012c.032-.724,0-1.575.008-2.525-.008-3.811-.019-9.315-.033-16.116,0-3.4-.008-7.129-.013-11.129q0-.75,0-1.513,0-.381,0-.766a4.026,4.026,0,0,0-.038-.754,2.244,2.244,0,0,0-2.116-1.835h-6.57l-29.268.008a2.225,2.225,0,0,0-1.648.73,2.3,2.3,0,0,0-.582,1.707q0,1.922,0,3.82,0,3.793,0,7.468c0,4.9,0,9.618-.006,14.118q0,3.372,0,6.572a2.238,2.238,0,0,0,1.8,2.144,3.79,3.79,0,0,0,.753.043h2.279l11.13.013,16.115.033,4.381.019,1.139.01c.257,0,.388.011.388.011s-.132.007-.388.011l-1.139.01-4.381.019-16.115.033-11.13.013h-2.279a3.956,3.956,0,0,1-.786-.045,2.415,2.415,0,0,1-1.951-2.312q0-3.2-.007-6.576c0-4.5,0-9.222-.006-14.118q0-3.672,0-7.468,0-1.9,0-3.82a2.505,2.505,0,0,1,.635-1.845,2.43,2.43,0,0,1,1.8-.8l29.268.008,6.576.009a2.422,2.422,0,0,1,2.282,1.984,4.152,4.152,0,0,1,.04.785q0,.385,0,.766,0,.763,0,1.513c0,4-.009,7.727-.013,11.129-.014,6.8-.025,12.306-.033,16.116-.011.953.012,1.793-.027,2.532A2.353,2.353,0,0,1,191,61.632a2.268,2.268,0,0,1-1.044.445,1.727,1.727,0,0,1-.29.025c-.065,0-.1,0-.1,0" transform="translate(-91.709 -15.273)" fill="#263238"/>
            </g>
          </g>
          <g id="Grupo_878549" data-name="Grupo 878549">
            <g id="Grupo_878548" data-name="Grupo 878548" clip-path="url(#clip-path)">
              <path id="Trazado_601757" data-name="Trazado 601757" d="M630.206,126.412l-.519-3.594a12.113,12.113,0,1,1,3.688,2.287l.005,0Z" transform="translate(-379.089 -61.654)" fill="#fff"/>
              <path id="Trazado_601758" data-name="Trazado 601758" d="M640.061,124.645l1.823-1.823,3.516,3.125,5.871-5.893,1.693,1.823-7.824,7.586Z" transform="translate(-387.781 -72.734)" fill="#0a763d"/>
              <path id="Trazado_601759" data-name="Trazado 601759" d="M630.086,126.254s.074-.036.212-.1l.61-.263,2.333-.989-.01.083-.005,0a.048.048,0,0,1,.046-.084,11.98,11.98,0,0,0,7.6.373c.311-.082.614-.208.93-.313a6.646,6.646,0,0,0,.936-.391,11.9,11.9,0,0,0,3.546-2.523,11.953,11.953,0,0,0,1.691-14.45,12.177,12.177,0,0,0-1.748-2.29,12.42,12.42,0,0,0-4.962-3.033,12.066,12.066,0,0,0-2.81-.515,11.853,11.853,0,0,0-5.4.9,12.031,12.031,0,0,0-3.445,19.978c.155,1.162.274,2.06.357,2.679l.089.7c.02.158.027.244.027.244s-.016-.071-.041-.222l-.11-.68c-.1-.621-.237-1.521-.418-2.685l.016.029a12.036,12.036,0,0,1-3.3-4.889,12.2,12.2,0,0,1,6.738-15.359,12.069,12.069,0,0,1,5.5-.92,12.291,12.291,0,0,1,2.866.523,12.049,12.049,0,0,1,6.841,5.429,12.2,12.2,0,0,1-1.751,14.708,12.047,12.047,0,0,1-3.613,2.546,6.764,6.764,0,0,1-.952.391c-.321.1-.63.229-.946.311a12.317,12.317,0,0,1-1.847.355,12.122,12.122,0,0,1-5.832-.8l.046-.084.005,0a.048.048,0,0,1,.011.067.053.053,0,0,1-.021.017l-2.385.948-.607.237c-.135.052-.2.077-.2.073" transform="translate(-378.969 -61.496)" fill="#263238"/>
            </g>
          </g>
          <g id="Grupo_878551" data-name="Grupo 878551">
            <g id="Grupo_878550" data-name="Grupo 878550" clip-path="url(#clip-path)">
              <path id="Trazado_601760" data-name="Trazado 601760" d="M22.917,141.073,23,137.48c3.119-3.584,4.2-9.119,1.034-15.075C13,110.717-3.623,122.618,3.887,136.835c5.041,5.356,11.223,5.779,15.763,3.327l0,0Z" transform="translate(-1.213 -71.289)" fill="#fff"/>
              <path id="Trazado_601761" data-name="Trazado 601761" d="M22.754,140.909s-.077-.027-.22-.069l-.631-.186-2.409-.7.02.08,0,0a.047.047,0,0,0,0-.067.048.048,0,0,0-.058-.009,11.844,11.844,0,0,1-7.423,1.261c-.315-.044-.628-.132-.951-.2a6.552,6.552,0,0,1-.966-.274,11.77,11.77,0,0,1-3.781-2.061,11.828,11.828,0,0,1-3.362-14,12.056,12.056,0,0,1,1.448-2.456,12.284,12.284,0,0,1,4.518-3.563,11.941,11.941,0,0,1,2.7-.836,11.731,11.731,0,0,1,5.408.244A11.905,11.905,0,0,1,22.793,137.3c-.015,1.16-.027,2.056-.035,2.674,0,.3,0,.527-.006.694s0,.243,0,.243.007-.072.014-.223.016-.389.028-.681c.022-.622.054-1.522.094-2.687l-.012.031a11.91,11.91,0,0,0,2.668-5.192,12.071,12.071,0,0,0-8.428-14.3,11.934,11.934,0,0,0-5.512-.257,12.168,12.168,0,0,0-2.754.851,11.923,11.923,0,0,0-6.081,6.139,12.067,12.067,0,0,0,3.451,14.243,11.914,11.914,0,0,0,3.85,2.076,6.7,6.7,0,0,0,.981.272c.328.065.646.152.965.194a12.177,12.177,0,0,0,1.857.132,12,12,0,0,0,5.636-1.471l-.056-.076,0,0a.047.047,0,0,0,0,.067.05.05,0,0,0,.022.014l2.454.651.624.162a2,2,0,0,0,.206.048" transform="translate(-1.05 -71.126)" fill="#263238"/>
              <path id="Trazado_601762" data-name="Trazado 601762" d="M41.9,145.178a1.51,1.51,0,0,0,2.134,2.134,1.51,1.51,0,0,0-2.134-2.134" transform="translate(-25.147 -87.72)" fill="#263238"/>
              <path id="Trazado_601763" data-name="Trazado 601763" d="M29.035,145.178a1.51,1.51,0,0,0,2.134,2.134,1.51,1.51,0,0,0-2.134-2.134" transform="translate(-17.355 -87.72)" fill="#263238"/>
              <path id="Trazado_601764" data-name="Trazado 601764" d="M16.175,145.178a1.51,1.51,0,0,0,2.134,2.134,1.51,1.51,0,0,0-2.134-2.134" transform="translate(-9.564 -87.72)" fill="#263238"/>
            </g>
          </g>
          <g id="Grupo_878559" data-name="Grupo 878559">
            <g id="Grupo_878558" data-name="Grupo 878558" clip-path="url(#clip-path)">
              <path id="Trazado_601765" data-name="Trazado 601765" d="M162.7,237.186l-7.712-2.079-1.534,6.979-3.85-10.526c-1.795-5.032-4.251-6.766-5.945-7.235l-.613.8,1.623,27.841,5.141,6.395a5.065,5.065,0,0,0,8.645-1.174c2.887-7.429,3.867-18.736,4.244-21" transform="translate(-86.666 -135.907)" fill="#ef8b53"/>
              <path id="Trazado_601766" data-name="Trazado 601766" d="M55.1,362.559H93.681l-4.044-27.7L65.046,333.1s-4.241,4.157-5.647,9.039-4.3,20.421-4.3,20.421" transform="translate(-33.381 -201.808)" fill="#263238"/>
              <path id="Trazado_601767" data-name="Trazado 601767" d="M62.525,148.845c.911-8.217,2.7-17.265,14.416-16.813,0,0,8.822.308,11.63,6.578,1.52,3.395,1.092,16.293,1.789,26.926l1.712,13.645-35.424-5.473s5.311-19.753,5.877-24.863" transform="translate(-34.32 -79.982)" fill="#263238"/>
              <path id="Trazado_601768" data-name="Trazado 601768" d="M96.119,139.279l-.754-.673-7.8,3.444a2.206,2.206,0,0,0-2.012,2.2L87.34,170.4c.047,1.746-.421,2.839.679,4.2l7.555,9.038c2.64,3.257,2.164-4.089,4.047-7.835.131-.262-.506-1.2-.47-1.384a5.225,5.225,0,0,0,.1-.58c.167-2.079.121-3.875.121-3.875.066-2.279.082-3.213.083-3.192,0,0,4.82-.715,5.925-6.969.549-3.111.287-7.356-.034-11.533-.443-5.78-4.573-9.145-9.226-8.987" transform="translate(-51.835 -83.974)" fill="#ffc09d"/>
              <path id="Trazado_601769" data-name="Trazado 601769" d="M110.031,174.058a.8.8,0,0,1-.789.8.769.769,0,0,1-.817-.74.8.8,0,0,1,.789-.8.77.77,0,0,1,.817.74" transform="translate(-65.689 -105.004)" fill="#263238"/>
              <path id="Trazado_601770" data-name="Trazado 601770" d="M129.695,173.859a.8.8,0,0,1-.789.8.77.77,0,0,1-.817-.739.805.805,0,0,1,.789-.8.77.77,0,0,1,.817.74" transform="translate(-77.603 -104.884)" fill="#263238"/>
              <path id="Trazado_601771" data-name="Trazado 601771" d="M128.918,166.038c-.1.1-.7-.358-1.569-.371s-1.507.409-1.6.3c-.046-.048.06-.235.339-.432a2.213,2.213,0,0,1,1.283-.371,2.121,2.121,0,0,1,1.246.426c.262.209.35.4.3.446" transform="translate(-76.18 -100.065)" fill="#263238"/>
              <path id="Trazado_601772" data-name="Trazado 601772" d="M106.718,166.733c-.112.092-.664-.429-1.523-.53s-1.542.252-1.622.136c-.04-.052.082-.228.382-.395a2.21,2.21,0,0,1,1.314-.238,2.123,2.123,0,0,1,1.2.552c.239.235.306.434.252.475" transform="translate(-62.746 -100.383)" fill="#263238"/>
              <path id="Trazado_601773" data-name="Trazado 601773" d="M119.314,172.949a5.735,5.735,0,0,1,1.41-.229c.222-.019.432-.059.471-.209a1.124,1.124,0,0,0-.136-.658l-.624-1.694a28.946,28.946,0,0,1-1.392-4.427,29.012,29.012,0,0,1,1.745,4.3q.312.892.6,1.7a1.279,1.279,0,0,1,.1.87.556.556,0,0,1-.369.317,1.514,1.514,0,0,1-.376.046,5.63,5.63,0,0,1-1.425-.023" transform="translate(-72.116 -100.408)" fill="#263238"/>
              <path id="Trazado_601774" data-name="Trazado 601774" d="M107.964,206.389A15.961,15.961,0,0,1,99.6,204s2.037,4.378,8.324,3.9Z" transform="translate(-60.344 -123.596)" fill="#ff9b6c"/>
              <path id="Trazado_601775" data-name="Trazado 601775" d="M107.281,158.388c-.113.223-.958.01-1.98.011-1.023-.02-1.872.178-1.981-.048-.048-.108.12-.31.477-.5a3.447,3.447,0,0,1,3.018.028c.352.194.516.4.467.506" transform="translate(-62.591 -95.433)" fill="#263238"/>
              <path id="Trazado_601776" data-name="Trazado 601776" d="M128.652,156.552c-.156.194-.748-.02-1.465-.043-.716-.047-1.327.109-1.463-.1-.059-.1.039-.3.308-.478a2.123,2.123,0,0,1,2.359.114c.25.207.33.41.261.505" transform="translate(-76.16 -94.288)" fill="#263238"/>
              <path id="Trazado_601777" data-name="Trazado 601777" d="M84.493,154.584s4.471,1.232,6.617-9.773c.734-3.763,4.1-6.9,4.1-6.9l-1.418-.376s-8.647,2.745-8.79,2.86-2.054,4.586-2.054,4.586Z" transform="translate(-50.252 -83.324)" fill="#263238"/>
              <path id="Trazado_601778" data-name="Trazado 601778" d="M82.688,177.01c.007-.467-.514-1.577-.974-1.657-1.229-.213-3.45-.153-3.525,2.975-.1,4.276,4.212,3.5,4.222,3.374.008-.1.253-3.078.277-4.691" transform="translate(-47.37 -106.193)" fill="#ffc09d"/>
              <path id="Trazado_601779" data-name="Trazado 601779" d="M82.812,182.154c-.019-.014-.076.05-.2.105a.745.745,0,0,1-.557,0,1.843,1.843,0,0,1-.814-1.674,2.457,2.457,0,0,1,.234-1.061.859.859,0,0,1,.574-.558.379.379,0,0,1,.435.214c.054.121.025.206.048.213s.093-.069.063-.246a.475.475,0,0,0-.162-.272.563.563,0,0,0-.409-.119,1.048,1.048,0,0,0-.794.644,2.528,2.528,0,0,0-.287,1.186,1.933,1.933,0,0,0,1.043,1.872.8.8,0,0,0,.684-.1c.135-.1.16-.2.145-.205" transform="translate(-49.038 -108.297)" fill="#ff9b6c"/>
              <path id="Trazado_601780" data-name="Trazado 601780" d="M94.315,153.619a6.223,6.223,0,0,0,.635-.15,3.855,3.855,0,0,0,1.491-.932,5.274,5.274,0,0,0,.762-.954,7.14,7.14,0,0,0,.6-1.269,26.709,26.709,0,0,0,.817-3.133c.263-1.123.554-2.185.88-3.131a17.858,17.858,0,0,1,1.033-2.448,12.792,12.792,0,0,1,.928-1.531c.12-.174.226-.3.293-.389a.987.987,0,0,1,.11-.13.946.946,0,0,1-.091.143c-.061.093-.161.223-.276.4a14.63,14.63,0,0,0-.893,1.543,18.727,18.727,0,0,0-1.005,2.445c-.319.944-.606,2-.868,3.123a25.667,25.667,0,0,1-.83,3.145,7.132,7.132,0,0,1-.622,1.282,5.291,5.291,0,0,1-.786.962,3.788,3.788,0,0,1-1.533.916,2.373,2.373,0,0,1-.648.108" transform="translate(-57.141 -84.547)" fill="#263238"/>
              <path id="Trazado_601781" data-name="Trazado 601781" d="M77.2,169.776a1.2,1.2,0,0,1-.053-.2c-.032-.149-.074-.349-.128-.6l-.46-2.3.1-.018c.026.154.056.325.087.5l-.005-.016.1.189-.106.043a41.161,41.161,0,0,1-1.594-6.825,41.721,41.721,0,0,1-.407-4.435,20.353,20.353,0,0,1,.262-4.885,7.671,7.671,0,0,1,.713-1.963,10.581,10.581,0,0,1,1.126-1.682c.835-1.031,1.741-1.924,2.567-2.808l4.434-4.658,3-3.129.823-.844.218-.216a.415.415,0,0,1,.079-.069.441.441,0,0,1-.065.082l-.2.229-.8.869L83.93,140.2l-4.4,4.687c-.822.888-1.727,1.785-2.549,2.8a8.421,8.421,0,0,0-1.8,3.568,20.38,20.38,0,0,0-.263,4.837,42.545,42.545,0,0,0,.389,4.418,43.011,43.011,0,0,0,1.532,6.815l-.106.043-.093-.19,0-.008v-.008c-.028-.177-.055-.348-.079-.5l.1-.018c.176.988.315,1.767.412,2.313.042.256.076.458.1.608a1.2,1.2,0,0,1,.025.21" transform="translate(-45.257 -82.303)" fill="#455a64"/>
              <path id="Trazado_601782" data-name="Trazado 601782" d="M81.159,191.467a1.758,1.758,0,1,0,1.7-1.815,1.758,1.758,0,0,0-1.7,1.815" transform="translate(-49.169 -114.9)" fill="#455a64"/>
              <path id="Trazado_601783" data-name="Trazado 601783" d="M146.57,241.514a2.022,2.022,0,0,1,.065.4l.125,1.164c.111,1.011.212,2.478.307,4.293.186,3.631.182,8.656,0,14.2s-.329,10.553-.28,14.181c.019,1.814.054,3.282.1,4.3.015.481.028.869.037,1.169a1.977,1.977,0,0,1-.008.409,1.966,1.966,0,0,1-.055-.4l-.1-1.166c-.084-1.013-.153-2.482-.2-4.3-.107-3.634.007-8.656.187-14.194s.222-10.55.093-14.177c-.066-1.813-.134-3.28-.207-4.292-.027-.481-.049-.868-.065-1.168a1.954,1.954,0,0,1,0-.409" transform="translate(-88.771 -146.321)" fill="#263238"/>
              <path id="Trazado_601784" data-name="Trazado 601784" d="M73.185,226.648,77.5,260.733l23.326,1.672,1.51.77-1.54-28.164-8.1-19.255-.814-.5s-.679,5.691-2.871,5.6c-1.494-.065-7.138-2.745-8.379-3.578l-1.246-3.625Z" transform="translate(-44.339 -129.442)" fill="#fff"/>
              <path id="Trazado_601785" data-name="Trazado 601785" d="M50.7,266.271l4.96-11.376L50.86,218.482l8.365-3.506,2.741-2.956s2.543,9.393,3.336,12.683,3.065,10.524,4.078,17.008-.3,18.763-1.306,22.913-5.083,24.688-5.083,24.688H44.266s3.026-15.841,6.438-23.041" transform="translate(-26.819 -128.452)" fill="#ef8b53"/>
              <path id="Trazado_601786" data-name="Trazado 601786" d="M120.688,212.6l1.984,2.022,7.392,2.6s2.177,8.526,2.263,11.153-.04,31.786,0,33.157,5.239,26.866,4.82,28.024h-5.067s-2.722-20.951-2.9-26.434-.851-18.954-2.211-25.542-6.366-22.791-6.366-22.791Z" transform="translate(-73.069 -128.804)" fill="#ef8b53"/>
              <path id="Trazado_601787" data-name="Trazado 601787" d="M132.582,269.287a.488.488,0,0,1-.015-.136c0-.107-.009-.239-.015-.4-.007-.376-.017-.89-.029-1.539-.014-1.362-.033-3.289-.057-5.66-.045-4.779-.069-11.382-.19-18.67-.021-.911-.038-1.812-.075-2.7s-.15-1.744-.244-2.6c-.194-1.709-.384-3.355-.6-4.919s-.439-3.046-.72-4.418a18.941,18.941,0,0,0-1.188-3.692,48.34,48.34,0,0,0-2.561-5.031l-.779-1.326-.2-.345a.509.509,0,0,1-.062-.122.466.466,0,0,1,.087.106l.228.329c.2.292.48.728.827,1.3a43.3,43.3,0,0,1,2.653,5.007,18.841,18.841,0,0,1,1.235,3.724c.293,1.38.531,2.865.75,4.432s.416,3.215.614,4.923c.1.852.224,1.72.25,2.62s.055,1.791.076,2.7c.121,7.293.112,13.9.1,18.676-.015,2.371-.027,4.3-.035,5.66-.011.649-.02,1.163-.026,1.539-.006.161-.01.293-.014.4a.486.486,0,0,1-.015.136" transform="translate(-76.245 -131.912)" fill="#263238"/>
              <path id="Trazado_601788" data-name="Trazado 601788" d="M91.11,262.1a2.047,2.047,0,0,1-.078-.408c-.039-.269-.088-.667-.14-1.181-.1-1.028-.215-2.519-.244-4.366-.016-.923-.009-1.936.029-3.021a13.132,13.132,0,0,0-.54-3.375,55.679,55.679,0,0,0-2.874-7.4c-1.184-2.569-2.4-4.977-3.532-7.159a29.452,29.452,0,0,1-1.511-3.153,26.96,26.96,0,0,1-.842-2.916c-.426-1.8-.674-3.277-.838-4.3-.08-.51-.135-.907-.168-1.177a2.1,2.1,0,0,1-.034-.414,2.292,2.292,0,0,1,.092.405l.222,1.167c.2,1.012.476,2.48.926,4.268a28.022,28.022,0,0,0,.869,2.883,30.246,30.246,0,0,0,1.524,3.116c1.141,2.177,2.37,4.586,3.558,7.161a53.74,53.74,0,0,1,2.866,7.448,13.139,13.139,0,0,1,.521,3.45c-.047,1.082-.066,2.09-.064,3.01,0,1.841.085,3.331.15,4.359.035.493.064.886.085,1.184a2.43,2.43,0,0,1,.019.415" transform="translate(-48.672 -135.247)" fill="#263238"/>
              <path id="Trazado_601789" data-name="Trazado 601789" d="M147.72,237.455a2.021,2.021,0,0,1,.2.347c.131.23.3.581.505,1.039a20.913,20.913,0,0,1,1.265,4.054,30.847,30.847,0,0,1,.611,6.269c-.009,2.374-.194,4.973-.431,7.694-.5,5.439-.822,10.367-.929,13.943-.063,1.787-.1,3.234-.12,4.235-.015.477-.026.859-.035,1.152a2.029,2.029,0,0,1-.032.4,2.089,2.089,0,0,1-.027-.4c-.005-.293-.012-.676-.02-1.152-.014-1-.01-2.45.026-4.239.054-3.58.339-8.525.843-13.963.237-2.718.43-5.311.453-7.669a31.948,31.948,0,0,0-.543-6.227,22.9,22.9,0,0,0-1.166-4.051c-.19-.461-.339-.819-.453-1.056a2.083,2.083,0,0,1-.151-.374" transform="translate(-89.496 -143.862)" fill="#263238"/>
              <path id="Trazado_601790" data-name="Trazado 601790" d="M111.882,187.922a2.514,2.514,0,0,0-.267,1.459,1.2,1.2,0,0,0,.293.79,1.021,1.021,0,0,0,.747.276,2.041,2.041,0,0,0,.787-.2,2.787,2.787,0,0,0,1.063-1.36c-.688-.238-1.9-.732-2.623-.961" transform="translate(-67.618 -113.853)" fill="#ff9b6c"/>
              <path id="Trazado_601791" data-name="Trazado 601791" d="M113.426,189.976a1.1,1.1,0,0,1-.959.342,1.384,1.384,0,0,1-.519-.145,1.01,1.01,0,0,1-.44-.452,1.389,1.389,0,0,1-.143-.672,3.832,3.832,0,0,1,.079-.709,2.869,2.869,0,0,1,.2-.656l.039-.082.082.031c.747.278,1.4.531,1.863.72a3.535,3.535,0,0,1,.73.337,3.509,3.509,0,0,1-.772-.213c-.474-.155-1.134-.383-1.882-.652l.121-.051a2.852,2.852,0,0,0-.18.606,2.078,2.078,0,0,0,.033,1.257.991.991,0,0,0,.8.538,1.5,1.5,0,0,0,.7-.092,2.337,2.337,0,0,1,.247-.106" transform="translate(-67.47 -113.658)" fill="#263238"/>
              <path id="Trazado_601792" data-name="Trazado 601792" d="M296.668,251.967H174.654a6.03,6.03,0,0,1-6.03-6.03V156.41a6.03,6.03,0,0,1,6.03-6.03H296.668a6.03,6.03,0,0,1,6.03,6.03v89.528a6.03,6.03,0,0,1-6.03,6.03" transform="translate(-102.161 -91.108)" fill="#fff"/>
              <path id="Trazado_601793" data-name="Trazado 601793" d="M302.75,164.094H168.624v-7.772a5.941,5.941,0,0,1,5.942-5.941H296.537a6.212,6.212,0,0,1,6.213,6.212Z" transform="translate(-102.161 -91.108)" fill="#e0e0e0"/>
              <path id="Trazado_601794" data-name="Trazado 601794" d="M296.51,251.809s.1-.009.3-.02c.1-.008.224-.008.37-.027l.511-.08c.191-.045.4-.1.639-.167a6.509,6.509,0,0,0,.743-.3,5.834,5.834,0,0,0,1.649-1.151,5.9,5.9,0,0,0,1.389-2.131l.123-.336c.036-.115.061-.235.093-.354a5.52,5.52,0,0,0,.139-.743,14.552,14.552,0,0,0,.045-1.613c0-2.245-.006-4.835-.009-7.751-.008-11.665-.019-28.541-.033-49.394q0-7.821-.007-16.367,0-4.269,0-8.707,0-2.218,0-4.478c-.008-.751.016-1.515-.017-2.264a5.929,5.929,0,0,0-3.8-5.217,6.179,6.179,0,0,0-2.266-.4h-2.366l-9.651,0-20.146,0-89.7.008a5.92,5.92,0,0,0-4.949,2.652,6.036,6.036,0,0,0-.961,2.716c-.034.48-.029.975-.028,1.467v1.474q0,5.894,0,11.707,0,11.624,0,22.888c0,15.006,0,29.48-.006,43.268q0,2.585,0,5.138,0,1.276,0,2.545a19.6,19.6,0,0,0,.076,2.509,5.91,5.91,0,0,0,4.821,4.933,15.137,15.137,0,0,0,2.437.1l19,.005,34.111.013,49.392.033,13.428.019,3.492.01c.787,0,1.19.011,1.19.011s-.4.007-1.19.011l-3.492.01-13.428.019-49.392.033-34.111.013-19,.005a15.236,15.236,0,0,1-2.468-.1,6.093,6.093,0,0,1-4.972-5.084,19.736,19.736,0,0,1-.08-2.537q0-1.268,0-2.545,0-2.553,0-5.138c0-13.788,0-28.263-.006-43.268q0-11.255,0-22.888,0-5.812,0-11.707v-1.474c0-.492-.007-.982.029-1.486a6.243,6.243,0,0,1,.994-2.811,6.129,6.129,0,0,1,5.12-2.744l89.7.008,20.146,0,9.651,0h2.366a6.363,6.363,0,0,1,2.328.412,6.1,6.1,0,0,1,3.905,5.369c.033.768.009,1.519.016,2.273q0,2.259,0,4.478,0,4.437,0,8.707,0,8.537-.007,16.367c-.014,20.853-.025,37.73-.032,49.394,0,2.916-.007,5.506-.009,7.751a14.625,14.625,0,0,1-.05,1.62,5.666,5.666,0,0,1-.142.749c-.033.12-.059.241-.1.357l-.125.339a5.919,5.919,0,0,1-1.408,2.142,5.83,5.83,0,0,1-1.664,1.15,6.425,6.425,0,0,1-.748.3c-.236.065-.45.119-.642.162l-.513.076c-.147.018-.272.015-.372.022-.2.008-.3.01-.3.01" transform="translate(-102.002 -90.95)" fill="#263238"/>
              <path id="Trazado_601795" data-name="Trazado 601795" d="M186.1,167.45a1.571,1.571,0,1,1-1.571-1.571,1.571,1.571,0,0,1,1.571,1.571" transform="translate(-110.848 -100.498)" fill="#fff"/>
              <path id="Trazado_601796" data-name="Trazado 601796" d="M198.056,167.45a1.571,1.571,0,1,1-1.571-1.571,1.571,1.571,0,0,1,1.571,1.571" transform="translate(-118.089 -100.498)" fill="#fff"/>
              <path id="Trazado_601797" data-name="Trazado 601797" d="M210.009,167.45a1.571,1.571,0,1,1-1.571-1.571,1.571,1.571,0,0,1,1.571,1.571" transform="translate(-125.33 -100.498)" fill="#fff"/>
              <path id="Trazado_601798" data-name="Trazado 601798" d="M310.121,277.378H211.5a1.756,1.756,0,0,1-1.756-1.756V206.483a1.756,1.756,0,0,1,1.756-1.756h98.623a1.756,1.756,0,0,1,1.756,1.756v69.139a1.756,1.756,0,0,1-1.756,1.756" transform="translate(-127.072 -124.034)" fill="#f5f5f5"/>
              <path id="Trazado_601799" data-name="Trazado 601799" d="M230.7,321.134l24.931-35.483a2.823,2.823,0,0,1,4.508-.149l17.132,21.243a2.823,2.823,0,0,0,4.153.264l10.036-9.637a2.823,2.823,0,0,1,4.114.217l19.673,23.349a2.823,2.823,0,0,1-2.159,4.642H233.014a2.823,2.823,0,0,1-2.31-4.446" transform="translate(-139.458 -172.334)" fill="#ebebeb"/>
              <path id="Trazado_601800" data-name="Trazado 601800" d="M349.251,249.618a8.682,8.682,0,1,1-7.2-7.2,8.688,8.688,0,0,1,7.2,7.2" transform="translate(-201.142 -146.805)" fill="#ebebeb"/>
              <path id="Trazado_601801" data-name="Trazado 601801" d="M141.075,298.955s1.176-1.292-.728-1.663-11.569-.2-15.005.914l-4.662.792.818,7.661,2.912-.671,6.947,1.052c.8.121,3.24-.9,1.309-2.171,0,0,2.294-1.123.559-2.611,0,0,1.687-.888.319-2.648Z" transform="translate(-73.113 -180.008)" fill="#ffc09d"/>
              <path id="Trazado_601802" data-name="Trazado 601802" d="M118.425,300.962l1.808-.146-.2,8.218-1.762.364Z" transform="translate(-71.654 -182.249)" fill="#ebebeb"/>
              <path id="Trazado_601803" data-name="Trazado 601803" d="M52.8,227.941s-4.412,1.517-5.328,7.57c-1,6.592,1.6,18.086,1.712,22.254.08,3.079,2.1,10.175,8.672,9.93A102.864,102.864,0,0,0,75.5,265.342l-.03-8.629-15.628.011-1.551-14.645" transform="translate(-28.622 -138.098)" fill="#ef8b53"/>
              <path id="Trazado_601804" data-name="Trazado 601804" d="M58.193,242.078s.016.086.037.255.051.426.09.751c.075.669.185,1.643.327,2.9.276,2.529.674,6.188,1.17,10.733l-.073-.065,15.627-.033h.095v.095c.011,2.739.023,5.632.036,8.63v.082l-.078.017a105.47,105.47,0,0,1-12.635,2.016c-1.783.168-3.544.292-5.292.343a7.66,7.66,0,0,1-2.582-.405,7.116,7.116,0,0,1-2.232-1.281,10.106,10.106,0,0,1-2.789-4.1,13.684,13.684,0,0,1-.933-4.672c-.094-1.538-.316-3.035-.511-4.487l-.585-4.23c-.358-2.732-.646-5.286-.745-7.631a25.828,25.828,0,0,1,.352-6.311,5.4,5.4,0,0,1,.169-.667c.065-.216.119-.431.19-.636a11.3,11.3,0,0,1,.483-1.155,9.472,9.472,0,0,1,1.162-1.85,8.581,8.581,0,0,1,2.271-1.978,5.961,5.961,0,0,1,.7-.359,1.952,1.952,0,0,1,.251-.093s-.083.036-.242.112a6.852,6.852,0,0,0-.686.376,8.747,8.747,0,0,0-2.23,1.993,9.467,9.467,0,0,0-1.136,1.842,11.3,11.3,0,0,0-.47,1.147c-.069.2-.121.417-.184.631a5.461,5.461,0,0,0-.163.662,25.93,25.93,0,0,0-.318,6.28c.109,2.337.4,4.886.77,7.615l.6,4.227c.2,1.454.424,2.949.521,4.5a13.5,13.5,0,0,0,.927,4.609,9.918,9.918,0,0,0,2.734,4.019,6.919,6.919,0,0,0,2.167,1.242,7.472,7.472,0,0,0,2.512.393c1.732-.052,3.5-.177,5.273-.344a106.352,106.352,0,0,0,12.608-2l-.078.1c-.008-3-.016-5.891-.024-8.629l.1.1L59.745,256.8h-.066l-.007-.065c-.468-4.548-.845-8.209-1.1-10.74-.125-1.257-.222-2.233-.288-2.9-.03-.326-.053-.577-.07-.753s-.017-.257-.017-.257" transform="translate(-28.523 -138.098)" fill="#263238"/>
              <path id="Trazado_601805" data-name="Trazado 601805" d="M75.007,305.094a4.91,4.91,0,0,1,1.629-4.132,7.835,7.835,0,0,0-1.629,4.132" transform="translate(-45.415 -182.337)" fill="#263238"/>
              <path id="Trazado_601806" data-name="Trazado 601806" d="M66.531,242.134a8.335,8.335,0,0,1-.281-1.04,16.59,16.59,0,0,0-2.053-4.725,8.264,8.264,0,0,1-.568-.915,4.154,4.154,0,0,1,.692.833,12.922,12.922,0,0,1,2.074,4.772,4.152,4.152,0,0,1,.137,1.074" transform="translate(-38.548 -142.65)" fill="#263238"/>
              <path id="Trazado_601807" data-name="Trazado 601807" d="M329.481,70.908,323.035,47.3c-1.412-5.925-6.038-10.042-11.921-8.466l-.535.177a10.889,10.889,0,0,0-7.155,12.919c1.253,5.129,2.7,10.78,3.624,13.449,1.907,5.525,7.742,4.549,7.742,4.549s1.012,3.406,1.481,5.056l-.217,4.23,4.3-2.447Z" transform="translate(-183.64 -23.321)" fill="#ae7461"/>
              <path id="Trazado_601808" data-name="Trazado 601808" d="M332.74,111.278a14.121,14.121,0,0,0,6.516-4.53s-.356,4.747-6.057,6.082Z" transform="translate(-201.591 -64.673)" fill="#6f4439"/>
              <path id="Trazado_601809" data-name="Trazado 601809" d="M313.3,83.187a.835.835,0,0,0,1.029.546.8.8,0,0,0,.58-.985.835.835,0,0,0-1.028-.547.8.8,0,0,0-.581.986" transform="translate(-189.794 -49.783)" fill="#263238"/>
              <path id="Trazado_601810" data-name="Trazado 601810" d="M308.909,75.551c.132.071.585-.572,1.439-.853s1.619-.061,1.677-.2c.03-.061-.132-.215-.47-.323a2.294,2.294,0,0,0-1.385.029,2.2,2.2,0,0,0-1.1.808c-.2.288-.222.5-.158.534" transform="translate(-187.134 -44.885)" fill="#263238"/>
              <path id="Trazado_601811" data-name="Trazado 601811" d="M331.443,77.327a.834.834,0,0,0,1.029.546.8.8,0,0,0,.58-.985.835.835,0,0,0-1.028-.547.8.8,0,0,0-.581.986" transform="translate(-200.786 -46.233)" fill="#263238"/>
              <path id="Trazado_601812" data-name="Trazado 601812" d="M330.279,69.025c.133.071.586-.572,1.439-.853s1.619-.061,1.677-.2c.03-.061-.131-.214-.47-.322a2.289,2.289,0,0,0-1.385.029,2.2,2.2,0,0,0-1.1.808c-.195.288-.222.5-.159.534" transform="translate(-200.081 -40.932)" fill="#263238"/>
              <path id="Trazado_601813" data-name="Trazado 601813" d="M324.341,79.352a5.955,5.955,0,0,0-1.467.209c-.225.05-.446.075-.532-.061a1.171,1.171,0,0,1-.069-.694q.046-.892.095-1.871a30.031,30.031,0,0,0,.009-4.815,30.06,30.06,0,0,0-.4,4.8c-.022.654-.045,1.277-.064,1.872a1.331,1.331,0,0,0,.17.892.575.575,0,0,0,.463.2,1.557,1.557,0,0,0,.387-.071,5.833,5.833,0,0,0,1.4-.463" transform="translate(-195.03 -43.693)" fill="#263238"/>
              <path id="Trazado_601814" data-name="Trazado 601814" d="M327.336,62.037c.188.179.94-.324,1.939-.679.993-.376,1.892-.478,1.919-.736.009-.122-.226-.261-.639-.32a3.572,3.572,0,0,0-2.94,1.078c-.277.312-.366.57-.28.657" transform="translate(-198.297 -36.519)" fill="#263238"/>
              <path id="Trazado_601815" data-name="Trazado 601815" d="M306.659,69.033c.239.138.873-.283,1.709-.557.827-.3,1.59-.357,1.69-.612.04-.121-.133-.281-.5-.367a2.832,2.832,0,0,0-1.494.12,2.782,2.782,0,0,0-1.244.822c-.233.293-.268.524-.159.594" transform="translate(-185.754 -40.862)" fill="#263238"/>
              <path id="Trazado_601816" data-name="Trazado 601816" d="M355.966,70.466c.081-.072,3.439-2.391,4.574,1.443s-2.947,4.183-2.986,4.075-1.588-5.517-1.588-5.517" transform="translate(-215.662 -42.231)" fill="#ae7461"/>
              <path id="Trazado_601817" data-name="Trazado 601817" d="M361.049,76.036c.013-.017.081.027.209.045a.7.7,0,0,0,.5-.138,1.724,1.724,0,0,0,.325-1.709,2.294,2.294,0,0,0-.47-.9.8.8,0,0,0-.654-.364.354.354,0,0,0-.34.3c-.019.122.028.192.009.2s-.1-.04-.117-.207a.445.445,0,0,1,.08-.285.524.524,0,0,1,.34-.207.98.98,0,0,1,.874.387,2.365,2.365,0,0,1,.548,1,1.808,1.808,0,0,1-.484,1.944.746.746,0,0,1-.64.08c-.147-.06-.193-.139-.181-.15" transform="translate(-218.416 -44.083)" fill="#6f4439"/>
              <path id="Trazado_601818" data-name="Trazado 601818" d="M332.282,89.854c-.135.03.112.914-.468,1.754s-1.548,1.007-1.52,1.133c0,.059.258.113.659.012a2.288,2.288,0,0,0,1.283-.9,1.991,1.991,0,0,0,.335-1.454c-.07-.379-.23-.57-.289-.548" transform="translate(-200.108 -54.437)" fill="#263238"/>
              <path id="Trazado_601819" data-name="Trazado 601819" d="M280.551,43.36a.948.948,0,0,1,.268-.657,2.919,2.919,0,0,1,1.363-.66,8.418,8.418,0,0,0,3.243-1.927,4.177,4.177,0,0,1-1.247-.416,2.509,2.509,0,0,1-1.405-2.184.556.556,0,0,1,.191-.456c.226-.151.517.029.749.171a2.16,2.16,0,0,0,2.195.244,3.546,3.546,0,0,0,1.328-.866c.011-.022.021-.046.032-.068.138-.265.274-.519.409-.767v0h0a13.229,13.229,0,0,1,3.081-4.115,13.586,13.586,0,0,1,6.785-2.621,5.488,5.488,0,0,1,5.194,2.906,4.221,4.221,0,0,1,3.954-1.6l.029-.025c1.641.086,2.951,1.4,3.841,2.784.049.076.094.153.142.23a6.144,6.144,0,0,0,2.579,1.354c.168.041.363.094.43.253a.5.5,0,0,1-.137.471,3.088,3.088,0,0,1-1.052.857,6.911,6.911,0,0,0,.8.9c.252.234.553.514.494.853a.653.653,0,0,1-.57.481,1.91,1.91,0,0,1-.784-.106l.851,1.041a3.663,3.663,0,0,1-1.646.374c.107,1.508.652,4.2.574,5.267a6.081,6.081,0,0,0-1.754.608c-.6.418.006,1.517-.957,1.441-.49-.039-1.662-1.5-1.943-1.907a22.832,22.832,0,0,1-3.711-8.977,7.345,7.345,0,0,0-2.639-.919l.084.04c-1.729-.076-3.66-.083-4.927,1.1-.982.914-1.3,2.313-1.88,3.525a8.368,8.368,0,0,1-5.058,4.646c.285,1.757,1.046,4.542,1.434,6.145L288.6,48.018l0,.013c-.164-.153-.309-.313-.452-.473l-.047-.048,0-.007a10.316,10.316,0,0,0-.712-.765l-.011.018a1.029,1.029,0,0,1-1.834-.888,2.326,2.326,0,0,1,.333-.622,1.627,1.627,0,0,1-1.371.829,1.277,1.277,0,0,1-1.227-.952,1.086,1.086,0,0,1,.371-1.02,3.668,3.668,0,0,1-2.131.156c-.462-.107-.96-.362-.974-.9" transform="translate(-169.971 -17.591)" fill="#263238"/>
              <path id="Trazado_601820" data-name="Trazado 601820" d="M332.849,39.385a5.1,5.1,0,0,1,.716.346,4.2,4.2,0,0,1,1.416,1.6,7.365,7.365,0,0,1,.569,1.382c.156.516.28,1.081.414,1.676a15.433,15.433,0,0,0,.507,1.851,6.7,6.7,0,0,0,.416.932,2.105,2.105,0,0,0,.677.823.882.882,0,0,0,.87.03,1.312,1.312,0,0,0,.592-.615,3.032,3.032,0,0,0,.115-1.587l-.114.049a4.905,4.905,0,0,0,1.033.971,1.745,1.745,0,0,0,1.268.268,1.125,1.125,0,0,0,.547-.274.975.975,0,0,0,.277-.5,1,1,0,0,0-.03-.533.728.728,0,0,0-.31-.382l-.044.071a3.767,3.767,0,0,0,1.474.544,3.431,3.431,0,0,0,.417.034.637.637,0,0,0,.143-.007.746.746,0,0,0-.143-.016c-.093-.009-.233-.022-.41-.055a3.885,3.885,0,0,1-1.436-.57l-.043.071a.751.751,0,0,1,.286.822.873.873,0,0,1-.253.449,1.02,1.02,0,0,1-.5.242,1.632,1.632,0,0,1-1.181-.262,4.824,4.824,0,0,1-1-.953l-.134-.155.021.2a2.931,2.931,0,0,1-.108,1.516,1.18,1.18,0,0,1-.53.55.744.744,0,0,1-.74-.024,2,2,0,0,1-.628-.771,6.688,6.688,0,0,1-.409-.913,15.658,15.658,0,0,1-.51-1.833c-.138-.593-.266-1.16-.429-1.681a7.345,7.345,0,0,0-.592-1.4,4.136,4.136,0,0,0-1.473-1.6,2.372,2.372,0,0,0-.744-.3" transform="translate(-201.656 -23.861)" fill="#455a64"/>
              <path id="Trazado_601821" data-name="Trazado 601821" d="M292.976,46.464a.212.212,0,0,0,.056.025l.171.06a1.951,1.951,0,0,0,.283.082,3.165,3.165,0,0,0,.395.078,5.191,5.191,0,0,0,2.529-.285,6.63,6.63,0,0,0,3.011-2.26,11.487,11.487,0,0,0,1.907-4.218c.2-.8.33-1.6.5-2.348a7.764,7.764,0,0,1,.743-2.081,4,4,0,0,1,1.323-1.463,2.866,2.866,0,0,1,.823-.352,3.153,3.153,0,0,1,.825-.083,3.389,3.389,0,0,1,2.257.987,4.026,4.026,0,0,1,.54.754.186.186,0,0,0-.022-.058l-.078-.164a2.925,2.925,0,0,0-.4-.57,3.332,3.332,0,0,0-.882-.663,3.424,3.424,0,0,0-1.409-.384,3.236,3.236,0,0,0-.854.077,2.948,2.948,0,0,0-.858.359,4.085,4.085,0,0,0-1.373,1.5,7.816,7.816,0,0,0-.764,2.112c-.178.758-.3,1.552-.506,2.345a11.494,11.494,0,0,1-1.874,4.175,6.588,6.588,0,0,1-2.944,2.245,5.27,5.27,0,0,1-2.488.323,8.24,8.24,0,0,1-.912-.192" transform="translate(-177.499 -20.308)" fill="#455a64"/>
              <path id="Trazado_601822" data-name="Trazado 601822" d="M289.816,58.062a.886.886,0,0,0,.243.08,4.5,4.5,0,0,0,.686.125,6.036,6.036,0,0,0,1.035.028,6.363,6.363,0,0,0,2.442-.644,6.062,6.062,0,0,0,.886-.536,4.492,4.492,0,0,0,.534-.447c.117-.116.179-.182.172-.19s-.279.233-.762.557a6.886,6.886,0,0,1-.886.5,6.818,6.818,0,0,1-2.4.633,6.944,6.944,0,0,1-1.018,0c-.579-.044-.931-.133-.937-.108" transform="translate(-175.585 -34.217)" fill="#455a64"/>
              <path id="Trazado_601823" data-name="Trazado 601823" d="M294.981,128.179s-.57-1.612,1.366-3.783,14.11-6.753,14.11-6.753,4.516,4.4,9.626,1.617c3.977-2.164,3.669-5.556,3.669-5.556l15.47,2.59.526,11.689-5.543.032Z" transform="translate(-178.667 -68.887)" fill="#f7e9e1"/>
              <path id="Trazado_601824" data-name="Trazado 601824" d="M363.426,168.367l19.083-5.984-6.233-15.1,12.033.23s8.683,16.942,5.4,21.887c-2.992,4.5-27.62,5.412-27.62,5.412Z" transform="translate(-220.182 -89.231)" fill="#ae7461"/>
              <path id="Trazado_601825" data-name="Trazado 601825" d="M343.514,221.477l-.08,1.029a1.763,1.763,0,0,1-2.236,1.3l-19.542-1.979.359-3.093,19.73.68c1.311-.011,1.862.878,1.769,2.061" transform="translate(-194.875 -132.521)" fill="#455a64"/>
              <path id="Trazado_601826" data-name="Trazado 601826" d="M278.012,212.527a12,12,0,1,1,7.261-8.231,11.937,11.937,0,0,1-7.261,8.231m-8.464-21.6a11.193,11.193,0,1,0,6.833-.434,11.2,11.2,0,0,0-6.833.434" transform="translate(-158.504 -114.714)" fill="#263238"/>
              <path id="Trazado_601827" data-name="Trazado 601827" d="M277.838,210.714a12,12,0,1,1,7.261-8.231,11.937,11.937,0,0,1-7.261,8.231m-8.464-21.6a11.193,11.193,0,1,0,6.833-.434,11.2,11.2,0,0,0-6.833.434" transform="translate(-158.398 -113.616)" fill="#455a64"/>
              <path id="Trazado_601828" data-name="Trazado 601828" d="M283.622,195.1a1.16,1.16,0,0,1-.161-.115c-.106-.074-.244-.206-.452-.337a8.6,8.6,0,0,0-1.824-.969,10.727,10.727,0,0,0-1.361-.428,11.6,11.6,0,0,0-1.618-.256,11.12,11.12,0,0,0-1.809-.017,10.638,10.638,0,0,0-1.918.3,9.877,9.877,0,0,0-1.823.661,10.684,10.684,0,0,0-1.546.937,10.18,10.18,0,0,0-2.156,2.165,9.751,9.751,0,0,0-1.042,1.786c-.109.22-.166.4-.219.519a1.2,1.2,0,0,1-.081.18,1.086,1.086,0,0,1,.057-.189c.046-.121.095-.307.2-.531a9.1,9.1,0,0,1,1.014-1.819,10.033,10.033,0,0,1,2.159-2.207,10.58,10.58,0,0,1,1.561-.955,9.879,9.879,0,0,1,1.847-.673,10.615,10.615,0,0,1,1.94-.3,10.981,10.981,0,0,1,1.828.024,11.444,11.444,0,0,1,1.632.27,10.528,10.528,0,0,1,1.37.448,8.092,8.092,0,0,1,1.819,1.013,5.137,5.137,0,0,1,.439.358,1.089,1.089,0,0,1,.144.135" transform="translate(-162.134 -116.825)" fill="#fff"/>
              <path id="Trazado_601829" data-name="Trazado 601829" d="M307.433,225.153c-.018-.025.486-.322,1.167-.96l.263-.254c.09-.089.174-.192.267-.293.19-.2.363-.434.552-.677a9.319,9.319,0,0,0,1.617-3.631c.054-.3.114-.59.134-.864.013-.136.033-.268.039-.395s.009-.248.013-.365c.019-.933-.1-1.506-.067-1.51a2.583,2.583,0,0,1,.078.4,3.545,3.545,0,0,1,.055.476,5.775,5.775,0,0,1,.025.635q0,.177,0,.37c0,.129-.021.262-.032.4a8.463,8.463,0,0,1-.124.877,9.033,9.033,0,0,1-1.638,3.678,8.627,8.627,0,0,1-.568.678c-.1.1-.182.2-.276.291l-.272.251a5.789,5.789,0,0,1-.489.406,3.553,3.553,0,0,1-.39.277,2.487,2.487,0,0,1-.35.21" transform="translate(-186.258 -130.987)" fill="#fff"/>
              <path id="Trazado_601830" data-name="Trazado 601830" d="M290.364,210.332c0,.035-2.2.262-4.919.507s-4.928.414-4.931.379,2.2-.262,4.92-.507,4.928-.414,4.931-.379" transform="translate(-169.949 -127.427)" fill="#fff"/>
              <path id="Trazado_601831" data-name="Trazado 601831" d="M284.775,219a.755.755,0,0,1-.158.019l-.455.027-1.672.084c-1.412.069-3.362.169-5.515.3s-4.1.279-5.51.387l-1.67.126-.454.03a.764.764,0,0,1-.159,0,.75.75,0,0,1,.157-.028l.452-.053c.393-.044.963-.1,1.667-.167,1.408-.131,3.355-.289,5.51-.424s4.105-.221,5.518-.267c.707-.023,1.279-.037,1.674-.043l.455,0a.733.733,0,0,1,.159.007" transform="translate(-163.084 -132.675)" fill="#fff"/>
              <g id="Grupo_878554" data-name="Grupo 878554" transform="translate(103.907 83.304)" opacity="0.3">
                <g id="Grupo_878553" data-name="Grupo 878553">
                  <g id="Grupo_878552" data-name="Grupo 878552" clip-path="url(#clip-path-8)">
                    <path id="Trazado_601832" data-name="Trazado 601832" d="M263.821,212.7l21.724-1.346a11.632,11.632,0,0,1,.417,3.285l-22.211,1.351a8.6,8.6,0,0,1,.069-3.29" transform="translate(-263.623 -211.35)" fill="#fff"/>
                  </g>
                </g>
              </g>
              <g id="Grupo_878557" data-name="Grupo 878557" transform="translate(104.67 88.67)" opacity="0.3">
                <g id="Grupo_878556" data-name="Grupo 878556">
                  <g id="Grupo_878555" data-name="Grupo 878555" clip-path="url(#clip-path-9)">
                    <path id="Trazado_601833" data-name="Trazado 601833" d="M265.559,226.381l21.252-1.417s.141-.058-.292.877l-20.6,1.357a1.992,1.992,0,0,1-.356-.817" transform="translate(-265.559 -224.965)" fill="#fff"/>
                  </g>
                </g>
              </g>
              <path id="Trazado_601834" data-name="Trazado 601834" d="M338.89,200.776s-10.944,3.176-11.256,3.356-4.622,3.248-4.7,4.357,1.372,6.069,1.372,6.069,1.476.211,1.586-2.439l.109-2.65,1.816-1.627a18.45,18.45,0,0,0-.5,3.932c.169.867,1.609,3.057,2.415,2.883a2.344,2.344,0,0,0,1.247-.721,1.764,1.764,0,0,0,2.761.8,3.263,3.263,0,0,0,2.4.029,6.617,6.617,0,0,0,2.014-2.246.918.918,0,0,0-1.03-1.005,4.208,4.208,0,0,0-2.112.826l-.1-1.112a12.8,12.8,0,0,1,2.7-2.435c.864-.518,4.448-.6,5.561-1.735.944-.96-.838-3.075-2.021-3.716a2.042,2.042,0,0,0-.568-.206Z" transform="translate(-195.646 -121.64)" fill="#ae7461"/>
              <path id="Trazado_601835" data-name="Trazado 601835" d="M346.854,223.176a.792.792,0,0,0-.12.194,3.545,3.545,0,0,0-.233.577,4,4,0,0,0,.849,3.859,3.512,3.512,0,0,0,.454.427.791.791,0,0,0,.19.126c.014-.017-.251-.207-.583-.605a4.163,4.163,0,0,1-.832-3.785c.134-.5.294-.785.275-.794" transform="translate(-209.822 -135.211)" fill="#6f4439"/>
              <path id="Trazado_601836" data-name="Trazado 601836" d="M341.355,219.2a1.019,1.019,0,0,0-.125.209,2.23,2.23,0,0,0-.124.258,3.772,3.772,0,0,0-.14.353,5.6,5.6,0,0,0-.245.958,5.864,5.864,0,0,0,.11,2.409,5.564,5.564,0,0,0,.331.932c.054.13.119.24.171.339a2.325,2.325,0,0,0,.147.246,1,1,0,0,0,.144.2c.019-.012-.173-.3-.389-.814a6.2,6.2,0,0,1-.3-.925,6.779,6.779,0,0,1-.168-1.179,7.993,7.993,0,0,1,.019-1.268,4.849,4.849,0,0,1,.259-.869c.169-.53.334-.836.314-.846" transform="translate(-206.38 -132.805)" fill="#6f4439"/>
              <path id="Trazado_601837" data-name="Trazado 601837" d="M335.945,213.985c-.008-.009-.115.062-.244.223a1.778,1.778,0,0,0-.336.725,1.493,1.493,0,0,0,.013.8.65.65,0,0,0,.133.3,2.258,2.258,0,0,1,.435-2.05" transform="translate(-203.152 -129.642)" fill="#6f4439"/>
              <path id="Trazado_601838" data-name="Trazado 601838" d="M417.273,187.946c-.033.017-.227-.432-.708-1.037a5.941,5.941,0,0,0-2.374-1.786,5.063,5.063,0,0,0-2.943-.227c-.758.156-1.205.349-1.218.315a1.022,1.022,0,0,1,.3-.16,5.71,5.71,0,0,1,.884-.3,4.887,4.887,0,0,1,3.051.179,5.636,5.636,0,0,1,2.411,1.887,4.792,4.792,0,0,1,.478.8,1,1,0,0,1,.116.322" transform="translate(-248.416 -111.835)" fill="#6f4439"/>
              <path id="Trazado_601839" data-name="Trazado 601839" d="M389.154,126.982A6.567,6.567,0,0,1,401,122.947l.063.089c3.512,5,7.755,16.828,7.755,16.828L393.785,142.2l-3.752-10.264a19.126,19.126,0,0,1-.879-4.954" transform="translate(-235.767 -72.862)" fill="#f7e9e1"/>
              <path id="Trazado_601840" data-name="Trazado 601840" d="M269.85,145.417c.024.054.046.108.067.164a2.878,2.878,0,0,1,.159.784,2.616,2.616,0,0,0,.017.378,1.443,1.443,0,0,0,.1.222,3.8,3.8,0,0,1,.138,1.561,2.994,2.994,0,0,0,.289,1.672,1.1,1.1,0,0,0,1.469.453.751.751,0,0,0,.562.82,1.085,1.085,0,0,0,1-.311,2.022,2.022,0,0,0,.5-.959.829.829,0,0,0,.826.8,1.278,1.278,0,0,0,1.05-.643,2.937,2.937,0,0,0,.361-1.224,14.589,14.589,0,0,1,.259-1.639s.539.086.784.11l.072.007a9.992,9.992,0,0,0,.516-.895c.343-.706.6-1.154.867-1.8.2-.48.324-.96.027-1.273-.715-.753-2.113.778-2.113.778-.2-.533-1.823-.62-2.139.09-.128-.391-.08-.617-.4-.88a1.31,1.31,0,0,0-1.152-.29.938.938,0,0,0-.7.9,1.543,1.543,0,0,0-2.8.461.614.614,0,0,0-.038.212.257.257,0,0,0,.033.093c.073.136.168.257.232.4" transform="translate(-163.327 -86.825)" fill="#ae7461"/>
              <path id="Trazado_601841" data-name="Trazado 601841" d="M263.927,146.018a1.23,1.23,0,0,0-.975.324,2.016,2.016,0,0,0-.3,1.352c.49.093.744.111,1.234.2.1.019.19-.007.276.054.226.16.19.7.281.964a.944.944,0,0,0,1.192.51,1.266,1.266,0,0,0,.765-1.128,1.956,1.956,0,0,0-.5-1.319,2.733,2.733,0,0,0-1.969-.961" transform="translate(-159.12 -88.464)" fill="#ae7461"/>
              <path id="Trazado_601842" data-name="Trazado 601842" d="M276.18,145.335a16.246,16.246,0,0,1,0,3.279,16.229,16.229,0,0,1-.333,3.262,16.249,16.249,0,0,1,0-3.279,16.236,16.236,0,0,1,.333-3.261" transform="translate(-167.079 -88.051)" fill="#6f4439"/>
              <path id="Trazado_601843" data-name="Trazado 601843" d="M281.7,146.124a13.908,13.908,0,0,1-.508,5.9,24.13,24.13,0,0,1,.24-2.949,24.245,24.245,0,0,1,.268-2.947" transform="translate(-170.345 -88.529)" fill="#6f4439"/>
              <path id="Trazado_601844" data-name="Trazado 601844" d="M287.259,146.89a6.91,6.91,0,0,1-.04,2.458,9.629,9.629,0,0,1-.466,2.409,8.68,8.68,0,0,1,.135-2.449,13.581,13.581,0,0,1,.37-2.418" transform="translate(-173.702 -88.993)" fill="#6f4439"/>
              <path id="Trazado_601845" data-name="Trazado 601845" d="M267.7,146.538c0-.039.235-.092.575.063a1.841,1.841,0,0,1,.9,1.055,3.694,3.694,0,0,1,.224,1.35c-.04.406-.335.525-.342.472-.026-.037.134-.177.106-.479a6.634,6.634,0,0,0-.3-1.225,2,2,0,0,0-.707-.968c-.255-.18-.463-.216-.458-.267" transform="translate(-162.186 -88.755)" fill="#6f4439"/>
              <path id="Trazado_601846" data-name="Trazado 601846" d="M398.248,121.385a17.106,17.106,0,0,0-1.615.676,8.062,8.062,0,0,0-4.381,6.732,17.106,17.106,0,0,0,.036,1.75,1.83,1.83,0,0,1-.106-.463,6.989,6.989,0,0,1-.075-1.294,7.838,7.838,0,0,1,4.461-6.854,6.967,6.967,0,0,1,1.214-.456,1.83,1.83,0,0,1,.466-.09" transform="translate(-237.556 -73.539)" fill="#263238"/>
              <path id="Trazado_601847" data-name="Trazado 601847" d="M164.442,230.567c-.361-.127-.572-.086-.81-.385a1.218,1.218,0,0,1-.247-1.076.872.872,0,0,1,.853-.631,1.434,1.434,0,0,1,.484-2.591.566.566,0,0,1,.2-.031.231.231,0,0,1,.086.033c.125.07.235.161.367.223.049.024.1.045.151.065a2.677,2.677,0,0,0,.725.164,2.358,2.358,0,0,1,.351.024,1.3,1.3,0,0,1,.2.1,3.534,3.534,0,0,0,1.448.159,2.778,2.778,0,0,1,1.548.3,1.025,1.025,0,0,1,.392,1.374.7.7,0,0,1,.751.538,1.01,1.01,0,0,1-.309.924,1.883,1.883,0,0,1-.9.447.771.771,0,0,1,.729.784,1.185,1.185,0,0,1-.619.962,2.718,2.718,0,0,1-1.145.312c-.4.037-1.654.218-2.042.314l-1.465.019a1.182,1.182,0,0,1-1.127-1.635.755.755,0,0,1,.377-.394" transform="translate(-98.962 -136.832)" fill="#ffc09d"/>
              <path id="Trazado_601848" data-name="Trazado 601848" d="M166.129,220.6a1.144,1.144,0,0,1,.321-.9.98.98,0,0,1,.882-.266,7.579,7.579,0,0,0,.431,1.188,1.407,1.407,0,0,0,.159.23c.145.213.648.19.89.28a.877.877,0,0,1,.45,1.117.807.807,0,0,1-.854.573,2.691,2.691,0,0,1-1.52-.514,2.16,2.16,0,0,1-.76-1.709" transform="translate(-100.649 -132.936)" fill="#ffc09d"/>
              <path id="Trazado_601849" data-name="Trazado 601849" d="M165.278,232.2c0,.038,1.364.028,3.044-.022s3.042-.121,3.04-.159-1.364-.028-3.044.022-3.041.121-3.04.159" transform="translate(-100.134 -140.556)" fill="#ff9b6c"/>
              <path id="Trazado_601850" data-name="Trazado 601850" d="M165.9,237.292a4.063,4.063,0,0,0,.806.067c.5.018,1.191.015,1.952-.034s1.448-.136,1.94-.217a4.049,4.049,0,0,0,.791-.17,5.589,5.589,0,0,0-.8.074c-.495.057-1.178.127-1.936.176s-1.445.067-1.942.074a5.551,5.551,0,0,0-.807.03" transform="translate(-100.508 -143.545)" fill="#ff9b6c"/>
              <path id="Trazado_601851" data-name="Trazado 601851" d="M167.707,242.546a4.2,4.2,0,0,0,.595-.013c.368-.021.878-.063,1.438-.122s1.067-.121,1.433-.167a5.174,5.174,0,0,0,.592-.087,4.633,4.633,0,0,0-.6.036c-.368.033-.875.086-1.435.146s-1.065.11-1.432.143a5.831,5.831,0,0,0-.595.064" transform="translate(-101.605 -146.708)" fill="#ff9b6c"/>
              <path id="Trazado_601852" data-name="Trazado 601852" d="M166.615,224.084a.745.745,0,0,0,.1.506,1.734,1.734,0,0,0,.941.808,3.631,3.631,0,0,0,.66.187,2.673,2.673,0,0,0,.558.067.591.591,0,0,0,.366-.13c.071-.062.086-.114.08-.118a.661.661,0,0,1-.447.151,3.26,3.26,0,0,1-.531-.094,4.252,4.252,0,0,1-.635-.19,1.793,1.793,0,0,1-.907-.727,3,3,0,0,1-.186-.46" transform="translate(-100.937 -135.761)" fill="#ff9b6c"/>
            </g>
          </g>
          <g id="Grupo_878567" data-name="Grupo 878567">
            <g id="Grupo_878566" data-name="Grupo 878566" clip-path="url(#clip-path)">
              <path id="Trazado_601853" data-name="Trazado 601853" d="M481.553,115.223H450.316a2.329,2.329,0,0,1-2.329-2.329V84.874a2.329,2.329,0,0,1,2.329-2.329h31.237a2.329,2.329,0,0,1,2.329,2.329v28.02a2.329,2.329,0,0,1-2.329,2.329" transform="translate(-271.413 -50.01)" fill="#fff"/>
              <path id="Trazado_601854" data-name="Trazado 601854" d="M483.881,88.105H447.987V84.936a2.393,2.393,0,0,1,2.393-2.392h31.3a2.2,2.2,0,0,1,2.2,2.2Z" transform="translate(-271.413 -50.009)" fill="#e0e0e0"/>
              <path id="Trazado_601855" data-name="Trazado 601855" d="M458.395,89.705a.881.881,0,1,1-.88-.828.855.855,0,0,1,.88.828" transform="translate(-276.652 -53.846)" fill="#fff"/>
              <path id="Trazado_601856" data-name="Trazado 601856" d="M464.479,89.705a.881.881,0,1,1-.88-.828.855.855,0,0,1,.88.828" transform="translate(-280.338 -53.846)" fill="#fff"/>
              <path id="Trazado_601857" data-name="Trazado 601857" d="M470.563,89.705a.881.881,0,1,1-.88-.828.855.855,0,0,1,.88.828" transform="translate(-284.024 -53.846)" fill="#fff"/>
              <path id="Trazado_601858" data-name="Trazado 601858" d="M481.394,115.065c0-.008.117,0,.341-.038a2.316,2.316,0,0,0,1.864-1.644,3.347,3.347,0,0,0,.089-1.029q0-.56,0-1.192c-.008-3.374-.019-8.247-.033-14.267,0-3.012-.008-6.311-.013-9.852q0-.664,0-1.339,0-.338,0-.678a3.841,3.841,0,0,0-.032-.668,2.247,2.247,0,0,0-1.737-1.829,8.858,8.858,0,0,0-1.4-.05h-1.445l-2.949,0-25.91.008a2.234,2.234,0,0,0-2.218,2c-.022,1.114-.006,2.256-.012,3.371q0,3.358,0,6.611c0,4.334,0,8.515-.006,12.5q0,2.986,0,5.817a2.245,2.245,0,0,0,1.469,2.05,3.487,3.487,0,0,0,1.315.139h1.34l9.853.013,14.266.033,3.879.019,1.009.01c.227,0,.344.011.344.011s-.116.007-.344.011l-1.009.01-3.879.019-14.266.033-9.853.013H450.7A3.646,3.646,0,0,1,449.33,115a2.423,2.423,0,0,1-1.59-2.211q0-2.831-.007-5.822c0-3.983,0-8.163-.006-12.5q0-3.251,0-6.611c.005-1.123-.013-2.237.012-3.391a2.439,2.439,0,0,1,2.422-2.188l25.91.008,2.949,0h2.16a3.334,3.334,0,0,1,.725.056,2.426,2.426,0,0,1,1.873,1.977,4.014,4.014,0,0,1,.033.7q0,.341,0,.678,0,.675,0,1.339c0,3.541-.009,6.84-.013,9.852-.014,6.02-.025,10.893-.033,14.267q0,.631,0,1.192a3.4,3.4,0,0,1-.1,1.046,2.355,2.355,0,0,1-.974,1.3,2.3,2.3,0,0,1-.945.348,1.685,1.685,0,0,1-.344.017" transform="translate(-271.254 -49.852)" fill="#263238"/>
              <path id="Trazado_601859" data-name="Trazado 601859" d="M483.445,124.759h-27.06A1.756,1.756,0,0,1,454.629,123V104.768a1.756,1.756,0,0,1,1.756-1.756h27.06a1.756,1.756,0,0,1,1.756,1.756V123a1.756,1.756,0,0,1-1.756,1.756" transform="translate(-275.437 -62.41)" fill="#fed5b1"/>
              <g id="Grupo_878562" data-name="Grupo 878562" transform="translate(181.604 50.008)" opacity="0.3">
                <g id="Grupo_878561" data-name="Grupo 878561">
                  <g id="Grupo_878560" data-name="Grupo 878560" clip-path="url(#clip-path-11)">
                    <path id="Trazado_601860" data-name="Trazado 601860" d="M460.9,137.856l7.463-10.621a.845.845,0,0,1,1.349-.045l5.128,6.359a.845.845,0,0,0,1.243.079l3-2.885a.845.845,0,0,1,1.231.065l5.889,6.989a.845.845,0,0,1-.646,1.39H461.6a.845.845,0,0,1-.691-1.331" transform="translate(-460.749 -126.875)" fill="#fff"/>
                  </g>
                </g>
              </g>
              <g id="Grupo_878565" data-name="Grupo 878565" transform="translate(193.616 45.036)" opacity="0.3">
                <g id="Grupo_878564" data-name="Grupo 878564">
                  <g id="Grupo_878563" data-name="Grupo 878563" clip-path="url(#clip-path-12)">
                    <path id="Trazado_601861" data-name="Trazado 601861" d="M496.42,116.859a2.6,2.6,0,1,1-2.6-2.6,2.6,2.6,0,0,1,2.6,2.6" transform="translate(-491.224 -114.261)" fill="#fff"/>
                  </g>
                </g>
              </g>
            </g>
          </g>
          <path id="Trazado_601862" data-name="Trazado 601862" d="M542.208,382.741h43.22l-4.662-16.2-39.237-.156Z" transform="translate(-328.085 -221.972)" fill="#263238"/>
          <g id="Grupo_878578" data-name="Grupo 878578">
            <g id="Grupo_878577" data-name="Grupo 878577" clip-path="url(#clip-path)">
              <path id="Trazado_601863" data-name="Trazado 601863" d="M564.576,392.823a1.533,1.533,0,0,1-.146-.378c-.079-.248-.182-.61-.3-1.061-.231-.9-.5-2.155-.791-3.542l-.732-3.551-.232-1.073a1.559,1.559,0,0,1-.07-.4,1.524,1.524,0,0,1,.146.378c.079.248.182.61.3,1.061.231.9.5,2.155.791,3.542l.732,3.55.232,1.073a1.553,1.553,0,0,1,.069.4" transform="translate(-340.672 -231.931)" fill="#455a64"/>
              <path id="Trazado_601864" data-name="Trazado 601864" d="M619.664,381.206c0,.006-.041.032-.126.075a4.083,4.083,0,0,1-.38.171,7.185,7.185,0,0,1-1.478.411,11.185,11.185,0,0,1-5.014-.4,27.935,27.935,0,0,1-4.641-1.973l-1.353-.7a2.989,2.989,0,0,1-.485-.281,2.94,2.94,0,0,1,.52.209c.329.147.8.37,1.382.647a32.724,32.724,0,0,0,4.635,1.906,11.707,11.707,0,0,0,4.933.455,12.448,12.448,0,0,0,2.006-.513" transform="translate(-367.259 -229.315)" fill="#455a64"/>
              <path id="Trazado_601865" data-name="Trazado 601865" d="M570.625,381.92a1.28,1.28,0,1,1-1.279-1.279,1.279,1.279,0,0,1,1.279,1.279" transform="translate(-344.163 -230.611)" fill="#455a64"/>
              <path id="Trazado_601866" data-name="Trazado 601866" d="M605.868,150.17a44.3,44.3,0,0,0,2.435-7.237,15.461,15.461,0,0,0-.078-7.566c-.109-.37-1.085-2.874-1.471-2.863-.276.008.272,2.318.116,2.546a13.108,13.108,0,0,0-2,7.522,34.51,34.51,0,0,0,1,7.6" transform="translate(-366.458 -80.278)" fill="#263238"/>
              <path id="Trazado_601867" data-name="Trazado 601867" d="M559.628,156.284c.107-1.8.185-3.216.172-3.217s-6.118-1.053-6.094-7.187c.011-2.962.531-9.058,1.066-14.571a11.429,11.429,0,0,1,11.56-10.325l.592.01c6.374.476,9.531,6.155,8.878,12.513l-1.573,22.313-4.688,4.855a5.772,5.772,0,0,1-9.912-4.392" transform="translate(-335.462 -73.298)" fill="#ffc09d"/>
              <path id="Trazado_601868" data-name="Trazado 601868" d="M569,198.954a14.815,14.815,0,0,0,8.022-2.231s-2.019,4.428-8.129,3.777Z" transform="translate(-344.666 -119.185)" fill="#ff9b6c"/>
              <path id="Trazado_601869" data-name="Trazado 601869" d="M560.087,159.7a.876.876,0,0,0,.83.9.839.839,0,0,0,.916-.775.876.876,0,0,0-.829-.9.838.838,0,0,0-.916.775" transform="translate(-339.328 -96.285)" fill="#263238"/>
              <path id="Trazado_601870" data-name="Trazado 601870" d="M559.61,152.308c.107.116.778-.364,1.72-.346s1.625.5,1.729.386c.051-.05-.056-.258-.354-.482a2.4,2.4,0,0,0-1.382-.451,2.306,2.306,0,0,0-1.372.419c-.293.218-.395.423-.342.475" transform="translate(-339.032 -91.735)" fill="#263238"/>
              <path id="Trazado_601871" data-name="Trazado 601871" d="M581.4,161.026a.876.876,0,0,0,.83.9.838.838,0,0,0,.916-.775.877.877,0,0,0-.829-.9.838.838,0,0,0-.916.776" transform="translate(-352.241 -97.087)" fill="#263238"/>
              <path id="Trazado_601872" data-name="Trazado 601872" d="M581.855,153.512c.107.116.779-.364,1.721-.346s1.625.5,1.729.387c.051-.05-.055-.258-.354-.482a2.406,2.406,0,0,0-1.382-.451,2.312,2.312,0,0,0-1.372.419c-.292.218-.395.423-.342.475" transform="translate(-352.509 -92.464)" fill="#263238"/>
              <path id="Trazado_601873" data-name="Trazado 601873" d="M570.487,161.2a6.229,6.229,0,0,0-1.526-.3c-.24-.028-.467-.08-.5-.245a1.223,1.223,0,0,1,.172-.711l.741-1.821a31.545,31.545,0,0,0,1.676-4.767,31.46,31.46,0,0,0-2.056,4.621c-.248.64-.486,1.249-.711,1.832a1.394,1.394,0,0,0-.14.942.6.6,0,0,0,.389.358,1.634,1.634,0,0,0,.408.063,6.138,6.138,0,0,0,1.551.027" transform="translate(-344.182 -92.911)" fill="#263238"/>
              <path id="Trazado_601874" data-name="Trazado 601874" d="M582.194,145.267c.131.239,1.043-.024,2.156-.06,1.113-.059,2.043.125,2.153-.124.048-.119-.142-.333-.536-.524a3.749,3.749,0,0,0-3.282.14c-.376.223-.548.454-.49.568" transform="translate(-352.716 -87.392)" fill="#263238"/>
              <path id="Trazado_601875" data-name="Trazado 601875" d="M560.441,143.868c.162.217.815,0,1.6.007.781-.025,1.439.167,1.6-.054.069-.107-.032-.324-.317-.531a2.311,2.311,0,0,0-2.571.038c-.279.215-.374.434-.3.54" transform="translate(-339.529 -86.587)" fill="#263238"/>
              <path id="Trazado_601876" data-name="Trazado 601876" d="M607.791,163.995c.105-.044,4.234-1.178,4.032,3.012s-4.367,3.123-4.368,3,.337-6.015.337-6.015" transform="translate(-368.026 -99.252)" fill="#ffc09d"/>
              <path id="Trazado_601877" data-name="Trazado 601877" d="M610.889,170.61c.018-.013.07.054.191.117a.731.731,0,0,0,.545.037,1.807,1.807,0,0,0,.914-1.58,2.417,2.417,0,0,0-.154-1.055.845.845,0,0,0-.522-.587.372.372,0,0,0-.44.179c-.062.114-.039.2-.062.205s-.086-.074-.044-.246a.466.466,0,0,1,.178-.255.552.552,0,0,1,.408-.087,1.028,1.028,0,0,1,.731.686,2.481,2.481,0,0,1,.2,1.18,1.9,1.9,0,0,1-1.152,1.758.782.782,0,0,1-.662-.143c-.125-.11-.143-.2-.127-.211" transform="translate(-370.104 -101.378)" fill="#ff9b6c"/>
              <path id="Trazado_601878" data-name="Trazado 601878" d="M564.1,123.442c-.657-.413,1.5-2.492,3.212-3.153,2.583-1,6.467-1.482,8.751-.692a10.106,10.106,0,0,1,6.25,5.1,16.5,16.5,0,0,1,1.37,8.516,5.011,5.011,0,0,1-.736,2.525c-.638.892-1.793,1.412-1.817,2.692a1.756,1.756,0,0,1-.508,1.253c-.813.772-1.707-.048-2.094-.84a12.136,12.136,0,0,1-.792-5.541,12.263,12.263,0,0,1,.492-3.968c.245-.686.612-1.327.818-2.026a2.52,2.52,0,0,0-.178-2.108,2.607,2.607,0,0,0-.32-.364,4.374,4.374,0,0,0-4.286-1.072c-2.406.7-6.505,1.717-7.511.856a6.462,6.462,0,0,1-1.767-2.009Z" transform="translate(-341.689 -72.219)" fill="#263238"/>
              <path id="Trazado_601879" data-name="Trazado 601879" d="M574.591,178.4c0,.074.207.168.571.157a2.5,2.5,0,0,0,2.159-1.6c.117-.344.089-.575.017-.592-.16-.039-.453.7-1.207,1.241-.736.562-1.531.626-1.54.79" transform="translate(-348.116 -106.852)" fill="#263238"/>
              <path id="Trazado_601880" data-name="Trazado 601880" d="M467.393,232.529c-.858-1.41-1.876-2.949-1.876-2.949l-.832-1.415a1.828,1.828,0,0,0-.189.27,1.23,1.23,0,0,1-.4.47.979.979,0,0,1-1.08-.261,2.4,2.4,0,0,1-.723-2.256,2.365,2.365,0,0,1,1.525-1.685,1.733,1.733,0,0,1,.433-.518c1.2-.972,3.337-.311,3.337-.311l-.222-.536s-1.277-1.262-4.095-.274a1.836,1.836,0,0,1-1.3-.017.934.934,0,0,1-.573-.553c-.223-.691.209-1.026,1.96-1.666s3.655-.679,4.7.007a12.465,12.465,0,0,1,1.416,1.022s-1.722-4.949-1.818-5.266c-.279-.918-.1-1.81.494-2.052.382-.155.979-.068,1.337.992.309.917,4.675,9.916,4.675,9.916l1.7,4.093.852,3.6-6.132,1.728-.443-.149a5.128,5.128,0,0,1-2.744-2.192" transform="translate(-279.503 -129.943)" fill="#ffc09d"/>
              <path id="Trazado_601881" data-name="Trazado 601881" d="M484.51,245.071a1.372,1.372,0,0,1-1.572-.258c-.437-.368-.737-.871-1.147-1.269-1.225-1.19-3.243-1.284-4.41-2.53-.163-.174-.309-.439-.175-.633s.394-.159.61-.118l5.553,1.043" transform="translate(-289.084 -145.547)" fill="#ffc09d"/>
              <path id="Trazado_601882" data-name="Trazado 601882" d="M483.125,241.065a2.282,2.282,0,0,0-.589-.174c-.384-.091-.94-.214-1.629-.357l-2.422-.49-.7-.137a1.119,1.119,0,0,0-.845.035.47.47,0,0,0-.172.5.977.977,0,0,0,.223.4,3.723,3.723,0,0,0,.633.544,21.868,21.868,0,0,0,2.759,1.293,4.3,4.3,0,0,1,1.063.7c.29.272.519.583.76.848a2,2,0,0,0,1.48.807c.425-.012.594-.212.581-.216a1.64,1.64,0,0,1-.577.091,1.942,1.942,0,0,1-1.312-.83c-.222-.264-.441-.586-.747-.891a4.433,4.433,0,0,0-1.115-.778,25.439,25.439,0,0,1-2.709-1.293,3.507,3.507,0,0,1-.573-.489c-.158-.174-.216-.384-.105-.443.11-.084.366-.036.6.011l.7.127,2.435.422c.694.116,1.257.2,1.647.257a2.27,2.27,0,0,0,.612.052" transform="translate(-288.839 -145.305)" fill="#ff9b6c"/>
              <path id="Trazado_601883" data-name="Trazado 601883" d="M467.639,235.681a2.342,2.342,0,0,0-.65-.847,1.813,1.813,0,0,0-1.075-.341,4.6,4.6,0,0,0-1.407.249,7.322,7.322,0,0,1-1.443.34,2.383,2.383,0,0,1-1.219-.176.93.93,0,0,1-.529-.641.539.539,0,0,1,0-.3c.02,0,.021.107.076.283a.88.88,0,0,0,.512.529,2.367,2.367,0,0,0,1.138.119,8.114,8.114,0,0,0,1.4-.349,4.467,4.467,0,0,1,1.473-.242,1.9,1.9,0,0,1,1.162.417,1.694,1.694,0,0,1,.493.667.58.58,0,0,1,.066.295" transform="translate(-279.478 -141.746)" fill="#ff9b6c"/>
              <path id="Trazado_601884" data-name="Trazado 601884" d="M477.1,218.933a5.867,5.867,0,0,1,.349.982l.779,2.383.815,2.371a5.85,5.85,0,0,1,.313.993,4.679,4.679,0,0,1-.451-.942c-.248-.595-.562-1.427-.875-2.358s-.563-1.784-.723-2.407a4.657,4.657,0,0,1-.208-1.021" transform="translate(-289.047 -132.641)" fill="#ff9b6c"/>
              <path id="Trazado_601885" data-name="Trazado 601885" d="M470.3,241.554a1.269,1.269,0,0,1-.326-.017.965.965,0,0,0-.775.216.511.511,0,0,0-.117.5,2.753,2.753,0,0,0,.264.626,1.166,1.166,0,0,1,.146.816.984.984,0,0,1-.624.642,1.134,1.134,0,0,1-.891-.08,1.428,1.428,0,0,1-.6-.569,4.586,4.586,0,0,1-.41-1.276,2.668,2.668,0,0,1-.024-.9.588.588,0,0,1,.12-.307c.017.007-.025.115-.04.318a3.167,3.167,0,0,0,.089.862,4.924,4.924,0,0,0,.433,1.211,1.128,1.128,0,0,0,1.253.545.791.791,0,0,0,.5-.5,1,1,0,0,0-.122-.68,2.781,2.781,0,0,1-.261-.676.665.665,0,0,1,.183-.632,1.01,1.01,0,0,1,.888-.19.859.859,0,0,1,.316.1" transform="translate(-282.878 -146.131)" fill="#ff9b6c"/>
              <path id="Trazado_601886" data-name="Trazado 601886" d="M465.7,243.749c.009,0,.072.091.067.289a.9.9,0,0,1-.4.7,1.212,1.212,0,0,1-1.2.023,2,2,0,0,1-.927-1.145,2.38,2.38,0,0,1-.025-1.464,2.262,2.262,0,0,1,.645-1,2.148,2.148,0,0,1,.682-.419.614.614,0,0,1,.286-.064,3.727,3.727,0,0,0-.866.59,2.224,2.224,0,0,0-.564.951,2.262,2.262,0,0,0,.038,1.343,1.853,1.853,0,0,0,.819,1.042,1.078,1.078,0,0,0,1.035.021.849.849,0,0,0,.4-.583c.028-.175,0-.276.013-.281" transform="translate(-280.573 -145.805)" fill="#ff9b6c"/>
              <path id="Trazado_601887" data-name="Trazado 601887" d="M481.211,249.638a.847.847,0,0,1,.477-.15,1.979,1.979,0,0,1,1.246.284l-.151.1a5.826,5.826,0,0,1-.114-.7,4.432,4.432,0,0,1,.322-2.408,11.214,11.214,0,0,0-.115,2.388c.025.238.06.467.1.676l.047.232-.2-.128a2.078,2.078,0,0,0-1.131-.326c-.3,0-.477.052-.484.026" transform="translate(-291.541 -149.505)" fill="#ff9b6c"/>
              <path id="Trazado_601888" data-name="Trazado 601888" d="M471.887,232.7c.055.008-.017.427-.389.757s-.8.359-.8.3.338-.166.658-.459.472-.622.529-.6" transform="translate(-285.173 -140.982)" fill="#ff9b6c"/>
              <path id="Trazado_601889" data-name="Trazado 601889" d="M511.834,213.791s-3.12.377-3.461.4c-2.633.162-6.927,1.716-8.944,5.484-1.471,2.748-4.274,13.935-5.025,16.958l-1.087,3.562-6.575-10.434L477.4,235.09s9.711,23.5,16,23.494,9.2-6.275,9.2-6.275l-.1-14.131Z" transform="translate(-289.23 -129.525)" fill="#e0e0e0"/>
              <path id="Trazado_601890" data-name="Trazado 601890" d="M534.778,238.705a1.239,1.239,0,0,0-.027.316c0,.242-.011.542-.017.908-.012.788,0,1.929.024,3.338.051,2.818.222,6.708.462,11s.446,8.177.552,10.99c.051,1.374.091,2.5.121,3.333.016.365.029.665.04.906a1.281,1.281,0,0,0,.034.316,1.224,1.224,0,0,0,.027-.316c.005-.242.011-.542.018-.907.011-.788,0-1.929-.024-3.337-.051-2.818-.223-6.708-.463-11s-.446-8.175-.551-10.989c-.05-1.374-.091-2.5-.121-3.333-.016-.365-.029-.665-.04-.907a1.278,1.278,0,0,0-.034-.316" transform="translate(-323.965 -144.62)" fill="#263238"/>
              <path id="Trazado_601891" data-name="Trazado 601891" d="M639.671,229.2c-1.6-7.14-9.488-9.123-9.488-9.123L627.5,245.854l1.661,4.183,14.12-3.049s-1.611-8.83-3.613-17.784" transform="translate(-380.172 -133.337)" fill="#e0e0e0"/>
              <path id="Trazado_601892" data-name="Trazado 601892" d="M616.023,267.8l5.277,5.085-1.705-9.726,10.71-3.388s2.844,13.348,3.339,16.505c.888,5.665-.2,13.717-5.481,14.284-5.711.613-10.023-5.02-12.767-8.716-2.11-2.841-5.515-7.81-5.515-7.81Z" transform="translate(-369.496 -157.382)" fill="#e0e0e0"/>
              <path id="Trazado_601893" data-name="Trazado 601893" d="M576.875,247.483l-.416-12.107.631-28.056L565.841,202.2l-1.491-4.4-12.578,5.6-2.523-2.644-1.456,2.828-4.481,1.013-3.658,10.35-3.1,8.149s.9,28.264,1.668,38.631c.1,1.36-1.668,1.951.294,3.468,0,0,2.944,1.729,9.327,1.9,18.161.474,29.318-2.426,29.911-2.692a3.738,3.738,0,0,0,1.105-3.128c-.054-.428-.143-.891-.227-1.475Z" transform="translate(-325.07 -119.838)" fill="#e0e0e0"/>
              <path id="Trazado_601894" data-name="Trazado 601894" d="M562.365,283.334a.519.519,0,0,1-.023-.155c-.009-.125-.021-.275-.034-.457l-.1-1.76c-.069-1.562-.167-3.766-.287-6.475-.2-5.47-.463-13.031-.377-21.391.051-4.18.191-8.168.591-11.779.417-3.607,1.037-6.814,1.6-9.494s1.086-4.831,1.448-6.317l.429-1.709c.048-.177.088-.322.12-.442a.55.55,0,0,1,.052-.148.525.525,0,0,1-.019.156c-.024.123-.052.27-.087.45l-.367,1.724c-.322,1.5-.805,3.656-1.341,6.337s-1.122,5.888-1.519,9.479c-.381,3.59-.512,7.571-.563,11.745-.085,8.348.135,15.908.277,21.379.075,2.711.136,4.917.179,6.48q.022,1.112.035,1.763c0,.184,0,.334,0,.459a.561.561,0,0,1-.011.157" transform="translate(-340.202 -135.23)" fill="#263238"/>
              <path id="Trazado_601895" data-name="Trazado 601895" d="M581.845,256.414a5.713,5.713,0,0,1,.745.022l2.174.13,7.921.542.15.01-.011.152c-.274,3.63-.6,7.973-.956,12.664l-.006.084-.067.049c-.371.269-.772.541-1.184.808a23.176,23.176,0,0,1-2.227,1.291,6.556,6.556,0,0,1-2.415.777,4.81,4.81,0,0,1-2.394-.555,10.493,10.493,0,0,1-1.937-1.3c-.291-.241-.572-.486-.839-.737a1.631,1.631,0,0,1-.376-.454,2.411,2.411,0,0,1-.211-.532,8.148,8.148,0,0,1-.194-2.089,30.157,30.157,0,0,1,.334-3.7c.327-2.243.716-4.034.994-5.268.141-.617.261-1.093.347-1.415a2.538,2.538,0,0,1,.151-.486,2.766,2.766,0,0,1-.08.5c-.071.362-.164.836-.279,1.428-.236,1.241-.585,3.037-.877,5.274a30.911,30.911,0,0,0-.287,3.666,7.935,7.935,0,0,0,.2,2,1.55,1.55,0,0,0,.5.83q.4.368.829.718a10.213,10.213,0,0,0,1.878,1.243,4.471,4.471,0,0,0,2.219.51,6.26,6.26,0,0,0,2.273-.745,23.352,23.352,0,0,0,2.191-1.272c.406-.264.806-.535,1.166-.8l-.074.133c.378-4.69.727-9.031,1.019-12.659l.138.162-7.824-.686-2.2-.211-.585-.064a1.1,1.1,0,0,1-.21-.034" transform="translate(-351.404 -155.345)" fill="#263238"/>
              <path id="Trazado_601896" data-name="Trazado 601896" d="M594.309,265.469a90.229,90.229,0,0,1-11.454-.893,90.222,90.222,0,0,1,11.454.893" transform="translate(-353.123 -160.272)" fill="#263238"/>
              <g id="Grupo_878570" data-name="Grupo 878570" transform="translate(229.184 114.525)" opacity="0.3">
                <g id="Grupo_878569" data-name="Grupo 878569">
                  <g id="Grupo_878568" data-name="Grupo 878568" clip-path="url(#clip-path-14)">
                    <path id="Trazado_601897" data-name="Trazado 601897" d="M581.464,290.563a17.305,17.305,0,0,0,2.039,3.258,4.993,4.993,0,0,0,3.131,1.558,5.135,5.135,0,0,0,2.97-.883,7.848,7.848,0,0,0,2.96-3.883c.09-.115-2.055,1.317-3.22,1.937a5.251,5.251,0,0,1-3.3.708c-1.726-.14-3.273-1.562-4.582-2.7" transform="translate(-581.464 -290.563)"/>
                  </g>
                </g>
              </g>
              <g id="Grupo_878573" data-name="Grupo 878573" transform="translate(226.915 82.783)" opacity="0.3">
                <g id="Grupo_878572" data-name="Grupo 878572">
                  <g id="Grupo_878571" data-name="Grupo 878571" clip-path="url(#clip-path-15)">
                    <path id="Trazado_601898" data-name="Trazado 601898" d="M575.708,211.629l.46,5.9,12.519-7.5L576.61,216.4Z" transform="translate(-575.708 -210.03)"/>
                  </g>
                </g>
              </g>
              <path id="Trazado_601899" data-name="Trazado 601899" d="M560.57,232.1a201.859,201.859,0,0,0-4.582,29.914c-.529,6.989-.92,16.251-.92,16.251l4.055,5.023,4.847-4.812s-.987-20.1-.965-26.84c.017-5.424-.2-19.423-.2-19.423Z" transform="translate(-336.287 -140.62)" fill="#583cb6"/>
              <path id="Trazado_601900" data-name="Trazado 601900" d="M630.473,254.3a3.337,3.337,0,0,1,.127.56l.278,1.538.873,5.081c.346,1.984.641,3.785.834,5.09.1.653.173,1.182.219,1.548a3.317,3.317,0,0,1,.054.572,3.318,3.318,0,0,1-.128-.56c-.072-.4-.166-.914-.279-1.538-.233-1.332-.545-3.112-.889-5.079-.343-1.985-.624-3.787-.819-5.092-.089-.628-.162-1.149-.219-1.548a3.321,3.321,0,0,1-.054-.572" transform="translate(-381.97 -154.07)" fill="#263238"/>
              <path id="Trazado_601901" data-name="Trazado 601901" d="M634.536,224.007c.021.027-.371.332-.926.9a11.2,11.2,0,0,0-2.9,5.4c-.171.778-.209,1.273-.243,1.271a1.225,1.225,0,0,1,0-.35,7.2,7.2,0,0,1,.114-.947,10.1,10.1,0,0,1,2.941-5.472,7.208,7.208,0,0,1,.727-.618,1.234,1.234,0,0,1,.294-.191" transform="translate(-381.96 -135.714)" fill="#263238"/>
              <path id="Trazado_601902" data-name="Trazado 601902" d="M571.558,218.509l-1.257-.278-1.221,2.2-.051,3.268,2.232.113,1.383-2.592Z" transform="translate(-344.746 -132.215)" fill="#583cb6"/>
              <path id="Trazado_601903" data-name="Trazado 601903" d="M570.786,232.54c-.028.045-.339-.1-.694-.326s-.62-.442-.592-.487.339.1.694.326.62.442.593.486" transform="translate(-345.03 -140.388)" fill="#263238"/>
              <path id="Trazado_601904" data-name="Trazado 601904" d="M571.211,226.077a18.027,18.027,0,0,1-1.487-3.386,17.979,17.979,0,0,1,1.487,3.386" transform="translate(-345.164 -134.917)" fill="#263238"/>
              <g id="Grupo_878576" data-name="Grupo 878576" transform="translate(240.182 118.807)" opacity="0.3">
                <g id="Grupo_878575" data-name="Grupo 878575">
                  <g id="Grupo_878574" data-name="Grupo 878574" clip-path="url(#clip-path-16)">
                    <path id="Trazado_601905" data-name="Trazado 601905" d="M610.737,303.221a30.058,30.058,0,0,1,4.372,5.172c.913,1.593,3.495,3.72,6.41,5.583l.454,3.189c-1.615-.321-4.45-2.421-5.543-3.652a23.49,23.49,0,0,1-3.051-3.955c-1.472-2.632-3.495-5.162-4.012-8.133Z" transform="translate(-609.367 -301.425)"/>
                  </g>
                </g>
              </g>
              <path id="Trazado_601906" data-name="Trazado 601906" d="M620.476,298.114a1.686,1.686,0,0,0-.272-.208c-.179-.134-.463-.3-.8-.564a29.914,29.914,0,0,1-2.749-2.4,80.756,80.756,0,0,1-8.043-9.477l.017.144,1.785-4.325c.745-1.812,1.467-3.568,2.141-5.21l-.232.056,12.594,10.652a1.153,1.153,0,0,0-.209-.243c-.15-.147-.374-.363-.671-.633-.592-.544-1.467-1.322-2.571-2.288-2.209-1.935-5.332-4.627-8.952-7.712l-.154-.131-.077.188-2.15,5.206-1.779,4.328-.032.078.049.066a74.723,74.723,0,0,0,8.151,9.441,25.993,25.993,0,0,0,2.822,2.341c.35.249.644.406.834.525a1.615,1.615,0,0,0,.3.162" transform="translate(-368.551 -167.08)" fill="#263238"/>
              <path id="Trazado_601907" data-name="Trazado 601907" d="M530.843,249.589l4.4,16.637a2.069,2.069,0,0,0,2.041,1.54l22.806-.448a2.069,2.069,0,0,0,1.984-2.5l-3.359-15.934a2.069,2.069,0,0,0-2.025-1.642H532.647a1.866,1.866,0,0,0-1.8,2.343" transform="translate(-321.573 -149.794)" fill="#263238"/>
              <path id="Trazado_601908" data-name="Trazado 601908" d="M561.81,267.864a.445.445,0,0,1-.034-.108c-.021-.084-.047-.19-.079-.322l-.285-1.241-1.011-4.572c-.421-1.936-.919-4.235-1.473-6.786-.276-1.278-.564-2.619-.863-4.009a.928.928,0,0,0-.588-.72,1.264,1.264,0,0,0-.5-.058h-2.782l-15.451-.03-4.682-.033-1.273-.019-.331-.01a.057.057,0,1,1,0-.021l.331-.01,1.273-.019,4.682-.033,15.451-.03h2.782a1.458,1.458,0,0,1,.572.071,1.132,1.132,0,0,1,.714.868l.851,4.012,1.43,6.8.947,4.586.247,1.249.059.326a.467.467,0,0,1,.013.112" transform="translate(-322.521 -151.367)" fill="#455a64"/>
              <path id="Trazado_601909" data-name="Trazado 601909" d="M566.93,260.246a1.185,1.185,0,1,1-1.55-.793,1.234,1.234,0,0,1,1.55.793" transform="translate(-342.079 -157.149)" fill="#e0e0e0"/>
              <path id="Trazado_601910" data-name="Trazado 601910" d="M603.437,268.563l-1.083-1.012a12.55,12.55,0,0,0-1.171-2.841,5.008,5.008,0,0,0-1.667-.789l-2.723-2.5.5,2.231-3.95-.029a1.124,1.124,0,0,0-1.076.69.448.448,0,0,0-.034.216,1.444,1.444,0,0,0,.79,1.035l.568.268a1.341,1.341,0,0,0-.931.97,1.237,1.237,0,0,0,.823,1.332,1.094,1.094,0,0,0-.413,1.6s-.9,1.072-.381,1.8,3.519,1.94,3.519,1.94l1.661.754a2.813,2.813,0,0,0,1.245.07l.649.091.693.574s3.964-2.165,2.985-6.394" transform="translate(-358.8 -158.381)" fill="#ffc09d"/>
              <path id="Trazado_601911" data-name="Trazado 601911" d="M600.718,273.338a2.994,2.994,0,0,1-.9.008,16.833,16.833,0,0,1-4.232-.855,3,3,0,0,1-.824-.355c.023-.067,1.318.359,2.96.686s3,.445,2.994.516" transform="translate(-360.338 -164.87)" fill="#ff9b6c"/>
              <path id="Trazado_601912" data-name="Trazado 601912" d="M602.19,280.271a52.238,52.238,0,0,1-6.787-1.832,52.051,52.051,0,0,1,6.787,1.832" transform="translate(-360.725 -168.688)" fill="#ff9b6c"/>
              <path id="Trazado_601913" data-name="Trazado 601913" d="M601.054,285.009a4.223,4.223,0,0,1-1.095-.142,17.564,17.564,0,0,1-4.982-1.847,4.226,4.226,0,0,1-.923-.606,6.38,6.38,0,0,1,1,.457c.609.295,1.46.68,2.426,1.039s1.863.62,2.517.793a6.431,6.431,0,0,1,1.057.305" transform="translate(-359.908 -171.099)" fill="#ff9b6c"/>
              <path id="Trazado_601914" data-name="Trazado 601914" d="M613.177,278.354c-.065-.023.062-.464-.033-1s-.347-.912-.293-.955.428.306.527.916a1.173,1.173,0,0,1-.2,1.037" transform="translate(-371.291 -167.455)" fill="#ff9b6c"/>
              <path id="Trazado_601915" data-name="Trazado 601915" d="M613.784,272.015c-.045-.051.16-.294.192-.661s-.107-.646-.053-.686c.025-.018.1.032.179.158a.957.957,0,0,1-.11,1.072c-.1.108-.188.141-.207.118" transform="translate(-371.857 -163.982)" fill="#ff9b6c"/>
              <path id="Trazado_601916" data-name="Trazado 601916" d="M613.1,286.731c-.05-.046.1-.29.2-.62s.1-.618.169-.629.174.308.059.7-.383.6-.426.553" transform="translate(-371.444 -172.959)" fill="#ff9b6c"/>
              <path id="Trazado_601917" data-name="Trazado 601917" d="M597.631,266.835a99.2,99.2,0,0,0,4.625.326,9.808,9.808,0,0,0-4.625-.326" transform="translate(-362.075 -161.573)" fill="#ff9b6c"/>
              <path id="Trazado_601918" data-name="Trazado 601918" d="M565.651,211.2a1.549,1.549,0,0,1,.112.275c.072.2.166.468.283.8.245.721.587,1.728,1.008,2.966l-.134-.012,2.348-4.426.121-.228.057.253,1.111,4.9.06.267-.148-.068,8.8-4.61,2.67-1.372.729-.363a1.518,1.518,0,0,1,.261-.115,1.5,1.5,0,0,1-.242.151l-.712.4-2.64,1.43-8.775,4.665-.119.063-.03-.131-.06-.267-1.1-4.9.178.024-2.388,4.4-.083.152-.052-.163-.946-2.986-.246-.813a1.623,1.623,0,0,1-.073-.288" transform="translate(-342.699 -126.906)" fill="#263238"/>
            </g>
          </g>
        </g>
      </g>
      <rect id="Rectángulo_342672" data-name="Rectángulo 342672" width="295" height="186" fill="none"/>
    </g>
  </g>
</svg>
