<svg xmlns="http://www.w3.org/2000/svg" width="95.001" height="91.74" viewBox="0 0 95.001 91.74">
  <g id="Grupo_980320" data-name="Grupo 980320" transform="translate(-750.392 -1955)">
    <g id="Grupo_952196" data-name="Grupo 952196" transform="translate(447.393 -1974)">
      <g id="Grupo_951854" data-name="Grupo 951854" transform="translate(303 3929)">
        <path id="Trazado_621807" data-name="Trazado 621807" d="M44.107,0A44.107,44.107,0,1,1,0,44.107,44.107,44.107,0,0,1,44.107,0Z" fill="#0e763d"/>
      </g>
    </g>
    <g id="Grupo_954228" data-name="Grupo 954228" transform="translate(137.805 1619.193)">
      <path id="Trazado_629927" data-name="Trazado 629927" d="M626.828,421.291a1.6,1.6,0,0,1-1.854,1.392c-3.246-.029-6.492,0-9.738-.015-1.789-.009-2.647-.9-2.647-2.705q0-35,0-69.992a3.268,3.268,0,0,1,3.5-3.558q21.749-.015,43.5,0a3.254,3.254,0,0,1,3.46,3.5q.009,12.84-.006,25.679c0,.561-.013.858.752.8,10.305-.75,18.327,3.254,24.082,11.774a24.533,24.533,0,0,1,3.915,11.248c.04.362-.216.945.278,1.044a1.59,1.59,0,0,0,1.76-.422c.9-1.1,1.911-2.1,2.833-3.186a3.024,3.024,0,0,1,2.527-1.1c1.886.032,3.772,0,5.658.011,2.328.011,3.5,1.821,2.215,3.722a3.735,3.735,0,0,0-.017,4.781c1.295,1.923.163,3.718-2.165,3.734-1.948.013-3.9-.017-5.843.011a2.862,2.862,0,0,1-2.355-1.055c-.927-1.077-1.938-2.084-2.83-3.187-.52-.642-1.148-.467-1.766-.458-.37,0-.259.356-.278.577a25.292,25.292,0,0,1-7.7,16.382,25.59,25.59,0,0,1-32.188,2.9,2.72,2.72,0,0,0-1.627-.507q-8.95.027-17.9.009c-1.3,0-1.572-.2-1.946-1.379.363-1.171.664-1.4,1.933-1.4q7.186-.008,14.373,0h1c-.064-.2-.066-.267-.1-.3a25.085,25.085,0,0,1-5.607-9.157c-.166-.487-.478-.463-.854-.462q-3.338.007-6.676,0c-1.155,0-1.822-.507-1.839-1.375s.64-1.4,1.791-1.4c1.916,0,3.833-.031,5.748.014.686.016.931-.105.758-.846a15.106,15.106,0,0,1-.379-4.139c.035-.743-.257-.853-.906-.838-1.761.041-3.523.009-5.285.016a1.59,1.59,0,0,1-1.519-.7,1.373,1.373,0,0,1,1.332-2.077q2.92-.048,5.841,0c.541.009.744-.137.818-.686a19.965,19.965,0,0,1,1.091-4.387c.237-.63.138-.787-.543-.777-2.38.035-4.76.006-7.14.017a1.39,1.39,0,0,1-1.515-.952c-.334-.979.351-1.814,1.566-1.828,2.163-.025,4.34-.154,6.487.036,1.919.17,3.252-.293,3.917-2.18a1.658,1.658,0,0,1,.205-.307,39.839,39.839,0,0,1,2.623-3.342h-4.585c-2.905,0-5.811-.006-8.716,0a1.41,1.41,0,0,1-1.474-.883,1.3,1.3,0,0,1,.286-1.454,1.772,1.772,0,0,1,1.452-.452c5.162.006,10.323,0,15.485.01a2.027,2.027,0,0,0,1.281-.386,24.223,24.223,0,0,1,8.307-3.926c.475-.121.689-.286.686-.851q-.043-8.434,0-16.868c0-.6-.2-.7-.734-.693-1.637.033-3.276.019-4.914.01-1.263-.007-1.563-.234-1.935-1.406.388-1.181.658-1.379,1.947-1.384,1.636-.006,3.273-.025,4.908.011.569.012.739-.156.725-.727-.038-1.6-.012-3.208-.013-4.813,0-1.213,0-1.215-1.254-1.215q-18.245,0-36.489,0c-.277,0-.554.021-.831.032-1.849-.014-3.7-.023-5.547-.044-.536-.006-.784.218-.779.775q.022,2.728,0,5.456c0,.381.1.566.517.555,1.939-.052,3.881.087,5.819-.076.368.02.736.056,1.1.056q12.172,0,24.343,0c1.31,0,1.558.183,1.947,1.371-.381,1.2-.672,1.406-2.027,1.407q-12.187,0-24.376,0c-.337,0-.675.036-1.012.055-1.759-.019-3.519.007-5.275-.075-.839-.039-1.05.2-1.049,1.042q.04,29.555.021,59.111a5.3,5.3,0,0,1,0,.555c-.039.366.113.479.474.473,1.944-.032,3.888-.043,5.833-.062,1.076.019,2.151.041,3.227.057C626.162,419.9,626.464,420.123,626.828,421.291Zm24.353-31.145c.2-.227.414-.45.614-.681a19.038,19.038,0,0,1,24.512-3.708c1.039.655,1.178,1.06.763,2.228a1.639,1.639,0,0,1-2.259.128,16.248,16.248,0,0,0-24.688,16.121c1.049,6.225,4.533,10.661,10.452,12.862,5.884,2.188,11.39,1.124,16.224-2.9a15.925,15.925,0,0,0,5.52-9.9c.137-.8-.041-1.127-.913-1.028a12.777,12.777,0,0,1-2.13.007c-.53-.029-.745.135-.84.69a12.4,12.4,0,0,1-24.514-3.772,12.428,12.428,0,0,1,24.152-2.05c.254.772.027,1.909.727,2.259a6.263,6.263,0,0,0,2.557.1c1.113,0,1.128-.017.933-1.151a15.793,15.793,0,0,0-2.623-6.561,1.655,1.655,0,0,1,.013-2.264c1.187-.46,1.6-.324,2.323.736a19.874,19.874,0,0,1,2.886,6.76c.194.817-.146,1.981.559,2.383.656.374,1.693.019,2.548.119.979.114,1.117-.285.994-1.131-1.307-8.955-6.075-15.283-14.43-18.78a20.713,20.713,0,0,0-12.258-1.212,2.392,2.392,0,0,0-.459.019c-9.572,2.266-15.867,8.092-17.938,17.707-2.021,9.386,1.155,17.213,8.731,23.133a23.324,23.324,0,0,0,18.3,4A22.989,22.989,0,0,0,689,404.3c.076-.744,0-1.15-.906-1.03a10.647,10.647,0,0,1-2.129.007c-.584-.041-.785.137-.846.744a19.036,19.036,0,0,1-24.62,16.023,19.83,19.83,0,0,1-9.488-6.624,4.205,4.205,0,0,0-.223-.4,18.789,18.789,0,0,1-3.348-14.259A19.8,19.8,0,0,1,651.181,390.146Zm24.495,13.146c-.926,0-1.851.044-2.77-.014a1.174,1.174,0,0,0-1.388.9,5.675,5.675,0,0,1-6.319,3.413,5.785,5.785,0,0,1-.779-11.2c2.519-.833,5.511.06,6.629,2.452a2.622,2.622,0,0,0,3.174,1.674,2.794,2.794,0,0,1,.74,0c.749.119.79-.243.653-.838a9.653,9.653,0,1,0-7.152,11.589C672.222,410.4,675.465,406.849,675.675,403.292Zm21.476,0c.558.628.989,1.1,1.4,1.585a.871.871,0,0,0,.717.342q2.271-.014,4.542,0c.469,0,.532-.186.32-.561-.319-.563-.607-1.147-.954-1.692a1.836,1.836,0,0,1,.009-2.158c.438-.693.8-1.434,1.265-2.278h-4.2a2.834,2.834,0,0,0-2.89,1.986c.628,0,1.246-.017,1.863,0a1.387,1.387,0,1,1,0,2.769C698.609,403.312,697.992,403.29,697.151,403.29Zm-28.292-2.777a2.994,2.994,0,0,0-3.684-1.457,3.043,3.043,0,0,0-1.942,3.314,3.084,3.084,0,0,0,2.782,2.55,2.637,2.637,0,0,0,2.693-1.632c-.812,0-1.614.025-2.413-.007a1.385,1.385,0,1,1,.048-2.764C667.134,400.5,667.925,400.513,668.86,400.513Z" transform="translate(0 0)" fill="#040303"/>
      <path id="Trazado_629928" data-name="Trazado 629928" d="M642.169,439.754c-.364-1.168-.667-1.387-1.925-1.405-1.076-.016-2.151-.038-3.227-.056,0-2.945,0-5.889.008-8.834,0-.349-.143-.747.215-1.029.379.358.761.714,1.137,1.076.885.85,1.523.867,2.4.015q1.559-1.522,3.08-3.083a1.372,1.372,0,0,0,.1-2.12,1.426,1.426,0,0,0-2.063.146,17.639,17.639,0,0,0-1.5,1.514c-.553.669-1.012.865-1.589.029a1.708,1.708,0,0,0-1.785-.724q.012-2.813.023-5.625c.489.467.97.941,1.469,1.4a1.357,1.357,0,0,0,2.116.017q1.665-1.6,3.271-3.267a1.346,1.346,0,0,0,.077-2.045,1.384,1.384,0,0,0-2.054.106c-.626.594-1.253,1.19-1.826,1.833-.376.421-.628.467-1.006.01a2.3,2.3,0,0,0-1.756-1.059c-.412-.232-.31-.633-.311-.989-.007-1.537,0-3.073,0-4.61.51.486,1.011.98,1.531,1.454a1.361,1.361,0,0,0,2.05.017q1.7-1.63,3.331-3.328a1.383,1.383,0,1,0-1.963-1.943c-.649.612-1.3,1.228-1.889,1.9-.4.454-.641.387-1-.026-.527-.6-1.079-1.223-2.03-.975-.01-1.509-.026-3.019-.023-4.528,0-.323-.123-.687.192-.953.444.422.88.853,1.333,1.265a1.373,1.373,0,0,0,2.056.012q1.7-1.63,3.337-3.331a1.342,1.342,0,0,0,.057-1.984,1.383,1.383,0,0,0-2.05.06,18.579,18.579,0,0,0-1.628,1.639c-.522.626-.934.726-1.455.015a1.766,1.766,0,0,0-1.84-.8c0-1.526-.009-3.052,0-4.579,0-.293-.092-.623.219-.84.379.358.76.714,1.137,1.075a1.448,1.448,0,0,0,2.4.01q1.56-1.519,3.076-3.082a1.37,1.37,0,0,0,.107-2.117,1.431,1.431,0,0,0-2.063.138,24.682,24.682,0,0,0-1.76,1.776c-.443.517-.739.46-1.132-.032a1.963,1.963,0,0,0-1.983-.917q.012-2.812.024-5.624c.49.467.972.943,1.472,1.4a1.357,1.357,0,0,0,2.12,0q1.668-1.6,3.275-3.272a1.343,1.343,0,0,0,.05-2.047,1.363,1.363,0,0,0-1.987.074,18.741,18.741,0,0,0-1.76,1.773c-.5.611-.849.485-1.271-.039a1.854,1.854,0,0,0-1.922-.825q0-2.586,0-5.172c.337-.019.675-.055,1.012-.055q12.188,0,24.376,0c1.356,0,1.646-.211,2.027-1.407h3.6c.372,1.172.672,1.4,1.935,1.406,1.638.009,3.277.023,4.914-.01.539-.011.737.09.734.693q-.039,8.434,0,16.868c0,.565-.211.73-.686.851a24.224,24.224,0,0,0-8.307,3.926,2.026,2.026,0,0,1-1.281.386c-5.162-.01-10.323,0-15.485-.01a1.772,1.772,0,0,0-1.452.453,1.3,1.3,0,0,0-.286,1.454,1.41,1.41,0,0,0,1.474.883c2.905-.01,5.811,0,8.716,0H662.9a39.864,39.864,0,0,0-2.623,3.342,1.657,1.657,0,0,0-.205.307c-.665,1.887-2,2.351-3.917,2.18-2.146-.191-4.324-.062-6.487-.036-1.214.014-1.9.849-1.566,1.828a1.39,1.39,0,0,0,1.515.951c2.38-.011,4.76.018,7.14-.017.681-.01.78.147.543.777a19.951,19.951,0,0,0-1.091,4.387c-.074.549-.276.7-.818.686q-2.92-.051-5.841,0a1.373,1.373,0,0,0-1.332,2.077,1.59,1.59,0,0,0,1.519.7c1.762-.007,3.524.025,5.285-.016.649-.015.941.095.906.838a15.105,15.105,0,0,0,.379,4.139c.173.741-.073.862-.758.846-1.915-.046-3.832-.019-5.748-.015-1.151,0-1.809.525-1.791,1.4s.684,1.373,1.839,1.375q3.338.006,6.676,0c.376,0,.687-.026.854.462a25.085,25.085,0,0,0,5.607,9.157c.034.036.036.1.1.3h-1q-7.186,0-14.373,0c-1.27,0-1.57.231-1.933,1.4Zm16.965-56.987h-6.3c-1.112,0-2.225-.018-3.337.007a1.4,1.4,0,0,0-1.484,1.333,1.443,1.443,0,0,0,1.409,1.432,6.926,6.926,0,0,0,.741.015h17.893c.216,0,.434.011.649,0,.948-.069,1.523-.606,1.52-1.412a1.371,1.371,0,0,0-1.536-1.365C665.5,382.758,662.317,382.768,659.134,382.767Zm.053,8.58c-3.183,0-6.366.007-9.549-.006a1.43,1.43,0,0,0-1.5.845c-.442,1.02.294,1.937,1.593,1.939q9.364.013,18.728,0c1.13,0,1.786-.559,1.758-1.45-.028-.854-.645-1.327-1.758-1.329Q663.824,391.343,659.188,391.347Z" transform="translate(-15.341 -18.463)" fill="#fdfdfd"/>
      <path id="Trazado_629929" data-name="Trazado 629929" d="M626.378,422q-.011,2.813-.023,5.625c-1.2.889-1.245,1.6-.192,2.671.147.15.275.317.412.476-.358.282-.213.68-.215,1.029-.011,2.945-.007,5.889-.008,8.834-1.944.019-3.888.03-5.833.062-.361.006-.513-.107-.474-.473a5.367,5.367,0,0,0,0-.555q0-29.555-.02-59.111c0-.847.21-1.082,1.049-1.042,1.756.082,3.516.057,5.275.075q0,2.586,0,5.172c-1.119.782-1.234,1.513-.388,2.456.14.156.273.318.41.477q-.012,2.812-.024,5.624c-1.2.885-1.247,1.594-.191,2.673.146.15.275.318.412.477-.311.217-.219.547-.219.84-.005,1.526,0,3.052,0,4.579-1.187.849-1.246,1.594-.217,2.647.145.149.272.316.407.474-.315.266-.192.63-.192.953,0,1.509.013,3.019.023,4.528-1.058.671-1.25,1.454-.558,2.3.171.208.353.406.531.608,0,1.537-.005,3.073,0,4.61,0,.355-.1.757.311.989-1.431.568-1.64,1.529-.579,2.659C626.193,421.763,626.283,421.885,626.378,422Z" transform="translate(-4.677 -20.808)" fill="#f1eff2"/>
      <path id="Trazado_629930" data-name="Trazado 629930" d="M742.83,456.926a1.655,1.655,0,0,0-.015,2.265,15.793,15.793,0,0,1,2.623,6.561c.2,1.135.181,1.154-.932,1.151a6.263,6.263,0,0,1-2.557-.1c-.7-.35-.472-1.486-.727-2.259a12.5,12.5,0,1,0,.362,5.823c.1-.555.31-.719.84-.69a12.791,12.791,0,0,0,2.13-.007c.872-.1,1.05.231.913,1.028a15.923,15.923,0,0,1-5.52,9.9c-4.834,4.02-10.34,5.084-16.224,2.9-5.919-2.2-9.4-6.637-10.452-12.862a16.248,16.248,0,0,1,24.688-16.121,1.64,1.64,0,0,0,2.258-.127A13.337,13.337,0,0,1,742.83,456.926Z" transform="translate(-63.147 -66.395)" fill="#e75f54"/>
      <path id="Trazado_629931" data-name="Trazado 629931" d="M668.089,362.032h-3.6c-.389-1.187-.637-1.37-1.947-1.371q-12.171,0-24.343,0c-.368,0-.736-.036-1.1-.056q-.005-3.333-.009-6.665c.277-.011.554-.032.831-.032q18.245,0,36.489,0c1.251,0,1.253,0,1.254,1.215,0,1.6-.024,3.21.013,4.813.013.571-.156.739-.725.727-1.635-.035-3.272-.017-4.908-.011C668.746,360.653,668.476,360.851,668.089,362.032Z" transform="translate(-15.394 -4.713)" fill="#4fa5f5"/>
      <path id="Trazado_629932" data-name="Trazado 629932" d="M750.062,480.825c-.211,3.558-3.453,7.112-7.211,7.975A9.641,9.641,0,1,1,750,477.211c.137.6.1.957-.653.838a2.8,2.8,0,0,0-.74,0,2.622,2.622,0,0,1-3.174-1.674c-1.118-2.392-4.11-3.285-6.629-2.452a5.785,5.785,0,0,0,.779,11.2,5.676,5.676,0,0,0,6.318-3.413,1.174,1.174,0,0,1,1.388-.9C748.21,480.868,749.136,480.825,750.062,480.825Z" transform="translate(-74.386 -77.533)" fill="#e8f2fa"/>
      <path id="Trazado_629933" data-name="Trazado 629933" d="M714.83,480.282a20.106,20.106,0,0,1-10.222-4.194c-7.576-5.92-10.753-13.747-8.731-23.133,2.071-9.615,8.366-15.441,17.938-17.707a2.389,2.389,0,0,1,.459-.019c-.093.5-.567.535-.9.7a24.975,24.975,0,0,0-9.908,8.915c-.208.314-.609.642-.312,1.125a19.8,19.8,0,0,0-3.742,8.622,18.79,18.79,0,0,0,3.348,14.259,4.176,4.176,0,0,1,.223.4,1.211,1.211,0,0,0,.2.883,25.3,25.3,0,0,0,6.792,7.345A49.13,49.13,0,0,0,714.83,480.282Z" transform="translate(-51.971 -55.823)" fill="#d8e8f8"/>
      <path id="Trazado_629934" data-name="Trazado 629934" d="M716.286,445.254c-.3-.483.1-.81.312-1.125a24.975,24.975,0,0,1,9.908-8.915c.336-.165.81-.2.9-.7a20.713,20.713,0,0,1,12.258,1.212c8.355,3.5,13.122,9.825,14.43,18.78.123.846-.015,1.245-.994,1.131-.854-.1-1.892.255-2.547-.119-.706-.4-.366-1.566-.559-2.383a19.874,19.874,0,0,0-2.886-6.76c-.728-1.061-1.136-1.2-2.323-.737a13.291,13.291,0,0,0-2.612-2.545c.416-1.169.277-1.574-.763-2.229a19.038,19.038,0,0,0-24.512,3.707C716.7,444.8,716.491,445.027,716.286,445.254Z" transform="translate(-65.106 -55.108)" fill="#e8f2fa"/>
      <path id="Trazado_629935" data-name="Trazado 629935" d="M727.824,520.621a49.147,49.147,0,0,1-4.859-2.808,25.3,25.3,0,0,1-6.792-7.345,1.213,1.213,0,0,1-.2-.883,19.83,19.83,0,0,0,9.488,6.624,19.036,19.036,0,0,0,24.62-16.023c.061-.607.262-.784.845-.744a10.636,10.636,0,0,0,2.129-.007c.911-.121.982.286.906,1.03a22.988,22.988,0,0,1-18.056,19.963A20.1,20.1,0,0,1,727.824,520.621Z" transform="translate(-64.965 -96.162)" fill="#e8f2fa"/>
      <path id="Trazado_629936" data-name="Trazado 629936" d="M626.38,353.918q0,3.333.009,6.665c-1.938.163-3.88.024-5.819.076-.415.012-.52-.174-.517-.555q.019-2.727,0-5.456c0-.557.243-.78.78-.775C622.681,353.895,624.53,353.9,626.38,353.918Z" transform="translate(-4.692 -4.695)" fill="#3a89e0"/>
      <path id="Trazado_629937" data-name="Trazado 629937" d="M840.2,491.46c.84,0,1.458.022,2.074-.005a1.387,1.387,0,1,0,0-2.769c-.616-.021-1.235,0-1.863,0a2.834,2.834,0,0,1,2.89-1.986h4.2c-.464.844-.827,1.585-1.265,2.278a1.836,1.836,0,0,0-.009,2.158c.347.545.635,1.129.954,1.692.213.374.149.563-.32.561q-2.271-.012-4.542,0a.872.872,0,0,1-.717-.342C841.188,492.559,840.757,492.088,840.2,491.46Z" transform="translate(-143.047 -88.169)" fill="#e45d53"/>
      <path id="Trazado_629938" data-name="Trazado 629938" d="M754.481,489.253c-.935,0-1.726-.016-2.516,0a1.385,1.385,0,1,0-.048,2.764c.8.032,1.6.007,2.413.007a2.637,2.637,0,0,1-2.693,1.632,3.084,3.084,0,0,1-2.782-2.55A3.043,3.043,0,0,1,750.8,487.8,2.993,2.993,0,0,1,754.481,489.253Z" transform="translate(-85.621 -88.74)" fill="#e25c52"/>
      <path id="Trazado_629939" data-name="Trazado 629939" d="M677.76,394.573c3.183,0,6.366-.009,9.549.006a1.371,1.371,0,0,1,1.536,1.365c0,.805-.572,1.343-1.52,1.412-.215.016-.432,0-.649,0H668.784a6.929,6.929,0,0,1-.741-.014,1.443,1.443,0,0,1-1.408-1.432,1.4,1.4,0,0,1,1.484-1.333c1.112-.025,2.225-.007,3.337-.007Z" transform="translate(-33.967 -30.269)" fill="#070707"/>
      <path id="Trazado_629940" data-name="Trazado 629940" d="M677.817,417.665q4.636,0,9.271,0c1.113,0,1.731.475,1.758,1.329.029.891-.628,1.449-1.758,1.45q-9.364.008-18.728,0c-1.3,0-2.036-.919-1.593-1.939a1.43,1.43,0,0,1,1.5-.845C671.451,417.673,674.634,417.666,677.817,417.665Z" transform="translate(-33.97 -44.782)" fill="#030303"/>
      <path id="Trazado_629941" data-name="Trazado 629941" d="M635.685,417.561c-.137-.159-.266-.327-.412-.477-1.056-1.08-1.007-1.788.191-2.673a1.962,1.962,0,0,1,1.982.917c.393.493.689.549,1.132.032a24.642,24.642,0,0,1,1.76-1.775,1.431,1.431,0,0,1,2.063-.138,1.37,1.37,0,0,1-.107,2.117q-1.516,1.563-3.076,3.082a1.448,1.448,0,0,1-2.4-.01C636.445,418.276,636.064,417.92,635.685,417.561Z" transform="translate(-13.784 -41.897)" fill="#070707"/>
      <path id="Trazado_629942" data-name="Trazado 629942" d="M635.684,509.9c-.137-.159-.266-.327-.412-.476-1.053-1.076-1-1.782.192-2.671a1.708,1.708,0,0,1,1.785.724c.577.836,1.036.64,1.589-.029a17.648,17.648,0,0,1,1.5-1.514,1.426,1.426,0,0,1,2.063-.146,1.372,1.372,0,0,1-.1,2.12q-1.517,1.564-3.08,3.083c-.873.852-1.511.834-2.4-.015C636.445,510.61,636.063,510.254,635.684,509.9Z" transform="translate(-13.785 -99.93)" fill="#070707"/>
      <path id="Trazado_629943" data-name="Trazado 629943" d="M635.671,440.594c-.135-.159-.262-.325-.407-.474-1.029-1.053-.97-1.8.217-2.647a1.766,1.766,0,0,1,1.84.8c.521.712.933.611,1.455-.014a18.575,18.575,0,0,1,1.628-1.639,1.383,1.383,0,0,1,2.05-.06,1.342,1.342,0,0,1-.057,1.984q-1.633,1.7-3.337,3.331a1.373,1.373,0,0,1-2.056-.012C636.551,441.448,636.115,441.017,635.671,440.594Z" transform="translate(-13.795 -56.391)" fill="#040404"/>
      <path id="Trazado_629944" data-name="Trazado 629944" d="M635.488,394.25c-.137-.159-.271-.321-.41-.477-.847-.943-.732-1.674.387-2.456a1.854,1.854,0,0,1,1.922.825c.422.524.77.65,1.271.039a18.708,18.708,0,0,1,1.76-1.773,1.363,1.363,0,0,1,1.987-.074,1.343,1.343,0,0,1-.05,2.048q-1.609,1.665-3.275,3.272a1.357,1.357,0,0,1-2.12,0C636.46,395.193,635.978,394.717,635.488,394.25Z" transform="translate(-13.786 -27.36)" fill="#060606"/>
      <path id="Trazado_629945" data-name="Trazado 629945" d="M635.5,486.593c-.1-.117-.185-.239-.288-.349-1.06-1.13-.852-2.091.579-2.659a2.3,2.3,0,0,1,1.756,1.059c.378.457.63.411,1.006-.01.573-.643,1.2-1.239,1.826-1.833a1.383,1.383,0,0,1,2.054-.106,1.347,1.347,0,0,1-.077,2.045q-1.609,1.66-3.271,3.267a1.357,1.357,0,0,1-2.116-.017C636.472,487.534,635.99,487.059,635.5,486.593Z" transform="translate(-13.8 -85.398)" fill="#060606"/>
      <path id="Trazado_629946" data-name="Trazado 629946" d="M635.472,463.462c-.177-.2-.36-.4-.531-.608-.692-.841-.5-1.624.558-2.3.951-.248,1.5.372,2.03.975.361.413.6.48,1,.026.588-.669,1.239-1.285,1.888-1.9a1.383,1.383,0,1,1,1.963,1.943q-1.633,1.7-3.331,3.328a1.361,1.361,0,0,1-2.05-.017C636.483,464.442,635.982,463.948,635.472,463.462Z" transform="translate(-13.793 -70.874)" fill="#040404"/>
    </g>
  </g>
</svg>
