<svg xmlns="http://www.w3.org/2000/svg" width="149.73" height="135.629" viewBox="0 0 149.73 135.629">
  <g id="Grupo_1044044" data-name="Grupo 1044044" transform="translate(-494.285 -150.941)">
    <g id="Grupo_980482" data-name="Grupo 980482">
      <path id="Trazado_654702" data-name="Trazado 654702" d="M637.408,285.952,563.974,243.53c-2.843-1.641-5.147-6.044-5.147-9.835V176.087c0-3.79,2.3-5.532,5.147-3.891l73.434,42.422c2.843,1.641,5.148,6.045,5.148,9.836v57.607C642.556,285.852,640.251,287.594,637.408,285.952Z" fill="#dee4f0"/>
      <path id="Trazado_654703" data-name="Trazado 654703" d="M638.867,213.843l-73.434-42.422a3.477,3.477,0,0,0-3.012-.442c-.108.041-1.543.8-1.644.86l-.005,0a3.367,3.367,0,0,1,3.2.354l73.434,42.422c2.843,1.641,5.148,6.045,5.148,9.836v57.607c0,2.365-.9,3.933-2.264,4.379a.86.86,0,0,0,.451-.154c.065-.038,1.623-.916,1.685-.96.978-.685,1.587-2.092,1.587-4.04V223.679C644.015,219.888,641.71,215.484,638.867,213.843Z" fill="#12263f"/>
      <path id="Trazado_654704" data-name="Trazado 654704" d="M637.655,214.494l-73.434-42.421a3.412,3.412,0,0,0-3.1-.4,3.809,3.809,0,0,1,2.483.582l73.433,42.422c2.843,1.641,5.148,6.045,5.148,9.835v57.608c0,2.236-.8,3.751-2.047,4.287,1.588-.252,2.665-1.883,2.665-4.473V224.33C642.8,220.539,640.5,216.136,637.655,214.494Z" fill="#3f92d1" style="mix-blend-mode: screen;isolation: isolate"/>
      <path id="Trazado_654705" data-name="Trazado 654705" d="M560.619,176.9v57a8.978,8.978,0,0,0,3.8,7.522l74.534,43.053.124.071a1.01,1.01,0,0,0,1.511-.877v-59.25a12.383,12.383,0,0,0-.085-1.4Z" fill="#12263f"/>
      <path id="Trazado_654706" data-name="Trazado 654706" d="M639.894,284.317l-.124-.071-74.534-43.052a8.982,8.982,0,0,1-3.8-7.523V177.376l-.818-.473v57a8.978,8.978,0,0,0,3.8,7.522l74.534,43.053.124.071a1,1,0,0,0,1.161-.12A.986.986,0,0,1,639.894,284.317Z" fill="#a8cff0"/>
      <g id="Grupo_980481" data-name="Grupo 980481">
        <path id="Trazado_654707" data-name="Trazado 654707" d="M597.2,210.627l-3.889-2.245v43.832l3.889,2.245Z" fill="#ffd70f"/>
        <path id="Trazado_654708" data-name="Trazado 654708" d="M602.805,208.429l-3.889-2.245V255.4l3.889,2.245Z" fill="#ffd70f"/>
        <path id="Trazado_654709" data-name="Trazado 654709" d="M608.571,218.33l-3.889-2.246v42.608l3.889,2.245Z" fill="#ffd70f"/>
        <path id="Trazado_654710" data-name="Trazado 654710" d="M581.782,221.417V245.43l3.889,2.245V223.663Z" fill="#ffd70f"/>
        <path id="Trazado_654711" data-name="Trazado 654711" d="M591.437,214.742l-3.889-2.245v36.229l3.889,2.245Z" fill="#ffd70f"/>
        <path id="Trazado_654712" data-name="Trazado 654712" d="M614.228,230.5l-3.889-2.245v33.735l3.889,2.246Z" fill="#ffd70f"/>
        <path id="Trazado_654713" data-name="Trazado 654713" d="M619.774,236.582l-3.889-2.246v30.891l3.889,2.246Z" fill="#ffd70f"/>
        <path id="Trazado_654714" data-name="Trazado 654714" d="M579.9,217.255l-3.889-2.246v26.944L579.9,244.2Z" fill="#ffd70f"/>
        <path id="Trazado_654715" data-name="Trazado 654715" d="M564.482,218.846v16.325l3.889,2.246V221.091Z" fill="#ffd70f"/>
        <path id="Trazado_654716" data-name="Trazado 654716" d="M574.137,212.442l-3.889-2.245v28.269l3.889,2.245Z" fill="#ffd70f"/>
        <path id="Trazado_654717" data-name="Trazado 654717" d="M597.2,227.832l-3.889-2.245v26.627l3.889,2.245Z" fill="#eb4680"/>
        <path id="Trazado_654718" data-name="Trazado 654718" d="M602.805,215.726l-3.889-2.246V255.4l3.889,2.245Z" fill="#eb4680"/>
        <path id="Trazado_654719" data-name="Trazado 654719" d="M608.571,226.111l-3.889-2.245v34.828l3.889,2.245Z" fill="#eb4680"/>
        <path id="Trazado_654720" data-name="Trazado 654720" d="M581.782,227.251V245.43l3.889,2.245V229.5Z" fill="#eb4680"/>
        <path id="Trazado_654721" data-name="Trazado 654721" d="M591.437,226.539l-3.889-2.246v24.432l3.889,2.245Z" fill="#eb4680"/>
        <path id="Trazado_654722" data-name="Trazado 654722" d="M579.9,219.459l-3.889-2.246v24.74L579.9,244.2Z" fill="#eb4680"/>
        <path id="Trazado_654723" data-name="Trazado 654723" d="M564.482,230.443v4.728l3.889,2.246v-4.728Z" fill="#eb4680"/>
        <path id="Trazado_654724" data-name="Trazado 654724" d="M574.137,230.452l-3.889-2.245v10.259l3.889,2.245Z" fill="#eb4680"/>
        <path id="Trazado_654725" data-name="Trazado 654725" d="M614.228,236.777l-3.889-2.246v27.456l3.889,2.246Z" fill="#eb4680"/>
        <path id="Trazado_654726" data-name="Trazado 654726" d="M619.774,247.83l-3.889-2.245v19.643l3.889,2.246Z" fill="#eb4680"/>
        <g id="Grupo_980480" data-name="Grupo 980480">
          <path id="Trazado_654727" data-name="Trazado 654727" d="M625.249,234.2l-3.889-2.245V268.36l3.889,2.245Z" fill="#ffd70f"/>
          <path id="Trazado_654728" data-name="Trazado 654728" d="M630.851,225.512l-3.89-2.246v48.278l3.89,2.246Z" fill="#ffd70f"/>
          <path id="Trazado_654729" data-name="Trazado 654729" d="M636.617,234.477l-3.889-2.246V274.84l3.889,2.245Z" fill="#ffd70f"/>
          <path id="Trazado_654730" data-name="Trazado 654730" d="M625.249,243.979l-3.889-2.245V268.36l3.889,2.245Z" fill="#eb4680"/>
          <path id="Trazado_654731" data-name="Trazado 654731" d="M630.851,231.873l-3.89-2.245v41.917l3.89,2.246Z" fill="#eb4680"/>
          <path id="Trazado_654732" data-name="Trazado 654732" d="M636.617,242.258l-3.889-2.246V274.84l3.889,2.245Z" fill="#eb4680"/>
          <path id="Trazado_654733" data-name="Trazado 654733" d="M636.617,242.258l-3.889-2.246V274.84l3.889,2.245Z" fill="#eb4680"/>
        </g>
      </g>
    </g>
    <g id="Grupo_980494" data-name="Grupo 980494">
      <path id="Trazado_654734" data-name="Trazado 654734" d="M572.866,266.091l-73.433-42.422c-2.843-1.642-5.148-6.045-5.148-9.836V156.226c0-3.791,2.3-5.533,5.148-3.892l73.433,42.422c2.843,1.642,5.148,6.045,5.148,9.836V262.2C578.014,265.99,575.709,267.732,572.866,266.091Z" fill="#dee4f0"/>
      <path id="Trazado_654735" data-name="Trazado 654735" d="M574.325,193.981l-73.433-42.422a3.482,3.482,0,0,0-3.013-.442c-.107.042-1.543.8-1.644.86l0,0a3.369,3.369,0,0,1,3.2.354l73.433,42.422c2.843,1.642,5.148,6.045,5.148,9.836V262.2c0,2.366-.9,3.933-2.264,4.379a.858.858,0,0,0,.451-.154c.065-.037,1.623-.916,1.685-.96.978-.684,1.587-2.092,1.587-4.04V203.817C579.473,200.026,577.168,195.623,574.325,193.981Z" fill="#12263f"/>
      <path id="Trazado_654736" data-name="Trazado 654736" d="M573.113,194.633,499.68,152.211a3.416,3.416,0,0,0-3.1-.4,3.8,3.8,0,0,1,2.483.581L572.5,194.818c2.843,1.641,5.148,6.045,5.148,9.836v57.607c0,2.236-.806,3.751-2.048,4.288,1.589-.252,2.665-1.884,2.665-4.473V204.468C578.261,200.678,575.956,196.274,573.113,194.633Z" fill="#3f92d1" style="mix-blend-mode: screen;isolation: isolate"/>
      <path id="Trazado_654737" data-name="Trazado 654737" d="M496.077,157.042v57a8.982,8.982,0,0,0,3.8,7.523l74.534,43.052.124.071a1.01,1.01,0,0,0,1.511-.877V204.563a12.649,12.649,0,0,0-.085-1.4Z" fill="#12263f"/>
      <path id="Trazado_654738" data-name="Trazado 654738" d="M575.352,264.455l-.124-.07-74.534-43.053a8.98,8.98,0,0,1-3.8-7.522v-56.3l-.818-.472v57a8.982,8.982,0,0,0,3.8,7.523l74.534,43.052.124.071a1,1,0,0,0,1.16-.12A.972.972,0,0,1,575.352,264.455Z" fill="#a8cff0"/>
      <g id="Grupo_980493" data-name="Grupo 980493">
        <g id="Grupo_980483" data-name="Grupo 980483">
          <path id="Trazado_654739" data-name="Trazado 654739" d="M574.285,240.942a1,1,0,0,1-.907-.578c-1.864-4-3.625-7.782-6.666-9.582a18.6,18.6,0,0,0-7.638-2.647,8.775,8.775,0,0,1-5.688-2.506c-.159-.153-.3-.285-.436-.406-1.2-1.091-1.63-1.655-2.03-5.325-.095-.866-.177-1.749-.26-2.632-.576-6.187-1.12-12.03-5.742-12.968-4.01-.815-5.009-3.679-6.166-7a40.261,40.261,0,0,0-1.54-3.936c-2.005-4.276-4.837-7.907-7.049-9.034-3.164-1.613-7.171.9-8.928,4.262-1.779,3.407-3.994,7.648-8.135,8.148-6.626.786-9.466-3.066-11.76-6.16-1.229-1.658-2.289-3.088-3.648-3.416a1,1,0,0,1,.469-1.944c2.065.5,3.386,2.28,4.783,4.166,2.194,2.96,4.453,6.022,9.917,5.368,3.095-.374,4.957-3.941,6.6-7.089,2.189-4.191,7.254-7.343,11.609-5.116,3.181,1.62,6.271,6.381,7.951,9.966a41.711,41.711,0,0,1,1.619,4.127c1.11,3.183,1.781,5.1,4.675,5.692,6.078,1.235,6.717,8.1,7.336,14.743.081.873.162,1.745.256,2.6.339,3.1.582,3.327,1.39,4.063.145.133.3.278.478.446,1.569,1.518,2.7,1.686,4.586,1.964a20.347,20.347,0,0,1,8.368,2.906c3.575,2.116,5.462,6.168,7.46,10.46a1,1,0,0,1-.905,1.421Z" fill="#0fbab8"/>
        </g>
        <g id="Grupo_980484" data-name="Grupo 980484">
          <path id="Trazado_654740" data-name="Trazado 654740" d="M553.214,249.594a.4.4,0,0,1-.4-.4v-1a.4.4,0,0,1,.8,0v1A.4.4,0,0,1,553.214,249.594Zm0-3a.4.4,0,0,1-.4-.4v-1a.4.4,0,0,1,.8,0v1A.4.4,0,0,1,553.214,246.594Zm0-3a.4.4,0,0,1-.4-.4v-1a.4.4,0,0,1,.8,0v1A.4.4,0,0,1,553.214,243.594Zm0-3a.4.4,0,0,1-.4-.4v-1a.4.4,0,0,1,.8,0v1A.4.4,0,0,1,553.214,240.594Zm0-3a.4.4,0,0,1-.4-.4v-1a.4.4,0,0,1,.8,0v1A.4.4,0,0,1,553.214,237.594Zm0-3a.4.4,0,0,1-.4-.4v-1a.4.4,0,0,1,.8,0v1A.4.4,0,0,1,553.214,234.594Zm0-3a.4.4,0,0,1-.4-.4v-1a.4.4,0,0,1,.8,0v1A.4.4,0,0,1,553.214,231.594Zm0-3a.4.4,0,0,1-.4-.4v-.251a.4.4,0,0,1,.8,0v.251A.4.4,0,0,1,553.214,228.594Z" fill="#2672ab"/>
        </g>
        <g id="Grupo_980485" data-name="Grupo 980485">
          <path id="Trazado_654741" data-name="Trazado 654741" d="M564.888,256.083a.4.4,0,0,1-.4-.4v-1a.4.4,0,1,1,.8,0v1A.4.4,0,0,1,564.888,256.083Zm0-3a.4.4,0,0,1-.4-.4v-1a.4.4,0,1,1,.8,0v1A.4.4,0,0,1,564.888,253.083Zm0-3a.4.4,0,0,1-.4-.4v-1a.4.4,0,1,1,.8,0v1A.4.4,0,0,1,564.888,250.083Zm0-3a.4.4,0,0,1-.4-.4v-1a.4.4,0,1,1,.8,0v1A.4.4,0,0,1,564.888,247.083Zm0-3a.4.4,0,0,1-.4-.4v-1a.4.4,0,1,1,.8,0v1A.4.4,0,0,1,564.888,244.083Zm0-3a.4.4,0,0,1-.4-.4v-1a.4.4,0,1,1,.8,0v1A.4.4,0,0,1,564.888,241.083Zm0-3a.4.4,0,0,1-.4-.4v-1a.4.4,0,1,1,.8,0v1A.4.4,0,0,1,564.888,238.083Zm0-3a.4.4,0,0,1-.4-.4v-1a.4.4,0,1,1,.8,0v1A.4.4,0,0,1,564.888,235.083Z" fill="#2672ab"/>
        </g>
        <g id="Grupo_980486" data-name="Grupo 980486">
          <path id="Trazado_654742" data-name="Trazado 654742" d="M541.61,243a.4.4,0,0,1-.4-.4v-1a.4.4,0,1,1,.8,0v1A.4.4,0,0,1,541.61,243Zm0-3a.4.4,0,0,1-.4-.4v-1a.4.4,0,1,1,.8,0v1A.4.4,0,0,1,541.61,240Zm0-3a.4.4,0,0,1-.4-.4v-1a.4.4,0,1,1,.8,0v1A.4.4,0,0,1,541.61,237Zm0-3a.4.4,0,0,1-.4-.4v-1a.4.4,0,1,1,.8,0v1A.4.4,0,0,1,541.61,234Zm0-3a.4.4,0,0,1-.4-.4v-1a.4.4,0,1,1,.8,0v1A.4.4,0,0,1,541.61,231Zm0-3a.4.4,0,0,1-.4-.4v-1a.4.4,0,1,1,.8,0v1A.4.4,0,0,1,541.61,228Zm0-3a.4.4,0,0,1-.4-.4v-1a.4.4,0,1,1,.8,0v1A.4.4,0,0,1,541.61,225Zm0-3a.4.4,0,0,1-.4-.4v-1a.4.4,0,1,1,.8,0v1A.4.4,0,0,1,541.61,222Zm0-3a.4.4,0,0,1-.4-.4v-1a.4.4,0,1,1,.8,0v1A.4.4,0,0,1,541.61,219Zm0-3a.4.4,0,0,1-.4-.4v-1a.4.4,0,1,1,.8,0v1A.4.4,0,0,1,541.61,216Zm0-3a.4.4,0,0,1-.4-.4v-1a.4.4,0,1,1,.8,0v1A.4.4,0,0,1,541.61,213Zm0-3a.4.4,0,0,1-.4-.4v-1a.4.4,0,1,1,.8,0v1A.4.4,0,0,1,541.61,210Zm0-3a.4.4,0,0,1-.4-.4v-1a.4.4,0,1,1,.8,0v1A.4.4,0,0,1,541.61,207Z" fill="#2672ab"/>
        </g>
        <g id="Grupo_980487" data-name="Grupo 980487">
          <path id="Trazado_654743" data-name="Trazado 654743" d="M530.007,236.272a.4.4,0,0,1-.4-.4v-1a.4.4,0,0,1,.8,0v1A.4.4,0,0,1,530.007,236.272Zm0-3a.4.4,0,0,1-.4-.4v-1a.4.4,0,0,1,.8,0v1A.4.4,0,0,1,530.007,233.272Zm0-3a.4.4,0,0,1-.4-.4v-1a.4.4,0,0,1,.8,0v1A.4.4,0,0,1,530.007,230.272Zm0-3a.4.4,0,0,1-.4-.4v-1a.4.4,0,0,1,.8,0v1A.4.4,0,0,1,530.007,227.272Zm0-3a.4.4,0,0,1-.4-.4v-1a.4.4,0,0,1,.8,0v1A.4.4,0,0,1,530.007,224.272Zm0-3a.4.4,0,0,1-.4-.4v-1a.4.4,0,0,1,.8,0v1A.4.4,0,0,1,530.007,221.272Zm0-3a.4.4,0,0,1-.4-.4v-1a.4.4,0,0,1,.8,0v1A.4.4,0,0,1,530.007,218.272Zm0-3a.4.4,0,0,1-.4-.4v-1a.4.4,0,0,1,.8,0v1A.4.4,0,0,1,530.007,215.272Zm0-3a.4.4,0,0,1-.4-.4v-1a.4.4,0,0,1,.8,0v1A.4.4,0,0,1,530.007,212.272Zm0-3a.4.4,0,0,1-.4-.4v-1a.4.4,0,0,1,.8,0v1A.4.4,0,0,1,530.007,209.272Zm0-3a.4.4,0,0,1-.4-.4v-1a.4.4,0,0,1,.8,0v1A.4.4,0,0,1,530.007,206.272Zm0-3a.4.4,0,0,1-.4-.4v-1a.4.4,0,0,1,.8,0v1A.4.4,0,0,1,530.007,203.272Zm0-3a.4.4,0,0,1-.4-.4v-1a.4.4,0,0,1,.8,0v1A.4.4,0,0,1,530.007,200.271Zm0-3a.4.4,0,0,1-.4-.4v-1a.4.4,0,0,1,.8,0v1A.4.4,0,0,1,530.007,197.271Zm0-3a.4.4,0,0,1-.4-.4v-1a.4.4,0,0,1,.8,0v1A.4.4,0,0,1,530.007,194.271Zm0-3a.4.4,0,0,1-.4-.4v-1a.4.4,0,0,1,.8,0v1A.4.4,0,0,1,530.007,191.271Z" fill="#2672ab"/>
        </g>
        <g id="Grupo_980488" data-name="Grupo 980488">
          <path id="Trazado_654744" data-name="Trazado 654744" d="M518.4,229.258a.4.4,0,0,1-.4-.4v-1a.4.4,0,0,1,.8,0v1A.4.4,0,0,1,518.4,229.258Zm0-3a.4.4,0,0,1-.4-.4v-1a.4.4,0,0,1,.8,0v1A.4.4,0,0,1,518.4,226.258Zm0-3a.4.4,0,0,1-.4-.4v-1a.4.4,0,0,1,.8,0v1A.4.4,0,0,1,518.4,223.258Zm0-3a.4.4,0,0,1-.4-.4v-1a.4.4,0,0,1,.8,0v1A.4.4,0,0,1,518.4,220.258Zm0-3a.4.4,0,0,1-.4-.4v-1a.4.4,0,0,1,.8,0v1A.4.4,0,0,1,518.4,217.258Zm0-3a.4.4,0,0,1-.4-.4v-1a.4.4,0,0,1,.8,0v1A.4.4,0,0,1,518.4,214.258Zm0-3a.4.4,0,0,1-.4-.4v-1a.4.4,0,0,1,.8,0v1A.4.4,0,0,1,518.4,211.258Zm0-3a.4.4,0,0,1-.4-.4v-1a.4.4,0,0,1,.8,0v1A.4.4,0,0,1,518.4,208.258Zm0-3a.4.4,0,0,1-.4-.4v-1a.4.4,0,0,1,.8,0v1A.4.4,0,0,1,518.4,205.258Zm0-3a.4.4,0,0,1-.4-.4v-1a.4.4,0,0,1,.8,0v1A.4.4,0,0,1,518.4,202.258Zm0-3a.4.4,0,0,1-.4-.4v-1a.4.4,0,0,1,.8,0v1A.4.4,0,0,1,518.4,199.257Z" fill="#2672ab"/>
        </g>
        <g id="Grupo_980489" data-name="Grupo 980489">
          <path id="Trazado_654745" data-name="Trazado 654745" d="M506.8,222.664a.4.4,0,0,1-.4-.4v-1a.4.4,0,1,1,.8,0v1A.4.4,0,0,1,506.8,222.664Zm0-3a.4.4,0,0,1-.4-.4v-1a.4.4,0,1,1,.8,0v1A.4.4,0,0,1,506.8,219.664Zm0-3a.4.4,0,0,1-.4-.4v-1a.4.4,0,1,1,.8,0v1A.4.4,0,0,1,506.8,216.664Zm0-3a.4.4,0,0,1-.4-.4v-1a.4.4,0,1,1,.8,0v1A.4.4,0,0,1,506.8,213.664Zm0-3a.4.4,0,0,1-.4-.4v-1a.4.4,0,1,1,.8,0v1A.4.4,0,0,1,506.8,210.664Zm0-3a.4.4,0,0,1-.4-.4v-1a.4.4,0,1,1,.8,0v1A.4.4,0,0,1,506.8,207.664Zm0-3a.4.4,0,0,1-.4-.4v-1a.4.4,0,1,1,.8,0v1A.4.4,0,0,1,506.8,204.664Zm0-3a.4.4,0,0,1-.4-.4v-1a.4.4,0,0,1,.8,0v1A.4.4,0,0,1,506.8,201.664Zm0-3a.4.4,0,0,1-.4-.4v-.947a.4.4,0,0,1,.8,0v.947A.4.4,0,0,1,506.8,198.664Z" fill="#2672ab"/>
        </g>
        <g id="Grupo_980490" data-name="Grupo 980490">
          <path id="Trazado_654746" data-name="Trazado 654746" d="M527.881,182.646a5.513,5.513,0,0,0,2.5,4.315c1.381.8,2.5.159,2.5-1.427a5.515,5.515,0,0,0-2.5-4.315C529,180.422,527.881,181.06,527.881,182.646Z" fill="#d1ebff"/>
          <path id="Trazado_654747" data-name="Trazado 654747" d="M531.506,187.8h0a2.757,2.757,0,0,1-1.373-.41,5.985,5.985,0,0,1-2.752-4.749c0-1.357.755-2.269,1.879-2.269a2.763,2.763,0,0,1,1.373.41,5.985,5.985,0,0,1,2.752,4.748,2.553,2.553,0,0,1-.493,1.619A1.74,1.74,0,0,1,531.506,187.8Zm-2.246-6.428c-.793,0-.879.888-.879,1.269a5.041,5.041,0,0,0,2.252,3.882c.623.361,1.182.37,1.479,0a1.589,1.589,0,0,0,.273-.993,5.047,5.047,0,0,0-2.252-3.882A1.81,1.81,0,0,0,529.26,181.376Z" fill="#2672ab"/>
        </g>
        <g id="Grupo_980491" data-name="Grupo 980491">
          <path id="Trazado_654748" data-name="Trazado 654748" d="M573.451,228.567a1,1,0,0,1-.8-.4l-4.286-5.646a8.416,8.416,0,0,0-6.029-3.3l-14.385-1.156a10.421,10.421,0,0,1-7.518-4.158l-6.083-8.163a8.47,8.47,0,0,0-10.231-2.633,10.366,10.366,0,0,1-8.969-.165l-.566-.283a8.436,8.436,0,0,0-6.839-.308L498.482,206a1,1,0,1,1-.73-1.861l9.265-3.636a10.436,10.436,0,0,1,8.463.38l.567.283a8.383,8.383,0,0,0,7.246.134,10.475,10.475,0,0,1,12.662,3.258l6.083,8.163a8.415,8.415,0,0,0,6.075,3.359l14.385,1.155a10.425,10.425,0,0,1,7.463,4.084l4.286,5.646a1,1,0,0,1-.8,1.6Z" fill="#eb4680"/>
        </g>
        <g id="Grupo_980492" data-name="Grupo 980492">
          <path id="Trazado_654749" data-name="Trazado 654749" d="M573.616,249.567a1,1,0,0,1-.4-.083L563.179,245.1a42,42,0,0,1-14.628-10.665l-3.221-3.657a4.385,4.385,0,0,0-5.739-.731,6.378,6.378,0,0,1-9.863-4.21l-2.351-13.78a4.374,4.374,0,0,0-5.788-3.387c-14.875,5.336-22.554,8.087-22.822,8.176a1,1,0,0,1-.634-1.9c.208-.07,4.328-1.543,22.78-8.162a6.374,6.374,0,0,1,8.435,4.934L531.7,225.5a4.38,4.38,0,0,0,6.771,2.89,6.389,6.389,0,0,1,8.36,1.065l3.221,3.656a40.01,40.01,0,0,0,13.927,10.155l10.04,4.38a1,1,0,0,1-.4,1.917Z" fill="#ffd70f"/>
        </g>
      </g>
    </g>
  </g>
</svg>
