<svg xmlns="http://www.w3.org/2000/svg" xmlns:xlink="http://www.w3.org/1999/xlink" width="100.714" height="180.018" viewBox="0 0 100.714 180.018">
  <defs>
    <linearGradient id="linear-gradient" x1="-5.118" y1="7.146" x2="-3.992" y2="7.058" gradientUnits="objectBoundingBox">
      <stop offset="0" stop-color="#3919bb"/>
      <stop offset="1" stop-color="#6507fa"/>
    </linearGradient>
    <radialGradient id="radial-gradient" cx="0.234" cy="0.38" r="0.644" gradientTransform="translate(-0.287) scale(1.574 1)" gradientUnits="objectBoundingBox">
      <stop offset="0" stop-color="#396caa"/>
      <stop offset="1" stop-color="#274f89"/>
    </radialGradient>
    <linearGradient id="linear-gradient-2" x1="0.029" y1="0.235" x2="0.883" y2="0.916" gradientUnits="objectBoundingBox">
      <stop offset="0" stop-color="#d4ecff"/>
      <stop offset="0.239" stop-color="#d0e9fd"/>
      <stop offset="0.46" stop-color="#c5e2f9"/>
      <stop offset="0.675" stop-color="#b2d5f1"/>
      <stop offset="0.884" stop-color="#98c4e7"/>
      <stop offset="1" stop-color="#86b8e0"/>
    </linearGradient>
  </defs>
  <g id="Grupo_1044045" data-name="Grupo 1044045" transform="translate(-1260.176 -323.762)">
    <g id="Grupo_980498" data-name="Grupo 980498" transform="translate(1260.176 386.118)">
      <g id="Grupo_980478" data-name="Grupo 980478" transform="translate(0 0)">
        <g id="Grupo_980477" data-name="Grupo 980477">
          <g id="Grupo_980472" data-name="Grupo 980472">
            <g id="Grupo_980464" data-name="Grupo 980464">
              <g id="Grupo_980463" data-name="Grupo 980463">
                <g id="Grupo_980462" data-name="Grupo 980462">
                  <path id="Trazado_654640" data-name="Trazado 654640" d="M365.437,104.7s-16.519,1.574-26.468,2.338l26.388,75.154,34.9-20.132.017-.01.062-.036v0a1.944,1.944,0,0,0,.713-1.723V86.832a5.323,5.323,0,0,0-.606-2.345Z" transform="translate(-331.014 -64.721)" fill="#727997"/>
                  <path id="Trazado_654641" data-name="Trazado 654641" d="M392.211,64.407l-30.7-17.723a1.388,1.388,0,0,0-1.4-.12h0L325.072,66.781l1.651,6.11,8.787,25.025,1.654.955,56.6-32.68A4.327,4.327,0,0,0,392.211,64.407Z" transform="translate(-324.335 -46.426)" fill="#dee4f0"/>
                  <path id="Trazado_654642" data-name="Trazado 654642" d="M356.509,182.525l-30.7-17.723a5.175,5.175,0,0,1-2.161-4.13V87.216c0-1.591.968-2.323,2.161-1.634l30.7,17.723a5.175,5.175,0,0,1,2.161,4.13v73.457C358.671,182.483,357.7,183.214,356.509,182.525Z" transform="translate(-323.652 -65.122)" fill="#727997"/>
                  <path id="Trazado_654643" data-name="Trazado 654643" d="M358.2,102.595l-30.7-17.723a1.276,1.276,0,0,0-1.7.125,1.6,1.6,0,0,1,1.042.244l30.7,17.723a5.175,5.175,0,0,1,2.161,4.13V180.55a2.243,2.243,0,0,1-.461,1.509c.667-.105,1.119-.79,1.119-1.878V106.724A5.175,5.175,0,0,0,358.2,102.595Z" transform="translate(-324.688 -64.782)" fill="#fff"/>
                  <path id="Trazado_654644" data-name="Trazado 654644" d="M356.618,181.622l-26.834-15.493a4.527,4.527,0,0,1-1.889-3.61V94.3c0-1.391.846-2.031,1.889-1.429l26.834,15.493a4.527,4.527,0,0,1,1.889,3.61v68.221C358.507,181.584,357.661,182.224,356.618,181.622Z" transform="translate(-325.691 -68.641)" fill="url(#linear-gradient)"/>
                  <path id="Trazado_654646" data-name="Trazado 654646" d="M356.618,181.622l-26.834-15.493a4.527,4.527,0,0,1-1.889-3.61V94.3c0-1.391.846-2.031,1.889-1.429l26.834,15.493a4.527,4.527,0,0,1,1.889,3.61v68.221C358.507,181.584,357.661,182.224,356.618,181.622Z" transform="translate(-325.691 -68.641)" fill="#b0c0d2"/>
                  <path id="Trazado_654647" data-name="Trazado 654647" d="M357.494,181.106,330.66,165.613a4.525,4.525,0,0,1-1.889-3.61V93.783a2.183,2.183,0,0,1,.271-1.139c-.675-.005-1.148.614-1.148,1.655v68.221a4.527,4.527,0,0,0,1.889,3.61l26.834,15.493a1.094,1.094,0,0,0,1.618-.29A1.522,1.522,0,0,1,357.494,181.106Z" transform="translate(-325.691 -68.642)" fill="#12263f"/>
                </g>
              </g>
            </g>
            <g id="Grupo_980466" data-name="Grupo 980466" transform="translate(5.045 26.973)">
              <g id="Grupo_980465" data-name="Grupo 980465" transform="translate(0)">
                <path id="Trazado_654648" data-name="Trazado 654648" d="M359.248,198.336l-9.974-5.758-15.908,9.184L361.138,217.8V201.947A4.526,4.526,0,0,0,359.248,198.336Z" transform="translate(-333.367 -143.65)" fill="#12263f"/>
                <path id="Trazado_654649" data-name="Trazado 654649" d="M359.248,171.418l-9.974-5.758-15.908,9.184,27.771,16.033V175.029A4.526,4.526,0,0,0,359.248,171.418Z" transform="translate(-333.367 -130.711)" fill="#12263f"/>
                <path id="Trazado_654650" data-name="Trazado 654650" d="M359.248,144.5l-9.974-5.759-15.908,9.184,27.771,16.034V148.11A4.525,4.525,0,0,0,359.248,144.5Z" transform="translate(-333.367 -117.772)" fill="#12263f"/>
                <path id="Trazado_654651" data-name="Trazado 654651" d="M359.248,117.581l-9.974-5.758-15.908,9.184,27.771,16.034V121.192A4.526,4.526,0,0,0,359.248,117.581Z" transform="translate(-333.367 -104.833)" fill="#12263f"/>
                <path id="Trazado_654652" data-name="Trazado 654652" d="M359.248,111.112,337.167,98.364l-3.8,2.194,27.771,16.034v-1.869A4.526,4.526,0,0,0,359.248,111.112Z" transform="translate(-333.367 -98.364)" fill="#12263f"/>
              </g>
              <path id="Trazado_654653" data-name="Trazado 654653" d="M361.138,118.623l-27.771-16.034v8.836l27.771,16.033Z" transform="translate(-333.367 -100.395)" fill="#727997"/>
              <path id="Trazado_654654" data-name="Trazado 654654" d="M361.138,145.541l-27.771-16.034v8.836l27.771,16.034Z" transform="translate(-333.367 -113.334)" fill="#727997"/>
              <path id="Trazado_654655" data-name="Trazado 654655" d="M361.138,172.46l-27.771-16.034v8.836L361.138,181.3Z" transform="translate(-333.367 -126.273)" fill="#727997"/>
              <path id="Trazado_654656" data-name="Trazado 654656" d="M361.138,199.378l-27.771-16.034v8.836l27.771,16.034Z" transform="translate(-333.367 -139.211)" fill="#727997"/>
              <path id="Trazado_654657" data-name="Trazado 654657" d="M361.138,226.3l-27.771-16.034V219.1l27.771,16.034Z" transform="translate(-333.367 -152.15)" fill="#727997"/>
            </g>
            <g id="Grupo_980467" data-name="Grupo 980467" transform="translate(8.38 33.465)">
              <path id="Trazado_654658" data-name="Trazado 654658" d="M361.775,128.288l-20.917-12.077a2.561,2.561,0,0,1-1.069-2.043V111.8c0-.787.479-1.149,1.069-.809l20.917,12.076a2.562,2.562,0,0,1,1.069,2.044v2.366C362.845,128.267,362.366,128.629,361.775,128.288Z" transform="translate(-339.789 -110.865)" fill="#b0c0d2"/>
              <path id="Trazado_654659" data-name="Trazado 654659" d="M341.915,115.758a2.561,2.561,0,0,1-1.069-2.043v-2.366a1.516,1.516,0,0,1,.039-.34l-.027-.016c-.59-.341-1.069.021-1.069.809v2.366a2.561,2.561,0,0,0,1.069,2.043l20.917,12.076a.64.64,0,0,0,1.03-.468Z" transform="translate(-339.789 -110.865)" fill="#06033e" opacity="0.3"/>
              <path id="Trazado_654660" data-name="Trazado 654660" d="M357.487,124.229,344.9,116.962a.9.9,0,0,1-.377-.719h0c0-.277.169-.4.377-.285l12.587,7.267a.9.9,0,0,1,.376.719h0C357.863,124.221,357.7,124.349,357.487,124.229Z" transform="translate(-342.065 -113.292)" fill="#fff"/>
            </g>
            <g id="Grupo_980468" data-name="Grupo 980468" transform="translate(8.38 47.358)">
              <path id="Trazado_654661" data-name="Trazado 654661" d="M361.775,155.04l-20.917-12.077a2.561,2.561,0,0,1-1.069-2.043v-2.366c0-.787.479-1.149,1.069-.809l20.917,12.076a2.562,2.562,0,0,1,1.069,2.044v2.366C362.845,155.019,362.366,155.381,361.775,155.04Z" transform="translate(-339.789 -137.617)" fill="#b0c0d2"/>
              <path id="Trazado_654662" data-name="Trazado 654662" d="M341.915,142.51a2.561,2.561,0,0,1-1.069-2.043V138.1a1.516,1.516,0,0,1,.039-.34l-.027-.016c-.59-.341-1.069.021-1.069.809v2.366a2.56,2.56,0,0,0,1.069,2.043l20.917,12.077a.641.641,0,0,0,1.03-.469Z" transform="translate(-339.789 -137.617)" fill="#06033e" opacity="0.3"/>
              <path id="Trazado_654663" data-name="Trazado 654663" d="M357.487,150.981,344.9,143.714a.9.9,0,0,1-.377-.719h0c0-.277.169-.4.377-.285l12.587,7.268a.9.9,0,0,1,.376.719h0C357.863,150.973,357.7,151.1,357.487,150.981Z" transform="translate(-342.065 -140.044)" fill="#fff"/>
            </g>
            <g id="Grupo_980469" data-name="Grupo 980469" transform="translate(8.38 61.381)">
              <path id="Trazado_654664" data-name="Trazado 654664" d="M361.775,182.041l-20.917-12.076a2.562,2.562,0,0,1-1.069-2.044v-2.366c0-.787.479-1.149,1.069-.808l20.917,12.076a2.561,2.561,0,0,1,1.069,2.043v2.366C362.845,182.021,362.366,182.382,361.775,182.041Z" transform="translate(-339.789 -164.619)" fill="#b0c0d2"/>
              <path id="Trazado_654665" data-name="Trazado 654665" d="M341.915,169.511a2.56,2.56,0,0,1-1.069-2.043V165.1a1.516,1.516,0,0,1,.039-.34l-.027-.015c-.59-.341-1.069.021-1.069.808v2.366a2.562,2.562,0,0,0,1.069,2.044l20.917,12.076a.641.641,0,0,0,1.03-.468Z" transform="translate(-339.789 -164.619)" fill="#06033e" opacity="0.3"/>
              <path id="Trazado_654666" data-name="Trazado 654666" d="M357.487,177.983,344.9,170.715a.9.9,0,0,1-.377-.719h0c0-.277.169-.4.377-.284l12.587,7.267a.9.9,0,0,1,.376.719h0C357.863,177.975,357.7,178.1,357.487,177.983Z" transform="translate(-342.065 -167.045)" fill="#d4ecff"/>
            </g>
            <g id="Grupo_980470" data-name="Grupo 980470" transform="translate(8.38 75.533)">
              <path id="Trazado_654667" data-name="Trazado 654667" d="M361.775,209.292l-20.917-12.076a2.561,2.561,0,0,1-1.069-2.043v-2.366c0-.788.479-1.149,1.069-.809l20.917,12.076a2.562,2.562,0,0,1,1.069,2.044v2.366C362.845,209.271,362.366,209.633,361.775,209.292Z" transform="translate(-339.789 -191.869)" fill="#b0c0d2"/>
              <path id="Trazado_654668" data-name="Trazado 654668" d="M341.915,196.762a2.561,2.561,0,0,1-1.069-2.043v-2.367a1.514,1.514,0,0,1,.039-.34l-.027-.016c-.59-.341-1.069.021-1.069.809v2.366a2.561,2.561,0,0,0,1.069,2.043l20.917,12.076a.64.64,0,0,0,1.03-.468Z" transform="translate(-339.789 -191.869)" fill="#06033e" opacity="0.3"/>
              <path id="Trazado_654669" data-name="Trazado 654669" d="M357.487,205.233,344.9,197.966a.9.9,0,0,1-.377-.719h0c0-.277.169-.4.377-.285l12.587,7.268a.9.9,0,0,1,.376.719h0C357.863,205.225,357.7,205.352,357.487,205.233Z" transform="translate(-342.065 -194.296)" fill="#ff2c9c"/>
            </g>
            <g id="Grupo_980471" data-name="Grupo 980471" transform="translate(8.38 89.404)">
              <path id="Trazado_654670" data-name="Trazado 654670" d="M361.775,236l-20.917-12.076a2.562,2.562,0,0,1-1.069-2.044v-2.366c0-.787.479-1.149,1.069-.808l20.917,12.076a2.561,2.561,0,0,1,1.069,2.043v2.366C362.845,235.982,362.366,236.344,361.775,236Z" transform="translate(-339.789 -218.58)" fill="#b0c0d2"/>
              <path id="Trazado_654671" data-name="Trazado 654671" d="M341.915,223.472a2.56,2.56,0,0,1-1.069-2.043v-2.366a1.516,1.516,0,0,1,.039-.34l-.027-.015c-.59-.341-1.069.021-1.069.808v2.366a2.562,2.562,0,0,0,1.069,2.044L361.775,236a.64.64,0,0,0,1.03-.468Z" transform="translate(-339.789 -218.58)" fill="#06033e" opacity="0.3"/>
              <path id="Trazado_654672" data-name="Trazado 654672" d="M357.487,231.944,344.9,224.676a.9.9,0,0,1-.377-.719h0c0-.277.169-.4.377-.284l12.587,7.267a.9.9,0,0,1,.376.719h0C357.863,231.936,357.7,232.063,357.487,231.944Z" transform="translate(-342.065 -221.006)" fill="#d4ecff"/>
            </g>
            <path id="Trazado_654673" data-name="Trazado 654673" d="M333.367,102.589l2.187,1.263v8.836l-2.187-1.263Z" transform="translate(-328.322 -73.422)" fill="#b0c0d2" opacity="0.5"/>
            <path id="Trazado_654674" data-name="Trazado 654674" d="M333.367,129.508l2.187,1.263v8.836l-2.187-1.263Z" transform="translate(-328.322 -86.361)" fill="#b0c0d2" opacity="0.5"/>
            <path id="Trazado_654675" data-name="Trazado 654675" d="M333.367,156.426l2.187,1.263v8.836l-2.187-1.263Z" transform="translate(-328.322 -99.3)" fill="#b0c0d2" opacity="0.5"/>
            <path id="Trazado_654676" data-name="Trazado 654676" d="M333.367,183.344l2.187,1.263v8.836l-2.187-1.263Z" transform="translate(-328.322 -112.239)" fill="#b0c0d2" opacity="0.5"/>
            <path id="Trazado_654677" data-name="Trazado 654677" d="M333.367,210.262l2.187,1.263v8.836l-2.187-1.263Z" transform="translate(-328.322 -125.177)" fill="#b0c0d2" opacity="0.5"/>
          </g>
          <ellipse id="Elipse_7831" data-name="Elipse 7831" cx="0.362" cy="0.626" rx="0.362" ry="0.626" transform="matrix(0.866, -0.5, 0.5, 0.866, 25.214, 44.658)" fill="#d4ecff"/>
          <path id="Trazado_654678" data-name="Trazado 654678" d="M377.056,134.926c0,.283-.2.4-.443.256a.978.978,0,0,1-.443-.767c0-.283.2-.4.443-.256A.979.979,0,0,1,377.056,134.926Z" transform="translate(-348.896 -88.568)" fill="#ff2c9c"/>
          <path id="Trazado_654679" data-name="Trazado 654679" d="M380.67,137.013c0,.283-.2.4-.442.255a.978.978,0,0,1-.443-.767c0-.283.2-.4.443-.256A.977.977,0,0,1,380.67,137.013Z" transform="translate(-350.634 -89.571)" fill="#d4ecff"/>
          <path id="Trazado_654680" data-name="Trazado 654680" d="M373.441,159.744c0,.283-.2.4-.442.256a.979.979,0,0,1-.443-.767c0-.283.2-.4.443-.256A.98.98,0,0,1,373.441,159.744Z" transform="translate(-347.159 -100.497)" fill="#ff2c9c"/>
          <path id="Trazado_654681" data-name="Trazado 654681" d="M377.056,161.831c0,.283-.2.4-.443.256a.978.978,0,0,1-.443-.767c0-.282.2-.4.443-.256A.979.979,0,0,1,377.056,161.831Z" transform="translate(-348.896 -101.5)" fill="#d4ecff"/>
          <path id="Trazado_654682" data-name="Trazado 654682" d="M380.67,163.918c0,.282-.2.4-.442.256a.979.979,0,0,1-.443-.767c0-.282.2-.4.443-.256A.978.978,0,0,1,380.67,163.918Z" transform="translate(-350.634 -102.503)" fill="#fff"/>
          <path id="Trazado_654683" data-name="Trazado 654683" d="M373.441,186.852c0,.283-.2.4-.442.256a.979.979,0,0,1-.443-.767c0-.282.2-.4.443-.255A.98.98,0,0,1,373.441,186.852Z" transform="translate(-347.159 -113.527)" fill="#fff"/>
          <path id="Trazado_654684" data-name="Trazado 654684" d="M377.056,188.939c0,.282-.2.4-.443.256a.978.978,0,0,1-.443-.767c0-.282.2-.4.443-.256A.979.979,0,0,1,377.056,188.939Z" transform="translate(-348.896 -114.53)" fill="#ff2c9c"/>
          <path id="Trazado_654685" data-name="Trazado 654685" d="M380.67,191.026c0,.282-.2.4-.442.256a.979.979,0,0,1-.443-.767c0-.283.2-.4.443-.256A.978.978,0,0,1,380.67,191.026Z" transform="translate(-350.634 -115.533)" fill="#fff"/>
          <path id="Trazado_654686" data-name="Trazado 654686" d="M373.441,213.565c0,.282-.2.4-.442.256a.979.979,0,0,1-.443-.767c0-.282.2-.4.443-.255A.98.98,0,0,1,373.441,213.565Z" transform="translate(-347.159 -126.367)" fill="#fff"/>
          <path id="Trazado_654687" data-name="Trazado 654687" d="M377.056,215.652c0,.282-.2.4-.443.256a.978.978,0,0,1-.443-.767c0-.282.2-.4.443-.256A.979.979,0,0,1,377.056,215.652Z" transform="translate(-348.896 -127.37)" fill="#d4ecff"/>
          <path id="Trazado_654688" data-name="Trazado 654688" d="M380.67,217.739c0,.282-.2.4-.442.256a.979.979,0,0,1-.443-.767c0-.283.2-.4.443-.256A.978.978,0,0,1,380.67,217.739Z" transform="translate(-350.634 -128.373)" fill="#d4ecff"/>
          <path id="Trazado_654689" data-name="Trazado 654689" d="M373.441,240.642c0,.283-.2.4-.442.256a.978.978,0,0,1-.443-.767c0-.283.2-.4.443-.256A.98.98,0,0,1,373.441,240.642Z" transform="translate(-347.159 -139.382)" fill="#fff"/>
          <path id="Trazado_654690" data-name="Trazado 654690" d="M377.056,242.729c0,.283-.2.4-.443.256a.978.978,0,0,1-.443-.767c0-.283.2-.4.443-.256A.979.979,0,0,1,377.056,242.729Z" transform="translate(-348.896 -140.386)" fill="#ff2c9c"/>
          <path id="Trazado_654691" data-name="Trazado 654691" d="M380.67,244.816c0,.283-.2.4-.442.256a.979.979,0,0,1-.443-.767c0-.282.2-.4.443-.256A.978.978,0,0,1,380.67,244.816Z" transform="translate(-350.634 -141.389)" fill="#d4ecff"/>
          <g id="Grupo_980473" data-name="Grupo 980473" transform="translate(39.642 29.757)">
            <path id="Trazado_654692" data-name="Trazado 654692" d="M399.986,181.442v-62.55l.129-.074,26.141-15.093v62.549l-.129.074Zm.518-62.25v61.353l25.235-14.569V104.622Z" transform="translate(-399.986 -103.725)" fill="#12263f"/>
          </g>
          <g id="Grupo_980476" data-name="Grupo 980476" transform="translate(45.975 47.428)">
            <path id="Trazado_654693" data-name="Trazado 654693" d="M425.327,148.224l-11.721,6.767c-.787.454-1.426-.028-1.426-1.078v-6.5a3.415,3.415,0,0,1,1.426-2.724l11.721-6.767c.788-.454,1.426.028,1.426,1.078v6.5A3.414,3.414,0,0,1,425.327,148.224Z" transform="translate(-412.18 -137.752)" fill="#12263f"/>
            <path id="Trazado_654694" data-name="Trazado 654694" d="M425.709,137.8a1.883,1.883,0,0,1,.106.652v6.5a3.413,3.413,0,0,1-1.426,2.724l-11.721,6.767a1.369,1.369,0,0,1-.284.126.831.831,0,0,0,1.32.426l11.721-6.767a3.414,3.414,0,0,0,1.426-2.724V139C426.85,138.081,426.361,137.6,425.709,137.8Z" transform="translate(-412.278 -137.752)" fill="#b0c0d2"/>
            <g id="Grupo_980475" data-name="Grupo 980475" transform="translate(2.207 3.566)">
              <g id="Grupo_980474" data-name="Grupo 980474" transform="translate(0 2.938)">
                <path id="Trazado_654695" data-name="Trazado 654695" d="M433.01,150.329c.217-.125.392-.023.392.227v1.48a.868.868,0,0,1-.392.68c-.217.125-.393.023-.393-.227v-1.48A.868.868,0,0,1,433.01,150.329Z" transform="translate(-424.21 -150.276)" fill="#fff"/>
                <path id="Trazado_654696" data-name="Trazado 654696" d="M429.772,152.555c.217-.125.393-.024.393.226v1.3a.868.868,0,0,1-.393.68c-.217.125-.392.024-.392-.226v-1.3A.868.868,0,0,1,429.772,152.555Z" transform="translate(-422.654 -151.346)" fill="#d4ecff"/>
                <path id="Trazado_654697" data-name="Trazado 654697" d="M426.534,151.641c.217-.125.393-.023.393.227v2.74a.866.866,0,0,1-.393.679c-.217.125-.392.024-.392-.226v-2.74A.868.868,0,0,1,426.534,151.641Z" transform="translate(-421.098 -150.907)" fill="#ff2c9c"/>
                <path id="Trazado_654698" data-name="Trazado 654698" d="M423.3,150.47c.217-.125.392-.024.392.226v4.32a.868.868,0,0,1-.392.68c-.217.125-.393.023-.393-.227v-4.32A.867.867,0,0,1,423.3,150.47Z" transform="translate(-419.541 -150.344)" fill="#d4ecff"/>
                <path id="Trazado_654699" data-name="Trazado 654699" d="M420.059,153.211c.217-.125.392-.023.392.227V157.3a.868.868,0,0,1-.392.68c-.217.125-.393.024-.393-.226v-3.867A.867.867,0,0,1,420.059,153.211Z" transform="translate(-417.985 -151.661)" fill="#d4ecff"/>
                <path id="Trazado_654700" data-name="Trazado 654700" d="M416.821,158.483c.217-.125.393-.024.393.226v2.1a.866.866,0,0,1-.393.679c-.217.125-.392.024-.392-.226v-2.1A.867.867,0,0,1,416.821,158.483Z" transform="translate(-416.429 -154.195)" fill="#fff"/>
              </g>
              <path id="Trazado_654701" data-name="Trazado 654701" d="M432.63,148.272c0,.246.173.346.386.223a.853.853,0,0,0,.386-.668c0-.246-.173-.345-.386-.223A.854.854,0,0,0,432.63,148.272Z" transform="translate(-424.216 -146.028)" fill="#ff2c9c"/>
              <ellipse id="Elipse_7832" data-name="Elipse 7832" cx="0.546" cy="0.315" rx="0.546" ry="0.315" transform="matrix(0.5, -0.866, 0.866, 0.5, 8.254, 0.945)" fill="#fff"/>
            </g>
          </g>
        </g>
      </g>
    </g>
    <g id="Grupo_980479" data-name="Grupo 980479" transform="translate(1312.612 323.762)">
      <g id="Grupo_980478-2" data-name="Grupo 980478" transform="translate(0 0)">
        <g id="Grupo_980477-2" data-name="Grupo 980477">
          <g id="Grupo_980472-2" data-name="Grupo 980472">
            <g id="Grupo_980464-2" data-name="Grupo 980464">
              <g id="Grupo_980463-2" data-name="Grupo 980463">
                <g id="Grupo_980462-2" data-name="Grupo 980462">
                  <path id="Trazado_654640-2" data-name="Trazado 654640" d="M357.213,98.42s-11.387,1.085-18.244,1.612l18.19,51.8,24.06-13.877.011-.007.043-.025v0a1.34,1.34,0,0,0,.491-1.188V86.1a3.669,3.669,0,0,0-.418-1.616Z" transform="translate(-333.486 -70.862)" fill="url(#radial-gradient)"/>
                  <path id="Trazado_654641-2" data-name="Trazado 654641" d="M371.352,58.82,350.192,46.6a.956.956,0,0,0-.964-.083h0L325.072,60.457l1.138,4.212,6.057,17.25,1.14.658L372.425,60.05A2.982,2.982,0,0,0,371.352,58.82Z" transform="translate(-324.564 -46.426)" fill="url(#linear-gradient-2)"/>
                  <path id="Trazado_654642-2" data-name="Trazado 654642" d="M346.3,152.325l-21.159-12.216a3.567,3.567,0,0,1-1.49-2.847V86.628c0-1.1.667-1.6,1.49-1.126L346.3,97.718a3.567,3.567,0,0,1,1.49,2.847V151.2C347.791,152.3,347.124,152.8,346.3,152.325Z" transform="translate(-323.652 -71.398)" fill="#5793ce"/>
                  <path id="Trazado_654643-2" data-name="Trazado 654643" d="M348.138,97.008,326.979,84.792a.879.879,0,0,0-1.172.086,1.1,1.1,0,0,1,.718.168l21.159,12.216a3.568,3.568,0,0,1,1.49,2.847v50.634a1.546,1.546,0,0,1-.318,1.04c.46-.073.771-.545.771-1.294V99.855A3.567,3.567,0,0,0,348.138,97.008Z" transform="translate(-325.036 -70.943)" fill="#fff"/>
                  <path id="Trazado_654644-2" data-name="Trazado 654644" d="M347.694,153.977,329.2,143.3a3.12,3.12,0,0,1-1.3-2.489V93.784c0-.959.583-1.4,1.3-.985l18.5,10.679a3.12,3.12,0,0,1,1.3,2.489v47.025C349,153.951,348.413,154.392,347.694,153.977Z" transform="translate(-326.376 -76.098)" fill="url(#linear-gradient)"/>
                  <path id="Trazado_654645" data-name="Trazado 654645" d="M347.694,153.977,329.2,143.3a3.12,3.12,0,0,1-1.3-2.489V93.784c0-.959.583-1.4,1.3-.985l18.5,10.679a3.12,3.12,0,0,1,1.3,2.489v47.025C349,153.951,348.413,154.392,347.694,153.977Z" transform="translate(-326.376 -76.098)" fill="url(#linear-gradient)"/>
                  <path id="Trazado_654646-2" data-name="Trazado 654646" d="M347.694,153.977,329.2,143.3a3.12,3.12,0,0,1-1.3-2.489V93.784c0-.959.583-1.4,1.3-.985l18.5,10.679a3.12,3.12,0,0,1,1.3,2.489v47.025C349,153.951,348.413,154.392,347.694,153.977Z" transform="translate(-326.376 -76.098)" fill="#173d7a"/>
                  <path id="Trazado_654647-2" data-name="Trazado 654647" d="M348.3,153.622l-18.5-10.68a3.119,3.119,0,0,1-1.3-2.488V93.429a1.5,1.5,0,0,1,.187-.785c-.465,0-.791.423-.791,1.141V140.81a3.12,3.12,0,0,0,1.3,2.489l18.5,10.679a.754.754,0,0,0,1.115-.2A1.049,1.049,0,0,1,348.3,153.622Z" transform="translate(-326.376 -76.099)" fill="#396caa"/>
                </g>
              </g>
            </g>
            <g id="Grupo_980466-2" data-name="Grupo 980466" transform="translate(3.478 18.593)">
              <g id="Grupo_980465-2" data-name="Grupo 980465" transform="translate(0)">
                <path id="Trazado_654648-2" data-name="Trazado 654648" d="M351.207,196.547l-6.875-3.969-10.965,6.331,19.143,11.052V199.036A3.12,3.12,0,0,0,351.207,196.547Z" transform="translate(-333.367 -158.851)" fill="#173d7a"/>
                <path id="Trazado_654649-2" data-name="Trazado 654649" d="M351.207,169.629l-6.875-3.969-10.965,6.331,19.143,11.052V172.118A3.12,3.12,0,0,0,351.207,169.629Z" transform="translate(-333.367 -141.569)" fill="#173d7a"/>
                <path id="Trazado_654650-2" data-name="Trazado 654650" d="M351.207,142.711l-6.875-3.97-10.965,6.331,19.143,11.052V145.2A3.119,3.119,0,0,0,351.207,142.711Z" transform="translate(-333.367 -124.287)" fill="#173d7a"/>
                <path id="Trazado_654651-2" data-name="Trazado 654651" d="M351.207,115.792l-6.875-3.969-10.965,6.331,19.143,11.052V118.281A3.12,3.12,0,0,0,351.207,115.792Z" transform="translate(-333.367 -107.005)" fill="#173d7a"/>
                <path id="Trazado_654652-2" data-name="Trazado 654652" d="M351.207,107.151l-15.221-8.787-2.62,1.512,19.143,11.052V109.64A3.12,3.12,0,0,0,351.207,107.151Z" transform="translate(-333.367 -98.364)" fill="#173d7a"/>
              </g>
              <path id="Trazado_654653-2" data-name="Trazado 654653" d="M352.51,113.642l-19.143-11.052v6.091l19.143,11.052Z" transform="translate(-333.367 -101.077)" fill="#5793ce"/>
              <path id="Trazado_654654-2" data-name="Trazado 654654" d="M352.51,140.56l-19.143-11.052V135.6L352.51,146.65Z" transform="translate(-333.367 -118.359)" fill="#5793ce"/>
              <path id="Trazado_654655-2" data-name="Trazado 654655" d="M352.51,167.478l-19.143-11.052v6.091l19.143,11.052Z" transform="translate(-333.367 -135.641)" fill="#5793ce"/>
              <path id="Trazado_654656-2" data-name="Trazado 654656" d="M352.51,194.4l-19.143-11.052v6.091l19.143,11.052Z" transform="translate(-333.367 -152.923)" fill="#5793ce"/>
              <path id="Trazado_654657-2" data-name="Trazado 654657" d="M352.51,221.314l-19.143-11.052v6.091L352.51,227.4Z" transform="translate(-333.367 -170.205)" fill="#5793ce"/>
            </g>
            <g id="Grupo_980467-2" data-name="Grupo 980467" transform="translate(5.777 23.068)">
              <path id="Trazado_654658-2" data-name="Trazado 654658" d="M354.944,122.875l-14.418-8.325a1.765,1.765,0,0,1-.737-1.408v-1.631c0-.543.33-.792.737-.557l14.418,8.324a1.766,1.766,0,0,1,.737,1.409v1.631C355.681,122.86,355.351,123.11,354.944,122.875Z" transform="translate(-339.789 -110.865)" fill="#173d7a"/>
              <path id="Trazado_654659-2" data-name="Trazado 654659" d="M341.255,114.238a1.766,1.766,0,0,1-.737-1.408V111.2a1.043,1.043,0,0,1,.027-.234l-.019-.011c-.407-.235-.737.014-.737.557v1.631a1.765,1.765,0,0,0,.737,1.408l14.418,8.324a.441.441,0,0,0,.71-.323Z" transform="translate(-339.789 -110.865)" fill="#06033e" opacity="0.3"/>
              <path id="Trazado_654660-2" data-name="Trazado 654660" d="M353.46,121.645l-8.676-5.009a.621.621,0,0,1-.26-.5h0c0-.191.116-.279.26-.2l8.676,5.01a.621.621,0,0,1,.259.5h0C353.719,121.64,353.6,121.728,353.46,121.645Z" transform="translate(-342.829 -114.106)" fill="#fff"/>
            </g>
            <g id="Grupo_980468-2" data-name="Grupo 980468" transform="translate(5.777 32.645)">
              <path id="Trazado_654661-2" data-name="Trazado 654661" d="M354.944,149.627,340.526,141.3a1.765,1.765,0,0,1-.737-1.408v-1.631c0-.543.33-.792.737-.557l14.418,8.324a1.766,1.766,0,0,1,.737,1.409v1.631C355.681,149.612,355.351,149.862,354.944,149.627Z" transform="translate(-339.789 -137.617)" fill="#173d7a"/>
              <path id="Trazado_654662-2" data-name="Trazado 654662" d="M341.255,140.99a1.766,1.766,0,0,1-.737-1.408v-1.631a1.044,1.044,0,0,1,.027-.234l-.019-.011c-.407-.235-.737.015-.737.557v1.631a1.765,1.765,0,0,0,.737,1.408l14.418,8.325a.442.442,0,0,0,.71-.323Z" transform="translate(-339.789 -137.617)" fill="#06033e" opacity="0.3"/>
              <path id="Trazado_654663-2" data-name="Trazado 654663" d="M353.46,148.4l-8.676-5.009a.622.622,0,0,1-.26-.5h0c0-.191.116-.279.26-.2l8.676,5.01a.621.621,0,0,1,.259.5h0C353.719,148.392,353.6,148.48,353.46,148.4Z" transform="translate(-342.829 -140.858)" fill="#fff"/>
            </g>
            <g id="Grupo_980469-2" data-name="Grupo 980469" transform="translate(5.777 42.311)">
              <path id="Trazado_654664-2" data-name="Trazado 654664" d="M354.944,176.628,340.526,168.3a1.766,1.766,0,0,1-.737-1.409v-1.631c0-.543.33-.792.737-.557l14.418,8.324a1.765,1.765,0,0,1,.737,1.408v1.631C355.681,176.614,355.351,176.863,354.944,176.628Z" transform="translate(-339.789 -164.619)" fill="#173d7a"/>
              <path id="Trazado_654665-2" data-name="Trazado 654665" d="M341.255,167.991a1.765,1.765,0,0,1-.737-1.408v-1.631a1.044,1.044,0,0,1,.027-.234l-.019-.01c-.407-.235-.737.014-.737.557V166.9a1.766,1.766,0,0,0,.737,1.409l14.418,8.324a.442.442,0,0,0,.71-.323Z" transform="translate(-339.789 -164.619)" fill="#06033e" opacity="0.3"/>
              <path id="Trazado_654666-2" data-name="Trazado 654666" d="M353.46,175.4l-8.676-5.01a.621.621,0,0,1-.26-.5h0c0-.191.116-.278.26-.2l8.676,5.009a.621.621,0,0,1,.259.5h0C353.719,175.394,353.6,175.482,353.46,175.4Z" transform="translate(-342.829 -167.86)" fill="#d4ecff"/>
            </g>
            <g id="Grupo_980470-2" data-name="Grupo 980470" transform="translate(5.777 52.066)">
              <path id="Trazado_654667-2" data-name="Trazado 654667" d="M354.944,203.879l-14.418-8.324a1.765,1.765,0,0,1-.737-1.408v-1.631c0-.543.33-.792.737-.557l14.418,8.324a1.766,1.766,0,0,1,.737,1.409v1.631C355.681,203.864,355.351,204.114,354.944,203.879Z" transform="translate(-339.789 -191.869)" fill="#173d7a"/>
              <path id="Trazado_654668-2" data-name="Trazado 654668" d="M341.255,195.242a1.766,1.766,0,0,1-.737-1.408V192.2a1.043,1.043,0,0,1,.027-.234l-.019-.011c-.407-.235-.737.014-.737.557v1.631a1.765,1.765,0,0,0,.737,1.408l14.418,8.324a.441.441,0,0,0,.71-.323Z" transform="translate(-339.789 -191.869)" fill="#06033e" opacity="0.3"/>
              <path id="Trazado_654669-2" data-name="Trazado 654669" d="M353.46,202.649l-8.676-5.009a.621.621,0,0,1-.26-.5h0c0-.191.116-.279.26-.2l8.676,5.01a.621.621,0,0,1,.259.5h0C353.719,202.644,353.6,202.732,353.46,202.649Z" transform="translate(-342.829 -195.11)" fill="#ff2c9c"/>
            </g>
            <g id="Grupo_980471-2" data-name="Grupo 980471" transform="translate(5.777 61.627)">
              <path id="Trazado_654670-2" data-name="Trazado 654670" d="M354.944,230.589l-14.418-8.324a1.766,1.766,0,0,1-.737-1.409v-1.631c0-.543.33-.792.737-.557l14.418,8.324a1.765,1.765,0,0,1,.737,1.408v1.631C355.681,230.575,355.351,230.824,354.944,230.589Z" transform="translate(-339.789 -218.58)" fill="#173d7a"/>
              <path id="Trazado_654671-2" data-name="Trazado 654671" d="M341.255,221.952a1.765,1.765,0,0,1-.737-1.408v-1.631a1.044,1.044,0,0,1,.027-.234l-.019-.01c-.407-.235-.737.014-.737.557v1.631a1.766,1.766,0,0,0,.737,1.409l14.418,8.324a.442.442,0,0,0,.71-.323Z" transform="translate(-339.789 -218.58)" fill="#06033e" opacity="0.3"/>
              <path id="Trazado_654672-2" data-name="Trazado 654672" d="M353.46,229.36l-8.676-5.01a.621.621,0,0,1-.26-.5h0c0-.191.116-.279.26-.2l8.676,5.009a.621.621,0,0,1,.259.5h0C353.719,229.355,353.6,229.443,353.46,229.36Z" transform="translate(-342.829 -221.821)" fill="#d4ecff"/>
            </g>
            <path id="Trazado_654673-2" data-name="Trazado 654673" d="M333.367,102.589l1.507.87v6.091l-1.507-.87Z" transform="translate(-329.889 -82.484)" fill="#173d7a" opacity="0.5"/>
            <path id="Trazado_654674-2" data-name="Trazado 654674" d="M333.367,129.508l1.507.87v6.091l-1.507-.87Z" transform="translate(-329.889 -99.766)" fill="#173d7a" opacity="0.5"/>
            <path id="Trazado_654675-2" data-name="Trazado 654675" d="M333.367,156.426l1.507.87v6.091l-1.507-.87Z" transform="translate(-329.889 -117.048)" fill="#173d7a" opacity="0.5"/>
            <path id="Trazado_654676-2" data-name="Trazado 654676" d="M333.367,183.344l1.507.87V190.3l-1.507-.87Z" transform="translate(-329.889 -134.33)" fill="#173d7a" opacity="0.5"/>
            <path id="Trazado_654677-2" data-name="Trazado 654677" d="M333.367,210.262l1.507.87v6.091l-1.507-.87Z" transform="translate(-329.889 -151.612)" fill="#173d7a" opacity="0.5"/>
          </g>
          <ellipse id="Elipse_7831-2" data-name="Elipse 7831" cx="0.249" cy="0.432" rx="0.249" ry="0.432" transform="matrix(0.866, -0.5, 0.5, 0.866, 17.38, 30.783)" fill="#d4ecff"/>
          <path id="Trazado_654678-2" data-name="Trazado 654678" d="M376.781,134.67c0,.195-.137.273-.305.176a.674.674,0,0,1-.305-.529c0-.195.136-.273.305-.176A.675.675,0,0,1,376.781,134.67Z" transform="translate(-357.37 -102.714)" fill="#ff2c9c"/>
          <path id="Trazado_654679-2" data-name="Trazado 654679" d="M380.4,136.757c0,.195-.136.273-.3.176a.674.674,0,0,1-.305-.528c0-.195.137-.273.305-.176A.674.674,0,0,1,380.4,136.757Z" transform="translate(-359.691 -104.054)" fill="#d4ecff"/>
          <path id="Trazado_654680-2" data-name="Trazado 654680" d="M373.166,159.487c0,.195-.137.273-.3.176a.675.675,0,0,1-.305-.528c0-.195.137-.274.305-.176A.675.675,0,0,1,373.166,159.487Z" transform="translate(-355.049 -118.647)" fill="#ff2c9c"/>
          <path id="Trazado_654681-2" data-name="Trazado 654681" d="M376.781,161.574c0,.195-.137.273-.305.176a.674.674,0,0,1-.305-.529c0-.194.136-.273.305-.176A.675.675,0,0,1,376.781,161.574Z" transform="translate(-357.37 -119.987)" fill="#d4ecff"/>
          <path id="Trazado_654682-2" data-name="Trazado 654682" d="M380.4,163.661c0,.194-.136.273-.3.176a.675.675,0,0,1-.305-.529c0-.194.137-.273.305-.176A.674.674,0,0,1,380.4,163.661Z" transform="translate(-359.691 -121.327)" fill="#fff"/>
          <path id="Trazado_654683-2" data-name="Trazado 654683" d="M373.166,186.6c0,.195-.137.274-.3.176a.675.675,0,0,1-.305-.529c0-.194.137-.273.305-.176A.675.675,0,0,1,373.166,186.6Z" transform="translate(-355.049 -136.051)" fill="#fff"/>
          <path id="Trazado_654684-2" data-name="Trazado 654684" d="M376.781,188.682c0,.194-.137.273-.305.176a.674.674,0,0,1-.305-.529c0-.194.136-.274.305-.176A.675.675,0,0,1,376.781,188.682Z" transform="translate(-357.37 -137.391)" fill="#ff2c9c"/>
          <path id="Trazado_654685-2" data-name="Trazado 654685" d="M380.4,190.769c0,.194-.136.273-.3.176a.675.675,0,0,1-.305-.529c0-.195.137-.273.305-.176A.674.674,0,0,1,380.4,190.769Z" transform="translate(-359.691 -138.731)" fill="#fff"/>
          <path id="Trazado_654686-2" data-name="Trazado 654686" d="M373.166,213.308c0,.194-.137.274-.3.176a.675.675,0,0,1-.305-.529c0-.194.137-.273.305-.176A.675.675,0,0,1,373.166,213.308Z" transform="translate(-355.049 -153.201)" fill="#fff"/>
          <path id="Trazado_654687-2" data-name="Trazado 654687" d="M376.781,215.395c0,.194-.137.273-.305.176a.674.674,0,0,1-.305-.529c0-.194.136-.273.305-.176A.675.675,0,0,1,376.781,215.395Z" transform="translate(-357.37 -154.541)" fill="#d4ecff"/>
          <path id="Trazado_654688-2" data-name="Trazado 654688" d="M380.4,217.482c0,.194-.136.273-.3.176a.675.675,0,0,1-.305-.529c0-.195.137-.273.305-.176A.674.674,0,0,1,380.4,217.482Z" transform="translate(-359.691 -155.881)" fill="#d4ecff"/>
          <path id="Trazado_654689-2" data-name="Trazado 654689" d="M373.166,240.385c0,.195-.137.273-.3.176a.674.674,0,0,1-.305-.528c0-.195.137-.273.305-.176A.675.675,0,0,1,373.166,240.385Z" transform="translate(-355.049 -170.586)" fill="#fff"/>
          <path id="Trazado_654690-2" data-name="Trazado 654690" d="M376.781,242.472c0,.195-.137.273-.305.176a.674.674,0,0,1-.305-.528c0-.195.136-.273.305-.176A.675.675,0,0,1,376.781,242.472Z" transform="translate(-357.37 -171.926)" fill="#ff2c9c"/>
          <path id="Trazado_654691-2" data-name="Trazado 654691" d="M380.4,244.559c0,.195-.136.273-.3.176a.675.675,0,0,1-.305-.529c0-.194.137-.273.305-.176A.674.674,0,0,1,380.4,244.559Z" transform="translate(-359.691 -173.265)" fill="#d4ecff"/>
          <g id="Grupo_980473-2" data-name="Grupo 980473" transform="translate(27.326 20.512)">
            <path id="Trazado_654692-2" data-name="Trazado 654692" d="M399.986,157.3V114.18l.089-.051,18.019-10.4v43.116l-.089.051Zm.357-42.91v42.291l17.395-10.043V104.343Z" transform="translate(-399.986 -103.725)" fill="#173d7a"/>
          </g>
          <g id="Grupo_980476-2" data-name="Grupo 980476" transform="translate(31.691 32.693)">
            <path id="Trazado_654693-2" data-name="Trazado 654693" d="M421.242,144.97l-8.08,4.665c-.543.313-.983-.019-.983-.743v-4.48a2.354,2.354,0,0,1,.983-1.878l8.08-4.665c.543-.313.983.019.983.743v4.48A2.353,2.353,0,0,1,421.242,144.97Z" transform="translate(-412.18 -137.752)" fill="#173d7a"/>
            <path id="Trazado_654694-2" data-name="Trazado 654694" d="M421.569,137.784a1.3,1.3,0,0,1,.073.449v4.48a2.353,2.353,0,0,1-.983,1.878l-8.08,4.665a.944.944,0,0,1-.2.087.573.573,0,0,0,.91.294l8.08-4.665a2.353,2.353,0,0,0,.983-1.878v-4.48C422.356,137.979,422.018,137.645,421.569,137.784Z" transform="translate(-412.311 -137.752)" fill="#5793ce"/>
            <g id="Grupo_980475-2" data-name="Grupo 980475" transform="translate(1.521 2.458)">
              <g id="Grupo_980474-2" data-name="Grupo 980474" transform="translate(0 2.025)">
                <path id="Trazado_654695-2" data-name="Trazado 654695" d="M432.888,150.313c.149-.086.27-.016.27.156v1.02a.6.6,0,0,1-.27.469c-.149.086-.271.016-.271-.156v-1.02A.6.6,0,0,1,432.888,150.313Z" transform="translate(-426.822 -150.276)" fill="#fff"/>
                <path id="Trazado_654696-2" data-name="Trazado 654696" d="M429.65,152.539c.149-.086.271-.016.271.156v.893a.6.6,0,0,1-.271.469c-.149.086-.27.016-.27-.156v-.893A.6.6,0,0,1,429.65,152.539Z" transform="translate(-424.744 -151.705)" fill="#d4ecff"/>
                <path id="Trazado_654697-2" data-name="Trazado 654697" d="M426.412,151.625c.15-.086.271-.016.271.156v1.889a.6.6,0,0,1-.271.468c-.149.086-.27.016-.27-.156v-1.889A.6.6,0,0,1,426.412,151.625Z" transform="translate(-422.665 -151.118)" fill="#ff2c9c"/>
                <path id="Trazado_654698-2" data-name="Trazado 654698" d="M423.175,150.454c.149-.086.27-.016.27.156v2.978a.6.6,0,0,1-.27.469c-.15.086-.271.016-.271-.156v-2.978A.6.6,0,0,1,423.175,150.454Z" transform="translate(-420.586 -150.366)" fill="#d4ecff"/>
                <path id="Trazado_654699-2" data-name="Trazado 654699" d="M419.937,153.195c.149-.086.27-.016.27.156v2.665a.6.6,0,0,1-.27.469c-.15.086-.271.016-.271-.156v-2.666A.6.6,0,0,1,419.937,153.195Z" transform="translate(-418.507 -152.126)" fill="#d4ecff"/>
                <path id="Trazado_654700-2" data-name="Trazado 654700" d="M416.7,158.467c.15-.086.271-.016.271.156v1.448a.6.6,0,0,1-.271.468c-.149.086-.27.016-.27-.156v-1.448A.6.6,0,0,1,416.7,158.467Z" transform="translate(-416.429 -155.511)" fill="#fff"/>
              </g>
              <path id="Trazado_654701-2" data-name="Trazado 654701" d="M432.63,148.048c0,.17.119.238.266.154a.588.588,0,0,0,.266-.461c0-.169-.119-.238-.266-.154A.589.589,0,0,0,432.63,148.048Z" transform="translate(-426.83 -146.501)" fill="#ff2c9c"/>
              <ellipse id="Elipse_7832-2" data-name="Elipse 7832" cx="0.376" cy="0.217" rx="0.376" ry="0.217" transform="matrix(0.5, -0.866, 0.866, 0.5, 5.689, 0.651)" fill="#fff"/>
            </g>
          </g>
        </g>
      </g>
    </g>
  </g>
</svg>
