<svg xmlns="http://www.w3.org/2000/svg" xmlns:xlink="http://www.w3.org/1999/xlink" width="130.95" height="99.148" viewBox="0 0 130.95 99.148">
  <defs>
    <clipPath id="clip-path">
      <rect id="Rectángulo_334226" data-name="Rectángulo 334226" width="130.95" height="99.148" fill="#fff" opacity="0.39"/>
    </clipPath>
  </defs>
  <g id="Enmascarar_grupo_924787" data-name="Enmascarar grupo 924787" clip-path="url(#clip-path)">
    <g id="megaphone" transform="translate(61.303 -24.319) rotate(45)">
      <path id="Trazado_136377" data-name="Trazado 136377" d="M97.9,57.962a6.6,6.6,0,0,1-11.252,4.659l-.857-.855A77.2,77.2,0,0,0,40.456,80.124,43.753,43.753,0,0,0,57.74,98.107a5.34,5.34,0,1,1-5.412,9.2L27.859,92.3l-3.711,3.709a6.452,6.452,0,0,1-9.13,0L1.891,82.883a6.46,6.46,0,0,1,0-9.132L13.877,61.767A77.783,77.783,0,0,0,36.134,12.112,7.387,7.387,0,0,1,33.348,6.6,6.6,6.6,0,0,1,44.6,1.936L95.965,53.3A6.58,6.58,0,0,1,97.9,57.962Z" transform="translate(1.86 1.855)" fill="#cbe3fa"/>
      <path id="Trazado_136378" data-name="Trazado 136378" d="M62.617,53.3A6.591,6.591,0,0,1,53.3,62.616L1.929,11.252a6.592,6.592,0,1,1,9.323-9.321Z" transform="translate(35.208 1.86)" fill="#eef7ff"/>
      <path id="Trazado_136379" data-name="Trazado 136379" d="M14.5,6.193c-2.432,2.2-3.924,3.833-8.26,8.14A1.864,1.864,0,0,1,3.95,14.6L0,12.175C6.55,5.721,8.3,3.612,12.6,0c.577,1.114,1.3,2.4,2.2,3.79A1.866,1.866,0,0,1,14.5,6.193Z" transform="translate(29.719 81.979)" fill="#b5d5f5"/>
      <path id="Trazado_136380" data-name="Trazado 136380" d="M56.884,59.073A2.468,2.468,0,1,1,53.3,62.457L2.786,11.948A7.379,7.379,0,0,1,0,6.433,6.584,6.584,0,0,1,4.741.105a2.462,2.462,0,0,1,2.928,3.4,6.6,6.6,0,0,0,1.249,7.583C38.8,40.971,51.423,53.637,56.884,59.073Z" transform="translate(35.208 2.019)" fill="#cbe3fa"/>
      <path id="Trazado_136381" data-name="Trazado 136381" d="M10.258,61.638a6.506,6.506,0,0,0,0,9.132c14.1,14.109,13.241,13.251,13.5,13.468A6.453,6.453,0,0,1,15,83.9L1.871,70.77a6.506,6.506,0,0,1,0-9.132C10.435,52.711,33.933,35.521,36.115,0L41.6,5.482a5.609,5.609,0,0,1,1.525,5.073c-5.731,28.6-24.613,42.482-32.864,51.083Z" transform="translate(1.879 13.967)" fill="#eef7ff"/>
      <path id="Trazado_136382" data-name="Trazado 136382" d="M36.134,22.258,24.148,34.241a6.452,6.452,0,0,1-9.13,0L1.891,21.116a6.46,6.46,0,0,1,0-9.132L13.877,0Z" transform="translate(1.86 63.621)" fill="#eef7ff"/>
      <path id="Trazado_136383" data-name="Trazado 136383" d="M19.283,30.12c2.714,2.709-1.274,7.114-4.265,4.121C3.345,22.566,29.292,48.528,1.891,21.116a6.459,6.459,0,0,1,0-9.132L13.877,0,18.07,4.193a17.479,17.479,0,0,0,.005,24.721Z" transform="translate(1.86 63.621)" fill="#cbe3fa"/>
      <path id="Trazado_136384" data-name="Trazado 136384" d="M99.142,53.837,47.778,2.472a8.459,8.459,0,1,0-11.7,12.215A76.13,76.13,0,0,1,14.4,62.32L2.433,74.288a8.33,8.33,0,0,0,0,11.767L15.56,99.181a8.33,8.33,0,0,0,11.767,0C40.189,86.319,39.583,86.863,41.8,84.9A45.536,45.536,0,0,0,58.68,101.582a3.477,3.477,0,1,1-3.517,6L39.4,97.9a1.864,1.864,0,1,0-1.949,3.177l15.767,9.674A7.2,7.2,0,1,0,60.52,98.34a41.823,41.823,0,0,1-15.834-15.9A76.507,76.507,0,0,1,74.743,67.435a1.864,1.864,0,1,0-.876-3.623A83.932,83.932,0,0,0,38.032,83.28L23.812,69.06A1.864,1.864,0,0,0,21.177,71.7L35.359,85.878,24.691,96.545a4.591,4.591,0,0,1-6.5,0L16.755,95.1l3.819-3.819a1.864,1.864,0,0,0-2.636-2.636l-3.819,3.819L9.145,87.5l3.819-3.819a1.864,1.864,0,0,0-2.636-2.636L6.51,84.86,5.069,83.419a4.6,4.6,0,0,1,0-6.5c.2-.2,11.9-11.9,11.995-12A80.088,80.088,0,0,0,39.5,18.111L87.185,65.794A8.455,8.455,0,1,0,99.142,53.837Zm-2.636,9.322a4.733,4.733,0,0,1-6.686,0L38.456,11.794a4.728,4.728,0,0,1,6.686-6.686L96.507,56.473A4.734,4.734,0,0,1,96.507,63.159ZM89.925,8.864l2.682-2.682a1.864,1.864,0,1,1,2.636,2.636c-2.77,2.77-2.978,3.228-4,3.228A1.866,1.866,0,0,1,89.925,8.864Zm-5.689,5.689.325-.325A1.864,1.864,0,1,1,87.2,16.863a2.137,2.137,0,0,1-1.643.871,1.866,1.866,0,0,1-1.318-3.181ZM71.309,10.014V4.888a1.864,1.864,0,0,1,3.727,0v5.125a1.864,1.864,0,0,1-3.727,0ZM91.344,26.321H96.7a1.864,1.864,0,0,1,0,3.727H91.344a1.864,1.864,0,1,1,0-3.727Z" transform="translate(0 0)"/>
    </g>
  </g>
</svg>
