<svg xmlns="http://www.w3.org/2000/svg" width="85.663" height="85.663" viewBox="0 0 85.663 85.663">
  <g id="Grupo_1044064" data-name="Grupo 1044064" transform="translate(-600 -531)">
    <path id="Trazado_621807" data-name="Trazado 621807" d="M42.832,0A42.832,42.832,0,1,1,0,42.832,42.832,42.832,0,0,1,42.832,0Z" transform="translate(600 531)" fill="#ef8b53"/>
    <g id="Grupo_952192" data-name="Grupo 952192" transform="translate(-1402.455 -413.879)">
      <path id="Trazado_629398" data-name="Trazado 629398" d="M2059.932,1022.523c-.36.911-.987,1.226-1.632.821a1.137,1.137,0,0,1-.5-1.082c.01-1.56-.011-3.122.013-4.682.007-.405-.109-.588-.515-.643a62.2,62.2,0,0,0-6.421-.152c-.234-.008-.318.143-.433.286a2.226,2.226,0,0,1-1.835.837q-3.25,0-6.5,0a2.1,2.1,0,0,1-1.767-.823.7.7,0,0,0-.641-.3c-2.073.009-4.147.02-6.221-.006-.459-.006-.536.156-.525.563q.039,1.431,0,2.865a3.375,3.375,0,0,1-2.184,3.119,3.242,3.242,0,0,1-3.641-1.056.447.447,0,0,0-.618-.172,3.1,3.1,0,0,1-3.827-.941.488.488,0,0,0-.681-.175,3.11,3.11,0,0,1-3.822-.96c-.191-.218-.3-.3-.618-.177A3.231,3.231,0,0,1,2013,1017.3c-.089-.464-.257-.545-.657-.522-.488.027-.978.011-1.468.005-.756-.01-1.2-.327-1.294-.9s.246-.985.984-1.213c.605.005,1.213-.013,1.816.023.412.025.584-.071.557-.527-.042-.7.015-1.4-.016-2.1a15.139,15.139,0,0,1,1.212-6.674c.435-1.02.781-2.078,1.182-3.159h-4.746c-.624-.171-1.059-.508-.986-1.225.062-.6.521-.9,1.353-.9,1.514,0,3.029-.021,4.543.01.452.009.611-.141.668-.569a63.34,63.34,0,0,0,.147-6.35c.007-.229-.131-.319-.278-.436a2.156,2.156,0,0,1-.845-1.759q-.005-3.319,0-6.638a2.016,2.016,0,0,1,.81-1.7.748.748,0,0,0,.311-.705c-.007-2.05-.016-4.1.007-6.149,0-.434-.117-.555-.548-.542-.978.029-1.958.028-2.935-.007a3.37,3.37,0,0,1-3.087-2.228,3.243,3.243,0,0,1,1.062-3.58.485.485,0,0,0,.17-.679,3.074,3.074,0,0,1,.943-3.761.532.532,0,0,0,.171-.742,3.1,3.1,0,0,1,.908-3.716c.24-.208.393-.331.235-.724a3.2,3.2,0,0,1,2.46-4.492c.548-.108.656-.315.618-.8-.037-.463-.014-.931-.006-1.4.011-.74.352-1.215.942-1.25a1.031,1.031,0,0,1,1.161.956c0,.116,0,.232.006.348.058.662-.3,1.569.156,1.922.427.33,1.293.135,1.962.1a16.454,16.454,0,0,1,7.475,1.331c.908.4,1.857.7,2.858,1.072v-4.745c.155-.64.508-1.055,1.22-.983.6.061.889.522.891,1.357,0,1.514.022,3.029-.011,4.542-.01.459.153.607.575.663,2.113.281,4.235.073,6.351.145.23.008.319-.132.436-.278a2.154,2.154,0,0,1,1.761-.842q3.32-.006,6.64,0a2.01,2.01,0,0,1,1.7.813.744.744,0,0,0,.708.306c2.05-.006,4.1-.016,6.151.007.433,0,.558-.114.542-.546-.034-.907-.021-1.817-.007-2.725a3.41,3.41,0,0,1,2.173-3.27,3.262,3.262,0,0,1,3.69,1.093.41.41,0,0,0,.569.134,3.12,3.12,0,0,1,3.877.976.447.447,0,0,0,.629.138,3.132,3.132,0,0,1,3.831.942c.177.2.272.332.612.2a3.224,3.224,0,0,1,4.579,2.509c.1.5.282.576.711.545.487-.035.978,0,1.467-.009a1.092,1.092,0,0,1,1.238.886c.124.561-.224.988-.955,1.231-.186-.006-.373-.027-.557-.016-.6.037-1.387-.263-1.731.127-.293.332-.127,1.107-.093,1.682a17.384,17.384,0,0,1-1.42,8.092c-.355.819-.634,1.671-.963,2.549h4.757c.62.184,1.05.531.964,1.245-.072.6-.529.878-1.373.881-1.516,0-3.031.01-4.547-.005-.349,0-.569.05-.627.452a59.478,59.478,0,0,0-.163,6.493c-.008.239.166.309.3.423a2.188,2.188,0,0,1,.819,1.774q0,3.287,0,6.574a1.963,1.963,0,0,1-.688,1.616,1.1,1.1,0,0,0-.439,1c.018,1.935.035,3.87-.008,5.8-.013.606.177.737.741.708.906-.047,1.819-.029,2.727,0a3.371,3.371,0,0,1,3.1,2.214,3.25,3.25,0,0,1-1.047,3.588.49.49,0,0,0-.184.677,3.071,3.071,0,0,1-.933,3.766.534.534,0,0,0-.178.742,3.093,3.093,0,0,1-.905,3.72c-.239.208-.394.33-.237.725a3.221,3.221,0,0,1-2.531,4.518c-.428.084-.58.2-.546.64.04.51,0,1.025.011,1.538a1.088,1.088,0,0,1-.889,1.234c-.563.123-.99-.229-1.227-.962.006-.186.025-.372.014-.557-.034-.6.26-1.387-.13-1.728-.334-.292-1.108-.126-1.684-.091a17.327,17.327,0,0,1-8.087-1.42c-.818-.356-1.669-.633-2.548-.963Zm-38.069-40.4q4.26.012,8.52.025c.293,0,.489-.043.485-.409-.012-1.3,0-2.592,0-3.879a.6.6,0,0,0-.5.159,11.283,11.283,0,0,1-4.638,1.628c-1.268.137-2.555.1-3.833.147-1.163-.1-2.373.093-3.507-.723,0,.951.019,1.735-.008,2.518-.014.426.134.57.558.558C2019.912,982.123,2020.888,982.133,2021.862,982.127Zm26.926,31.3q.02-5.956.046-11.912c0-.35-.143-.429-.457-.425-1.37.021-2.74.026-4.11.036-.6-.011-1.211-.006-1.814-.041-.393-.022-.523.108-.522.511q.019,6.852,0,13.7c0,.473.2.522.586.517,1.4-.018,2.8.01,4.2-.014.687-.012,1.652.316,1.993-.141C2049.109,1015.122,2048.854,1014.189,2048.789,1013.426Zm-.021-53.714c0-.121-.073-.126-.164-.1l-4.329,0c-.582-.009-1.165.008-1.744-.036-.454-.034-.6.107-.6.574q.024,6.779,0,13.558c0,.512.174.616.641.607,1.421-.027,2.842-.01,4.264-.01,2.139,0,2.139,0,1.991-2.161a.538.538,0,0,0-.045-.131c.014-.253.041-.507.041-.76q0-5.36,0-10.719C2048.82,960.262,2048.786,959.987,2048.768,959.712Zm-16.811,26.867c.009-.557-.01-1.117.037-1.671.045-.519-.129-.677-.658-.672-2.744.025-5.489.012-8.233.012-1.745,0-3.489.009-5.233-.006-.432,0-.615.1-.608.586.027,1.93.02,3.86,0,5.79,0,.387.114.553.513.535.626-.027,1.254-.026,1.881-.036a1.132,1.132,0,0,1,.99,1.047c-.2.893-.471,1.11-1.553,1.086-.529-.011-.758.115-.715.691.05.671-.023,1.351.018,2.024a17.013,17.013,0,0,1-1.338,7.689,27.422,27.422,0,0,0-1.742,4.923c-.569,2.737-.221,5.519-.26,8.281a1.173,1.173,0,0,0,1.221,1.182,1.261,1.261,0,0,0,1.135-1.345c.016-.814.019-1.629.027-2.443a1.1,1.1,0,0,1,1.329-.639c.639.2.765.726.75,1.341-.024.978-.031,1.958.006,2.935a1.188,1.188,0,1,0,2.365-.055c.012-.676-.01-1.352.008-2.027a1.03,1.03,0,0,1,.948-1.107,1.02,1.02,0,0,1,1.144,1.1c.019,1.048-.019,2.1.018,3.145a1.243,1.243,0,0,0,1.23,1.336c.7-.03,1.125-.545,1.136-1.4.008-.606-.007-1.212,0-1.817.015-.8.433-1.266,1.1-1.248.623.017.995.473,1,1.253.008,1-.018,2,.009,3.005.025.956.795,1.566,1.562,1.259a1.29,1.29,0,0,0,.814-1.336c0-1.7,0-3.4,0-5.1q0-2.831,0-5.661a1.111,1.111,0,0,1,.806-1.235c.718-.2,1.285.3,1.292,1.131.014,1.654.027,3.309-.007,4.962-.012.6.2.655.7.5a2.238,2.238,0,0,0,1.683-2.148c.025-1.071-.008-2.144.013-3.215a9.809,9.809,0,0,0-1.843-6.039,13.666,13.666,0,0,1-2.67-7.657c.007-.464-.022-.931.03-1.39.078-.677-.117-.925-.858-.9-1.854.06-3.712.024-5.568.018-.909,0-1.161-.2-1.441-1.087.29-.874.506-1.044,1.475-1.048,2.305-.01,4.61-.012,6.914,0,.432,0,.625-.087.611-.571C2031.957,989.232,2031.966,987.906,2031.956,986.58Zm29.112-2.271c-.556-.017-1.114-.009-1.668-.057-.483-.042-.636.12-.628.615.029,1.861.032,3.723,0,5.584-.01.543.131.7.689.7,3.956-.025,7.912-.005,11.869-.02.712,0,1.715.325,2.061-.147s.085-1.428.089-2.17l0-4.334c.021-.091.013-.163-.107-.162-.648-.018-1.3-.053-1.944-.05a1.138,1.138,0,0,1-1.313-1.044c.215-.906.442-1.086,1.573-1.056.525.014.735-.1.7-.677-.052-.929.025-1.866-.019-2.8a15.047,15.047,0,0,1,1.2-6.536c.585-1.417,1.08-2.871,1.611-4.311a13.945,13.945,0,0,0,.56-5.038c-.011-1.352.009-2.7-.007-4.056a1.258,1.258,0,0,0-1.236-1.4c-.7.028-1.131.556-1.14,1.4-.006.606.005,1.212,0,1.818-.012.806-.421,1.272-1.084,1.255-.632-.017-1.006-.469-1.012-1.246-.008-1.026.021-2.052-.014-3.077a1.228,1.228,0,0,0-1.221-1.269,1.2,1.2,0,0,0-1.147,1.317c-.012.7.019,1.4-.013,2.1a1.045,1.045,0,1,1-2.088-.041c-.009-.186,0-.373,0-.559,0-.862.02-1.726-.008-2.587a1.25,1.25,0,0,0-1.218-1.347c-.7.014-1.144.532-1.156,1.377-.008.606.006,1.212,0,1.818-.013.815-.411,1.282-1.07,1.277s-1.022-.463-1.027-1.3c-.006-1,.016-2.005-.008-3.007a1.211,1.211,0,0,0-1.193-1.287,1.229,1.229,0,0,0-1.18,1.3c-.011.209,0,.42,0,.629q0,5.036,0,10.071c0,.96-.348,1.429-1.048,1.436s-1.051-.446-1.052-1.385c0-1.609-.017-3.217.009-4.826.008-.472-.147-.551-.568-.45a2.266,2.266,0,0,0-1.812,2.192c-.028,1.025.01,2.052-.014,3.077a10.36,10.36,0,0,0,1.921,6.3,16.8,16.8,0,0,1,1.481,2.525,14.11,14.11,0,0,1,1.076,6.622c-.023.56.151.694.693.685,1.935-.033,3.87-.017,5.806-.011.884,0,1.117.193,1.384,1.065a1.229,1.229,0,0,1-1.408,1.048C2064.607,984.262,2062.837,984.294,2061.068,984.309Zm-23.518-23.576c-.163-.008-.326-.029-.488-.022a15.987,15.987,0,0,1-6.847-1.045,38.083,38.083,0,0,0-5.439-1.971c-2.843-.684-5.755-.271-8.638-.308a1.144,1.144,0,0,0-1.1,1.222,1.2,1.2,0,0,0,1.278,1.12c.7.016,1.4-.017,2.1.012a1.042,1.042,0,0,1,.959,1.561,1.1,1.1,0,0,1-1.062.535c-1.026-.01-2.052-.021-3.077.005a1.245,1.245,0,0,0-1.319,1.173,1.209,1.209,0,0,0,1.34,1.2c.606.012,1.212,0,1.818,0,.834.008,1.3.375,1.315,1.028.017.681-.456,1.065-1.331,1.07-.956.005-1.912-.014-2.867.006-.857.018-1.424.542-1.394,1.241s.542,1.123,1.4,1.135c.629.009,1.26-.011,1.888.006.751.02,1.2.449,1.183,1.089-.019.606-.459.993-1.184,1-.886.013-1.772,0-2.658,0-1.17,0-1.766.417-1.751,1.221.014.764.606,1.162,1.746,1.162q5.176,0,10.352,0c.582,0,1.087.126,1.291.73a1.078,1.078,0,0,1-.54,1.3c-.324.022-.649.06-.974.062-1.537.007-3.075.02-4.611-.007-.495-.009-.606.135-.483.6a2.272,2.272,0,0,0,2.145,1.78c.837.036,1.678-.017,2.515.024a11.174,11.174,0,0,0,7.333-2.2,11.933,11.933,0,0,1,5.179-2.126,20.661,20.661,0,0,1,3.694-.157c.376.007.531-.081.529-.5q-.021-5.763,0-11.526c0-.374-.127-.484-.484-.466C2038.761,960.732,2038.155,960.725,2037.55,960.733ZM2045.356,999c1.118,0,2.237,0,3.355,0a1.616,1.616,0,0,1,1.4.507c.479.69,1.117.6,1.786.617a12.573,12.573,0,0,0,5.336-.834.79.79,0,0,0,.595-.86c-.042-1.63-.024-3.261-.01-4.892a.908.908,0,0,0-.363-.832,1.979,1.979,0,0,1-.764-1.648q.005-3.354,0-6.709a1.97,1.97,0,0,1,.765-1.646.886.886,0,0,0,.36-.833c-.021-.652,0-1.3-.008-1.957a11.075,11.075,0,0,0-.814-4.01.827.827,0,0,0-.91-.627c-1.583.045-3.169.029-4.753.008a1.115,1.115,0,0,0-1.012.437,1.939,1.939,0,0,1-1.611.69q-3.32-.006-6.641,0a1.546,1.546,0,0,1-1.34-.464c-.523-.78-1.255-.636-1.982-.656a12.15,12.15,0,0,0-5.2.829.791.791,0,0,0-.594.862c.042,1.63.024,3.261.01,4.892a.9.9,0,0,0,.363.833,1.909,1.909,0,0,1,.759,1.578q0,3.424,0,6.849a1.85,1.85,0,0,1-.712,1.528,1,1,0,0,0-.41.953c.027.628,0,1.258.01,1.887a11.034,11.034,0,0,0,.813,4.009.827.827,0,0,0,.911.626c1.583-.045,3.169-.029,4.753-.008a1.114,1.114,0,0,0,1.012-.437,1.933,1.933,0,0,1,1.611-.689C2043.165,999,2044.26,999,2045.356,999Zm5.592,9.444c0,1.841.024,3.683-.014,5.523-.012.579.143.746.73.735,1.631-.032,3.266-.048,4.894.032a13.951,13.951,0,0,1,5.464,1.6c3.985,1.972,8.22,1.779,12.457,1.7a1.189,1.189,0,1,0-.076-2.367c-.606-.011-1.212,0-1.818,0-.833-.008-1.3-.373-1.318-1.022-.019-.683.453-1.072,1.324-1.076.956-.005,1.912.013,2.867-.006a1.265,1.265,0,0,0,1.4-1.238c-.03-.694-.557-1.126-1.4-1.137-.63-.008-1.259.01-1.888-.006-.747-.019-1.2-.45-1.179-1.091.019-.607.46-.994,1.184-1,1-.012,2,.013,3.007-.01.86-.019,1.428-.545,1.4-1.239s-.545-1.124-1.4-1.136c-.676-.009-1.353.02-2.028-.014a1,1,0,0,1-1.033-.945.975.975,0,0,1,.7-1.084,1.829,1.829,0,0,1,.622-.058c1-.005,2.005.018,3.007-.011a1.2,1.2,0,0,0,1.26-1.219,1.235,1.235,0,0,0-1.264-1.147c-.232-.016-.466-.01-.7-.01q-5.035,0-10.071,0a1.273,1.273,0,0,1-1.272-.547,1.014,1.014,0,0,1,.854-1.541q2.587-.041,5.175-.007c.483.006.615-.117.485-.6a2.25,2.25,0,0,0-2.153-1.769c-1.048-.031-2.1.006-3.147-.017a10.342,10.342,0,0,0-6.237,1.908,17.043,17.043,0,0,1-2.591,1.511,13.789,13.789,0,0,1-6.486,1.055c-.636-.029-.775.175-.762.777C2050.973,1004.8,2050.947,1006.622,2050.947,1008.44Zm21.436-12.219c0-.885-.014-1.721.007-2.557.009-.338-.1-.44-.438-.439q-5.806.018-11.612.012c-.268,0-.435.035-.432.37.014,1.319.006,2.639.006,4.06a11.414,11.414,0,0,1,6.035-1.988C2068.067,995.664,2070.236,995.236,2072.384,996.222Zm-17.023-23.043a11.392,11.392,0,0,1-1.991-6.115c0-2.116-.452-4.283.547-6.358-.889,0-1.727.015-2.564-.007-.347-.01-.431.117-.43.443q.019,5.8.011,11.609c0,.337.112.438.441.434C2052.656,973.17,2053.938,973.179,2055.361,973.179ZM2035.4,1002.21a11.472,11.472,0,0,1,2,6.123c0,2.116.46,4.283-.539,6.353.867,0,1.683-.016,2.5.007.362.01.48-.1.479-.469q-.012-5.769.009-11.539c0-.355-.09-.489-.466-.483C2038.1,1002.222,2036.823,1002.21,2035.4,1002.21Z" transform="translate(0)" fill="#030303"/>
      <path id="Trazado_629399" data-name="Trazado 629399" d="M2189.287,1191.737v-4.755c.878.329,1.73.606,2.548.963a17.327,17.327,0,0,0,8.088,1.42c.575-.035,1.349-.2,1.683.091.39.341.1,1.133.131,1.728.01.185-.009.371-.015.557Z" transform="translate(-129.356 -169.213)" fill="#abd9e6"/>
      <path id="Trazado_629400" data-name="Trazado 629400" d="M2249.472,995.641h-4.757c.329-.878.607-1.731.963-2.549A17.384,17.384,0,0,0,2247.1,985c-.034-.575-.2-1.35.093-1.682.344-.389,1.135-.089,1.731-.127.185-.011.371.01.557.016Q2249.476,989.424,2249.472,995.641Z" transform="translate(-169.249 -22.483)" fill="#d2d0d2"/>
      <path id="Trazado_629401" data-name="Trazado 629401" d="M2013.151,1131.56h4.746c-.4,1.081-.748,2.139-1.182,3.159a15.136,15.136,0,0,0-1.211,6.674c.03.7-.026,1.4.016,2.1.027.457-.145.552-.557.527-.6-.036-1.211-.018-1.816-.024Q2013.149,1137.777,2013.151,1131.56Z" transform="translate(-2.58 -129.324)" fill="#d6e589"/>
      <path id="Trazado_629402" data-name="Trazado 629402" d="M2053.36,955.406v4.745c-1-.372-1.95-.676-2.858-1.072a16.452,16.452,0,0,0-7.474-1.331c-.67.032-1.535.227-1.962-.1-.458-.353-.1-1.26-.156-1.922-.01-.115,0-.232-.007-.348,1.136.02,2.271.056,3.407.056C2047.326,955.431,2050.343,955.415,2053.36,955.406Z" transform="translate(-22.504 -2.517)" fill="#827b83"/>
      <path id="Trazado_629403" data-name="Trazado 629403" d="M2185.549,988.65c-.267-.872-.5-1.062-1.384-1.065-1.936-.006-3.871-.022-5.806.011-.542.009-.715-.126-.693-.685a14.11,14.11,0,0,0-1.077-6.622,16.818,16.818,0,0,0-1.481-2.525,10.36,10.36,0,0,1-1.921-6.3c.024-1.025-.014-2.052.014-3.077a2.267,2.267,0,0,1,1.812-2.192c.421-.1.576-.022.568.45-.026,1.608-.012,3.217-.009,4.826,0,.939.351,1.393,1.052,1.385s1.047-.476,1.048-1.436q0-5.035,0-10.071c0-.21-.006-.42.005-.629a1.229,1.229,0,0,1,1.179-1.3,1.211,1.211,0,0,1,1.193,1.287c.024,1,0,2,.008,3.007.005.836.373,1.294,1.028,1.3s1.056-.462,1.069-1.277c.01-.606,0-1.212,0-1.818.011-.845.451-1.362,1.156-1.377a1.25,1.25,0,0,1,1.218,1.347c.028.862.008,1.725.008,2.587,0,.187-.006.373,0,.559a1.045,1.045,0,1,0,2.088.041c.032-.7,0-1.4.013-2.1a1.2,1.2,0,0,1,1.147-1.317,1.227,1.227,0,0,1,1.221,1.269c.036,1.024.006,2.051.014,3.077.006.777.38,1.229,1.012,1.246.664.017,1.073-.449,1.084-1.255.009-.606,0-1.212,0-1.818.009-.841.444-1.369,1.141-1.4a1.258,1.258,0,0,1,1.235,1.4c.016,1.352,0,2.7.007,4.056a13.939,13.939,0,0,1-.559,5.038c-.53,1.439-1.025,2.894-1.611,4.311a15.047,15.047,0,0,0-1.2,6.536c.044.93-.034,1.867.019,2.8.032.577-.177.692-.7.677-1.13-.03-1.358.15-1.572,1.056Z" transform="translate(-117.766 -5.427)" fill="#f8dea3"/>
      <path id="Trazado_629404" data-name="Trazado 629404" d="M2157.192,1126.2c0-1.818.025-3.636-.015-5.454-.013-.6.126-.807.762-.777a13.789,13.789,0,0,0,6.487-1.055,17.018,17.018,0,0,0,2.59-1.51,10.341,10.341,0,0,1,6.237-1.908c1.049.022,2.1-.014,3.147.017a2.249,2.249,0,0,1,2.153,1.769c.13.483,0,.606-.485.6q-2.587-.03-5.175.008a1.014,1.014,0,0,0-.854,1.541,1.273,1.273,0,0,0,1.272.547q5.035-.008,10.071,0c.233,0,.467-.006.7.01a1.234,1.234,0,0,1,1.264,1.147,1.2,1.2,0,0,1-1.259,1.219c-1,.029-2.005.005-3.007.011a1.826,1.826,0,0,0-.622.058.975.975,0,0,0-.7,1.084,1,1,0,0,0,1.033.944c.674.034,1.352,0,2.028.014.855.012,1.371.436,1.4,1.136s-.54,1.22-1.4,1.239c-1,.023-2,0-3.007.01-.723.009-1.165.4-1.184,1-.02.641.432,1.072,1.179,1.091.629.016,1.259,0,1.888.006.845.011,1.373.443,1.4,1.137a1.265,1.265,0,0,1-1.4,1.238c-.955.019-1.911,0-2.867.006-.872,0-1.344.393-1.325,1.076.019.649.485,1.015,1.318,1.022.606.005,1.212-.007,1.818,0a1.189,1.189,0,1,1,.076,2.367c-4.237.076-8.472.27-12.457-1.7a13.954,13.954,0,0,0-5.464-1.6c-1.628-.08-3.263-.064-4.894-.032-.587.011-.741-.156-.73-.734C2157.215,1129.884,2157.192,1128.042,2157.192,1126.2Z" transform="translate(-106.244 -117.761)" fill="#c98d6a"/>
      <path id="Trazado_629405" data-name="Trazado 629405" d="M2029.949,989.129a1.078,1.078,0,0,0,.54-1.3c-.2-.6-.709-.732-1.291-.73q-5.176.011-10.352,0c-1.14,0-1.731-.4-1.745-1.162-.015-.8.581-1.221,1.751-1.221.886,0,1.772.009,2.658,0,.725-.011,1.165-.4,1.184-1,.02-.64-.432-1.068-1.183-1.089-.629-.017-1.259,0-1.888-.005-.858-.012-1.371-.434-1.4-1.135s.538-1.223,1.394-1.241c.956-.02,1.912,0,2.868-.006.875,0,1.348-.39,1.331-1.07-.017-.653-.481-1.019-1.315-1.027-.606-.006-1.212.007-1.818,0a1.209,1.209,0,0,1-1.34-1.2,1.245,1.245,0,0,1,1.318-1.173c1.025-.027,2.052-.015,3.077-.005a1.1,1.1,0,0,0,1.062-.535,1.042,1.042,0,0,0-.959-1.561c-.7-.029-1.4,0-2.1-.011a1.2,1.2,0,0,1-1.278-1.12,1.144,1.144,0,0,1,1.1-1.222c2.882.037,5.795-.376,8.638.308a38.1,38.1,0,0,1,5.439,1.971,15.986,15.986,0,0,0,6.847,1.045c.162-.007.325.014.488.022,0,2.63.007,5.26,0,7.89a2.383,2.383,0,0,1-2.126,2.431,14.867,14.867,0,0,0-4.178,1.26c-1.374.642-2.519,1.673-3.9,2.291A4.651,4.651,0,0,1,2029.949,989.129Z" transform="translate(-5.426 -13.914)" fill="#f0be88"/>
      <path id="Trazado_629406" data-name="Trazado 629406" d="M2050.828,1107.638a13.667,13.667,0,0,0,2.67,7.657,9.808,9.808,0,0,1,1.843,6.039c-.021,1.071.013,2.144-.012,3.215a2.239,2.239,0,0,1-1.683,2.148c-.5.154-.713.1-.7-.5.033-1.653.021-3.308.007-4.962-.007-.833-.575-1.327-1.292-1.131a1.111,1.111,0,0,0-.806,1.235q0,2.831,0,5.661c0,1.7,0,3.4,0,5.1a1.29,1.29,0,0,1-.814,1.336c-.767.307-1.536-.3-1.562-1.259-.027-1,0-2-.009-3.005-.006-.78-.378-1.236-1-1.253-.664-.018-1.082.449-1.1,1.248-.011.605,0,1.211,0,1.817-.01.857-.432,1.372-1.136,1.4a1.243,1.243,0,0,1-1.23-1.336c-.037-1.047,0-2.1-.018-3.145a1.02,1.02,0,0,0-1.143-1.1,1.031,1.031,0,0,0-.948,1.107c-.019.675,0,1.351-.009,2.027a1.188,1.188,0,1,1-2.365.055c-.037-.977-.03-1.957-.006-2.935.015-.615-.11-1.14-.75-1.341a1.1,1.1,0,0,0-1.329.639,20.952,20.952,0,0,1,.142-5.208,30.741,30.741,0,0,1,1.507-4.262,19.664,19.664,0,0,0,1.676-7.962c-.018-.909.4-1.286,1.338-1.287Q2046.464,1107.633,2050.828,1107.638Z" transform="translate(-19.994 -112.105)" fill="#9b6b5c"/>
      <path id="Trazado_629407" data-name="Trazado 629407" d="M2044.77,1098.989q-4.365,0-8.729,0c-.943,0-1.357.378-1.339,1.287a19.659,19.659,0,0,1-1.676,7.962,30.747,30.747,0,0,0-1.507,4.262,20.939,20.939,0,0,0-.142,5.208c-.008.815-.011,1.629-.027,2.444a1.261,1.261,0,0,1-1.136,1.345,1.173,1.173,0,0,1-1.221-1.182c.039-2.762-.31-5.545.26-8.281a27.4,27.4,0,0,1,1.742-4.923,17.013,17.013,0,0,0,1.338-7.689c-.04-.672.032-1.352-.018-2.024-.043-.576.186-.7.715-.691,1.082.024,1.352-.193,1.553-1.086l2.347.009c.28.887.532,1.085,1.441,1.087,1.856.005,3.714.042,5.568-.018.741-.024.936.224.859.9C2044.748,1098.058,2044.777,1098.525,2044.77,1098.989Z" transform="translate(-13.936 -103.456)" fill="#7c5352"/>
      <path id="Trazado_629408" data-name="Trazado 629408" d="M2047.245,997.871a4.653,4.653,0,0,0,2.823-.61c1.38-.618,2.525-1.649,3.9-2.291a14.878,14.878,0,0,1,4.178-1.26,2.384,2.384,0,0,0,2.126-2.43c.007-2.63,0-5.26,0-7.89.6-.008,1.21,0,1.814-.031.358-.018.486.092.484.466q-.017,5.763,0,11.526c0,.416-.153.5-.529.5a20.645,20.645,0,0,0-3.694.157,11.935,11.935,0,0,0-5.179,2.126,11.174,11.174,0,0,1-7.333,2.2c-.836-.041-1.677.012-2.515-.024a2.273,2.273,0,0,1-2.145-1.78c-.123-.469-.012-.612.483-.6,1.537.027,3.074.013,4.611.007C2046.6,997.931,2046.92,997.893,2047.245,997.871Z" transform="translate(-22.721 -22.656)" fill="#e7aa7b"/>
      <path id="Trazado_629409" data-name="Trazado 629409" d="M2200.023,1063.72h2.334a1.138,1.138,0,0,0,1.313,1.044c.648,0,1.3.032,1.944.05l.107.162,0,4.334q-5.017,0-10.035,0a2.271,2.271,0,0,1-2.385-2.35c-.014-.719.005-1.44.009-2.159,1.769-.015,3.539-.047,5.308-.037A1.23,1.23,0,0,0,2200.023,1063.72Z" transform="translate(-132.239 -80.497)" fill="#d0ecf6"/>
      <path id="Trazado_629410" data-name="Trazado 629410" d="M2048.885,1081.285l-2.347-.009a1.132,1.132,0,0,0-.99-1.047c-.006-.769-.018-1.538-.016-2.306a2.178,2.178,0,0,1,2.245-2.231q5.034,0,10.068,0c.01,1.326,0,2.652.04,3.977.014.484-.179.575-.611.571-2.3-.017-4.609-.014-6.914,0C2049.391,1080.241,2049.175,1080.411,2048.885,1081.285Z" transform="translate(-25.888 -89.113)" fill="#9a939b"/>
      <path id="Trazado_629411" data-name="Trazado 629411" d="M2133.411,979.474l4.329,0,.164.1c.019.275.053.55.053.824q.005,5.359,0,10.719c0,.253-.027.507-.041.76-.7,0-1.4.032-2.094.009a2.344,2.344,0,0,1-2.414-2.5Q2133.4,984.431,2133.411,979.474Z" transform="translate(-89.137 -19.859)" fill="#f6f8f8"/>
      <path id="Trazado_629412" data-name="Trazado 629412" d="M2133.342,1127.5c1.37-.011,2.74-.015,4.11-.036.314,0,.459.074.457.425q-.034,5.956-.047,11.912a17.822,17.822,0,0,0-2.09.031,2.373,2.373,0,0,1-2.452-2.428C2133.381,1134.106,2133.341,1130.8,2133.342,1127.5Z" transform="translate(-89.074 -126.377)" fill="#ebf6bc"/>
      <path id="Trazado_629413" data-name="Trazado 629413" d="M2127.394,1127.486c0,3.3.039,6.6-.022,9.9a2.373,2.373,0,0,0,2.451,2.428,17.771,17.771,0,0,1,2.09-.031c.065.764.321,1.7-.082,2.237-.341.457-1.306.129-1.994.14-1.4.024-2.8,0-4.2.014-.39.005-.588-.044-.586-.517q.025-6.852,0-13.7c0-.4.129-.534.521-.511C2126.183,1127.479,2126.789,1127.474,2127.394,1127.486Z" transform="translate(-83.126 -126.36)" fill="#d6e589"/>
      <path id="Trazado_629414" data-name="Trazado 629414" d="M2051.725,1069.677q-5.034,0-10.068,0a2.178,2.178,0,0,0-2.245,2.231c0,.769.01,1.537.016,2.306-.627.011-1.255.009-1.881.036-.4.018-.516-.148-.513-.535.015-1.93.023-3.86,0-5.79-.007-.484.176-.59.608-.586,1.744.015,3.489.006,5.233.006,2.745,0,5.489.014,8.234-.012.529-.005.7.153.658.672C2051.715,1068.56,2051.735,1069.12,2051.725,1069.677Z" transform="translate(-19.77 -83.098)" fill="#827b83"/>
      <path id="Trazado_629415" data-name="Trazado 629415" d="M2127.4,979.377q0,4.957,0,9.913a2.344,2.344,0,0,0,2.414,2.5c.7.023,1.4,0,2.094-.009a.525.525,0,0,1,.045.131c.148,2.161.148,2.161-1.991,2.161-1.421,0-2.843-.017-4.264.01-.467.009-.643-.1-.641-.607q.029-6.779,0-13.558c0-.467.144-.609.6-.574C2126.233,979.384,2126.817,979.368,2127.4,979.377Z" transform="translate(-83.125 -19.762)" fill="#d2d0d2"/>
      <path id="Trazado_629416" data-name="Trazado 629416" d="M2187.442,1067.432c0,.72-.023,1.44-.009,2.159a2.27,2.27,0,0,0,2.385,2.35q5.017,0,10.034,0c0,.742.266,1.685-.089,2.17s-1.348.145-2.061.147c-3.956.015-7.913,0-11.869.02-.558,0-.7-.157-.689-.7.033-1.861.03-3.723,0-5.584-.007-.5.145-.657.628-.615C2186.327,1067.423,2186.885,1067.415,2187.442,1067.432Z" transform="translate(-126.373 -83.123)" fill="#abd9e6"/>
      <path id="Trazado_629417" data-name="Trazado 629417" d="M2201.679,1102.407c-2.147-.986-4.316-.558-6.435-.541a11.416,11.416,0,0,0-6.035,1.988c0-1.421.008-2.741-.006-4.06,0-.335.164-.37.432-.37q5.806,0,11.612-.012c.334,0,.447.1.439.439C2201.666,1100.685,2201.679,1101.521,2201.679,1102.407Z" transform="translate(-129.296 -106.185)" fill="#abd9e6"/>
      <path id="Trazado_629418" data-name="Trazado 629418" d="M2161.581,995.829c-1.422,0-2.7-.009-3.986.006-.329,0-.442-.1-.441-.434q.009-5.8-.011-11.609c0-.326.083-.453.43-.443.837.022,1.675.007,2.564.007-1,2.075-.549,4.242-.547,6.358A11.393,11.393,0,0,0,2161.581,995.829Z" transform="translate(-106.22 -22.65)" fill="#d2d0d2"/>
      <path id="Trazado_629419" data-name="Trazado 629419" d="M2101.76,1131.445c1.422,0,2.7.012,3.985-.008.376-.006.468.129.466.484q-.02,5.769-.009,11.538c0,.37-.116.48-.479.469-.815-.024-1.631-.007-2.5-.007,1-2.07.54-4.237.539-6.353A11.474,11.474,0,0,0,2101.76,1131.445Z" transform="translate(-66.359 -129.236)" fill="#d6e589"/>
      <path id="Trazado_629420" data-name="Trazado 629420" d="M2053.484,1046.5c1.278-.043,2.565-.01,3.833-.147a11.287,11.287,0,0,0,4.638-1.628.594.594,0,0,1,.5-.159c0,1.287-.008,2.583,0,3.879,0,.366-.192.411-.485.409q-4.26-.018-8.52-.025Z" transform="translate(-31.589 -66.702)" fill="#827b83"/>
      <path id="Trazado_629421" data-name="Trazado 629421" d="M2044.539,1049.641l-.033,2.329c-.975.006-1.95,0-2.924.024-.424.012-.573-.132-.558-.558.027-.783.008-1.567.008-2.518C2042.166,1049.735,2043.376,1049.538,2044.539,1049.641Z" transform="translate(-22.644 -69.844)" fill="#7c5352"/>
      <path id="Trazado_629422" data-name="Trazado 629422" d="M2149.031,979.54l-.164-.1C2148.958,979.414,2149.031,979.419,2149.031,979.54Z" transform="translate(-100.264 -19.828)" fill="#d2d0d2"/>
      <path id="Trazado_629423" data-name="Trazado 629423" d="M2237.362,1067.788l-.107-.162C2237.375,1067.624,2237.383,1067.7,2237.362,1067.788Z" transform="translate(-163.88 -83.308)" fill="#abd9e6"/>
    </g>
  </g>
</svg>
