<svg xmlns="http://www.w3.org/2000/svg" width="85" height="85" viewBox="0 0 85 85">
  <g id="Grupo_1044023" data-name="Grupo 1044023" transform="translate(-180 -924)">
    <circle id="Elipse_7846" data-name="Elipse 7846" cx="42.5" cy="42.5" r="42.5" transform="translate(180 924)" fill="#f0bd51"/>
    <g id="Grupo_952194" data-name="Grupo 952194" transform="translate(0 -5175)">
      <rect id="Rectángulo_34178" data-name="Rectángulo 34178" width="85" height="85" transform="translate(180 6099)" fill="none"/>
      <g id="Grupo_951900" data-name="Grupo 951900" transform="translate(-1574.246 5616.806)">
        <path id="Trazado_628378" data-name="Trazado 628378" d="M1811.43,550.211a3.635,3.635,0,0,0-2.615-.005,1.2,1.2,0,0,0-1.605-.711q-1.156.3-2.314.591a17.209,17.209,0,0,1-2.7-2.64c-1.294-1.559-3.1-1.718-4.862-2.077l-4.078-1.2c-.538-2.043-1.1-4.08-1.6-6.133a5.331,5.331,0,0,0-1.592-2.859c-1.408-1.278-2.7-2.683-4.062-4.014a1.041,1.041,0,0,1-.318-1.117c.589-2.156,1.171-4.314,1.767-6.469a2.271,2.271,0,0,0,.014-1.221c-.575-2.16-1.123-4.327-1.732-6.477a1.088,1.088,0,0,1,.345-1.224c1.584-1.557,3.146-3.136,4.72-4.7a1.851,1.851,0,0,0,.547-.845c.264-1.011.567-2.011.813-3.026.347-1.437.852-2.835,1.074-4.3l4.051-1.125a.209.209,0,0,0,.208-.149l-.013.01a1.9,1.9,0,0,0,1.074-.137c.888-.321,1.957-.247,2.671-.895,1.262-1.143,2.413-2.41,3.61-3.626,1.555.4,3.114.788,4.664,1.206a2.366,2.366,0,0,0,1.29.008c2.092-.569,4.193-1.105,6.282-1.682a.777.777,0,0,1,.887.24c1.5,1.536,3.033,3.045,4.543,4.574a2.469,2.469,0,0,0,1.177.684c2.05.534,4.089,1.113,6.143,1.635a.952.952,0,0,1,.8.788c.521,2.054,1.082,4.1,1.616,6.147a2.486,2.486,0,0,0,.681,1.182c1.493,1.477,2.961,2.979,4.46,4.449a.992.992,0,0,1,.323,1.138c-.562,1.941-1.043,3.906-1.594,5.85a3.266,3.266,0,0,0-.01,1.856c.548,1.945,1.031,3.909,1.586,5.852a.99.99,0,0,1-.3,1.144c-1.524,1.48-3.011,3-4.522,4.491a2.341,2.341,0,0,0-.642,1.119c-.528,2.027-1.088,4.045-1.615,6.072a1.045,1.045,0,0,1-.87.9c-2.013.483-4,1.052-6.008,1.576a2.729,2.729,0,0,0-1.307.748c-1.471,1.5-2.978,2.961-4.443,4.465a.95.95,0,0,1-1.09.28c-1.239-.361-2.5-.644-3.736-1.019A1.3,1.3,0,0,0,1811.43,550.211Zm-21.845-27.6a1.155,1.155,0,0,0-1.031,1.348,20.018,20.018,0,0,0,.341,2.977,21.543,21.543,0,1,0,.135-8.565c-.192.924-.018,1.267.846,1.672Z" transform="translate(-13.36 -5.742)" fill="#f8e68b"/>
        <path id="Trazado_628379" data-name="Trazado 628379" d="M1791.536,544.344q1.157-.3,2.314-.591a1.2,1.2,0,0,1,1.605.711c-.022.949-.215,1.2-1.107,1.444-1.317.354-2.63.723-3.956,1.042a1.656,1.656,0,0,0-1.149.871c-2.514,4.4-5.057,8.779-7.591,13.166-.11.19-.211.385-.332.568a1.109,1.109,0,0,1-1.089.6,1.089,1.089,0,0,1-.943-.894c-.524-1.951-1.087-3.893-1.562-5.856-.152-.627-.376-.663-.921-.506-1.825.525-3.664,1-5.5,1.486a3,3,0,0,1-.865.105c-.685-.026-.985-.443-.87-1.131a3.01,3.01,0,0,1,.428-1c2.583-4.471,5.152-8.95,7.762-13.4.365-.623.232-.791-.4-.905-.573-.1-1.126-.318-1.7-.428a1.589,1.589,0,0,1-1.346-1.337c-.545-2.172-1.159-4.327-1.716-6.5a2.038,2.038,0,0,0-.57-.987c-1.56-1.548-3.088-3.128-4.673-4.649a1.735,1.735,0,0,1-.536-1.953c.61-2.1,1.14-4.23,1.724-6.342a2.306,2.306,0,0,0,0-1.281c-.584-2.137-1.117-4.288-1.729-6.417a1.637,1.637,0,0,1,.51-1.824c1.6-1.546,3.15-3.134,4.731-4.7a2.046,2.046,0,0,0,.576-.985c.557-2.144,1.164-4.275,1.7-6.423a1.761,1.761,0,0,1,1.443-1.429c2.1-.516,4.193-1.1,6.29-1.643a2.437,2.437,0,0,0,1.177-.672c1.557-1.585,3.15-3.134,4.706-4.721a1.538,1.538,0,0,1,1.7-.468c2.106.6,4.234,1.127,6.343,1.722a2.759,2.759,0,0,0,1.561.009c2.064-.574,4.144-1.094,6.2-1.694a1.745,1.745,0,0,1,1.953.548c1.523,1.584,3.1,3.112,4.64,4.682a2.188,2.188,0,0,0,1.053.6c2.141.57,4.272,1.179,6.422,1.714a1.642,1.642,0,0,1,1.344,1.336c.548,2.171,1.159,4.327,1.716,6.5a2.042,2.042,0,0,0,.58.983c1.575,1.567,3.128,3.157,4.719,4.707a1.646,1.646,0,0,1,.5,1.831c-.615,2.128-1.155,4.277-1.743,6.413a2.32,2.32,0,0,0,0,1.281c.589,2.161,1.136,4.333,1.744,6.489a1.5,1.5,0,0,1-.431,1.644c-1.639,1.607-3.251,3.24-4.882,4.855a1.789,1.789,0,0,0-.5.863c-.564,2.167-1.172,4.323-1.728,6.492a1.626,1.626,0,0,1-1.378,1.393c-.759.139-1.5.4-2.245.6a1.368,1.368,0,0,0,.327.736q3.848,6.679,7.709,13.352c.331.573.749,1.193.283,1.826s-1.153.315-1.756.156c-1.812-.479-3.625-.962-5.432-1.461-.44-.122-.662-.1-.794.438-.466,1.89-1.008,3.762-1.5,5.645-.148.563-.282,1.128-.976,1.2s-1.033-.4-1.34-.937q-3.862-6.714-7.732-13.422a1.427,1.427,0,0,0-.983-.759c-1.372-.333-2.728-.73-4.089-1.1-.961-.262-1.15-.5-1.164-1.473a1.3,1.3,0,0,1,1.717-.65c1.234.376,2.5.659,3.736,1.019a.95.95,0,0,0,1.09-.28c1.465-1.5,2.972-2.967,4.443-4.466a2.729,2.729,0,0,1,1.307-.748c2-.524,3.995-1.094,6.008-1.576a1.045,1.045,0,0,0,.87-.9c.527-2.027,1.087-4.045,1.615-6.072a2.341,2.341,0,0,1,.642-1.119c1.511-1.493,3-3.011,4.521-4.491a.99.99,0,0,0,.3-1.144c-.555-1.943-1.038-3.907-1.586-5.852a3.265,3.265,0,0,1,.01-1.856c.551-1.944,1.031-3.909,1.594-5.85a.992.992,0,0,0-.323-1.138c-1.5-1.47-2.967-2.972-4.46-4.449a2.484,2.484,0,0,1-.681-1.182c-.533-2.051-1.095-4.094-1.616-6.147a.952.952,0,0,0-.8-.788c-2.053-.522-4.092-1.1-6.143-1.635a2.467,2.467,0,0,1-1.177-.684c-1.51-1.529-3.04-3.038-4.543-4.574a.778.778,0,0,0-.888-.24c-2.09.577-4.191,1.112-6.282,1.682a2.366,2.366,0,0,1-1.29-.008c-1.55-.418-3.108-.806-4.664-1.206-.6-.178-1.211-.343-1.808-.539a.5.5,0,0,0-.574.174q-2.483,2.515-4.973,5.022l.013-.01-.208.149-4.051,1.125c-.9.228-1.786.487-2.691.673a1.075,1.075,0,0,0-.938.92c-.5,2.006-1.076,3.994-1.589,6a2.7,2.7,0,0,1-.76,1.3c-1.511,1.49-3,3-4.517,4.487a.783.783,0,0,0-.238.894c.587,2.11,1.125,4.233,1.7,6.346a2.076,2.076,0,0,1,0,1.143c-.571,2.089-1.106,4.188-1.7,6.271a.894.894,0,0,0,.269,1.023c1.515,1.486,3,3,4.511,4.493a2.586,2.586,0,0,1,.708,1.245c.528,2.05,1.079,4.094,1.627,6.139.079.3.12.588.533.68,1.043.231,2.073.519,3.108.785l4.078,1.2c1.661,1.676,3.328,3.346,4.977,5.033a.7.7,0,0,0,.777.215C1790.329,544.7,1790.933,544.521,1791.536,544.344Zm-18.369,9.211a31.717,31.717,0,0,0,3.846-1.005c.19-.038.382-.068.57-.117,1.181-.3,1.576-.074,1.9,1.117.248.914.473,1.834.745,2.74a7.589,7.589,0,0,0,.581,1.793l5.689-9.949c.07-.1.148-.189.208-.292.861-1.469.86-1.47-.358-2.691-1.376-1.379-1.376-1.379-2.238.456q-.964,1.634-1.928,3.267a1.251,1.251,0,0,1-.783.716,1.118,1.118,0,0,1-1.191-.362,1.076,1.076,0,0,1-.016-1.3q1.177-2.1,2.363-4.2a9.229,9.229,0,0,1,.589-.914c.341-.419.232-.7-.143-1.036-.589-.525-1.365-.475-2.029-.75-.483-.2-.725-.042-.976.4-1.4,2.484-2.856,4.94-4.265,7.42-.878,1.544-1.851,3.035-2.615,4.645-.067.033-.1.075-.022.128C1773.1,553.631,1773.142,553.58,1773.168,553.555Zm37.918-9.662c.267.489.528.981.8,1.466.515.909,1.061,1.8,1.55,2.725a1.049,1.049,0,0,1-.383,1.518,1.077,1.077,0,0,1-1.465-.405,5.574,5.574,0,0,1-.381-.621q-.87-1.475-1.739-2.951c-.258-.466-.534-.924-.77-1.4-.2-.4-.37-.316-.624-.049-.52.547-1.038,1.1-1.607,1.593a.763.763,0,0,0-.162,1.157c2.078,3.545,4.121,7.11,6.182,10.665.086.148.118.361.386.417l.98-3.738c.08-.279.159-.559.24-.838.3-1.035.736-1.294,1.775-1.031.61.155,1.207.363,1.822.493a15.036,15.036,0,0,0,2.8.632l.012.078c0-.01.014-.023.01-.029a.25.25,0,0,0-.036-.041c-2.031-3.7-4.176-7.343-6.322-10.982-.245-.447-.5-.889-.732-1.343a.444.444,0,0,0-.6-.242c-.632.181-1.277.321-1.9.533-.766.262-.9.655-.494,1.342C1810.645,543.2,1810.869,543.543,1811.086,543.893Z" fill="#040303"/>
        <path id="Trazado_628380" data-name="Trazado 628380" d="M1796.9,534.731c-.864-.405-1.038-.749-.846-1.672a21.558,21.558,0,1,1-.135,8.565,20.017,20.017,0,0,1-.341-2.977,1.155,1.155,0,0,1,1.031-1.348c.857.166,1.121.464,1.176,1.305q.043.656.119,1.31a19.355,19.355,0,1,0,14.684-21.018c-7.662,1.926-12.369,6.96-14.35,14.567C1798.048,534.209,1797.747,534.726,1796.9,534.731Z" transform="translate(-20.389 -20.43)" fill="#040302"/>
        <path id="Trazado_628381" data-name="Trazado 628381" d="M1799.391,539.967c.843-.005,1.144-.522,1.338-1.269,1.981-7.607,6.688-12.641,14.35-14.567a19.336,19.336,0,1,1-14.684,21.018q-.077-.653-.119-1.31c-.055-.841-.318-1.14-1.175-1.305Zm29.737-9.7c.361-.928.238-1.3-.611-1.813a16.963,16.963,0,1,0,4.417,3.886c-.651-.811-.957-.88-1.87-.424A6.434,6.434,0,0,0,1829.128,530.263Z" transform="translate(-22.876 -25.666)" fill="#f1b761"/>
        <path id="Trazado_628382" data-name="Trazado 628382" d="M1785.577,559.662c-1.035-.265-2.065-.554-3.108-.785-.413-.092-.454-.384-.533-.68-.548-2.045-1.1-4.089-1.627-6.139a2.586,2.586,0,0,0-.708-1.245c-1.511-1.491-3-3.006-4.511-4.493a.894.894,0,0,1-.269-1.023c.59-2.083,1.125-4.182,1.7-6.271a2.078,2.078,0,0,0,0-1.143c-.574-2.113-1.112-4.237-1.7-6.346a.783.783,0,0,1,.238-.894c1.513-1.488,3.006-3,4.517-4.487a2.7,2.7,0,0,0,.759-1.3c.514-2,1.087-3.991,1.589-6a1.075,1.075,0,0,1,.938-.92c.9-.186,1.795-.444,2.691-.673-.222,1.468-.727,2.866-1.074,4.3-.245,1.015-.549,2.015-.812,3.026a1.851,1.851,0,0,1-.547.846c-1.574,1.568-3.136,3.147-4.72,4.7a1.088,1.088,0,0,0-.345,1.224c.608,2.15,1.157,4.317,1.732,6.477a2.271,2.271,0,0,1-.014,1.222c-.6,2.154-1.178,4.313-1.767,6.469a1.041,1.041,0,0,0,.318,1.117c1.361,1.33,2.654,2.735,4.062,4.014a5.331,5.331,0,0,1,1.592,2.859C1784.474,555.582,1785.039,557.619,1785.577,559.662Z" transform="translate(-5.683 -21.23)" fill="#f3d767"/>
        <path id="Trazado_628383" data-name="Trazado 628383" d="M1833.054,670.46c-.6.177-1.207.353-1.81.532a.7.7,0,0,1-.777-.215c-1.65-1.687-3.316-3.358-4.977-5.033,1.76.359,3.568.518,4.862,2.077A17.212,17.212,0,0,0,1833.054,670.46Z" transform="translate(-41.518 -126.116)" fill="#f3d767"/>
        <path id="Trazado_628384" data-name="Trazado 628384" d="M1825.976,500.385q2.487-2.51,4.973-5.022a.5.5,0,0,1,.574-.173c.6.2,1.2.361,1.808.539-1.2,1.215-2.347,2.483-3.61,3.626-.715.648-1.784.574-2.672.895A1.9,1.9,0,0,1,1825.976,500.385Z" transform="translate(-41.861 -5.609)" fill="#f3d767"/>
        <path id="Trazado_628385" data-name="Trazado 628385" d="M1825.309,513.08l.208-.149A.209.209,0,0,1,1825.309,513.08Z" transform="translate(-41.39 -18.165)" fill="#f3d767"/>
        <path id="Trazado_628386" data-name="Trazado 628386" d="M1915.979,675.707c2.146,3.639,4.291,7.277,6.322,10.982l.014-.008a15.006,15.006,0,0,1-2.8-.632c-.615-.131-1.212-.338-1.822-.493-1.039-.263-1.476,0-1.775,1.031q-.12.419-.24.838c-.242-.017-.293-.227-.388-.39q-.9-1.536-1.8-3.074c-.8-1.383-1.61-2.763-2.394-4.156-.2-.362-.519-.806.192-1.024q.869,1.475,1.738,2.951a5.612,5.612,0,0,0,.381.621,1.077,1.077,0,0,0,1.465.405,1.049,1.049,0,0,0,.382-1.518c-.489-.923-1.035-1.815-1.55-2.725-.275-.485-.536-.977-.8-1.466a1.8,1.8,0,0,1,.163-.239C1913.857,675.968,1914.982,676.005,1915.979,675.707Z" transform="translate(-101.818 -133.155)" fill="#dd7781"/>
        <path id="Trazado_628387" data-name="Trazado 628387" d="M1806.946,679.371q-1.182,2.1-2.363,4.2a1.076,1.076,0,0,0,.016,1.3,1.118,1.118,0,0,0,1.191.362,1.252,1.252,0,0,0,.783-.716q.966-1.633,1.928-3.267a11.091,11.091,0,0,1,2.388,2.527l-5.689,9.949a7.583,7.583,0,0,1-.581-1.793c-.271-.906-.5-1.827-.745-2.74-.324-1.191-.719-1.421-1.9-1.117-.188.048-.38.078-.57.117-.3-.183-.1-.385,0-.556,1.53-2.639,3.084-5.265,4.585-7.921C1806.259,679.232,1806.481,679.081,1806.946,679.371Z" transform="translate(-24.392 -135.639)" fill="#dd7781"/>
        <path id="Trazado_628388" data-name="Trazado 628388" d="M1797.943,673.024c-.465-.291-.687-.14-.958.34-1.5,2.656-3.055,5.282-4.585,7.921-.1.171-.3.373,0,.556a31.705,31.705,0,0,1-3.846,1.005l-.054-.056c.765-1.608,1.738-3.1,2.615-4.644,1.409-2.48,2.861-4.937,4.265-7.42.251-.444.494-.6.977-.4.665.275,1.44.225,2.029.75.375.334.484.617.143,1.036A9.2,9.2,0,0,0,1797.943,673.024Z" transform="translate(-15.389 -129.292)" fill="#d75e6a"/>
        <path id="Trazado_628389" data-name="Trazado 628389" d="M1904.279,682.139c-.711.218-.4.662-.192,1.024.784,1.393,1.591,2.773,2.394,4.156q.894,1.539,1.8,3.074c.1.163.146.372.388.39l-.98,3.738c-.268-.055-.3-.269-.386-.417-2.06-3.555-4.1-7.12-6.182-10.665a.763.763,0,0,1,.162-1.157c.569-.493,1.087-1.047,1.607-1.593.254-.267.424-.356.624.049C1903.745,681.215,1904.021,681.672,1904.279,682.139Z" transform="translate(-94.807 -136.513)" fill="#d75e6a"/>
        <path id="Trazado_628390" data-name="Trazado 628390" d="M1828.346,685.175a11.1,11.1,0,0,0-2.388-2.527c.862-1.835.862-1.835,2.238-.456,1.218,1.221,1.219,1.221.358,2.691C1828.494,684.986,1828.416,685.078,1828.346,685.175Z" transform="translate(-41.848 -137.042)" fill="#d45d69"/>
        <path id="Trazado_628391" data-name="Trazado 628391" d="M1918.828,671.812c-1,.3-2.122.261-2.912,1.1a1.809,1.809,0,0,0-.163.239c-.217-.35-.441-.7-.648-1.051-.4-.687-.272-1.079.494-1.342.621-.213,1.266-.353,1.9-.533a.444.444,0,0,1,.6.242C1918.328,670.923,1918.583,671.365,1918.828,671.812Z" transform="translate(-104.668 -129.26)" fill="#d45d69"/>
        <path id="Trazado_628392" data-name="Trazado 628392" d="M1788.4,713.051c-.026.025-.07.076-.075.073-.074-.053-.045-.095.021-.128Z" transform="translate(-15.233 -159.497)" fill="#d75e6a"/>
        <path id="Trazado_628393" data-name="Trazado 628393" d="M1949.856,713.094a.25.25,0,0,1,.036.041c0,.006-.006.019-.01.029,0-.026-.008-.052-.012-.078Z" transform="translate(-129.374 -159.56)" fill="#dd7781"/>
        <path id="Trazado_628394" data-name="Trazado 628394" d="M1850.726,541.239a6.429,6.429,0,0,1,1.936,1.65c-.508.666-.3,1.229.173,1.836a14.793,14.793,0,0,1-6.758,23.153,13.264,13.264,0,0,1-6.907.624,1.835,1.835,0,0,0-.288-.214,16.286,16.286,0,0,1-5.822-4.641,15.743,15.743,0,0,1-3.385-9.946,14.633,14.633,0,0,1,1.151-5.673,16.151,16.151,0,0,1,3.8-5.649,14.65,14.65,0,0,1,3.869-2.7c.19-.088.43-.129.5-.38l-.011.008a.259.259,0,0,0,.329-.073,14.248,14.248,0,0,1,9.566,2.023C1849.528,541.644,1850.114,541.807,1850.726,541.239Zm-16.085,19.3a1.938,1.938,0,0,0,2.813,1.814c1.12-.534,2.209-1.135,3.3-1.729a.871.871,0,0,1,.943.007c1.087.6,2.189,1.175,3.3,1.734a1.808,1.808,0,0,0,2-.17,1.866,1.866,0,0,0,.754-1.933c-.2-1.177-.393-2.356-.623-3.527a.918.918,0,0,1,.3-.965c.841-.78,1.642-1.6,2.478-2.388a1.972,1.972,0,0,0,.632-2.18,1.936,1.936,0,0,0-1.768-1.317c-1.112-.142-2.218-.336-3.331-.473a1.018,1.018,0,0,1-.914-.671c-.467-1.043-1.01-2.052-1.512-3.08a1.946,1.946,0,0,0-3.6.017c-.5,1.03-1.047,2.036-1.51,3.082a1.025,1.025,0,0,1-.924.666c-1.088.139-2.17.33-3.26.454a1.963,1.963,0,0,0-1.175,3.511c.8.747,1.56,1.548,2.369,2.29a1.07,1.07,0,0,1,.377,1.142C1835.028,558.084,1834.841,559.362,1834.641,560.535Z" transform="translate(-44.474 -36.641)" fill="#f9e68b"/>
        <path id="Trazado_628395" data-name="Trazado 628395" d="M1837.566,535.973c-.612.569-1.2.406-1.848.016a14.248,14.248,0,0,0-9.566-2.023.332.332,0,0,0-.329.073l.011-.008a6.892,6.892,0,0,0-.794.1c-5.878,1.408-9.787,5.014-11.284,10.836-1.516,5.894.206,10.988,4.819,15a15.074,15.074,0,0,0,14.342,2.65,14.793,14.793,0,0,0,6.758-23.153c-.474-.607-.682-1.17-.173-1.836.913-.457,1.219-.388,1.87.424a17.172,17.172,0,1,1-4.417-3.886C1837.8,534.675,1837.927,535.046,1837.566,535.973Z" transform="translate(-31.314 -31.376)" fill="#040302"/>
        <path id="Trazado_628396" data-name="Trazado 628396" d="M1839.716,573.47c.2-1.173.388-2.452.649-3.715a1.07,1.07,0,0,0-.377-1.142c-.809-.742-1.564-1.543-2.369-2.29a1.963,1.963,0,0,1,1.175-3.511c1.089-.125,2.172-.315,3.26-.454a1.024,1.024,0,0,0,.924-.666c.462-1.045,1.011-2.052,1.51-3.082a1.946,1.946,0,0,1,3.6-.017c.5,1.028,1.045,2.036,1.512,3.08a1.018,1.018,0,0,0,.914.671c1.113.137,2.219.331,3.331.473a1.936,1.936,0,0,1,1.768,1.317,1.971,1.971,0,0,1-.632,2.18c-.835.786-1.637,1.608-2.478,2.388a.918.918,0,0,0-.3.965c.23,1.171.42,2.351.623,3.527a1.866,1.866,0,0,1-.754,1.933,1.808,1.808,0,0,1-2,.17c-1.108-.56-2.21-1.135-3.3-1.734a.871.871,0,0,0-.943-.007c-1.091.594-2.18,1.194-3.3,1.729A1.938,1.938,0,0,1,1839.716,573.47Zm8.259-10.084-1.688-3.493-1.906,3.964-.445.4-4.386.687c.03.322.272.435.434.6.742.742,1.489,1.48,2.249,2.2a1.427,1.427,0,0,1,.451,1.445c-.252,1.259-.436,2.532-.664,3.9,1.172-.616,2.264-1.156,3.32-1.757a1.677,1.677,0,0,1,1.794-.077l3.428,1.834a22.027,22.027,0,0,0-.508-2.926,2.641,2.641,0,0,1,1.041-3.171,23.693,23.693,0,0,0,2.024-2.057c-1.243-.177-2.388-.367-3.54-.5A1.737,1.737,0,0,1,1847.975,563.386Z" transform="translate(-49.549 -49.576)" fill="#030301"/>
        <path id="Trazado_628397" data-name="Trazado 628397" d="M1831.239,569.011a13.326,13.326,0,0,1-7.435-3.274c-4.613-4.008-6.335-9.1-4.819-15,1.5-5.821,5.406-9.428,11.284-10.836a6.907,6.907,0,0,1,.794-.1c-.073.251-.314.291-.5.38a14.646,14.646,0,0,0-3.869,2.7,16.149,16.149,0,0,0-3.8,5.649,14.627,14.627,0,0,0-1.151,5.673,15.743,15.743,0,0,0,3.385,9.946,16.287,16.287,0,0,0,5.822,4.641A1.836,1.836,0,0,1,1831.239,569.011Z" transform="translate(-36.543 -37.151)" fill="#f3d767"/>
        <path id="Trazado_628398" data-name="Trazado 628398" d="M1861.382,539.628a.332.332,0,0,1,.329-.073A.259.259,0,0,1,1861.382,539.628Z" transform="translate(-66.873 -36.964)" fill="#f3d767"/>
        <path id="Trazado_628399" data-name="Trazado 628399" d="M1860.68,578.674l.445-.4a14.43,14.43,0,0,0,3.594-.47,1.736,1.736,0,0,0,1.6,1.051c1.152.128,2.3.318,3.541.5a23.763,23.763,0,0,1-2.024,2.057,2.641,2.641,0,0,0-1.041,3.171,22.007,22.007,0,0,1,.508,2.926l-3.428-1.834a5.841,5.841,0,0,1,.16-1.151,1.95,1.95,0,0,0-.8-2.455,19.393,19.393,0,0,1-2.237-2.088A1.022,1.022,0,0,1,1860.68,578.674Z" transform="translate(-66.293 -63.992)" fill="#f2b861"/>
        <path id="Trazado_628400" data-name="Trazado 628400" d="M1850.413,580.77a1.022,1.022,0,0,0,.323,1.3,19.393,19.393,0,0,0,2.237,2.088,1.95,1.95,0,0,1,.8,2.455,5.841,5.841,0,0,0-.16,1.151,1.677,1.677,0,0,0-1.794.077c-1.056.6-2.148,1.141-3.32,1.757.228-1.365.412-2.638.664-3.9a1.427,1.427,0,0,0-.451-1.445c-.76-.723-1.507-1.461-2.249-2.2-.162-.162-.4-.275-.434-.6Z" transform="translate(-56.026 -66.088)" fill="#e6a33c"/>
        <path id="Trazado_628401" data-name="Trazado 628401" d="M1866.078,569.4a14.43,14.43,0,0,1-3.594.47l1.906-3.964Z" transform="translate(-67.652 -55.586)" fill="#e2a03b"/>
      </g>
    </g>
  </g>
</svg>
