<svg xmlns="http://www.w3.org/2000/svg" width="85" height="85" viewBox="0 0 85 85">
  <g id="Grupo_944771" data-name="Grupo 944771" transform="translate(-285 -5589)">
    <rect id="Rectángulo_306095" data-name="Rectángulo 306095" width="85" height="85" transform="translate(285 5589)" fill="none"/>
    <g id="plan-de-negocios" transform="translate(294.26 5589.225)">
      <g id="Grupo_91597" data-name="Grupo 91597" transform="translate(0.974 11.357)">
        <g id="Grupo_91596" data-name="Grupo 91596" transform="translate(12.24)">
          <path id="Trazado_115621" data-name="Trazado 115621" d="M244.751,373.064a1.679,1.679,0,0,1-1.678-1.678V355.741l1.678-.741,1.679.741v15.644A1.679,1.679,0,0,1,244.751,373.064Z" transform="translate(-224.725 -311.227)" fill="#678d98"/>
          <path id="Trazado_115622" data-name="Trazado 115622" d="M341.061,373.064a1.737,1.737,0,0,1-1.605-1.074l-6.718-16.249,1.246-.741,2.514.741,6.169,14.921a1.737,1.737,0,0,1-1.605,2.4Z" transform="translate(-302.748 -311.227)" fill="#678d98"/>
          <path id="Trazado_115623" data-name="Trazado 115623" d="M103.506,373.064a1.737,1.737,0,0,0,1.606-1.074l6.718-16.249L109.978,355l-1.908.741L101.9,370.662A1.737,1.737,0,0,0,103.506,373.064Z" transform="translate(-101.767 -311.227)" fill="#678d98"/>
          <path id="Trazado_115624" data-name="Trazado 115624" d="M244.751,17.883a1.679,1.679,0,0,0-1.678,1.679V24.4l1.678.731,1.679-.731V19.562A1.679,1.679,0,0,0,244.751,17.883Z" transform="translate(-224.725 -17.883)" fill="#678d98"/>
        </g>
        <path id="Trazado_115625" data-name="Trazado 115625" d="M72.033,70.073v33.935A2.033,2.033,0,0,1,70,106.042H9.533A2.033,2.033,0,0,1,7.5,104.008V70.073A2.033,2.033,0,0,1,9.533,68.04H70A2.033,2.033,0,0,1,72.033,70.073Z" transform="translate(-7.5 -61.527)" fill="#eaf6ff"/>
        <path id="Trazado_115626" data-name="Trazado 115626" d="M466.213,70.073v33.935a2.033,2.033,0,0,1-2.033,2.033H460.5a2.034,2.034,0,0,0,2.035-2.033V70.073A2.034,2.034,0,0,0,460.5,68.04h3.68A2.033,2.033,0,0,1,466.213,70.073Z" transform="translate(-401.68 -61.527)" fill="#c8effe"/>
        <path id="Trazado_115627" data-name="Trazado 115627" d="M65.43,112v3.937a2.587,2.587,0,0,1-2.588,2.587H54.857a2.587,2.587,0,0,1-2.586-2.587V112a2.587,2.587,0,0,1,2.586-2.586h7.985A2.587,2.587,0,0,1,65.43,112Z" transform="translate(-46.457 -97.526)" fill="#5986cb"/>
        <path id="Trazado_115628" data-name="Trazado 115628" d="M111.957,112v3.937a2.587,2.587,0,0,1-2.588,2.587H105.74a2.587,2.587,0,0,0,2.588-2.587V112a2.587,2.587,0,0,0-2.588-2.586h3.629A2.587,2.587,0,0,1,111.957,112Z" transform="translate(-92.984 -97.526)" fill="#4278c3"/>
        <path id="Trazado_115629" data-name="Trazado 115629" d="M135.607,151.674v2.972a1.953,1.953,0,0,1-1.954,1.953h-6.03a1.952,1.952,0,0,1-1.953-1.953v-2.972a1.953,1.953,0,0,1,1.953-1.954h6.03A1.954,1.954,0,0,1,135.607,151.674Z" transform="translate(-110.326 -132.602)" fill="#fff9df"/>
        <path id="Trazado_115630" data-name="Trazado 115630" d="M169.334,151.674v2.972a1.953,1.953,0,0,1-1.954,1.953h-2.95a1.952,1.952,0,0,0,1.953-1.953v-2.972a1.953,1.953,0,0,0-1.953-1.954h2.95A1.954,1.954,0,0,1,169.334,151.674Z" transform="translate(-144.053 -132.602)" fill="#fff0ad"/>
        <path id="Trazado_115631" data-name="Trazado 115631" d="M330.139,68.04V99.2a2.146,2.146,0,0,1-2.146,2.145h-16.07a2.146,2.146,0,0,1-2.145-2.145V68.04Z" transform="translate(-270.529 -61.527)" fill="#fff9df"/>
        <path id="Trazado_115632" data-name="Trazado 115632" d="M425.543,68.04V99.2a2.146,2.146,0,0,1-2.146,2.145h-3.978a2.145,2.145,0,0,0,2.145-2.145V68.04Z" transform="translate(-365.933 -61.527)" fill="#fff0ad"/>
        <path id="Trazado_115633" data-name="Trazado 115633" d="M360.128,45.022v2.389a2.061,2.061,0,0,1-2.061,2.062H352.35a2.062,2.062,0,0,1-2.062-2.062V45.022a2.062,2.062,0,0,1,2.062-2.062h5.717A2.061,2.061,0,0,1,360.128,45.022Z" transform="translate(-305.779 -39.704)" fill="#7ca1b1"/>
        <path id="Trazado_115634" data-name="Trazado 115634" d="M391,45.022v2.389a2.061,2.061,0,0,1-2.061,2.062h-3.172a2.062,2.062,0,0,0,2.062-2.062V45.022a2.062,2.062,0,0,0-2.062-2.062h3.172A2.061,2.061,0,0,1,391,45.022Z" transform="translate(-336.652 -39.704)" fill="#678d98"/>
        <path id="Trazado_115635" data-name="Trazado 115635" d="M341.836,123.868h3.357v3.357h-3.357Z" transform="translate(-298.424 -110.106)" fill="#4278c3"/>
        <path id="Trazado_115636" data-name="Trazado 115636" d="M341.836,209.421h3.357v3.357h-3.357Z" transform="translate(-298.424 -184.551)" fill="#ffd064"/>
        <path id="Trazado_115637" data-name="Trazado 115637" d="M341.836,265.124h3.357v3.357h-3.357Z" transform="translate(-298.424 -233.021)" fill="#4278c3"/>
      </g>
      <g id="Grupo_91598" data-name="Grupo 91598" transform="translate(0 10.383)">
        <path id="Trazado_115638" data-name="Trazado 115638" d="M63.473,16.9H56.3a3.1,3.1,0,0,0-3.035-3.256H47.545A3.1,3.1,0,0,0,44.509,16.9H35.892v-3.86a2.652,2.652,0,0,0-5.3,0V16.9H3.008A3.011,3.011,0,0,0,0,19.9V53.837a3.011,3.011,0,0,0,3.008,3.008H18.06L12.448,70.42a2.711,2.711,0,0,0,5.011,2.072l1.778-4.3a.974.974,0,0,0-1.8-.744l-1.778,4.3a.764.764,0,0,1-1.411-.583l5.92-14.32H21.82l-2.6,6.286a.974.974,0,0,0,1.8.744l2.906-7.03h6.66v14.67a2.652,2.652,0,0,0,5.3,0V56.845h6.66l6.469,15.647a2.711,2.711,0,0,0,5.011-2.072L48.42,56.845h5.992a.974.974,0,1,0,0-1.948H3.008a1.061,1.061,0,0,1-1.06-1.06V19.9a1.061,1.061,0,0,1,1.06-1.06H39.249V49.025a3.123,3.123,0,0,0,3.12,3.12H58.438a3.123,3.123,0,0,0,3.12-3.12V18.843h1.915a1.061,1.061,0,0,1,1.06,1.06V53.837a1.061,1.061,0,0,1-1.06,1.06H59.079a.974.974,0,1,0,0,1.948h4.394a3.011,3.011,0,0,0,3.008-3.008V19.9A3.011,3.011,0,0,0,63.473,16.9ZM46.313,56.845l5.92,14.32a.764.764,0,0,1-1.411.583l-6.161-14.9Zm-12.368,0v14.67a.705.705,0,0,1-1.409,0V56.845Zm12.512-40.17a1.089,1.089,0,0,1,1.088-1.088h5.717a1.089,1.089,0,0,1,1.088,1.088v2.39a1.089,1.089,0,0,1-1.088,1.088H47.545a1.089,1.089,0,0,1-1.088-1.088ZM32.535,16.9v-3.86a.705.705,0,0,1,1.409,0V16.9ZM59.61,49.025A1.174,1.174,0,0,1,58.438,50.2H42.369A1.174,1.174,0,0,1,41.2,49.025V18.843h3.313A3.1,3.1,0,0,0,47.545,22.1h5.717A3.1,3.1,0,0,0,56.3,18.843H59.61V49.025Z" transform="translate(0 -10.383)"/>
        <path id="Trazado_115639" data-name="Trazado 115639" d="M46.744,254.532h21.13a.974.974,0,1,0,0-1.948H47.718v-8.023a.974.974,0,0,0-1.948,0v9A.974.974,0,0,0,46.744,254.532Z" transform="translate(-39.827 -213.308)"/>
        <path id="Trazado_115640" data-name="Trazado 115640" d="M102.587,196.042a.974.974,0,0,0-1.377-1.377l-5.553,5.553H91.9l-2.471-1.361a.974.974,0,0,0-1.158.164l-2.533,2.533H83.325a.973.973,0,0,0-.689.285l-4.523,4.523a.974.974,0,1,0,1.377,1.377l4.238-4.238h2.415a.973.973,0,0,0,.689-.285l2.3-2.3,2.05,1.129a.974.974,0,0,0,.47.121H96.06a.973.973,0,0,0,.689-.285Z" transform="translate(-67.723 -170.488)"/>
        <path id="Trazado_115641" data-name="Trazado 115641" d="M335.31,121.673h3.357a.974.974,0,0,0,.974-.974v-3.357a.974.974,0,0,0-.974-.974H335.31a.974.974,0,0,0-.974.974V120.7A.974.974,0,0,0,335.31,121.673Zm.974-3.357h1.409v1.409h-1.409Z" transform="translate(-290.924 -102.606)"/>
        <path id="Trazado_115642" data-name="Trazado 115642" d="M338.667,201.92H335.31a.974.974,0,0,0-.974.974v3.357a.974.974,0,0,0,.974.974h3.357a.974.974,0,0,0,.974-.974v-3.357A.974.974,0,0,0,338.667,201.92Zm-.974,3.357h-1.409v-1.409h1.409Z" transform="translate(-290.924 -177.05)"/>
        <path id="Trazado_115643" data-name="Trazado 115643" d="M338.667,257.624H335.31a.974.974,0,0,0-.974.974v3.357a.974.974,0,0,0,.974.974h3.357a.974.974,0,0,0,.974-.974V258.6A.974.974,0,0,0,338.667,257.624Zm-.974,3.357h-1.409v-1.409h1.409Z" transform="translate(-290.924 -225.521)"/>
        <path id="Trazado_115644" data-name="Trazado 115644" d="M387.363,129.294a.974.974,0,1,0,0,1.948h5.461a.974.974,0,1,0,0-1.948Z" transform="translate(-336.219 -113.854)"/>
        <path id="Trazado_115645" data-name="Trazado 115645" d="M392.824,214.848h-5.461a.974.974,0,1,0,0,1.948h5.461a.974.974,0,1,0,0-1.948Z" transform="translate(-336.219 -188.299)"/>
        <path id="Trazado_115646" data-name="Trazado 115646" d="M414.721,270.551h-2.193a.974.974,0,0,0,0,1.948h2.193a.974.974,0,0,0,0-1.948Z" transform="translate(-358.116 -236.77)"/>
        <path id="Trazado_115647" data-name="Trazado 115647" d="M335.31,174.019h8.728a.974.974,0,0,0,0-1.948H335.31a.974.974,0,1,0,0,1.948Z" transform="translate(-290.924 -151.077)"/>
        <circle id="Elipse_5232" data-name="Elipse 5232" cx="1.007" cy="1.007" r="1.007" transform="translate(49.929 33.985) rotate(-13.3)"/>
        <circle id="Elipse_5233" data-name="Elipse 5233" cx="1.007" cy="1.007" r="1.007" transform="translate(55.31 22.514) rotate(-67.486)"/>
        <path id="Trazado_115648" data-name="Trazado 115648" d="M192.269,112.167H182.141a.974.974,0,0,0,0,1.948h10.128a.974.974,0,0,0,0-1.948Z" transform="translate(-157.644 -98.951)"/>
        <path id="Trazado_115649" data-name="Trazado 115649" d="M237.331,148.474a.974.974,0,0,0-.974-.974h-3.549a.974.974,0,0,0,0,1.948h3.549A.974.974,0,0,0,237.331,148.474Z" transform="translate(-201.732 -129.696)"/>
        <path id="Trazado_115650" data-name="Trazado 115650" d="M48.329,103.858h7.985a1.608,1.608,0,0,1,1.258.6.974.974,0,1,0,1.516-1.223,3.548,3.548,0,0,0-2.773-1.326H48.329a3.564,3.564,0,0,0-3.56,3.56v3.937a3.564,3.564,0,0,0,3.56,3.56H54.3a2.964,2.964,0,0,0,2.927,3h6.03a2.931,2.931,0,0,0,2.927-2.927v-2.973a2.931,2.931,0,0,0-2.927-2.927h-6.03a2.931,2.931,0,0,0-2.927,2.927v.948h-5.97a1.615,1.615,0,0,1-1.613-1.613V105.47a1.615,1.615,0,0,1,1.613-1.613Zm15.907,6.214v2.973a.981.981,0,0,1-.98.98h-6.03a1,1,0,0,1-.98-1.056,3.649,3.649,0,0,0,3.629-3.876h3.38A.981.981,0,0,1,64.236,110.072Zm-7.989,0a.981.981,0,0,1,.98-.98h.7c0,1.013-.541,1.961-1.682,1.928Z" transform="translate(-38.956 -90.026)"/>
      </g>
    </g>
  </g>
</svg>
