<svg xmlns="http://www.w3.org/2000/svg" xmlns:xlink="http://www.w3.org/1999/xlink" width="505" height="244.034" viewBox="0 0 505 244.034">
  <defs>
    <clipPath id="clip-path">
      <rect id="Rectángulo_297948" data-name="Rectángulo 297948" width="4.632" height="49.734" fill="none"/>
    </clipPath>
    <clipPath id="clip-path-2">
      <rect id="Rectángulo_297965" data-name="Rectángulo 297965" width="5.86" height="3.86" fill="none"/>
    </clipPath>
    <clipPath id="clip-path-3">
      <rect id="Rectángulo_297966" data-name="Rectángulo 297966" width="19.932" height="9.841" fill="none"/>
    </clipPath>
    <clipPath id="clip-path-4">
      <rect id="Rectángulo_297967" data-name="Rectángulo 297967" width="4.715" height="3.863" fill="none"/>
    </clipPath>
    <clipPath id="clip-path-5">
      <rect id="Rectángulo_297968" data-name="Rectángulo 297968" width="21.998" height="2.159" fill="none"/>
    </clipPath>
    <clipPath id="clip-path-6">
      <rect id="Rectángulo_297969" data-name="Rectángulo 297969" width="5.474" height="24.256" fill="none"/>
    </clipPath>
    <clipPath id="clip-path-7">
      <rect id="Rectángulo_297971" data-name="Rectángulo 297971" width="4.85" height="3.905" fill="none"/>
    </clipPath>
    <clipPath id="clip-path-8">
      <rect id="Rectángulo_297972" data-name="Rectángulo 297972" width="22.624" height="2.254" fill="none"/>
    </clipPath>
    <clipPath id="clip-path-9">
      <rect id="Rectángulo_297973" data-name="Rectángulo 297973" width="4.851" height="3.905" fill="none"/>
    </clipPath>
    <clipPath id="clip-path-11">
      <rect id="Rectángulo_297978" data-name="Rectángulo 297978" width="4.886" height="6.631" fill="none"/>
    </clipPath>
    <clipPath id="clip-path-12">
      <rect id="Rectángulo_297979" data-name="Rectángulo 297979" width="20.222" height="15.316" fill="none"/>
    </clipPath>
    <clipPath id="clip-path-13">
      <rect id="Rectángulo_297980" data-name="Rectángulo 297980" width="12.752" height="9.537" fill="none"/>
    </clipPath>
    <clipPath id="clip-path-14">
      <rect id="Rectángulo_297981" data-name="Rectángulo 297981" width="6" height="4.2" fill="none"/>
    </clipPath>
    <clipPath id="clip-path-15">
      <rect id="Rectángulo_297982" data-name="Rectángulo 297982" width="24.102" height="5.834" fill="none"/>
    </clipPath>
    <clipPath id="clip-path-16">
      <rect id="Rectángulo_297983" data-name="Rectángulo 297983" width="14.56" height="3.954" fill="none"/>
    </clipPath>
  </defs>
  <g id="Grupo_980642" data-name="Grupo 980642" transform="translate(-915 -942)">
    <rect id="Rectángulo_342571" data-name="Rectángulo 342571" width="505" height="114" rx="11" transform="translate(915 1072)" fill="#c4bbe5"/>
    <path id="Trazado_654805" data-name="Trazado 654805" d="M2586.185-1932.351a26.448,26.448,0,0,1,8.242-19.532c3.618-3.6,7.135-7.324,10.676-11.016q13.336-13.907,26.657-27.83c3.618-3.767,7.169-7.623,10.955-11.187,6.625-6.24,14.379-7.856,22.65-4.948,8.49,2.985,13.852,9.482,15.578,18.947,1.579,8.653-.487,16.417-6.429,22.639q-24.648,25.8-49.451,51.436c-8.775,9.049-23.467,8.432-32.175-1.111A25.2,25.2,0,0,1,2586.185-1932.351Z" transform="translate(-1293.533 3036.413)" fill="#ef8b53"/>
    <path id="Trazado_654806" data-name="Trazado 654806" d="M2586.185-1878.134c.039-13.834,5.167-24.56,14.129-33.483,6.2-6.176,12.231-12.555,18.3-18.884q22.861-23.84,45.7-47.707c6.2-6.458,12.289-13.067,18.779-19.177,11.357-10.7,24.648-13.467,38.827-8.482,14.552,5.116,23.745,16.253,26.7,32.478,2.706,14.833-.836,28.143-11.022,38.807q-42.251,44.234-84.77,88.171c-15.042,15.512-40.227,14.454-55.155-1.9A43.194,43.194,0,0,1,2586.185-1878.134Z" transform="translate(-1624.398 2969.264)" fill="none" stroke="#583cb6" stroke-width="5"/>
    <g id="Grupo_980641" data-name="Grupo 980641" transform="translate(8130.219 11729.705)">
      <path id="Trazado_599994" data-name="Trazado 599994" d="M369.919,89.937a21.991,21.991,0,1,1,20.5,23.384,21.991,21.991,0,0,1-20.5-23.384" transform="translate(-7222.793 -10845.55)" fill="#ffead8"/>
      <path id="Trazado_599995" data-name="Trazado 599995" d="M409.835,95.631a3.329,3.329,0,0,1-.777.069l-2.137.058c-1.814.034-4.341.056-7.193.062h-.189v-.189c0-.457,0-.938,0-1.426,0-3.186.021-6.07.056-8.157.024-.982.045-1.809.061-2.472a4.179,4.179,0,0,1,.074-.906,4.132,4.132,0,0,1,.075.906c.016.662.036,1.489.06,2.472.034,2.087.056,4.971.056,8.157,0,.488,0,.969,0,1.426l-.189-.189c2.852.006,5.379.029,7.193.062l2.137.058a3.328,3.328,0,0,1,.777.069" transform="translate(-7230.779 -10849.126)" fill="#ff725e"/>
      <path id="Trazado_599996" data-name="Trazado 599996" d="M399.819,74.33a4.651,4.651,0,0,1,.19,1.847,4.651,4.651,0,0,1-.19,1.847,4.65,4.65,0,0,1-.19-1.847,4.65,4.65,0,0,1,.19-1.847" transform="translate(-7230.804 -10846.88)" fill="#ff725e"/>
      <path id="Trazado_599997" data-name="Trazado 599997" d="M412.65,78.387c.075.075-.442.711-1.153,1.422s-1.348,1.227-1.422,1.153.442-.711,1.153-1.422,1.348-1.228,1.422-1.153" transform="translate(-7233.614 -10847.971)" fill="#ff725e"/>
      <path id="Trazado_599998" data-name="Trazado 599998" d="M420.47,87.142c.047.1-.639.533-1.49,1.052a5.4,5.4,0,0,1-1.621.838c-.061-.083.555-.637,1.423-1.163a3.887,3.887,0,0,1,1.688-.727" transform="translate(-7235.576 -10850.325)" fill="#ff725e"/>
      <path id="Trazado_599999" data-name="Trazado 599999" d="M424.46,100.074a16.8,16.8,0,0,1-5.038,0,16.794,16.794,0,0,1,5.038,0" transform="translate(-7236.132 -10853.76)" fill="#ff725e"/>
      <path id="Trazado_600000" data-name="Trazado 600000" d="M376.765,99.614a14.989,14.989,0,0,1-4.758,0,14.989,14.989,0,0,1,4.758,0" transform="translate(-7223.368 -10853.636)" fill="#ff725e"/>
      <path id="Trazado_600001" data-name="Trazado 600001" d="M380.508,109.357a15.522,15.522,0,0,1-3.774,3.04,15.525,15.525,0,0,1,3.774-3.04" transform="translate(-7224.64 -10856.309)" fill="#ff725e"/>
      <path id="Trazado_600002" data-name="Trazado 600002" d="M389.3,116.842a10.8,10.8,0,0,1-1.182,2.146,10.823,10.823,0,0,1-1.34,2.051,10.527,10.527,0,0,1,2.522-4.2" transform="translate(-7227.342 -10858.324)" fill="#ff725e"/>
      <path id="Trazado_600003" data-name="Trazado 600003" d="M399.82,124.638a8.5,8.5,0,0,1-.19-2.519,8.5,8.5,0,0,1,.19-2.519,8.5,8.5,0,0,1,.19,2.519,8.5,8.5,0,0,1-.19,2.519" transform="translate(-7230.804 -10859.067)" fill="#ff725e"/>
      <path id="Trazado_600004" data-name="Trazado 600004" d="M413.357,120.689a9.349,9.349,0,0,1-3.769-3.286,13.788,13.788,0,0,1,1.911,1.613,13.709,13.709,0,0,1,1.858,1.674" transform="translate(-7233.483 -10858.475)" fill="#ff725e"/>
      <path id="Trazado_600005" data-name="Trazado 600005" d="M420.563,113.234a13.031,13.031,0,0,1-3.135-3.134,13.03,13.03,0,0,1,3.135,3.134" transform="translate(-7235.594 -10856.508)" fill="#ff725e"/>
      <path id="Trazado_600006" data-name="Trazado 600006" d="M380.569,89.4c-.075.075-.749-.479-1.506-1.237s-1.311-1.432-1.237-1.505.748.479,1.505,1.236,1.312,1.432,1.237,1.506" transform="translate(-7224.933 -10850.198)" fill="#ff725e"/>
      <path id="Trazado_600007" data-name="Trazado 600007" d="M389.193,80.361c-.074.075-.737-.466-1.481-1.206s-1.287-1.4-1.212-1.475.737.465,1.481,1.205,1.286,1.4,1.212,1.475" transform="translate(-7227.268 -10847.78)" fill="#ff725e"/>
      <path id="Trazado_600011" data-name="Trazado 600011" d="M319.559,438.517c0,.105-70.552.19-157.563.19-87.041,0-157.578-.085-157.578-.19s70.537-.19,157.578-.19c87.01,0,157.563.085,157.563.19" transform="translate(-7124.408 -10985.62)" fill="#263238"/>
      <rect id="Rectángulo_297928" data-name="Rectángulo 297928" width="138.048" height="82.444" transform="translate(-7011.247 -10780.098)" fill="#fafafa"/>
      <path id="Trazado_600012" data-name="Trazado 600012" d="M291.5,142.233H152.722V59.058H291.5Zm-138.049-.478H290.77V59.536H153.452Z" transform="translate(-7164.333 -10839.521)" fill="#263238"/>
      <rect id="Rectángulo_297929" data-name="Rectángulo 297929" width="143.735" height="8.062" transform="translate(-7014.438 -10787.705)" fill="#263238"/>
      <path id="Trazado_600013" data-name="Trazado 600013" d="M153.653,60.181l137.422,13.49L291,60.181Z" transform="translate(-7164.583 -10839.824)" fill="#e0e0e0"/>
      <rect id="Rectángulo_297930" data-name="Rectángulo 297930" width="4.632" height="51.731" transform="translate(-6989.772 -10781.463)" fill="#ef8b53"/>
      <rect id="Rectángulo_297931" data-name="Rectángulo 297931" width="4.632" height="34.161" transform="translate(-6980.83 -10763.894)" fill="#ef8b53"/>
      <rect id="Rectángulo_297932" data-name="Rectángulo 297932" width="4.632" height="45.564" transform="translate(-6971.886 -10775.033)" fill="#ef8b53"/>
      <rect id="Rectángulo_297933" data-name="Rectángulo 297933" width="4.632" height="49.734" transform="translate(-6962.944 -10779.467)" fill="#e8505b"/>
      <rect id="Rectángulo_297934" data-name="Rectángulo 297934" width="4.632" height="33.11" transform="translate(-6954.001 -10762.841)" fill="#ef8b53"/>
      <rect id="Rectángulo_297935" data-name="Rectángulo 297935" width="4.632" height="26.616" transform="translate(-6945.059 -10756.349)" fill="#ef8b53"/>
      <rect id="Rectángulo_297936" data-name="Rectángulo 297936" width="4.632" height="46.421" transform="translate(-6936.116 -10776.154)" fill="#ef8b53"/>
      <rect id="Rectángulo_297937" data-name="Rectángulo 297937" width="4.632" height="38.052" transform="translate(-6927.173 -10767.784)" fill="#ef8b53"/>
      <rect id="Rectángulo_297938" data-name="Rectángulo 297938" width="4.632" height="44.74" transform="translate(-6918.23 -10774.473)" fill="#ef8b53"/>
      <rect id="Rectángulo_297939" data-name="Rectángulo 297939" width="4.632" height="30.48" transform="translate(-6909.288 -10760.213)" fill="#ef8b53"/>
      <rect id="Rectángulo_297940" data-name="Rectángulo 297940" width="4.632" height="36.281" transform="translate(-6900.345 -10766.013)" fill="#ef8b53"/>
      <path id="Trazado_600014" data-name="Trazado 600014" d="M274.742,133.652a1.777,1.777,0,0,1-.3-.048l-.865-.178a13.573,13.573,0,0,0-1.416-.224,17.421,17.421,0,0,0-1.948-.163,22.531,22.531,0,0,0-5.324.457,23.477,23.477,0,0,0-6.606,2.5,27.03,27.03,0,0,0-6.689,5.326,50.9,50.9,0,0,0-5.638,8.093,48.952,48.952,0,0,1-6.335,8.954,16.559,16.559,0,0,1-4.668,3.491,9.794,9.794,0,0,1-2.876.88,9.311,9.311,0,0,1-3.051-.1,12.445,12.445,0,0,1-5.313-2.786,24.792,24.792,0,0,1-3.935-4.294,91.218,91.218,0,0,1-5.642-9.407,38.829,38.829,0,0,0-5.636-8.07,15.316,15.316,0,0,0-3.484-2.741,14.805,14.805,0,0,0-1.883-.913,14.959,14.959,0,0,0-1.922-.569,13.942,13.942,0,0,0-6.984.2,15.75,15.75,0,0,0-4.793,2.3,17.5,17.5,0,0,0-2.518,2.257l-.586.661a1.836,1.836,0,0,1-.21.218,1.688,1.688,0,0,1,.18-.242l.559-.687a16.291,16.291,0,0,1,2.488-2.325,15.662,15.662,0,0,1,4.822-2.39,14.106,14.106,0,0,1,7.1-.254,14.662,14.662,0,0,1,7.456,4.266,38.88,38.88,0,0,1,5.715,8.118,91.977,91.977,0,0,0,5.637,9.358,24.514,24.514,0,0,0,3.879,4.227,12.1,12.1,0,0,0,5.148,2.7,8.935,8.935,0,0,0,2.92.1,9.454,9.454,0,0,0,2.768-.846,16.247,16.247,0,0,0,4.563-3.409,48.982,48.982,0,0,0,6.3-8.876,50.769,50.769,0,0,1,5.7-8.124,27.141,27.141,0,0,1,6.792-5.349,23.485,23.485,0,0,1,6.693-2.474,22.193,22.193,0,0,1,5.373-.4,16.89,16.89,0,0,1,1.958.2,12.3,12.3,0,0,1,1.416.262l.859.215a1.766,1.766,0,0,1,.289.086" transform="translate(-7173.324 -10903.386)" fill="#263238"/>
      <path id="Trazado_600015" data-name="Trazado 600015" d="M175.56,169.337c-.105,0-.19-14.751-.19-32.944s.085-32.947.19-32.947.19,14.748.19,32.947-.085,32.944-.19,32.944" transform="translate(-7170.431 -10881.461)" fill="#263238"/>
      <path id="Trazado_600016" data-name="Trazado 600016" d="M277.749,193.54c0,.105-21.972.19-49.069.19s-49.074-.085-49.074-.19,21.967-.19,49.074-.19,49.069.085,49.069.19" transform="translate(-7171.571 -10919.67)" fill="#263238"/>
      <path id="Trazado_600017" data-name="Trazado 600017" d="M189.116,199.112a31.193,31.193,0,0,1-6.875,0,31.193,31.193,0,0,1,6.875,0" transform="translate(-7172.28 -10921.169)" fill="#263238"/>
      <path id="Trazado_600018" data-name="Trazado 600018" d="M204.225,199.4a22.337,22.337,0,0,1-4.108.19,22.336,22.336,0,0,1-4.108-.19,22.339,22.339,0,0,1,4.108-.19,22.341,22.341,0,0,1,4.108.19" transform="translate(-7175.987 -10921.245)" fill="#263238"/>
      <path id="Trazado_600019" data-name="Trazado 600019" d="M217.533,199.4a44.5,44.5,0,0,1-8.216,0,44.51,44.51,0,0,1,8.216,0" transform="translate(-7179.57 -10921.245)" fill="#263238"/>
      <path id="Trazado_600020" data-name="Trazado 600020" d="M230.841,199.4a44.5,44.5,0,0,1-8.216,0,44.51,44.51,0,0,1,8.216,0" transform="translate(-7183.152 -10921.245)" fill="#263238"/>
      <path id="Trazado_600021" data-name="Trazado 600021" d="M244.149,199.4a44.5,44.5,0,0,1-8.216,0,44.51,44.51,0,0,1,8.216,0" transform="translate(-7186.735 -10921.245)" fill="#263238"/>
      <path id="Trazado_600022" data-name="Trazado 600022" d="M257.458,199.4a44.5,44.5,0,0,1-8.216,0,44.51,44.51,0,0,1,8.216,0" transform="translate(-7190.318 -10921.245)" fill="#263238"/>
      <path id="Trazado_600023" data-name="Trazado 600023" d="M270.766,199.4a44.5,44.5,0,0,1-8.216,0,44.511,44.511,0,0,1,8.216,0" transform="translate(-7193.901 -10921.245)" fill="#263238"/>
      <path id="Trazado_600024" data-name="Trazado 600024" d="M284.075,199.4a44.511,44.511,0,0,1-8.217,0,44.518,44.518,0,0,1,8.217,0" transform="translate(-7197.483 -10921.245)" fill="#263238"/>
      <path id="Trazado_600025" data-name="Trazado 600025" d="M297.383,199.4a44.5,44.5,0,0,1-8.216,0,44.511,44.511,0,0,1,8.216,0" transform="translate(-7201.066 -10921.245)" fill="#263238"/>
      <path id="Trazado_600026" data-name="Trazado 600026" d="M310.691,199.4a44.5,44.5,0,0,1-8.216,0,44.51,44.51,0,0,1,8.216,0" transform="translate(-7204.649 -10921.245)" fill="#263238"/>
      <path id="Trazado_600027" data-name="Trazado 600027" d="M225.435,151.456c0-.058.417.088.55.658a1.4,1.4,0,0,1-.105.98.849.849,0,0,1-.5.419.9.9,0,0,1-.691-.082,1.157,1.157,0,0,1-.59-1.085,1.2,1.2,0,0,1,.474-.875.784.784,0,0,1,.65-.161c.158.048.211.124.2.14-.016.053-.345-.1-.677.227a.99.99,0,0,0-.3.684.834.834,0,0,0,.421.735.5.5,0,0,0,.7-.178,1.24,1.24,0,0,0,.145-.756,1.716,1.716,0,0,0-.286-.706" transform="translate(-7183.549 -10908.347)" fill="#263238"/>
      <path id="Trazado_600028" data-name="Trazado 600028" d="M286.744,134.382c0-.021.107-.056.294,0a1.144,1.144,0,0,1,.607.525,1.506,1.506,0,0,1,.15,1.193,1.256,1.256,0,0,1-1.163.93,1,1,0,0,1-.741-.387,1.594,1.594,0,0,1-.313-.662,1.523,1.523,0,0,1,.191-1.183c.418-.592.936-.562.917-.518.025.056-.408.139-.685.656a1.314,1.314,0,0,0-.083.962c.09.35.359.749.725.751a.931.931,0,0,0,.818-.658,1.3,1.3,0,0,0-.055-.959,1.378,1.378,0,0,0-.664-.65" transform="translate(-7200.089 -10903.761)" fill="#263238"/>
      <path id="Trazado_600029" data-name="Trazado 600029" d="M288.112,100.575c-.105,0-.19-.246-.19-.548s.085-.548.19-.548.19.246.19.548-.085.548-.19.548" transform="translate(-7200.731 -10879.303)" fill="#263238"/>
      <path id="Trazado_600030" data-name="Trazado 600030" d="M288.112,106.677c-.105,0-.19-.539-.19-1.2s.085-1.2.19-1.2.19.539.19,1.2-.085,1.2-.19,1.2" transform="translate(-7200.731 -10872.539)" fill="#263238"/>
      <path id="Trazado_600031" data-name="Trazado 600031" d="M288.112,113.26c-.105,0-.19-.539-.19-1.2s.085-1.2.19-1.2.19.539.19,1.2-.085,1.2-.19,1.2" transform="translate(-7200.731 -10897.46)" fill="#263238"/>
      <path id="Trazado_600032" data-name="Trazado 600032" d="M288.112,119.843c-.105,0-.19-.539-.19-1.2s.085-1.2.19-1.2.19.539.19,1.2-.085,1.2-.19,1.2" transform="translate(-7200.731 -10899.232)" fill="#263238"/>
      <path id="Trazado_600033" data-name="Trazado 600033" d="M288.112,126.426c-.105,0-.19-.539-.19-1.2s.085-1.2.19-1.2.19.539.19,1.2-.085,1.2-.19,1.2" transform="translate(-7200.731 -10901.005)" fill="#263238"/>
      <path id="Trazado_600034" data-name="Trazado 600034" d="M288.112,131.7c-.105,0-.19-.246-.19-.548s.085-.548.19-.548.19.246.19.548-.085.548-.19.548" transform="translate(-7200.731 -10902.777)" fill="#263238"/>
      <path id="Trazado_600035" data-name="Trazado 600035" d="M320.775,88.244c0,.105-7.6.19-16.97.19s-16.971-.085-16.971-.19,7.6-.19,16.971-.19,16.97.085,16.97.19" transform="translate(-7200.438 -10874.898)" fill="#263238"/>
      <path id="Trazado_600036" data-name="Trazado 600036" d="M309.371,81.741c0,.106-4.889.191-10.919.191s-10.919-.085-10.919-.191,4.888-.189,10.919-.189,10.919.085,10.919.189" transform="translate(-7200.626 -10868.725)" fill="#263238"/>
      <g id="Grupo_878166" data-name="Grupo 878166" transform="translate(-6962.944 -10779.465)">
        <g id="Grupo_878165" data-name="Grupo 878165" clip-path="url(#clip-path)">
          <rect id="Rectángulo_297947" data-name="Rectángulo 297947" width="4.632" height="49.734" fill="#fff"/>
        </g>
      </g>
      <rect id="Rectángulo_297964" data-name="Rectángulo 297964" width="5.057" height="60.59" transform="translate(-6844.019 -10617.043)" fill="#455a64"/>
      <path id="Trazado_600037" data-name="Trazado 600037" d="M336.55,343.742h72.329a7.851,7.851,0,0,0-7.851-7.851H344.4a7.851,7.851,0,0,0-7.851,7.851" transform="translate(-7213.822 -10958.043)" fill="#455a64"/>
      <path id="Trazado_600038" data-name="Trazado 600038" d="M378.791,346.778a52.918,52.918,0,0,0,8.874,0,52.9,52.9,0,0,0-8.874,0" transform="translate(-7225.194 -10960.925)" fill="#263238"/>
      <path id="Trazado_600039" data-name="Trazado 600039" d="M355.244,425.114h.715a21.518,21.518,0,1,1,43.036,0h.715a22.233,22.233,0,1,0-44.467,0" transform="translate(-7218.855 -10976.078)" fill="#455a64"/>
      <path id="Trazado_600040" data-name="Trazado 600040" d="M411.041,433.587a3.333,3.333,0,1,0,3.334-3.334,3.334,3.334,0,0,0-3.334,3.334" transform="translate(-7233.877 -10983.446)" fill="#263238"/>
      <path id="Trazado_600041" data-name="Trazado 600041" d="M350.944,432.958a3.333,3.333,0,1,0,3.334-3.334,3.334,3.334,0,0,0-3.334,3.334" transform="translate(-7217.697 -10983.278)" fill="#455a64"/>
      <path id="Trazado_600042" data-name="Trazado 600042" d="M355.538,425.724c0,.1,9.675.186,21.606.186s21.609-.083,21.609-.186-9.673-.186-21.609-.186-21.606.083-21.606.186" transform="translate(-7218.934 -10982.179)" fill="#455a64"/>
      <path id="Trazado_600043" data-name="Trazado 600043" d="M421.868,259.063v44.6a10.592,10.592,0,0,1-10.592,10.591H376.907l4.669-55.194a4.721,4.721,0,0,1,4.72-4.721h30.851a4.721,4.721,0,0,1,4.721,4.721" transform="translate(-7224.687 -10936.089)" fill="#455a64"/>
      <path id="Trazado_600044" data-name="Trazado 600044" d="M421.807,314.724c-.005,0,.022-.048.079-.13l.252-.366c.228-.315.553-.789.945-1.416a23.465,23.465,0,0,0,2.561-5.68,23.056,23.056,0,0,0,.851-4.218,43.22,43.22,0,0,0,.136-4.953c0-3.508-.009-7.358-.015-11.4.02-8.076.039-15.384.053-20.715.024-2.625.044-4.76.058-6.277q.021-1.074.034-1.707a3.66,3.66,0,0,1,.036-.595,3.725,3.725,0,0,1,.036.595q.013.634.034,1.707c.014,1.516.034,3.652.058,6.277.013,5.331.032,12.639.053,20.715-.005,4.043-.01,7.893-.014,11.4a42.442,42.442,0,0,1-.171,4.986,22.821,22.821,0,0,1-.9,4.26,22.348,22.348,0,0,1-2.686,5.682c-.412.619-.757,1.082-1,1.384a3.114,3.114,0,0,1-.389.452" transform="translate(-7236.774 -10936.876)" fill="#263238"/>
      <path id="Trazado_600045" data-name="Trazado 600045" d="M396.2,335.885a6.309,6.309,0,0,1,1.092-.062l2.978-.037c2.515-.015,5.991-.009,9.828.018,1.918.018,3.75.021,5.409.064a17.474,17.474,0,0,1,4.412.482,6.823,6.823,0,0,1,2.654,1.39,4.465,4.465,0,0,1,.577.577c.122.141.18.218.172.227-.031.03-.281-.275-.837-.695a7.149,7.149,0,0,0-2.632-1.253,18.276,18.276,0,0,0-4.353-.4l-5.409-.035c-3.835-.028-7.307-.072-9.821-.123l-2.976-.078a6.409,6.409,0,0,1-1.093-.078" transform="translate(-7229.88 -10958.013)" fill="#263238"/>
      <path id="Trazado_600046" data-name="Trazado 600046" d="M350.551,196.192c-1.014,3.118-2.04,6.309-1.968,9.586.033,1.516.279,3.142-.467,4.462a13.141,13.141,0,0,1-2.157,2.292,6.77,6.77,0,0,0-1.2,7.279,4.59,4.59,0,0,0,1.731,2.06,6.541,6.541,0,0,0,3.028.706,50.763,50.763,0,0,0,10.435-.472c1.649-.246,3.434-.662,4.453-1.98a6.518,6.518,0,0,0,.923-4.282,40.8,40.8,0,0,0-4.1-16.351" transform="translate(-7215.879 -10920.435)" fill="#263238"/>
      <path id="Trazado_600047" data-name="Trazado 600047" d="M380.814,191.087a2.58,2.58,0,1,1-.342,4.784c1.677-.29,3.286.979,4.065,2.493a21.42,21.42,0,0,1,1.359,4.906,6.565,6.565,0,0,0,2.575,4.252c1.387.841,3.343.876,4.242,2.227.933,1.4.113,3.318.5,4.958s1.88,2.711,3.2,3.739,2.683,2.39,2.613,4.064a3.821,3.821,0,0,1-2.287,3.083,9.97,9.97,0,0,1-3.93.761,57.771,57.771,0,0,1-19.619-2.528,5.375,5.375,0,0,1-2.713-1.5c-1-1.247-.767-3.049-.477-4.623a104.724,104.724,0,0,1,3.482-14.809,35.037,35.037,0,0,1,7.53-13.1" transform="translate(-7222.762 -10918.712)" fill="#263238"/>
      <path id="Trazado_600048" data-name="Trazado 600048" d="M372.35,247.686h7.81l-2.775-13.916c-2.044-11.389-18.01-12.173-18.01-12.173l-12.531-.2s-9.289-1.249-15.023,5.215c-1.177,1.327-2.407,2.7-3.624,4.053l-13.59,14.218-1.443-17.839-11.641,1.826,1.627,22.4a9.179,9.179,0,0,0,6.153,7.94c2.518.8,5.078.1,7.632-1.175,6.779-3.381,19.492-14.133,20.467-14.961a16.262,16.262,0,0,0-1.756,6.514c0,3.709,3.806,6.486,3.806,6.486l1.186,11.292L336.7,285.6l40.918-1.641a40.689,40.689,0,0,0-6.033-17.195Zm-34.921-4.664a1.046,1.046,0,0,1-.135-.276l.438-.311s-.121.217-.3.587" transform="translate(-7204.393 -10927.193)" fill="#583cb6"/>
      <path id="Trazado_600049" data-name="Trazado 600049" d="M368.1,296.988a70.72,70.72,0,0,1-6.623,4.019c-2.9,1.381-3.038,1.125-3.15.762-.3-.976,5.009-2.622,3.646-2.923s-6.243,2.762-6.516,1.73c-.357-1.344,5.238-2.966,5.7-3.139s.212-.84-.2-.662c-.588.255-6.827,2.782-7.19,1.465-.2-.73,1.158-.938,1.158-.938s6.023-1.938,5.831-2.554-3.773.394-4.953.822-1.855.046-1.627-.621c.155-.455,3.736-1.851,4.914-2.247s4.428-1.427,2.379-2.209-3.338-2.136-3.433-2.736.718-.932,1.2-.452a8.193,8.193,0,0,0,1.883,1.157,5.349,5.349,0,0,0,1.7.5c.511.061.964.1,1.372.127l4.35.328,2.2,5.758Z" transform="translate(-7218.452 -10944.902)" fill="#ffbe9d"/>
      <path id="Trazado_600050" data-name="Trazado 600050" d="M391.158,228.777a15.329,15.329,0,0,1,5.15,7.7c.965,3.16,3.737,13.859,5.775,21.822a10.207,10.207,0,0,1-6.683,12.223l-23.031,12.442-3.761-9.733,20.206-13.281-4.885-18.084a12.839,12.839,0,0,1-.142-8.235c1.033-2.751,3.127-5.375,7.371-4.86" transform="translate(-7222.453 -10929.189)" fill="#583cb6"/>
      <path id="Trazado_600051" data-name="Trazado 600051" d="M302.02,226.434l-1.4-4.474c-.653-3.2,1.88-3.717,2.3-4.193a6.687,6.687,0,0,1,2.258-1.826l-.2-1.29a30.75,30.75,0,0,1-.729-4.2c.031-.768,1.409-.821,1.609-.078.456,1.692,1.25,4.557,1.676,5.612.56,1.388,1.8,5.025,3.113,2.768a11.322,11.322,0,0,0,1.4-4.278c.236-.74,1.874-.877,1.554.657-.134.642-.213,1.779-.616,3.319-.179.685-.558,1.53-.75,2.212-.222.8-.322,3.764-.442,4.347Z" transform="translate(-7204.123 -10924.111)" fill="#ffbe9d"/>
      <path id="Trazado_600052" data-name="Trazado 600052" d="M302.929,221.863a11.814,11.814,0,0,1,.351,1.318,9.814,9.814,0,0,0,.508,1.368,2.619,2.619,0,0,1,.289.891.939.939,0,0,1-.527.968,1.154,1.154,0,0,1-1.064-.21,2.626,2.626,0,0,1-.639-.688,4,4,0,0,1-.555-1.432,3.665,3.665,0,0,1-.088-1.383,7.821,7.821,0,0,1,.35,1.321,4.2,4.2,0,0,0,.583,1.3,2.418,2.418,0,0,0,.563.579.815.815,0,0,0,.709.162.579.579,0,0,0,.3-.592,2.474,2.474,0,0,0-.239-.773,7.809,7.809,0,0,1-.447-1.444,3.2,3.2,0,0,1-.09-1.383" transform="translate(-7204.299 -10927.346)" fill="#eb996e"/>
      <path id="Trazado_600053" data-name="Trazado 600053" d="M305.552,219.835a8.674,8.674,0,0,1,.665,1.7l.62,1.872c.108.36.246.706.341,1.136a1.336,1.336,0,0,1-.033.705,1.06,1.06,0,0,1-.5.566,1.348,1.348,0,0,1-1.378-.071,2.223,2.223,0,0,1-.807-.954,14.094,14.094,0,0,1-.6-1.906,8.646,8.646,0,0,1-.4-1.778,8.679,8.679,0,0,1,.653,1.7,18.933,18.933,0,0,0,.652,1.829,1.92,1.92,0,0,0,.688.791.979.979,0,0,0,1,.055.74.74,0,0,0,.348-.87c-.072-.361-.211-.747-.308-1.1-.194-.679-.376-1.312-.543-1.9a8.674,8.674,0,0,1-.408-1.775" transform="translate(-7204.914 -10926.8)" fill="#eb996e"/>
      <path id="Trazado_600054" data-name="Trazado 600054" d="M317,257.7a14.137,14.137,0,0,1,1.8-4.257A14.138,14.138,0,0,1,317,257.7" transform="translate(-7208.554 -10935.846)" fill="#263238"/>
      <path id="Trazado_600055" data-name="Trazado 600055" d="M338.491,252.469a11.561,11.561,0,0,1-2.054-.476l-2.2-.621a12.5,12.5,0,0,1-2.624-1.057,5.807,5.807,0,0,1-2.092-1.946,4.168,4.168,0,0,1-.617-2.25,13.73,13.73,0,0,0-.051-1.526,3.452,3.452,0,0,1-.082-.556c.02-.009.133.167.227.528a8.7,8.7,0,0,1,.175,1.541,4.064,4.064,0,0,0,.645,2.077,5.708,5.708,0,0,0,1.983,1.8,13.572,13.572,0,0,0,2.54,1.053l2.172.7a11.581,11.581,0,0,1,1.976.734" transform="translate(-7211.727 -10933.314)" fill="#12263f"/>
      <path id="Trazado_600056" data-name="Trazado 600056" d="M386.773,290.964c-.064-.005.015-.658-.184-1.671a10.239,10.239,0,0,0-1.614-3.666c-.436-.661-.9-1.266-1.315-1.816a10.694,10.694,0,0,0-1.156-1.392,1.771,1.771,0,0,0-1.049-.47c-.278-.017-.433.048-.444.018s.129-.134.442-.165a1.777,1.777,0,0,1,1.222.409,8.98,8.98,0,0,1,1.261,1.383c.437.542.911,1.147,1.357,1.823a9.183,9.183,0,0,1,1.561,3.832,3.448,3.448,0,0,1-.081,1.714" transform="translate(-7225.791 -10943.48)" fill="#12263f"/>
      <path id="Trazado_600057" data-name="Trazado 600057" d="M387.432,238.287a3.415,3.415,0,0,1-.567-.162l-1.608-.512a19.647,19.647,0,0,0-6.052-1.063,9.73,9.73,0,0,0-4.081.96,19.675,19.675,0,0,0-4.022,2.74,46.918,46.918,0,0,1-4.273,3.393,11.292,11.292,0,0,1-5.521,1.993,6.383,6.383,0,0,1-2.964-.592A7.6,7.6,0,0,1,356,243.291a52.814,52.814,0,0,1-3.289-4.351,12.573,12.573,0,0,0-7.493-4.8,13.19,13.19,0,0,0-6.1.088c-1.409.379-2.126.779-2.146.732a9.089,9.089,0,0,1,2.107-.874,12.935,12.935,0,0,1,6.195-.209,13.187,13.187,0,0,1,4.03,1.543,12.4,12.4,0,0,1,3.686,3.306c1.069,1.378,2,2.954,3.281,4.308a6.412,6.412,0,0,0,5.026,2.222,10.992,10.992,0,0,0,5.333-1.925,48.083,48.083,0,0,0,4.251-3.351,19.805,19.805,0,0,1,4.111-2.756,9.92,9.92,0,0,1,4.211-.943,18.866,18.866,0,0,1,6.1,1.19c.695.239,1.228.441,1.587.581a3.411,3.411,0,0,1,.542.235" transform="translate(-7213.936 -10930.506)" fill="#12263f"/>
      <path id="Trazado_600058" data-name="Trazado 600058" d="M381.807,264.829a7.651,7.651,0,0,0-1.317-.3,7.422,7.422,0,0,0-3.55.819,41.265,41.265,0,0,1-5.081,2.228,20.83,20.83,0,0,1-6.737.979,20.282,20.282,0,0,1-6.69-1.266,20.724,20.724,0,0,1-4.906-2.619,19.651,19.651,0,0,1-2.812-2.476c-.3-.322-.524-.585-.668-.769a1.23,1.23,0,0,1-.207-.289c.027-.023.347.345.98.954a22.848,22.848,0,0,0,2.862,2.36,21.4,21.4,0,0,0,4.871,2.509,20.488,20.488,0,0,0,6.577,1.215,21.046,21.046,0,0,0,6.625-.934,45.111,45.111,0,0,0,5.08-2.141,7.241,7.241,0,0,1,3.672-.718,3.061,3.061,0,0,1,1.3.45" transform="translate(-7217.399 -10937.916)" fill="#12263f"/>
      <path id="Trazado_600059" data-name="Trazado 600059" d="M407.872,261.975a1.462,1.462,0,0,1-.18.55,6.79,6.79,0,0,1-.81,1.356,7.463,7.463,0,0,1-4.339,2.788,12.7,12.7,0,0,1-5.181-.128,9.884,9.884,0,0,1-2.068-.554,14.952,14.952,0,0,1,2.114.289,14.067,14.067,0,0,0,5.052.022,7.661,7.661,0,0,0,4.212-2.585c.835-1,1.138-1.77,1.2-1.739" transform="translate(-7229.636 -10938.145)" fill="#12263f"/>
      <path id="Trazado_600060" data-name="Trazado 600060" d="M383.48,244.6a1.949,1.949,0,0,1,.1.352l.251,1.035c.228.934.552,2.256.96,3.927.84,3.381,2.075,8.2,3.624,13.98l.03.111-.095.066-17.027,11.748-2.7,1.855.069-.227,3.829,9.614-.246-.094c7.065-3.487,13.012-6.671,17.2-8.972l4.882-2.708,1.3-.72a3.171,3.171,0,0,1,.459-.231,3.4,3.4,0,0,1-.429.284l-1.272.77c-1.117.664-2.754,1.62-4.833,2.8-4.157,2.356-10.086,5.586-17.146,9.1l-.174.087-.072-.181-3.848-9.607-.056-.14.125-.086,2.7-1.855,17.057-11.7-.065.177c-1.518-5.787-2.708-10.624-3.494-14.02-.395-1.7-.683-3.036-.873-3.949-.085-.438-.152-.785-.2-1.046a1.953,1.953,0,0,1-.053-.362" transform="translate(-7222.368 -10933.465)" fill="#263238"/>
      <path id="Trazado_600061" data-name="Trazado 600061" d="M401.174,272.658a17.894,17.894,0,0,0-2.663-1.245,8.441,8.441,0,0,0-2.021-.387c-.528-.033-.859,0-.872-.054s.313-.178.871-.215a5.941,5.941,0,0,1,2.137.293,4.6,4.6,0,0,1,2.548,1.608" transform="translate(-7229.724 -10940.505)" fill="#263238"/>
      <path id="Trazado_600062" data-name="Trazado 600062" d="M283.048,378.863l3.025-6.277,11.794,5.591-4.328,9.23-.753-.3c-3.34-1.362-16.888-7.16-18.75-8.851-2.078-1.886,9.013.607,9.013.607" transform="translate(-7196.922 -10967.922)" fill="#455a64"/>
      <g id="Grupo_878191" data-name="Grupo 878191" transform="translate(-6907.616 -10584.55)" clip-path="url(#clip-path-2)">
        <path id="Trazado_600063" data-name="Trazado 600063" d="M295.028,389.261a4.53,4.53,0,0,1,2.7-1.8,4.4,4.4,0,0,1,3.164.449l-1.56,3.3Z" transform="translate(-295.028 -387.346)" fill="#fff"/>
      </g>
      <g id="Grupo_878194" data-name="Grupo 878194" transform="translate(-6923.209 -10590.356)" clip-path="url(#clip-path-3)">
        <path id="Trazado_600064" data-name="Trazado 600064" d="M277.524,379.654s-3.992-.652-3.829.134,13.634,7.161,19.821,9.453l.106-.273-15.775-7.3s.349-1.659-.324-2.013" transform="translate(-273.69 -379.4)" fill="#fff"/>
      </g>
      <path id="Trazado_600065" data-name="Trazado 600065" d="M293.845,389.118a1.186,1.186,0,0,1-.213-.074l-.6-.24-2.188-.923c-1.842-.792-4.372-1.92-7.138-3.226s-5.245-2.545-7.027-3.465l-2.1-1.1-.566-.31a1.246,1.246,0,0,1-.192-.118,1.2,1.2,0,0,1,.208.089l.579.284,2.124,1.059c1.794.894,4.279,2.115,7.044,3.421s5.286,2.449,7.116,3.267l2.168.968.587.268a1.234,1.234,0,0,1,.2.1" transform="translate(-7196.934 -10969.826)" fill="#263238"/>
      <path id="Trazado_600066" data-name="Trazado 600066" d="M279.167,381.877a3.446,3.446,0,0,0-.259-2.38,2.109,2.109,0,0,1,.259,2.38" transform="translate(-7198.303 -10969.782)" fill="#263238"/>
      <path id="Trazado_600067" data-name="Trazado 600067" d="M285.1,382.122a1.371,1.371,0,0,1-.158-.628,1.394,1.394,0,0,1,0-.648,1.374,1.374,0,0,1,.158.628,1.4,1.4,0,0,1,0,.648" transform="translate(-7199.92 -10970.145)" fill="#263238"/>
      <path id="Trazado_600068" data-name="Trazado 600068" d="M286.646,382.148c-.04.017-.167-.2-.284-.474s-.179-.519-.139-.536.168.2.284.474.179.519.139.536" transform="translate(-7200.27 -10970.224)" fill="#263238"/>
      <path id="Trazado_600069" data-name="Trazado 600069" d="M287.9,381.174a1.541,1.541,0,0,1-.653-.213c-.342-.158-.6-.317-.587-.357a1.53,1.53,0,0,1,.653.213c.342.157.605.317.587.357" transform="translate(-7200.391 -10970.078)" fill="#263238"/>
      <path id="Trazado_600070" data-name="Trazado 600070" d="M288.613,380.24a1.918,1.918,0,0,1-1.446-.555,63.188,63.188,0,0,0,1.446.555" transform="translate(-7200.527 -10969.832)" fill="#263238"/>
      <path id="Trazado_600071" data-name="Trazado 600071" d="M284.578,380.223a2.413,2.413,0,0,1-.756-.364,4.827,4.827,0,0,1-.723-.56,2.4,2.4,0,0,1-.372-.409.453.453,0,0,1-.077-.324.33.33,0,0,1,.259-.248,1.537,1.537,0,0,1,1.527,1.22,1.5,1.5,0,0,1,.008.623c-.031.144-.069.217-.077.214a2.376,2.376,0,0,0-.039-.81,1.517,1.517,0,0,0-.448-.727,1.3,1.3,0,0,0-.933-.366c-.162.032-.183.2-.086.339a2.517,2.517,0,0,0,.34.384,5.809,5.809,0,0,0,.685.573c.416.3.7.433.694.456" transform="translate(-7199.31 -10969.465)" fill="#263238"/>
      <path id="Trazado_600072" data-name="Trazado 600072" d="M284.994,380.412a.827.827,0,0,1,.161-.568,1.385,1.385,0,0,1,.469-.456.843.843,0,0,1,.814-.088.333.333,0,0,1,.068.46.914.914,0,0,1-.289.278,2.512,2.512,0,0,1-.574.289,1.208,1.208,0,0,1-.579.1c0-.025.216-.064.538-.205a2.927,2.927,0,0,0,.533-.3c.18-.111.387-.365.214-.49a.75.75,0,0,0-.652.085,1.38,1.38,0,0,0-.448.392,3.077,3.077,0,0,0-.254.5" transform="translate(-7199.94 -10969.71)" fill="#263238"/>
      <path id="Trazado_600073" data-name="Trazado 600073" d="M300.86,387.752c-.015.026-.322-.192-.886-.381a4.089,4.089,0,0,0-4.255,1c-.419.42-.6.752-.623.736a.736.736,0,0,1,.112-.238,3.46,3.46,0,0,1,.43-.576,3.967,3.967,0,0,1,4.374-1.028,3.384,3.384,0,0,1,.641.324c.142.094.213.155.207.163" transform="translate(-7202.663 -10971.802)" fill="#263238"/>
      <path id="Trazado_600074" data-name="Trazado 600074" d="M303.666,380.52a22.978,22.978,0,0,1-1.044,2.471,22.639,22.639,0,0,1-1.189,2.406,45.671,45.671,0,0,1,2.233-4.877" transform="translate(-7204.368 -10970.058)" fill="#263238"/>
      <path id="Trazado_600075" data-name="Trazado 600075" d="M292.466,386.84a10.707,10.707,0,0,1-3.463-1.6c.023-.039.772.372,1.727.811s1.752.744,1.736.788" transform="translate(-7201.022 -10971.328)" fill="#263238"/>
      <path id="Trazado_600076" data-name="Trazado 600076" d="M296.675,388.917c.015.042-.14.133-.3.273s-.28.275-.319.254.028-.215.217-.375.393-.192.4-.152" transform="translate(-7202.917 -10972.315)" fill="#263238"/>
      <path id="Trazado_600077" data-name="Trazado 600077" d="M298.562,388c.015.041-.119.128-.3.194s-.339.086-.354.045.119-.128.3-.194.339-.086.354-.045" transform="translate(-7203.418 -10972.065)" fill="#263238"/>
      <path id="Trazado_600078" data-name="Trazado 600078" d="M300.544,388.051c-.027.036-.183-.039-.385-.061s-.371.012-.39-.029.158-.158.407-.128.4.187.368.218" transform="translate(-7203.92 -10972.025)" fill="#263238"/>
      <path id="Trazado_600079" data-name="Trazado 600079" d="M302.041,388.353c0,.044-.1.072-.216.064s-.207-.05-.2-.094.1-.072.216-.064.207.05.2.094" transform="translate(-7204.419 -10972.142)" fill="#263238"/>
      <path id="Trazado_600080" data-name="Trazado 600080" d="M331.287,430.487l-.143-6.967,13.047-.351.317,10.189-.807.074c-3.595.3-18.3,1.255-20.726.59-2.706-.742,8.313-3.536,8.313-3.536" transform="translate(-7210.053 -10981.54)" fill="#455a64"/>
      <g id="Grupo_878197" data-name="Grupo 878197" transform="translate(-6870.278 -10552.018)" clip-path="url(#clip-path-4)">
        <path id="Trazado_600081" data-name="Trazado 600081" d="M346.121,435.724a4.524,4.524,0,0,1,1.59-2.827,4.4,4.4,0,0,1,3.024-1.03l.1,3.647Z" transform="translate(-346.121 -431.861)" fill="#fff"/>
      </g>
      <g id="Grupo_878200" data-name="Grupo 878200" transform="translate(-6887.543 -10549.494)" clip-path="url(#clip-path-5)">
        <path id="Trazado_600082" data-name="Trazado 600082" d="M325.895,435.316s-3.856,1.226-3.354,1.853,15.4.217,21.954-.539l-.029-.291-17.372.626s-.439-1.637-1.2-1.649" transform="translate(-322.496 -435.316)" fill="#fff"/>
      </g>
      <path id="Trazado_600083" data-name="Trazado 600083" d="M344.683,436.7a1.329,1.329,0,0,1-.224.031l-.643.056-2.369.167c-2,.127-4.768.266-7.826.353s-5.829.1-7.834.09l-2.374-.034-.645-.02a1.15,1.15,0,0,1-.225-.018,1.233,1.233,0,0,1,.225-.014l.645-.009,2.374-.017c2-.015,4.773-.05,7.83-.136s5.822-.208,7.824-.307l2.371-.117.645-.027a1.247,1.247,0,0,1,.226,0" transform="translate(-7210.052 -10985.181)" fill="#263238"/>
      <path id="Trazado_600084" data-name="Trazado 600084" d="M328.319,437.109a3.461,3.461,0,0,0-1.307-2.005,2.111,2.111,0,0,1,1.307,2.005" transform="translate(-7211.253 -10984.752)" fill="#263238"/>
      <path id="Trazado_600085" data-name="Trazado 600085" d="M333.728,434.638c-.037.024-.227-.194-.425-.489s-.33-.553-.294-.578.227.194.425.49.33.553.294.577" transform="translate(-7212.867 -10984.34)" fill="#263238"/>
      <path id="Trazado_600086" data-name="Trazado 600086" d="M335.11,433.965c-.028.034-.238-.1-.468-.294s-.394-.381-.366-.414.238.1.468.294.395.381.366.415" transform="translate(-7213.209 -10984.254)" fill="#263238"/>
      <path id="Trazado_600087" data-name="Trazado 600087" d="M335.785,432.5a2.984,2.984,0,1,1-.685-.053,1.543,1.543,0,0,1,.685.053" transform="translate(-7213.249 -10984.035)" fill="#263238"/>
      <path id="Trazado_600088" data-name="Trazado 600088" d="M336,431.317a1.916,1.916,0,0,1-1.54.159,53.959,53.959,0,0,0,1.54-.159" transform="translate(-7213.259 -10983.729)" fill="#263238"/>
      <path id="Trazado_600089" data-name="Trazado 600089" d="M332.433,433.076a2.42,2.42,0,0,1-.838.018,4.9,4.9,0,0,1-.9-.172,2.476,2.476,0,0,1-.517-.2.453.453,0,0,1-.215-.255.33.33,0,0,1,.118-.338,1.538,1.538,0,0,1,1.914.4,1.5,1.5,0,0,1,.289.552.453.453,0,0,1,.028.226,2.374,2.374,0,0,0-.4-.7,1.513,1.513,0,0,0-.729-.446,1.3,1.3,0,0,0-1,.1c-.131.1-.075.257.076.341a2.491,2.491,0,0,0,.477.189,5.887,5.887,0,0,0,.87.2c.5.075.824.067.825.093" transform="translate(-7212.046 -10983.903)" fill="#263238"/>
      <path id="Trazado_600090" data-name="Trazado 600090" d="M333.008,432.95a.827.827,0,0,1-.112-.579,1.373,1.373,0,0,1,.212-.619.842.842,0,0,1,.686-.446.333.333,0,0,1,.269.38.91.91,0,0,1-.132.379,2.529,2.529,0,0,1-.381.518,1.225,1.225,0,0,1-.471.353c-.015-.021.163-.156.387-.427a2.918,2.918,0,0,0,.337-.513c.11-.18.18-.5-.031-.533-.21-.015-.419.2-.542.371a1.372,1.372,0,0,0-.222.552,3.071,3.071,0,0,0,0,.566" transform="translate(-7212.837 -10983.729)" fill="#263238"/>
      <path id="Trazado_600091" data-name="Trazado 600091" d="M350.668,431.8c0,.029-.375-.026-.962.061a4.09,4.09,0,0,0-3.343,2.818c-.183.565-.192.941-.222.938a.759.759,0,0,1-.007-.263,3.427,3.427,0,0,1,.123-.708,3.967,3.967,0,0,1,3.435-2.9,3.482,3.482,0,0,1,.718,0,.768.768,0,0,1,.258.052" transform="translate(-7216.401 -10983.843)" fill="#263238"/>
      <path id="Trazado_600092" data-name="Trazado 600092" d="M350.275,424.443a45.794,45.794,0,0,1,.216,5.36,45.352,45.352,0,0,1-.216-5.36" transform="translate(-7217.511 -10981.883)" fill="#263238"/>
      <path id="Trazado_600093" data-name="Trazado 600093" d="M342.423,435.464a10.733,10.733,0,0,1-3.812.141c0-.046.856-.017,1.907-.058s1.9-.129,1.905-.083" transform="translate(-7214.377 -10984.847)" fill="#263238"/>
      <path id="Trazado_600094" data-name="Trazado 600094" d="M347.195,435.365c.033.031-.065.183-.146.381s-.125.372-.17.371-.073-.2.023-.432.263-.35.292-.319" transform="translate(-7216.592 -10984.822)" fill="#263238"/>
      <path id="Trazado_600095" data-name="Trazado 600095" d="M348.421,433.688c.032.03-.049.168-.18.308s-.264.23-.3.2.048-.167.18-.308.263-.23.3-.2" transform="translate(-7216.889 -10984.369)" fill="#263238"/>
      <path id="Trazado_600096" data-name="Trazado 600096" d="M350.194,432.863c-.009.045-.182.047-.372.121s-.324.178-.359.15.069-.212.3-.3.438-.013.426.028" transform="translate(-7217.297 -10984.131)" fill="#263238"/>
      <path id="Trazado_600097" data-name="Trazado 600097" d="M351.655,432.487c.017.04-.056.11-.163.154s-.208.049-.225.009.056-.11.164-.154.208-.049.224-.009" transform="translate(-7217.784 -10984.041)" fill="#263238"/>
      <path id="Trazado_600098" data-name="Trazado 600098" d="M348.545,253.247a10.533,10.533,0,0,1,.492-1.88c.172-.574.383-1.258.645-2.009.132-.376.277-.769.444-1.171.091-.218.205-.4.263-.584a1.825,1.825,0,0,0,.075-.6,8.979,8.979,0,0,0-.194-1.285q-.117-.629-.227-1.223l-.362-2.074a9.289,9.289,0,0,1-.232-1.931,9.315,9.315,0,0,1,.512,1.876c.137.632.286,1.32.447,2.058l.251,1.217a8.45,8.45,0,0,1,.21,1.351,2.19,2.19,0,0,1-.1.736c-.083.243-.205.433-.281.612-.167.392-.319.777-.458,1.145l-.724,1.972a8.343,8.343,0,0,1-.762,1.79" transform="translate(-7217.049 -10932.36)" fill="#263238"/>
      <g id="Grupo_878203" data-name="Grupo 878203" transform="translate(-6839.58 -10690.91)" clip-path="url(#clip-path-6)">
        <path id="Trazado_600099" data-name="Trazado 600099" d="M388.128,241.8c.508,7.761,1.291,16.48,1.44,24.256,1.193-.54,4.033-2.593,4.033-2.88,0,0-3.705-13.015-5.474-21.376" transform="translate(-388.128 -241.804)"/>
      </g>
      <path id="Trazado_600100" data-name="Trazado 600100" d="M373.5,301.185s-53.506-11.209-58.687-8.755-29.069,61.5-29.069,61.5l16.113,5.919,21.875-49s39.408,14.861,45.951,13.5,3.818-23.173,3.818-23.173" transform="translate(-7200.143 -10946.249)" fill="#263238"/>
      <path id="Trazado_600101" data-name="Trazado 600101" d="M360.4,308.847c-.818.273-31.769,13-33.95,17.086s3.177,72,3.177,72h17.6l-1.09-60.358,34.357-8.7Z" transform="translate(-7210.963 -10950.762)" fill="#263238"/>
      <path id="Trazado_600102" data-name="Trazado 600102" d="M383.208,331.076a2.4,2.4,0,0,1-.507-.062l-1.44-.255c-1.249-.23-3.052-.585-5.273-1.057-4.443-.938-10.56-2.356-17.225-4.267-3.331-.965-6.478-1.97-9.32-2.947-2.83-1.007-5.368-1.95-7.458-2.844-1.054-.425-1.991-.848-2.813-1.222s-1.529-.7-2.1-.984l-1.306-.658a2.367,2.367,0,0,1-.444-.254,2.441,2.441,0,0,1,.479.181l1.337.589c.575.267,1.288.575,2.119.92s1.771.757,2.83,1.165c2.1.859,4.641,1.771,7.472,2.757,2.842.956,5.986,1.948,9.311,2.911,6.652,1.907,12.75,3.367,17.174,4.377l5.243,1.182,1.425.33a2.415,2.415,0,0,1,.491.142" transform="translate(-7213.494 -10952.829)" fill="#455a64"/>
      <path id="Trazado_600103" data-name="Trazado 600103" d="M326.274,345.814a5.063,5.063,0,0,1-.163-1.017c-.077-.737-.176-1.671-.294-2.785-.112-1.2-.242-2.6-.384-4.135a18.871,18.871,0,0,1-.008-5.121,7.991,7.991,0,0,1,2.569-4.426,13.507,13.507,0,0,1,3.522-2.264,27.456,27.456,0,0,1,2.613-1.03,4.909,4.909,0,0,1,.989-.289c.029.072-1.361.556-3.479,1.576a13.943,13.943,0,0,0-3.392,2.279,7.74,7.74,0,0,0-2.426,4.229,19.5,19.5,0,0,0-.018,5.014c.11,1.538.211,2.936.3,4.142.066,1.118.122,2.056.166,2.8a5.03,5.03,0,0,1,.007,1.03" transform="translate(-7210.779 -10955.043)" fill="#455a64"/>
      <path id="Trazado_600104" data-name="Trazado 600104" d="M347.783,345.585a12.967,12.967,0,0,1,4.168,1.833,12.95,12.95,0,0,1-4.168-1.833" transform="translate(-7216.846 -10960.648)" fill="#263238"/>
      <path id="Trazado_600105" data-name="Trazado 600105" d="M349.9,343.051c.109-.046.6.93,1.4,1.987s1.6,1.8,1.529,1.891a6.351,6.351,0,0,1-2.93-3.878" transform="translate(-7217.412 -10959.971)" fill="#263238"/>
      <path id="Trazado_600106" data-name="Trazado 600106" d="M357.669,346.864c.013.01-.052.145-.271.277a2.084,2.084,0,0,1-1.02.241,12,12,0,0,0-1.463.037,1.023,1.023,0,0,0-.875,1.121,28.518,28.518,0,0,1-.219,4.7,26.793,26.793,0,0,1-.184-4.722,1.651,1.651,0,0,1,.333-1,1.367,1.367,0,0,1,.884-.464,8.471,8.471,0,0,1,1.526.045,2.515,2.515,0,0,0,1.289-.233" transform="translate(-7218.421 -10960.997)" fill="#263238"/>
      <path id="Trazado_600107" data-name="Trazado 600107" d="M352.952,176.556c-2.672.865-5.781,2.643-4.241,11.012.677,3.682,1.538,7.438,4.008,10.252a1.759,1.759,0,0,0,1.431.79,1.8,1.8,0,0,0,.989-.669c2.808-3.059,5.2-6.671,5.955-10.753s-.379-8.683-3.593-11.312" transform="translate(-7216.986 -10914.965)" fill="#263238"/>
      <path id="Trazado_600108" data-name="Trazado 600108" d="M359.225,211.952c-.088-3.851-.252-7.985-.252-7.985s-5.859-.739-6.112-6.72-.313-16.457-.313-16.457l11.44-8.476,8.038,11.057.2,28.382a6.5,6.5,0,0,1-13,.2" transform="translate(-7218.129 -10914.007)" fill="#ffbe9d"/>
      <path id="Trazado_600109" data-name="Trazado 600109" d="M361.34,214.693a14.268,14.268,0,0,0,7.759-2.54s-1.823,4.357-7.657,4.008Z" transform="translate(-7220.496 -10924.731)" fill="#eb996e"/>
      <path id="Trazado_600110" data-name="Trazado 600110" d="M362.041,205.367a.7.7,0,0,1,.714-.992,1.107,1.107,0,0,1,1.12-.979,1.253,1.253,0,0,1,1.133,1.019,1.444,1.444,0,0,1-.639,1.417,1.711,1.711,0,0,1-1.577.115,1.246,1.246,0,0,1-.8-.94" transform="translate(-7220.668 -10922.374)" fill="#eb996e"/>
      <path id="Trazado_600111" data-name="Trazado 600111" d="M354.2,193.567a.821.821,0,0,0,.791.828.785.785,0,0,0,.846-.74.822.822,0,0,0-.791-.829.786.786,0,0,0-.847.741" transform="translate(-7218.573 -10919.527)" fill="#263238"/>
      <path id="Trazado_600112" data-name="Trazado 600112" d="M354.246,192.6c.1.107.724-.353,1.607-.351s1.53.444,1.626.336c.048-.048-.056-.241-.338-.447a2.259,2.259,0,0,0-1.3-.4,2.17,2.17,0,0,0-1.279.413c-.272.208-.364.4-.313.45" transform="translate(-7218.583 -10919.234)" fill="#263238"/>
      <path id="Trazado_600113" data-name="Trazado 600113" d="M366.333,193.681a.821.821,0,0,0,.791.828.785.785,0,0,0,.846-.74.822.822,0,0,0-.791-.829.786.786,0,0,0-.847.741" transform="translate(-7221.84 -10919.558)" fill="#263238"/>
      <path id="Trazado_600114" data-name="Trazado 600114" d="M366.127,192.824c.1.107.724-.353,1.607-.351s1.531.444,1.627.335c.047-.048-.056-.24-.339-.446a2.248,2.248,0,0,0-1.3-.4,2.166,2.166,0,0,0-1.279.413c-.271.208-.363.4-.314.45" transform="translate(-7221.782 -10919.295)" fill="#263238"/>
      <path id="Trazado_600115" data-name="Trazado 600115" d="M360.917,199.395a5.819,5.819,0,0,0-1.435-.259c-.226-.023-.439-.068-.477-.222a1.144,1.144,0,0,1,.151-.669l.667-1.717a29.585,29.585,0,0,0,1.5-4.492,29.506,29.506,0,0,0-1.856,4.361c-.223.6-.436,1.177-.639,1.728a1.31,1.31,0,0,0-.117.885.565.565,0,0,0,.371.33,1.5,1.5,0,0,0,.383.053,5.743,5.743,0,0,0,1.454,0" transform="translate(-7219.776 -10919.315)" fill="#263238"/>
      <path id="Trazado_600116" data-name="Trazado 600116" d="M364.266,202.942c-.144-.008-.145.951-.966,1.631s-1.841.575-1.849.709c-.013.06.228.186.659.2a2.386,2.386,0,0,0,1.543-.538,2.08,2.08,0,0,0,.748-1.367c.036-.4-.07-.639-.136-.633" transform="translate(-7220.526 -10922.251)" fill="#263238"/>
      <path id="Trazado_600117" data-name="Trazado 600117" d="M365.587,190.2c.087.241.969.127,2.005.252,1.038.1,1.874.406,2.012.192.061-.1-.084-.33-.422-.562a3.514,3.514,0,0,0-3.061-.338c-.38.153-.571.342-.534.455" transform="translate(-7221.638 -10918.644)" fill="#263238"/>
      <path id="Trazado_600118" data-name="Trazado 600118" d="M354.688,189.081c.156.2.764-.007,1.5-.017.731-.036,1.351.134,1.494-.075.062-.1-.035-.3-.306-.493a2.165,2.165,0,0,0-2.409.075c-.259.206-.343.414-.275.511" transform="translate(-7218.699 -10918.274)" fill="#263238"/>
      <path id="Trazado_600119" data-name="Trazado 600119" d="M367.082,184.671a4.593,4.593,0,0,0,2.911-1.038c.529,1.411.52,2.975,1,4.4s.963,15.177,2.454,14.953c1.369-.206,3-14.006,3.351-15.345a12.236,12.236,0,0,0-2.7-10.7c-2.919-3.474-7.787-6.437-12.314-6.117a10.175,10.175,0,0,0-5.611,1.976s-2.442,1.883-2.239,4.285c.284,3.348,5.167,5.505,8.526,5.4l.477.465a5.811,5.811,0,0,0,4.144,1.72" transform="translate(-7218.499 -10913.599)" fill="#263238"/>
      <path id="Trazado_600120" data-name="Trazado 600120" d="M352.448,185.826a4.962,4.962,0,0,0,1.668-2.68,14.8,14.8,0,0,0,.389-3.183c.015-.31-.03-.709-.33-.791s-.532.219-.672.484a10.313,10.313,0,0,0-1.057,6.477c.064-.059-.2.168-.136.109" transform="translate(-7218.063 -10915.849)" fill="#263238"/>
      <path id="Trazado_600121" data-name="Trazado 600121" d="M234.038,431.925l.041-7.165-13.419-.162-.171,10.481.831.064c3.7.25,18.834,1.012,21.319.292,2.771-.8-8.6-3.51-8.6-3.51" transform="translate(-7182.577 -10981.924)" fill="#455a64"/>
      <g id="Grupo_878208" data-name="Grupo 878208" transform="translate(-6962.073 -10550.797)" clip-path="url(#clip-path-7)">
        <path id="Trazado_600122" data-name="Trazado 600122" d="M225.361,437.437a4.662,4.662,0,0,0-1.678-2.882,4.526,4.526,0,0,0-3.125-1.014l-.048,3.75Z" transform="translate(-220.51 -433.532)"/>
      </g>
      <g id="Grupo_878211" data-name="Grupo 878211" transform="translate(-6962.088 -10548.479)" clip-path="url(#clip-path-8)">
        <path id="Trazado_600123" data-name="Trazado 600123" d="M239.591,436.705s3.982,1.2,3.476,1.853-15.828.458-22.579-.22l.026-.3,17.869.379s.427-1.69,1.209-1.713" transform="translate(-220.488 -436.705)"/>
      </g>
      <path id="Trazado_600124" data-name="Trazado 600124" d="M220.234,438.513a1.178,1.178,0,0,0,.23.028l.662.049,2.438.136c2.059.1,4.906.2,8.051.243s6,.018,8.056-.026l2.44-.071.664-.03a.116.116,0,1,0,0-.033h-.664l-2.44.018c-2.061.015-4.908.021-8.053-.021s-5.989-.126-8.048-.2l-2.439-.084-.664-.018a1.257,1.257,0,0,0-.232,0" transform="translate(-7182.508 -10985.668)" fill="#263238"/>
      <path id="Trazado_600125" data-name="Trazado 600125" d="M244.959,438.567a3.55,3.55,0,0,1,1.313-2.081,2.164,2.164,0,0,0-1.313,2.081" transform="translate(-7189.159 -10985.124)" fill="#263238"/>
      <path id="Trazado_600126" data-name="Trazado 600126" d="M239.581,436.108c.037.025.23-.2.43-.509s.331-.574.293-.6-.229.2-.43.509-.33.574-.293.6" transform="translate(-7187.715 -10984.725)" fill="#263238"/>
      <path id="Trazado_600127" data-name="Trazado 600127" d="M238.1,435.437c.03.034.243-.105.477-.31s.4-.4.37-.432-.243.105-.477.31-.4.4-.37.432" transform="translate(-7187.319 -10984.643)" fill="#263238"/>
      <path id="Trazado_600128" data-name="Trazado 600128" d="M237.188,433.942a3.068,3.068,0,0,0,1.4.034,3.069,3.069,0,0,0-1.4-.034" transform="translate(-7187.073 -10984.422)" fill="#263238"/>
      <path id="Trazado_600129" data-name="Trazado 600129" d="M236.881,432.735a1.971,1.971,0,0,0,1.587.14,4.254,4.254,0,0,0-.794-.065,4.309,4.309,0,0,0-.793-.075" transform="translate(-7186.989 -10984.111)" fill="#263238"/>
      <path id="Trazado_600130" data-name="Trazado 600130" d="M240.227,434.487a2.479,2.479,0,0,0,.862.005,5,5,0,0,0,.921-.19,2.522,2.522,0,0,0,.528-.211.463.463,0,0,0,.216-.264.338.338,0,0,0-.126-.346,1.58,1.58,0,0,0-1.961.438,1.526,1.526,0,0,0-.289.571.478.478,0,0,0-.026.232,2.437,2.437,0,0,1,.4-.73,1.561,1.561,0,0,1,.743-.47,1.339,1.339,0,0,1,1.027.083c.135.1.08.264-.073.352a2.571,2.571,0,0,1-.487.2,5.937,5.937,0,0,1-.891.22c-.518.085-.847.082-.847.108" transform="translate(-7187.891 -10984.268)" fill="#263238"/>
      <path id="Trazado_600131" data-name="Trazado 600131" d="M240.123,434.366a.846.846,0,0,0,.107-.6,1.414,1.414,0,0,0-.227-.633.865.865,0,0,0-.712-.449.344.344,0,0,0-.271.4.934.934,0,0,0,.142.387,2.594,2.594,0,0,0,.4.527,1.24,1.24,0,0,0,.489.356c.015-.021-.17-.157-.4-.433a3.048,3.048,0,0,1-.354-.522c-.116-.184-.193-.512.024-.549.216-.018.433.2.563.373a1.431,1.431,0,0,1,.237.563,3.131,3.131,0,0,1,.007.582" transform="translate(-7187.564 -10984.102)" fill="#263238"/>
      <path id="Trazado_600132" data-name="Trazado 600132" d="M220.673,433.465c0,.03.385-.032.99.047a4.2,4.2,0,0,1,3.479,2.846c.2.578.213.965.243.961a.764.764,0,0,0,0-.27,3.554,3.554,0,0,0-.137-.726,4.076,4.076,0,0,0-3.576-2.925,3.477,3.477,0,0,0-.739.009.773.773,0,0,0-.265.057" transform="translate(-7182.627 -10984.289)" fill="#263238"/>
      <path id="Trazado_600133" data-name="Trazado 600133" d="M222.608,425.878a46.923,46.923,0,0,0-.14,5.514,23.167,23.167,0,0,0,.151-2.755,23.574,23.574,0,0,0-.011-2.759" transform="translate(-7183.1 -10982.269)" fill="#263238"/>
      <path id="Trazado_600134" data-name="Trazado 600134" d="M229.481,437.11a11.027,11.027,0,0,0,3.921.087c0-.047-.881,0-1.961-.03s-1.954-.1-1.96-.057" transform="translate(-7184.998 -10985.288)" fill="#263238"/>
      <path id="Trazado_600135" data-name="Trazado 600135" d="M225.88,437.062c-.033.032.069.186.156.389s.134.381.18.379.072-.211-.031-.444-.276-.356-.305-.324" transform="translate(-7184.026 -10985.278)" fill="#263238"/>
      <path id="Trazado_600136" data-name="Trazado 600136" d="M224.544,435.357c-.032.031.053.172.189.314s.275.233.307.2-.053-.172-.189-.314-.275-.233-.307-.2" transform="translate(-7183.667 -10984.819)" fill="#263238"/>
      <path id="Trazado_600137" data-name="Trazado 600137" d="M222.616,434.536c.009.045.187.046.384.118s.337.178.372.148-.074-.216-.318-.3-.451-.007-.438.035" transform="translate(-7183.15 -10984.58)" fill="#263238"/>
      <path id="Trazado_600138" data-name="Trazado 600138" d="M221.238,434.171c-.017.042.059.112.17.156s.214.047.231.005-.059-.112-.17-.156-.214-.047-.231-.005" transform="translate(-7182.779 -10984.493)" fill="#263238"/>
      <path id="Trazado_600139" data-name="Trazado 600139" d="M164.383,431.925l-.041-7.165,13.419-.162.171,10.481-.831.064c-3.7.25-18.834,1.012-21.319.292-2.771-.8,8.6-3.51,8.6-3.51" transform="translate(-7165.04 -10981.924)" fill="#455a64"/>
      <g id="Grupo_878214" data-name="Grupo 878214" transform="translate(-6991.975 -10550.797)" clip-path="url(#clip-path-9)">
        <path id="Trazado_600140" data-name="Trazado 600140" d="M179.593,437.437a4.656,4.656,0,0,1,1.678-2.882,4.525,4.525,0,0,1,3.125-1.014l.048,3.75Z" transform="translate(-179.593 -433.532)"/>
      </g>
      <g id="Grupo_878217" data-name="Grupo 878217" transform="translate(-7009.731 -10548.479)" clip-path="url(#clip-path-8)">
        <path id="Trazado_600141" data-name="Trazado 600141" d="M158.815,436.705s-3.982,1.2-3.476,1.853,15.828.458,22.579-.22l-.026-.3-17.869.379s-.427-1.69-1.209-1.713" transform="translate(-155.295 -436.705)"/>
      </g>
      <path id="Trazado_600142" data-name="Trazado 600142" d="M178.118,438.513a1.192,1.192,0,0,1-.231.028l-.662.049-2.438.136c-2.059.1-4.906.2-8.051.243s-5.995.018-8.056-.026l-2.44-.071-.664-.03a.116.116,0,1,1,0-.033h.664l2.44.018c2.061.015,4.908.021,8.053-.021s5.989-.126,8.048-.2l2.439-.084.664-.018a1.268,1.268,0,0,1,.233,0" transform="translate(-7165.04 -10985.668)" fill="#263238"/>
      <path id="Trazado_600143" data-name="Trazado 600143" d="M161.29,438.567a5.487,5.487,0,0,0-.471-1.158,5.418,5.418,0,0,0-.843-.923,2.166,2.166,0,0,1,1.314,2.081" transform="translate(-7166.286 -10985.124)" fill="#263238"/>
      <path id="Trazado_600144" data-name="Trazado 600144" d="M166.888,436.108c-.038.025-.23-.2-.43-.509s-.331-.574-.293-.6.229.2.429.509.331.574.294.6" transform="translate(-7167.951 -10984.725)" fill="#263238"/>
      <path id="Trazado_600145" data-name="Trazado 600145" d="M168.321,435.437c-.029.034-.243-.105-.477-.31s-.4-.4-.37-.432.243.105.477.31.4.4.37.432" transform="translate(-7168.304 -10984.643)" fill="#263238"/>
      <path id="Trazado_600146" data-name="Trazado 600146" d="M169.036,433.942a3.068,3.068,0,0,1-1.4.034,1.587,1.587,0,0,1,.7-.1,1.57,1.57,0,0,1,.7.064" transform="translate(-7168.348 -10984.422)" fill="#263238"/>
      <path id="Trazado_600147" data-name="Trazado 600147" d="M169.274,432.735a1.971,1.971,0,0,1-1.586.14,4.254,4.254,0,0,1,.794-.065,4.314,4.314,0,0,1,.793-.075" transform="translate(-7168.362 -10984.111)" fill="#263238"/>
      <path id="Trazado_600148" data-name="Trazado 600148" d="M165.579,434.487a2.479,2.479,0,0,1-.862.005,5,5,0,0,1-.921-.19,2.522,2.522,0,0,1-.528-.211.466.466,0,0,1-.216-.264.34.34,0,0,1,.126-.346,1.58,1.58,0,0,1,1.961.438,1.526,1.526,0,0,1,.289.571.478.478,0,0,1,.026.232,2.436,2.436,0,0,0-.4-.73,1.557,1.557,0,0,0-.743-.47,1.34,1.34,0,0,0-1.027.083c-.135.1-.08.264.073.352a2.573,2.573,0,0,0,.487.2,5.924,5.924,0,0,0,.892.22c.517.085.846.082.846.108" transform="translate(-7167.112 -10984.268)" fill="#263238"/>
      <path id="Trazado_600149" data-name="Trazado 600149" d="M166.167,434.366a.848.848,0,0,1-.107-.6,1.416,1.416,0,0,1,.228-.633.865.865,0,0,1,.712-.449.344.344,0,0,1,.271.4.945.945,0,0,1-.142.387,2.6,2.6,0,0,1-.4.527,1.245,1.245,0,0,1-.489.356c-.015-.021.17-.157.4-.433A3.05,3.05,0,0,0,167,433.4c.116-.184.193-.512-.024-.549-.216-.018-.433.2-.563.373a1.431,1.431,0,0,0-.237.563,3.127,3.127,0,0,0-.007.582" transform="translate(-7167.922 -10984.102)" fill="#263238"/>
      <path id="Trazado_600150" data-name="Trazado 600150" d="M184.328,433.465c0,.03-.385-.032-.99.047a4.2,4.2,0,0,0-3.479,2.846c-.2.578-.213.965-.243.961a.764.764,0,0,1,0-.27,3.552,3.552,0,0,1,.137-.726,4.076,4.076,0,0,1,3.576-2.925,3.472,3.472,0,0,1,.738.009.774.774,0,0,1,.265.057" transform="translate(-7171.571 -10984.289)" fill="#263238"/>
      <path id="Trazado_600151" data-name="Trazado 600151" d="M184.053,425.878a46.91,46.91,0,0,1,.14,5.514,23.185,23.185,0,0,1-.151-2.755,23.558,23.558,0,0,1,.011-2.759" transform="translate(-7172.758 -10982.269)" fill="#263238"/>
      <path id="Trazado_600152" data-name="Trazado 600152" d="M175.814,437.11a11.027,11.027,0,0,1-3.921.087c0-.047.881,0,1.961-.03s1.954-.1,1.96-.057" transform="translate(-7169.495 -10985.288)" fill="#263238"/>
      <path id="Trazado_600153" data-name="Trazado 600153" d="M180.72,437.062c.033.032-.069.186-.156.389s-.134.381-.18.379-.072-.211.031-.444.276-.356.305-.324" transform="translate(-7171.77 -10985.278)" fill="#263238"/>
      <path id="Trazado_600154" data-name="Trazado 600154" d="M182.008,435.357c.032.031-.053.172-.189.314s-.275.233-.307.2.053-.172.189-.314.275-.233.307-.2" transform="translate(-7172.082 -10984.819)" fill="#263238"/>
      <path id="Trazado_600155" data-name="Trazado 600155" d="M183.843,434.536c-.009.045-.187.046-.384.118s-.337.178-.372.148.074-.216.318-.3.451-.007.438.035" transform="translate(-7172.507 -10984.58)" fill="#263238"/>
      <path id="Trazado_600156" data-name="Trazado 600156" d="M185.352,434.171c.017.042-.059.112-.17.156s-.214.047-.231.005.059-.112.17-.156.214-.047.231-.005" transform="translate(-7173.01 -10984.493)" fill="#263238"/>
      <path id="Trazado_600157" data-name="Trazado 600157" d="M227.124,246.867l-5.148,134.5-20.9.438,3.471-116.536L181.043,382.692H161.174l25.6-135.552Z" transform="translate(-7166.609 -10934.076)" fill="#263238"/>
      <path id="Trazado_600158" data-name="Trazado 600158" d="M225.214,253.563a13.313,13.313,0,0,1-.24,2.217c-.2,1.361-.49,3.239-.837,5.308a22.285,22.285,0,0,1-.6,2.92,4.135,4.135,0,0,1-1.365,2.053,3.217,3.217,0,0,1-1.517.677,1.217,1.217,0,0,1-.607-.01,3.755,3.755,0,0,0,3.166-2.823,25.954,25.954,0,0,0,.558-2.879c.347-2.07.683-3.94.943-5.29a13.292,13.292,0,0,1,.5-2.174" transform="translate(-7182.458 -10935.88)" fill="#263238"/>
      <path id="Trazado_600159" data-name="Trazado 600159" d="M221.06,254.317c.046.034-.126.249-.027.6a.707.707,0,0,0,.349.449.633.633,0,0,0,.826-.725.709.709,0,0,0-.4-.4c-.339-.143-.576,0-.6-.051-.043-.02.193-.306.682-.2a.927.927,0,0,1,.64.536.946.946,0,0,1-1.3,1.143.928.928,0,0,1-.448-.7c-.045-.5.27-.7.284-.65" transform="translate(-7182.653 -10935.989)" fill="#263238"/>
      <path id="Trazado_600160" data-name="Trazado 600160" d="M205.7,255.7a3.937,3.937,0,0,1,.4-3.733c.1.045-.2.836-.307,1.855s.013,1.855-.092,1.878" transform="translate(-7178.513 -10935.448)" fill="#263238"/>
      <path id="Trazado_600161" data-name="Trazado 600161" d="M209.131,255.417a4.568,4.568,0,0,1,.272-3.891,17.086,17.086,0,0,1-.2,1.941,17.2,17.2,0,0,1-.067,1.95" transform="translate(-7179.435 -10935.33)" fill="#263238"/>
      <path id="Trazado_600162" data-name="Trazado 600162" d="M238.791,256.113a151.616,151.616,0,0,0,.208-4.041,5.543,5.543,0,0,1-.208,4.041" transform="translate(-7187.496 -10935.479)" fill="#263238"/>
      <path id="Trazado_600163" data-name="Trazado 600163" d="M242.53,255.876c-.1-.042.226-.921.3-2.051s-.115-2.044-.01-2.073a4.344,4.344,0,0,1-.288,4.123" transform="translate(-7188.506 -10935.393)" fill="#263238"/>
      <path id="Trazado_600164" data-name="Trazado 600164" d="M210.8,157.857l12.9-1.03c.08-1.506-.028-7.334-.028-7.334s5.368-.835,5.435-6.2-.865-17.692-.865-17.692a18.654,18.654,0,0,0-18.743,2.357l-.8.612Z" transform="translate(-7179.406 -10901.021)" fill="#ffbe9d"/>
      <path id="Trazado_600165" data-name="Trazado 600165" d="M226.628,158.014a12.478,12.478,0,0,1-7-1.988s1.654,3.863,7.01,3.379Z" transform="translate(-7182.346 -10909.621)" fill="#eb996e"/>
      <path id="Trazado_600166" data-name="Trazado 600166" d="M208.3,137.765c-.091-.039-3.688-1.091-3.571,2.579s3.777,2.795,3.78,2.689-.21-5.268-.21-5.268" transform="translate(-7178.333 -10904.66)" fill="#ffbe9d"/>
      <path id="Trazado_600167" data-name="Trazado 600167" d="M207.688,142.121c-.017-.01-.063.048-.169.1a.649.649,0,0,1-.478.025,1.583,1.583,0,0,1-.777-1.4,2.108,2.108,0,0,1,.15-.921.739.739,0,0,1,.465-.506.325.325,0,0,1,.383.164c.053.1.031.175.051.18s.077-.064.042-.215a.412.412,0,0,0-.151-.226.488.488,0,0,0-.357-.082.9.9,0,0,0-.65.59,2.174,2.174,0,0,0-.189,1.03,1.661,1.661,0,0,0,.984,1.555.679.679,0,0,0,.581-.117c.111-.093.128-.176.115-.183" transform="translate(-7178.678 -10905.102)" fill="#eb996e"/>
      <path id="Trazado_600168" data-name="Trazado 600168" d="M233.266,137.414a.766.766,0,0,1-.739.773.733.733,0,0,1-.79-.691.766.766,0,0,1,.738-.773.733.733,0,0,1,.791.691" transform="translate(-7185.605 -10904.425)" fill="#263238"/>
      <path id="Trazado_600169" data-name="Trazado 600169" d="M232.942,136.193c-.1.1-.676-.33-1.5-.327s-1.429.414-1.519.314c-.044-.045.053-.225.316-.417a2.112,2.112,0,0,1,1.216-.375,2.018,2.018,0,0,1,1.194.386c.254.194.34.376.293.42" transform="translate(-7185.114 -10904.064)" fill="#263238"/>
      <path id="Trazado_600170" data-name="Trazado 600170" d="M222.213,137.679a.766.766,0,0,1-.739.773.733.733,0,0,1-.79-.691.766.766,0,0,1,.738-.774.733.733,0,0,1,.791.691" transform="translate(-7182.629 -10904.496)" fill="#263238"/>
      <path id="Trazado_600171" data-name="Trazado 600171" d="M221.848,136.4c-.1.1-.677-.33-1.5-.327s-1.429.414-1.519.314c-.044-.045.052-.225.316-.417a2.1,2.1,0,0,1,1.216-.375,2.02,2.02,0,0,1,1.194.385c.253.194.34.376.293.42" transform="translate(-7182.127 -10904.122)" fill="#263238"/>
      <path id="Trazado_600172" data-name="Trazado 600172" d="M226.918,142.538a5.487,5.487,0,0,1,1.34-.242c.21-.022.41-.064.446-.208a1.071,1.071,0,0,0-.141-.624q-.3-.764-.623-1.6a27.523,27.523,0,0,1-1.4-4.2,27.728,27.728,0,0,1,1.733,4.073c.208.563.407,1.1.6,1.614a1.215,1.215,0,0,1,.109.827.527.527,0,0,1-.346.308,1.393,1.393,0,0,1-.358.05,5.366,5.366,0,0,1-1.358,0" transform="translate(-7184.204 -10904.14)" fill="#263238"/>
      <path id="Trazado_600173" data-name="Trazado 600173" d="M223.689,145.851c.134-.008.136.887.9,1.523s1.72.537,1.727.662c.012.056-.213.174-.615.185a2.226,2.226,0,0,1-1.441-.5,1.942,1.942,0,0,1-.7-1.277c-.034-.375.066-.6.127-.591" transform="translate(-7183.402 -10906.882)" fill="#263238"/>
      <path id="Trazado_600174" data-name="Trazado 600174" d="M221.868,132.049c-.081.224-.9.118-1.872.235-.97.1-1.751.381-1.879.179-.058-.1.079-.307.394-.524a3.283,3.283,0,0,1,2.858-.316c.355.143.534.319.5.426" transform="translate(-7181.935 -10903)" fill="#263238"/>
      <path id="Trazado_600175" data-name="Trazado 600175" d="M232.608,132.908c-.145.187-.713-.007-1.4-.016-.683-.034-1.262.126-1.4-.07-.058-.1.033-.283.286-.46a2.021,2.021,0,0,1,2.249.07c.241.192.321.385.257.476" transform="translate(-7185.083 -10903.168)" fill="#263238"/>
      <path id="Trazado_600176" data-name="Trazado 600176" d="M230.149,119.849a1.98,1.98,0,0,0-.732-1.77,1.406,1.406,0,0,0-1.821.136,1.639,1.639,0,0,0-1.41-1.988c-.875-.056-1.622.605-2.468.837a3.988,3.988,0,0,1-2.506-.289c-.794-.32-1.537-.761-2.341-1.055a6.864,6.864,0,0,0-8.778,4.03,3.047,3.047,0,0,0-3.232,1.223,5,5,0,0,0-.765,3.522,11.181,11.181,0,0,0,.614,2.408c0,.069-.007.137-.006.206.056,2.952.389,6.417,1.648,6.437,2.195.034,1.672-4.1,1.672-4.1,2.693-1.041,1.69-5.076,2.363-5.688s2.082-2.035,7.721.848a10.921,10.921,0,0,0,6.69.723c.047-.01.094-.017.14-.028l.032-.007c.018,0,.03-.014.047-.019a5.069,5.069,0,0,0,1.446-.613,2.855,2.855,0,0,0,1.192-1.325,1.565,1.565,0,0,0-.308-1.68,3.448,3.448,0,0,0,.8-1.806" transform="translate(-7178.691 -10898.659)" fill="#263238"/>
      <path id="Trazado_600177" data-name="Trazado 600177" d="M196.04,167.132a35.994,35.994,0,0,1,5.7-1.091,22.828,22.828,0,0,0,13.756.008c.559.07,1.334.143,2.31.259,5.976.707,8.269,1.967,12.56,6.186l-.468,24.188s1.441,27.521,1.334,31.968H190.394l-.033-18.664.01-5.08-13.444,4.881,1.224-7.056s6.019-23.374,6.956-26.528c1.139-3.831,5.238-7.98,10.934-9.071" transform="translate(-7170.849 -10912.317)" fill="#0a763d"/>
      <path id="Trazado_600178" data-name="Trazado 600178" d="M183.082,215.743l20.127-2.86,3.826,6.853-18.711,8.435a8.078,8.078,0,0,1-10.792-4.3l-.606-1.476Z" transform="translate(-7170.849 -10924.928)" fill="#0a763d"/>
      <path id="Trazado_600179" data-name="Trazado 600179" d="M231.081,207.514l-.437-.328a10.052,10.052,0,0,0-7.92-1.831,13.791,13.791,0,0,0-6.168,2.9l-3.449,2.839,3.668,6.571,2.5-3.493s2.328,3.161,2.744,2.828a5.345,5.345,0,0,0,.915-1.331l-1.663-2.329,3.992.832,5.822-2.661-2.495-3.161,2.495.832Z" transform="translate(-7180.59 -10922.854)" fill="#ffbe9d"/>
      <path id="Trazado_600180" data-name="Trazado 600180" d="M240.484,168.513a14.849,14.849,0,0,1,8.076,7.408c1.558,3.569,3.849,20.748,3.849,20.748l2.889,5.572a9.392,9.392,0,0,1,1.055,4.324v.849a9.4,9.4,0,0,1-8.563,9.357c-2.883.258-6.37.371-7.116-.48a36.081,36.081,0,0,1-3.286-5.539l8.408-4.467-3.62-6.7Z" transform="translate(-7187.126 -10912.982)" fill="#0a763d"/>
      <path id="Trazado_600181" data-name="Trazado 600181" d="M191.782,227.467a1.6,1.6,0,0,1,.325-.182l.964-.468,3.612-1.687,12.333-5.629-.083.252-2.361-4.222L205.1,212.9l.178.092-14.744,1.448-4.383.392-1.184.088a1.874,1.874,0,0,1-.414.008,1.833,1.833,0,0,1,.406-.076l1.177-.153,4.372-.5,14.732-1.568.119-.012.059.105,1.469,2.628,2.355,4.225.1.173-.18.08-12.385,5.514-3.656,1.589-.989.412a1.607,1.607,0,0,1-.352.123" transform="translate(-7172.904 -10924.856)" fill="#263238"/>
      <path id="Trazado_600182" data-name="Trazado 600182" d="M199.264,208.155c-.1,0-.184-3.6-.184-8.036s.083-8.036.184-8.036.184,3.6.184,8.036-.083,8.036-.184,8.036" transform="translate(-7176.814 -10919.328)" fill="#263238"/>
      <path id="Trazado_600183" data-name="Trazado 600183" d="M244.93,221.383a1.815,1.815,0,0,1,.612-.1,5.6,5.6,0,0,1,1.7.1,2.012,2.012,0,0,1,1.065.6,2.775,2.775,0,0,1,.556,1.282,2.974,2.974,0,0,1-.137,1.533,2.857,2.857,0,0,1-1.018,1.307,7.6,7.6,0,0,1-2.915,1.039,13.216,13.216,0,0,1-2.5.243A4.515,4.515,0,0,1,240.03,227a11.931,11.931,0,0,0,2.259.134,15.117,15.117,0,0,0,2.434-.315,7.671,7.671,0,0,0,2.766-1.006,2.626,2.626,0,0,0,.58-3.628,1.784,1.784,0,0,0-.9-.546,6.771,6.771,0,0,0-1.625-.21,2.267,2.267,0,0,1-.615-.047" transform="translate(-7187.837 -10927.185)" fill="#263238"/>
      <path id="Trazado_600184" data-name="Trazado 600184" d="M248.266,233.3a4.255,4.255,0,0,1-1.445.171,9.176,9.176,0,0,1-3.477-.577,7.514,7.514,0,0,1-1.731-.921,4.165,4.165,0,0,1-1.069-1.208,3.175,3.175,0,0,1-.516-1.369c.059-.025.249.5.735,1.228a4.32,4.32,0,0,0,1.052,1.075,8.157,8.157,0,0,0,1.663.851,10.856,10.856,0,0,0,3.348.66,8.736,8.736,0,0,1,1.44.089" transform="translate(-7187.835 -10929.374)" fill="#263238"/>
      <path id="Trazado_600185" data-name="Trazado 600185" d="M254.077,210.882a6.979,6.979,0,0,1-.993,1.193c-.647.71-1.557,1.672-2.579,2.72s-1.961,1.983-2.655,2.648a6.6,6.6,0,0,1-1.177,1.022,6.55,6.55,0,0,1,.99-1.2c.645-.71,1.555-1.674,2.577-2.723a35.622,35.622,0,0,1,3.836-3.655" transform="translate(-7189.625 -10924.389)" fill="#263238"/>
      <path id="Trazado_600186" data-name="Trazado 600186" d="M244.194,202.364a28.839,28.839,0,0,1-.184-4.594,28.831,28.831,0,0,1,.184-4.594,28.829,28.829,0,0,1,.184,4.594,28.837,28.837,0,0,1-.184,4.594" transform="translate(-7188.909 -10919.623)" fill="#263238"/>
      <path id="Trazado_600187" data-name="Trazado 600187" d="M234.883,178.7c0,.1-10.307.184-23.018.184s-23.02-.083-23.02-.184,10.3-.184,23.02-.184,23.018.083,23.018.184" transform="translate(-7174.059 -10915.676)" fill="#e0e0e0"/>
      <path id="Trazado_600188" data-name="Trazado 600188" d="M235.593,183.716c0,.1-10.862.184-24.258.184s-24.26-.083-24.26-.184,10.859-.184,24.26-.184,24.258.083,24.258.184" transform="translate(-7173.582 -10917.027)" fill="#e0e0e0"/>
      <path id="Trazado_600189" data-name="Trazado 600189" d="M233.766,174.126c0,.1-9.462.184-21.131.184s-21.133-.083-21.133-.184,9.459-.184,21.133-.184,21.131.083,21.131.184" transform="translate(-7174.774 -10914.444)" fill="#e0e0e0"/>
      <path id="Trazado_600190" data-name="Trazado 600190" d="M236.743,249.849c0,.1-9.262.184-20.685.184s-20.687-.083-20.687-.184,9.261-.184,20.687-.184,20.685.083,20.685.184" transform="translate(-7175.815 -10934.83)" fill="#e0e0e0"/>
      <path id="Trazado_600191" data-name="Trazado 600191" d="M236.568,246.63c0,.1-9.139.184-20.408.184s-20.411-.083-20.411-.184,9.136-.184,20.411-.184,20.408.083,20.408.184" transform="translate(-7175.917 -10933.963)" fill="#e0e0e0"/>
      <path id="Trazado_600192" data-name="Trazado 600192" d="M236.051,242.465c0,.1-9.107.184-20.339.184s-20.341-.083-20.341-.184,9.1-.184,20.341-.184,20.339.083,20.339.184" transform="translate(-7175.815 -10932.842)" fill="#e0e0e0"/>
      <path id="Trazado_600193" data-name="Trazado 600193" d="M209.213,222.1a3.668,3.668,0,0,1-1.031-.962,9.74,9.74,0,0,1-2.235-6.327,3.668,3.668,0,0,1,.2-1.4,12.494,12.494,0,0,0,3.068,8.685" transform="translate(-7178.662 -10925.07)" fill="#e0e0e0"/>
      <path id="Trazado_600194" data-name="Trazado 600194" d="M206.53,223.338a4.246,4.246,0,0,1-1.114-1.062,10.662,10.662,0,0,1-2.407-6.921,4.254,4.254,0,0,1,.215-1.524,13.352,13.352,0,0,0,3.307,9.507" transform="translate(-7177.871 -10925.184)" fill="#e0e0e0"/>
      <path id="Trazado_600195" data-name="Trazado 600195" d="M203.981,224.4a4.334,4.334,0,0,1-1.252-1.061,9.662,9.662,0,0,1-2.412-7.377,4.33,4.33,0,0,1,.384-1.6c.062.015-.079.623-.124,1.614a10.764,10.764,0,0,0,2.35,7.189c.622.774,1.1,1.181,1.054,1.23" transform="translate(-7177.133 -10925.327)" fill="#e0e0e0"/>
      <path id="Trazado_600196" data-name="Trazado 600196" d="M240.848,227.12c.023-.025.212.164.62.387a4.453,4.453,0,0,0,1.891.474,16.077,16.077,0,0,0,2.941-.191,4.6,4.6,0,0,0,3.084-1.507A4.363,4.363,0,0,0,250.3,223a4.67,4.67,0,0,0-1.274-2.537A7,7,0,0,0,246.771,219a1.963,1.963,0,0,1,.723.181,5.138,5.138,0,0,1,1.714,1.1,4.792,4.792,0,0,1,1.426,2.672,4.624,4.624,0,0,1-.966,3.567,4.008,4.008,0,0,1-1.573,1.169,6.819,6.819,0,0,1-1.747.441,14.684,14.684,0,0,1-3.009.115,4.211,4.211,0,0,1-1.945-.611,1.542,1.542,0,0,1-.547-.511" transform="translate(-7188.058 -10926.571)" fill="#e0e0e0"/>
      <path id="Trazado_600197" data-name="Trazado 600197" d="M248.548,217.4c0-.012.077-.02.225-.02a2.41,2.41,0,0,1,.639.108,4.065,4.065,0,0,1,1.888,1.424,9.668,9.668,0,0,1,1.573,3.139,5.84,5.84,0,0,1,.232,2.089,4.594,4.594,0,0,1-.754,2.138,6.528,6.528,0,0,1-3.471,2.522,10.359,10.359,0,0,1-3.484.4,19.822,19.822,0,0,1-2.339-.249,3.586,3.586,0,0,1-.842-.184c.007-.069,1.223.131,3.186.172a10.645,10.645,0,0,0,3.373-.463,6.313,6.313,0,0,0,3.269-2.4,4.29,4.29,0,0,0,.7-1.967,5.605,5.605,0,0,0-.2-1.967,9.915,9.915,0,0,0-1.452-3.071,4.16,4.16,0,0,0-1.73-1.447c-.5-.192-.819-.187-.816-.224" transform="translate(-7188.426 -10926.14)" fill="#e0e0e0"/>
      <path id="Trazado_600198" data-name="Trazado 600198" d="M224.572,206.458l-12.809,15.513.982,1.064,20.788-3.169,10.309-15.513-.957-.861Z" transform="translate(-7180.228 -10922.4)" fill="#263238"/>
      <path id="Trazado_600199" data-name="Trazado 600199" d="M240.574,213.153h0a1.976,1.976,0,0,0-1.847,1.262,4.278,4.278,0,0,1-1.26,2.013,4.465,4.465,0,0,1-3.359.495c-.84-.411-4.2-3.434-4.787-3.1s-1.092,1.092-.5,1.764,3.695,2.687,3.107,3.359-7.138-2.285-8.146-2.024-1.6.881-1.008,1.285,5.039,2.083,5.29,2.671c0,0-6.718-1.763-6.97-1.343s-.672,1.092,0,1.343,6.467,1.764,6.97,2.015a12.212,12.212,0,0,0,2.59.756,27.551,27.551,0,0,1,2.706.858,5.931,5.931,0,0,0,4.179-.112l.68-.277a2.668,2.668,0,0,0,1.656-2.63l-.137-2.29.733-1.89Z" transform="translate(-7182.642 -10925.001)" fill="#ffbe9d"/>
      <path id="Trazado_600200" data-name="Trazado 600200" d="M244.256,204.775a1.6,1.6,0,0,1-.384.094l-1.112.2-4.1.658-6.083.929-3.589.543a6.865,6.865,0,0,0-3.479,1.409,23.361,23.361,0,0,0-2.534,2.911l-2.274,2.835-3.867,4.788-2.632,3.207-.73.861a1.608,1.608,0,0,1-.274.284,1.552,1.552,0,0,1,.216-.33l.676-.9,2.54-3.281,3.805-4.837,2.257-2.849a22.942,22.942,0,0,1,2.58-2.968,7.174,7.174,0,0,1,3.656-1.484l3.6-.523,6.095-.851,4.114-.542,1.121-.129a1.614,1.614,0,0,1,.395-.02" transform="translate(-7180.615 -10922.743)" fill="#455a64"/>
      <path id="Trazado_600201" data-name="Trazado 600201" d="M242.132,209.429a1.747,1.747,0,0,0-.576.468.6.6,0,0,0-.026.7.643.643,0,0,0,.857.014.839.839,0,0,0,.333-.5.59.59,0,0,0-.178-.555.456.456,0,0,0-.563-.023" transform="translate(-7188.215 -10923.998)" fill="#fafafa"/>
      <rect id="Rectángulo_297976" data-name="Rectángulo 297976" width="33.558" height="67.681" transform="translate(-7116.87 -10696.916)" fill="#455a64"/>
      <path id="Trazado_600202" data-name="Trazado 600202" d="M8.891,301.106h0a5.236,5.236,0,0,1-5.236-5.236V238.82a5.236,5.236,0,1,1,10.472,0v57.05a5.236,5.236,0,0,1-5.236,5.236" transform="translate(-7124.203 -10930.5)" fill="#455a64"/>
      <path id="Trazado_600203" data-name="Trazado 600203" d="M14.56,237.308a.56.56,0,0,1,.03.168c.014.134.03.3.05.5q.057.7.156,1.907c.121,1.692.293,4.082.5,7.02.391,5.96.927,14.137,1.519,23.17.561,9.054,1.093,17.241,1.382,23.186a18.108,18.108,0,0,1-.87,6.977,9.12,9.12,0,0,1-.851,1.722l-.287.409c-.066.091-.1.135-.108.131a12.984,12.984,0,0,0,1.106-2.313,18.6,18.6,0,0,0,.742-6.918c-.384-5.96-.911-14.136-1.494-23.17-.548-9.035-1.045-17.215-1.407-23.177-.161-2.941-.291-5.333-.384-7.027q-.054-1.207-.085-1.912c-.005-.2-.009-.363-.012-.5a.573.573,0,0,1,.009-.17" transform="translate(-7127.136 -10931.504)" fill="#263238"/>
      <rect id="Rectángulo_297977" data-name="Rectángulo 297977" width="5.409" height="64.811" transform="translate(-7086.322 -10620.835)" fill="#455a64"/>
      <path id="Trazado_600204" data-name="Trazado 600204" d="M77.368,334.6H0a8.4,8.4,0,0,1,8.4-8.4H68.97a8.4,8.4,0,0,1,8.4,8.4" transform="translate(-7123.219 -10955.435)" fill="#455a64"/>
      <path id="Trazado_600205" data-name="Trazado 600205" d="M57.188,337.847a28.374,28.374,0,0,1-4.746.2,28.372,28.372,0,0,1-4.746-.2,28.478,28.478,0,0,1,4.746-.2,28.48,28.48,0,0,1,4.746.2" transform="translate(-7136.06 -10958.517)" fill="#263238"/>
      <path id="Trazado_600206" data-name="Trazado 600206" d="M69.047,425.654h-.765a23.017,23.017,0,1,0-46.034,0h-.764a23.782,23.782,0,1,1,47.564,0" transform="translate(-7129.002 -10975.806)" fill="#455a64"/>
      <path id="Trazado_600207" data-name="Trazado 600207" d="M24.258,432.509a3.566,3.566,0,1,1-3.566-3.566,3.566,3.566,0,0,1,3.566,3.566" transform="translate(-7127.829 -10983.094)" fill="#263238"/>
      <path id="Trazado_600208" data-name="Trazado 600208" d="M88.507,432.735a3.566,3.566,0,1,1-3.566-3.566,3.566,3.566,0,0,1,3.566,3.566" transform="translate(-7145.126 -10983.154)" fill="#455a64"/>
      <path id="Trazado_600209" data-name="Trazado 600209" d="M69.226,426.307c0,.11-10.349.2-23.112.2S23,426.417,23,426.307s10.346-.2,23.114-.2,23.112.09,23.112.2" transform="translate(-7129.41 -10982.331)" fill="#455a64"/>
      <path id="Trazado_600210" data-name="Trazado 600210" d="M32.075,325.965a6.865,6.865,0,0,1-1.169.083l-3.184.084c-2.689.054-6.4.1-10.505.131l-5.786.038a19.555,19.555,0,0,0-4.657.423,7.664,7.664,0,0,0-2.815,1.34c-.595.449-.862.775-.894.743-.01-.009.053-.092.183-.243a4.75,4.75,0,0,1,.617-.617A7.3,7.3,0,0,1,6.7,326.461a18.671,18.671,0,0,1,4.719-.514c1.774-.046,3.734-.048,5.786-.068,4.1-.03,7.822-.034,10.512-.019l3.186.039a6.821,6.821,0,0,1,1.168.066" transform="translate(-7124.043 -10955.341)" fill="#263238"/>
      <path id="Trazado_600211" data-name="Trazado 600211" d="M36.949,212.054h0c4.026,0,7.37-2.629,7.426-14.866.011-2.462-.069-4.591-.069-4.591s5.81-.529,6.237-6.163.1-18.708.1-18.708a20.137,20.137,0,0,0-20.111,1.328l-.894.592.276,27.693c.039,3.885,3.068,14.715,7.033,14.715" transform="translate(-7131.198 -10912.211)" fill="#b78876"/>
      <path id="Trazado_600212" data-name="Trazado 600212" d="M47.012,201.477a13.6,13.6,0,0,1-7.37-2.542s1.517,4.165,7.291,4Z" transform="translate(-7133.891 -10921.173)" fill="#aa6550"/>
      <path id="Trazado_600213" data-name="Trazado 600213" d="M55.905,180.663a.8.8,0,0,1-.778.8.767.767,0,0,1-.832-.713.8.8,0,0,1,.777-.8.767.767,0,0,1,.832.713" transform="translate(-7137.836 -10916.063)" fill="#263238"/>
      <path id="Trazado_600214" data-name="Trazado 600214" d="M55.565,179.4c-.1.1-.711-.34-1.579-.338s-1.5.428-1.6.323c-.046-.046.056-.232.333-.43A2.241,2.241,0,0,1,54,178.573a2.154,2.154,0,0,1,1.257.4c.267.2.357.387.308.433" transform="translate(-7137.319 -10915.691)" fill="#263238"/>
      <path id="Trazado_600215" data-name="Trazado 600215" d="M44.273,180.936a.8.8,0,0,1-.778.8.766.766,0,0,1-.832-.712.8.8,0,0,1,.777-.8.766.766,0,0,1,.832.713" transform="translate(-7134.705 -10916.135)" fill="#263238"/>
      <path id="Trazado_600216" data-name="Trazado 600216" d="M43.89,179.621c-.1.1-.712-.34-1.579-.337s-1.5.428-1.6.323c-.046-.046.055-.232.333-.43a2.239,2.239,0,0,1,1.279-.387,2.15,2.15,0,0,1,1.257.4c.266.2.357.387.308.433" transform="translate(-7134.176 -10915.75)" fill="#263238"/>
      <path id="Trazado_600217" data-name="Trazado 600217" d="M49.225,185.948a5.858,5.858,0,0,1,1.41-.249c.221-.023.431-.066.469-.213a1.09,1.09,0,0,0-.148-.644q-.312-.788-.656-1.654a28.03,28.03,0,0,1-1.472-4.326,28.238,28.238,0,0,1,1.824,4.2c.219.581.428,1.134.628,1.664a1.231,1.231,0,0,1,.115.852.552.552,0,0,1-.364.317,1.517,1.517,0,0,1-.377.051,5.756,5.756,0,0,1-1.429,0" transform="translate(-7136.362 -10915.77)" fill="#263238"/>
      <path id="Trazado_600218" data-name="Trazado 600218" d="M45.827,189.362c.141-.007.143.916.949,1.57s1.809.553,1.817.683c.013.058-.224.179-.647.191a2.376,2.376,0,0,1-1.516-.518,1.991,1.991,0,0,1-.736-1.315c-.036-.386.069-.615.134-.61" transform="translate(-7135.518 -10918.596)" fill="#263238"/>
      <path id="Trazado_600219" data-name="Trazado 600219" d="M43.912,175.132c-.086.231-.952.121-1.97.242-1.021.1-1.842.392-1.978.185-.06-.1.083-.316.415-.541a3.512,3.512,0,0,1,3.007-.325c.374.148.562.33.525.439" transform="translate(-7133.975 -10914.593)" fill="#263238"/>
      <path id="Trazado_600220" data-name="Trazado 600220" d="M55.213,176.018c-.153.194-.751-.007-1.47-.016-.718-.034-1.328.13-1.468-.072-.061-.1.034-.292.3-.474a2.164,2.164,0,0,1,2.366.072c.254.2.338.4.27.491" transform="translate(-7137.288 -10914.767)" fill="#263238"/>
      <path id="Trazado_600221" data-name="Trazado 600221" d="M50.026,164.322a5.759,5.759,0,0,0-.877-2.459,2.452,2.452,0,0,0-.3-2.528,2.487,2.487,0,0,0-3.405-.183c-.015,0-.03-.012-.045-.016a1.332,1.332,0,0,0-.408-1.6A3.12,3.12,0,0,0,43,157.066c-1.3.022-4.35,1.048-6.7,1.926-.149.028-.3.051-.451.08a12.323,12.323,0,0,0-5.353,2.311,11.462,11.462,0,0,0-3.349,5.923c-.6,2.24-.609,4.592-.15,8.4.7-.623,3.174-2.188,3.543-1.323a5.175,5.175,0,0,1,.189,1.582,1.359,1.359,0,0,0,.807,1.269,1.075,1.075,0,0,0,1.112-.487,2.506,2.506,0,0,0,.353-1.23c.14-1.755-.3-3.533-.019-5.27a6.469,6.469,0,0,1,7.658-5.32,13.691,13.691,0,0,0,3.145.645c1.542-.059,3.12-1.168,4.511-.5.276.132.552.261.816.415.525.309.785.615.913.337a5.264,5.264,0,0,0,0-1.5" transform="translate(-7130.4 -10909.901)" fill="#263238"/>
      <path id="Trazado_600222" data-name="Trazado 600222" d="M30.447,179.631c-.107-.039-3.641-.49-3.307,3.6s4.438,2.406,4.436,2.289-1.129-5.888-1.129-5.888" transform="translate(-7130.52 -10915.967)" fill="#b78876"/>
      <path id="Trazado_600223" data-name="Trazado 600223" d="M30.573,184.7c-.02-.012-.069.056-.187.121a.743.743,0,0,1-.542.053,1.767,1.767,0,0,1-.962-1.516A2.309,2.309,0,0,1,29,182.326a.831.831,0,0,1,.5-.59.375.375,0,0,1,.445.161c.065.11.045.194.068.2s.084-.075.037-.241a.455.455,0,0,0-.185-.243.558.558,0,0,0-.411-.073,1.016,1.016,0,0,0-.707.693,2.378,2.378,0,0,0-.159,1.16,1.859,1.859,0,0,0,1.205,1.682.789.789,0,0,0,.656-.16c.121-.111.136-.2.121-.21" transform="translate(-7130.912 -10916.487)" fill="#aa6550"/>
      <path id="Trazado_600224" data-name="Trazado 600224" d="M79.644,410.621l3.186-4.464-12.262-8.586-5.078,6.89.7.6c3.148,2.656,16.191,13.293,18.878,14.3,3,1.12-5.428-8.741-5.428-8.741" transform="translate(-7140.85 -10974.647)" fill="#fec08a"/>
      <g id="Grupo_878222" data-name="Grupo 878222" transform="translate(-7075.221 -10573.652)" clip-path="url(#clip-path-11)">
        <path id="Trazado_600225" data-name="Trazado 600225" d="M69.925,408.887a5.13,5.13,0,0,0,.491-3.647,4.411,4.411,0,0,0-2.32-2.984l-2.416,3.308Z" transform="translate(-65.68 -402.257)" fill="#fff"/>
      </g>
      <g id="Grupo_878225" data-name="Grupo 878225" transform="translate(-7075.359 -10570.433)" clip-path="url(#clip-path-12)">
        <path id="Trazado_600226" data-name="Trazado 600226" d="M83.631,418.06s2.786,3.676,1.912,3.914S71.092,411.95,65.492,406.909l.215-.246,15.738,12.1s1.472-1.2,2.187-.706" transform="translate(-65.492 -406.663)" fill="#fff"/>
      </g>
      <path id="Trazado_600227" data-name="Trazado 600227" d="M65.539,406.46a1.382,1.382,0,0,0,.188.176l.561.479,2.092,1.725c1.777,1.445,4.258,3.408,7.043,5.517s5.351,3.964,7.222,5.283l2.228,1.546.613.41a1.385,1.385,0,0,0,.22.133,1.359,1.359,0,0,0-.2-.162l-.593-.437-2.195-1.592c-1.853-1.344-4.4-3.214-7.189-5.322s-5.276-4.055-7.072-5.474l-2.127-1.681-.582-.452a1.482,1.482,0,0,0-.21-.149" transform="translate(-7140.862 -10977.042)" fill="#263238"/>
      <path id="Trazado_600228" data-name="Trazado 600228" d="M87.129,423.085a5.914,5.914,0,0,1,1.168-.706,6.056,6.056,0,0,1,1.35-.254,2,2,0,0,0-1.417.087,1.93,1.93,0,0,0-1.1.873" transform="translate(-7146.674 -10981.237)" fill="#263238"/>
      <path id="Trazado_600229" data-name="Trazado 600229" d="M84.133,417.266a1.56,1.56,0,0,0,.713-.164c.376-.137.666-.285.648-.331a1.556,1.556,0,0,0-.713.164c-.376.137-.666.285-.648.331" transform="translate(-7145.868 -10979.813)" fill="#263238"/>
      <path id="Trazado_600230" data-name="Trazado 600230" d="M83.331,415.721c.005.049.285.068.626.043s.614-.086.609-.135-.285-.069-.626-.043-.614.086-.609.135" transform="translate(-7145.652 -10979.496)" fill="#263238"/>
      <path id="Trazado_600231" data-name="Trazado 600231" d="M83.635,413.638c-.03.039.221.284.562.547s.64.445.67.406-.221-.284-.562-.547-.64-.445-.67-.406" transform="translate(-7145.733 -10978.973)" fill="#263238"/>
      <path id="Trazado_600232" data-name="Trazado 600232" d="M84.15,412.362a2.232,2.232,0,0,0,1.329,1.168c.024-.045-.308-.261-.668-.579s-.619-.618-.661-.588" transform="translate(-7145.872 -10978.629)" fill="#263238"/>
      <path id="Trazado_600233" data-name="Trazado 600233" d="M85.722,416.382a2.79,2.79,0,0,0,.767.573,5.727,5.727,0,0,0,.946.439,2.8,2.8,0,0,0,.607.164.507.507,0,0,0,.365-.089.364.364,0,0,0,.11-.387,1.779,1.779,0,0,0-2.037-.909,1.663,1.663,0,0,0-.626.311c-.128.105-.18.18-.172.187a2.653,2.653,0,0,1,.831-.375,1.729,1.729,0,0,1,.967.077,1.51,1.51,0,0,1,.864.749c.055.18-.1.284-.292.261a2.884,2.884,0,0,1-.566-.145,6.71,6.71,0,0,1-.938-.395c-.517-.266-.81-.486-.827-.463" transform="translate(-7146.286 -10979.641)" fill="#263238"/>
      <path id="Trazado_600234" data-name="Trazado 600234" d="M85.86,415.975c0,.016.262-.09.481-.453a1.521,1.521,0,0,0,.205-.705.965.965,0,0,0-.348-.862.374.374,0,0,0-.5.168,1,1,0,0,0-.123.433,2.849,2.849,0,0,0,.018.726,1.393,1.393,0,0,0,.208.634c.027-.008-.051-.249-.083-.646a3.261,3.261,0,0,1,.02-.691c.015-.238.158-.577.376-.466a.86.86,0,0,1,.263.7,1.538,1.538,0,0,1-.152.65,3.319,3.319,0,0,1-.369.514" transform="translate(-7146.253 -10979.047)" fill="#263238"/>
      <path id="Trazado_600235" data-name="Trazado 600235" d="M69.169,402.349c-.018.029.365.226.855.694a4.867,4.867,0,0,1,1.332,2.223,4.722,4.722,0,0,1-.056,2.564c-.2.637-.432.985-.4,1a.839.839,0,0,0,.178-.235,3.785,3.785,0,0,0,.346-.726,4.515,4.515,0,0,0,.109-2.648,4.665,4.665,0,0,0-1.421-2.272,4,4,0,0,0-.666-.478.881.881,0,0,0-.274-.124" transform="translate(-7141.839 -10975.935)" fill="#263238"/>
      <path id="Trazado_600236" data-name="Trazado 600236" d="M74.712,411.324a12.487,12.487,0,0,0,3.451,2.659c.027-.044-.785-.585-1.734-1.318s-1.681-1.378-1.717-1.341" transform="translate(-7143.332 -10978.351)" fill="#263238"/>
      <path id="Trazado_600237" data-name="Trazado 600237" d="M71.45,408.908c-.05.007-.058.209-.111.444s-.126.422-.083.451.2-.138.259-.41-.018-.493-.064-.485" transform="translate(-7142.398 -10977.701)" fill="#263238"/>
      <path id="Trazado_600238" data-name="Trazado 600238" d="M71.414,406.534c-.049.006-.064.186-.034.4s.095.385.145.379.064-.185.033-.4-.1-.384-.144-.379" transform="translate(-7142.431 -10977.061)" fill="#263238"/>
      <path id="Trazado_600239" data-name="Trazado 600239" d="M70.217,404.56c-.021.046.137.164.267.356s.186.379.238.376.073-.238-.091-.474-.4-.3-.414-.257" transform="translate(-7142.122 -10976.526)" fill="#263238"/>
      <path id="Trazado_600240" data-name="Trazado 600240" d="M69.225,403.321c-.042.026-.019.137.052.249s.161.182.2.156.018-.137-.052-.248-.162-.183-.2-.157" transform="translate(-7141.849 -10976.194)" fill="#263238"/>
      <g id="Grupo_878228" data-name="Grupo 878228" transform="translate(-7072.319 -10575.306)" clip-path="url(#clip-path-13)">
        <path id="Trazado_600241" data-name="Trazado 600241" d="M69.651,400.989l12.393,8.543.359-.477L70.356,400Z" transform="translate(-69.651 -399.996)"/>
      </g>
      <path id="Trazado_600242" data-name="Trazado 600242" d="M160.623,432.851l-1.147-5.231-14.247,3.258,1.665,8.188.9-.114c3.986-.54,20.229-3.021,22.716-4.309,2.774-1.437-9.884-1.793-9.884-1.793" transform="translate(-7162.316 -10982.738)" fill="#fec08a"/>
      <g id="Grupo_878231" data-name="Grupo 878231" transform="translate(-7016.259 -10548.074)" clip-path="url(#clip-path-14)">
        <path id="Trazado_600243" data-name="Trazado 600243" d="M152.362,440.56a5.006,5.006,0,0,0-2.32-2.743,4.3,4.3,0,0,0-3.68-.273l.814,3.916Z" transform="translate(-146.362 -437.258)" fill="#fff"/>
      </g>
      <g id="Grupo_878234" data-name="Grupo 878234" transform="translate(-7015.458 -10549.505)" clip-path="url(#clip-path-15)">
        <path id="Trazado_600244" data-name="Trazado 600244" d="M167.448,435.3s4.487.389,4.087,1.177-16.723,3.9-24.041,4.657l-.037-.317,19.07-3.472s.094-1.852.92-2.045" transform="translate(-147.458 -435.3)" fill="#fff"/>
      </g>
      <path id="Trazado_600245" data-name="Trazado 600245" d="M147.148,441.2a1.391,1.391,0,0,0,.251-.02l.714-.093,2.619-.387c2.21-.341,5.256-.852,8.607-1.488s6.375-1.278,8.555-1.771l2.578-.6.7-.175a1.331,1.331,0,0,0,.24-.072,1.355,1.355,0,0,0-.248.038l-.705.144-2.59.547c-2.187.462-5.211,1.084-8.56,1.721s-6.391,1.166-8.595,1.538l-2.61.44-.709.125a1.371,1.371,0,0,0-.246.055" transform="translate(-7162.833 -10985.151)" fill="#263238"/>
      <path id="Trazado_600246" data-name="Trazado 600246" d="M173.575,437.493a5.778,5.778,0,0,1,.254-1.308,5.887,5.887,0,0,1,.7-1.143,1.946,1.946,0,0,0-.865,1.083,1.887,1.887,0,0,0-.089,1.368" transform="translate(-7169.925 -10984.736)" fill="#263238"/>
      <path id="Trazado_600247" data-name="Trazado 600247" d="M167.28,436.145c.045.018.2-.262.349-.623s.229-.669.184-.686-.2.262-.348.623-.23.669-.185.686" transform="translate(-7168.249 -10984.681)" fill="#263238"/>
      <path id="Trazado_600248" data-name="Trazado 600248" d="M165.543,435.757c.039.029.236-.162.441-.425s.34-.5.3-.53-.236.161-.441.425-.34.5-.3.53" transform="translate(-7167.783 -10984.67)" fill="#263238"/>
      <path id="Trazado_600249" data-name="Trazado 600249" d="M164.2,434.384a3.383,3.383,0,1,0,.733-.219,1.758,1.758,0,0,0-.733.219" transform="translate(-7167.423 -10984.479)" fill="#263238"/>
      <path id="Trazado_600250" data-name="Trazado 600250" d="M163.612,433.2a1.49,1.49,0,0,0,.878.078,1.506,1.506,0,0,0,.838-.276,4.69,4.69,0,0,0-.857.1,4.762,4.762,0,0,0-.859.094" transform="translate(-7167.266 -10984.185)" fill="#263238"/>
      <path id="Trazado_600251" data-name="Trazado 600251" d="M167.63,434.228a2.767,2.767,0,0,0,.918-.181,5.6,5.6,0,0,0,.938-.4,2.741,2.741,0,0,0,.517-.332.5.5,0,0,0,.174-.323.356.356,0,0,0-.208-.333,1.737,1.737,0,0,0-1.991.88,1.629,1.629,0,0,0-.186.658.5.5,0,0,0,.023.247,2.592,2.592,0,0,1,.273-.848,1.687,1.687,0,0,1,.689-.649,1.478,1.478,0,0,1,1.109-.136c.166.078.141.257,0,.383a2.8,2.8,0,0,1-.476.314,6.562,6.562,0,0,1-.9.422c-.532.2-.883.268-.877.3" transform="translate(-7168.347 -10984.078)" fill="#263238"/>
      <path id="Trazado_600252" data-name="Trazado 600252" d="M167.427,434.244a.891.891,0,0,0-.013-.645,1.48,1.48,0,0,0-.376-.609.94.94,0,0,0-.852-.314.366.366,0,0,0-.2.47,1,1,0,0,0,.232.373,2.816,2.816,0,0,0,.538.462,1.346,1.346,0,0,0,.6.264c.012-.025-.214-.126-.522-.363a3.206,3.206,0,0,1-.487-.467c-.162-.166-.314-.491-.091-.576a.838.838,0,0,1,.678.267,1.479,1.479,0,0,1,.371.536,3.21,3.21,0,0,1,.131.6" transform="translate(-7167.896 -10984.094)" fill="#263238"/>
      <path id="Trazado_600253" data-name="Trazado 600253" d="M146.548,437.458c.009.031.4-.116,1.063-.165a4.759,4.759,0,0,1,2.482.492,4.607,4.607,0,0,1,1.82,1.719c.333.559.43.959.462.949a.816.816,0,0,0-.053-.283,3.673,3.673,0,0,0-.3-.726,4.4,4.4,0,0,0-1.847-1.812,4.55,4.55,0,0,0-2.575-.46,3.933,3.933,0,0,0-.783.17.847.847,0,0,0-.269.117" transform="translate(-7162.671 -10985.301)" fill="#263238"/>
      <path id="Trazado_600254" data-name="Trazado 600254" d="M156.677,439.156a12.2,12.2,0,0,0,4.185-.758c-.014-.048-.937.186-2.09.393s-2.1.314-2.1.365" transform="translate(-7165.398 -10985.638)" fill="#263238"/>
      <path id="Trazado_600255" data-name="Trazado 600255" d="M152.841,440.16c-.028.041.113.179.248.371s.223.368.272.355.031-.235-.127-.455-.369-.311-.393-.271" transform="translate(-7164.364 -10986.111)" fill="#263238"/>
      <path id="Trazado_600256" data-name="Trazado 600256" d="M151.06,438.673c-.028.039.092.167.268.286s.341.183.369.143-.093-.167-.268-.286-.341-.183-.369-.144" transform="translate(-7163.885 -10985.711)" fill="#263238"/>
      <path id="Trazado_600257" data-name="Trazado 600257" d="M148.839,438.215c.019.045.209.008.433.04s.4.113.428.074-.125-.209-.4-.245-.48.091-.457.131" transform="translate(-7163.288 -10985.553)" fill="#263238"/>
      <path id="Trazado_600258" data-name="Trazado 600258" d="M147.3,438.147c-.009.047.087.1.214.126s.238,0,.247-.045-.087-.1-.215-.126-.238,0-.246.045" transform="translate(-7162.873 -10985.558)" fill="#263238"/>
      <g id="Grupo_878237" data-name="Grupo 878237" transform="translate(-7016.676 -10552.527)" clip-path="url(#clip-path-16)">
        <path id="Trazado_600259" data-name="Trazado 600259" d="M146.049,435.119l14.3-3.381-.111-.573-14.449,2.792Z" transform="translate(-145.791 -431.165)"/>
      </g>
      <path id="Trazado_600260" data-name="Trazado 600260" d="M115.54,259.112a14.006,14.006,0,0,1,2.849-2.716c.4-.132,7.551-3.113,7.684-2.782s.993,1.962-.464,2.737l-1.126.377,4.107.331s4.57,3.378,4.5,4.107-.663,1.193-1.06.861,1.06,2.319,1.06,2.319,0,1.126-.6.927a5.51,5.51,0,0,1-1.524-1.258s.862,1.391.6,1.656-1.589.331-1.722,0-.331-.927-.331-.927l-.8.066v1.086l-12.122.372Z" transform="translate(-7154.323 -10935.887)" fill="#aa6550"/>
      <path id="Trazado_600261" data-name="Trazado 600261" d="M49.842,215.37l3.7,4.382L68.35,245.664l28.873,2.855.634,8.356L64.6,260.015l-18.566-33.6Z" transform="translate(-7135.612 -10925.597)" fill="#e0e0e0"/>
      <path id="Trazado_600262" data-name="Trazado 600262" d="M43.533,224.7l-2.864-10.812-.061-3.52-16.071-7.3-3.089,3.84.373.2C20.557,208.433,11.2,218.543,11.759,226c.5,6.72,14.657,49.06,14.657,49.06l32.25-9.426Z" transform="translate(-7126.378 -10922.285)" fill="#ebebeb"/>
      <path id="Trazado_600263" data-name="Trazado 600263" d="M50.515,218.07l-.9,4.428,2.358,4.432v3.279l16.894,39.46,5,1.682.846-3.384s-14.067-24.009-16.5-30.777-6.029-16.5-6.029-16.5Z" transform="translate(-7136.575 -10926.324)" fill="#f0bd51"/>
      <path id="Trazado_600264" data-name="Trazado 600264" d="M15.748,240.067c0,.42,29.128,28.568,29.128,28.568l39.351-7.7-1.26-8.4-26.868.729a7.921,7.921,0,0,1-7.066-3.191c-5.763-7.485-18.257-23.715-18.58-24.145-.42-.561-14.7,14.144-14.7,14.144" transform="translate(-7127.458 -10928.435)" fill="#ebebeb"/>
      <path id="Trazado_600265" data-name="Trazado 600265" d="M83.112,251.984s.037.172.1.528c.061.371.146.9.259,1.6l.984,6.267.012.076-.077.015-31.413,6.071-2.587.5a11.742,11.742,0,0,1-2.714.24,10.946,10.946,0,0,1-7.607-3.438c-.663-.719-1.28-1.459-1.931-2.2L34.2,257.117,17.384,237.77l-.021-.025-.01-.027c-.038-.1-.078-.2-.118-.305a12.7,12.7,0,0,1-.945-4.532,8.345,8.345,0,0,1,1.122-4.43,9.337,9.337,0,0,1,3.237-3.138,10.043,10.043,0,0,1,4.211-1.4,8,8,0,0,1,4.289.763,11.148,11.148,0,0,1,3.346,2.659,35.189,35.189,0,0,1,2.534,3.3l2.352,3.291c3.13,4.312,6.233,8.316,9.227,11.989l2.224,2.692a23.6,23.6,0,0,0,2.236,2.478,5.229,5.229,0,0,0,2.873,1.173,22.369,22.369,0,0,0,3.075.083l19.132-.292,5.178-.064,1.34-.01c.3,0,.447.006.447.006s-.164.013-.472.023l-1.361.041-5.205.132-19.06.433a22.412,22.412,0,0,1-3.108-.072,5.522,5.522,0,0,1-3.027-1.228,23.635,23.635,0,0,1-2.28-2.507l-2.235-2.689c-3.009-3.669-6.125-7.67-9.266-11.983l-2.361-3.291a35.13,35.13,0,0,0-2.512-3.263,10.786,10.786,0,0,0-3.237-2.57,7.631,7.631,0,0,0-4.093-.723,9.627,9.627,0,0,0-7.155,4.355,7.967,7.967,0,0,0-1.068,4.233,12.346,12.346,0,0,0,.919,4.4c.04.1.08.2.115.3l-.032-.051,16.807,19.358L38.4,261.4c.646.736,1.275,1.492,1.919,2.192a10.608,10.608,0,0,0,7.363,3.346,11.435,11.435,0,0,0,2.642-.228l2.588-.49,31.443-5.914-.064.091-.891-6.237c-.1-.7-.171-1.241-.223-1.618s-.067-.559-.067-.559" transform="translate(-7127.604 -10927.888)" fill="#455a64"/>
      <path id="Trazado_600266" data-name="Trazado 600266" d="M44.3,211.894c.039.01-.112.721-.254,1.978-.17,1.254-.24,3.066-.692,5.211l-.047.221-.2-.115-5.748-3.309c-3.314-1.923-6.3-3.683-8.457-4.973l-2.541-1.544a5.981,5.981,0,0,1-.905-.612,6.047,6.047,0,0,1,.98.483l2.6,1.44c2.189,1.23,5.2,2.952,8.513,4.876l5.725,3.35-.246.105c.474-2.089.6-3.91.822-5.16.1-.628.2-1.12.288-1.451a1.92,1.92,0,0,1,.162-.5" transform="translate(-7130.073 -10923.815)" fill="#455a64"/>
      <path id="Trazado_600267" data-name="Trazado 600267" d="M124.673,261.65l-7.021-1.921-5.829,2.915h-3.312l-.531.217.943,6.287.835.12a8.157,8.157,0,0,0,2.793,1.06c1.855.4,4.571-.794,4.571-.794l3.709-2.054,2.651-.754,1.986,1.152a7.671,7.671,0,0,1,.2,1.06c0,.265.729.6,1.126.6s.53-.927.53-.927l-.464-1.984.927.858h2.319v-1.457Z" transform="translate(-7152.289 -10937.539)" fill="#b78876"/>
      <path id="Trazado_600268" data-name="Trazado 600268" d="M98.306,325.468,68.044,379.343l16.172,10.969,26.745-47.47-4.5-17.374Z" transform="translate(-7141.537 -10955.237)" fill="#263238"/>
      <path id="Trazado_600269" data-name="Trazado 600269" d="M31.594,298.1s-3.473,14.637,5.954,17.613,58.467,4.528,58.467,4.528l18.227,75.278,15.6-2.217-13.458-80.677a13.654,13.654,0,0,0-11.047-11.081c-14.542-2.6-40.887-7.371-41.246-7.909-.5-.745-2.481-4.962-2.481-4.962Z" transform="translate(-7131.556 -10945.332)" fill="#263238"/>
      <path id="Trazado_600270" data-name="Trazado 600270" d="M119.152,354.377a1.765,1.765,0,0,1-.157-.388c-.094-.257-.219-.642-.36-1.142-.289-1-.647-2.461-1.031-4.279-.376-1.834-.818-3.995-1.307-6.386a34.872,34.872,0,0,0-2.27-7.584,5.072,5.072,0,0,0-2.682-2.813,20.616,20.616,0,0,0-3.717-.813c-2.422-.336-4.627-.494-6.476-.61s-3.351-.172-4.388-.213l-1.193-.049a1.715,1.715,0,0,1-.417-.041,1.743,1.743,0,0,1,.417-.036c.273-.012.677-.02,1.2-.023,1.038,0,2.542.012,4.4.092s4.067.212,6.511.531a20.5,20.5,0,0,1,3.8.812,4.934,4.934,0,0,1,.943.474,4.681,4.681,0,0,1,.79.721,8.48,8.48,0,0,1,1.16,1.8,34.064,34.064,0,0,1,2.271,7.681c.487,2.409.873,4.584,1.228,6.4s.666,3.287.911,4.294.408,1.557.374,1.568" transform="translate(-7148.836 -10956.457)" fill="#455a64"/>
      <path id="Trazado_600271" data-name="Trazado 600271" d="M299.96,276.772l-194.757-.7-.021,5.783,11.561.042-.4,112.63,4.083.015.4-112.63,160.926.577-.4,112.63,4.083.015.4-112.63,14.1.05Z" transform="translate(-7151.536 -10941.939)" fill="#455a64"/>
      <path id="Trazado_600272" data-name="Trazado 600272" d="M280.179,233.3l10.8,31.569H339.9l-.361-1.626-19.78-.612-9.112-29.348Z" transform="translate(-7198.646 -10930.42)" fill="#e0e0e0"/>
      <path id="Trazado_600273" data-name="Trazado 600273" d="M308.465,252.893a2.244,2.244,0,0,1-1.237,2.83,2.156,2.156,0,0,1-2.407-1.855,2.244,2.244,0,0,1,1.237-2.83,2.157,2.157,0,0,1,2.407,1.855" transform="translate(-7205.255 -10935.186)" fill="#fff"/>
      <path id="Trazado_600274" data-name="Trazado 600274" d="M192.311,232.087l-10.8,31.569H132.59l.361-1.626,19.78-.612,9.112-29.348Z" transform="translate(-7158.914 -10930.094)" fill="#e0e0e0"/>
      <path id="Trazado_600275" data-name="Trazado 600275" d="M184.615,251.682a2.244,2.244,0,0,0,1.237,2.83,2.156,2.156,0,0,0,2.407-1.855,2.244,2.244,0,0,0-1.237-2.83,2.157,2.157,0,0,0-2.407,1.855" transform="translate(-7172.895 -10934.86)" fill="#fff"/>
      <path id="Trazado_600276" data-name="Trazado 600276" d="M245.256,257.968a5.988,5.988,0,1,1-5.988-5.988,5.988,5.988,0,0,1,5.988,5.988" transform="translate(-7186.02 -10935.453)" fill="#455a64"/>
      <rect id="Rectángulo_297985" data-name="Rectángulo 297985" width="39.112" height="14.296" transform="translate(-6966.309 -10679.848)" fill="#e0e0e0"/>
      <path id="Trazado_600277" data-name="Trazado 600277" d="M230.588,262.267a53.666,53.666,0,0,1-6.38.19,53.657,53.657,0,0,1-6.381-.19,53.625,53.625,0,0,1,6.381-.19,53.634,53.634,0,0,1,6.38.19" transform="translate(-7181.861 -10938.171)" fill="#263238"/>
      <path id="Trazado_600278" data-name="Trazado 600278" d="M230.588,265.076a53.67,53.67,0,0,1-6.38.19,53.661,53.661,0,0,1-6.381-.19,53.633,53.633,0,0,1,6.381-.19,53.642,53.642,0,0,1,6.38.19" transform="translate(-7181.861 -10938.928)" fill="#263238"/>
      <path id="Trazado_600279" data-name="Trazado 600279" d="M230.588,267.885a53.67,53.67,0,0,1-6.38.19,53.661,53.661,0,0,1-6.381-.19,53.649,53.649,0,0,1,6.381-.19,53.658,53.658,0,0,1,6.38.19" transform="translate(-7181.861 -10939.684)" fill="#263238"/>
      <path id="Trazado_600280" data-name="Trazado 600280" d="M230.588,270.693a53.666,53.666,0,0,1-6.38.19,53.657,53.657,0,0,1-6.381-.19,53.645,53.645,0,0,1,6.381-.19,53.654,53.654,0,0,1,6.38.19" transform="translate(-7181.861 -10940.439)" fill="#263238"/>
      <path id="Trazado_600281" data-name="Trazado 600281" d="M244.984,270.987a62.1,62.1,0,0,1-.19-6.866,62.107,62.107,0,0,1,.19-6.867,62.13,62.13,0,0,1,.19,6.867,62.122,62.122,0,0,1-.19,6.866" transform="translate(-7189.121 -10936.873)" fill="#263238"/>
    </g>
  </g>
</svg>
