<svg xmlns="http://www.w3.org/2000/svg" width="60" height="60" viewBox="0 0 60 60">
  <g id="Grupo_930006" data-name="Grupo 930006" transform="translate(-410 -1150)">
    <rect id="Rectángulo_305522" data-name="Rectángulo 305522" width="60" height="60" transform="translate(410 1150)" fill="none"/>
    <g id="Grupo_930473" data-name="Grupo 930473" transform="translate(-525.346 1076.078)">
      <path id="Trazado_612058" data-name="Trazado 612058" d="M974.239,86.146a.818.818,0,0,1,.941-.72c.74.019,1.481,0,2.222.007.615.006.859.252.878.858,0,.095,0,.189,0,.284v40.41c0,.962-.174,1.139-1.116,1.139H943.17c-.926,0-1.1-.17-1.1-1.1q0-20.252,0-40.505c0-.922.169-1.087,1.11-1.087,2.033,0,4.066-.008,6.1.007.349,0,.49-.059.473-.451-.03-.694.227-.92.936-.921,1.292,0,2.585-.012,3.877.008.334.005.474-.075.552-.423a5.032,5.032,0,0,1,9.784-.152c.124.494.313.59.775.578,1.339-.033,2.679-.013,4.018-.011.641,0,.9.235.881.879-.012.391.1.548.495.488a3.114,3.114,0,0,1,.472,0c.734,0,.824.062,1.075.716a.841.841,0,0,1-.954.708c-1.113,0-1.1.013-1.089,1.116,0,.3.1.363.382.36,1.166-.014,2.332-.009,3.5,0,.668,0,.911.244.911.911q0,17.534,0,35.069c0,.676-.229.908-.9.908q-14.3,0-28.6,0c-.654,0-.882-.224-.884-.878q-.009-2.647,0-5.293c0-.583.135-.738.7-.886.569.144.711.317.713.926q.008,2.168,0,4.336c0,.21-.031.389.3.385,1.9-.022,3.8-.023,5.7-.031.157.008.313.023.47.023q10.3,0,20.608.014c.447,0,.493-.142.493-.525q-.015-16.491-.008-32.981c0-.157-.011-.314-.016-.471.013-.065-.011-.092-.077-.075l-1.7,0c-.062-.006-.125-.016-.188-.016q-12.591,0-25.183-.009c-.353,0-.4.122-.4.43q.014,6.872.006,13.744,0,5.786,0,11.572c0,.7-.116.861-.716,1.026-.585-.17-.7-.314-.7-.941q0-3.8,0-7.609,0-9.31,0-18.621c0-.8.21-1.01,1-1.011q1.371,0,2.742,0c1.033,0,1.017,0,1.037-1.012.007-.361-.077-.479-.46-.475-1.749.022-3.5.027-5.247,0-.456-.008-.566.107-.565.564q.021,19.377,0,38.754c0,.448.093.563.555.563q16.122-.023,32.243,0c.465,0,.594-.093.594-.581q-.024-19.353-.013-38.707a2.642,2.642,0,0,1,0-.283c.025-.23-.081-.3-.3-.3-.457.01-.915-.013-1.371.007A.819.819,0,0,1,974.239,86.146Zm-14.031-.661c-2.883,0-5.767,0-8.65-.006-.293,0-.413.052-.4.38.027.692.023,1.386,0,2.079-.01.3.072.4.387.394,1.339-.018,2.679-.008,4.018-.008q6.57,0,13.141,0c.293,0,.5.014.475-.4a18.314,18.314,0,0,1,0-1.983c.016-.366-.086-.468-.461-.466C965.881,85.493,963.045,85.486,960.208,85.486ZM956.5,84.067c2.285,0,4.566,0,6.847,0,.267,0,.222-.138.187-.3a3.659,3.659,0,0,0-3.66-2.632A3.584,3.584,0,0,0,956.5,84.067Z" transform="translate(0)" fill="#030303"/>
      <path id="Trazado_612059" data-name="Trazado 612059" d="M980.263,113.648a.819.819,0,0,0,.953.706c.456-.02.914,0,1.371-.007.219,0,.325.069.3.3a2.611,2.611,0,0,0,0,.283q0,19.353.013,38.707c0,.488-.129.582-.593.581q-16.122-.021-32.243,0c-.462,0-.555-.114-.555-.563q.02-19.377,0-38.754c0-.457.109-.572.565-.564,1.749.029,3.5.024,5.247,0,.383,0,.468.114.461.475-.02,1.012,0,1.012-1.037,1.012q-1.371,0-2.742,0c-.79,0-1,.21-1,1.011q0,9.31,0,18.621,0,3.8,0,7.609c0,.628.115.772.7.941q0,.825,0,1.649c-.567.148-.7.3-.7.886q-.008,2.646,0,5.293c0,.654.23.878.884.878q14.3,0,28.6,0c.675,0,.9-.232.9-.908q0-17.534,0-35.069c0-.667-.243-.909-.911-.911-1.166,0-2.333-.009-3.5,0-.278,0-.379-.055-.382-.36-.011-1.1-.024-1.119,1.089-1.116a.841.841,0,0,0,.954-.708Z" transform="translate(-6.024 -27.502)" fill="#93c3f2"/>
      <path id="Trazado_612060" data-name="Trazado 612060" d="M1146.067,150.859c-.579-.145-.734-.329-.734-.914q0-6.073,0-12.145a2.6,2.6,0,1,1,5.2.013c0,.52.012,1.04,0,1.559-.008.251.061.335.327.385a2.843,2.843,0,0,1,2.44,1.948,2.243,2.243,0,0,1,.075.7q0,4.489,0,8.979c0,.591-.254.925-.7.931-.46.006-.721-.339-.721-.961q0-4.419,0-8.837a1.308,1.308,0,0,0-1.18-1.347c-.195-.026-.255.037-.238.221.01.109,0,.22,0,.331q0,10.586,0,21.171a15.836,15.836,0,0,1-.589,3.093c-.161.817-.375,1.623-.564,2.434-.066.283-.153.578-.463.66-.29.076-.294.254-.283.48a1.615,1.615,0,0,1-.018.47.7.7,0,0,1-1.378-.026,2.076,2.076,0,0,1-.017-.565c.009-.175-.022-.278-.221-.333a.706.706,0,0,1-.486-.585c-.386-1.653-.781-3.3-1.167-4.956a1.679,1.679,0,0,1-.019-.377q0-4.867,0-9.735c0-.629.138-.8.739-.958a.805.805,0,0,1,.686.916c-.011,2.961,0,5.922-.012,8.883,0,.319.063.447.409.425a9.561,9.561,0,0,1,1.464,0c.432.039.508-.114.508-.518q-.02-10.3-.01-20.6a1.951,1.951,0,0,1,0-.236c.029-.234-.08-.293-.3-.288-.536.013-1.073.028-1.607,0-.372-.023-.471.09-.468.464.016,2.8,0,5.607.014,8.411A.8.8,0,0,1,1146.067,150.859Zm1.859-11.178v-.017c.3,0,.6-.011.894,0,.221.011.3-.062.3-.291-.014-.549.005-1.1-.008-1.647a1.178,1.178,0,1,0-2.355-.015,6.73,6.73,0,0,0,0,.753c.022.386-.175.9.084,1.124C1147.057,139.783,1147.553,139.663,1147.926,139.681Zm-.98,24.451c.27,1.155.524,2.254.785,3.351.026.11.026.264.217.249s.177-.155.2-.271c.241-1.022.471-2.047.723-3.067.057-.234-.021-.268-.22-.265C1148.107,164.136,1147.559,164.132,1146.946,164.132Z" transform="translate(-164.754 -44.902)" fill="#020202"/>
      <path id="Trazado_612061" data-name="Trazado 612061" d="M1149.22,176.35a.8.8,0,0,0,.69-.909c-.012-2.8,0-5.607-.015-8.411,0-.374.1-.487.468-.464.534.032,1.071.017,1.607,0,.219-.005.328.055.3.288a1.976,1.976,0,0,0,0,.236q0,10.3.01,20.6c0,.4-.075.557-.508.518a9.558,9.558,0,0,0-1.464,0c-.346.022-.41-.106-.409-.425.012-2.961,0-5.922.012-8.884a.805.805,0,0,0-.686-.916Q1149.222,177.168,1149.22,176.35Z" transform="translate(-167.907 -70.393)" fill="#96c6f7"/>
      <path id="Trazado_612062" data-name="Trazado 612062" d="M1018.048,132.793c.005.157.016.314.016.471q0,16.49.008,32.981c0,.382-.046.526-.493.525q-10.3-.027-20.608-.014c-.157,0-.313-.015-.47-.023l-.006-3.515c.644-.012,1.288-.02,1.932-.036.593-.014.831-.247.833-.836q.008-2.764,0-5.528c0-.6-.254-.845-.869-.854s-1.259-.013-1.889-.02q0-.8,0-1.6c.629-.009,1.258-.014,1.887-.028s.871-.249.872-.853q.008-2.763,0-5.526c0-.605-.252-.842-.871-.852s-1.259-.015-1.888-.023q0-.8,0-1.6c.629-.008,1.258-.014,1.887-.025s.87-.247.872-.853q.008-2.763,0-5.525c0-.606-.249-.84-.871-.855-.409-.009-.817-.015-1.226-.022a.506.506,0,0,1,.21-.449,3,3,0,0,1,2.115-.877q7.009,0,14.017,0a2.818,2.818,0,0,0,2.763-2.767c-.008-.456,0-.912,0-1.368l1.7,0Zm-10.013,30.392q3.164,0,6.329,0c.592,0,.922-.262.919-.71s-.334-.7-.926-.712h-.142q-6.14,0-12.28,0a2.334,2.334,0,0,0-.562.046.637.637,0,0,0-.514.695.643.643,0,0,0,.566.655,2.625,2.625,0,0,0,.47.025Q1004.965,163.186,1008.035,163.185Zm0-10.288q-3.165,0-6.329,0c-.531,0-.837.254-.852.675-.016.442.3.722.845.744.079,0,.157,0,.236,0q6.14,0,12.281,0a2.089,2.089,0,0,0,.56-.053.687.687,0,0,0,.382-1.06.832.832,0,0,0-.794-.309Q1011.2,152.9,1008.035,152.9Zm.038-8.878h-3.212c-1.087,0-2.173-.007-3.259.005a.693.693,0,0,0-.748.682.718.718,0,0,0,.714.729c.109.011.22,0,.331,0h12.328a1.535,1.535,0,0,0,.606-.063.7.7,0,0,0,.229-1.165.923.923,0,0,0-.707-.192Zm-.038,16.275q3.118,0,6.236,0a1.841,1.841,0,0,0,.512-.049.643.643,0,0,0,.492-.714.654.654,0,0,0-.631-.646,3.429,3.429,0,0,0-.377-.008h-12.377a2.908,2.908,0,0,0-.425.012.657.657,0,0,0-.6.625.669.669,0,0,0,.472.732,1.332,1.332,0,0,0,.513.05Q1004.94,160.295,1008.034,160.294Zm.053-19.181h-3.731c-.913,0-1.826-.007-2.739,0a.709.709,0,0,0-.763.72.718.718,0,0,0,.744.693c.063,0,.126,0,.189,0h12.564a1.69,1.69,0,0,0,.33-.011.705.705,0,0,0,.018-1.39,1.979,1.979,0,0,0-.423-.016Zm-.019,8.883h-6.282c-.6,0-.925.244-.933.69s.327.726.905.727q6.306,0,12.612,0c.578,0,.919-.276.912-.723s-.331-.694-.932-.694Z" transform="translate(-44.111 -42.959)" fill="#e8ecef"/>
      <path id="Trazado_612063" data-name="Trazado 612063" d="M967.8,154.245q0,.8,0,1.6-1.438.009-2.876.018c-.765,0-1,.226-1,.972q0,2.64,0,5.281c0,.748.226.962.993.969.957.009,1.915.022,2.872.033l.006,3.515c-1.9.008-3.8.009-5.7.031-.327,0-.3-.175-.3-.385q0-2.168,0-4.336c0-.609-.143-.782-.713-.926q0-.825,0-1.649c.6-.166.716-.328.716-1.026q0-5.786,0-11.572,0-6.872-.006-13.744c0-.308.046-.431.4-.43q12.591.016,25.183.009c.063,0,.125.011.188.016,0,.456-.008.912,0,1.368a2.818,2.818,0,0,1-2.763,2.767q-7.009.012-14.017,0a3,3,0,0,0-2.115.877.507.507,0,0,0-.21.449l-3.537.021c-.762,0-1,.23-1,.975q0,2.642,0,5.284c0,.745.234.97,1,.975q1.438.01,2.876.024,0,.8,0,1.6c-.943.007-1.886.017-2.829.021-.828,0-1.043.21-1.043,1.021q0,2.595,0,5.189c0,.808.219,1.019,1.044,1.024C965.918,154.225,966.861,154.236,967.8,154.245Z" transform="translate(-15.414 -42.859)" fill="#e8ecef"/>
      <path id="Trazado_612064" data-name="Trazado 612064" d="M999.072,110.121c2.836,0,5.672.008,8.509-.009.374,0,.477.1.46.466a18.314,18.314,0,0,0,0,1.983c.026.417-.183.4-.475.4q-6.57-.008-13.141,0c-1.339,0-2.679-.01-4.018.008-.315,0-.4-.089-.387-.394.022-.692.026-1.387,0-2.079-.013-.328.107-.381.4-.38C993.305,110.125,996.189,110.121,999.072,110.121Z" transform="translate(-38.864 -24.635)" fill="#fae78b"/>
      <path id="Trazado_612065" data-name="Trazado 612065" d="M1018.228,90.139a3.584,3.584,0,0,1,3.374-2.926,3.659,3.659,0,0,1,3.66,2.632c.035.161.08.3-.186.3C1022.794,90.136,1020.513,90.139,1018.228,90.139Z" transform="translate(-61.728 -6.072)" fill="#f8e58a"/>
      <path id="Trazado_612066" data-name="Trazado 612066" d="M1109.946,132.772l-.077-.075C1109.935,132.681,1109.96,132.707,1109.946,132.772Z" transform="translate(-136.01 -42.939)" fill="#e8ecef"/>
      <path id="Trazado_612067" data-name="Trazado 612067" d="M1153.8,145.758c-.373-.018-.869.1-1.088-.09-.259-.228-.062-.737-.084-1.124a6.7,6.7,0,0,1,0-.753,1.178,1.178,0,1,1,2.356.015c.014.549-.006,1.1.008,1.647.006.229-.077.3-.3.291-.3-.015-.6,0-.894,0Z" transform="translate(-170.629 -50.979)" fill="#a69da6"/>
      <path id="Trazado_612068" data-name="Trazado 612068" d="M1153.858,288.292c.613,0,1.161,0,1.71,0,.2,0,.277.032.219.265-.252,1.02-.482,2.044-.723,3.067-.027.116-.029.257-.2.271-.191.015-.191-.14-.217-.249C1154.382,290.546,1154.128,289.447,1153.858,288.292Z" transform="translate(-171.666 -169.062)" fill="#a69da6"/>
      <path id="Trazado_612069" data-name="Trazado 612069" d="M979.949,262.607c-.958-.011-1.915-.024-2.872-.033-.768-.007-.993-.222-.993-.969q0-2.641,0-5.281c0-.746.231-.967,1-.972q1.438-.008,2.876-.018c.63.006,1.26.01,1.889.02s.868.249.869.854q.007,2.764,0,5.528c0,.589-.24.821-.833.836C981.237,262.587,980.593,262.6,979.949,262.607Zm-2.446-3.716c0,.63.013,1.26-.006,1.889-.009.288.081.38.371.375,1.023-.015,2.047-.017,3.071,0,.305.005.365-.108.362-.384q-.019-1.818,0-3.636c0-.289-.081-.376-.371-.371-1.023.017-2.047.018-3.071,0-.3-.006-.371.1-.362.38C977.516,257.726,977.5,258.309,977.5,258.891Z" transform="translate(-27.566 -142.349)" fill="#030303"/>
      <path id="Trazado_612070" data-name="Trazado 612070" d="M979.954,168.853q-1.438-.012-2.876-.024c-.762-.005-1-.23-1-.975q0-2.642,0-5.284c0-.745.234-.971,1-.975l3.537-.021c.409.007.818.012,1.226.022.622.015.87.249.871.855q.008,2.763,0,5.525c0,.606-.251.841-.872.853S980.583,168.845,979.954,168.853Zm1.341-3.617c0-.614-.011-1.228,0-1.841.007-.269-.042-.395-.356-.389-1.039.02-2.078.013-3.116,0-.235,0-.334.054-.332.313q.018,1.888,0,3.776c0,.257.092.317.33.315,1.039-.01,2.078-.016,3.116,0,.311.006.365-.116.358-.387C981.284,166.432,981.3,165.834,981.3,165.236Z" transform="translate(-27.564 -66.349)" fill="#040404"/>
      <path id="Trazado_612071" data-name="Trazado 612071" d="M979.955,215.733c-.943-.009-1.885-.02-2.828-.026-.825-.006-1.044-.217-1.044-1.024q0-2.595,0-5.189c0-.81.215-1.017,1.043-1.021.943,0,1.886-.014,2.829-.021.629.007,1.259.013,1.888.023s.869.246.871.852q.008,2.763,0,5.526c0,.6-.247.839-.872.853S980.584,215.724,979.955,215.733Zm1.341-3.588c0-.645-.009-1.29,0-1.935.005-.246-.076-.325-.323-.322q-1.581.017-3.163,0c-.255,0-.318.089-.316.328.01,1.243.011,2.486,0,3.729,0,.268.081.352.347.349,1.039-.012,2.077-.014,3.116,0,.278,0,.348-.1.341-.355C981.286,213.341,981.3,212.742,981.3,212.145Z" transform="translate(-27.565 -104.347)" fill="#040404"/>
      <path id="Trazado_612072" data-name="Trazado 612072" d="M1026.705,287.471q-3.07,0-6.14,0a2.625,2.625,0,0,1-.47-.025.692.692,0,0,1-.052-1.349,2.335,2.335,0,0,1,.562-.046q6.14,0,12.28,0h.142c.592.012.924.266.926.712s-.327.709-.919.71Q1029.869,287.473,1026.705,287.471Z" transform="translate(-62.782 -167.245)" fill="#070707"/>
      <path id="Trazado_612073" data-name="Trazado 612073" d="M1026.682,239.243q3.165,0,6.329,0a.833.833,0,0,1,.794.309.687.687,0,0,1-.382,1.06,2.091,2.091,0,0,1-.56.053q-6.14,0-12.281,0c-.079,0-.158,0-.236,0-.543-.022-.861-.3-.845-.744.016-.422.321-.674.852-.675Q1023.517,239.239,1026.682,239.243Z" transform="translate(-62.759 -129.305)" fill="#070707"/>
      <path id="Trazado_612074" data-name="Trazado 612074" d="M1026.723,192.371h6.282a.923.923,0,0,1,.707.191.7.7,0,0,1-.229,1.165,1.534,1.534,0,0,1-.605.063h-12.329c-.11,0-.221.007-.33,0a.718.718,0,0,1-.714-.729.693.693,0,0,1,.748-.682c1.086-.012,2.173-.005,3.259-.005Z" transform="translate(-62.762 -91.312)" fill="#060606"/>
      <path id="Trazado_612075" data-name="Trazado 612075" d="M1026.7,272.216q-3.094,0-6.188,0a1.332,1.332,0,0,1-.513-.05.668.668,0,0,1-.472-.732.657.657,0,0,1,.6-.625,2.9,2.9,0,0,1,.424-.012h12.377a3.435,3.435,0,0,1,.378.008.654.654,0,0,1,.631.646.643.643,0,0,1-.492.714,1.841,1.841,0,0,1-.512.049Q1029.816,272.218,1026.7,272.216Z" transform="translate(-62.776 -154.881)" fill="#040404"/>
      <path id="Trazado_612076" data-name="Trazado 612076" d="M1026.739,177.026h6.187a1.982,1.982,0,0,1,.424.016.705.705,0,0,1-.018,1.39,1.69,1.69,0,0,1-.33.011h-12.564c-.063,0-.126,0-.189,0a.719.719,0,0,1-.745-.693.709.709,0,0,1,.763-.72c.913-.011,1.826,0,2.739,0Z" transform="translate(-62.763 -78.872)" fill="#010101"/>
      <path id="Trazado_612077" data-name="Trazado 612077" d="M1026.719,223.934H1033c.6,0,.925.244.932.694s-.333.723-.912.723q-6.306,0-12.612,0c-.579,0-.913-.276-.905-.727s.334-.69.933-.69Z" transform="translate(-62.762 -116.897)" fill="#020202"/>
      <path id="Trazado_612078" data-name="Trazado 612078" d="M983.552,265.011c0-.582.013-1.165-.006-1.747-.009-.279.058-.385.362-.38,1.023.019,2.047.017,3.071,0,.291,0,.375.083.371.371q-.022,1.818,0,3.636c0,.276-.057.389-.362.384-1.023-.018-2.047-.016-3.071,0-.29,0-.38-.087-.371-.375C983.565,266.271,983.552,265.641,983.552,265.011Z" transform="translate(-33.614 -148.469)" fill="#de7882"/>
      <path id="Trazado_612079" data-name="Trazado 612079" d="M987.35,171.367c0,.6-.012,1.2.005,1.794.008.271-.047.393-.358.387-1.038-.019-2.078-.013-3.116,0-.238,0-.332-.058-.33-.315q.017-1.888,0-3.776c0-.26.1-.315.332-.313,1.039.01,2.078.016,3.116,0,.314-.006.363.12.356.389C987.339,170.14,987.35,170.753,987.35,171.367Z" transform="translate(-33.619 -72.48)" fill="#b4d999"/>
      <path id="Trazado_612080" data-name="Trazado 612080" d="M987.349,218.289c0,.6-.01,1.2.005,1.793.007.259-.063.359-.341.355-1.039-.015-2.077-.013-3.116,0-.266,0-.35-.08-.347-.349.013-1.243.011-2.486,0-3.729,0-.239.061-.331.316-.328q1.581.018,3.163,0c.247,0,.329.076.324.322C987.34,217,987.349,217.644,987.349,218.289Z" transform="translate(-33.618 -110.491)" fill="#b4d999"/>
    </g>
  </g>
</svg>
