<svg xmlns="http://www.w3.org/2000/svg" width="96.056" height="96.056" viewBox="0 0 96.056 96.056">
  <g id="Grupo_940230" data-name="Grupo 940230" transform="translate(0.238)">
    <circle id="Elipse_7678" data-name="Elipse 7678" cx="38.859" cy="38.859" r="38.859" transform="translate(9.368 9.606)" fill="#583cb6"/>
    <rect id="Rectángulo_305813" data-name="Rectángulo 305813" width="96.056" height="96.056" transform="translate(-0.238)" fill="none"/>
    <g id="Grupo_980359" data-name="Grupo 980359" transform="translate(15.915 21.562)">
      <path id="Trazado_631376" data-name="Trazado 631376" d="M960.18,764.456c0-2.025.02-4.049-.013-6.073-.009-.52.095-.713.651-.667.682.056,1.373,0,2.059.02.3.009.407-.067.4-.387-.021-1.159.026-2.319-.025-3.476a4.2,4.2,0,0,0-1.645-3.082A12.343,12.343,0,0,1,967.862,729a12.262,12.262,0,0,1,13.762,10.213,11.8,11.8,0,0,1-4.117,11.372,4.878,4.878,0,0,0-1.882,4.148c.048.856.022,1.717,0,2.574-.008.327.071.447.421.434.728-.027,1.46.015,2.188-.018.392-.017.5.084.5.49-.023,2.081-.011,4.162.073,6.27.141-.405.286-.809.421-1.216.562-1.684,1.133-3.366,1.674-5.056a.579.579,0,0,1,.661-.488c6.438.014,12.875.009,19.313.017.186,0,.521-.169.509.258a43.072,43.072,0,0,1-.21,6.551,13.384,13.384,0,0,1-7.473,10c-.85.432-.453,1.066-.553,1.632-.094.532.391.485.667.592a11.915,11.915,0,0,1,7.565,10.836c.02,1.566-.007,3.133.014,4.7,0,.367-.1.508-.463.452a1.663,1.663,0,0,0-.257,0q-31.222,0-62.444.013c-.574,0-.754-.125-.726-.719a53.409,53.409,0,0,1,.139-5.785,11.684,11.684,0,0,1,7.445-9.487c.276-.117.758-.071.667-.6-.1-.565.292-1.192-.55-1.633a13.5,13.5,0,0,1-7.684-12.558c-.019-1.266.009-2.532-.011-3.8-.005-.35.071-.487.451-.47.685.032,1.375-.022,2.059.02.47.029.6-.089.6-.584-.023-4.206-.015-8.412-.013-12.618a10.734,10.734,0,0,1,2.045-8.647c.868-1.743,1.747-3.48,2.6-5.23a2.745,2.745,0,0,1,5.132.009q2.187,4.433,4.415,8.845a2.087,2.087,0,0,1,.233.978c-.006,5.536,0,11.073-.014,16.609,0,.47.07.691.609.64.574-.055,1.16.015,1.737-.023.371-.024.516.111.626.45.644,1.995,1.311,3.982,1.972,5.971.037.112.09.219.136.328Zm-1.027-23.165a8.312,8.312,0,0,0,.186,1.9,10.385,10.385,0,0,0,3.717,6.138,6.588,6.588,0,0,1,2.01,3.007c.142.415-.021,1.023.377,1.222.362.181.885.014,1.331.059.49.049.542-.161.51-.583-.181-2.438-.329-4.879-.5-7.318-.032-.443.153-1.018-.156-1.294s-.862-.07-1.308-.083a3.095,3.095,0,0,1-.476-6.15,3.163,3.163,0,0,1,3.6,2.222,9.6,9.6,0,0,1,.163,1.467c.023.178-.009.359.284.407,1.19.194,1.4.044,1.469-1.135,0-.064,0-.129.01-.193a3.155,3.155,0,1,1,3.334,3.379c-.487.024-1.139-.213-1.413.107-.259.3-.142.934-.175,1.422q-.245,3.627-.476,7.256c-.01.153-.123.434.076.45a15.02,15.02,0,0,0,1.795.007c.144-.005.131-.2.147-.321a6.823,6.823,0,0,1,2.538-4.253,9.934,9.934,0,0,0,3.454-9.158,10.281,10.281,0,0,0-10.9-8.884A10.385,10.385,0,0,0,959.153,741.292Zm10.319,18.5c-2.231,0-4.461.008-6.691-.008-.384,0-.554.047-.551.506.023,3.26,0,6.52.018,9.78a4.1,4.1,0,0,0,4.064,4.126c2.1.031,4.2.034,6.3,0a4.087,4.087,0,0,0,4.039-4.085c.023-3.281,0-6.563.018-9.844,0-.421-.138-.484-.511-.481C973.932,759.8,971.7,759.791,969.471,759.791Zm17.427,30.9c1.931,0,3.862-.01,5.793.008.365,0,.466-.1.461-.462-.021-1.394-.008-2.789-.008-4.184,0-1.564,0-1.546,1.551-1.555.434,0,.525.13.519.536-.022,1.716,0,3.433-.016,5.15,0,.358.033.534.471.519,1.071-.037,2.146-.03,3.218,0,.387.01.455-.133.446-.477-.024-.879,0-1.76-.016-2.639a9.872,9.872,0,0,0-6.468-8.99,1.515,1.515,0,0,0-1.228.013c-.916.413-1.86.764-2.779,1.17a12.741,12.741,0,0,0-7.961,10.409c-.069.475.092.516.483.512C983.208,790.686,985.053,790.695,986.9,790.695Zm-34.96-12.353c0-.914-.026-1.771.011-2.624.018-.421-.134-.49-.509-.486-.505.006-1.2.237-1.469-.1-.255-.314-.051-.981-.1-1.488-.044-.438.158-.479.517-.472,1.05.02,2.1.018,3.151,0a2.474,2.474,0,0,0,2.519-2.527,15.388,15.388,0,0,0-.014-2.056,1.433,1.433,0,0,1,1.03-1.738,1.5,1.5,0,0,0,.921-2.1c-.493-1.526-1.022-3.04-1.512-4.567-.094-.294-.211-.409-.53-.408q-3.859.018-7.718,0c-.346,0-.427.108-.423.435.017,1.308-.036,2.617.024,3.922.032.683-.177.9-.833.809a1,1,0,0,0-1.148.626,1.189,1.189,0,0,0,.31,1.4c.385.373.737.783,1.144,1.129a1.419,1.419,0,0,1,.523,1.219c-.03,2.272-.008,4.545-.019,6.817,0,.306.042.5.369.632C949.411,777.267,950.627,777.792,951.939,778.342Zm35.025,0c1.271-.534,2.461-1.057,3.671-1.53a.622.622,0,0,0,.456-.7c-.016-2.294,0-4.588-.016-6.882a1.2,1.2,0,0,1,.407-1.008c.464-.412.891-.867,1.322-1.315a1.153,1.153,0,0,0,.2-1.421,1.17,1.17,0,0,0-1.336-.535c-.481.054-.611-.1-.6-.588.037-1.371.008-2.744.017-4.116,0-.29-.008-.466-.394-.463-2.594.017-5.188.011-7.782.005a.4.4,0,0,0-.467.317c-.519,1.607-1.072,3.2-1.583,4.813a1.516,1.516,0,0,0,.765,1.856,6.186,6.186,0,0,0,.8.4.606.606,0,0,1,.426.681c-.031.9-.016,1.8-.009,2.7a2.487,2.487,0,0,0,2.62,2.623c1.029.008,2.058.014,3.087-.005.339-.006.477.053.483.443.026,1.606.042,1.606-1.545,1.625a.857.857,0,0,1-.128,0c-.3-.043-.413.062-.4.382C986.978,776.5,986.964,777.382,986.964,778.343Zm-22.2,10.34c-.1-.4-.159-.618-.208-.84q-.828-3.7-1.648-7.4c-.06-.273-.051-.5-.458-.325a10.64,10.64,0,0,0-4.341,3.423.444.444,0,0,0-.014.575,14.423,14.423,0,0,1,1.991,6.115c.029.331.135.469.505.468q8.847-.018,17.695,0c.347,0,.494-.092.525-.446a14.314,14.314,0,0,1,1.984-6.116.484.484,0,0,0-.024-.63,10.492,10.492,0,0,0-4.29-3.385c-.349-.15-.421-.053-.489.285-.229,1.133-.5,2.257-.749,3.386-.352,1.573-.7,3.147-1.073,4.8-.232-.218-.389-.357-.537-.506-1.23-1.227-2.481-2.434-3.675-3.7-.425-.449-.65-.379-1.034.023-1.066,1.116-2.177,2.19-3.265,3.286C965.38,787.992,965.12,788.3,964.767,788.683Zm-9.943-5.559c-.426.844-.833,1.6-1.187,2.374-.174.382-.311.444-.688.212q-2.738-1.682-5.514-3.3a1.294,1.294,0,0,1-.67-.937c-.162-.775-.413-1.531-.567-2.307-.093-.47-.242-.537-.676-.343a9.881,9.881,0,0,0-5.271,5.45c-.82,1.988-.667,4.08-.673,6.157,0,.367.265.263.453.265,1.073.007,2.146-.012,3.218.012.375.009.461-.119.457-.473-.018-1.416-.008-2.833-.008-4.249,0-1.481,0-1.462,1.505-1.48.449-.005.575.107.568.563-.029,1.695.007,3.391-.024,5.085-.008.466.135.568.574.555,1.115-.032,2.231-.011,3.347-.011,2.618,0,5.236,0,7.854.005.374,0,.569-.016.507-.507A12.986,12.986,0,0,0,954.824,783.123Zm1.806-1.079a12.254,12.254,0,0,1,7.15-4.48,1.244,1.244,0,0,0,1.091-1.093c.078-.307.038-.378-.261-.482a6.157,6.157,0,0,1-4.429-6.273q0-1.706,0-3.413c-.31.619-.535,1.327-1.1,1.639-1.03.567-1.023,1.433-.959,2.379.009.128,0,.257,0,.386a4.447,4.447,0,0,1-3.662,4.406c-.386.075-.473.22-.466.585.023,1.178.01,2.357.008,3.536a.579.579,0,0,0,.213.56A15.6,15.6,0,0,1,956.63,782.044Zm22.093-15.734q0,1.705,0,3.41A6.194,6.194,0,0,1,974.284,776c-.115.041-.262.015-.312.175a1.7,1.7,0,0,0,.736,1.261,12.288,12.288,0,0,1,7.317,4.317c.209.252.319.25.519.016a11.8,11.8,0,0,1,2.076-1.913.7.7,0,0,0,.29-.656c-.012-1.158-.022-2.317,0-3.475.009-.4-.1-.543-.5-.617a4.405,4.405,0,0,1-3.523-3.487,15.779,15.779,0,0,1-.117-2.5c-.012-.231.028-.453-.242-.606A4.309,4.309,0,0,1,978.723,766.311Zm-36.054-16.82c0,2.573.01,5.146-.01,7.718,0,.418.1.543.528.531,1.049-.031,2.1-.026,3.151,0,.372.009.458-.112.457-.468q-.016-7.783,0-15.565c0-.362-.1-.472-.462-.464-1.05.024-2.1.031-3.151,0-.431-.013-.527.124-.524.535C942.678,744.345,942.669,746.918,942.669,749.491Zm10.3.025c0-2.532-.014-5.064.012-7.6,0-.5-.071-.718-.645-.686-.984.054-1.974.035-2.96.005-.418-.013-.536.106-.535.53q.023,7.725,0,15.45c0,.443.147.529.547.519,1.008-.025,2.018-.032,3.025,0,.45.016.573-.108.569-.564C952.957,754.623,952.969,752.069,952.969,749.516Zm40.177,22.945a2.871,2.871,0,0,0,.292-.117,11.716,11.716,0,0,0,4.336-4.294c1.469-2.47,1.65-5.183,1.558-7.957-.011-.348-.209-.3-.422-.3-1.781,0-3.562.009-5.342-.008-.338,0-.442.089-.432.43.024.814.021,1.631,0,2.446a.561.561,0,0,0,.371.577,3.2,3.2,0,0,1,.843,5.038c-.3.333-.634.64-.948.962-.116.119-.262.216-.26.419C993.149,770.568,993.146,771.482,993.146,772.461Zm-50.472-12.67c-.837,0-1.675.032-2.51-.012-.5-.026-.622.155-.594.621.038.642-.007,1.288.013,1.931a11.5,11.5,0,0,0,5.167,9.567c.289.2.621.6.928.426.237-.133.037-.636.083-.97a3.267,3.267,0,0,0-1.175-3.093,2.972,2.972,0,0,1,.241-4.582,2.141,2.141,0,0,0,.936-2.238,10.172,10.172,0,0,1,0-1.222c.021-.35-.127-.438-.451-.431C944.434,759.8,943.554,759.791,942.674,759.791Zm9.563-20.63a.937.937,0,0,0-.2-.553q-1.728-3.475-3.469-6.945c-.164-.327-.309-.689-.757-.687s-.59.364-.754.691q-1.736,3.472-3.468,6.945a.887.887,0,0,0-.191.549Zm17.238,37.1h-.962c-1.5,0-1.495,0-1.9,1.439a.544.544,0,0,0,.164.615c.808.795,1.611,1.593,2.4,2.408.223.231.357.2.563-.013a15.588,15.588,0,0,1,1.683-1.669,1.651,1.651,0,0,0,.521-2.392c-.143-.262-.233-.4-.543-.393C970.758,776.277,970.116,776.263,969.475,776.263Zm-.058-18.534h2.632c1.537,0,1.517,0,1.534-1.508.005-.454-.118-.567-.566-.562-2.054.025-4.109.011-6.163.011-1.555,0-1.54,0-1.533,1.573,0,.4.107.5.5.5C967.02,757.713,968.219,757.729,969.417,757.729ZM948.374,779.1a2.37,2.37,0,0,0,1.5,2.37,15.232,15.232,0,0,1,1.769,1.044c.9.54.874.526,1.37-.389.212-.392.132-.568-.206-.814A20.168,20.168,0,0,0,948.374,779.1Zm20.972-26.061a.3.3,0,0,0,.233-.324c.171-2.611.323-5.225.534-7.833.048-.593-.235-.563-.623-.543-.356.018-.753-.147-.7.53C969.006,747.581,969.165,750.3,969.346,753.036Zm-3.4,31.565c.646-.685,1.153-1.257,1.7-1.787.275-.267.317-.428.014-.71-.627-.581-1.207-1.214-1.822-1.808a3.6,3.6,0,0,0-1.038-.886Zm7.024-.069,1.13-5.1c-.32.192-2.934,2.719-3.045,2.875a.222.222,0,0,0,.042.331C971.692,783.236,972.285,783.838,972.97,784.532Zm-7.224-42.254c.805,0,.805,0,.758-.794a3.343,3.343,0,0,0-.025-.382,1.061,1.061,0,0,0-1.211-.879,1.028,1.028,0,0,0,.1,2.053C965.491,742.283,965.619,742.276,965.746,742.278Zm7.325,0c1.031,0,1.513-.33,1.526-1.011a1.044,1.044,0,0,0-1.119-1.048c-.788.015-1.138.551-1.11,1.737C972.383,742.581,972.889,742.124,973.072,742.278Z" transform="translate(-937.492 -728.896)" fill="#020202"/>
      <path id="Trazado_631377" data-name="Trazado 631377" d="M1122.319,751c-.526-1.781.4-2.845,1.78-3.736a20.781,20.781,0,0,0,1.912-1.519,3.789,3.789,0,0,0,1.231-4.277,3.829,3.829,0,0,0-3.638-2.567c-2.624-.04-4.021,1.179-4.366,3.831-.028.214-.072.3-.295.293-.321-.014-.643,0-.965,0-.882,0-.882,0-.788-.863a5.935,5.935,0,0,1,5.868-5.319c3.159-.047,5.515,1.577,6.251,4.375a5.61,5.61,0,0,1-1.7,5.849c-.841.79-1.775,1.485-2.692,2.19a1.189,1.189,0,0,0-.552,1.115c.05.833-.006,1.673.022,2.508.013.373-.111.452-.466.456-1.605.017-1.6.029-1.6-1.56Z" transform="translate(-1070.787 -734.786)" fill="#030303"/>
      <path id="Trazado_631378" data-name="Trazado 631378" d="M1132.3,814.878a3.09,3.09,0,1,1,3.083-3.065A3.1,3.1,0,0,1,1132.3,814.878Zm-.013-4.114a1.025,1.025,0,1,0,1.031,1.018A1.035,1.035,0,0,0,1132.286,810.764Z" transform="translate(-1079.731 -788.105)" fill="#030303"/>
      <path id="Trazado_631379" data-name="Trazado 631379" d="M1021.417,747.173a10.385,10.385,0,0,1,9.584-10.33,10.281,10.281,0,0,1,10.9,8.885,9.934,9.934,0,0,1-3.453,9.158,6.821,6.821,0,0,0-2.538,4.253c-.016.116,0,.316-.147.321a15.02,15.02,0,0,1-1.795-.007c-.2-.016-.085-.3-.076-.45q.229-3.628.476-7.256c.033-.488-.084-1.119.175-1.422.275-.321.927-.083,1.413-.107a3.1,3.1,0,1,0-3.333-3.379c-.006.064-.007.129-.01.193-.067,1.18-.278,1.33-1.469,1.135-.293-.048-.26-.229-.284-.407a9.59,9.59,0,0,0-.163-1.467,3.163,3.163,0,0,0-3.6-2.222,3.095,3.095,0,0,0,.476,6.15c.446.013,1.005-.187,1.308.083s.124.851.156,1.294c.175,2.439.323,4.88.5,7.318.032.423-.02.633-.51.583-.446-.045-.969.121-1.331-.059-.4-.2-.235-.806-.377-1.222a6.587,6.587,0,0,0-2.01-3.007,10.383,10.383,0,0,1-3.717-6.138A8.306,8.306,0,0,1,1021.417,747.173Z" transform="translate(-999.755 -734.776)" fill="#f9e7ad"/>
      <path id="Trazado_631380" data-name="Trazado 631380" d="M1040.594,848.593c2.23,0,4.461.008,6.691-.008.373,0,.513.06.511.481-.021,3.281.005,6.563-.019,9.844a4.087,4.087,0,0,1-4.038,4.085c-2.1.035-4.2.032-6.3,0a4.1,4.1,0,0,1-4.064-4.126c-.018-3.26.005-6.52-.018-9.78,0-.458.167-.508.551-.505C1036.133,848.6,1038.364,848.593,1040.594,848.593Zm-.78,10.3c.6,0,1.2.009,1.8,0a3.073,3.073,0,0,0,2.983-2.363c.183-.725.183-.725-.58-.726-.321,0-.643.017-.963-.005a.4.4,0,0,0-.5.337.981.981,0,0,1-1.036.7h-2.505c-1.558,0-1.537,0-1.546,1.558,0,.447.15.53.545.511C1038.615,858.873,1039.215,858.894,1039.815,858.894Z" transform="translate(-1008.614 -817.698)" fill="#ead0b6"/>
      <path id="Trazado_631381" data-name="Trazado 631381" d="M1111.6,933.237c-1.845,0-3.691-.009-5.536.007-.391,0-.552-.037-.483-.512a12.74,12.74,0,0,1,7.961-10.409c.919-.406,1.863-.757,2.779-1.17a1.514,1.514,0,0,1,1.228-.013,9.871,9.871,0,0,1,6.468,8.99c.02.879-.008,1.76.016,2.639.009.344-.058.487-.446.477-1.072-.027-2.146-.034-3.218,0-.438.015-.474-.161-.471-.519.016-1.716-.006-3.433.016-5.149.005-.407-.085-.539-.519-.537-1.551.01-1.551-.009-1.551,1.555,0,1.395-.012,2.79.008,4.184.005.363-.1.465-.46.462C1115.461,933.228,1113.53,933.237,1111.6,933.237Z" transform="translate(-1062.192 -871.438)" fill="#e4e7ea"/>
      <path id="Trazado_631382" data-name="Trazado 631382" d="M975.677,867.145c-1.313-.55-2.528-1.074-3.757-1.564-.327-.13-.371-.326-.369-.632.011-2.272-.011-4.545.019-6.817a1.42,1.42,0,0,0-.523-1.219c-.407-.346-.758-.756-1.143-1.129a1.189,1.189,0,0,1-.31-1.4,1,1,0,0,1,1.148-.626c.656.087.865-.127.833-.809-.061-1.305-.008-2.615-.025-3.923,0-.327.077-.437.423-.435q3.859.022,7.718,0c.318,0,.435.114.529.408.49,1.527,1.019,3.041,1.512,4.567a1.5,1.5,0,0,1-.921,2.1,1.433,1.433,0,0,0-1.03,1.738,15.309,15.309,0,0,1,.014,2.056,2.473,2.473,0,0,1-2.519,2.527c-1.05.015-2.1.016-3.151,0-.359-.007-.561.034-.517.472.051.507-.153,1.173.1,1.488.271.334.963.1,1.469.1.375,0,.527.065.509.486C975.651,865.374,975.677,866.23,975.677,867.145Z" transform="translate(-961.229 -817.699)" fill="#ead0b6"/>
      <path id="Trazado_631383" data-name="Trazado 631383" d="M1111.421,867.143c0-.961.014-1.84-.007-2.719-.008-.32.107-.425.4-.382a.861.861,0,0,0,.129,0c1.586-.019,1.571-.019,1.545-1.625-.006-.389-.145-.449-.483-.443-1.029.019-2.058.013-3.087.005a2.487,2.487,0,0,1-2.62-2.623c-.007-.9-.022-1.8.009-2.7a.607.607,0,0,0-.425-.681,6.183,6.183,0,0,1-.8-.4,1.515,1.515,0,0,1-.765-1.856c.511-1.61,1.065-3.206,1.583-4.813a.4.4,0,0,1,.467-.317c2.594.006,5.188.012,7.782-.005.385,0,.4.173.394.464-.01,1.372.02,2.745-.017,4.116-.013.486.117.642.6.588a1.171,1.171,0,0,1,1.336.535,1.154,1.154,0,0,1-.2,1.421c-.432.448-.858.9-1.322,1.315a1.2,1.2,0,0,0-.407,1.008c.017,2.294,0,4.588.016,6.882a.622.622,0,0,1-.456.7C1113.882,866.086,1112.692,866.609,1111.421,867.143Z" transform="translate(-1061.948 -817.696)" fill="#ead0b6"/>
      <path id="Trazado_631384" data-name="Trazado 631384" d="M1023.727,935.775c.353-.386.613-.691.894-.975,1.088-1.1,2.2-2.17,3.265-3.286.384-.4.609-.472,1.034-.023,1.193,1.261,2.445,2.468,3.674,3.7.148.148.3.288.537.505.37-1.658.721-3.232,1.073-4.8.252-1.128.52-2.253.749-3.386.068-.338.14-.434.489-.284a10.494,10.494,0,0,1,4.29,3.385.485.485,0,0,1,.024.63,14.31,14.31,0,0,0-1.984,6.117c-.03.354-.178.446-.525.446q-8.847-.016-17.695,0c-.37,0-.476-.138-.505-.468a14.419,14.419,0,0,0-1.991-6.115.444.444,0,0,1,.014-.575,10.638,10.638,0,0,1,4.341-3.423c.408-.178.4.052.458.325q.815,3.7,1.648,7.4C1023.568,935.157,1023.628,935.376,1023.727,935.775Z" transform="translate(-996.452 -875.987)" fill="#6dbde3"/>
      <path id="Trazado_631385" data-name="Trazado 631385" d="M960.8,926.366A12.985,12.985,0,0,1,964,933.435c.062.491-.133.509-.507.507-2.618-.01-5.236-.005-7.853-.005-1.116,0-2.232-.021-3.347.01-.439.012-.583-.089-.574-.555.03-1.695-.006-3.391.023-5.085.008-.457-.119-.568-.567-.563-1.5.017-1.505,0-1.505,1.48,0,1.416-.011,2.833.008,4.249,0,.353-.082.481-.457.473-1.072-.024-2.146-.005-3.218-.012-.188,0-.454.1-.453-.265.006-2.076-.147-4.169.673-6.157a9.881,9.881,0,0,1,5.271-5.45c.434-.194.583-.127.676.343.154.776.4,1.532.567,2.307a1.294,1.294,0,0,0,.67.937q2.774,1.623,5.514,3.3c.378.232.514.171.689-.212C959.967,927.962,960.373,927.209,960.8,926.366Z" transform="translate(-943.467 -872.138)" fill="#bbd989"/>
      <path id="Trazado_631386" data-name="Trazado 631386" d="M957.527,784.972c0-2.573.009-5.146-.009-7.719,0-.411.093-.548.524-.535,1.049.033,2.1.026,3.151,0,.366-.008.463.1.462.464q-.017,7.783,0,15.566c0,.356-.086.477-.457.468-1.05-.025-2.1-.029-3.151,0-.424.012-.531-.112-.528-.531C957.536,790.118,957.527,787.545,957.527,784.972Z" transform="translate(-952.349 -764.377)" fill="#83d3ef"/>
      <path id="Trazado_631387" data-name="Trazado 631387" d="M985.6,784.979c0,2.553-.012,5.107.011,7.661,0,.456-.119.579-.569.564-1.007-.035-2.017-.028-3.025,0-.4.01-.548-.075-.547-.518q.025-7.725,0-15.45c0-.425.117-.543.535-.53.986.029,1.976.049,2.96-.005.574-.032.65.182.645.686C985.582,779.915,985.6,782.447,985.6,784.979Z" transform="translate(-970.118 -764.359)" fill="#df7a85"/>
      <path id="Trazado_631388" data-name="Trazado 631388" d="M1153.13,861.264c0-.979,0-1.893,0-2.806,0-.2.144-.3.26-.419.314-.323.646-.629.948-.963a3.2,3.2,0,0,0-.843-5.038.56.56,0,0,1-.371-.577c.02-.815.023-1.631,0-2.446-.01-.341.094-.433.431-.43,1.781.016,3.561.008,5.342.008.213,0,.41-.045.421.3.092,2.774-.089,5.487-1.558,7.957a11.716,11.716,0,0,1-4.336,4.294A2.938,2.938,0,0,1,1153.13,861.264Z" transform="translate(-1097.475 -817.699)" fill="#f4d57e"/>
      <path id="Trazado_631389" data-name="Trazado 631389" d="M948.637,848.576c.88,0,1.76.011,2.639-.005.324-.006.472.081.451.432a10.185,10.185,0,0,0,0,1.222,2.141,2.141,0,0,1-.936,2.238,2.972,2.972,0,0,0-.241,4.582,3.267,3.267,0,0,1,1.175,3.093c-.046.334.154.837-.083.97-.306.172-.639-.225-.927-.426a11.5,11.5,0,0,1-5.167-9.566c-.021-.643.025-1.289-.013-1.931-.027-.466.091-.647.595-.621C946.962,848.608,947.8,848.576,948.637,848.576Z" transform="translate(-943.455 -817.681)" fill="#656c76"/>
      <path id="Trazado_631390" data-name="Trazado 631390" d="M969.221,745.141h-8.833c-.033-.231.108-.384.19-.549q1.728-3.476,3.468-6.945c.164-.327.307-.69.754-.691s.593.36.757.687q1.736,3.471,3.469,6.945A.938.938,0,0,1,969.221,745.141Z" transform="translate(-954.476 -734.876)" fill="#969da7"/>
      <path id="Trazado_631391" data-name="Trazado 631391" d="M1053.109,912.431c.642,0,1.283.014,1.924-.006.31-.01.4.131.543.393a1.651,1.651,0,0,1-.52,2.392,15.614,15.614,0,0,0-1.683,1.669c-.206.216-.339.244-.563.013-.787-.814-1.591-1.613-2.4-2.408a.543.543,0,0,1-.164-.615c.4-1.436.395-1.439,1.9-1.439Z" transform="translate(-1021.126 -865.063)" fill="#ead0b6"/>
      <path id="Trazado_631392" data-name="Trazado 631392" d="M1049.427,834.677c-1.2,0-2.4-.017-3.6.01-.394.009-.5-.1-.5-.5-.006-1.573-.022-1.573,1.533-1.573,2.054,0,4.109.014,6.163-.011.448-.005.571.108.566.562-.018,1.508,0,1.508-1.534,1.508Z" transform="translate(-1017.501 -805.843)" fill="#aab1bb"/>
      <path id="Trazado_631393" data-name="Trazado 631393" d="M979.663,923.431a20.173,20.173,0,0,1,4.437,2.211c.338.245.419.422.206.814-.5.915-.472.928-1.37.389a15.266,15.266,0,0,0-1.769-1.044A2.37,2.37,0,0,1,979.663,923.431Z" transform="translate(-968.78 -873.229)" fill="#bbd989"/>
      <path id="Trazado_631394" data-name="Trazado 631394" d="M1059.32,797.405c-.181-2.736-.341-5.455-.556-8.17-.054-.677.344-.511.7-.53.388-.02.671-.05.623.543-.21,2.609-.362,5.222-.534,7.833A.3.3,0,0,1,1059.32,797.405Z" transform="translate(-1027.465 -773.265)" fill="#f9e7ad"/>
      <path id="Trazado_631395" data-name="Trazado 631395" d="M1044.457,929.834l-1.147-5.191a3.6,3.6,0,0,1,1.038.886c.615.595,1.2,1.227,1.822,1.809.3.282.262.443-.014.709C1045.61,928.578,1045.1,929.149,1044.457,929.834Z" transform="translate(-1016.003 -874.129)" fill="#5aaad2"/>
      <path id="Trazado_631396" data-name="Trazado 631396" d="M1069.306,929.82c-.686-.695-1.279-1.3-1.873-1.9a.222.222,0,0,1-.042-.331c.111-.156,2.725-2.684,3.045-2.876Z" transform="translate(-1033.827 -874.184)" fill="#5aaad2"/>
      <path id="Trazado_631397" data-name="Trazado 631397" d="M1042.836,774.822c-.128,0-.256.006-.383,0a1.028,1.028,0,0,1-.1-2.053,1.062,1.062,0,0,1,1.211.879,3.389,3.389,0,0,1,.025.382C1043.641,774.824,1043.641,774.824,1042.836,774.822Z" transform="translate(-1014.581 -761.44)" fill="#f4d57e"/>
      <path id="Trazado_631398" data-name="Trazado 631398" d="M1073.342,774.831c-.183-.154-.688.3-.7-.322-.028-1.186.322-1.722,1.11-1.738a1.043,1.043,0,0,1,1.119,1.048C1074.854,774.5,1074.373,774.83,1073.342,774.831Z" transform="translate(-1037.761 -761.449)" fill="#f4d57e"/>
      <path id="Trazado_631399" data-name="Trazado 631399" d="M1138.225,816.7a1.025,1.025,0,1,1-1.018,1.031A1.036,1.036,0,0,1,1138.225,816.7Z" transform="translate(-1085.669 -794.042)" fill="#df7a85"/>
      <path id="Trazado_631400" data-name="Trazado 631400" d="M1051.657,879.625c-.6,0-1.2-.022-1.8.008-.395.019-.548-.064-.545-.511.008-1.558-.012-1.558,1.546-1.558h2.505a.981.981,0,0,0,1.036-.7.4.4,0,0,1,.5-.337c.32.022.642,0,.963.005.763,0,.763,0,.58.726a3.072,3.072,0,0,1-2.983,2.363C1052.857,879.634,1052.257,879.624,1051.657,879.625Z" transform="translate(-1020.457 -838.428)" fill="#020202"/>
    </g>
  </g>
</svg>
