<svg xmlns="http://www.w3.org/2000/svg" width="125" height="125" viewBox="0 0 125 125">
  <g id="Grupo_1044029" data-name="Grupo 1044029" transform="translate(-1386 9621)">
    <circle id="Elipse_7650" data-name="Elipse 7650" cx="62.5" cy="62.5" r="62.5" transform="translate(1386 -9621)" fill="#ef8b53"/>
    <g id="Grupo_930278" data-name="Grupo 930278" transform="translate(-1427.187 -9556.789)">
      <path id="Trazado_611494" data-name="Trazado 611494" d="M2892.809,21.918c1.906,3.7,1.971,7.573,1.889,11.474-.028,1.313,0,2.628,0,3.942,0,1.672,0,1.672-1.7,1.672q-18.446,0-36.891.02c-.741,0-.885-.195-.874-.894.045-2.929,0-5.859.046-8.788.011-.666-.108-.865-.816-.862-6.463.031-12.927,0-19.391.038-.733,0-.888-.182-.879-.891.043-3.121.014-6.242.02-9.363a17.075,17.075,0,0,1,14.063-17.129,1.709,1.709,0,0,0,1.215-1.556c-.007-.291-.234-.27-.391-.32a7.793,7.793,0,0,1-5.468-5.8c-.1-.379-.254-.445-.6-.477a5.191,5.191,0,0,1-4.281-7.582,1.3,1.3,0,0,0-.007-1.139c-1.47-4.475-.469-9.788,4.062-12.342a11.508,11.508,0,0,0,3.8-3.2,8.141,8.141,0,0,1,5.976-3.2,17.89,17.89,0,0,1,8.8.96,13.552,13.552,0,0,1,8.315,12.655c-.01.643.162.748.753.743,3.2-.028,6.408-.014,9.613-.007.48,0,.96.035,1.44.053.016-.517.035-1.034.049-1.552.065-2.379-.126-4.761.146-7.137a15.839,15.839,0,0,1,12.631-13.409,15.757,15.757,0,0,1,18.549,12.79,15.824,15.824,0,0,1,.239,3.023q-.01,13.963-.013,27.926a2.772,2.772,0,0,0,.391,1.465,16.111,16.111,0,0,1,2.228,7.96c.048,3.422,0,6.845.036,10.267.006.62-.217.684-.747.683q-10.558-.025-21.116-.011ZM2873.655-8.338q.01.666.018,1.333a2.109,2.109,0,0,0-.014.49c.166.82-.264.9-.91.774a6.98,6.98,0,0,1-3.573-1.882c-.648-.628-.963-.618-1.553.065a2.123,2.123,0,0,0-.542,1.423c0,3.31-.043,6.621.019,9.93a5.155,5.155,0,0,0,5.035,4.966q2.831.055,5.664,0a5.136,5.136,0,0,0,5.029-4.884c.084-3.089.024-6.182.032-9.273,0-.265-.02-.45-.345-.532a9.055,9.055,0,0,1-2.26-1.127,9.759,9.759,0,0,0-1.346-1.278,22.949,22.949,0,0,1-1.073-2.28c-.449-1.618-.444-1.651,1.176-1.651a2.367,2.367,0,0,0,.41,0c.567-.1.771.14.921.7a4.3,4.3,0,0,0,3.37,3.226c.571.138,1.371-.285,1.685.225a3.381,3.381,0,0,1,.078,1.77c-.029.482.136.646.611.73,1.254.222,1.249.251,1.555-.991.059-.239.12-.477.178-.717A8.046,8.046,0,0,0,2880-17.508c-3.368-.052-6.74-.072-10.107.01a7.906,7.906,0,0,0-7.359,4.776c-1.127,2.332-.713,4.692-.019,7.041.081.276.25.3.506.228a4.249,4.249,0,0,1,.962-.2c.411-.022.467-.232.479-.583a4.662,4.662,0,0,1,2.4-4.045c.247-.149.426-.27.4-.622-.089-1.36-.073-1.361,1.288-1.361a1.052,1.052,0,0,0,.164,0c.653-.1.984.08,1.162.822A4.125,4.125,0,0,0,2873.655-8.338Zm16.876,9.425c-.072.177-.109.269-.148.361a5.1,5.1,0,0,1-4.556,3.355c-.541.038-.515.382-.6.7a7.9,7.9,0,0,1-4.775,5.384c-.221.094-.622.028-.594.418s.411.366.692.442a18.752,18.752,0,0,1,10.4,7.045,1.114,1.114,0,0,0,1.013.508c4.164-.016,8.327-.029,12.491.01.7.006.779-.249.775-.839-.023-3.5-.011-7.01-.011-10.515,0-1.819,0-1.789,1.833-1.826.645-.013.819.16.813.809-.032,3.888-.007,7.777-.026,11.665,0,.506.089.719.661.7,1.341-.044,2.685-.034,4.026,0,.474.011.6-.14.592-.6-.025-2.6.027-5.2-.031-7.8a14.429,14.429,0,0,0-9.069-12.871c-.618-.244-.843-.212-1.072.471a7.272,7.272,0,0,1-8.591,4.837A7.9,7.9,0,0,1,2890.531,1.087Zm-21.77,26.757c-.072-.474-.14-.812-.174-1.153-.35-3.539-.7-7.077-1.029-10.619-.06-.654-.169-.857-.853-.488a16.074,16.074,0,0,0-8.495,11.271c-.636,3-.235,6.058-.342,9.088-.017.482.279.432.583.432,1.342,0,2.685-.03,4.025.013.563.018.671-.182.666-.7-.023-2.655-.01-5.311-.01-7.966,0-1.88,0-1.842,1.859-1.886.694-.016.79.238.784.839-.027,2.984.008,5.968-.029,8.952-.008.628.171.761.774.759q8.421-.036,16.842,0c.612,0,.838-.112.826-.789-.044-2.655-.018-5.311-.018-7.966,0-1.778,0-1.745,1.789-1.791.679-.017.868.16.859.849-.04,3.011-.008,6.023-.026,9.034,0,.468.068.681.614.664,1.4-.042,2.793-.023,4.19-.008.355,0,.479-.11.469-.469a73.323,73.323,0,0,0-.162-7.874,16.054,16.054,0,0,0-8.776-12.51c-.551-.3-.686-.134-.736.416-.218,2.4-.456,4.793-.694,7.188-.152,1.528-.318,3.055-.495,4.75l-4.92-6.135v7.477c0,1.914,0,1.878-1.907,1.914-.666.013-.742-.232-.736-.8.027-2.573.016-5.147,0-7.72,0-.22.126-.484-.138-.692ZM2910.471-.889v-.582q0-12.568-.006-25.135a14.825,14.825,0,0,0-.136-1.88A13.157,13.157,0,0,0,2897.8-39.848,13.142,13.142,0,0,0,2884.5-29.5c-.674,3.275-.2,6.607-.323,9.91a.409.409,0,0,0,.3.429,13.226,13.226,0,0,1,2.329,1.4V-28.712c0-2,0-1.977,2.017-1.965.531,0,.645.174.624.658-.036.82.014,1.643-.018,2.463-.023.578.175.586.6.338a4.057,4.057,0,0,0,2.016-2.941c.03-.173-.063-.467.188-.478a9.833,9.833,0,0,1,2.291.032c.35.068.2.717.332,1.092a3.949,3.949,0,0,0,2.384,2.545,1.8,1.8,0,0,0,1.334.167,7.38,7.38,0,0,1-1.131-2.671c-.21-1.191-.227-1.188,1.006-1.188a8.261,8.261,0,0,0,.9-.006c.442-.049.575.105.651.561a3.9,3.9,0,0,0,3.5,3.375c1.71.129,1.71.129,1.71-1.577v-.411c0-2,0-1.973,2.024-1.958.541,0,.617.195.615.664-.016,5.093.015,10.186-.022,15.278a7.8,7.8,0,0,1-5.6,7.389c-.562.169-1.147.267-1.727.4.179.779.442,1.421,1.332,1.6A17.3,17.3,0,0,1,2910.471-.889Zm-64.786,5.511c-4.91,2.325-7.906,6.044-8.672,11.384-.444,3.095-.093,6.232-.186,9.348-.014.485.214.515.591.511,1.341-.015,2.684-.035,4.024.008.565.018.667-.184.663-.7-.021-3.093-.01-6.185-.01-9.278,0-1.881,0-1.845,1.853-1.888.679-.016.8.214.791.828-.028,3.449,0,6.9-.024,10.346,0,.511.1.7.663.7,3.258-.028,6.516-.022,9.774,0a.634.634,0,0,0,.736-.547,18.657,18.657,0,0,1,13.662-13.616c.246-.07.509-.1.538-.409.035-.368-.326-.317-.515-.391a7.068,7.068,0,0,1-4.053-3.526,5.359,5.359,0,0,0-2.709-2.439c-.559-.3-.707-.153-.832.42a36.244,36.244,0,0,1-7.62,15.522c-.312.38-.464.479-.834.029a37.489,37.489,0,0,1-6.181-10.568A42.922,42.922,0,0,1,2845.685,4.623Zm18.765-23.28a11.244,11.244,0,0,1,2.2-.962c.377-.116.4-.4.417-.706a10.621,10.621,0,0,0-1.5-6.2c-3.088-5.077-8.123-6.126-13.519-5.182-2.326.407-3.8,2.032-4.765,4.139-.164.359-.283.734-.8.832-3.814.727-6.21,3.9-5.659,8.542.135,1.146.167,1.14,1.308.861a3.318,3.318,0,0,1,.725-.132c.479-.006.568-.252.561-.678-.023-1.34-.008-2.682-.008-4.022,0-2.036,0-2.023,2.068-1.935.42.018.584.131.57.565-.025.82.019,1.642-.014,2.462-.028.694.234.663.7.362a3.345,3.345,0,0,0,1.713-2.206c.158-1.065.65-1.356,1.608-1.175a.768.768,0,0,0,.246,0c.655-.1.975.064,1.125.835a3.6,3.6,0,0,0,3.729,3.025,8.922,8.922,0,0,1-1.046-2.311c-.374-1.548-.375-1.547,1.179-1.547a5.667,5.667,0,0,0,.656,0c.448-.053.576.133.66.577a3.917,3.917,0,0,0,3.6,3.364c1.614.078,1.614.078,1.614-1.547v-.575c0-1.833,0-1.8,1.849-1.833.692-.014.809.242.794.848C2864.425-21.772,2864.45-20.278,2864.45-18.657Zm40.762-.336c0-1.505-.018-3.011.01-4.516.009-.474-.14-.6-.6-.591-1.834.025-3.67-.027-5.5.02a6.587,6.587,0,0,1-5.4-2.267c-.273-.311-.417-.308-.68,0a6.1,6.1,0,0,1-3.2,2.028c-.429.109-.4.347-.4.651,0,1.587,0,3.175,0,4.762.007,2.252-.234,4.526.9,6.643a4.15,4.15,0,0,0,.769,1.216,5.091,5.091,0,0,0,3.491,1.409c1.779.006,3.559.017,5.338,0a5.223,5.223,0,0,0,5.271-5.254C2905.226-16.255,2905.211-17.624,2905.211-18.992Zm-59.171,6.406h0c0,1.477-.027,2.956.006,4.433a5.2,5.2,0,0,0,5.1,5.086c1.861.034,3.722.009,5.584.005a5.178,5.178,0,0,0,2.628-.812,1.032,1.032,0,0,0,.565-1.39,12.053,12.053,0,0,1-.425-6.7,10.566,10.566,0,0,1,2.064-4.143,1.236,1.236,0,0,0,.214-1.229c-.123-.37-.572-.169-.869-.172-1.806-.018-3.613-.031-5.42,0a6.455,6.455,0,0,1-5.1-2.2c-.318-.35-.467-.391-.788-.011a5.978,5.978,0,0,1-3.067,1.95c-.414.111-.5.287-.5.665C2846.05-15.6,2846.041-14.092,2846.041-12.587ZM2896.012.886a4.749,4.749,0,0,0,4.481-3.222c.154-.444.119-.675-.34-.879a2.746,2.746,0,0,1-1.757-1.84c-.32-1.972-1.558-2.161-3.136-1.946a.243.243,0,0,1-.082,0c-.669-.144-.982.158-1.131.8a4.126,4.126,0,0,1-2.339,3.072c-.428.19-.3.432-.207.723A4.725,4.725,0,0,0,2896.012.886Zm-42.03,9.4a1.935,1.935,0,0,0-.247.082c-.879.436-1.751.884-2.635,1.308-.323.155-.174.349-.085.534a35.879,35.879,0,0,0,2.627,4.522c.224.33.366.308.58-.006a35.735,35.735,0,0,0,2.625-4.523c.066-.137.218-.346.042-.439C2855.928,11.249,2854.949,10.77,2853.982,10.283Zm-.055-4.054c.732-1.213,1.373-2.34,2.081-3.423a1.6,1.6,0,0,0,.167-1.585c-.6-1.639-.571-1.649-2.32-1.649-1.595,0-1.6,0-2.112,1.568-.118.367-.438.721-.178,1.154Zm21.1,5.181c-.463,0-.929-.023-1.391.008-.315.021-.721-.194-.9.311-.153.444-.286.819.1,1.263a27.589,27.589,0,0,1,1.723,2.282c.289.414.465.522.8.026a25.154,25.154,0,0,1,1.769-2.35c.37-.429.2-.781.08-1.193-.149-.508-.554-.326-.875-.342C2875.9,11.394,2875.46,11.409,2875.024,11.409Zm-4.325,9.808c.887-1.1,1.627-2.039,2.386-2.959.205-.249.135-.419-.033-.64-.776-1.018-1.539-2.046-2.309-3.069-.127-.17-.233-.391-.516-.276s-.194.365-.175.563C2870.254,16.894,2870.468,18.951,2870.7,21.217Zm8.54-.008c.231-2.282.445-4.37.653-6.459.018-.184.062-.391-.189-.481-.287-.1-.388.12-.516.289q-1.137,1.508-2.269,3.02c-.15.2-.319.37-.1.642C2877.6,19.162,2878.358,20.116,2879.239,21.209Zm-35.828-33.421c0-.736,0-1.472,0-2.208,0-.241.051-.477-.365-.438a2.692,2.692,0,0,0-2.263,2.615,2.7,2.7,0,0,0,2.18,2.6c.379.042.466-.09.455-.438C2843.4-10.794,2843.411-11.5,2843.411-12.212ZM2885.487-.479c0,.709.036,1.42-.01,2.125-.039.6.251.6.684.488a2.7,2.7,0,0,0,1.955-2.614,2.688,2.688,0,0,0-2.088-2.505c-.475-.113-.562.039-.547.463C2885.5-1.842,2885.487-1.16,2885.487-.479Zm-21.038.086q0-1.1,0-2.208c0-.254.029-.469-.377-.425a2.7,2.7,0,0,0-2.251,2.542,2.694,2.694,0,0,0,2.109,2.655c.369.06.548,0,.528-.438C2864.425,1.026,2864.449.316,2864.449-.393ZM2848.975,3.69c-.518.034-.824.2-.621.849.308.988.481,2.021.818,3,.8,2.325.128,2.007,2.5.917.353-.162.336-.323.153-.621-.786-1.279-1.551-2.571-2.317-3.863C2849.388,3.768,2849.264,3.606,2848.975,3.69Zm10.591.449c.13-.216-.023-.324-.291-.366-.332-.053-.667-.268-.926.19-.511.9-1.063,1.781-1.6,2.67-.992,1.652-.992,1.652.747,2.471.074.035.145.077.217.116.245.135.393.076.491-.2A34.543,34.543,0,0,0,2859.565,4.14ZM2890.079-5.4a2.162,2.162,0,0,0,1.61-2.005c-.053-.429-.523-.439-.818-.558-.346-.141-.251.238-.294.414C2890.406-6.84,2890.247-6.13,2890.079-5.4ZM2859.352.767a4.2,4.2,0,0,1-.16-1.346c.015-.266-.18-.247-.322-.18-.187.087-.573.006-.467.4.113.418.278.823.428,1.23.071.192.248.194.409.176S2859.353.9,2859.352.767Z" transform="translate(0 0)" fill="#020202"/>
      <path id="Trazado_611495" data-name="Trazado 611495" d="M2983.555,83.239a7.9,7.9,0,0,0,3.816,2.242,7.271,7.271,0,0,0,8.59-4.837c.229-.683.454-.714,1.072-.471a14.429,14.429,0,0,1,9.069,12.871c.058,2.6.007,5.2.031,7.8,0,.461-.118.612-.592.6-1.341-.03-2.685-.041-4.026,0-.571.019-.663-.195-.661-.7.019-3.888-.005-7.777.026-11.665.006-.65-.168-.823-.813-.809-1.833.038-1.833.008-1.833,1.826,0,3.505-.012,7.01.011,10.515,0,.589-.075.845-.775.839-4.164-.039-8.327-.026-12.491-.01a1.115,1.115,0,0,1-1.014-.508,18.751,18.751,0,0,0-10.4-7.045c-.281-.076-.664-.043-.692-.442s.373-.325.594-.418a7.9,7.9,0,0,0,4.775-5.384c.088-.314.062-.658.6-.7a5.1,5.1,0,0,0,4.556-3.355C2983.446,83.508,2983.482,83.415,2983.555,83.239Z" transform="translate(-93.023 -82.151)" fill="#7cd2b4"/>
      <path id="Trazado_611496" data-name="Trazado 611496" d="M2916.946,145.639l4.746-5.916c.264.208.138.472.138.692.011,2.573.022,5.147,0,7.72-.006.566.07.81.736.8,1.906-.036,1.907,0,1.907-1.914v-7.477l4.92,6.135c.177-1.7.343-3.222.495-4.75.238-2.4.476-4.791.694-7.188.05-.549.186-.714.737-.416a16.054,16.054,0,0,1,8.776,12.51,73.259,73.259,0,0,1,.162,7.874c.01.359-.114.473-.469.469-1.4-.015-2.794-.034-4.19.008-.547.016-.617-.2-.615-.664.018-3.011-.013-6.023.027-9.034.009-.689-.18-.866-.859-.849-1.788.046-1.789.012-1.789,1.791,0,2.656-.026,5.312.018,7.966.011.677-.214.792-.826.789q-8.421-.033-16.842,0c-.6,0-.781-.131-.774-.759.037-2.984,0-5.968.029-8.952.006-.6-.09-.855-.784-.839-1.858.044-1.859.007-1.859,1.886,0,2.655-.012,5.311.01,7.966,0,.514-.1.714-.666.7-1.341-.042-2.684-.015-4.026-.013-.3,0-.6.05-.583-.432.108-3.03-.294-6.087.342-9.088a16.074,16.074,0,0,1,8.495-11.271c.683-.369.793-.166.853.488.325,3.541.68,7.08,1.029,10.619C2916.806,144.827,2916.874,145.165,2916.946,145.639Z" transform="translate(-48.184 -117.795)" fill="#ed8773"/>
      <path id="Trazado_611497" data-name="Trazado 611497" d="M3012.195,4.385a17.3,17.3,0,0,0-8.638-4.46c-.89-.176-1.153-.819-1.332-1.6.58-.132,1.165-.23,1.727-.4a7.8,7.8,0,0,0,5.6-7.389c.037-5.093.006-10.186.021-15.278,0-.47-.074-.661-.615-.664-2.024-.014-2.024-.038-2.024,1.958v.411c0,1.706,0,1.706-1.71,1.577a3.9,3.9,0,0,1-3.5-3.375c-.076-.456-.209-.61-.651-.561a8.261,8.261,0,0,1-.9.006c-1.233,0-1.216,0-1.006,1.188a7.383,7.383,0,0,0,1.131,2.671,1.8,1.8,0,0,1-1.334-.167,3.949,3.949,0,0,1-2.384-2.545c-.127-.375.018-1.024-.332-1.092a9.83,9.83,0,0,0-2.29-.032c-.252.011-.158.306-.188.478a4.057,4.057,0,0,1-2.016,2.941c-.426.249-.624.24-.6-.338.032-.82-.018-1.644.018-2.463.021-.483-.093-.654-.624-.658-2.017-.012-2.017-.035-2.017,1.965V-12.49a13.243,13.243,0,0,0-2.329-1.4.408.408,0,0,1-.3-.429c.126-3.3-.352-6.635.323-9.91a13.142,13.142,0,0,1,13.3-10.343,13.157,13.157,0,0,1,12.529,11.361,14.87,14.87,0,0,1,.136,1.88q.014,12.568.006,25.135Z" transform="translate(-101.724 -5.274)" fill="#f4d57e"/>
      <path id="Trazado_611498" data-name="Trazado 611498" d="M2850.971,100.5a42.92,42.92,0,0,0,1.659,5.732,37.5,37.5,0,0,0,6.182,10.568c.369.45.522.35.834-.029a36.241,36.241,0,0,0,7.62-15.522c.124-.573.272-.718.831-.42a5.358,5.358,0,0,1,2.709,2.439,7.069,7.069,0,0,0,4.053,3.526c.19.074.551.023.516.391-.029.3-.292.339-.538.409a18.657,18.657,0,0,0-13.662,13.616.634.634,0,0,1-.736.547c-3.258-.017-6.517-.024-9.774,0-.563,0-.667-.185-.663-.7.02-3.449,0-6.9.023-10.346.005-.614-.112-.845-.791-.828-1.852.043-1.853.008-1.853,1.888,0,3.093-.011,6.186.01,9.278,0,.511-.1.714-.663.7-1.34-.043-2.683-.023-4.024-.008-.377,0-.606-.026-.591-.511.093-3.116-.259-6.253.186-9.348C2843.066,106.547,2846.061,102.828,2850.971,100.5Z" transform="translate(-5.287 -95.88)" fill="#6dbde3"/>
      <path id="Trazado_611499" data-name="Trazado 611499" d="M2947.232,62.945a9.059,9.059,0,0,0,2.26,1.127c.325.082.346.266.345.532-.008,3.091.052,6.184-.032,9.273a5.136,5.136,0,0,1-5.029,4.884q-2.831.054-5.664,0a5.155,5.155,0,0,1-5.035-4.966c-.062-3.309-.018-6.62-.019-9.93a2.124,2.124,0,0,1,.542-1.423c.59-.684.9-.693,1.553-.065a6.98,6.98,0,0,0,3.573,1.882c.645.127,1.075.046.91-.774a2.109,2.109,0,0,1,.014-.49l1.324-.054a10.281,10.281,0,0,0,2.315,1.157c1.5.428,1.563.389,1.621-1.1Zm-6.215,13.2c.765,0,1.53.012,2.3,0a3.942,3.942,0,0,0,3.847-3.274c.081-.449.058-.735-.532-.678a11.058,11.058,0,0,1-1.556,0,.474.474,0,0,0-.572.4,1.309,1.309,0,0,1-1.458.928c-1.01-.022-2.022-.005-3.033-.005-2.107,0-2.107,0-2.01,2.111a.415.415,0,0,1,0,.082c-.056.38.146.45.477.444C2939.323,76.134,2940.17,76.145,2941.018,76.144Zm-3.05-9.19a1.342,1.342,0,0,0-1.28,1.33,1.312,1.312,0,1,0,2.624-.065A1.349,1.349,0,0,0,2937.967,66.955Zm9.235,1.35a1.313,1.313,0,0,0-2.624-.106,1.313,1.313,0,1,0,2.624.106Z" transform="translate(-66.977 -70)" fill="#e8cfb5"/>
      <path id="Trazado_611500" data-name="Trazado 611500" d="M2877.81,2.578c0-1.621-.025-3.115.012-4.607.015-.607-.1-.862-.794-.848-1.848.036-1.849,0-1.849,1.833V-.47c0,1.625,0,1.625-1.614,1.547a3.917,3.917,0,0,1-3.6-3.364c-.083-.443-.212-.629-.66-.577a5.663,5.663,0,0,1-.656,0c-1.554,0-1.553,0-1.179,1.547A8.937,8.937,0,0,0,2868.517,1a3.6,3.6,0,0,1-3.729-3.025c-.15-.771-.469-.93-1.125-.835a.768.768,0,0,1-.246,0c-.957-.182-1.45.11-1.608,1.175A3.345,3.345,0,0,1,2860.1.52c-.469.3-.73.332-.7-.362.033-.82-.011-1.642.015-2.462.014-.434-.151-.547-.571-.565-2.068-.089-2.068-.1-2.068,1.935,0,1.341-.015,2.682.008,4.022.008.426-.082.672-.561.678a3.311,3.311,0,0,0-.724.132c-1.142.279-1.173.285-1.309-.861-.551-4.647,1.844-7.816,5.659-8.542.516-.1.636-.474.8-.832.962-2.107,2.438-3.732,4.764-4.139,5.4-.943,10.431.105,13.519,5.182a10.621,10.621,0,0,1,1.5,6.2c-.016.31-.04.59-.417.706A11.247,11.247,0,0,0,2877.81,2.578Z" transform="translate(-13.361 -21.235)" fill="#656c76"/>
      <path id="Trazado_611501" data-name="Trazado 611501" d="M3017.712,13.334c0,1.368.014,2.737,0,4.105a5.223,5.223,0,0,1-5.271,5.254c-1.779.017-3.559.007-5.338,0a5.091,5.091,0,0,1-3.491-1.409,4.144,4.144,0,0,1-.769-1.216c-1.138-2.117-.9-4.392-.9-6.643,0-1.587,0-3.175,0-4.762,0-.3-.025-.542.4-.651a6.1,6.1,0,0,0,3.2-2.028c.263-.311.406-.313.68,0a6.587,6.587,0,0,0,5.4,2.267c1.833-.047,3.669,0,5.5-.02.461-.006.611.117.6.591C3017.694,10.323,3017.713,11.828,3017.712,13.334Zm-8.776,6.733c.765,0,1.531.014,2.3,0a3.874,3.874,0,0,0,3.707-2.917c.273-1.023.273-1.023-.8-1.023-.383,0-.767.023-1.147-.007a.511.511,0,0,0-.63.436,1.233,1.233,0,0,1-1.318.887c-1.066-.009-2.132,0-3.2,0-2.037,0-2.018,0-1.983,2.07.008.49.174.587.614.57C3007.3,20.046,3008.117,20.068,3008.936,20.067Zm6.145-7.836a1.313,1.313,0,0,0-2.624-.108,1.313,1.313,0,1,0,2.624.108Zm-7.891-.067a1.312,1.312,0,0,0-2.624.026,1.312,1.312,0,1,0,2.624-.026Z" transform="translate(-112.501 -32.326)" fill="#e8cfb5"/>
      <path id="Trazado_611502" data-name="Trazado 611502" d="M2929.961,42.371a4.125,4.125,0,0,1-3.784-3.105c-.178-.742-.509-.921-1.162-.822a1.051,1.051,0,0,1-.164,0c-1.361,0-1.377,0-1.288,1.361.023.353-.156.473-.4.622a4.662,4.662,0,0,0-2.4,4.045c-.012.351-.068.561-.479.583a4.252,4.252,0,0,0-.962.2c-.256.076-.424.047-.506-.228-.694-2.349-1.108-4.709.019-7.041a7.905,7.905,0,0,1,7.359-4.776c3.367-.081,6.738-.061,10.106-.01a8.046,8.046,0,0,1,7.826,10.182c-.058.239-.119.477-.178.717-.306,1.242-.3,1.213-1.556.991-.475-.084-.64-.248-.611-.73a3.381,3.381,0,0,0-.078-1.77c-.314-.51-1.115-.087-1.686-.225a4.3,4.3,0,0,1-3.37-3.226c-.15-.558-.354-.8-.921-.7a2.369,2.369,0,0,1-.41,0c-1.62,0-1.625.034-1.176,1.651a23.006,23.006,0,0,0,1.074,2.28l.006-.006a4,4,0,0,1-3.672-2.782c-.277-1.1-.825-1.283-1.75-1.145a1.088,1.088,0,0,1-.327,0c-.811-.13-.884.254-.762.943a11.709,11.709,0,0,0,1.247,2.99Z" transform="translate(-56.306 -50.709)" fill="#656c76"/>
      <path id="Trazado_611503" data-name="Trazado 611503" d="M2870.172,33.167c0-1.505.009-3.01-.006-4.515,0-.378.083-.555.5-.665a5.977,5.977,0,0,0,3.067-1.95c.321-.38.47-.339.788.011a6.454,6.454,0,0,0,5.1,2.2c1.807-.027,3.613-.015,5.42,0,.3,0,.747-.2.869.172a1.235,1.235,0,0,1-.213,1.229,10.564,10.564,0,0,0-2.064,4.143,12.055,12.055,0,0,0,.425,6.7,1.032,1.032,0,0,1-.565,1.39,5.178,5.178,0,0,1-2.628.812c-1.861,0-3.723.028-5.584-.005a5.2,5.2,0,0,1-5.1-5.086c-.033-1.477-.005-2.955-.005-4.433Zm8.893,2.956v.007c-.793,0-1.588-.028-2.38.006a3.938,3.938,0,0,0-3.735,2.912c-.278,1.019-.278,1.019.8,1.019.41,0,.821-.012,1.231,0a.437.437,0,0,0,.524-.356,1.406,1.406,0,0,1,1.538-.965c.985.009,1.97,0,2.955,0,2.114,0,2.1,0,2.026-2.1-.015-.452-.166-.548-.575-.534C2880.652,36.142,2879.858,36.123,2879.065,36.123Zm-4.911-2.631a1.294,1.294,0,0,0,1.274-1.314,1.312,1.312,0,1,0-2.623.077A1.293,1.293,0,0,0,2874.154,33.492Zm9.163-1.31a1.311,1.311,0,0,0-2.623-.014,1.311,1.311,0,1,0,2.623.014Z" transform="translate(-24.131 -45.753)" fill="#e8ceb5"/>
      <path id="Trazado_611504" data-name="Trazado 611504" d="M3012.575,72.946a4.725,4.725,0,0,1-4.51-3.291c-.089-.291-.22-.533.207-.723a4.126,4.126,0,0,0,2.339-3.072c.148-.643.462-.945,1.131-.8a.243.243,0,0,0,.082,0c1.578-.215,2.817-.026,3.136,1.946a2.746,2.746,0,0,0,1.757,1.84c.459.2.493.436.34.879A4.749,4.749,0,0,1,3012.575,72.946Z" transform="translate(-116.563 -72.06)" fill="#e7ceb4"/>
      <path id="Trazado_611505" data-name="Trazado 611505" d="M2888.03,117.692c.967.487,1.946.966,2.906,1.477.177.094.024.3-.042.439a35.735,35.735,0,0,1-2.625,4.523c-.214.314-.356.337-.58.006a35.879,35.879,0,0,1-2.627-4.522c-.089-.184-.238-.379.085-.534.885-.424,1.757-.872,2.635-1.308A1.965,1.965,0,0,1,2888.03,117.692Z" transform="translate(-34.048 -107.409)" fill="#f6e5ab"/>
      <path id="Trazado_611506" data-name="Trazado 611506" d="M2889.126,91.817l-2.362-3.937c-.26-.433.06-.787.178-1.154.507-1.571.517-1.568,2.112-1.568,1.749,0,1.722.01,2.32,1.649a1.6,1.6,0,0,1-.167,1.585C2890.5,89.477,2889.858,90.6,2889.126,91.817Z" transform="translate(-35.199 -85.589)" fill="#e5ccb2"/>
      <path id="Trazado_611507" data-name="Trazado 611507" d="M2953.241,121.074c.437,0,.874-.016,1.309.005.321.016.727-.166.875.342.121.413.29.765-.08,1.193a25.242,25.242,0,0,0-1.769,2.35c-.335.5-.51.388-.8-.026a27.7,27.7,0,0,0-1.723-2.282c-.385-.444-.252-.819-.1-1.263.174-.5.58-.29.9-.311C2952.312,121.051,2952.778,121.074,2953.241,121.074Z" transform="translate(-78.217 -109.664)" fill="#e5ccb2"/>
      <path id="Trazado_611508" data-name="Trazado 611508" d="M2943.694,136.691c-.231-2.266-.445-4.323-.647-6.381-.019-.2-.113-.447.175-.563s.389.107.516.276c.77,1.023,1.532,2.051,2.309,3.069.169.221.238.391.033.64C2945.321,134.652,2944.581,135.588,2943.694,136.691Z" transform="translate(-72.994 -115.474)" fill="#e37257"/>
      <path id="Trazado_611509" data-name="Trazado 611509" d="M2965.867,136.685c-.881-1.093-1.641-2.047-2.416-2.99-.223-.271-.054-.443.1-.642q1.136-1.508,2.269-3.02c.127-.169.229-.393.516-.289.25.09.207.3.189.481C2966.312,132.314,2966.1,134.4,2965.867,136.685Z" transform="translate(-86.628 -115.476)" fill="#e37257"/>
      <path id="Trazado_611510" data-name="Trazado 611510" d="M2856.845,43.978c0,.709-.015,1.418.006,2.126.01.349-.077.481-.455.438a2.639,2.639,0,0,1,.083-5.211c.416-.039.365.2.365.438C2856.847,42.506,2856.845,43.242,2856.845,43.978Z" transform="translate(-13.434 -56.19)" fill="#e7ceb4"/>
      <path id="Trazado_611511" data-name="Trazado 611511" d="M2989.956,79.832c0-.681.018-1.363-.006-2.043-.015-.424.072-.575.547-.463a2.632,2.632,0,0,1,.133,5.119c-.433.113-.723.115-.684-.488C2989.992,81.251,2989.956,80.541,2989.956,79.832Z" transform="translate(-104.469 -80.311)" fill="#e7ceb4"/>
      <path id="Trazado_611512" data-name="Trazado 611512" d="M2920.738,79.9c0,.709-.024,1.419.009,2.126.021.435-.159.5-.528.438a2.64,2.64,0,0,1,.142-5.2c.406-.044.378.172.377.425Q2920.737,78.792,2920.738,79.9Z" transform="translate(-56.288 -80.289)" fill="#e7ceb4"/>
      <path id="Trazado_611513" data-name="Trazado 611513" d="M2877.7,97.625c.29-.085.413.077.534.281.767,1.291,1.531,2.584,2.318,3.863.184.3.2.459-.153.621-2.375,1.09-1.7,1.408-2.5-.917-.336-.978-.51-2.01-.818-3C2876.88,97.822,2877.186,97.659,2877.7,97.625Z" transform="translate(-28.729 -93.934)" fill="#edcf7b"/>
      <path id="Trazado_611514" data-name="Trazado 611514" d="M2904.166,98.093a34.674,34.674,0,0,1-1.358,4.882c-.1.275-.246.334-.491.2-.072-.039-.143-.081-.217-.116-1.739-.819-1.74-.819-.748-2.471.535-.889,1.086-1.768,1.6-2.67.259-.458.594-.242.926-.19C2904.143,97.77,2904.3,97.877,2904.166,98.093Z" transform="translate(-44.6 -93.954)" fill="#edcf7b"/>
      <path id="Trazado_611515" data-name="Trazado 611515" d="M3003.928,64.788c.169-.733.327-1.443.5-2.15.043-.176-.052-.555.294-.414.295.12.765.129.818.558A2.161,2.161,0,0,1,3003.928,64.788Z" transform="translate(-113.849 -70.186)" fill="#edcf7b"/>
      <path id="Trazado_611516" data-name="Trazado 611516" d="M2908.642,85.6c0,.129.039.261-.113.277s-.338.016-.409-.176c-.15-.407-.315-.812-.428-1.23-.106-.392.281-.311.467-.4.142-.067.337-.086.322.18A4.19,4.19,0,0,0,2908.642,85.6Z" transform="translate(-49.29 -84.831)" fill="#f7f9fa"/>
      <path id="Trazado_611517" data-name="Trazado 611517" d="M2955.385,62.422l-1.324.054q-.01-.666-.018-1.333l0,0A9.683,9.683,0,0,1,2955.385,62.422Z" transform="translate(-80.387 -69.481)" fill="#656c76"/>
      <path id="Trazado_611518" data-name="Trazado 611518" d="M2971.355,62.423l-1.322.05q-.009-.666-.017-1.333l-.006.006A9.73,9.73,0,0,1,2971.355,62.423Z" transform="translate(-91.099 -69.479)" fill="#656c76"/>
      <path id="Trazado_611519" data-name="Trazado 611519" d="M2949.01,97.053c-.847,0-1.695-.011-2.541.006-.332.007-.533-.064-.477-.444a.415.415,0,0,0,0-.082c-.1-2.111-.1-2.111,2.01-2.111,1.011,0,2.022-.017,3.033.005a1.309,1.309,0,0,0,1.458-.928.473.473,0,0,1,.572-.4,11.058,11.058,0,0,0,1.556,0c.59-.057.613.229.531.678a3.942,3.942,0,0,1-3.847,3.274C2950.541,97.065,2949.775,97.053,2949.01,97.053Z" transform="translate(-74.97 -90.909)" fill="#040403"/>
      <path id="Trazado_611520" data-name="Trazado 611520" d="M2956.669,53.06q.009.666.017,1.333c-.058,1.493-.119,1.532-1.621,1.1a10.28,10.28,0,0,1-2.315-1.157,9.7,9.7,0,0,0-1.347-1.275,11.727,11.727,0,0,1-1.247-2.99c-.121-.689-.049-1.073.762-.943a1.091,1.091,0,0,0,.327,0c.925-.138,1.473.048,1.75,1.145A4,4,0,0,0,2956.669,53.06Z" transform="translate(-77.753 -61.399)" fill="#020202"/>
      <path id="Trazado_611521" data-name="Trazado 611521" d="M2943.353,77.214a1.349,1.349,0,0,1,1.344,1.265,1.312,1.312,0,1,1-2.624.065A1.342,1.342,0,0,1,2943.353,77.214Z" transform="translate(-72.362 -80.26)" fill="#070706"/>
      <path id="Trazado_611522" data-name="Trazado 611522" d="M2968.657,78.563a1.313,1.313,0,1,1-2.624-.106,1.313,1.313,0,0,1,2.624.106Z" transform="translate(-88.431 -80.258)" fill="#070706"/>
      <path id="Trazado_611523" data-name="Trazado 611523" d="M3016.957,41.177c-.82,0-1.64-.021-2.459.01-.44.017-.605-.08-.614-.57-.035-2.07-.054-2.07,1.983-2.07,1.065,0,2.131-.008,3.2,0a1.232,1.232,0,0,0,1.318-.887.512.512,0,0,1,.63-.436c.38.03.764.007,1.147.007,1.073,0,1.073,0,.8,1.023a3.874,3.874,0,0,1-3.707,2.917C3018.488,41.19,3017.722,41.176,3016.957,41.177Z" transform="translate(-120.522 -53.436)" fill="#040403"/>
      <path id="Trazado_611524" data-name="Trazado 611524" d="M3036.544,22.677a1.313,1.313,0,1,1-2.624-.108,1.313,1.313,0,0,1,2.624.108Z" transform="translate(-133.964 -42.773)" fill="#070706"/>
      <path id="Trazado_611525" data-name="Trazado 611525" d="M3012.584,22.612a1.312,1.312,0,1,1-2.624.026,1.312,1.312,0,0,1,2.624-.026Z" transform="translate(-117.896 -42.776)" fill="#070706"/>
      <path id="Trazado_611526" data-name="Trazado 611526" d="M2884.419,57.2c.793,0,1.587.019,2.38-.008.409-.014.56.082.575.534.072,2.1.088,2.1-2.026,2.1-.985,0-1.97.007-2.955,0a1.406,1.406,0,0,0-1.538.965.437.437,0,0,1-.524.356c-.409-.016-.82,0-1.231,0-1.075,0-1.075,0-.8-1.019a3.938,3.938,0,0,1,3.736-2.912c.792-.034,1.586-.006,2.38-.006Z" transform="translate(-29.486 -66.829)" fill="#040403"/>
      <path id="Trazado_611527" data-name="Trazado 611527" d="M2879.53,43.9a1.293,1.293,0,0,1-1.349-1.237,1.312,1.312,0,1,1,2.623-.077A1.294,1.294,0,0,1,2879.53,43.9Z" transform="translate(-29.507 -56.164)" fill="#070706"/>
      <path id="Trazado_611528" data-name="Trazado 611528" d="M2904.765,42.593a1.311,1.311,0,1,1-2.623-.014,1.311,1.311,0,0,1,2.623.014Z" transform="translate(-45.579 -56.164)" fill="#070706"/>
    </g>
  </g>
</svg>
