<svg xmlns="http://www.w3.org/2000/svg" width="96.06" height="96.06" viewBox="0 0 96.06 96.06">
  <g id="Grupo_940231" data-name="Grupo 940231" transform="translate(0.481)">
    <ellipse id="Elipse_7678" data-name="Elipse 7678" cx="38.03" cy="37.53" rx="38.03" ry="37.53" transform="translate(10.519 11)" fill="#583cb6"/>
    <rect id="Rectángulo_305813" data-name="Rectángulo 305813" width="96.06" height="96.06" transform="translate(-0.481)" fill="none"/>
    <g id="Grupo_940234" data-name="Grupo 940234" transform="translate(11.755 11.929)">
      <path id="Trazado_619191" data-name="Trazado 619191" d="M144.789,989.8c.067-1.178.067-1.188,1.269-1.176a18.183,18.183,0,0,1,3.4.108,5.824,5.824,0,0,1,4.729,5.758c.022,4.093.006,8.185.006,12.278q0,12.846.006,25.691c0,.3-.2.69.44.711,3.375.112,4.8,1.991,4.055,5.268a8.21,8.21,0,0,1-8.022,6.453q-28.142.015-56.284,0a8.213,8.213,0,0,1-8.2-7.859,3.543,3.543,0,0,1,3.665-3.876c1.013-.028,1.013-.028,1.013-1.052q0-18.7,0-37.4a5.83,5.83,0,0,1,4.734-5.964,26.9,26.9,0,0,1,4.321-.118c.247-.007.333.088.325.331-.009.282.013.566.022.849a2.213,2.213,0,0,0-.02.494c.108.6-.186.7-.7.671-.755-.039-1.517.039-2.27-.019a3.733,3.733,0,0,0-4.08,4.065c.06,12.442.033,24.886.008,37.328,0,.71.2.832.863.831q28.459-.028,56.919.005c.761,0,.862-.235.861-.906q-.029-18.593-.015-37.187c0-.26,0-.521-.015-.78a3.494,3.494,0,0,0-3.47-3.342c-.78-.021-1.561-.005-2.342-.005C144.856,990.954,144.856,990.954,144.789,989.8Zm-30.44,52.732h6.317c4.661,0,9.322-.015,13.983.017.675,0,.83-.2.8-.834-.049-1.11,0-2.223-.021-3.335-.007-.383.084-.545.507-.542q3.016.029,6.033,0c.432,0,.512.18.5.552-.019.8-.006,1.609-.006,2.413,0,1.791,0,1.775,1.805,1.74.445-.009.558-.152.549-.574-.025-1.182.006-2.366-.016-3.548-.008-.409.07-.59.537-.584q2.98.036,5.962,0c.449,0,.565.157.557.577-.022,1.135.011,2.272-.015,3.407-.012.528.169.583.631.437a5.873,5.873,0,0,0,4.012-5.021c.1-1.327-.262-1.717-1.591-1.717-7.406,0-14.811.01-22.216-.019-.69,0-.791.227-.785.832a3.525,3.525,0,0,1-3.866,3.876c-3.62,0-7.242-.069-10.859.025a3.677,3.677,0,0,1-4.012-4.046c.052-.505-.078-.684-.639-.682-7.5.021-15,.013-22.5.015-1.131,0-1.522.428-1.451,1.577a5.187,5.187,0,0,0,.11.841,5.811,5.811,0,0,0,5.939,4.589Q104.483,1042.544,114.349,1042.531Zm8.211-7.012c-2.151,0-4.3-.005-6.453.007-.216,0-.518-.158-.606.269-.274,1.332.288,2.052,1.649,2.053q5.354,0,10.708,0c1.39,0,1.7-.338,1.716-1.713.006-.5-.138-.635-.632-.629C126.815,1035.534,124.687,1035.519,122.56,1035.519Zm26.943,5.887c0-1.2,0-1.2-1.225-1.2-1.132,0-1.132,0-1.132,1.16,0,1.178,0,1.178,1.2,1.178C149.5,1042.547,149.5,1042.547,149.5,1041.406Zm-10.524-1.2c-1.215,0-1.215,0-1.215,1.142,0,1.184,0,1.184,1.193,1.184,1.17,0,1.17,0,1.17-1.2C140.126,1040.209,140.126,1040.209,138.978,1040.209Z" transform="translate(-86.19 -972.188)" fill="#040404"/>
      <path id="Trazado_619192" data-name="Trazado 619192" d="M162.43,992.845C162.5,994,162.5,994,163.651,994c.781,0,1.562-.016,2.342.005a3.494,3.494,0,0,1,3.47,3.342c.017.259.015.52.015.78q0,18.593.015,37.187c0,.671-.1.907-.861.906q-28.459-.039-56.919-.005c-.66,0-.865-.121-.863-.831.025-12.443.051-24.886-.008-37.328a3.733,3.733,0,0,1,4.08-4.065c.753.058,1.515-.02,2.27.019.518.027.812-.074.7-.671a2.212,2.212,0,0,1,.02-.494l2.305,0c.071,1.151.071,1.151,1.226,1.151,3.306,0,6.611.008,9.917-.009.443,0,.623.086.6.573-.047.989-.03,1.981-.04,2.972h-2.257c-.09-1.171-.09-1.171-1.306-1.171q-6.245,0-12.49,0a2.366,2.366,0,0,0-2.671,2.653q0,16.072,0,32.144a2.4,2.4,0,0,0,2.7,2.714q24.27,0,48.539,0a2.406,2.406,0,0,0,2.7-2.713q0-16.072,0-32.144a2.368,2.368,0,0,0-2.671-2.654q-6.245,0-12.49,0c-1.216,0-1.216,0-1.306,1.171h-2.257c-.009-.967.016-1.936-.042-2.9-.033-.556.165-.651.673-.647,3.282.023,6.564.012,9.846.012,1.155,0,1.155,0,1.226-1.151Z" transform="translate(-103.831 -975.234)" fill="#cbcfd6"/>
      <path id="Trazado_619193" data-name="Trazado 619193" d="M140.757,953.224c.009-.991-.007-1.983.04-2.972.023-.487-.158-.576-.6-.573-3.306.017-6.611.009-9.917.009-1.155,0-1.155,0-1.226-1.152.009-1.8,0-3.594.036-5.391.008-.458-.212-.482-.564-.479-1.561.011-3.123-.009-4.683.014-.458.007-.664-.065-.66-.6q.038-5.286,0-10.573c0-.479.143-.58.6-.579q6.458.026,12.915,0c.46,0,.591.111.588.58q-.03,5.286,0,10.573c0,.531-.19.612-.654.6-1.561-.025-3.123.006-4.683-.02-.441-.008-.561.12-.549.556.03,1.182.038,2.366,0,3.547-.018.525.181.606.646.6,3.406-.018,6.813.015,10.218-.029.743-.01,1.027.189.9.92a1.038,1.038,0,0,0,.029.28v4.685q-.016,3.83-.031,7.66c0,1.724,0,1.7-1.721,1.725-.528.007-.67-.125-.666-.661C140.791,959.04,140.766,956.132,140.757,953.224ZM130.2,940.31c1.4,0,2.792-.015,4.188.009.419.007.568-.08.562-.538q-.042-2.945,0-5.891c.008-.519-.168-.617-.643-.613q-4.081.031-8.163,0c-.46,0-.6.116-.592.586.026,1.963.03,3.927,0,5.891-.008.5.169.574.6.566C127.5,940.294,128.853,940.31,130.2,940.31Z" transform="translate(-112.663 -930.922)" fill="#040404"/>
      <path id="Trazado_619194" data-name="Trazado 619194" d="M248.568,948.536c-.071,1.152-.071,1.152-1.226,1.152-3.282,0-6.564.011-9.846-.012-.509,0-.707.091-.673.647.058.964.033,1.933.042,2.9q-.014,3.866-.028,7.731c0,1.645,0,1.618-1.646,1.655-.584.013-.747-.136-.742-.733.024-2.884-.006-5.769-.016-8.653q0-2.342,0-4.685c.086-1.181.086-1.181,1.282-1.181,3.241,0,6.481-.023,9.722.018.678.009.816-.206.789-.825-.048-1.11-.034-2.223,0-3.334.012-.436-.108-.564-.549-.556-1.561.026-3.123-.005-4.683.02-.463.007-.658-.073-.654-.6q.037-5.286,0-10.573c0-.469.127-.582.588-.58q6.458.027,12.915,0c.453,0,.6.1.6.578q-.032,5.286,0,10.573c0,.538-.2.612-.659.6-1.561-.023-3.122,0-4.683-.014-.351,0-.572.021-.564.479C248.564,944.942,248.559,946.739,248.568,948.536Zm-1.195-8.227c1.372,0,2.745-.012,4.117.007.391.005.586-.033.579-.518-.031-2.01-.021-4.022-.006-6.033,0-.361-.089-.489-.471-.487q-4.223.022-8.446,0c-.382,0-.474.133-.471.493.014,2.011.017,4.022,0,6.033,0,.4.111.52.513.513C244.581,940.3,245.978,940.31,247.373,940.31Z" transform="translate(-192.274 -930.922)" fill="#040404"/>
      <path id="Trazado_619195" data-name="Trazado 619195" d="M195.027,948.526c.01-1.8.005-3.593.04-5.389.009-.464-.219-.476-.563-.474-1.537.01-3.075-.014-4.612.015-.519.01-.738-.075-.732-.681q.049-5.214,0-10.428c0-.55.156-.654.673-.651q6.385.032,12.77,0c.516,0,.677.1.673.65q-.043,5.214,0,10.428c.006.6-.212.691-.731.681-1.537-.029-3.074,0-4.612-.015-.344,0-.573.009-.564.474.034,1.8.03,3.592.04,5.389q0,2.347,0,4.693-.015,3.86-.03,7.72c0,1.666,0,1.637-1.694,1.669-.561.011-.645-.175-.643-.677.014-2.9-.009-5.808-.019-8.712Q195.026,950.872,195.027,948.526Zm1.18-8.221c1.393,0,2.787-.012,4.18.008.377.005.534-.064.528-.491-.023-2.007-.019-4.015,0-6.022,0-.384-.083-.528-.5-.525q-4.18.027-8.36,0c-.383,0-.532.078-.528.5.021,2.007.028,4.015,0,6.021-.008.485.188.521.577.516C193.467,940.293,194.837,940.3,196.206,940.3Z" transform="translate(-159.877 -930.918)" fill="#050505"/>
      <path id="Trazado_619196" data-name="Trazado 619196" d="M198.155,992.833q0,2.346,0,4.693h-4.623q0-2.342,0-4.685Z" transform="translate(-163.005 -975.225)" fill="#caced4"/>
      <path id="Trazado_619197" data-name="Trazado 619197" d="M218.176,997.525q0-2.347,0-4.693l4.623.01v4.685Z" transform="translate(-180.641 -975.225)" fill="#caced4"/>
      <path id="Trazado_619198" data-name="Trazado 619198" d="M120.316,1160.58q-9.866,0-19.732,0a5.811,5.811,0,0,1-5.938-4.589,5.187,5.187,0,0,1-.11-.841c-.071-1.15.32-1.577,1.451-1.577,7.5,0,15,.006,22.5-.016.561,0,.69.177.639.683a3.677,3.677,0,0,0,4.012,4.046c3.618-.095,7.239-.022,10.859-.025a3.525,3.525,0,0,0,3.866-3.876c-.006-.6.095-.834.785-.832,7.405.029,14.811.018,22.216.019,1.329,0,1.688.391,1.591,1.717a5.874,5.874,0,0,1-4.012,5.021c-.462.146-.643.091-.631-.437.026-1.135-.007-2.271.015-3.407.008-.42-.108-.582-.557-.577q-2.98.031-5.962,0c-.467-.006-.545.175-.537.584.023,1.182-.008,2.366.016,3.548.009.422-.1.566-.549.574-1.806.035-1.805.051-1.805-1.74,0-.8-.013-1.609.006-2.413.009-.372-.071-.556-.5-.552q-3.016.029-6.033,0c-.423,0-.514.158-.507.542.02,1.112-.028,2.225.021,3.335.028.63-.128.838-.8.834-4.661-.032-9.322-.017-13.983-.017Z" transform="translate(-92.157 -1090.237)" fill="#969ea8"/>
      <path id="Trazado_619199" data-name="Trazado 619199" d="M196.148,1153.561c2.127,0,4.255.015,6.382-.011.494-.006.638.131.632.628-.017,1.375-.326,1.713-1.716,1.713q-5.354,0-10.708,0c-1.361,0-1.922-.721-1.649-2.053.088-.427.39-.267.606-.269C191.846,1153.556,194,1153.561,196.148,1153.561Z" transform="translate(-159.778 -1090.23)" fill="#ec8773"/>
      <path id="Trazado_619200" data-name="Trazado 619200" d="M302.89,1171.3c0,1.141,0,1.141-1.155,1.141-1.2,0-1.2,0-1.2-1.178,0-1.16,0-1.16,1.132-1.16C302.89,1170.1,302.89,1170.1,302.89,1171.3Z" transform="translate(-239.577 -1102.084)" fill="#ec8773"/>
      <path id="Trazado_619201" data-name="Trazado 619201" d="M268.757,1170.1c1.148,0,1.148,0,1.148,1.131,0,1.195,0,1.195-1.17,1.195-1.193,0-1.193,0-1.193-1.184C267.542,1170.1,267.542,1170.1,268.757,1170.1Z" transform="translate(-215.968 -1102.084)" fill="#ec8773"/>
      <path id="Trazado_619202" data-name="Trazado 619202" d="M153.215,1009.335h4.623c.011,2.884.04,5.769.016,8.653,0,.6.158.746.742.733,1.645-.037,1.642-.01,1.646-1.655q.01-3.866.028-7.731h2.257c.086,1.15.086,1.15,1.25,1.15,4.046,0,8.091.014,12.137-.015.6,0,.736.162.733.745-.023,5.2-.013,10.409-.013,15.613,0,5.276-.008,10.551.011,15.826,0,.519-.114.7-.659.673-1.134-.045-2.271-.035-3.406,0-.484.014-.651-.115-.643-.625.03-1.845,0-3.69.021-5.535a.623.623,0,0,0-.542-.738c-.752-.2-1.487-.46-2.226-.7a5.254,5.254,0,0,1-1.38-3.021c.054-.13.13-.251.2-.377.336-.65.654-1.311,1.015-1.946a.505.505,0,0,0-.119-.721q-2.8-2.771-5.568-5.573a.51.51,0,0,0-.727-.078c-.709.376-1.429.731-2.137,1.109a.782.782,0,0,1-.726.085c-2.3-.9-2.3-.892-3.049-3.239-.05-.158-.112-.312-.146-.473-.078-.364-.293-.459-.658-.457-2.579.016-5.158.02-7.736,0a.6.6,0,0,0-.677.528c-.224.77-.482,1.53-.721,2.3a.734.734,0,0,1-.427.515c-2.272,1-2.27,1-4.517-.168a4.032,4.032,0,0,1-.373-.2.489.489,0,0,0-.725.09q-2.766,2.8-5.569,5.571a.506.506,0,0,0-.117.721c.4.721.759,1.467,1.143,2.2a.717.717,0,0,1,.082.655c-.876,2.327-.871,2.329-3.287,3.09a1.571,1.571,0,0,1-.267.093c-.5.06-.624.331-.616.821.032,1.821-.006,3.643.024,5.464.008.51-.158.639-.643.625-1.135-.032-2.272-.042-3.406,0-.545.022-.66-.154-.659-.673q.023-15.755,0-31.51c0-.522.117-.675.66-.672,4.069.025,8.139.013,12.207.013,1.164,0,1.164,0,1.25-1.15h2.257c.009,2.908.034,5.817.015,8.724,0,.537.138.669.666.661,1.719-.024,1.716,0,1.721-1.725q.011-3.83.031-7.66h4.623c.01,2.9.033,5.808.019,8.712,0,.5.082.688.643.677,1.693-.032,1.69,0,1.694-1.669Q153.2,1013.195,153.215,1009.335Z" transform="translate(-115.68 -987.034)" fill="#83d2ee"/>
      <path id="Trazado_619203" data-name="Trazado 619203" d="M135.6,1006.393c-.086,1.15-.086,1.15-1.25,1.15-4.069,0-8.138.011-12.207-.013-.543,0-.661.15-.66.672q.023,15.755,0,31.51c0,.519.114.7.659.673,1.134-.045,2.271-.035,3.406,0,.485.014.651-.115.643-.625-.03-1.821.007-3.643-.024-5.464-.008-.49.12-.76.616-.821a1.581,1.581,0,0,0,.267-.093c2.416-.762,2.411-.763,3.287-3.091a.717.717,0,0,0-.082-.655c-.384-.731-.742-1.477-1.143-2.2a.506.506,0,0,1,.117-.721q2.8-2.77,5.569-5.571a.489.489,0,0,1,.725-.09,4.016,4.016,0,0,0,.373.2c2.247,1.172,2.245,1.168,4.517.168a.734.734,0,0,0,.427-.515c.239-.766.5-1.526.721-2.3a.6.6,0,0,1,.677-.528c2.579.023,5.157.019,7.736,0,.364,0,.579.093.658.457.035.161.1.316.146.473.746,2.347.748,2.341,3.049,3.239a.782.782,0,0,0,.726-.084c.708-.377,1.428-.733,2.137-1.109a.51.51,0,0,1,.727.078q2.762,2.808,5.568,5.573a.505.505,0,0,1,.119.721c-.361.635-.679,1.3-1.015,1.946-.065.126-.141.247-.2.377a5.253,5.253,0,0,0,1.38,3.021c.739.244,1.474.508,2.226.7a.623.623,0,0,1,.542.738c-.022,1.845.009,3.691-.021,5.535-.008.51.159.639.643.625,1.135-.032,2.272-.042,3.406,0,.545.022.661-.154.659-.673-.019-5.275-.011-10.551-.011-15.826,0-5.2-.01-10.409.013-15.613,0-.582-.134-.749-.733-.745-4.045.028-8.091.015-12.137.015-1.163,0-1.163,0-1.25-1.15.09-1.17.09-1.17,1.306-1.17q6.245,0,12.49,0a2.368,2.368,0,0,1,2.671,2.654q0,16.073,0,32.145a2.406,2.406,0,0,1-2.7,2.713q-24.27,0-48.539,0a2.4,2.4,0,0,1-2.7-2.714q0-16.073,0-32.145a2.366,2.366,0,0,1,2.671-2.653q6.245,0,12.49,0C135.514,1005.222,135.514,1005.222,135.6,1006.393Zm-7.089,31.4c0,.71.013,1.42-.006,2.129-.009.33.09.461.437.457q1.987-.023,3.975,0c.373,0,.5-.094.432-.485a12.215,12.215,0,0,1,0-3.816,12.9,12.9,0,0,1,24.4-3.579,12.5,12.5,0,0,1,1.122,7.317c-.065.439.029.577.488.567,1.277-.028,2.555-.024,3.833,0,.4.007.534-.119.52-.522-.028-.8,0-1.609-.01-2.413-.007-.682.215-1.547-.117-2s-1.219-.517-1.879-.692a1.185,1.185,0,0,1-1-1,4.7,4.7,0,0,0-.626-1.72,3.123,3.123,0,0,1,.1-4.079c.281-.359.139-.607-.159-.891-.838-.8-1.645-1.633-2.465-2.453-.891-.891-.936-.964-2-.294a2.178,2.178,0,0,1-2.805.024,2.263,2.263,0,0,0-1.032-.449,3.014,3.014,0,0,1-2.79-2.957c-.049-.405-.29-.5-.687-.493-1.253.028-2.513.079-3.76-.013-.855-.063-1.246.228-1.362,1.039a2.293,2.293,0,0,1-2.149,2.248,2.5,2.5,0,0,0-.726.272c-.727.331-1.454.947-2.171.932s-1.438-.639-2.144-1.019a.472.472,0,0,0-.667.1q-1.562,1.6-3.163,3.16a.512.512,0,0,0-.106.73c.3.532.549,1.1.855,1.63a.909.909,0,0,1,0,1.04,10.438,10.438,0,0,0-1.268,2.988,1.541,1.541,0,0,1-1.265,1.275c-1.815.506-1.8.547-1.8,2.4Q128.514,1037.507,128.514,1037.791Zm23.025,2.581h3.536c1.432,0,1.432,0,1.537-1.456a10.536,10.536,0,1,0-20.871.949c.052.265.071.512.444.51,1.487-.009,2.974,0,4.473,0-.765-3.487-.058-5.734,2.25-7.244a5.9,5.9,0,0,1,6.6.144C151.7,1034.846,152.385,1037.175,151.54,1040.372Zm-5.464,0c.709,0,1.419-.023,2.127.009a.874.874,0,0,0,.862-.468,3.5,3.5,0,1,0-5.983-.118.974.974,0,0,0,1.01.589C144.749,1040.335,145.414,1040.372,146.076,1040.372Z" transform="translate(-109.767 -984.091)" fill="#030403"/>
      <path id="Trazado_619204" data-name="Trazado 619204" d="M136.164,946.23c-1.349,0-2.7-.016-4.046.009-.435.008-.611-.071-.6-.566.031-1.963.028-3.927,0-5.891-.006-.469.132-.589.592-.585q4.081.031,8.163,0c.475,0,.652.094.643.613q-.047,2.945,0,5.891c.007.458-.143.546-.562.538C138.957,946.214,137.561,946.23,136.164,946.23Zm.05-4.689h-.637c-1.761,0-1.745,0-1.742,1.762,0,.453.1.631.585.609.776-.036,1.556-.01,2.334-.01,1.848,0,1.837,0,1.8-1.849-.007-.383-.084-.546-.5-.522C137.442,941.567,136.827,941.54,136.214,941.54Z" transform="translate(-118.625 -936.842)" fill="#e9cfb5"/>
      <path id="Trazado_619205" data-name="Trazado 619205" d="M268.111,946.236c-1.4,0-2.792-.014-4.188.009-.4.007-.517-.112-.513-.513.019-2.011.016-4.022,0-6.033,0-.359.089-.494.471-.493q4.223.021,8.447,0c.382,0,.473.127.471.487-.015,2.011-.025,4.022.006,6.033.007.485-.188.523-.579.518C270.856,946.225,269.483,946.236,268.111,946.236Zm.027-2.328h.566c1.81,0,1.81,0,1.771-1.807a1.06,1.06,0,0,1,0-.141c.035-.3-.075-.421-.392-.418-1.32.013-2.641.009-3.961,0-.225,0-.318.057-.355.307-.276,1.874-.129,2.056,1.735,2.056Z" transform="translate(-213.012 -936.849)" fill="#e9cfb5"/>
      <path id="Trazado_619206" data-name="Trazado 619206" d="M202.147,946.235c-1.37,0-2.739-.012-4.109.007-.389.005-.585-.031-.577-.516.031-2.007.025-4.014,0-6.021,0-.421.144-.5.528-.5q4.18.022,8.36,0c.418,0,.5.141.5.525-.017,2.007-.02,4.015,0,6.022.005.427-.152.5-.528.491C204.933,946.223,203.54,946.235,202.147,946.235Zm0-2.327h.566c1.866,0,1.846,0,1.818-1.844-.007-.471-.181-.539-.583-.526-.8.027-1.6.008-2.405.008-1.765,0-1.743,0-1.748,1.758,0,.523.183.641.654.612C201.009,943.882,201.577,943.908,202.143,943.908Z" transform="translate(-165.817 -936.848)" fill="#ead0b6"/>
      <path id="Trazado_619207" data-name="Trazado 619207" d="M152.1,1076.031v-.568c0-1.857-.012-1.9,1.8-2.4a1.541,1.541,0,0,0,1.265-1.275,10.44,10.44,0,0,1,1.268-2.988.908.908,0,0,0,0-1.04c-.307-.531-.551-1.1-.855-1.63a.512.512,0,0,1,.106-.73q1.6-1.563,3.163-3.16a.472.472,0,0,1,.667-.1c.706.381,1.422,1.005,2.144,1.019s1.444-.6,2.171-.932a2.51,2.51,0,0,1,.726-.272,2.293,2.293,0,0,0,2.149-2.248c.116-.811.507-1.1,1.362-1.039,1.247.092,2.507.042,3.76.013.4-.009.637.088.687.494a3.014,3.014,0,0,0,2.79,2.957,2.262,2.262,0,0,1,1.032.449,2.178,2.178,0,0,0,2.805-.024c1.066-.67,1.111-.6,2,.294.82.82,1.627,1.653,2.465,2.453.3.285.44.532.159.892a3.123,3.123,0,0,0-.1,4.079,4.7,4.7,0,0,1,.626,1.721,1.185,1.185,0,0,0,1,1c.659.175,1.544.242,1.879.693s.11,1.313.117,1.995c.009.8-.018,1.609.01,2.413.014.4-.116.529-.52.522-1.277-.023-2.555-.027-3.833,0-.459.01-.552-.128-.488-.567a12.5,12.5,0,0,0-1.122-7.317,12.9,12.9,0,0,0-24.4,3.579,12.216,12.216,0,0,0,0,3.816c.065.391-.059.49-.432.485q-1.987-.024-3.975,0c-.348,0-.446-.127-.437-.457C152.111,1077.451,152.1,1076.741,152.1,1076.031Z" transform="translate(-133.35 -1022.331)" fill="#f4c54e"/>
      <path id="Trazado_619208" data-name="Trazado 619208" d="M192.866,1096.426c.845-3.2.163-5.526-2.029-7.1a5.9,5.9,0,0,0-6.6-.144c-2.307,1.51-3.015,3.758-2.25,7.244-1.5,0-2.986-.005-4.473,0-.373,0-.392-.246-.444-.51a10.536,10.536,0,1,1,20.871-.948c-.1,1.456-.1,1.456-1.537,1.456Z" transform="translate(-151.093 -1040.145)" fill="#f3d57e"/>
      <path id="Trazado_619209" data-name="Trazado 619209" d="M205.117,1114.09c-.662,0-1.326-.037-1.985.012a.974.974,0,0,1-1.01-.589,3.5,3.5,0,1,1,5.983.118.874.874,0,0,1-.862.468C206.536,1114.067,205.826,1114.09,205.117,1114.09Z" transform="translate(-168.808 -1057.809)" fill="#82d1ed"/>
      <path id="Trazado_619210" data-name="Trazado 619210" d="M142.053,947.409c.613,0,1.228.027,1.839-.009.42-.024.5.138.5.522.035,1.849.046,1.848-1.8,1.848-.778,0-1.558-.026-2.334.01-.48.022-.585-.156-.585-.609,0-1.762-.019-1.762,1.742-1.762Z" transform="translate(-124.464 -942.711)" fill="#090807"/>
      <path id="Trazado_619211" data-name="Trazado 619211" d="M273.8,949.786h-.637c-1.864,0-2.01-.182-1.735-2.056.037-.251.129-.309.355-.307,1.32.006,2.641.011,3.961,0,.317,0,.427.122.392.418a1.059,1.059,0,0,0,0,.141c.039,1.807.039,1.807-1.771,1.807Z" transform="translate(-218.67 -942.727)" fill="#090807"/>
      <path id="Trazado_619212" data-name="Trazado 619212" d="M208.008,949.775c-.566,0-1.134-.026-1.7.008-.471.029-.656-.09-.654-.612.005-1.758-.017-1.758,1.748-1.758.8,0,1.6.019,2.405-.008.4-.013.576.054.583.526.028,1.845.047,1.844-1.818,1.844Z" transform="translate(-171.682 -942.715)" fill="#090807"/>
    </g>
  </g>
</svg>
