<svg xmlns="http://www.w3.org/2000/svg" width="125" height="125" viewBox="0 0 125 125">
  <g id="Grupo_1044030" data-name="Grupo 1044030" transform="translate(-1806 9621)">
    <path id="Trazado_626457" data-name="Trazado 626457" d="M62.5,0A62.5,62.5,0,1,1,0,62.5,62.5,62.5,0,0,1,62.5,0Z" transform="translate(1806 -9621)" fill="#ef8b53"/>
    <g id="Grupo_930281" data-name="Grupo 930281" transform="translate(-1090.163 -10372.662)">
      <path id="Trazado_611576" data-name="Trazado 611576" d="M2933.693,825.795c0-3.363-.007-6.618.009-9.873,0-.4-.132-.49-.505-.484-1.347.02-2.695-.022-4.04.023-.553.018-.657-.17-.647-.675.031-1.561-.03-3.125.027-4.685a3.938,3.938,0,0,0-.739-2.412,21.072,21.072,0,0,0-2.8-3.12,27.925,27.925,0,0,1-4.659-5.55c-5.51-9.4-.034-21.982,10.647-24.463a16.806,16.806,0,0,1,20.6,13.734c.221,1.3.221,1.3,1.507,1.3,3.637,0,7.273-.012,10.909.012.578,0,.828-.1.89-.753a16.68,16.68,0,1,1,.047,4.654c-.23-1.326-.23-1.326-1.563-1.326-3.663,0-7.327.008-10.99-.01-.452,0-.675.073-.718.582a16.066,16.066,0,0,1-4.694,9.763c-1,1.06-2.036,2.077-3.056,3.114a13.541,13.541,0,0,0-1.851,2.235,4.049,4.049,0,0,0-.6,1.313c-.2.968-.076,1.1.9,1.1,4.66,0,9.32-.007,13.98.009.509,0,.775-.069.951-.647a6.427,6.427,0,0,1,12.287.011.746.746,0,0,0,.874.642c2.181-.037,4.364,0,6.545-.027.511-.006.676.106.673.65-.013,1.948.01,1.948-1.949,1.948-1.778,0-3.556.014-5.333-.01-.434-.006-.639.088-.784.543a6.433,6.433,0,0,1-12.365-.034.618.618,0,0,0-.723-.508q-7.233.024-14.465,0c-.507,0-.688.132-.606.625a2.645,2.645,0,0,1,0,.4c0,.538-.179,1.2.066,1.581s.9-.081,1.391-.022a3.744,3.744,0,0,1,1.952.679c.378.3.6.22.959-.017a3.759,3.759,0,0,1,5.536,1.528c.238.5.42.64,1,.5a3.82,3.82,0,0,1,4.607,3.721c.035,2.8.024,5.6,0,8.4-.005.537.087.734.683.723,2.181-.04,4.363-.031,6.545,0,.483.006.634-.132.691-.613a16.8,16.8,0,1,1,0,3.85c-.051-.483-.163-.686-.714-.677-2.235.037-4.471.024-6.707.007-.427,0-.644.042-.722.562a15.606,15.606,0,0,1-2.166,5.938,1.641,1.641,0,0,0-.189.927q0,4.565,0,9.13a3.887,3.887,0,0,1-4.149,4.137q-7.515.007-15.031,0a3.879,3.879,0,0,1-4.095-4.107c-.007-2.936,0-5.872,0-8.807a1,1,0,0,0-.316-.927,11.8,11.8,0,0,1-4.274-7.791,42.025,42.025,0,0,0-2.885-9.789,3.406,3.406,0,0,1,3.459-4.771,6.377,6.377,0,0,1,5.786,4.52c.234.8.333,1.631.491,2.448A1.077,1.077,0,0,0,2933.693,825.795Zm-12.93-34.417c-.047,3.316,1.484,6.53,4.075,9.32,1.61,1.734,3.655,3.147,4.788,5.217a3.223,3.223,0,0,0,3.743,1.772.294.294,0,0,1,.081,0c.335.053.508-.09.677-.4a3.756,3.756,0,0,1,5.669-1.458c.247.15.373.211.572-.054a68.272,68.272,0,0,1,4.8-5.117A13.87,13.87,0,0,0,2949.078,789a14.224,14.224,0,0,0-28.315,2.377Zm21.74,47.34c3.07,0,6.14-.013,9.21.014a.944.944,0,0,0,.99-.591,12.978,12.978,0,0,0,1.512-4.65c.371-3.867.1-7.748.151-11.623a1.239,1.239,0,0,0-1.315-1.246,1.27,1.27,0,0,0-1.24,1.244c-.036.671-.012,1.346-.012,2.019,0,1.942,0,1.921-1.984,1.918-.512,0-.623-.147-.615-.633.028-1.885.019-3.77.008-5.655a1.313,1.313,0,0,0-1.256-1.48c-.786-.021-1.315.561-1.322,1.494-.011,1.427,0,2.854,0,4.281,0,2.02,0,2-1.991,1.993-.524,0-.614-.167-.607-.64.026-1.858.015-3.716.008-5.574,0-.961-.483-1.537-1.264-1.554-.809-.017-1.313.579-1.317,1.582-.007,1.508,0,3.016,0,4.524,0,1.648,0,1.594-1.673,1.67-.822.038-.937-.239-.932-.978.034-5.116.018-10.233.017-15.349,0-1.175-.429-1.778-1.27-1.793-.866-.016-1.313.606-1.315,1.829q0,.485,0,.969,0,7.432,0,14.864a2.746,2.746,0,0,1-2.417,3.009,2.71,2.71,0,0,1-2.956-2.46c-.116-.607-.205-1.219-.309-1.829a3.871,3.871,0,0,0-3.047-3.36c-.5-.113-1.025-.263-1.426.213-.386.459-.12.918.067,1.36a44.381,44.381,0,0,1,3.009,10.592,8.751,8.751,0,0,0,3.161,5.468,1.558,1.558,0,0,0,1.093.378C2936.469,838.711,2939.486,838.717,2942.5,838.717Zm30.151-36.836a9.234,9.234,0,0,1,3.4-5.236c.269-.239.281-.355.035-.616a3.859,3.859,0,0,1-1.018-2.886c.022-.727-.016-1.455.012-2.181a.838.838,0,0,0-.445-.842,4.385,4.385,0,0,1,.3-7.717,2.545,2.545,0,0,0,.822-.74,5.806,5.806,0,0,1,4.7-2.417c1.077-.028,2.155-.025,3.232,0a6.538,6.538,0,0,1,6.346,4.164,6.453,6.453,0,0,1-1.43,7.375,1.887,1.887,0,0,0-.615,1.549,4.483,4.483,0,0,1-1.107,3.817c-.276.268,0,.366.15.482a9.93,9.93,0,0,1,1.5,1.459,9.7,9.7,0,0,1,1.866,3.8,14.048,14.048,0,0,0,4.751-15.1,14.22,14.22,0,0,0-27.218-.081A14.05,14.05,0,0,0,2972.654,801.882Zm-29.907,39.423c-2.8,0-5.6.014-8.4-.013-.531,0-.67.142-.665.667.027,2.692.009,5.384.014,8.075,0,1.155.458,1.609,1.617,1.61q7.431.006,14.861,0c1.16,0,1.617-.455,1.62-1.608.006-2.692-.012-5.384.014-8.075.005-.522-.128-.675-.662-.67C2948.347,841.32,2945.546,841.305,2942.747,841.305Zm29.882,1.948a1.806,1.806,0,0,0-.138-2.115,15.608,15.608,0,0,1-2.448-10.54,11.61,11.61,0,0,1,22.637-1.648c1.227,4.4.176,8.467-2.136,12.258a1.744,1.744,0,0,0-.082,2.038c4.422-3.146,6.413-9.751,4.633-15.322a14.231,14.231,0,0,0-27.133.079A14.073,14.073,0,0,0,2972.628,843.253Zm13.13-6.1a9.5,9.5,0,0,1,2.477,1.977c.322.384.465.165.624-.143a12.681,12.681,0,0,0,1.544-8.4,9.017,9.017,0,0,0-15.4-4.547c-2.351,2.415-2.887,5.374-2.3,8.6a13.789,13.789,0,0,0,1.507,4.32c.108.193.18.62.545.229a10.527,10.527,0,0,1,2.242-1.833c.26-.158.229-.319.035-.508a7.292,7.292,0,0,1-1.973-6,1.007,1.007,0,0,1,.5-.913c1.378-.891,2.753-1.79,4.1-2.732a.9.9,0,0,1,1.153-.007c2.067,1.261,4.116,2.557,6.244,3.708a1.632,1.632,0,0,1,.935,1.943c-.016.106-.033.212-.049.318A6.9,6.9,0,0,1,2985.759,837.157Zm-3.318-55.327c-.739,0-1.332-.014-1.923,0a2.949,2.949,0,0,0-2.521,1.218,5.145,5.145,0,0,1-2.015,1.748,1.77,1.77,0,0,0-.429,2.776.81.81,0,0,0,1.251.177c.738-.539,1.514-1.026,2.275-1.534,1.513-1.01,1.527-1.02,2.53.494a6.015,6.015,0,0,0,4.168,2.772.679.679,0,0,0,.656-.16,4.2,4.2,0,0,0,1.492-4.046,4.088,4.088,0,0,0-2.983-3.287A9.565,9.565,0,0,0,2982.441,781.83Zm-.944,64.65a14.759,14.759,0,0,0,5.944-1.292.708.708,0,0,0,.478-.924,6.862,6.862,0,0,0-1.7-3.5c-.356-.4-.589-.47-1-.03-1.049,1.118-2.173,2.166-3.234,3.274-.343.357-.531.373-.883.005-1.078-1.129-2.218-2.2-3.292-3.331-.363-.383-.571-.327-.887.018a6.84,6.84,0,0,0-1.746,3.479c-.1.542-.005.813.53,1.043A14.917,14.917,0,0,0,2981.5,846.479Zm-14.183-34.9a3.878,3.878,0,1,0-3.85,3.867A3.9,3.9,0,0,0,2967.313,811.576Zm14.218-16.819c.78,0,1.561.008,2.341,0a1.791,1.791,0,0,0,1.53-2.569c-.074-.149-.2-.154-.326-.181a8.4,8.4,0,0,1-4.9-2.9c-.214-.255-.362-.26-.655-.086-1.86,1.109-1.866,1.1-1.866,3.227,0,.377-.012.754,0,1.13a1.289,1.289,0,0,0,1.365,1.368C2979.862,794.774,2980.7,794.756,2981.531,794.758Zm-.011,41.373a3.918,3.918,0,0,0,3.6-2.4c.22-.516.223-.844-.354-1.16-1.316-.721-2.583-1.531-3.875-2.3-.28-.166-.552-.5-.922-.159-.734.686-2.125.8-2.268,1.932A3.789,3.789,0,0,0,2981.521,836.131Zm-1.275-34.9c0-1.049-.03-2.1.012-3.146.023-.575-.153-.6-.639-.446a6.551,6.551,0,0,0-4.487,5.4.566.566,0,0,0,.356.7,15.3,15.3,0,0,0,4.155,1.229c.542.079.627-.116.613-.592C2980.225,803.326,2980.246,802.276,2980.246,801.227Zm2.587-.023c0,1.1.015,2.206-.008,3.309-.008.4.1.508.5.459a14.132,14.132,0,0,0,4.309-1.265.5.5,0,0,0,.32-.563,6.6,6.6,0,0,0-4.631-5.552c-.42-.109-.51-.02-.5.384C2982.845,799.052,2982.833,800.128,2982.833,801.2Zm-50.471,11.654c1.331,0,1.331,0,1.331-1.333,0-1.251,0-1.251-1.253-1.251-1.331,0-1.331,0-1.331,1.333C2931.108,812.858,2931.108,812.858,2932.362,812.858Zm47.3,26.213c.629.559,1.144,1.01,1.651,1.469.136.123.258.191.409.038l1.557-1.583A5.638,5.638,0,0,0,2979.664,839.071Z" transform="translate(0 0)" fill="#020202"/>
      <path id="Trazado_611577" data-name="Trazado 611577" d="M3111.189,885.836c1.291,0,1.291,0,1.291,1.3s0,1.29-1.3,1.29-1.29,0-1.29-1.3S3109.894,885.836,3111.189,885.836Z" transform="translate(-129.647 -75.563)"/>
      <path id="Trazado_611578" data-name="Trazado 611578" d="M3128.453,887.132c0,1.29,0,1.29-1.3,1.29s-1.291,0-1.291-1.3,0-1.29,1.3-1.29S3128.453,885.836,3128.453,887.132Z" transform="translate(-140.448 -75.563)"/>
      <path id="Trazado_611579" data-name="Trazado 611579" d="M2926.19,796.73a14.224,14.224,0,0,1,28.315-2.377,13.872,13.872,0,0,1-3.908,11.661,68.233,68.233,0,0,0-4.8,5.117c-.2.265-.325.2-.572.054a3.757,3.757,0,0,0-5.67,1.458c-.169.306-.341.45-.676.4a.3.3,0,0,0-.081,0,3.224,3.224,0,0,1-3.743-1.772c-1.133-2.07-3.177-3.483-4.788-5.217C2927.674,803.26,2926.143,800.046,2926.19,796.73Zm10.033,2.553c-.23,0-.311.16-.419.266-.368.356-.7.748-1.094,1.075-.374.314-.293.515.021.82,1.348,1.316,2.689,2.641,3.995,4,.435.453.639.5,1.029-.069,2.8-4.049,5.627-8.074,8.448-12.106,1.031-1.474,1.013-1.448-.4-2.5-.53-.394-.774-.369-1.163.2-2.376,3.457-4.816,6.87-7.185,10.332-.449.655-.684.588-1.14.067-.548-.626-1.169-1.19-1.761-1.779C2936.44,799.473,2936.318,799.37,2936.223,799.283Z" transform="translate(-5.427 -5.353)" fill="#fae8ae"/>
      <path id="Trazado_611580" data-name="Trazado 611580" d="M2958.715,908.891c-3.017,0-6.033-.006-9.049.008a1.556,1.556,0,0,1-1.092-.378,8.75,8.75,0,0,1-3.161-5.468,44.381,44.381,0,0,0-3.009-10.592c-.187-.442-.453-.9-.066-1.36.4-.476.929-.326,1.426-.213a3.871,3.871,0,0,1,3.047,3.36c.1.61.193,1.222.309,1.829a2.71,2.71,0,0,0,2.957,2.46,2.746,2.746,0,0,0,2.417-3.009q0-7.432,0-14.864v-.97c0-1.223.449-1.844,1.315-1.829.841.015,1.27.618,1.27,1.793,0,5.116.016,10.233-.018,15.349-.005.739.11,1.015.932.978,1.671-.076,1.673-.022,1.673-1.67,0-1.508,0-3.016,0-4.524,0-1,.509-1.6,1.317-1.582.781.017,1.26.593,1.264,1.554.007,1.858.018,3.716-.008,5.574-.006.473.083.64.607.641,1.991,0,1.991.027,1.991-1.993,0-1.427-.009-2.854,0-4.281.007-.933.537-1.515,1.323-1.494a1.313,1.313,0,0,1,1.256,1.48c.011,1.885.021,3.77-.008,5.655-.007.486.1.632.615.633,1.984,0,1.983.024,1.984-1.919,0-.673-.024-1.348.012-2.019a1.271,1.271,0,0,1,1.241-1.244,1.239,1.239,0,0,1,1.315,1.246c-.047,3.875.22,7.755-.151,11.623a12.993,12.993,0,0,1-1.512,4.65.944.944,0,0,1-.99.591C2964.855,908.878,2961.785,908.891,2958.715,908.891Z" transform="translate(-16.213 -70.174)" fill="#e9d0b6"/>
      <path id="Trazado_611581" data-name="Trazado 611581" d="M3075.3,807.244a14.048,14.048,0,0,1-4.713-15.17,14.22,14.22,0,0,1,27.218.081,14.048,14.048,0,0,1-4.751,15.1,9.692,9.692,0,0,0-1.866-3.8,9.933,9.933,0,0,0-1.5-1.459c-.148-.116-.426-.214-.15-.482a4.485,4.485,0,0,0,1.107-3.817,1.886,1.886,0,0,1,.615-1.549,6.453,6.453,0,0,0,1.429-7.375,6.537,6.537,0,0,0-6.346-4.164c-1.077-.022-2.156-.025-3.232,0a5.806,5.806,0,0,0-4.7,2.417,2.548,2.548,0,0,1-.822.74,4.385,4.385,0,0,0-.3,7.717.839.839,0,0,1,.444.842c-.028.726.01,1.455-.012,2.181a3.859,3.859,0,0,0,1.018,2.886c.246.261.235.377-.035.616A9.233,9.233,0,0,0,3075.3,807.244Z" transform="translate(-102.644 -5.362)" fill="#e3e6e9"/>
      <path id="Trazado_611582" data-name="Trazado 611582" d="M2975.154,981.644c2.8,0,5.6.015,8.4-.013.535-.005.668.148.662.67-.026,2.691-.008,5.384-.014,8.075,0,1.153-.459,1.607-1.62,1.608q-7.431.006-14.861,0c-1.16,0-1.615-.455-1.617-1.61-.006-2.692.013-5.384-.014-8.075-.005-.526.134-.672.664-.667C2969.554,981.658,2972.354,981.644,2975.154,981.644Z" transform="translate(-32.408 -140.339)" fill="#80b0ec"/>
      <path id="Trazado_611583" data-name="Trazado 611583" d="M3075.266,935.015a14.074,14.074,0,0,1-4.667-15.249,14.231,14.231,0,0,1,27.134-.079c1.78,5.571-.211,12.175-4.633,15.322a1.743,1.743,0,0,1,.082-2.038c2.312-3.791,3.362-7.863,2.135-12.258a11.61,11.61,0,0,0-22.636,1.648,15.609,15.609,0,0,0,2.448,10.54A1.8,1.8,0,0,1,3075.266,935.015Z" transform="translate(-102.638 -91.763)" fill="#e1e4e7"/>
      <path id="Trazado_611584" data-name="Trazado 611584" d="M3099.2,939.673a6.9,6.9,0,0,0,2.179-3.994c.015-.106.033-.212.049-.318a1.632,1.632,0,0,0-.935-1.943c-2.128-1.15-4.178-2.447-6.245-3.708a.9.9,0,0,0-1.153.007c-1.343.942-2.718,1.841-4.1,2.732a1.006,1.006,0,0,0-.5.913,7.294,7.294,0,0,0,1.973,6c.194.189.225.35-.035.508a10.515,10.515,0,0,0-2.242,1.833c-.365.392-.437-.036-.545-.229a13.777,13.777,0,0,1-1.507-4.32c-.584-3.228-.048-6.188,2.3-8.6a9.017,9.017,0,0,1,15.4,4.547,12.685,12.685,0,0,1-1.545,8.4c-.16.308-.3.527-.624.143A9.5,9.5,0,0,0,3099.2,939.673Z" transform="translate(-113.44 -102.516)" fill="#646b75"/>
      <path id="Trazado_611585" data-name="Trazado 611585" d="M3101.272,797.985a9.564,9.564,0,0,1,2.5.163,4.089,4.089,0,0,1,2.983,3.287,4.2,4.2,0,0,1-1.492,4.046.679.679,0,0,1-.656.16,6.012,6.012,0,0,1-4.168-2.771c-1-1.514-1.018-1.5-2.53-.495-.761.508-1.538.995-2.275,1.534a.81.81,0,0,1-1.25-.177,1.77,1.77,0,0,1,.428-2.776,5.141,5.141,0,0,0,2.015-1.748,2.95,2.95,0,0,1,2.521-1.219C3099.94,797.972,3100.533,797.985,3101.272,797.985Z" transform="translate(-118.831 -16.155)" fill="#656c75"/>
      <path id="Trazado_611586" data-name="Trazado 611586" d="M3100.482,984.984a14.919,14.919,0,0,1-5.789-1.261c-.535-.23-.628-.5-.53-1.043a6.837,6.837,0,0,1,1.746-3.479c.315-.345.523-.4.887-.018,1.074,1.132,2.214,2.2,3.292,3.331.351.367.541.352.883-.005,1.061-1.108,2.185-2.156,3.234-3.274.413-.44.646-.371,1,.03a6.858,6.858,0,0,1,1.7,3.5.709.709,0,0,1-.478.924A14.762,14.762,0,0,1,3100.482,984.984Z" transform="translate(-118.986 -138.504)" fill="#b9d888"/>
      <path id="Trazado_611587" data-name="Trazado 611587" d="M3053.756,881.741a3.878,3.878,0,1,1-3.826-3.888A3.9,3.9,0,0,1,3053.756,881.741Zm-3.9,1.28a1.292,1.292,0,1,0-1.264-1.3A1.3,1.3,0,0,0,3049.852,883.022Z" transform="translate(-86.442 -70.165)" fill="#ec8672"/>
      <path id="Trazado_611588" data-name="Trazado 611588" d="M3105.768,825.7c-.834,0-1.669.018-2.5-.006a1.289,1.289,0,0,1-1.365-1.369c-.016-.376,0-.753,0-1.13,0-2.128.006-2.118,1.866-3.227.293-.174.44-.17.655.086a8.394,8.394,0,0,0,4.9,2.9c.13.027.251.032.326.181a1.791,1.791,0,0,1-1.53,2.569C3107.329,825.706,3106.548,825.7,3105.768,825.7Z" transform="translate(-124.236 -30.941)" fill="#e8ceb4"/>
      <path id="Trazado_611589" data-name="Trazado 611589" d="M3105.8,952.821a3.789,3.789,0,0,1-3.817-4.081c.143-1.129,1.534-1.246,2.268-1.932.369-.345.642-.007.922.159,1.292.765,2.559,1.575,3.875,2.3.577.316.574.644.354,1.16A3.919,3.919,0,0,1,3105.8,952.821Z" transform="translate(-124.281 -116.691)" fill="#e8ceb4"/>
      <path id="Trazado_611590" data-name="Trazado 611590" d="M3099.19,850.233c0,1.049-.021,2.1.009,3.147.014.475-.07.67-.612.592a15.3,15.3,0,0,1-4.155-1.23.566.566,0,0,1-.356-.7,6.55,6.55,0,0,1,4.487-5.4c.487-.15.662-.129.639.446C3099.16,848.134,3099.19,849.184,3099.19,850.233Z" transform="translate(-118.944 -49.006)" fill="#ec8672"/>
      <path id="Trazado_611591" data-name="Trazado 611591" d="M3117.864,850.2c0-1.076.012-2.152-.007-3.228-.007-.4.082-.493.5-.384a6.6,6.6,0,0,1,4.631,5.552.5.5,0,0,1-.32.563,14.131,14.131,0,0,1-4.309,1.265c-.4.049-.513-.064-.505-.459C3117.879,852.4,3117.864,851.3,3117.864,850.2Z" transform="translate(-135.031 -48.993)" fill="#ec8672"/>
      <path id="Trazado_611592" data-name="Trazado 611592" d="M2959.395,888.423c-1.253,0-1.253,0-1.253-1.25,0-1.333,0-1.333,1.331-1.333,1.254,0,1.254,0,1.254,1.251C2960.726,888.423,2960.726,888.423,2959.395,888.423Z" transform="translate(-27.033 -75.565)" fill="#aab1bb"/>
      <path id="Trazado_611593" data-name="Trazado 611593" d="M3108.093,974.068a5.638,5.638,0,0,1,3.617-.077l-1.557,1.583c-.151.153-.273.085-.409-.038C3109.237,975.078,3108.723,974.627,3108.093,974.068Z" transform="translate(-128.429 -134.997)" fill="#e8ceb4"/>
      <path id="Trazado_611594" data-name="Trazado 611594" d="M2953.5,817.029c.1.087.217.19.329.3.591.589,1.212,1.152,1.761,1.779.456.52.691.588,1.14-.067,2.368-3.462,4.809-6.875,7.185-10.332.389-.565.632-.591,1.163-.2,1.416,1.052,1.434,1.026.4,2.5-2.821,4.032-5.653,8.057-8.448,12.106-.391.565-.595.521-1.029.069-1.305-1.359-2.646-2.683-3.995-4-.313-.306-.395-.506-.021-.82.391-.328.727-.719,1.094-1.075C2953.188,817.189,2953.267,817.028,2953.5,817.029Z" transform="translate(-22.702 -23.099)" fill="#050504"/>
      <path id="Trazado_611595" data-name="Trazado 611595" d="M3055.255,888.421a1.292,1.292,0,1,1,1.316-1.246A1.3,1.3,0,0,1,3055.255,888.421Z" transform="translate(-91.845 -75.564)" fill="#0b0605"/>
    </g>
  </g>
</svg>
