<svg id="Grupo_943493" data-name="Grupo 943493" xmlns="http://www.w3.org/2000/svg" width="65.07" height="65.049" viewBox="0 0 65.07 65.049">
  <path id="Trazado_621876" data-name="Trazado 621876" d="M1993.786,216.931c-.693.5-.946.5-1.627-.024-.234-.181-.479-.351-.7-.551-2.924-2.693-6.585-4.159-10.016-6.005-2.4-1.291-4.83-2.516-7.238-3.788a4.75,4.75,0,0,1,1.529-9,4.58,4.58,0,0,1,2.818.54c.206.106.423.2.619.319a2.115,2.115,0,0,0,1.986.259,4.376,4.376,0,0,1,4.237.832c1.568,1.223,3.137,2.446,4.689,3.689a.64.64,0,0,0,.874.063,6.472,6.472,0,0,1,3.8-.723c.5.025.639-.116.638-.625q-.022-17.56-.015-35.12c0-.237.14-.553-.348-.551-4.424.013-8.848.008-13.332.008.619,1.99,1.223,3.94,1.833,5.888q2.146,6.857,4.3,13.713c.092.292.124.571.584.593a1.246,1.246,0,0,1,1.226,1.511,5.531,5.531,0,0,1-2.157,3.681,10.966,10.966,0,0,1-6.3,2.383,12.338,12.338,0,0,1-8.387-2.033,5.937,5.937,0,0,1-2.6-3.837,1.311,1.311,0,0,1,1.274-1.709c.48-.033.468-.366.556-.634q2.633-8,5.247-16c.38-1.16.76-2.321,1.165-3.557-.444,0-.836.009-1.227,0a3.109,3.109,0,0,1,0-6.217c1.608-.025,3.218-.009,4.827-.006.793,0,1.022.19,1.229.981a1.1,1.1,0,0,1-1.286.933q-2.316-.037-4.632,0a1.193,1.193,0,0,0-1.094,1.815,1.361,1.361,0,0,0,1.31.6q5.806-.013,11.612,0c1.777,0,3.553-.012,5.33.009.391,0,.505-.075.444-.486a4.5,4.5,0,0,1-.011-1.325c.075-.492-.035-.629-.551-.624-2.516.028-5.033,0-7.55.018a1.053,1.053,0,0,1-1.214-.931c.175-.772.426-.98,1.222-.98,2.816,0,5.633-.008,8.449.006a1.131,1.131,0,0,0,.967-.423,5.221,5.221,0,0,1,7.8.017,1.065,1.065,0,0,0,.91.405q8.989-.015,17.977,0a3.111,3.111,0,1,1,.1,6.222c-.628.011-1.257,0-1.939,0l2.741,8.751q1.684,5.378,3.36,10.758c.129.415.243.678.774.7a1.269,1.269,0,0,1,1.066,1.584,5.808,5.808,0,0,1-2.577,3.917,12.293,12.293,0,0,1-8.443,2.053,11.2,11.2,0,0,1-5.848-2.046,5.966,5.966,0,0,1-2.548-3.73c-.2-1.052.225-1.707,1.279-1.8.445-.041.433-.352.515-.6q1.805-5.471,3.589-10.949,1.339-4.091,2.676-8.183c.044-.135.161-.261.061-.454h-.351q-5.971,0-11.942-.006c-.366,0-.551.027-.55.49q.025,11.782.005,23.564c0,.326.056.474.423.526a4.6,4.6,0,0,1,3.123,1.975c1.421,1.922,2.9,3.8,4.307,5.733a2.558,2.558,0,0,0,2.294,1.162,13.837,13.837,0,0,1,6.777,1.6,4.026,4.026,0,0,1,1.065.676,3.171,3.171,0,0,0,2.645.846c2.794-.042,5.589-.016,8.385-.014.992,0,1.286.293,1.286,1.279,0,2.117-.013,4.235.008,6.352a1.094,1.094,0,0,1-.892,1.256c-.82-.174-1.02-.411-1.022-1.239,0-1.727-.022-3.454.012-5.18.01-.492-.143-.608-.6-.579-.734.047-1.471.035-2.207.048q-2.369-.02-4.74-.041c-.213,0-.378.015-.335.3a1.028,1.028,0,0,1-.527,1,1.148,1.148,0,0,1-1.369-.629,6.283,6.283,0,0,0-2.512-2.349,12.379,12.379,0,0,0-6.279-1.409h-.25l-.378-.017-.824-.17a5.346,5.346,0,0,1-2.119-1.83c-1.428-1.933-2.894-3.838-4.339-5.758a2.756,2.756,0,0,0-1.513-1.075c-.321-.086-.42-.008-.412.311.021.842.026,1.684.038,2.527-.012.231-.035.462-.034.693a10.506,10.506,0,0,0,.093,3.2,11.93,11.93,0,0,0,1.882,2.669,1.194,1.194,0,0,0,.818.5,5.438,5.438,0,0,1,3.292,1.976.65.65,0,0,0,.846.238,15.6,15.6,0,0,1,7.5-.569,11.335,11.335,0,0,1,5.787,3,10.209,10.209,0,0,1,2.615,6.822c.008.876-.166,1.093-1.051,1.283a1.206,1.206,0,0,1-.868-1.307,10.03,10.03,0,0,0-.156-1.574,7.59,7.59,0,0,0-5.584-6.013l-.02-.027-.033.008-.2-.076c-.161-.049-.32-.111-.484-.147a13.7,13.7,0,0,0-7.373.545,51.55,51.55,0,0,0-11.412,5.722c-.8.512-1.013.5-1.752-.075q-4.521-3.544-9.04-7.091c-1.865-1.463-3.721-2.938-5.6-4.383a2.846,2.846,0,0,0-4.491,3.061,3.109,3.109,0,0,0,1.148,1.553q6.224,4.871,12.438,9.755C1993.986,215.918,1994.053,216.137,1993.786,216.931Zm5.6-57.016a3.307,3.307,0,0,0,0,6.451,3.179,3.179,0,0,0,3.343-1.074,3.385,3.385,0,0,0,.226-4A3.216,3.216,0,0,0,1999.389,159.915Zm24.78,28.446c-.232-.01-.463-.029-.7-.029q-5.521,0-11.042,0c-.127,0-.254.008-.38,0-.341-.024-.416.094-.254.4a4.131,4.131,0,0,0,1.114,1.367,10.153,10.153,0,0,0,7.825,1.953,8.8,8.8,0,0,0,5.091-2.021,4.46,4.46,0,0,0,1.024-1.279c.192-.347.085-.436-.274-.426C2025.775,188.35,2024.972,188.351,2024.169,188.361Zm-42.823,3.689c2.659-.069,5.665-1.843,6.2-3.689h-2.768q-3.643-.015-7.284-.029c-1.584,0-3.168.008-4.752-.007-.426,0-.54.093-.308.492a4.26,4.26,0,0,0,1,1.217A10.082,10.082,0,0,0,1981.346,192.05Zm24.521,12.435a1.786,1.786,0,0,0-.25-.035q-5.9,0-11.8,0a3.121,3.121,0,0,0-1.592.337c.021.042.031.09.061.114q3.612,2.842,7.223,5.686c.239.189.4.123.616-.014a64.777,64.777,0,0,1,7.141-3.95l2.158-.918A4.012,4.012,0,0,0,2005.867,204.485Zm-5.716-1.993c.7.016,1.4-.01,2.088.06.653.066.8-.159.8-.8q-.031-16.705-.015-33.41c0-.106-.007-.212,0-.318.022-.317-.05-.436-.382-.247a5.533,5.533,0,0,1-2.491.656,6.17,6.17,0,0,1-2.845-.829V201.72c0,.148.01.3,0,.445-.02.276.107.373.374.367C1998.5,202.511,1999.327,202.5,2000.151,202.492Zm19.393-34.865c-.237.066-.205.249-.247.376q-2.95,8.958-5.9,17.916c-.143.435-.035.517.4.513,2.054-.02,4.107-.009,6.16-.009h5.474Zm-45.705,18.8c3.887,0,7.7-.01,11.507.01.559,0,.659-.1.481-.657-1.858-5.874-3.685-11.757-5.533-17.634-.054-.173-.008-.442-.292-.512Zm31.49-22.076h17.219a5.672,5.672,0,0,0,.571-.008,1.2,1.2,0,0,0-.031-2.4c-.189-.016-.381-.006-.571-.006h-10.351c-2.117,0-4.233.007-6.35-.007-.362,0-.548.033-.454.471A6.54,6.54,0,0,1,2005.329,164.347Zm-25.917,42.785c.066-.323-.216-.4-.362-.548a4.766,4.766,0,0,1-.846-5.567c.392-.744.392-.744-.342-1.123-.038-.02-.072-.044-.11-.063a2.878,2.878,0,0,0-3.987,1.131,2.846,2.846,0,0,0,1.336,3.918C1976.529,205.636,1977.966,206.377,1979.412,207.132Z" transform="translate(-1970.165 -157.872)" fill="#040303"/>
  <path id="Trazado_621877" data-name="Trazado 621877" d="M2005.5,269.841c.267-.794.2-1.013-.5-1.565q-6.217-4.88-12.438-9.755a3.111,3.111,0,0,1-1.148-1.553,2.847,2.847,0,0,1,4.491-3.061c1.878,1.445,3.734,2.92,5.6,4.383q4.52,3.546,9.041,7.091c.739.579.947.587,1.752.075a51.543,51.543,0,0,1,11.412-5.722,13.7,13.7,0,0,1,7.373-.545c.164.036.323.1.484.147l.2.076.032-.008.02.027a1.255,1.255,0,0,0,.4.7,7.642,7.642,0,0,1,1.649,3.1,8.025,8.025,0,0,1,.138,4.547,3.573,3.573,0,0,1-3.276,2.723c-1.272.134-2.531.387-3.8.578q-2.71.408-5.422.8-2.836.414-5.673.818c-1.456.2-2.9.515-4.369.594l-2.747-2.111c-.671-.515-1.044-.5-1.645.067C2006.693,270.618,2005.958,270.38,2005.5,269.841Z" transform="translate(-1981.874 -210.782)" fill="#f4c4a0"/>
  <path id="Trazado_621878" data-name="Trazado 621878" d="M2026.562,287.969c.6-.567.974-.582,1.645-.067l2.747,2.111a2.512,2.512,0,0,0,2.12.594c3.531-.508,7.054-1.078,10.589-1.552,4.412-.592,8.781-1.522,13.242-1.74l1.518-.037c1.918-.061,3.837-.128,5.756-.178.283-.008.356-.109.35-.375-.015-.675-.007-1.351,0-2.026,0-.84.175-1.057,1-1.278a1.125,1.125,0,0,1,.918,1.3c-.035,1.036,0,2.073-.011,3.11a1,1,0,0,1-1.116,1.145c-2.77.091-5.54.212-8.31.254a64.745,64.745,0,0,0-7.988.96c-4.771.668-9.533,1.4-14.3,2.1a7.714,7.714,0,0,1-3.019.146,4.227,4.227,0,0,1-1.567-.649c-1.116-.837-2.215-1.7-3.311-2.559A.973.973,0,0,1,2026.562,287.969Z" transform="translate(-2001.372 -227.492)" fill="#040303"/>
  <path id="Trazado_621879" data-name="Trazado 621879" d="M1992.988,164.914a1.053,1.053,0,0,0,1.214.931c2.517-.014,5.034.01,7.55-.018.516-.006.627.132.552.624a4.492,4.492,0,0,0,.011,1.325c.062.41-.053.49-.444.486-1.776-.02-3.553-.009-5.33-.009q-5.806,0-11.612,0a1.361,1.361,0,0,1-1.31-.6,1.193,1.193,0,0,1,1.094-1.815q2.315-.031,4.632,0a1.1,1.1,0,0,0,1.286-.933Z" transform="translate(-1977.524 -161.777)" fill="#f7d466"/>
  <path id="Trazado_621880" data-name="Trazado 621880" d="M2105.332,272.076c-.823.221-.994.438-1,1.278,0,.675-.01,1.351,0,2.026.006.265-.066.367-.351.375-1.919.049-3.837.116-5.756.178.06-.236.291-.292.452-.416a8.337,8.337,0,0,0,1.6-1.606,7.165,7.165,0,0,0,1.24-4.3c.043-2.2.012-4.4.012-6.6.736-.013,1.473,0,2.207-.048.458-.029.611.086.6.579-.034,1.726-.016,3.453-.012,5.18,0,.829.2,1.066,1.022,1.239Q2105.344,271.02,2105.332,272.076Z" transform="translate(-2041.181 -216.147)" fill="#efac92"/>
  <path id="Trazado_621881" data-name="Trazado 621881" d="M2037.478,180.653a5.534,5.534,0,0,0,2.491-.656c.332-.189.4-.07.381.247-.007.106,0,.212,0,.318q0,16.705.015,33.411c0,.64-.146.865-.8.8-.691-.07-1.392-.044-2.088-.06Q2037.477,197.682,2037.478,180.653Z" transform="translate(-2007.492 -170.091)" fill="#edaf3d"/>
  <path id="Trazado_621882" data-name="Trazado 621882" d="M2033.933,180.552q0,17.029,0,34.057c-.824.012-1.648.019-2.472.039-.267.006-.394-.09-.374-.367.011-.147,0-.3,0-.445V179.723A6.169,6.169,0,0,0,2033.933,180.552Z" transform="translate(-2003.947 -169.989)" fill="#f5c34e"/>
  <path id="Trazado_621883" data-name="Trazado 621883" d="M2034.729,264.6a64.8,64.8,0,0,0-7.141,3.95c-.211.137-.377.2-.616.014q-3.6-2.853-7.223-5.686c-.03-.024-.04-.072-.061-.114a3.12,3.12,0,0,1,1.592-.337q5.9-.009,11.8,0a1.782,1.782,0,0,1,.25.035A7.39,7.39,0,0,1,2034.729,264.6Z" transform="translate(-1997.627 -215.851)" fill="#f7d366"/>
  <path id="Trazado_621884" data-name="Trazado 621884" d="M2062.521,278.253c-4.461.218-8.829,1.148-13.242,1.74-3.535.474-7.057,1.043-10.589,1.552a2.512,2.512,0,0,1-2.12-.594c1.472-.079,2.913-.389,4.369-.594q2.838-.4,5.673-.817,2.712-.4,5.422-.8c1.266-.191,2.525-.445,3.8-.578a3.573,3.573,0,0,0,3.277-2.723,8.027,8.027,0,0,0-.137-4.547,7.643,7.643,0,0,0-1.649-3.1,1.255,1.255,0,0,1-.4-.7,7.589,7.589,0,0,1,5.584,6.013,10.031,10.031,0,0,1,.156,1.574,1.206,1.206,0,0,0,.868,1.307A4.714,4.714,0,0,1,2062.521,278.253Z" transform="translate(-2006.989 -218.431)" fill="#eeab91"/>
  <path id="Trazado_621885" data-name="Trazado 621885" d="M2093.858,275.983a4.714,4.714,0,0,0,1.013-2.279c.885-.191,1.059-.407,1.051-1.283a10.207,10.207,0,0,0-2.615-6.822c.329-.506-.154-.873-.224-1.31a1.028,1.028,0,0,0,.527-1c-.043-.287.122-.3.335-.3q2.37.024,4.74.041c0,2.2.031,4.4-.013,6.6a7.165,7.165,0,0,1-1.239,4.3,8.341,8.341,0,0,1-1.6,1.606c-.161.124-.392.18-.452.416Z" transform="translate(-2038.326 -216.16)" fill="#f4c4a0"/>
  <path id="Trazado_621886" data-name="Trazado 621886" d="M2049.1,169.4a6.54,6.54,0,0,0,.032-1.949c-.094-.437.092-.474.454-.471,2.117.014,4.233.007,6.35.007h10.352c.19,0,.382-.01.571.006a1.2,1.2,0,0,1,.031,2.4,5.666,5.666,0,0,1-.571.008H2049.1Z" transform="translate(-2013.937 -162.921)" fill="#f7d466"/>
  <path id="Trazado_621887" data-name="Trazado 621887" d="M2062.533,251.273a15.6,15.6,0,0,0-7.5.569.65.65,0,0,1-.846-.238,5.44,5.44,0,0,0-3.293-1.976,1.194,1.194,0,0,1-.818-.5,11.928,11.928,0,0,1-1.881-2.669,10.507,10.507,0,0,1-.093-3.2c0-.231.021-.462.034-.693a.911.911,0,0,1,.2.149q1.635,2.165,3.264,4.337a2.676,2.676,0,0,0,1.854,1.215c1,.1,2.018.089,3.027.126l.824.17a.233.233,0,0,0,.378.017h.25c.029.147.129.19.267.222a10.81,10.81,0,0,1,2.86,1.182A2.917,2.917,0,0,1,2062.533,251.273Z" transform="translate(-2013.34 -204.833)" fill="#f3c39f"/>
  <path id="Trazado_621888" data-name="Trazado 621888" d="M1984.022,229.959a10.082,10.082,0,0,1-7.914-2.017,4.268,4.268,0,0,1-1-1.217c-.232-.4-.118-.5.308-.492,1.584.015,3.168,0,4.753.007q3.641.01,7.284.029a4.2,4.2,0,0,1-1.091,1.935A10.833,10.833,0,0,1,1984.022,229.959Z" transform="translate(-1972.841 -195.78)" fill="#f7d366"/>
  <path id="Trazado_621889" data-name="Trazado 621889" d="M2072.46,229.964a10.153,10.153,0,0,1-7.825-1.953,4.13,4.13,0,0,1-1.113-1.367c-.162-.309-.087-.426.254-.4.126.008.253,0,.38,0q5.521,0,11.041,0c.232,0,.463.019.7.029a3.551,3.551,0,0,1-.963,1.793A9.067,9.067,0,0,1,2072.46,229.964Z" transform="translate(-2021.889 -195.783)" fill="#f7d366"/>
  <path id="Trazado_621890" data-name="Trazado 621890" d="M1983.474,258.9c-1.446-.755-2.883-1.5-4.31-2.252a2.846,2.846,0,0,1-1.336-3.918,2.878,2.878,0,0,1,3.987-1.132c.038.019.072.044.11.063.733.379.733.379.342,1.123a4.766,4.766,0,0,0,.846,5.567C1983.258,258.5,1983.54,258.576,1983.474,258.9Z" transform="translate(-1974.227 -209.638)" fill="#eeab91"/>
  <path id="Trazado_621891" data-name="Trazado 621891" d="M2056.578,244.811c-1.009-.037-2.023-.028-3.027-.126a2.674,2.674,0,0,1-1.854-1.215q-1.626-2.172-3.264-4.337a.919.919,0,0,0-.2-.149c-.012-.842-.018-1.685-.038-2.527-.008-.319.091-.4.412-.311a2.757,2.757,0,0,1,1.513,1.075c1.445,1.92,2.911,3.825,4.339,5.758A5.346,5.346,0,0,0,2056.578,244.811Z" transform="translate(-2013.435 -201.26)" fill="#eba990"/>
  <path id="Trazado_621892" data-name="Trazado 621892" d="M2032.554,168.909a3.307,3.307,0,0,1,0-6.451.624.624,0,0,0,.2.379,4.224,4.224,0,0,1,.73,4.527C2033.255,167.939,2032.8,168.359,2032.554,168.909Z" transform="translate(-2003.332 -160.415)" fill="#6195b4"/>
  <path id="Trazado_621893" data-name="Trazado 621893" d="M2035.764,168.743c.25-.551.7-.971.933-1.545a4.224,4.224,0,0,0-.73-4.527.625.625,0,0,1-.2-.379,3.216,3.216,0,0,1,3.568,1.373,3.385,3.385,0,0,1-.226,4A3.178,3.178,0,0,1,2035.764,168.743Z" transform="translate(-2006.542 -160.249)" fill="#507d9a"/>
  <path id="Trazado_621894" data-name="Trazado 621894" d="M2074.872,258.754a2.916,2.916,0,0,0-1.47-1.3,10.813,10.813,0,0,0-2.861-1.182c-.138-.032-.238-.074-.267-.222a12.378,12.378,0,0,1,6.279,1.409,6.285,6.285,0,0,1,2.513,2.349,1.148,1.148,0,0,0,1.369.629c.07.438.553.8.224,1.31A11.336,11.336,0,0,0,2074.872,258.754Z" transform="translate(-2025.679 -212.314)" fill="#eba990"/>
  <path id="Trazado_621895" data-name="Trazado 621895" d="M2083.689,229.963a9.059,9.059,0,0,0,2.469-1.9,3.549,3.549,0,0,0,.963-1.793c.8-.01,1.606-.011,2.408-.034.36-.01.467.079.274.426a4.451,4.451,0,0,1-1.024,1.279A8.794,8.794,0,0,1,2083.689,229.963Z" transform="translate(-2033.117 -195.782)" fill="#f1c04d"/>
  <path id="Trazado_621896" data-name="Trazado 621896" d="M1995.263,230a10.845,10.845,0,0,0,2.341-1.754,4.2,4.2,0,0,0,1.091-1.935h2.768C2000.928,228.161,1997.922,229.934,1995.263,230Z" transform="translate(-1984.083 -195.825)" fill="#f1c04d"/>
  <path id="Trazado_621897" data-name="Trazado 621897" d="M2051.709,264.6a7.405,7.405,0,0,0-1.4-2.139,4.012,4.012,0,0,1,3.558,1.221Z" transform="translate(-2014.607 -215.851)" fill="#f1c04d"/>
  <path id="Trazado_621898" data-name="Trazado 621898" d="M2069.242,256.035a.233.233,0,0,1-.378-.017Z" transform="translate(-2024.896 -212.297)" fill="#eba990"/>
  <path id="Trazado_621899" data-name="Trazado 621899" d="M2081.9,266.943l-.2-.076Z" transform="translate(-2032.013 -218.313)" fill="#eeab91"/>
</svg>
