<svg xmlns="http://www.w3.org/2000/svg" width="96.06" height="96.06" viewBox="0 0 96.06 96.06">
  <g id="Grupo_940232" data-name="Grupo 940232" transform="translate(-0.275)">
    <ellipse id="Elipse_7678" data-name="Elipse 7678" cx="38.03" cy="37.53" rx="38.03" ry="37.53" transform="translate(10.275 11)" fill="#583cb6"/>
    <rect id="Rectángulo_305813" data-name="Rectángulo 305813" width="96.06" height="96.06" transform="translate(0.275)" fill="none"/>
    <g id="Grupo_940235" data-name="Grupo 940235" transform="translate(18.047 10.62)">
      <path id="Trazado_619213" data-name="Trazado 619213" d="M390.7,980.643c0,1.619-.014,3.238.009,4.857.006.417-.09.577-.534.551-.655-.038-1.315-.028-1.972,0a2.424,2.424,0,0,0,.02,4.846c.632.022,1.266.034,1.9,0,.454-.028.6.083.594.572-.035,1.644,0,3.289-.025,4.933-.008.456.091.606.575.591,1.263-.039,2.529-.027,3.793,0,.38.007.48-.095.53-.487a4.845,4.845,0,0,1,9.647.029c.056.442.229.455.561.454,2.024-.008,4.047.018,6.07-.019.56-.01.7.121.7.695.107,8.361-3.254,15.008-9.833,20.091-1.02.788-2,1.626-3,2.441-.078.064-.161.124-.232.2-.618.614-.262,1.385-.276,2.073-.012.612-.367,1.326.579,1.794a3.255,3.255,0,0,1,1.805,3.257,3.356,3.356,0,0,1-2.028,3.054c-.53.246-.585.476-.459,1.007a3.483,3.483,0,0,1-1.862,3.8,1.158,1.158,0,0,0-.682.955,8.473,8.473,0,0,1-16.641-.148.955.955,0,0,0-.593-.769,3.5,3.5,0,0,1-1.875-4.059c.092-.406-.016-.539-.385-.71a3.592,3.592,0,0,1-.161-6.514.671.671,0,0,0,.427-.682c.065-2.756.072-2.755-2.072-4.5a37.037,37.037,0,0,1-6.9-6.674,23.54,23.54,0,0,1,10.183-35.406,28.826,28.826,0,0,1,11.746-1.756c.454.012.391.259.39.534Q390.7,978.138,390.7,980.643ZM371.287,999.4c-1.416,0-2.833.023-4.248-.012-.514-.013-.622.141-.579.636a20.947,20.947,0,0,0,7.708,14.847q2.562,2.139,5.168,4.223a1.062,1.062,0,0,1,.451.954c-.029,1.036.012,2.075-.019,3.111-.014.441.136.541.554.538q3.717-.027,7.435,0c.455,0,.53-.159.528-.564q-.023-4.326,0-8.651c0-.368-.08-.489-.482-.543a4.846,4.846,0,0,1,.025-9.65c.444-.059.456-.239.454-.569-.009-1.265-.023-2.53.007-3.794.01-.443-.14-.543-.556-.537-1.568.022-3.136.014-4.7.007-.652,0-1.5.212-1.9-.115-.42-.345-.09-1.231-.132-1.879-.01-.151,0-.3,0-.455a2.425,2.425,0,0,0-4.851.005c-.018.607-.032,1.216.006,1.821.03.476-.09.653-.609.638C374.12,999.375,372.7,999.4,371.287,999.4ZM390.7,1017.6c0,1.847.011,3.693-.008,5.54,0,.4.069.573.526.566,1.669-.028,3.338-.024,5.007,0,.417.005.569-.1.555-.538-.032-1.036.01-2.075-.02-3.111a1.06,1.06,0,0,1,.454-.953q2.571-2.067,5.107-4.178a20.963,20.963,0,0,0,7.766-14.9c.043-.5-.072-.642-.581-.634-1.972.029-3.946-.021-5.917.03-.661.017-.817-.19-.761-.8a12.64,12.64,0,0,0,0-1.744,2.422,2.422,0,0,0-4.841,0,15.067,15.067,0,0,0,0,1.82c.042.543-.088.733-.685.72-2-.044-4,0-5.993-.028-.486-.006-.638.112-.63.618.03,2.024,0,4.048.025,6.071.007.5-.137.654-.629.619-.6-.042-1.214-.023-1.82-.007a2.425,2.425,0,0,0-.023,4.849,17.719,17.719,0,0,0,1.9-.007c.493-.037.58.15.574.6C390.69,1013.952,390.7,1015.774,390.7,1017.6Zm-2.429-37.008c0-.784-.037-1.57.013-2.351.036-.557-.111-.715-.693-.711a21.112,21.112,0,0,0-21.051,18.855c-.05.45.007.612.515.6,2.047-.031,4.1-.022,6.143,0,.377,0,.484-.1.536-.489a4.847,4.847,0,0,1,9.652.031c.05.356.13.464.489.458q1.971-.031,3.944,0c.375.006.468-.123.46-.476-.022-.91-.028-1.821,0-2.731.013-.386-.145-.426-.476-.472a4.849,4.849,0,0,1,0-9.655c.42-.055.477-.2.47-.554C388.263,982.257,388.275,981.422,388.275,980.587Zm-.009,45.532h-9.016c-.253,0-.507-.015-.757.009a1.207,1.207,0,0,0-.019,2.409,4.563,4.563,0,0,0,.53.01h18.563a2.851,2.851,0,0,0,.6-.021,1.207,1.207,0,0,0,.019-2.381,3.162,3.162,0,0,0-.68-.024Zm-5.9,9.741a6.036,6.036,0,0,0,6.125,4.827,5.968,5.968,0,0,0,5.66-4.827Zm5.909-2.455c2.323,0,4.645,0,6.968,0a1.471,1.471,0,0,0,1.126-.333,1.132,1.132,0,0,0,.309-1.311,1.268,1.268,0,0,0-1.329-.792q-7.044.009-14.087,0c-.942,0-1.5.474-1.484,1.235s.564,1.189,1.529,1.19Q384.795,1033.41,388.279,1033.406Z" transform="translate(-364 -967.817)" fill="#020202"/>
      <path id="Trazado_619214" data-name="Trazado 619214" d="M496.872,962.117c0,2.377.008,4.754,0,7.131a3.642,3.642,0,0,1-3.805,3.82c-1.77.009-3.54-.02-5.309.015-.518.01-.637-.158-.606-.634.039-.6.023-1.214.005-1.82a2.424,2.424,0,0,0-4.847-.023c-.02.682-.022,1.366,0,2.048.012.34-.1.423-.43.421-2.958-.011-5.916-.016-8.873,0-.424,0-.424-.2-.422-.505.009-1.644-.005-3.288.011-4.931,0-.42-.02-.626-.564-.695a4.841,4.841,0,0,1,.03-9.625c.505-.061.55-.241.534-.644-.025-.631-.019-1.265,0-1.9a3.612,3.612,0,0,1,3.592-3.567q8.532-.031,17.064,0a3.6,3.6,0,0,1,3.615,3.619C496.89,957.262,496.872,959.69,496.872,962.117Zm-12.138-8.479q-4.1,0-8.19,0c-1.093,0-1.518.423-1.523,1.5-.006,1.34-.017,2.681.007,4.021.008.416-.091.58-.536.555-.655-.037-1.315-.028-1.971,0a2.424,2.424,0,0,0,.022,4.847c.631.022,1.266.034,1.9,0,.458-.028.6.094.594.577-.033,1.668,0,3.338-.022,5.006-.005.4.107.518.507.508,1.112-.027,2.226-.05,3.336.006.69.034,1.172-.022,1.119-.885a1.855,1.855,0,0,1,.161-.658,4.839,4.839,0,0,1,9.406.94c.066.5.208.615.674.6.883-.035,1.769-.007,2.654-.011,1.176,0,1.576-.41,1.577-1.606q0-6.9,0-13.807c0-1.186-.4-1.587-1.595-1.588Q488.792,953.635,484.735,953.638Z" transform="translate(-436.175 -951.202)" fill="#010101"/>
      <path id="Trazado_619215" data-name="Trazado 619215" d="M376.891,1043.906c1.416,0,2.833-.026,4.248.013.52.014.639-.162.609-.638-.038-.6-.023-1.214-.006-1.821a2.425,2.425,0,0,1,4.851-.005c.005.151-.007.3,0,.455.042.648-.287,1.534.132,1.879.4.327,1.25.112,1.9.115,1.568.007,3.136.016,4.7-.007.416-.006.566.093.556.537-.03,1.264-.016,2.529-.007,3.794,0,.33-.01.51-.454.569a4.846,4.846,0,0,0-.025,9.65c.4.055.484.175.482.543q-.019,4.326,0,8.651c0,.405-.073.568-.528.564q-3.717-.034-7.435,0c-.418,0-.567-.1-.554-.538.032-1.036-.01-2.075.019-3.111a1.062,1.062,0,0,0-.451-.954q-2.6-2.09-5.168-4.223a20.947,20.947,0,0,1-7.708-14.847c-.043-.5.066-.649.579-.636C374.058,1043.928,375.475,1043.906,376.891,1043.906Z" transform="translate(-369.605 -1012.322)" fill="#f4d67e"/>
      <path id="Trazado_619216" data-name="Trazado 619216" d="M440.668,1062.1c0-1.822-.014-3.643.01-5.464.006-.448-.08-.635-.574-.6a17.688,17.688,0,0,1-1.9.007,2.425,2.425,0,0,1,.023-4.849c.606-.017,1.216-.035,1.82.007.492.034.636-.116.629-.619-.03-2.023.005-4.047-.025-6.071-.008-.506.144-.625.63-.618,2,.027,4-.016,5.993.028.6.013.727-.177.685-.72a15.076,15.076,0,0,1,0-1.82,2.422,2.422,0,0,1,4.841,0,12.64,12.64,0,0,1,0,1.744c-.057.609.1.816.761.8,1.971-.051,3.945,0,5.917-.03.509-.007.624.135.581.634a20.963,20.963,0,0,1-7.766,14.9q-2.539,2.107-5.107,4.178a1.06,1.06,0,0,0-.454.953c.03,1.036-.012,2.075.02,3.111.014.442-.138.543-.555.537-1.668-.022-3.338-.026-5.007,0-.457.008-.531-.162-.526-.566C440.679,1065.793,440.668,1063.947,440.668,1062.1Z" transform="translate(-413.964 -1012.322)" fill="#f5d67e"/>
      <path id="Trazado_619217" data-name="Trazado 619217" d="M394.058,986.173c0,.835-.012,1.669.006,2.5.008.352-.05.5-.47.554a4.849,4.849,0,0,0,0,9.655c.331.046.489.086.476.472-.03.909-.024,1.821,0,2.731.008.354-.085.482-.46.476q-1.971-.032-3.944,0c-.359.006-.44-.1-.489-.458a4.847,4.847,0,0,0-9.652-.031c-.053.394-.159.492-.536.489-2.047-.017-4.1-.026-6.143,0-.509.008-.566-.153-.515-.6a21.111,21.111,0,0,1,21.051-18.855c.582,0,.729.154.693.711C394.02,984.6,394.058,985.389,394.058,986.173Z" transform="translate(-369.783 -973.403)" fill="#f4d57e"/>
      <path id="Trazado_619218" data-name="Trazado 619218" d="M418.8,1142.82h9.243a3.154,3.154,0,0,1,.68.024,1.207,1.207,0,0,1-.019,2.381,2.843,2.843,0,0,1-.6.021H409.541a4.564,4.564,0,0,1-.53-.01,1.207,1.207,0,0,1,.019-2.409c.25-.024.5-.009.757-.009Z" transform="translate(-394.538 -1084.517)" fill="#cbcfd6"/>
      <path id="Trazado_619219" data-name="Trazado 619219" d="M424.377,1174.85h11.786a5.968,5.968,0,0,1-5.66,4.827A6.037,6.037,0,0,1,424.377,1174.85Z" transform="translate(-406.008 -1106.806)" fill="#a9b0ba"/>
      <path id="Trazado_619220" data-name="Trazado 619220" d="M424.368,1161.22q-3.484,0-6.968,0c-.965,0-1.514-.435-1.529-1.191s.541-1.234,1.484-1.235q7.043-.005,14.087-.005a1.268,1.268,0,0,1,1.329.792,1.132,1.132,0,0,1-.309,1.311,1.471,1.471,0,0,1-1.126.333C429.013,1161.216,426.691,1161.22,424.368,1161.22Z" transform="translate(-400.089 -1095.63)" fill="#cbcfd6"/>
      <path id="Trazado_619221" data-name="Trazado 619221" d="M490.287,959.208q4.057,0,8.114,0c1.191,0,1.594.4,1.595,1.588q0,6.9,0,13.807c0,1.2-.4,1.6-1.577,1.606-.885,0-1.771-.024-2.654.011-.465.018-.608-.1-.674-.6a4.839,4.839,0,0,0-9.406-.94,1.856,1.856,0,0,0-.161.658c.054.863-.429.919-1.119.885-1.11-.055-2.224-.032-3.336-.006-.4.01-.512-.108-.507-.508.022-1.668-.011-3.338.022-5.006.009-.483-.136-.605-.594-.577-.629.039-1.264.027-1.9,0a2.424,2.424,0,0,1-.022-4.847c.656-.024,1.316-.033,1.971,0,.445.025.544-.14.536-.555-.024-1.34-.013-2.68-.007-4.021,0-1.082.43-1.5,1.523-1.5Q486.192,959.2,490.287,959.208Z" transform="translate(-441.727 -956.771)" fill="#f5d67e"/>
    </g>
  </g>
</svg>
