<svg xmlns="http://www.w3.org/2000/svg" xmlns:xlink="http://www.w3.org/1999/xlink" width="505" height="196.464" viewBox="0 0 505 196.464">
  <defs>
    <clipPath id="clip-path">
      <rect id="Rectángulo_298097" data-name="Rectángulo 298097" width="292.869" height="170.789" fill="none"/>
    </clipPath>
  </defs>
  <g id="Grupo_1044075" data-name="Grupo 1044075" transform="translate(-810 -8160.54)">
    <path id="Rectángulo_305615" data-name="Rectángulo 305615" d="M5,0H500a5,5,0,0,1,5,5V119.129a0,0,0,0,1,0,0H0a0,0,0,0,1,0,0V5A5,5,0,0,1,5,0Z" transform="translate(810 8237.875)" fill="#ef8b53"/>
    <g id="Grupo_980640" data-name="Grupo 980640" transform="translate(915 8160.54)">
      <g id="Grupo_949490" data-name="Grupo 949490" transform="translate(1 8)">
        <g id="Grupo_878374" data-name="Grupo 878374">
          <g id="Enmascarar_grupo_878373" data-name="Enmascarar grupo 878373" clip-path="url(#clip-path)">
            <path id="Trazado_600767" data-name="Trazado 600767" d="M540.9,265.986c-8.442-7.362-9.238-19.425-7.729-30.028.251-1.77.258-3.664,1.271-5.132s3.1-2.32,4.61-1.4c1.252.763,1.662,2.36,2.263,3.708a10.458,10.458,0,0,0,3.738,4.428,3.981,3.981,0,0,0,3.612.723c1.623-.68,2.032-2.778,2.212-4.546q.5-4.943,1-9.885a16.568,16.568,0,0,1,1.1-5.19,5.513,5.513,0,0,1,3.844-3.334A3.343,3.343,0,0,1,560.7,218a16.4,16.4,0,0,1-.187,2.205,1.869,1.869,0,0,0,.9,1.866,2.147,2.147,0,0,0,2.028-.6,23.612,23.612,0,0,0,4.9-5.913,32.776,32.776,0,0,1,4.642-6.147,9.611,9.611,0,0,1,6.865-2.933,5.754,5.754,0,0,1,5.445,4.535c.373,2.56-1.353,4.931-3.152,6.776a39.664,39.664,0,0,1-9.055,6.942,3.267,3.267,0,0,0-1.532,1.329c-.511,1.136.479,2.426,1.6,2.939a20.543,20.543,0,0,0,4.073.909,4,4,0,0,1,3.168,2.437c.529,1.884-1.185,3.614-2.8,4.693a33.985,33.985,0,0,1-10.62,4.694,11.464,11.464,0,0,0-3.91,1.405,3.29,3.29,0,0,0-1.451,3.633,3.35,3.35,0,0,0,3.471,1.782,23.717,23.717,0,0,0,4.036-1.063c2.527-.655,5.644-.15,6.973,2.117a5.624,5.624,0,0,1,.062,5.009A12.966,12.966,0,0,1,573,258.693a34.168,34.168,0,0,1-15.6,8.631c-5.843,1.346-11.119,1.312-16.5-1.338" transform="translate(-301.636 -116.943)" fill="#ffe3a7"/>
            <path id="Trazado_600768" data-name="Trazado 600768" d="M559.8,262.02a159.136,159.136,0,0,1,8.122-16.367l2.349-4.181c.774-1.37,1.542-2.73,2.375-4.012a79.534,79.534,0,0,1,5.209-7.1c1.766-2.178,3.521-4.18,5.176-6.04s3.239-3.559,4.745-5.048a63.006,63.006,0,0,1,7.621-6.494c.956-.694,1.716-1.208,2.235-1.549l.593-.384a1.323,1.323,0,0,1,.208-.121,1.238,1.238,0,0,1-.19.15l-.575.411c-.507.359-1.254.889-2.2,1.6a66.7,66.7,0,0,0-7.534,6.557c-1.491,1.5-3.057,3.2-4.705,5.065s-3.39,3.872-5.146,6.049a80.377,80.377,0,0,0-5.173,7.081c-.826,1.277-1.586,2.625-2.361,4l-2.347,4.18a163.046,163.046,0,0,0-8.129,16.324" transform="translate(-317.064 -119.352)" fill="#529d2e"/>
            <path id="Trazado_600769" data-name="Trazado 600769" d="M588.989,246.621a3.608,3.608,0,0,1-.091-.772c-.04-.5-.075-1.221-.1-2.114-.06-1.786-.059-4.255-.048-6.978s-.023-5.186-.11-6.966c-.042-.89-.082-1.611-.116-2.108a3.548,3.548,0,0,1-.016-.778,3.53,3.53,0,0,1,.142.764c.074.495.15,1.215.22,2.106.147,1.783.218,4.255.206,6.982-.018,2.687-.035,5.117-.048,6.974,0,.839,0,1.546,0,2.113a3.576,3.576,0,0,1-.036.777" transform="translate(-333.316 -128.517)" fill="#529d2e"/>
            <path id="Trazado_600770" data-name="Trazado 600770" d="M612.811,267.882a4.951,4.951,0,0,1-.918.011c-.588-.011-1.44-.031-2.492-.023-2.1,0-5.012.1-8.215.356s-6.092.617-8.174.936c-1.043.152-1.883.3-2.464.4a4.924,4.924,0,0,1-.91.122,4.834,4.834,0,0,1,.886-.248c.575-.136,1.411-.317,2.452-.5,2.079-.379,4.973-.775,8.186-1.035a80.606,80.606,0,0,1,8.242-.26c1.055.022,1.908.077,2.5.128a4.877,4.877,0,0,1,.911.118" transform="translate(-333.966 -151.575)" fill="#529d2e"/>
            <path id="Trazado_600771" data-name="Trazado 600771" d="M549.687,288.624a1.162,1.162,0,0,1-.126-.294l-.3-.863c-.257-.751-.6-1.848-1.007-3.208-.816-2.72-1.824-6.514-2.88-10.714s-2.028-8-2.786-10.734l-.907-3.235-.242-.882a.161.161,0,1,1,.063-.02c.081.233.18.518.3.863.257.751.6,1.848,1.008,3.208.816,2.72,1.823,6.514,2.88,10.716s2.028,8,2.785,10.732c.373,1.329.679,2.423.907,3.235l.242.882a1.192,1.192,0,0,1,.063.314" transform="translate(-306.629 -146.344)" fill="#529d2e"/>
            <path id="Trazado_600772" data-name="Trazado 600772" d="M591.778,313.19a1.216,1.216,0,0,1-.313.091l-.908.2-3.345.7c-2.825.591-6.717,1.452-11.016,2.41s-8.2,1.784-11.042,2.316c-1.419.267-2.569.471-3.366.6l-.919.138a1.2,1.2,0,0,1-.325.026,1.242,1.242,0,0,1,.313-.092l.908-.2,3.345-.7c2.824-.591,6.717-1.452,11.017-2.41s8.2-1.783,11.04-2.316c1.419-.267,2.569-.471,3.367-.6l.919-.139a1.2,1.2,0,0,1,.324-.026" transform="translate(-317.487 -177.385)" fill="#529d2e"/>
            <path id="Trazado_626459" data-name="Trazado 626459" d="M0,0H51.923V46.453H0Z" transform="translate(240.829 38.942)" fill="#faebcd"/>
            <g id="Grupo_949505" data-name="Grupo 949505" transform="translate(248.53 47.057)">
              <path id="Trazado_600774" data-name="Trazado 600774" d="M585.374,90.645c0,.077-2.733.139-6.1.139s-6.1-.062-6.1-.139,2.732-.139,6.1-.139,6.1.062,6.1.139" transform="translate(-573.167 -90.506)" fill="#f0bd51"/>
              <path id="Trazado_600775" data-name="Trazado 600775" d="M608.25,98.689c0,.077-7.508.139-16.768.139s-16.769-.062-16.769-.139,7.507-.139,16.769-.139,16.768.062,16.768.139" transform="translate(-574.043 -95.062)" fill="#f0bd51"/>
            </g>
            <g id="Grupo_949504" data-name="Grupo 949504" transform="translate(248.619 56.492)">
              <rect id="Rectángulo_298050" data-name="Rectángulo 298050" width="2.188" height="2.188" transform="translate(0 0.099)" fill="#f0bd51"/>
              <rect id="Rectángulo_298051" data-name="Rectángulo 298051" width="2.188" height="2.188" transform="translate(5.385 0.099)" fill="#f0bd51"/>
              <rect id="Rectángulo_298052" data-name="Rectángulo 298052" width="2.188" height="2.188" transform="translate(10.868)" fill="#f0bd51"/>
              <rect id="Rectángulo_298053" data-name="Rectángulo 298053" width="2.188" height="2.188" transform="translate(16.153 0.099)" fill="#f0bd51"/>
              <rect id="Rectángulo_298054" data-name="Rectángulo 298054" width="2.188" height="2.188" transform="translate(21.538 0.099)" fill="#f0bd51"/>
              <rect id="Rectángulo_298055" data-name="Rectángulo 298055" width="2.188" height="2.188" transform="translate(26.922 0.099)" fill="#f0bd51"/>
              <rect id="Rectángulo_298056" data-name="Rectángulo 298056" width="2.188" height="2.188" transform="translate(32.307 0.099)" fill="#f0bd51"/>
              <rect id="Rectángulo_298057" data-name="Rectángulo 298057" width="2.188" height="2.188" transform="translate(0 4.749)" fill="#f0bd51"/>
              <rect id="Rectángulo_298058" data-name="Rectángulo 298058" width="2.188" height="2.188" transform="translate(5.385 4.749)" fill="#f0bd51"/>
              <rect id="Rectángulo_298059" data-name="Rectángulo 298059" width="2.188" height="2.188" transform="translate(10.769 4.749)" fill="#f0bd51"/>
              <rect id="Rectángulo_298060" data-name="Rectángulo 298060" width="2.188" height="2.188" transform="translate(16.153 4.749)" fill="#f0bd51"/>
              <rect id="Rectángulo_298061" data-name="Rectángulo 298061" width="2.188" height="2.188" transform="translate(21.538 4.749)" fill="#f0bd51"/>
              <rect id="Rectángulo_298062" data-name="Rectángulo 298062" width="2.188" height="2.188" transform="translate(27.022 4.651)" fill="#f0bd51"/>
              <rect id="Rectángulo_298063" data-name="Rectángulo 298063" width="2.188" height="2.188" transform="translate(32.307 4.749)" fill="#f0bd51"/>
              <rect id="Rectángulo_298064" data-name="Rectángulo 298064" width="2.188" height="2.188" transform="translate(0 9.4)" fill="#f0bd51"/>
              <rect id="Rectángulo_298065" data-name="Rectángulo 298065" width="2.188" height="2.188" transform="translate(5.483 9.301)" fill="#f0bd51"/>
              <rect id="Rectángulo_298066" data-name="Rectángulo 298066" width="2.188" height="2.188" transform="translate(10.769 9.4)" fill="#f0bd51"/>
              <rect id="Rectángulo_298067" data-name="Rectángulo 298067" width="2.188" height="2.188" transform="translate(16.153 9.4)" fill="#f0bd51"/>
              <rect id="Rectángulo_298068" data-name="Rectángulo 298068" width="2.188" height="2.188" transform="translate(21.538 9.4)" fill="#f0bd51"/>
              <rect id="Rectángulo_298069" data-name="Rectángulo 298069" width="2.188" height="2.188" transform="translate(26.922 9.4)" fill="#f0bd51"/>
              <rect id="Rectángulo_298070" data-name="Rectángulo 298070" width="2.188" height="2.188" transform="translate(32.307 9.4)" fill="#f0bd51"/>
              <rect id="Rectángulo_298071" data-name="Rectángulo 298071" width="2.188" height="2.188" transform="translate(0 14.051)" fill="#f0bd51"/>
              <rect id="Rectángulo_298072" data-name="Rectángulo 298072" width="2.188" height="2.188" transform="translate(5.385 14.051)" fill="#f0bd51"/>
              <rect id="Rectángulo_298073" data-name="Rectángulo 298073" width="2.188" height="2.188" transform="translate(10.769 14.051)" fill="#f0bd51"/>
              <rect id="Rectángulo_298074" data-name="Rectángulo 298074" width="2.188" height="2.188" transform="translate(16.253 13.951)" fill="#f0bd51"/>
              <rect id="Rectángulo_298075" data-name="Rectángulo 298075" width="2.188" height="2.188" transform="translate(21.538 14.051)" fill="#f0bd51"/>
              <rect id="Rectángulo_298076" data-name="Rectángulo 298076" width="2.188" height="2.188" transform="translate(26.922 14.051)" fill="#f0bd51"/>
              <rect id="Rectángulo_298077" data-name="Rectángulo 298077" width="2.188" height="2.188" transform="translate(32.307 14.051)" fill="#f0bd51"/>
              <rect id="Rectángulo_298078" data-name="Rectángulo 298078" width="2.188" height="2.188" transform="translate(0 18.701)" fill="#f0bd51"/>
              <rect id="Rectángulo_298079" data-name="Rectángulo 298079" width="2.188" height="2.188" transform="translate(5.385 18.701)" fill="#f0bd51"/>
              <rect id="Rectángulo_298080" data-name="Rectángulo 298080" width="2.188" height="2.188" transform="translate(10.769 18.701)" fill="#f0bd51"/>
              <rect id="Rectángulo_298081" data-name="Rectángulo 298081" width="2.188" height="2.188" transform="translate(16.153 18.701)" fill="#f0bd51"/>
              <rect id="Rectángulo_298082" data-name="Rectángulo 298082" width="2.188" height="2.188" transform="translate(21.538 18.701)" fill="#f0bd51"/>
              <rect id="Rectángulo_298083" data-name="Rectángulo 298083" width="2.188" height="2.188" transform="translate(27.022 18.601)" fill="#f0bd51"/>
              <rect id="Rectángulo_298084" data-name="Rectángulo 298084" width="2.188" height="2.188" transform="translate(32.307 18.701)" fill="#f0bd51"/>
            </g>
            <path id="Trazado_600776" data-name="Trazado 600776" d="M39.018,167.848s-4.856,1.966.745,12.275a135.785,135.785,0,0,0,9.427,15.384s1.008,2.4-1.023,2.83-6.545-.171-7.39,2.351c-.876,2.615,1.069,5.01,4.94,7.056s12.188,6.837,12.938,7.273,1.493,1.538.156,2.052S47.39,218.9,48.3,223.648s12.632,8.673,13.9,9.126,1.588.98,1.5,1.675-3.516.818-6.368,1.31-6.074,1.563-5.319,4.258,7.781,8.216,24.524,9.42l7.795.05,4.068-6.689c7.833-14.847,6.863-23.729,4.975-25.8s-4.5.1-6.426,2.262-3.846,5.007-4.48,4.712-.914-.841-.626-2.162,3.155-13.344-.392-16.628-10,4.577-11.141,5.44-1.685-.366-1.659-1.218c.027-.868.359-10.46.67-14.828s-.692-7.285-3.375-7.924c-2.587-.617-4.464,3.531-5.9,5.029s-2.943-.628-2.943-.628a135.725,135.725,0,0,0-8.071-16.137c-5.787-10.2-10.114-7.025-10.114-7.025" transform="translate(-20.993 -94.829)" fill="#ffe3a7"/>
            <path id="Trazado_600777" data-name="Trazado 600777" d="M93.875,263.928c-4.22-7.511-11.5-20.987-17.8-32.524s-12.024-21.97-16.206-29.5L54.9,192.988l-1.348-2.425-.345-.634c-.076-.143-.11-.22-.11-.22s.048.069.132.208l.366.622,1.387,2.4c1.2,2.088,2.92,5.121,5.029,8.878,4.22,7.511,9.963,17.936,16.268,29.469s13.56,25.025,17.742,32.557" transform="translate(-30.075 -107.449)" fill="#529d2e"/>
            <path id="Trazado_600778" data-name="Trazado 600778" d="M60.108,246.655a2.549,2.549,0,0,1,.547.137c.348.1.846.264,1.46.47,1.228.415,2.908,1.03,4.749,1.743l4.709,1.842L73,251.4a2.572,2.572,0,0,1,.518.222,2.5,2.5,0,0,1-.549-.133c-.347-.1-.846-.265-1.458-.477-1.223-.427-2.9-1.064-4.737-1.777l-4.72-1.808-1.433-.542a2.5,2.5,0,0,1-.516-.226" transform="translate(-34.044 -139.702)" fill="#529d2e"/>
            <path id="Trazado_600779" data-name="Trazado 600779" d="M92.236,236.488c-.063-.021,1.053-3.541,2.494-7.861s2.661-7.807,2.724-7.785-1.053,3.54-2.494,7.862-2.66,7.806-2.723,7.785" transform="translate(-52.24 -125.082)" fill="#529d2e"/>
            <path id="Trazado_600780" data-name="Trazado 600780" d="M112.73,282.683a2.613,2.613,0,0,1,.3-.489l.89-1.286c.75-1.087,1.779-2.592,2.854-4.295s2-3.274,2.66-4.418l.782-1.355a2.642,2.642,0,0,1,.311-.484,2.6,2.6,0,0,1-.228.529c-.161.333-.4.81-.715,1.394-.622,1.167-1.524,2.759-2.606,4.465s-2.132,3.2-2.919,4.265c-.4.53-.72.956-.954,1.243a2.607,2.607,0,0,1-.379.433" transform="translate(-63.848 -153.126)" fill="#529d2e"/>
            <path id="Trazado_600781" data-name="Trazado 600781" d="M81.625,295.879a2.276,2.276,0,0,1,.532,0l1.444.077c1.219.075,2.9.2,4.758.345s3.538.3,4.753.416l1.438.154a2.262,2.262,0,0,1,.525.089,2.275,2.275,0,0,1-.532,0l-1.444-.077c-1.219-.075-2.9-.2-4.759-.345s-3.537-.3-4.752-.416l-1.438-.153a2.262,2.262,0,0,1-.525-.089" transform="translate(-46.232 -167.575)" fill="#529d2e"/>
            <path id="Trazado_600782" data-name="Trazado 600782" d="M95.021,335.134a3.683,3.683,0,0,1,.681,0l1.851.092c1.563.088,3.72.227,6.1.394s4.538.333,6.1.465l1.846.169a3.624,3.624,0,0,1,.675.095,3.728,3.728,0,0,1-.681,0l-1.851-.092c-1.563-.088-3.72-.226-6.1-.394s-4.537-.333-6.1-.465l-1.845-.168a3.668,3.668,0,0,1-.675-.095" transform="translate(-53.819 -189.81)" fill="#e0e0e0"/>
            <path id="Trazado_600783" data-name="Trazado 600783" d="M133.874,316.836a4.209,4.209,0,0,1,.369-.629l1.07-1.672c.9-1.412,2.139-3.368,3.444-5.565s2.441-4.214,3.251-5.681l.96-1.737a4.258,4.258,0,0,1,.376-.624,4.181,4.181,0,0,1-.293.668c-.2.423-.506,1.03-.893,1.774-.771,1.489-1.882,3.524-3.193,5.724s-2.57,4.145-3.509,5.535c-.471.693-.859,1.251-1.135,1.63a4.211,4.211,0,0,1-.447.576" transform="translate(-75.824 -170.443)" fill="#e0e0e0"/>
            <rect id="Rectángulo_298085" data-name="Rectángulo 298085" width="4.209" height="20.941" transform="matrix(1, -0.005, 0.005, 1, 60.897, 7.832)" fill="#e0e0e0"/>
            <rect id="Rectángulo_298086" data-name="Rectángulo 298086" width="10.898" height="11.561" transform="translate(24.438 7.922) rotate(-0.305)" fill="#ebebeb"/>
            <rect id="Rectángulo_298087" data-name="Rectángulo 298087" width="10.898" height="11.561" transform="translate(35.284 7.864) rotate(-0.305)" fill="#f5f5f5"/>
            <path id="Trazado_600784" data-name="Trazado 600784" d="M56.272,25.18c7.243.06,14.5.017,21.745-.1a.116.116,0,0,0,0-.232c-7.243-.04-14.5,0-21.745.133a.1.1,0,0,0,0,.2" transform="translate(-31.817 -14.065)" fill="#e0e0e0"/>
            <rect id="Rectángulo_298088" data-name="Rectángulo 298088" width="19.801" height="9.422" transform="matrix(1, -0.005, 0.005, 1, 17.642, 19.338)" fill="#ebebeb"/>
            <rect id="Rectángulo_298089" data-name="Rectángulo 298089" width="19.801" height="9.421" transform="matrix(1, -0.005, 0.005, 1, 37.349, 19.232)" fill="#f5f5f5"/>
            <path id="Trazado_600785" data-name="Trazado 600785" d="M40.594,50.035c13.154.149,26.354.015,39.507-.2a.116.116,0,0,0,0-.232c-13.155-.07-26.356-.062-39.507.228a.1.1,0,0,0,0,.2" transform="translate(-22.938 -28.077)" fill="#e0e0e0"/>
            <rect id="Rectángulo_298090" data-name="Rectángulo 298090" width="76.714" height="3.375" transform="translate(10.252 28.759)" fill="#e0e0e0"/>
            <rect id="Rectángulo_298091" data-name="Rectángulo 298091" width="3.114" height="11.517" transform="translate(22.811 30.382)" fill="#e0e0e0"/>
            <rect id="Rectángulo_298092" data-name="Rectángulo 298092" width="3.114" height="11.517" transform="translate(69.3 30.382)" fill="#e0e0e0"/>
            <rect id="Rectángulo_298093" data-name="Rectángulo 298093" width="4.209" height="28.802" transform="matrix(1, -0.005, 0.005, 1, 65.004, 0.022)" fill="#ebebeb"/>
            <rect id="Rectángulo_298094" data-name="Rectángulo 298094" width="6.54" height="23.341" transform="translate(69.249 5.396) rotate(-0.308)" fill="#f5f5f5"/>
            <path id="Trazado_600786" data-name="Trazado 600786" d="M166.141,22.587a23.724,23.724,0,0,1-3.269.113,23.724,23.724,0,0,1-3.27-.113,23.723,23.723,0,0,1,3.27-.113,23.723,23.723,0,0,1,3.269.113" transform="translate(-90.397 -12.729)" fill="#e0e0e0"/>
            <path id="Trazado_600787" data-name="Trazado 600787" d="M166.141,20.326a23.725,23.725,0,0,1-3.269.113,23.724,23.724,0,0,1-3.27-.113,23.723,23.723,0,0,1,3.27-.113,23.724,23.724,0,0,1,3.269.113" transform="translate(-90.397 -11.448)" fill="#e0e0e0"/>
            <path id="Trazado_600788" data-name="Trazado 600788" d="M166.141,57.946a23.726,23.726,0,0,1-3.269.113,23.726,23.726,0,0,1-3.27-.113,23.723,23.723,0,0,1,3.27-.113,23.723,23.723,0,0,1,3.269.113" transform="translate(-90.397 -32.756)" fill="#e0e0e0"/>
            <path id="Trazado_600789" data-name="Trazado 600789" d="M166.141,55.685a23.724,23.724,0,0,1-3.269.113,23.723,23.723,0,0,1-3.27-.113,23.723,23.723,0,0,1,3.27-.113,23.724,23.724,0,0,1,3.269.113" transform="translate(-90.397 -31.475)" fill="#e0e0e0"/>
            <path id="Trazado_600790" data-name="Trazado 600790" d="M167.237,37.159c-.062,0-.113-2.355-.113-5.259s.051-5.26.113-5.26.113,2.354.113,5.26-.051,5.259-.113,5.259" transform="translate(-94.658 -15.089)" fill="#e0e0e0"/>
            <rect id="Rectángulo_298095" data-name="Rectángulo 298095" width="7.118" height="17.618" transform="translate(75.815 11.093)" fill="#ebebeb"/>
            <path id="Trazado_600791" data-name="Trazado 600791" d="M154.253,9.76a1.21,1.21,0,1,1-1.21-1.21,1.209,1.209,0,0,1,1.21,1.21" transform="translate(-85.997 -4.843)" fill="#e0e0e0"/>
            <rect id="Rectángulo_298096" data-name="Rectángulo 298096" width="0.748" height="17.134" transform="translate(66.673 8.244)" fill="#e0e0e0"/>
          </g>
        </g>
        <g id="Grupo_878376" data-name="Grupo 878376">
          <g id="Grupo_878375" data-name="Grupo 878375" clip-path="url(#clip-path)">
            <path id="Trazado_600792" data-name="Trazado 600792" d="M542.153,53.216a18.7,18.7,0,1,1-18.7-18.564,18.633,18.633,0,0,1,18.7,18.564" transform="translate(-285.887 -19.627)" fill="#fff"/>
            <path id="Trazado_600793" data-name="Trazado 600793" d="M540.553,71a1.044,1.044,0,0,1-.575-.95l.059-3.383.032-1.807a1.042,1.042,0,0,1,1.343-.98,3.237,3.237,0,0,0,2.548-.345,2.914,2.914,0,0,0,1.417-1.827,2.984,2.984,0,0,0-.49-2.277,3.327,3.327,0,0,0-2.117-1.456,3.906,3.906,0,0,0-4.128,2.569,1.042,1.042,0,1,1-1.975-.667,6,6,0,0,1,6.467-3.954,5.377,5.377,0,0,1,3.488,2.355,5.073,5.073,0,0,1,.788,3.89,5.005,5.005,0,0,1-2.4,3.168,5.458,5.458,0,0,1-2.878.75l-.069,4a1.043,1.043,0,0,1-1.51.914" transform="translate(-303.931 -31.632)" fill="#583cb6"/>
            <path id="Trazado_600794" data-name="Trazado 600794" d="M546.7,94.783a.853.853,0,1,1-.859-.846.853.853,0,0,1,.859.846" transform="translate(-308.678 -53.205)" fill="#583cb6"/>
            <path id="Trazado_600795" data-name="Trazado 600795" d="M501.412,111.176c0,.019.2.018.54.133a2.458,2.458,0,0,1,1.178.89,2.328,2.328,0,0,1,.4.934,2.031,2.031,0,0,1-.131,1.146,2.22,2.22,0,0,1-4.164.013,2.032,2.032,0,0,1-.138-1.145,2.328,2.328,0,0,1,.4-.937,2.459,2.459,0,0,1,1.172-.9c.337-.116.542-.117.54-.136a.488.488,0,0,0-.147,0,.885.885,0,0,0-.176.02,1.418,1.418,0,0,0-.237.054,2.493,2.493,0,0,0-1.692,1.873,2.162,2.162,0,0,0,.132,1.232,2.526,2.526,0,0,0,.845,1.076,2.235,2.235,0,0,0,2.775-.009,2.523,2.523,0,0,0,.838-1.081,2.159,2.159,0,0,0,.125-1.233,2.493,2.493,0,0,0-1.7-1.862,1.4,1.4,0,0,0-.237-.053.877.877,0,0,0-.177-.019.463.463,0,0,0-.147,0" transform="translate(-282.587 -62.966)" fill="#263238"/>
            <path id="Trazado_600796" data-name="Trazado 600796" d="M489.895,125.459c0,.016.127.02.336.1a1.553,1.553,0,0,1,.728.562,1.309,1.309,0,0,1,.163,1.285,1.37,1.37,0,0,1-2.567.008,1.31,1.31,0,0,1,.155-1.286,1.553,1.553,0,0,1,.724-.566c.209-.076.337-.081.336-.1a.726.726,0,0,0-.356.033,1.576,1.576,0,0,0-1.088,1.186,1.387,1.387,0,0,0,.082.792,1.522,1.522,0,0,0,2.861-.009,1.384,1.384,0,0,0,.077-.792,1.575,1.575,0,0,0-1.095-1.179.726.726,0,0,0-.357-.031" transform="translate(-276.57 -71.054)" fill="#263238"/>
            <path id="Trazado_600797" data-name="Trazado 600797" d="M504.937,55.618s0-.1-.018-.3-.04-.5-.071-.885q-.024-.292-.054-.651c-.009-.241,0-.5.006-.789s.01-.592.014-.92a3.229,3.229,0,0,1,.036-.506l.062-.536a17.771,17.771,0,0,1,1.351-5.2,18.547,18.547,0,0,1,3.945-5.89l.712-.706c.254-.223.525-.433.791-.653l.4-.33a3.586,3.586,0,0,1,.421-.317l.891-.594c.15-.1.3-.2.454-.3l.484-.258.983-.524c.336-.166.693-.293,1.044-.444l.532-.219c.089-.036.177-.076.268-.108l.278-.083a17.293,17.293,0,0,1,2.289-.6c.4-.07.79-.165,1.193-.215l1.227-.11c.206-.014.412-.045.62-.047l.627.007c.419.01.842,0,1.266.026a19.669,19.669,0,0,1,2.555.373l.642.137c.107.024.216.044.322.072l.315.1,1.27.406c.418.156.826.349,1.243.522.205.094.421.168.619.279l.6.329a20.876,20.876,0,0,1,2.338,1.479l1.081.9.271.225c.086.081.167.167.251.25l.5.5.5.506.456.553.456.557.229.279c.071.1.135.2.2.3l.808,1.209.691,1.292a18.409,18.409,0,0,1,1.639,11.61q-.154.719-.307,1.434l-.442,1.386-.112.344-.142.332-.284.662-.285.658-.343.626-.342.623-.172.31-.2.292-.79,1.162a20.778,20.778,0,0,1-1.837,2.069l-.484.482c-.16.161-.347.292-.518.44-.353.282-.691.58-1.05.846l-1.108.741-.275.184c-.095.056-.193.1-.29.158l-.579.31a19.717,19.717,0,0,1-2.353,1.066c-.4.143-.81.25-1.21.376l-.6.181c-.2.056-.407.084-.609.127l-1.209.235c-.4.062-.808.08-1.207.123a17.329,17.329,0,0,1-2.366.058l-.291,0c-.1-.005-.192-.02-.288-.029l-.571-.063c-.378-.048-.757-.071-1.126-.138l-1.089-.232-.537-.114-.518-.162-1.021-.324a3.672,3.672,0,0,1-.492-.188l-.48-.205c-.317-.139-.635-.265-.94-.409l-.88-.481a18.556,18.556,0,0,1-5.42-4.568c-.166-.2-.333-.4-.489-.6l-.416-.62-.4-.6c-.064-.1-.134-.192-.191-.291l-.162-.3-.612-1.137c-.184-.366-.316-.736-.464-1.075l-.208-.5a3.215,3.215,0,0,1-.174-.477l-.268-.88c-.08-.274-.166-.523-.224-.756l-.128-.641-.177-.87c-.041-.2-.066-.3-.066-.3s.013.1.049.3l.16.874.12.644c.055.235.139.485.217.76l.261.885a3.246,3.246,0,0,0,.171.48l.205.5c.146.341.276.713.459,1.082l.608,1.146.161.3c.057.1.126.194.19.294l.4.6.415.625c.155.2.323.4.489.605a18.593,18.593,0,0,0,5.436,4.614l.884.487c.308.146.628.274.946.415l.482.208a3.634,3.634,0,0,0,.495.19l1.027.329c.173.055.346.114.522.165l.541.116,1.1.236c.371.069.752.092,1.134.141l.575.065c.1.01.193.025.29.03l.293,0a17.454,17.454,0,0,0,2.384-.054c.4-.042.811-.059,1.216-.122l1.22-.234c.2-.043.412-.071.614-.127L528.6,71c.4-.126.817-.233,1.221-.377A19.76,19.76,0,0,0,532.2,69.55l.585-.312c.1-.053.2-.1.292-.159l.278-.186,1.119-.746c.362-.268.7-.568,1.06-.852.173-.148.361-.281.523-.443l.49-.486A21.1,21.1,0,0,0,538.4,64.28l.8-1.172.2-.295.173-.312.346-.629.346-.632.288-.663.287-.668.144-.335.113-.347.446-1.4.31-1.447A18.569,18.569,0,0,0,540.2,44.665l-.7-1.3-.816-1.22c-.069-.1-.134-.2-.205-.3l-.231-.282-.46-.562-.461-.558-.508-.511-.506-.509c-.085-.084-.167-.17-.253-.252l-.274-.228-1.091-.9a21.057,21.057,0,0,0-2.36-1.491l-.6-.331c-.2-.111-.418-.186-.625-.281-.42-.175-.832-.369-1.254-.526L528.571,35l-.318-.1c-.108-.028-.217-.048-.325-.072l-.648-.138a19.778,19.778,0,0,0-2.578-.373c-.428-.027-.855-.015-1.277-.025l-.632-.007c-.209,0-.418.033-.625.048l-1.237.112c-.407.052-.8.148-1.2.22a17.379,17.379,0,0,0-2.306.607l-.281.085c-.092.032-.18.073-.27.109l-.535.222c-.353.153-.713.281-1.05.45l-.989.53-.487.261c-.155.1-.3.2-.456.3l-.9.6a3.729,3.729,0,0,0-.423.32l-.406.333c-.267.223-.539.435-.794.66l-.715.713a18.594,18.594,0,0,0-3.947,5.938,17.7,17.7,0,0,0-1.328,5.228c-.02.185-.039.364-.059.539a3.266,3.266,0,0,0-.032.508q0,.494-.006.923c0,.286-.01.55,0,.79s.044.457.063.652q.057.579.088.885c.021.2.036.3.036.3" transform="translate(-285.883 -19.417)" fill="#263238"/>
          </g>
        </g>
        <g id="Grupo_878378" data-name="Grupo 878378">
          <g id="Grupo_878377" data-name="Grupo 878377" clip-path="url(#clip-path)">
            <path id="Trazado_600798" data-name="Trazado 600798" d="M295.329,364c0,.062-63.76.113-142.394.113-78.661,0-142.408-.05-142.408-.113s63.747-.113,142.408-.113c78.634,0,142.394.05,142.394.113" transform="translate(-5.962 -206.105)" fill="#263238"/>
          </g>
        </g>
        <g id="Grupo_878380" data-name="Grupo 878380">
          <g id="Grupo_878379" data-name="Grupo 878379" clip-path="url(#clip-path)">
            <path id="Trazado_600799" data-name="Trazado 600799" d="M486.179,162.578a12.89,12.89,0,0,0-10.5-9.532,8.17,8.17,0,0,0-5.695-13,8.192,8.192,0,0,0-4.819-12.075c-1.48-.417-3.113-.432-4.415-1.251-1.426-.9-2.141-2.555-3.166-3.893a9.753,9.753,0,0,0-11.574-2.785l-3.5,7.311q5.491,17.68,10.982,35.36c1.131,3.641,2.33,7.4,4.874,10.243a17.6,17.6,0,0,0,11.08,5.254c4.028.487,8.328-.078,11.663-2.389a12.889,12.889,0,0,0,5.066-13.245" transform="translate(-250.635 -67.506)" fill="#263238"/>
            <path id="Trazado_600800" data-name="Trazado 600800" d="M482.189,154.4a7.274,7.274,0,0,0,1.941-.217,7.19,7.19,0,0,0,2.1-.936,7.4,7.4,0,0,0,2.142-2.18,7.034,7.034,0,0,0,1.065-3.556,8.361,8.361,0,0,0-.992-4.189,8.54,8.54,0,0,0-3.4-3.382,9.977,9.977,0,0,0-5.083-1.228l-.186.005.083-.166a8.531,8.531,0,0,0,.5-6.2,8.252,8.252,0,0,0-3.969-4.848,8.013,8.013,0,0,0-1.411-.62,7.532,7.532,0,0,0-1.471-.345,10.229,10.229,0,0,1-2.947-.482,2.848,2.848,0,0,1-1.109-.961,7.387,7.387,0,0,1-.676-1.238,11.1,11.1,0,0,0-1.278-2.309,10.073,10.073,0,0,0-3.586-3.035,9.734,9.734,0,0,0-3.759-1.006,10.413,10.413,0,0,0-2.943.25,9.961,9.961,0,0,0-1.778.593c-.2.08-.343.161-.444.2a.891.891,0,0,1-.154.065.915.915,0,0,1,.144-.086c.1-.051.238-.138.436-.225a9.209,9.209,0,0,1,1.776-.637,10.307,10.307,0,0,1,2.971-.291,9.8,9.8,0,0,1,3.823.99,10.2,10.2,0,0,1,3.666,3.066,11.261,11.261,0,0,1,1.308,2.338,3.87,3.87,0,0,0,1.694,2.093,10.205,10.205,0,0,0,2.887.456,7.734,7.734,0,0,1,1.511.351,8.2,8.2,0,0,1,1.449.633,8.463,8.463,0,0,1,4.079,4.977,8.737,8.737,0,0,1-.52,6.36l-.1-.16a10.174,10.174,0,0,1,5.192,1.265,8.723,8.723,0,0,1,3.468,3.475,8.516,8.516,0,0,1,.993,4.287,7.157,7.157,0,0,1-1.115,3.626,7.447,7.447,0,0,1-2.2,2.2,7.136,7.136,0,0,1-2.144.917,6.168,6.168,0,0,1-1.453.175l-.379-.02a.622.622,0,0,1-.128-.013" transform="translate(-257.616 -66.482)" fill="#263238"/>
            <path id="Trazado_600801" data-name="Trazado 600801" d="M416.284,315.014a10.746,10.746,0,0,0,2.473-4.7,144.914,144.914,0,0,0,4.091-15.705l-5.216-12.158Z" transform="translate(-235.779 -159.978)" fill="#583cb6"/>
            <path id="Trazado_600802" data-name="Trazado 600802" d="M467.17,222.368l-17.945-3.43-33.389,10.2.684,26.162,5.746,26.937h46.473l1.8-33.7Z" transform="translate(-235.526 -124.005)" fill="#583cb6"/>
            <path id="Trazado_600803" data-name="Trazado 600803" d="M534.224,226.729s7.692,1.419,10.882,5.19,34.488,34.312,35.958,43.133L555.9,273.166l-18.3-20.263Z" transform="translate(-302.58 -128.417)" fill="#583cb6"/>
            <path id="Trazado_600804" data-name="Trazado 600804" d="M540.149,255.813a4.784,4.784,0,0,1-.155-.735c-.082-.476-.191-1.168-.286-2.027a45.557,45.557,0,0,1-.278-6.749,35.314,35.314,0,0,1,.336-3.71,21.738,21.738,0,0,1,.654-2.972l.179-.591.2-.516a7.274,7.274,0,0,1,.343-.813,4.777,4.777,0,0,1,.352-.664,4.761,4.761,0,0,1-.271.7c-.1.218-.194.5-.3.822l-.178.517-.163.591a23.829,23.829,0,0,0-.6,2.958c-.157,1.127-.261,2.374-.316,3.687a53.475,53.475,0,0,0,.211,6.724c.074.859.159,1.552.214,2.031a4.724,4.724,0,0,1,.068.748" transform="translate(-305.514 -134.255)" fill="#263238"/>
            <path id="Trazado_600805" data-name="Trazado 600805" d="M419.481,312.408a2.917,2.917,0,0,1,.146.551c.085.4.193.911.321,1.518.27,1.328.626,3.077,1.019,5.012.4,1.957.777,3.726,1.067,5l.352,1.509a2.721,2.721,0,0,1,.114.558,2.7,2.7,0,0,1-.2-.535c-.113-.349-.258-.859-.422-1.494-.331-1.269-.731-3.034-1.133-4.993s-.731-3.737-.955-5.028c-.112-.645-.2-1.169-.251-1.531a2.686,2.686,0,0,1-.059-.567" transform="translate(-237.587 -176.945)" fill="#263238"/>
            <path id="Trazado_600806" data-name="Trazado 600806" d="M493.843,288.6a42.154,42.154,0,0,1-.938-6.087,42.1,42.1,0,0,1,.938,6.087" transform="translate(-279.169 -160.014)" fill="#fafafa"/>
            <path id="Trazado_600807" data-name="Trazado 600807" d="M455.183,302.371a32.047,32.047,0,0,1,2.03-4.983,32.039,32.039,0,0,1-2.03,4.983" transform="translate(-257.808 -168.438)" fill="#fafafa"/>
            <path id="Trazado_600808" data-name="Trazado 600808" d="M477.124,327.055c-.058.036-.83-1.182-1.953-2.554s-2.153-2.379-2.107-2.429a3.468,3.468,0,0,1,.731.6,18.649,18.649,0,0,1,2.884,3.54,3.468,3.468,0,0,1,.444.838" transform="translate(-267.938 -182.418)" fill="#fafafa"/>
            <path id="Trazado_600809" data-name="Trazado 600809" d="M512.255,316.022a19.444,19.444,0,0,1-3.171,2.729,19.437,19.437,0,0,1,3.171-2.729" transform="translate(-288.34 -178.991)" fill="#fafafa"/>
            <path id="Trazado_600810" data-name="Trazado 600810" d="M436.011,340.646a42.424,42.424,0,0,1-5.563-2.714,42.449,42.449,0,0,1,5.563,2.714" transform="translate(-243.802 -191.4)" fill="#fafafa"/>
            <path id="Trazado_600811" data-name="Trazado 600811" d="M524.149,280.337a12.867,12.867,0,0,1-2.58,2.219,12.87,12.87,0,0,1,2.58-2.219" transform="translate(-295.411 -158.778)" fill="#fafafa"/>
            <path id="Trazado_600812" data-name="Trazado 600812" d="M519.871,243.879a27.905,27.905,0,0,1,1.476-4.8,27.977,27.977,0,0,1-1.476,4.8" transform="translate(-294.445 -135.413)" fill="#fafafa"/>
            <path id="Trazado_600813" data-name="Trazado 600813" d="M474.7,270.855a23.665,23.665,0,0,1-4.614,0,23.652,23.652,0,0,1,4.614,0" transform="translate(-266.252 -153.346)" fill="#fafafa"/>
            <path id="Trazado_600814" data-name="Trazado 600814" d="M427.52,299.095a40.323,40.323,0,0,1,2.4-5.536,40.4,40.4,0,0,1-2.4,5.536" transform="translate(-242.141 -166.269)" fill="#fafafa"/>
            <path id="Trazado_600815" data-name="Trazado 600815" d="M551.369,278.423a22.681,22.681,0,0,1-.931-4.427,22.712,22.712,0,0,1,.931,4.427" transform="translate(-311.756 -155.189)" fill="#fafafa"/>
            <path id="Trazado_600816" data-name="Trazado 600816" d="M559.092,256.07a32.694,32.694,0,0,1-5.174-1.638,32.7,32.7,0,0,1,5.174,1.638" transform="translate(-313.734 -144.104)" fill="#fafafa"/>
            <path id="Trazado_600817" data-name="Trazado 600817" d="M572.677,282.362a15.436,15.436,0,0,1,.56-3.69,15.5,15.5,0,0,1-.56,3.69" transform="translate(-324.347 -157.837)" fill="#fafafa"/>
            <path id="Trazado_600818" data-name="Trazado 600818" d="M597.258,293.947a61.454,61.454,0,0,1-4.985-5.535,61.439,61.439,0,0,1,4.985,5.535" transform="translate(-335.457 -163.354)" fill="#fafafa"/>
            <path id="Trazado_600819" data-name="Trazado 600819" d="M575.691,308.078a46.173,46.173,0,0,1-3.865-5.175,46.263,46.263,0,0,1,3.865,5.175" transform="translate(-323.876 -171.561)" fill="#fafafa"/>
            <path id="Trazado_600820" data-name="Trazado 600820" d="M602.779,316.17c-.034.058-1.1-.54-2.492-1.114s-2.564-.914-2.548-.98a12.615,12.615,0,0,1,5.04,2.093" transform="translate(-338.554 -177.886)" fill="#fafafa"/>
            <path id="Trazado_600821" data-name="Trazado 600821" d="M457.9,344.931a23.275,23.275,0,0,1,0-4.575,23.263,23.263,0,0,1,0,4.575" transform="translate(-259.289 -192.774)" fill="#fafafa"/>
            <path id="Trazado_600822" data-name="Trazado 600822" d="M527.571,328.324a15.422,15.422,0,0,1-2.517-2.745,15.394,15.394,0,0,1,2.517,2.745" transform="translate(-297.385 -184.404)" fill="#fafafa"/>
            <path id="Trazado_600823" data-name="Trazado 600823" d="M534.346,298.043a18.865,18.865,0,0,1-.008-4.118,18.855,18.855,0,0,1,.008,4.118" transform="translate(-302.582 -166.477)" fill="#fafafa"/>
            <path id="Trazado_600824" data-name="Trazado 600824" d="M492.032,319.338a26.476,26.476,0,0,1-.98-4.791,26.487,26.487,0,0,1,.98,4.791" transform="translate(-278.121 -178.157)" fill="#fafafa"/>
            <path id="Trazado_600825" data-name="Trazado 600825" d="M435.263,317.649a31.615,31.615,0,0,1-4.571-2.753,31.539,31.539,0,0,1,4.571,2.753" transform="translate(-243.94 -178.353)" fill="#fafafa"/>
            <path id="Trazado_600826" data-name="Trazado 600826" d="M449.415,272.3a3.947,3.947,0,0,1-.215,1.023,16.315,16.315,0,0,1-2.129,4.555,3.973,3.973,0,0,1-.647.821,6,6,0,0,1,.512-.907c.327-.55.758-1.322,1.172-2.2s.728-1.709.941-2.313a6.112,6.112,0,0,1,.367-.974" transform="translate(-252.849 -154.227)" fill="#fafafa"/>
            <path id="Trazado_600827" data-name="Trazado 600827" d="M505.044,255.137a9.368,9.368,0,0,0-3.2-3.437,5.514,5.514,0,0,1,3.2,3.437" transform="translate(-284.24 -142.558)" fill="#fafafa"/>
            <path id="Trazado_600828" data-name="Trazado 600828" d="M513.786,226.9a11.3,11.3,0,0,1-2.974,1.144,11.3,11.3,0,0,1,2.974-1.144" transform="translate(-289.319 -128.511)" fill="#fafafa"/>
            <path id="Trazado_600829" data-name="Trazado 600829" d="M451.107,161.247s6.07-4.312,3.242-13.594c-1.406-4.616-5.042-11.537-8.2-17.1-2.843-5.01-9.393-9.858-16.268-6.483,0,0-15.557,6.223-10.675,18.059l14.33,31.855a10.448,10.448,0,0,0,19.345-7.861Z" transform="translate(-236.897 -69.635)" fill="#eb996e"/>
            <path id="Trazado_600830" data-name="Trazado 600830" d="M481.193,160.759a1.229,1.229,0,0,1-.522,1.633,1.175,1.175,0,0,1-1.624-.441,1.23,1.23,0,0,1,.521-1.634,1.177,1.177,0,0,1,1.626.442" transform="translate(-271.252 -90.712)" fill="#263238"/>
            <path id="Trazado_600831" data-name="Trazado 600831" d="M479.19,153.917c-.067.211-1.206,0-2.393.581-1.195.565-1.77,1.6-1.969,1.519-.094-.033-.081-.362.163-.823a3.375,3.375,0,0,1,1.49-1.394,3.238,3.238,0,0,1,1.992-.283c.5.1.753.3.717.4" transform="translate(-268.907 -86.921)" fill="#263238"/>
            <path id="Trazado_600832" data-name="Trazado 600832" d="M455.307,172.672a1.23,1.23,0,0,1-.523,1.634,1.176,1.176,0,0,1-1.624-.442,1.23,1.23,0,0,1,.521-1.634,1.177,1.177,0,0,1,1.626.442" transform="translate(-256.59 -97.459)" fill="#263238"/>
            <path id="Trazado_600833" data-name="Trazado 600833" d="M453.945,166.627c-.067.211-1.207,0-2.393.581-1.194.565-1.769,1.6-1.969,1.518-.1-.033-.083-.361.163-.823a3.37,3.37,0,0,1,1.49-1.394,3.241,3.241,0,0,1,1.992-.283c.5.1.753.3.717.4" transform="translate(-254.608 -94.119)" fill="#263238"/>
            <path id="Trazado_600834" data-name="Trazado 600834" d="M470.4,169.406a8.743,8.743,0,0,1,1.762-1.289c.288-.179.546-.379.5-.611-.035-.255-.322-.519-.641-.8l-2.024-1.874a44.135,44.135,0,0,1-4.961-5.066,44.327,44.327,0,0,1,5.358,4.654q1.043,1,1.992,1.907a1.954,1.954,0,0,1,.738,1.115.849.849,0,0,1-.283.687,2.293,2.293,0,0,1-.48.323,8.6,8.6,0,0,1-1.956.956" transform="translate(-263.388 -90.487)" fill="#263238"/>
            <path id="Trazado_600835" data-name="Trazado 600835" d="M476.986,211.278a24.377,24.377,0,0,1-13.038,2.541s5.682,4.866,13.912-.14Z" transform="translate(-262.776 -119.666)" fill="#eb7741"/>
            <path id="Trazado_600836" data-name="Trazado 600836" d="M475.195,189.838a1.164,1.164,0,0,0-1.921-1,1.032,1.032,0,0,0-1.093-.642,1.479,1.479,0,0,0-1.071.777,2.028,2.028,0,0,0,.436,2.42,2.22,2.22,0,0,0,2.479.258,2.455,2.455,0,0,0,1.225-2.2" transform="translate(-266.704 -106.587)" fill="#eb7741"/>
            <path id="Trazado_600837" data-name="Trazado 600837" d="M473.9,192.8c-.2.091-.728-1.242-2.246-1.735s-2.88.218-2.965.036c-.052-.076.214-.385.807-.64a3.574,3.574,0,0,1,2.445-.1,3.11,3.11,0,0,1,1.8,1.489c.273.537.255.927.161.956" transform="translate(-265.459 -107.723)" fill="#263238"/>
            <path id="Trazado_600838" data-name="Trazado 600838" d="M445.482,161.368c-.059-.378,1.181-.865,2.45-1.776,1.288-.886,2.166-1.887,2.5-1.7.155.091.127.493-.149,1.042a5.261,5.261,0,0,1-3.772,2.65c-.61.073-1-.036-1.03-.213" transform="translate(-252.316 -89.415)" fill="#263238"/>
            <path id="Trazado_600839" data-name="Trazado 600839" d="M471.143,149.03c.067-.374,1.019-.519,2-1.014,1-.46,1.7-1.116,2.034-.936.154.092.163.426-.064.866a3.242,3.242,0,0,1-3.248,1.571c-.486-.094-.742-.31-.719-.487" transform="translate(-266.85 -83.288)" fill="#263238"/>
            <path id="Trazado_600840" data-name="Trazado 600840" d="M406.587,169.954a9.021,9.021,0,0,1-1.46-3.2c-.169-1.166.2-2.345.142-3.521-.133-2.962-2.734-5.105-4.931-7.1s-4.348-4.9-3.295-7.671c1.018-2.678,4.585-3.765,5.457-6.494.714-2.234-.681-4.713-.057-6.975.71-2.573,3.625-3.76,5.369-5.78,2.162-2.5,3.71-6.537,1.71-9.174l-1.4-.36a3.847,3.847,0,0,0-4.462-1.326,9.359,9.359,0,0,0-3.939,3.024,18.916,18.916,0,0,1-3.521,3.567c-2.379,1.6-5.878,2.07-6.933,4.734-.879,2.219.482,5-.811,7.011-1.043,1.618-3.351,1.945-4.585,3.423a4.753,4.753,0,0,0-.715,4.194,14.053,14.053,0,0,0,1.956,3.94c-3.464,1.321-7.073,2.74-9.511,5.532s-3.223,7.4-.7,10.12c1.124,1.208,2.939,2.48,2.333,4.015a3.764,3.764,0,0,1-1.268,1.375,10.66,10.66,0,1,0,15.868,13.78c-.442,1.92,1.032,3.882,2.865,4.606a10.187,10.187,0,0,0,5.824.077,12.5,12.5,0,0,0,6.037-2.7,9.4,9.4,0,0,0,2.685-7.445,17.2,17.2,0,0,0-2.657-7.652" transform="translate(-210.746 -66.911)" fill="#263238"/>
            <path id="Trazado_600841" data-name="Trazado 600841" d="M440.387,131.584c.818,1.869-1.229,5.927-2.727,7.313s-3.332,2.626-3.95,4.571c-.943,2.967,1.372,6.273.348,9.213-.722,2.071-3.008,3.6-2.9,5.789.137,2.664,3.638,3.86,4.579,6.357.8,2.129.223,4.2,1.01,6.33a13.214,13.214,0,0,0,2.519,3.748c2.036,2.315,3.529,5.408,2.991,8.544-.75,4.369-2.419,8.124-5.17,9.517L427.9,180.757l-.717-19.5-.573-9.756,3.544-2.6,1.327-9.61Z" transform="translate(-241.627 -74.528)" fill="#263238"/>
            <path id="Trazado_600842" data-name="Trazado 600842" d="M390.013,190.215,377.5,230.484s-5.463,23.39,7,22.878,10.414-6.88,10.414-6.88l.125-48.1s2.284-4.056,2.265-7.171c-.021-3.473.813-13.42.813-13.42s3.132-9.037,2.041-9.438c-2.083-.765-5.586,9.2-5.586,9.2s1,1.877-.711,7-3.849,5.659-3.849,5.659" transform="translate(-213.137 -95.333)" fill="#eb996e"/>
            <path id="Trazado_600843" data-name="Trazado 600843" d="M415.46,122.524a.832.832,0,0,1,.108.121,2.288,2.288,0,0,1,.262.4,5.233,5.233,0,0,1,.475,1.764,8.8,8.8,0,0,1-.139,2.889,7.1,7.1,0,0,1-2.021,3.234c-.99,1.025-2.241,1.964-3.342,3.2a7.755,7.755,0,0,0-1.379,2.133c-.349.807-.6,1.691-1,2.551a5.109,5.109,0,0,1-.783,1.216,4.853,4.853,0,0,1-1.15.933c-.847.521-1.8.868-2.613,1.456a9.115,9.115,0,0,0-3.289,5.15,30.753,30.753,0,0,0-.809,6.225,22.264,22.264,0,0,1-.964,5.81,9.409,9.409,0,0,1-3,4.369,6.128,6.128,0,0,1-2.18,1.072,10.285,10.285,0,0,1-2.222.253,10.2,10.2,0,0,0-1.991.216,3.976,3.976,0,0,0-1.591.748,2.459,2.459,0,0,0-.825,1.264c-.131.457-.183.9-.281,1.285a2.111,2.111,0,0,1-1.017,1.479,1.035,1.035,0,0,1-.466.108.74.74,0,0,1-.162-.02,1.207,1.207,0,0,0,.607-.13,2.081,2.081,0,0,0,.952-1.458c.09-.383.134-.823.263-1.295a2.564,2.564,0,0,1,.847-1.331,4.086,4.086,0,0,1,1.636-.791,10.234,10.234,0,0,1,2.019-.236,10.2,10.2,0,0,0,2.186-.262,5.961,5.961,0,0,0,2.11-1.052,9.24,9.24,0,0,0,2.922-4.29,22.216,22.216,0,0,0,.94-5.756,30.685,30.685,0,0,1,.812-6.27,11.807,11.807,0,0,1,1.258-2.967,7.664,7.664,0,0,1,2.121-2.3c.846-.607,1.8-.953,2.628-1.459a4.632,4.632,0,0,0,1.1-.889,4.9,4.9,0,0,0,.754-1.166c.4-.835.649-1.718,1.007-2.54a7.929,7.929,0,0,1,1.421-2.178c1.126-1.25,2.382-2.18,3.368-3.188a10.194,10.194,0,0,0,1.281-1.54,4.816,4.816,0,0,0,.731-1.611,8.884,8.884,0,0,0,.175-2.851,5.437,5.437,0,0,0-.428-1.754,5.212,5.212,0,0,0-.328-.54" transform="translate(-218.104 -69.396)" fill="#455a64"/>
            <path id="Trazado_600844" data-name="Trazado 600844" d="M424.535,122.524s.022.026.056.085l.145.265a1.933,1.933,0,0,1,.05,1.148,7.841,7.841,0,0,1-2.629,3.272c-.672.582-1.4,1.241-2.236,1.875a16.5,16.5,0,0,0-2.479,2.2,5.765,5.765,0,0,0-.932,1.5,10.8,10.8,0,0,0-.51,1.794,10.216,10.216,0,0,1-.555,1.894,4.453,4.453,0,0,1-1.244,1.623,6.906,6.906,0,0,1-1.763,1.022c-.614.264-1.234.475-1.838.686s-1.2.42-1.75.678a6.384,6.384,0,0,0-1.519.918,5.153,5.153,0,0,0-1.676,2.759c-.281,1-.43,1.969-.664,2.834a5.215,5.215,0,0,1-2.379,3.4,2.491,2.491,0,0,1-1.116.284,2.125,2.125,0,0,1-.3-.022.333.333,0,0,1-.1-.018c0-.011.14,0,.4-.006a2.562,2.562,0,0,0,1.076-.317,5.183,5.183,0,0,0,2.265-3.365c.222-.858.361-1.826.639-2.845a5.326,5.326,0,0,1,1.723-2.867,6.565,6.565,0,0,1,1.562-.954c.564-.265,1.162-.476,1.766-.691s1.221-.424,1.823-.684a6.707,6.707,0,0,0,1.708-.99,4.235,4.235,0,0,0,1.182-1.539,10.092,10.092,0,0,0,.545-1.851,10.938,10.938,0,0,1,.526-1.829,5.94,5.94,0,0,1,.972-1.555,16.411,16.411,0,0,1,2.523-2.217c.839-.625,1.565-1.271,2.246-1.848A7.96,7.96,0,0,0,424.7,124a1.949,1.949,0,0,0-.008-1.109l-.123-.269a.392.392,0,0,1-.036-.1" transform="translate(-227.178 -69.396)" fill="#455a64"/>
            <path id="Trazado_600845" data-name="Trazado 600845" d="M432.173,177.072a1.788,1.788,0,0,1,0,.516,3.79,3.79,0,0,1-.475,1.4,6.115,6.115,0,0,1-1.545,1.754,8.789,8.789,0,0,0-2,2.3,10.252,10.252,0,0,0-1.016,7.7,9.736,9.736,0,0,0,.348,1.082,8.534,8.534,0,0,0,.47,1.064c.357.7.784,1.385,1.217,2.086a11.092,11.092,0,0,1,1.936,4.721,4.744,4.744,0,0,1-.457,2.574,7.841,7.841,0,0,1-1.53,2.024c-.585.588-1.2,1.118-1.76,1.671a19.928,19.928,0,0,0-1.56,1.7,13.655,13.655,0,0,0-2.169,3.654,8.992,8.992,0,0,0-.637,3.627,8.182,8.182,0,0,0,.69,2.965,6.9,6.9,0,0,0,1.267,1.923,6.714,6.714,0,0,0,1.557,1.208A.566.566,0,0,1,426.4,221l-.341-.178c-.146-.086-.317-.207-.522-.347a6.49,6.49,0,0,1-.639-.569,6.847,6.847,0,0,1-1.319-1.932,8.237,8.237,0,0,1-.735-3.009,9.112,9.112,0,0,1,.621-3.7,13.761,13.761,0,0,1,2.182-3.718,19.946,19.946,0,0,1,1.571-1.728c.567-.56,1.178-1.091,1.754-1.672a7.635,7.635,0,0,0,1.486-1.967,4.52,4.52,0,0,0,.434-2.455,7.687,7.687,0,0,0-.689-2.442,19.991,19.991,0,0,0-1.211-2.183c-.431-.7-.86-1.391-1.221-2.1a8.789,8.789,0,0,1-.475-1.087,9.912,9.912,0,0,1-.352-1.105,10.376,10.376,0,0,1,1.081-7.834,8.837,8.837,0,0,1,2.054-2.319,6.141,6.141,0,0,0,1.549-1.7,3.943,3.943,0,0,0,.506-1.363c.049-.331.029-.51.042-.51" transform="translate(-239.488 -100.292)" fill="#455a64"/>
            <path id="Trazado_600846" data-name="Trazado 600846" d="M392.014,376.2l38.368-3.24-33.009-9.637-35.281.9Z" transform="translate(-205.086 -205.783)" fill="#fff"/>
            <path id="Trazado_600847" data-name="Trazado 600847" d="M391.408,376.053s-.187-.065-.547-.2l-1.594-.623-6.06-2.4-21.756-8.665-.429-.171.462-.012,35.281-.917h.017l.017,0,2.573.751,30.432,8.9.52.152-.54.045-27.762,2.3-7.835.633-2.07.16-.531.037c-.119.007-.179.007-.179.007s.062-.01.181-.023l.533-.053,2.073-.19,7.837-.69,27.735-2.384-.02.2-30.438-8.874-2.573-.751.034,0-35.281.881.033-.183,21.709,8.734,6.047,2.449,1.588.65c.359.149.543.233.543.233" transform="translate(-204.479 -205.636)" fill="#263238"/>
            <path id="Trazado_600848" data-name="Trazado 600848" d="M478.244,373.293l36.908-2.724-35.2-6.658H446.595Z" transform="translate(-252.947 -206.116)" fill="#e0e0e0"/>
            <path id="Trazado_600849" data-name="Trazado 600849" d="M477.377,373.146s-.2-.048-.579-.156l-1.688-.486-6.415-1.874L445.7,363.856l-.637-.187h.664l33.359-.017h.01l.01,0,3.171.6,32.024,6.071.751.142-.762.055-26.728,1.932-7.522.527-1.985.131-.509.03c-.114.006-.172,0-.172,0s.059-.01.173-.021l.51-.046,1.987-.162,7.523-.583,26.707-2.013-.011.2-32.029-6.045-3.171-.6.021,0-33.359-.017.027-.188,22.957,6.848,6.4,1.926,1.684.514c.381.117.576.186.576.186" transform="translate(-252.08 -205.969)" fill="#263238"/>
            <path id="Trazado_600850" data-name="Trazado 600850" d="M476.229,365.769s.865-8.018,7.519-7.36,15.485,5.126,22.742,5.126l7.793-.606-16.616-3.421s-41.241-8.71-41.241-8.437-13.87-3.067-13.376,5.154Z" transform="translate(-250.932 -198.592)" fill="#fff"/>
            <path id="Trazado_600851" data-name="Trazado 600851" d="M476.108,365.634s-.2-.051-.6-.162l-1.76-.5-6.712-1.906-24.136-6.89-.065-.018,0-.067a5.555,5.555,0,0,1,.3-2.289,4.217,4.217,0,0,1,1.42-1.888,8.879,8.879,0,0,1,4.6-1.468,26.153,26.153,0,0,1,5.045.15c.857.083,1.7.257,2.566.276.861.143,1.721.311,2.589.478,6.936,1.363,14.282,2.9,21.9,4.483l17.186,3.606,15.742,3.25.7.145-.717.055-7.793.6h-.007a31.459,31.459,0,0,1-7.5-1.156c-2.334-.609-4.51-1.3-6.56-1.93s-3.972-1.193-5.779-1.589c-.9-.2-1.776-.351-2.616-.449a7.076,7.076,0,0,0-2.392.062,5.769,5.769,0,0,0-3.35,2.141,9.524,9.524,0,0,0-1.431,2.634,12.921,12.921,0,0,0-.51,1.8c-.044.207-.071.365-.089.47s-.029.16-.029.16A5.62,5.62,0,0,1,476.2,365a12.038,12.038,0,0,1,.485-1.809,9.49,9.49,0,0,1,1.419-2.667,5.853,5.853,0,0,1,3.393-2.2,7.188,7.188,0,0,1,2.429-.075c.846.1,1.724.246,2.631.441,1.815.389,3.744.949,5.8,1.571s4.229,1.308,6.558,1.91a31.4,31.4,0,0,0,7.462,1.134h-.007l7.792-.612-.013.2L498.4,359.661l-17.187-3.6c-7.613-1.584-14.96-3.123-21.891-4.492-.867-.167-1.727-.337-2.581-.479l-.317-.046-.072-.006h-.011v0a.2.2,0,0,1-.009-.085c-.035-.028.178,0,.073.038a.134.134,0,0,1-.067.061l-.04.009a1.025,1.025,0,0,1-.188,0c-.222-.021-.434-.052-.648-.079l-1.275-.162a26.009,26.009,0,0,0-5-.156,8.694,8.694,0,0,0-4.5,1.421,4.024,4.024,0,0,0-1.359,1.8,5.378,5.378,0,0,0-.294,2.209l-.068-.085L467,362.969l6.721,1.958,1.773.52c.4.119.613.186.613.186" transform="translate(-250.811 -198.457)" fill="#263238"/>
            <path id="Trazado_600852" data-name="Trazado 600852" d="M431.418,372.111H411.982a.419.419,0,0,1-.419-.419v-.968a.419.419,0,0,1,.419-.419h19.436a.419.419,0,0,1,.419.419v.968a.419.419,0,0,1-.419.419" transform="translate(-233.106 -209.737)" fill="#263238"/>
            <path id="Trazado_600853" data-name="Trazado 600853" d="M410.259,372.4h-1.37a.188.188,0,0,1-.188-.188v-.434a.188.188,0,0,1,.188-.188h1.37a.188.188,0,0,1,.188.188v.434a.188.188,0,0,1-.188.188" transform="translate(-231.485 -210.465)" fill="#263238"/>
            <path id="Trazado_600854" data-name="Trazado 600854" d="M456.613,370.34l2.435.628v.259l-2.435.888Z" transform="translate(-258.622 -209.758)" fill="#263238"/>
            <path id="Trazado_600855" data-name="Trazado 600855" d="M411.491,370.581a.054.054,0,0,1-.054-.054v-.234a1.31,1.31,0,0,1,1.4-1.191h6.245a.054.054,0,1,1,0,.108h-6.245a1.2,1.2,0,0,0-1.293,1.082v.234a.054.054,0,0,1-.054.054" transform="translate(-233.034 -209.056)" fill="#263238"/>
            <path id="Trazado_600856" data-name="Trazado 600856" d="M432.973,384.309c.7,0,25.368-1.936,25.368-1.936" transform="translate(-245.232 -216.573)" fill="#fff"/>
            <path id="Trazado_600857" data-name="Trazado 600857" d="M458.341,382.365a1.136,1.136,0,0,1-.256.042l-.738.078-2.717.243-8.969.717-8.973.652-2.719.172-.739.035a1.1,1.1,0,0,1-.258,0,1.158,1.158,0,0,1,.258-.042l.739-.078,2.717-.243,8.966-.718,8.967-.651,2.72-.172.741-.035a1.105,1.105,0,0,1,.259,0" transform="translate(-245.232 -216.565)" fill="#263238"/>
            <path id="Trazado_600858" data-name="Trazado 600858" d="M423.579,380.445c.7,0,25.368-1.936,25.368-1.936" transform="translate(-239.911 -214.384)" fill="#fff"/>
            <path id="Trazado_600859" data-name="Trazado 600859" d="M448.947,378.5a1.134,1.134,0,0,1-.256.042l-.738.078-2.717.243-8.969.717-8.973.652-2.719.172-.739.035a.131.131,0,1,1,0-.046l.739-.078,2.717-.243,8.966-.718,8.967-.651,2.72-.172.741-.035a1.113,1.113,0,0,1,.259,0" transform="translate(-239.911 -214.375)" fill="#263238"/>
            <path id="Trazado_600860" data-name="Trazado 600860" d="M535.592,327.11l-25,4.1s-13.068-2.487-14.733-2.2c-3.258.566-11.1,7.66-11.1,7.66-.519,3.318,4.044,1.417,4.044,1.417s.035.754,1.3,1.4c1.1.564,3.288-.486,3.288-.486s-.557.735,1.192,1.468,4.094-.552,4.094-.552a2.093,2.093,0,0,0,2.148,1.346,33.638,33.638,0,0,0,5.978-1.325c5.826,3.2,9.193.655,9.193.655l20.168,1.724,17.6-.9s4.082-8.158-3.791-17.394Z" transform="translate(-274.541 -183.529)" fill="#eb996e"/>
            <path id="Trazado_600861" data-name="Trazado 600861" d="M506.9,343.094a2.876,2.876,0,0,1-.58.05l-1.584.052-2.349.048a4.139,4.139,0,0,0-1.336.127,2.052,2.052,0,0,0-.605.336l-.578.486c-1.563,1.311-2.985,2.488-4.022,3.332l-1.235.99a2.859,2.859,0,0,1-.473.339,2.888,2.888,0,0,1,.417-.407l1.19-1.045c1.012-.875,2.419-2.073,3.983-3.384l.579-.485a2.245,2.245,0,0,1,.673-.369,2.277,2.277,0,0,1,.729-.125h3.028l1.583.02a2.906,2.906,0,0,1,.581.038" transform="translate(-279.876 -194.292)" fill="#eb7741"/>
            <path id="Trazado_600862" data-name="Trazado 600862" d="M514.571,348.48a1.463,1.463,0,0,1-.394.092c-.256.046-.628.1-1.091.172-.925.137-2.211.312-3.652.495l.057-.024-.315.25c-1.212.959-2.317,1.818-3.123,2.43-.4.306-.732.551-.962.716a1.637,1.637,0,0,1-.372.238,1.692,1.692,0,0,1,.318-.307c.214-.186.527-.45.918-.772.781-.644,1.869-1.522,3.08-2.48l.315-.249.026-.02.031,0c1.442-.179,2.731-.328,3.661-.424.465-.049.84-.084,1.1-.1a1.463,1.463,0,0,1,.4-.008" transform="translate(-285.868 -197.371)" fill="#eb7741"/>
            <path id="Trazado_600863" data-name="Trazado 600863" d="M525.29,354.456a7.746,7.746,0,0,1-1.312.2c-.814.093-1.939.206-3.184.317l.048-.016-.013.008c-1.081.637-2.066,1.2-2.785,1.6a7.761,7.761,0,0,1-1.186.606,7.76,7.76,0,0,1,1.106-.744c.7-.434,1.668-1.021,2.749-1.657l.014-.008.023-.013.026,0c1.245-.111,2.372-.2,3.189-.251a7.751,7.751,0,0,1,1.326-.038" transform="translate(-292.744 -200.752)" fill="#eb7741"/>
          </g>
        </g>
        <g id="Grupo_878382" data-name="Grupo 878382">
          <g id="Grupo_878381" data-name="Grupo 878381" clip-path="url(#clip-path)">
            <path id="Trazado_600864" data-name="Trazado 600864" d="M154.78,117.384c-15.945-2.737-17.426,11.683-17.32,15.821s1.52,7.8,2.978,11.678.532,9.16-.695,13.113c-1.436,4.627-6.005,8.872-4.372,13.434,1.282,3.583,6.015,5.338,6.6,9.1.459,2.977-1.938,5.566-2.823,8.445-1.669,5.428,2.156,10.872,5.751,15.269,1.485,1.816,3.281,3.79,5.626,3.822,3.239.044,5.164-3.465,6.626-6.356a55.227,55.227,0,0,1,17.413-20.135" transform="translate(-76.476 -66.291)" fill="#263238"/>
            <path id="Trazado_600865" data-name="Trazado 600865" d="M149.212,166.233a2.955,2.955,0,0,1-.983.356,6.729,6.729,0,0,1-4.9-.777,2.981,2.981,0,0,1-.825-.643c.024-.031.342.209.9.5a7.586,7.586,0,0,0,4.794.76c.625-.107,1-.236,1.015-.2" transform="translate(-80.711 -93.549)" fill="#455a64"/>
            <path id="Trazado_600866" data-name="Trazado 600866" d="M143.547,205.968a8.122,8.122,0,0,1-.892-1.2,11.747,11.747,0,0,1-1.1-9.8,15.047,15.047,0,0,1,1.611-3.2c.666-1.048,1.42-2.086,2.115-3.192a17.47,17.47,0,0,0,2.683-10.047,18.8,18.8,0,0,0-.315-2.779,17.227,17.227,0,0,0-1.239-3.854c-.181-.445-.377-.764-.484-.993a2.515,2.515,0,0,1-.164-.35,2.436,2.436,0,0,1,.2.329,10.652,10.652,0,0,1,.523.978,16.279,16.279,0,0,1,1.316,3.86,18.5,18.5,0,0,1,.346,2.8,17.45,17.45,0,0,1-2.678,10.175c-.7,1.116-1.456,2.152-2.119,3.191a14.989,14.989,0,0,0-1.6,3.15,11.466,11.466,0,0,0-.415,5.91,11.852,11.852,0,0,0,1.4,3.781c.491.824.84,1.229.816,1.247" transform="translate(-79.83 -96.595)" fill="#455a64"/>
            <path id="Trazado_600867" data-name="Trazado 600867" d="M263.867,215.932s7.994,0,13.436,11.661c4.037,8.65,15.547,38.1,13.731,46.374-.407,1.855-1.568,5.98-4.534,6.037-5.05.1-8.585-.183-8.585-.183l-6.459-14.936-6.231-21.315s-10.036-25.618-1.358-27.637" transform="translate(-147.45 -122.302)" fill="#fad6c3"/>
            <path id="Trazado_600868" data-name="Trazado 600868" d="M219.319,278.38l-2-13.507-7.994-49.914-9.938-.745-18.679,3.71s-11.024,1.785-16.675,5.822c0,0,1.678,27.326,1.773,30.17.209,6.223,4.083,11.8,7.978,16.742l1.025,1.3-.529,7.833Z" transform="translate(-92.905 -121.329)" fill="#fad6c3"/>
            <path id="Trazado_600869" data-name="Trazado 600869" d="M120.683,227.27a24.7,24.7,0,0,0-12.912,8.237c-4.079,5.269-23.1,28.734-23.1,28.734s-9.778,5.476-11.594,11.128.027,10.658,4.266,10.658,15.2-2.9,15.2-2.9l21.291-24.38.483,4.2,4.872-21.308Z" transform="translate(-40.995 -128.724)" fill="#fad6c3"/>
            <path id="Trazado_600870" data-name="Trazado 600870" d="M266.792,265.618a1.293,1.293,0,0,1,.092.261l.222.76.8,2.8c.685,2.361,1.66,5.613,2.759,9.2l2.832,9.18c.353,1.155.642,2.1.852,2.784l.222.76a1.3,1.3,0,0,1,.063.269,1.265,1.265,0,0,1-.106-.255l-.263-.747-.921-2.763c-.764-2.337-1.8-5.573-2.9-9.162s-2.051-6.849-2.7-9.222c-.32-1.188-.576-2.149-.734-2.819-.074-.316-.134-.572-.18-.771a1.288,1.288,0,0,1-.048-.273" transform="translate(-151.107 -150.444)" fill="#263238"/>
            <path id="Trazado_600871" data-name="Trazado 600871" d="M232.412,323.366a2.7,2.7,0,0,1-.55.128,6.33,6.33,0,0,1-.655.1c-.257.027-.549.071-.875.079a15.049,15.049,0,0,1-2.287-.04,15.647,15.647,0,0,1-5.375-1.5,15.045,15.045,0,0,1-1.976-1.153c-.274-.176-.5-.366-.706-.522a6.133,6.133,0,0,1-.508-.425,2.672,2.672,0,0,1-.4-.4c.029-.034.625.506,1.706,1.209a16.813,16.813,0,0,0,1.976,1.1,16.611,16.611,0,0,0,5.307,1.485,16.738,16.738,0,0,0,2.259.088c1.289-.04,2.079-.192,2.087-.148" transform="translate(-124.083 -181.037)" fill="#263238"/>
            <path id="Trazado_600872" data-name="Trazado 600872" d="M169.242,267.716a1.058,1.058,0,0,1-.044.248c-.044.183-.1.414-.168.7-.078.3-.171.67-.26,1.1s-.213.921-.306,1.47c-.216,1.091-.412,2.4-.568,3.862a43.289,43.289,0,0,0,.08,9.54c.18,1.458.4,2.765.632,3.852.1.547.232,1.033.33,1.464s.2.8.278,1.1c.073.282.133.512.18.694a1.075,1.075,0,0,1,.048.247,1.057,1.057,0,0,1-.092-.233l-.221-.683c-.1-.3-.207-.662-.316-1.091s-.251-.914-.364-1.461c-.255-1.087-.49-2.4-.683-3.861a40.751,40.751,0,0,1-.08-9.587c.168-1.467.381-2.78.618-3.871.1-.549.235-1.036.34-1.467s.206-.8.3-1.1l.209-.687a1.07,1.07,0,0,1,.088-.235" transform="translate(-94.84 -151.632)" fill="#263238"/>
            <path id="Trazado_600873" data-name="Trazado 600873" d="M265.345,220.178c.021.04-.668.336-1.607,1.068a9.413,9.413,0,0,0-3.634,8.123c.08,1.188.319,1.9.275,1.91a2,2,0,0,1-.177-.493,8.126,8.126,0,0,1-.258-1.4,9.112,9.112,0,0,1,3.7-8.262,8.071,8.071,0,0,1,1.219-.744,2.032,2.032,0,0,1,.485-.2" transform="translate(-147.205 -124.706)" fill="#263238"/>
            <path id="Trazado_600874" data-name="Trazado 600874" d="M212.633,278.276a2.5,2.5,0,0,1-.225.437,3.806,3.806,0,0,1-.952,1.038,5.365,5.365,0,0,1-2.018.947,7.1,7.1,0,0,1-2.951.059,17.677,17.677,0,0,1-3.425-1.041,29.838,29.838,0,0,0-3.852-1.339,9.021,9.021,0,0,0-2.168-.264,7.95,7.95,0,0,0-2.24.368,15.889,15.889,0,0,0-4.239,2.264,48.291,48.291,0,0,1-4.035,2.724,10.211,10.211,0,0,1-4.3,1.434,6.782,6.782,0,0,1-2.121-.2,9.44,9.44,0,0,1-1.866-.734,34.232,34.232,0,0,1-3.039-1.884,10.874,10.874,0,0,0-4.682-2,5.976,5.976,0,0,0-1.874.1.486.486,0,0,1,.118-.039c.08-.02.2-.06.356-.088a5.075,5.075,0,0,1,1.408-.06,10.731,10.731,0,0,1,4.76,1.954,35.3,35.3,0,0,0,3.037,1.852,9.336,9.336,0,0,0,1.831.709,6.6,6.6,0,0,0,2.058.186,10.043,10.043,0,0,0,4.207-1.419c1.365-.761,2.647-1.76,4.015-2.716a16.011,16.011,0,0,1,4.3-2.29,8.126,8.126,0,0,1,2.3-.372,9.2,9.2,0,0,1,2.218.278,29.416,29.416,0,0,1,3.872,1.368,17.786,17.786,0,0,0,3.384,1.057,7.025,7.025,0,0,0,2.894-.024,5.372,5.372,0,0,0,1.995-.894,3.981,3.981,0,0,0,.967-.993c.18-.264.251-.418.263-.412" transform="translate(-95.518 -157.398)" fill="#263238"/>
            <path id="Trazado_600875" data-name="Trazado 600875" d="M285.892,264.15a.611.611,0,0,1-.086.17,3.2,3.2,0,0,1-.314.449,4.714,4.714,0,0,1-1.6,1.214,7.519,7.519,0,0,1-2.9.681,18.093,18.093,0,0,1-3.632-.335,23.123,23.123,0,0,0-3.587-.414,8.163,8.163,0,0,0-2.877.476,5.209,5.209,0,0,0-1.683,1.01c-.343.318-.493.536-.513.52s.028-.06.1-.162a3.363,3.363,0,0,1,.351-.421,4.927,4.927,0,0,1,1.686-1.1,8.021,8.021,0,0,1,2.935-.535,21.9,21.9,0,0,1,3.625.4,18.839,18.839,0,0,0,3.587.351,7.6,7.6,0,0,0,2.845-.618,4.947,4.947,0,0,0,1.6-1.127c.316-.346.444-.576.466-.562" transform="translate(-152.184 -149.612)" fill="#263238"/>
            <path id="Trazado_600876" data-name="Trazado 600876" d="M294.081,288.817a.63.63,0,0,1-.072.182,4.4,4.4,0,0,1-.261.5,7.092,7.092,0,0,1-1.292,1.6,8.214,8.214,0,0,1-1.122.885,8.858,8.858,0,0,1-1.46.751,7.8,7.8,0,0,1-3.707.477,33.527,33.527,0,0,1-3.661-.732,11.853,11.853,0,0,0-2.99-.34,5.953,5.953,0,0,0-1.982.378c-.447.176-.674.321-.685.3s.05-.047.157-.117a3.48,3.48,0,0,1,.494-.266,5.6,5.6,0,0,1,2.008-.457,11.453,11.453,0,0,1,3.04.3,36.633,36.633,0,0,0,3.64.711,7.742,7.742,0,0,0,3.609-.447,8.954,8.954,0,0,0,1.434-.715,8.539,8.539,0,0,0,1.115-.845,7.767,7.767,0,0,0,1.325-1.534c.267-.4.387-.641.407-.63" transform="translate(-156.806 -163.583)" fill="#263238"/>
            <path id="Trazado_600877" data-name="Trazado 600877" d="M171.536,309.955a3.976,3.976,0,0,0,1.694-.9,21.177,21.177,0,0,0,1.6-1.628,11.026,11.026,0,0,1,2.381-1.894,9.44,9.44,0,0,1,3.475-1.224,7.752,7.752,0,0,1,2.067-.007,8.468,8.468,0,0,1,2.108.592c1.39.562,2.717,1.4,4.184,2.055a8.513,8.513,0,0,0,2.323.692,5.889,5.889,0,0,0,1.234.033,7.008,7.008,0,0,0,1.231-.237,26.682,26.682,0,0,0,4.484-2.151,22.775,22.775,0,0,1,4.352-1.708,24.531,24.531,0,0,1,7.839-.878,23.541,23.541,0,0,1,5.251.872c.607.166,1.066.334,1.377.45l.353.131a.065.065,0,1,1-.008.022l-.359-.11c-.315-.1-.777-.256-1.385-.408a24.489,24.489,0,0,0-13.01.121,22.811,22.811,0,0,0-4.307,1.7,26.457,26.457,0,0,1-4.523,2.172,7.185,7.185,0,0,1-1.274.245,6.1,6.1,0,0,1-1.282-.034,8.7,8.7,0,0,1-2.384-.712c-1.488-.663-2.808-1.507-4.173-2.065a8.32,8.32,0,0,0-2.057-.588,7.586,7.586,0,0,0-2.015,0,9.338,9.338,0,0,0-3.42,1.176,11.038,11.038,0,0,0-2.371,1.843,19.919,19.919,0,0,1-1.635,1.607,4.022,4.022,0,0,1-1.256.726,1.945,1.945,0,0,1-.494.11" transform="translate(-97.156 -171.426)" fill="#263238"/>
            <path id="Trazado_600878" data-name="Trazado 600878" d="M139.629,293.691a1.489,1.489,0,0,0-.712-.372,2.807,2.807,0,0,0-.953.016c-.374.054-.794.158-1.275.225a3.647,3.647,0,0,1-1.586-.143,4.831,4.831,0,0,1-1.583-.908A7.131,7.131,0,0,1,132.193,291a11.485,11.485,0,0,1-.968-1.922,35.448,35.448,0,0,0-1.587-3.788,6.138,6.138,0,0,0-2.237-2.393,4.528,4.528,0,0,0-1.167-.494,3.568,3.568,0,0,0-.952-.1c-.529.026-.81.143-.817.115a.772.772,0,0,1,.2-.08,2.512,2.512,0,0,1,.61-.123,3.46,3.46,0,0,1,.986.063,4.527,4.527,0,0,1,1.219.479,6.2,6.2,0,0,1,2.338,2.43,32.946,32.946,0,0,1,1.614,3.8,11.524,11.524,0,0,0,.945,1.886,7.04,7.04,0,0,0,1.276,1.475,4.7,4.7,0,0,0,1.508.889,3.521,3.521,0,0,0,1.508.163,6.792,6.792,0,0,1,2.266-.168,1.247,1.247,0,0,1,.556.288.654.654,0,0,1,.137.17" transform="translate(-70.495 -159.836)" fill="#263238"/>
            <path id="Trazado_600879" data-name="Trazado 600879" d="M152.47,270.082c0,.007-.046.03-.144.067a2.377,2.377,0,0,1-.437.122,3.516,3.516,0,0,1-1.659-.132,5.851,5.851,0,0,1-2.129-1.252,16.146,16.146,0,0,1-1.956-2.293,12.712,12.712,0,0,0-1.976-2.212,5.329,5.329,0,0,0-2.131-1.072,3.414,3.414,0,0,0-1.605,0c-.372.1-.56.21-.572.187,0-.007.042-.036.132-.088a2.282,2.282,0,0,1,.415-.184,3.283,3.283,0,0,1,1.663-.07,5.32,5.32,0,0,1,2.228,1.066,12.26,12.26,0,0,1,2.026,2.237,17.08,17.08,0,0,0,1.916,2.276,5.9,5.9,0,0,0,2.038,1.254,3.679,3.679,0,0,0,1.6.2c.382-.046.585-.126.593-.1" transform="translate(-79.216 -149.007)" fill="#263238"/>
            <path id="Trazado_600880" data-name="Trazado 600880" d="M180.866,125.205c-5.038-11.367-19.84-4.614-19.84-4.614-6.98,2.563-7.968,10.415-6.356,15.771,1.791,5.95,4.212,13.145,6.511,17.228,4.622,8.21,11.72,6.84,11.72,6.84l2.373,5.843a9.92,9.92,0,0,0,18.463-7.262Z" transform="translate(-87.224 -67.174)" fill="#ffbe9d"/>
            <path id="Trazado_600881" data-name="Trazado 600881" d="M164.943,171.021a1.193,1.193,0,0,0,1.5.728,1.141,1.141,0,0,0,.779-1.437,1.194,1.194,0,0,0-1.5-.73,1.142,1.142,0,0,0-.78,1.438" transform="translate(-93.391 -96.018)" fill="#263238"/>
            <path id="Trazado_600882" data-name="Trazado 600882" d="M162.554,166.643c.193.095.808-.847,2.013-1.291,1.2-.46,2.311-.169,2.387-.365.04-.089-.2-.3-.688-.438a3.275,3.275,0,0,0-1.978.111,3.143,3.143,0,0,0-1.535,1.21c-.265.421-.292.732-.2.772" transform="translate(-92.042 -93.141)" fill="#263238"/>
            <path id="Trazado_600883" data-name="Trazado 600883" d="M190.934,162.691a1.194,1.194,0,0,0,1.5.728,1.141,1.141,0,0,0,.779-1.437,1.194,1.194,0,0,0-1.5-.73,1.143,1.143,0,0,0-.78,1.438" transform="translate(-108.112 -91.3)" fill="#263238"/>
            <path id="Trazado_600884" data-name="Trazado 600884" d="M189.856,156.514c.193.094.809-.848,2.013-1.291,1.2-.46,2.311-.169,2.387-.365.04-.089-.2-.3-.688-.437a3.27,3.27,0,0,0-1.977.111,3.147,3.147,0,0,0-1.535,1.21c-.264.421-.292.731-.2.772" transform="translate(-107.506 -87.405)" fill="#263238"/>
            <path id="Trazado_600885" data-name="Trazado 600885" d="M183.6,170.414a8.483,8.483,0,0,0-2.087.372c-.319.082-.633.129-.762-.061a1.67,1.67,0,0,1-.133-.988q.019-1.277.041-2.678a42.908,42.908,0,0,0-.23-6.881,42.961,42.961,0,0,0-.324,6.883c0,.935,0,1.826,0,2.678a1.9,1.9,0,0,0,.288,1.266.823.823,0,0,0,.672.262,2.224,2.224,0,0,0,.549-.121,8.352,8.352,0,0,0,1.983-.733" transform="translate(-102.01 -90.724)" fill="#263238"/>
            <path id="Trazado_600886" data-name="Trazado 600886" d="M197.591,205.336a23.671,23.671,0,0,0,10.527-7.452s-.694,7.073-9.728,9.5Z" transform="translate(-111.914 -112.08)" fill="#eb996e"/>
            <path id="Trazado_600887" data-name="Trazado 600887" d="M192.321,188.3a1.13,1.13,0,0,1,.584-2.022,1,1,0,0,1,.283-1.2,1.436,1.436,0,0,1,1.264-.231,1.97,1.97,0,0,1,1.407,1.929,2.156,2.156,0,0,1-1.482,1.913,2.384,2.384,0,0,1-2.371-.618" transform="translate(-108.68 -104.666)" fill="#eb996e"/>
            <path id="Trazado_600888" data-name="Trazado 600888" d="M193.582,182.668c-.2.062.282,1.369-.492,2.712s-2.219,1.715-2.161,1.9c.012.088.4.139,1-.064a3.468,3.468,0,0,0,1.832-1.513,3.02,3.02,0,0,0,.329-2.242c-.153-.565-.418-.835-.505-.794" transform="translate(-108.139 -103.459)" fill="#263238"/>
            <path id="Trazado_600889" data-name="Trazado 600889" d="M185.647,152.684c.24.283,1.385-.318,2.861-.672,1.469-.383,2.761-.392,2.839-.756.032-.171-.281-.405-.859-.552a5.106,5.106,0,0,0-4.342,1.087c-.441.4-.607.755-.5.892" transform="translate(-105.13 -85.292)" fill="#263238"/>
            <path id="Trazado_600890" data-name="Trazado 600890" d="M158.682,157.82c.313.195,1.037-.4,2.03-.78.979-.418,1.91-.5,2-.858.033-.17-.2-.4-.666-.517a3.147,3.147,0,0,0-3.245,1.319c-.248.412-.26.736-.117.835" transform="translate(-89.824 -88.126)" fill="#263238"/>
            <path id="Trazado_600891" data-name="Trazado 600891" d="M201.053,166.082a.269.269,0,1,1-.261-.282.272.272,0,0,1,.261.282" transform="translate(-113.57 -93.908)" fill="#263238"/>
            <path id="Trazado_600892" data-name="Trazado 600892" d="M204.238,155.437c0-.022-.878-9.256-8-15.623s2.532-8.835-3.667-17.243a26.606,26.606,0,0,0-7.254-7.111,10.869,10.869,0,0,1-1.46-1.1,45.537,45.537,0,0,0-3.579-3.25,6.182,6.182,0,0,0-3.375-1.232,9.826,9.826,0,0,0-2.27-.639c-3.478-.523-6.926.874-10.167,2.242-3.136,1.324-11.563,1-8.9,9.623h0a2.849,2.849,0,0,1,4.4-1.212,5.173,5.173,0,0,1,2.06,3.363c.376,2.008.967,4.232,3.4,4.748a4.245,4.245,0,0,0,1.8-.026c2.03-.455,3.661-3.527,7.535-2.8,0,0,3.772,1.171,4,3.541s-1.094,6.777,1.231,8.875,2.715,2.04,2.65,3.85c-.015.415-.018.7-.039.909-.3,2.868-.789,15.33,11.922,13.21l4.275-.261,5.438.134h0" transform="translate(-87.821 -61.807)" fill="#263238"/>
            <path id="Trazado_600893" data-name="Trazado 600893" d="M206.944,101.528a12.9,12.9,0,0,1,3.783-6.917,9.056,9.056,0,0,1,7.383-2.346,7.011,7.011,0,0,1,5.649,5.029,5.742,5.742,0,0,1-3.282,6.56c-1.892.715-3.994.248-6.015.2s-4.389.6-5.1,2.495" transform="translate(-117.211 -52.2)" fill="#263238"/>
            <path id="Trazado_600894" data-name="Trazado 600894" d="M214.1,111.249a1.525,1.525,0,0,0-.993-1.146,14.667,14.667,0,0,0-1.532-.425,4.327,4.327,0,0,1-1.935-1.227c-.433-.478-.754-1.048-1.179-1.534a2.309,2.309,0,0,0-1.649-.9,1.507,1.507,0,0,0-1.345,2.185,33.731,33.731,0,0,0,5.137,3.76,4.06,4.06,0,0,0,2.077.66c.735-.042,1.491-.643,1.418-1.376" transform="translate(-116.286 -60.049)" fill="#ef8b53"/>
            <path id="Trazado_600895" data-name="Trazado 600895" d="M258.873,182.236a2.127,2.127,0,0,1,.028-.359c.033-.234.057-.58.084-1.026a12.943,12.943,0,0,0-.4-3.743,12.484,12.484,0,0,0-2.518-4.938,22.1,22.1,0,0,0-5.35-4.252,26,26,0,0,1-5.491-4.186,9.958,9.958,0,0,1-1.711-2.5,7.377,7.377,0,0,1-.676-2.55,6.045,6.045,0,0,1,.79-3.688,4.434,4.434,0,0,1,.642-.814,2.149,2.149,0,0,1,.27-.241,7.51,7.51,0,0,0-.836,1.1,6.076,6.076,0,0,0-.707,3.629,7.305,7.305,0,0,0,.686,2.484,9.866,9.866,0,0,0,1.695,2.437,26.343,26.343,0,0,0,5.459,4.136,21.926,21.926,0,0,1,5.389,4.309,12.677,12.677,0,0,1,2.85,8.819,10.3,10.3,0,0,1-.127,1.027,2.154,2.154,0,0,1-.073.353" transform="translate(-137.524 -87.19)" fill="#263238"/>
            <path id="Trazado_600896" data-name="Trazado 600896" d="M180.871,119.011a2.124,2.124,0,0,1-.148.325c-.1.212-.262.518-.487.9A17.952,17.952,0,0,1,178,123.271a18.776,18.776,0,0,1-4.324,3.537,15.309,15.309,0,0,1-3,1.405,7.165,7.165,0,0,1-3.54.328,4.389,4.389,0,0,1-1.681-.717,5.333,5.333,0,0,1-1.242-1.262,28.114,28.114,0,0,1-1.632-2.875,10.877,10.877,0,0,0-.815-1.281,5.985,5.985,0,0,0-.987-1.02,6.308,6.308,0,0,0-2.281-1.125,6.452,6.452,0,0,0-3.67.1,10.058,10.058,0,0,0-1.252.558,2.082,2.082,0,0,1,.3-.2,2.532,2.532,0,0,1,.381-.208,3.84,3.84,0,0,1,.546-.233,6.52,6.52,0,0,1,6.1.964,6.132,6.132,0,0,1,1.029,1.046,11,11,0,0,1,.839,1.3,28.846,28.846,0,0,0,1.629,2.847,5.153,5.153,0,0,0,1.193,1.208,4.181,4.181,0,0,0,1.6.679,6.98,6.98,0,0,0,3.429-.317,15.312,15.312,0,0,0,2.961-1.374,19.049,19.049,0,0,0,4.312-3.466,19.345,19.345,0,0,0,2.278-2.971c.235-.376.409-.673.522-.878a2.148,2.148,0,0,1,.188-.3" transform="translate(-86.985 -67.407)" fill="#455a64"/>
            <path id="Trazado_600897" data-name="Trazado 600897" d="M208.131,121.008a3.108,3.108,0,0,1,.089.6c.018.2.016.435.024.715-.015.278-.016.6-.068.945a9.7,9.7,0,0,1-2.151,4.989,9.239,9.239,0,0,1-2.271,1.994,15.782,15.782,0,0,1-2.21,1.084c-.643.271-1.158.5-1.509.664a4.07,4.07,0,0,1-.551.252,2.548,2.548,0,0,1,.511-.33c.341-.193.85-.442,1.485-.731a17.512,17.512,0,0,0,2.164-1.114,9.38,9.38,0,0,0,2.207-1.961,9.989,9.989,0,0,0,2.167-4.867,15.209,15.209,0,0,0,.112-2.241" transform="translate(-112.987 -68.538)" fill="#455a64"/>
            <path id="Trazado_600898" data-name="Trazado 600898" d="M231.982,174.152a2.285,2.285,0,0,1,0-.368c.013-.24.033-.594.02-1.051a15.16,15.16,0,0,0-.548-3.808,16.876,16.876,0,0,0-.941-2.485,15.276,15.276,0,0,0-1.606-2.587,14.276,14.276,0,0,0-2.352-2.4c-.912-.732-1.942-1.39-2.915-2.187a10.172,10.172,0,0,1-1.342-1.3,6.8,6.8,0,0,1-.973-1.538,11.235,11.235,0,0,1-.833-3.311c-.127-1.079-.181-2.106-.281-3.06a12.938,12.938,0,0,0-.507-2.605,6.635,6.635,0,0,0-1.987-3.221,6.176,6.176,0,0,0-1.212-.717,2.218,2.218,0,0,1,.35.119,4.279,4.279,0,0,1,.917.529,6.579,6.579,0,0,1,2.085,3.242,12.88,12.88,0,0,1,.541,2.634c.108.959.169,1.986.3,3.055a11.142,11.142,0,0,0,.828,3.244,7.681,7.681,0,0,0,2.257,2.755c.959.786,1.988,1.445,2.911,2.189a14.344,14.344,0,0,1,2.378,2.445,15.229,15.229,0,0,1,1.61,2.633,16.578,16.578,0,0,1,.927,2.524,14.43,14.43,0,0,1,.482,3.85,9.239,9.239,0,0,1-.062,1.054,2.237,2.237,0,0,1-.049.365" transform="translate(-122.628 -81.286)" fill="#455a64"/>
            <path id="Trazado_600899" data-name="Trazado 600899" d="M228.653,98.83a8.054,8.054,0,0,0-2.065-.879,7.566,7.566,0,0,0-5.245.711,10.461,10.461,0,0,0-3.834,3.757,15.791,15.791,0,0,0-.793,1.451,3.626,3.626,0,0,1-.277.544,2.792,2.792,0,0,1,.2-.579,11.725,11.725,0,0,1,.737-1.5,10.134,10.134,0,0,1,3.863-3.874,7.489,7.489,0,0,1,5.392-.666,5.616,5.616,0,0,1,1.536.664,3.471,3.471,0,0,1,.372.263c.082.064.122.1.118.107" transform="translate(-122.588 -55.258)" fill="#455a64"/>
            <path id="Trazado_600900" data-name="Trazado 600900" d="M229.856,110.636c-.023.035-.513-.331-1.407-.713a8.156,8.156,0,0,0-7.285.4c-.846.478-1.293.9-1.32.864a1.393,1.393,0,0,1,.3-.309,6.745,6.745,0,0,1,.941-.693,7.8,7.8,0,0,1,7.432-.411,6.693,6.693,0,0,1,1.012.585,1.4,1.4,0,0,1,.33.274" transform="translate(-124.517 -61.752)" fill="#455a64"/>
            <path id="Trazado_600901" data-name="Trazado 600901" d="M127.8,377.057l-38.368-3.24,33.008-9.637,34.724.055Z" transform="translate(-50.654 -206.269)" fill="#fff"/>
            <path id="Trazado_600902" data-name="Trazado 600902" d="M127.082,376.91s.18-.089.532-.248l1.558-.7,5.933-2.618,21.3-9.346.038.182-34.724-.038.032,0-2.936.858-30.075,8.768-.02-.2,27.73,2.383,7.84.69,2.074.19.534.053c.12.013.181.023.181.023s-.06,0-.179-.007l-.531-.037-2.07-.16-7.837-.634-27.758-2.3-.541-.045.521-.152,30.069-8.791,2.936-.857.016,0h.016l34.724.074h.454l-.416.181-21.354,9.279-5.947,2.568-1.564.668c-.354.149-.537.219-.537.219" transform="translate(-49.936 -206.121)" fill="#263238"/>
            <path id="Trazado_600903" data-name="Trazado 600903" d="M41.222,374.151,4.314,371.426l35.2-6.658H72.871Z" transform="translate(-2.443 -206.601)" fill="#e0e0e0"/>
            <path id="Trazado_600904" data-name="Trazado 600904" d="M40.218,374s.2-.068.576-.186l1.684-.514,6.4-1.926,22.957-6.848.027.188-33.359.017.021,0-3.171.6L3.328,371.377l-.011-.2,26.707,2.013,7.523.583,1.987.162.511.046c.114.011.173.021.173.021s-.058,0-.172,0l-.509-.03-1.985-.131-7.522-.527L3.3,371.378l-.762-.055.751-.142,32.024-6.071,3.171-.6.01,0h.01l33.359.017h.664l-.637.187L48.9,371.487l-6.415,1.874-1.688.486c-.382.108-.579.157-.579.157" transform="translate(-1.439 -206.454)" fill="#263238"/>
            <path id="Trazado_600905" data-name="Trazado 600905" d="M39.725,366.626s-.865-8.018-7.519-7.36-15.485,5.127-22.742,5.127l-7.793-.606,16.616-3.421s41.241-8.71,41.241-8.437,13.87-3.067,13.376,5.154Z" transform="translate(-0.946 -199.077)" fill="#fff"/>
            <path id="Trazado_600906" data-name="Trazado 600906" d="M38.779,366.491s.211-.067.613-.186l1.773-.52,6.721-1.959,24.045-6.969-.068.085a5.378,5.378,0,0,0-.294-2.209,4.025,4.025,0,0,0-1.359-1.8,8.7,8.7,0,0,0-4.5-1.421,26.008,26.008,0,0,0-5,.156l-1.275.162c-.215.028-.427.059-.648.079a1.03,1.03,0,0,1-.188,0l-.04-.009a.134.134,0,0,1-.067-.061c-.011-.05-.031-.062.009.019.064.049.057.026.054.032h-.011l-.072.006-.317.046c-.854.142-1.714.311-2.581.479-6.931,1.369-14.278,2.908-21.891,4.492l-17.187,3.6L.745,363.751l-.013-.2,7.792.612H8.517a31.372,31.372,0,0,0,7.462-1.134c2.329-.6,4.506-1.29,6.558-1.91s3.981-1.182,5.8-1.57c.907-.194,1.785-.345,2.631-.441a7.187,7.187,0,0,1,2.429.075,5.853,5.853,0,0,1,3.393,2.2,9.491,9.491,0,0,1,1.419,2.667,12.043,12.043,0,0,1,.485,1.809,5.628,5.628,0,0,1,.089.636s-.011-.055-.029-.16-.046-.264-.089-.47a12.924,12.924,0,0,0-.51-1.8,9.524,9.524,0,0,0-1.431-2.634,5.77,5.77,0,0,0-3.35-2.141,7.076,7.076,0,0,0-2.392-.062c-.84.1-1.714.252-2.616.45-1.807.4-3.73.96-5.779,1.588s-4.226,1.321-6.56,1.93a31.459,31.459,0,0,1-7.5,1.156H8.51l-7.793-.6L0,363.7l.7-.145,15.742-3.25L33.632,356.7c7.614-1.584,14.96-3.119,21.9-4.483.868-.167,1.727-.335,2.589-.478.87-.02,1.709-.193,2.566-.276a26.152,26.152,0,0,1,5.044-.15,8.879,8.879,0,0,1,4.6,1.468,4.217,4.217,0,0,1,1.42,1.888,5.557,5.557,0,0,1,.3,2.289l0,.067-.065.018-24.136,6.89-6.712,1.906-1.76.5c-.4.111-.6.162-.6.162" transform="translate(0 -198.942)" fill="#263238"/>
            <path id="Trazado_600907" data-name="Trazado 600907" d="M142.907,385.166c-.7,0-25.368-1.936-25.368-1.936" transform="translate(-66.573 -217.058)" fill="#fff"/>
            <path id="Trazado_600908" data-name="Trazado 600908" d="M117.539,383.222a1.108,1.108,0,0,1,.259,0l.741.035,2.72.172,8.967.651,8.966.718,2.717.243.739.078a1.128,1.128,0,0,1,.258.043,1.1,1.1,0,0,1-.258,0l-.739-.035-2.719-.172-8.973-.652-8.969-.717-2.717-.243-.738-.078a1.131,1.131,0,0,1-.256-.042" transform="translate(-66.573 -217.05)" fill="#263238"/>
            <path id="Trazado_600909" data-name="Trazado 600909" d="M152.3,381.3c-.7,0-25.368-1.936-25.368-1.936" transform="translate(-71.894 -214.87)" fill="#fff"/>
            <path id="Trazado_600910" data-name="Trazado 600910" d="M126.934,379.357a1.1,1.1,0,0,1,.259,0l.741.035,2.72.172,8.967.651,8.966.718,2.717.243.739.078a.131.131,0,1,1,0,.045l-.739-.036-2.719-.171-8.973-.652-8.969-.718-2.717-.243-.738-.077a1.122,1.122,0,0,1-.255-.042" transform="translate(-71.894 -214.861)" fill="#263238"/>
            <path id="Trazado_600911" data-name="Trazado 600911" d="M165.684,377.351c-.7,0-26.541-1.542-26.541-1.542" transform="translate(-78.809 -212.855)" fill="#fff"/>
            <path id="Trazado_600912" data-name="Trazado 600912" d="M139.144,375.8a1.222,1.222,0,0,1,.271-.007l.774.023,2.845.13,9.382.512,9.382.578,2.843.2.773.066a1.2,1.2,0,0,1,.27.039,1.234,1.234,0,0,1-.27.007l-.774-.024L161.8,377.2l-9.387-.513-9.384-.578-2.843-.2-.772-.066a1.224,1.224,0,0,1-.268-.039" transform="translate(-78.81 -212.845)" fill="#263238"/>
            <path id="Trazado_600913" data-name="Trazado 600913" d="M178.162,373.222c-.7,0-26.809-.968-26.809-.968" transform="translate(-85.725 -210.841)" fill="#fff"/>
            <path id="Trazado_600914" data-name="Trazado 600914" d="M151.354,372.236a1.246,1.246,0,0,1,.273-.013l.782.007,2.874.068,9.477.309,9.477.375,2.872.14.781.049a1.269,1.269,0,0,1,.272.033,1.226,1.226,0,0,1-.272.013l-.781-.007-2.873-.068-9.481-.309-9.478-.375-2.872-.14-.78-.049a1.247,1.247,0,0,1-.271-.033" transform="translate(-85.726 -210.824)" fill="#263238"/>
            <path id="Trazado_600915" data-name="Trazado 600915" d="M190.035,368.8c-.7,0-26.471-.108-26.471-.108" transform="translate(-92.641 -208.827)" fill="#fff"/>
            <path id="Trazado_600916" data-name="Trazado 600916" d="M163.565,368.6c0-.062,5.927-.089,13.235-.059s13.236.1,13.236.166-5.925.089-13.237.059-13.235-.1-13.235-.167" transform="translate(-92.642 -208.734)" fill="#263238"/>
            <path id="Trazado_600917" data-name="Trazado 600917" d="M75.222,364.38a2.111,2.111,0,0,1,.519-.155,7.482,7.482,0,0,1,1.47-.17,8.319,8.319,0,0,1,7.819,4.964,7.485,7.485,0,0,1,.471,1.4,2.129,2.129,0,0,1,.081.536,16.208,16.208,0,0,0-.7-1.871,8.5,8.5,0,0,0-7.674-4.871,16.012,16.012,0,0,0-1.989.165" transform="translate(-42.605 -206.195)" fill="#263238"/>
            <path id="Trazado_600918" data-name="Trazado 600918" d="M84.574,361.906a2.112,2.112,0,0,1,.519-.155,7.479,7.479,0,0,1,1.47-.17,8.319,8.319,0,0,1,7.819,4.964,7.482,7.482,0,0,1,.471,1.4,2.129,2.129,0,0,1,.081.536,16.2,16.2,0,0,0-.7-1.871,8.5,8.5,0,0,0-7.674-4.872,16.115,16.115,0,0,0-1.989.165" transform="translate(-47.902 -204.794)" fill="#263238"/>
            <path id="Trazado_600919" data-name="Trazado 600919" d="M94.26,360.056a2.2,2.2,0,0,1,.51-.16,9.287,9.287,0,0,1,1.44-.232,8.144,8.144,0,0,1,2.166.1,6.793,6.793,0,0,1,2.469.986,8.459,8.459,0,0,1,3.089,3.644,7.5,7.5,0,0,1,.462,1.384,2.123,2.123,0,0,1,.079.529,16.575,16.575,0,0,0-.686-1.846,8.736,8.736,0,0,0-3.067-3.521,7.435,7.435,0,0,0-4.5-1.117c-1.215.068-1.951.277-1.96.233" transform="translate(-53.388 -203.693)" fill="#263238"/>
            <path id="Trazado_600920" data-name="Trazado 600920" d="M104.592,357.852a2.107,2.107,0,0,1,.492-.16,10.158,10.158,0,0,1,1.387-.264,6.731,6.731,0,0,1,2.1.064,6.257,6.257,0,0,1,2.361,1.029,8.459,8.459,0,0,1,2.935,3.58,7.549,7.549,0,0,1,.44,1.343,1.989,1.989,0,0,1,.074.513,17.669,17.669,0,0,0-.66-1.79,8.768,8.768,0,0,0-2.917-3.46,6.257,6.257,0,0,0-2.275-1.012,6.968,6.968,0,0,0-2.044-.109c-1.172.109-1.885.309-1.894.266" transform="translate(-59.24 -202.413)" fill="#263238"/>
            <path id="Trazado_600921" data-name="Trazado 600921" d="M115.224,355.97a2.09,2.09,0,0,1,.467-.163c.305-.089.746-.219,1.306-.339a5.193,5.193,0,0,1,2.015-.076,5.535,5.535,0,0,1,2.229,1.06,8.439,8.439,0,0,1,2.738,3.49,7.6,7.6,0,0,1,.412,1.289,1.887,1.887,0,0,1,.069.491c-.043.01-.158-.69-.627-1.716a8.8,8.8,0,0,0-2.726-3.373,5.511,5.511,0,0,0-2.134-1.037,5.285,5.285,0,0,0-1.946.029c-1.108.21-1.794.384-1.8.345" transform="translate(-65.262 -201.252)" fill="#263238"/>
            <path id="Trazado_600922" data-name="Trazado 600922" d="M110.36,328.43a16.232,16.232,0,0,0,3.546-.156,3.391,3.391,0,0,1,3.145,1.262,2.806,2.806,0,0,1,0,2.577,8.287,8.287,0,0,1-1.614,2.128" transform="translate(-62.507 -185.928)" fill="#ffbe9d"/>
            <path id="Trazado_600923" data-name="Trazado 600923" d="M102.559,318.671,84.16,295.1a.419.419,0,0,0-.588-.072l-1.5,1.17a.42.42,0,0,0-.072.588l18.4,23.567a.419.419,0,0,0,.588.073l1.5-1.17a.419.419,0,0,0,.072-.588" transform="translate(-46.394 -167.053)" fill="#263238"/>
            <path id="Trazado_600924" data-name="Trazado 600924" d="M82.971,294.115l-1.4-1.79a.188.188,0,0,0-.264-.033l-.673.525a.188.188,0,0,0-.033.264l1.4,1.79a.188.188,0,0,0,.264.033l.673-.525a.188.188,0,0,0,.033-.264" transform="translate(-45.631 -165.529)" fill="#263238"/>
            <path id="Trazado_600925" data-name="Trazado 600925" d="M123.595,350.784l3.022,2.324.31-.242-.885-3.2Z" transform="translate(-70.003 -198.048)" fill="#263238"/>
            <path id="Trazado_600926" data-name="Trazado 600926" d="M88.245,306.83a.055.055,0,0,1-.043-.021l-5.826-7.463a1.959,1.959,0,0,1,.111-2.746l.28-.218a.054.054,0,0,1,.076.01.055.055,0,0,1-.01.076l-.28.218a1.852,1.852,0,0,0-.092,2.594l5.826,7.463a.055.055,0,0,1-.01.076.056.056,0,0,1-.033.011" transform="translate(-46.372 -167.862)" fill="#263238"/>
            <path id="Trazado_600927" data-name="Trazado 600927" d="M90.951,321.37s-1.892-1.608-3.311-1.419-6.149,5.3-6.338,8.324-1.419,4.824.757,6.054,5.581,3.216,7.851,2.554c0,0,4,.456,4.454-.616,0,0,3.514,1.123,3.776-1.277,0,0,2.519-.4,2.365-1.938s-9.554-11.684-9.554-11.684" transform="translate(-45.756 -181.208)" fill="#ffbe9d"/>
            <path id="Trazado_600928" data-name="Trazado 600928" d="M108.232,342.51c-.043.045-2.234-2-4.893-4.569s-4.78-4.686-4.737-4.731,2.234,2,4.894,4.569,4.779,4.686,4.736,4.731" transform="translate(-55.847 -188.727)" fill="#eb996e"/>
            <path id="Trazado_600929" data-name="Trazado 600929" d="M100.753,348.612a1.641,1.641,0,0,1-.41-.16,10.669,10.669,0,0,1-1.058-.56,23.049,23.049,0,0,1-3.187-2.324c-1.172-1-2.175-1.968-2.9-2.67l-.847-.84a1.674,1.674,0,0,1-.291-.329,1.633,1.633,0,0,1,.351.264c.216.181.522.451.9.787.75.672,1.768,1.619,2.933,2.614a29.383,29.383,0,0,0,3.125,2.36c.843.543,1.4.821,1.384.856" transform="translate(-52.144 -193.552)" fill="#eb996e"/>
            <path id="Trazado_600930" data-name="Trazado 600930" d="M93.595,352.835a4.459,4.459,0,0,1-1.071-.451,21.235,21.235,0,0,1-2.4-1.452,23.842,23.842,0,0,1-2.213-1.72,4.623,4.623,0,0,1-.816-.827,8.2,8.2,0,0,1,.919.705c.558.443,1.344,1.038,2.239,1.656s1.729,1.14,2.345,1.5a8.743,8.743,0,0,1,1,.591" transform="translate(-49.33 -197.321)" fill="#eb996e"/>
            <path id="Trazado_600931" data-name="Trazado 600931" d="M245.78,324.721a14.426,14.426,0,0,0-9-1.1c-5.159,1.006-15.972,3.583-19.708,4.014s-19.528,3.958-19.528,3.958l1.662,9.381,51.519-.111c.941-5.653,2.68-12.665-4.944-16.144" transform="translate(-111.887 -183.143)" fill="#ffbe9d"/>
            <path id="Trazado_600932" data-name="Trazado 600932" d="M179.025,346.945h3.457l5.571-10.957c-.715-.121-15.592-2.321-16.469-2.08l-3.567,12.676s10.69.361,11.008.362" transform="translate(-95.163 -189.112)" fill="#ffbe9d"/>
            <path id="Trazado_600933" data-name="Trazado 600933" d="M167.685,359.39c.011.021.1.04.248.057,1.228.134,6.9-.212,6.9-.212.26-.732-.231-2.934-.937-3.063s-6.745.278-6.745.278-.951.125-1.188,1.723c-.147.987,1.72,1.216,1.72,1.216" transform="translate(-93.997 -201.719)" fill="#ffbe9d"/>
            <path id="Trazado_600934" data-name="Trazado 600934" d="M163.263,351.954c.011.021.1.04.248.056,1.229.134,6.593.076,6.824-.578.26-.733-.153-2.567-.859-2.7s-6.745.278-6.745.278-.951.125-1.188,1.724c-.146.987,1.72,1.216,1.72,1.216" transform="translate(-91.492 -197.507)" fill="#ffbe9d"/>
            <path id="Trazado_600935" data-name="Trazado 600935" d="M161.07,344.686c.011.021.1.04.248.057,1.229.134,6.593.075,6.825-.578.26-.733-.153-2.567-.859-2.7s-6.745.278-6.745.278-.951.125-1.188,1.724c-.147.987,1.72,1.216,1.72,1.216" transform="translate(-90.25 -193.39)" fill="#ffbe9d"/>
            <path id="Trazado_600936" data-name="Trazado 600936" d="M159.009,337.458c.011.021.1.04.248.056,1.229.134,6.593.075,6.825-.578.259-.733-.153-2.567-.859-2.7s-6.745.279-6.745.279-.951.124-1.188,1.723c-.146.987,1.72,1.216,1.72,1.216" transform="translate(-89.083 -189.296)" fill="#ffbe9d"/>
            <path id="Trazado_600937" data-name="Trazado 600937" d="M173.868,355.994a10.562,10.562,0,0,1-2.612.242,9.986,9.986,0,0,1-2.583-.093,10.551,10.551,0,0,1,2.612-.241,9.98,9.98,0,0,1,2.583.093" transform="translate(-95.535 -201.57)" fill="#eb996e"/>
            <path id="Trazado_600938" data-name="Trazado 600938" d="M171.006,348.727a20.632,20.632,0,0,1-3.713.287,20.613,20.613,0,0,1-3.724-.051,20.632,20.632,0,0,1,3.713-.287,20.654,20.654,0,0,1,3.723.051" transform="translate(-92.644 -197.466)" fill="#eb996e"/>
            <path id="Trazado_600939" data-name="Trazado 600939" d="M170.421,341.315a20.636,20.636,0,0,1-3.713.287,20.6,20.6,0,0,1-3.724-.051,20.629,20.629,0,0,1,3.713-.287,20.655,20.655,0,0,1,3.724.051" transform="translate(-92.313 -193.268)" fill="#eb996e"/>
            <path id="Trazado_600940" data-name="Trazado 600940" d="M183.837,331.73s-10.127-4.5-10.759-3.852a14.875,14.875,0,0,0-1.607,2.741Z" transform="translate(-97.119 -185.671)" fill="#ffbe9d"/>
          </g>
        </g>
        <g id="Grupo_878384" data-name="Grupo 878384">
          <g id="Grupo_878383" data-name="Grupo 878383" clip-path="url(#clip-path)">
            <path id="Trazado_600941" data-name="Trazado 600941" d="M285.977,51.834a23.331,23.331,0,1,1,21.752,24.809,23.331,23.331,0,0,1-21.752-24.809" transform="translate(-161.946 -17.01)" fill="#ebebeb"/>
            <path id="Trazado_600942" data-name="Trazado 600942" d="M285.962,51.73s.006.129.006.379,0,.626-.005,1.11q0,.367-.007.817c.011.3.053.627.082.983s.067.737.1,1.146a4.016,4.016,0,0,0,.092.628q.062.321.127.662a22.222,22.222,0,0,0,2.168,6.352,23.19,23.19,0,0,0,5.466,6.973l.953.813c.337.254.694.49,1.046.741s.7.52,1.088.729l1.166.657c.2.109.392.225.593.331l.628.277,1.274.562c.434.176.891.3,1.342.456a11.855,11.855,0,0,0,1.382.411,21.614,21.614,0,0,0,2.909.532c.5.05,1,.132,1.507.158l1.539.022c.258,0,.518.018.777,0l.781-.068c.522-.052,1.05-.078,1.576-.151a24.528,24.528,0,0,0,3.15-.7l.787-.231c.131-.04.264-.075.395-.119l.383-.155,1.545-.624c.507-.233,1-.512,1.5-.767.247-.136.509-.249.746-.405l.716-.466a26.2,26.2,0,0,0,2.776-2.061l1.263-1.22.317-.307.29-.335.577-.675.58-.678.516-.732.516-.737.259-.369c.079-.128.15-.261.225-.392l.894-1.583.742-1.675a24.8,24.8,0,0,0,1.675-7.231,24.8,24.8,0,0,0-.714-7.391q-.259-.882-.516-1.758l-.679-1.686-.171-.418-.209-.4-.415-.8-.417-.793-.486-.748-.484-.745-.243-.37-.275-.346-1.093-1.375a26.066,26.066,0,0,0-2.483-2.407l-.649-.555c-.215-.186-.459-.332-.686-.5-.466-.319-.915-.659-1.387-.957l-1.45-.821-.36-.2c-.123-.061-.251-.113-.375-.17l-.751-.333a24.543,24.543,0,0,0-3.031-1.109c-.512-.141-1.033-.236-1.543-.356l-.765-.17c-.255-.051-.515-.066-.771-.1l-1.529-.18c-.507-.041-1.014-.025-1.515-.041a21.659,21.659,0,0,0-2.954.147,11.921,11.921,0,0,0-1.424.226c-.467.095-.937.159-1.39.277l-1.336.39-.659.192-.631.251-1.242.5c-.414.156-.786.392-1.174.58s-.767.389-1.134.6l-1.052.682a23.2,23.2,0,0,0-6.33,6.2,22.227,22.227,0,0,0-2.979,6.013l-.213.64a4.041,4.041,0,0,0-.173.611l-.253,1.122c-.075.348-.159.667-.209.963l-.1.811-.139,1.1c-.033.248-.055.375-.055.375s.007-.128.032-.377.066-.623.118-1.1l.09-.814c.047-.3.127-.618.2-.968s.157-.725.243-1.128a4.029,4.029,0,0,1,.169-.614q.1-.313.209-.644a22.137,22.137,0,0,1,2.959-6.058,23.244,23.244,0,0,1,6.346-6.26l1.057-.689c.369-.211.757-.4,1.14-.605s.765-.429,1.181-.588l1.25-.506.636-.254.663-.2,1.345-.4c.456-.12.93-.186,1.4-.282a11.909,11.909,0,0,1,1.435-.231,21.715,21.715,0,0,1,2.978-.155c.505.014,1.016,0,1.528.038l1.542.178c.258.035.521.05.778.1l.772.17c.515.119,1.04.215,1.557.356a24.7,24.7,0,0,1,3.06,1.115l.757.335c.126.057.255.109.379.171l.363.2,1.464.827c.477.3.931.642,1.4.964.229.169.477.316.693.5l.656.56a26.333,26.333,0,0,1,2.508,2.427l1.1,1.387.278.349.246.373.489.751.491.755.422.8.42.806.211.4.173.422.687,1.7.522,1.775a25.022,25.022,0,0,1,.722,7.462,24.991,24.991,0,0,1-1.693,7.3l-.749,1.69-.9,1.6c-.076.132-.148.267-.227.4l-.261.373-.522.743-.523.738-.585.684-.583.681-.292.338-.321.31L324.7,70.88a26.353,26.353,0,0,1-2.8,2.078l-.723.47c-.24.157-.5.271-.753.408-.509.258-1,.538-1.515.772l-1.56.628-.387.156c-.131.045-.266.079-.4.12l-.795.232a24.726,24.726,0,0,1-3.179.705c-.53.073-1.064.1-1.59.15l-.787.067c-.262.017-.524,0-.784,0l-1.552-.025c-.512-.026-1.017-.11-1.519-.162a21.777,21.777,0,0,1-2.932-.542,12,12,0,0,1-1.393-.416c-.454-.157-.915-.285-1.352-.463l-1.282-.569-.632-.281c-.2-.108-.4-.224-.6-.335l-1.173-.665c-.392-.211-.732-.5-1.094-.737s-.713-.492-1.052-.749l-.958-.822a23.252,23.252,0,0,1-5.474-7.036,22.131,22.131,0,0,1-2.142-6.393l-.123-.666a4.036,4.036,0,0,1-.087-.631l-.094-1.15c-.025-.356-.064-.684-.071-.986s.012-.574.018-.819q.018-.726.028-1.111c.008-.25.017-.378.017-.378" transform="translate(-161.931 -16.905)" fill="#263238"/>
            <path id="Trazado_600943" data-name="Trazado 600943" d="M349.961,67.533a4.682,4.682,0,0,1-.824.055l-2.268.046c-1.924.027-4.6.045-7.631.049h-.15v-.15c0-.484,0-.995,0-1.513,0-3.38.017-6.439.044-8.654.02-1.068.036-1.951.048-2.622a5.876,5.876,0,0,1,.059-.961,5.884,5.884,0,0,1,.059.961c.012.671.028,1.555.048,2.622.027,2.214.044,5.274.044,8.654,0,.518,0,1.029,0,1.513l-.15-.15c3.026,0,5.707.023,7.631.049l2.268.046a4.679,4.679,0,0,1,.824.055" transform="translate(-192.056 -30.462)" fill="#263238"/>
            <path id="Trazado_600944" data-name="Trazado 600944" d="M339.4,38.871a6.5,6.5,0,0,1,.151,1.96,6.5,6.5,0,0,1-.151,1.96,6.5,6.5,0,0,1-.151-1.96,6.5,6.5,0,0,1,.151-1.96" transform="translate(-192.149 -22.016)" fill="#263238"/>
            <path id="Trazado_600945" data-name="Trazado 600945" d="M360.543,46.124a6.3,6.3,0,0,1-1.259,1.473,6.312,6.312,0,0,1-1.473,1.259,6.311,6.311,0,0,1,1.259-1.473,6.3,6.3,0,0,1,1.473-1.259" transform="translate(-202.659 -26.122)" fill="#263238"/>
            <path id="Trazado_600946" data-name="Trazado 600946" d="M374.136,61.776a8.126,8.126,0,0,1-1.608,1.073,8.149,8.149,0,0,1-1.693.933,8.593,8.593,0,0,1,3.3-2.006" transform="translate(-210.037 -34.984)" fill="#263238"/>
            <path id="Trazado_600947" data-name="Trazado 600947" d="M379.871,84.83a23.742,23.742,0,0,1-5.345,0,23.742,23.742,0,0,1,5.345,0" transform="translate(-212.128 -47.961)" fill="#263238"/>
            <path id="Trazado_600948" data-name="Trazado 600948" d="M294.794,84.008a21.186,21.186,0,0,1-5.048,0,21.186,21.186,0,0,1,5.048,0" transform="translate(-164.11 -47.496)" fill="#263238"/>
            <path id="Trazado_600949" data-name="Trazado 600949" d="M302.2,101.5a21.945,21.945,0,0,1-4,3.225,21.941,21.941,0,0,1,4-3.225" transform="translate(-168.894 -57.487)" fill="#263238"/>
            <path id="Trazado_600950" data-name="Trazado 600950" d="M318.839,114.884a17.161,17.161,0,0,1-1.3,2.25,17.105,17.105,0,0,1-1.378,2.2,13.316,13.316,0,0,1,2.676-4.452" transform="translate(-179.067 -65.068)" fill="#263238"/>
            <path id="Trazado_600951" data-name="Trazado 600951" d="M339.4,125.161a11.967,11.967,0,0,1-.151-2.672,11.966,11.966,0,0,1,.151-2.673,11.977,11.977,0,0,1,.151,2.673,11.978,11.978,0,0,1-.151,2.672" transform="translate(-192.149 -67.863)" fill="#263238"/>
            <path id="Trazado_600952" data-name="Trazado 600952" d="M360.938,119.374a11.513,11.513,0,0,1-4-3.486,24.488,24.488,0,0,1,1.995,1.749,24.47,24.47,0,0,1,2,1.737" transform="translate(-202.165 -65.636)" fill="#263238"/>
            <path id="Trazado_600953" data-name="Trazado 600953" d="M374.286,106.153a18.41,18.41,0,0,1-3.326-3.326,18.4,18.4,0,0,1,3.326,3.326" transform="translate(-210.107 -58.239)" fill="#263238"/>
            <path id="Trazado_600954" data-name="Trazado 600954" d="M303.06,63.827a7.139,7.139,0,0,1-1.562-1.348,7.15,7.15,0,0,1-1.348-1.562,7.15,7.15,0,0,1,1.562,1.348,7.138,7.138,0,0,1,1.348,1.562" transform="translate(-170 -34.5)" fill="#263238"/>
            <path id="Trazado_600955" data-name="Trazado 600955" d="M318.516,47.7a6.849,6.849,0,0,1-1.535-1.315,6.857,6.857,0,0,1-1.322-1.529,6.847,6.847,0,0,1,1.535,1.315,6.861,6.861,0,0,1,1.323,1.529" transform="translate(-178.784 -25.406)" fill="#263238"/>
          </g>
        </g>
      </g>
      <rect id="Rectángulo_342673" data-name="Rectángulo 342673" width="295" height="186" fill="none"/>
    </g>
  </g>
</svg>
